<svg xmlns="http://www.w3.org/2000/svg" viewBox="0 0 141.82 52.59"><defs><style>.cls-1{fill:#bb5c32;}</style></defs><g id="Capa_2" data-name="Capa 2"><g id="TIENDA"><g id="Gafas"><path class="cls-1" d="M34.46,0C38.64.22,42.82.46,47,.65a9.26,9.26,0,0,1,7.43,4.13A113.75,113.75,0,0,1,61,14.83c1.51,2.7,2.05,2.9,5,2.19a20.39,20.39,0,0,1,9.91.06c2.81.7,3.27.51,4.73-2.08,2-3.55,4.34-6.88,6.69-10.21A9.32,9.32,0,0,1,94.61.68,187.43,187.43,0,0,1,119.69.4a8.37,8.37,0,0,1,6.53,3.76A113.05,113.05,0,0,1,133.56,16a6.9,6.9,0,0,0,5.64,4c2.05.21,2.6,1,2.62,3.05v.51c0,4.47,0,4.52-4.12,5.89-1.61.53-2.26,1.82-2.84,3.16-2,4.62-4.65,8.91-7,13.35-2.28,4.28-5.62,6.24-10.49,6.4-7.13.24-14.25.3-21.37-.08A10.25,10.25,0,0,1,87.77,48,94.72,94.72,0,0,1,78,30.36a17.27,17.27,0,0,1-1.23-4.91,3.09,3.09,0,0,0-2.58-2.76,13.62,13.62,0,0,0-5.89-.16c-2,.36-2.86,1.34-3.21,3.36-.82,4.77-3.22,8.91-5.4,13.12A89.52,89.52,0,0,1,54,48a9.6,9.6,0,0,1-7.9,4.22,205,205,0,0,1-22.72,0,9.88,9.88,0,0,1-8.51-5C12,42.49,9.08,37.79,7,32.62a5.27,5.27,0,0,0-4.33-3.54C.31,28.69,0,28.15,0,25.78c0-4.84,0-4.86,4.62-6.2a4.62,4.62,0,0,0,2.89-2.45c2.2-4.15,4.86-8,7.34-12A9.47,9.47,0,0,1,23.09.33C26.88.22,30.67,0,34.46,0ZM45.31,47.85A6.12,6.12,0,0,0,50,45.51,63.78,63.78,0,0,0,59.55,28,8,8,0,0,0,59,21.31,132.7,132.7,0,0,0,50.79,8.07a6.79,6.79,0,0,0-5.45-2.95A164.69,164.69,0,0,0,24.5,4.74a6.34,6.34,0,0,0-5.16,2.77,120,120,0,0,0-8.16,13.67A9.42,9.42,0,0,0,11,29.69a110.83,110.83,0,0,0,8.45,15.65A5.22,5.22,0,0,0,24,47.87c3.11,0,6.21,0,9.32,0A71.07,71.07,0,0,0,45.31,47.85ZM96.79,5.1a6.67,6.67,0,0,0-5.46,2.6,94.53,94.53,0,0,0-8.89,14.6,6.57,6.57,0,0,0-.37,4.79,54.41,54.41,0,0,0,10.18,18.8c1.25,1.57,3,1.87,4.86,2a155,155,0,0,0,20.67,0,5.58,5.58,0,0,0,4.53-2.56,94.25,94.25,0,0,0,8.63-16.12,8.88,8.88,0,0,0-.12-7.57,123.89,123.89,0,0,0-8.35-14.15,6.05,6.05,0,0,0-5.18-2.73c-3.39-.11-6.77-.42-8.65-.24Z"/></g></g></g></svg>