<svg xmlns="http://www.w3.org/2000/svg" viewBox="0 0 145.2 48.59"><defs><style>.cls-1{fill:#8d8933;}</style></defs><g id="Capa_2" data-name="Capa 2"><g id="TIENDA"><g id="Gafas"><path class="cls-1" d="M105.7,48.51c-11,0-19.41-5.66-24.58-16.34C80,29.93,79,27.65,77.94,25.42c-1.19-2.4-3-4-5.85-3.84s-4.17,1.9-5.16,4.25a82.86,82.86,0,0,1-4.28,8.85A26.94,26.94,0,0,1,35.11,48.35c-9.55-1.23-16.63-6.43-22.44-13.62A59.83,59.83,0,0,1,.58,10.14,21.9,21.9,0,0,1,0,6C-.07,3.18.74,2,3.42,1.31A45,45,0,0,1,14,0C30.33-.34,46.09,2.22,60.93,9.35c2.4,1.15,4.7,2.52,7.33,3.08a20.32,20.32,0,0,0,14-2A93.27,93.27,0,0,1,117.39.52,98.47,98.47,0,0,1,138.2.6a22.42,22.42,0,0,1,3.81.79c2.54.8,3.38,2.18,3.15,4.87a42.3,42.3,0,0,1-3.95,14.14c-3.68,8.05-8.42,15.35-15.39,21A30.46,30.46,0,0,1,105.7,48.51Zm-.33-41.08C99.63,8.5,94,9.8,89,13c-5.15,3.3-6.91,7.75-5.47,13.72,3.81,15.73,20.93,21.66,33.17,15.69,10.85-5.29,15.86-14.53,16.66-26.23.36-5.19-1.79-7.68-6.87-8.89a44.19,44.19,0,0,0-8.19-.82A64.6,64.6,0,0,0,105.37,7.43Zm-87-.07c-4.59,1.16-6.58,3.43-6.43,8.2.34,10.52,4.44,19.2,13.39,25.13A24,24,0,0,0,58.47,34.2,20.74,20.74,0,0,0,62,24.76c.63-5.43-1.8-9.86-6.92-12.47C46.74,8,37.74,6.63,28.29,6.43A47,47,0,0,0,18.38,7.36Z"/></g></g></g></svg>