<svg xmlns="http://www.w3.org/2000/svg" viewBox="0 0 140.86 38.92"><defs><style>.cls-1{fill:#e8d9b9;}</style></defs><g id="Capa_2" data-name="Capa 2"><g id="TIENDA"><g id="Gafas"><path class="cls-1" d="M106.44,38.9a35.65,35.65,0,0,1-19.11-4.82c-4.69-2.73-8.25-6.63-9.46-12.21a10,10,0,0,1-.13-3,3.16,3.16,0,0,0-2.13-3.32,12.56,12.56,0,0,0-9.72-.38,3.71,3.71,0,0,0-2.75,3.94C63.3,24,61,27.76,57.61,31c-5,4.64-11,6.82-17.66,7.59a40.07,40.07,0,0,1-17.21-1.33c-4.73-1.53-9-3.73-12.41-7.53a13.28,13.28,0,0,1-3-4.65A5,5,0,0,0,3.1,21.25C0,20.75,0,20.64,0,17.2c0-2.53.62-3.52,2.39-3.77.83-.12,1.67-.28,2.5-.33a4.64,4.64,0,0,0,3.6-1.9c4-5.3,9.41-8.33,15.71-9.84,8.58-2,17.13-2,25.37,1.54C53.39,4.53,57.13,6.43,59.65,10a2.78,2.78,0,0,0,3.38.86c3.83-1.27,7.86-2,11.63-.75,4,1.36,6.19.09,9.12-2.65C88.21,3.34,94,1.22,100.17.52a44,44,0,0,1,17.09,1c6.15,1.72,11.46,4.69,15.32,9.91A4.73,4.73,0,0,0,136,13c5.85.89,4.71.72,4.85,5.91a1.78,1.78,0,0,1-1.58,2c-.82.18-1.64.4-2.46.56a3.35,3.35,0,0,0-2.68,2.32c-1.66,4.59-5,7.62-9,10.18C119.39,37.73,113,38.74,106.44,38.9Zm-9.6-34A22.43,22.43,0,0,0,85.8,11C80,17.05,81,24.59,87.6,29.72A28.16,28.16,0,0,0,103,35.42c7.64.6,15-.57,21.45-5.07,3.65-2.56,6.23-6.07,6.19-10.86-.06-5.35-3-9-7.35-11.58-5.13-3.1-10.8-4.4-17.63-4.37C103.19,3.32,100,4.05,96.84,4.88ZM40,35.15c6-1.18,11.6-3,15.74-7.79a11.3,11.3,0,0,0,2.57-10.88C57.05,11.8,53.63,9,49.57,6.94A31.89,31.89,0,0,0,33.19,3.57c-6.47.31-12.55,1.74-17.76,5.87-7,5.58-6.92,14.45-.35,19.74a29.4,29.4,0,0,0,19.2,6.32A34.57,34.57,0,0,0,40,35.15Z"/></g></g></g></svg>