<svg xmlns="http://www.w3.org/2000/svg" viewBox="0 0 145.12 56.95"><defs><style>.cls-1{fill:#2f1307;}</style></defs><g id="Capa_2" data-name="Capa 2"><g id="TIENDA"><g id="Gafas"><path class="cls-1" d="M36.51,0a28.2,28.2,0,0,1,22,11c.53.66,1,1.36,1.59,2a4.5,4.5,0,0,0,5.16,1.4A25.64,25.64,0,0,1,80,14.38c2.62.74,3.89.43,5.57-1.83a32,32,0,0,1,8.66-8.23,29.31,29.31,0,0,1,36.94,5.25c2.46,2.67,4.82,5.44,8.59,6.29,1.1.25,2.21.42,3.32.6,1.29.21,2.07.85,2.05,2.24,0,.74,0,1.47,0,2.21,0,3.33,0,3.32-3.29,4.25a4.12,4.12,0,0,0-3.16,3.59,44.64,44.64,0,0,1-1.73,8.62c-3.89,10.83-11.67,17.29-22.8,19.13-11.29,1.87-20.66-2.14-27.76-11.19a38.17,38.17,0,0,1-7.17-16.45,4.46,4.46,0,0,1,.58-3.52c1.41-2.18,1-3.78-1.38-4.77a14.1,14.1,0,0,0-12,.24c-1.93.91-2.38,2.25-1.27,4a5.8,5.8,0,0,1,.74,4.65c-1.76,8.09-5.11,15.31-11.57,20.73C37.82,64.07,12.19,55.36,7.5,34.3c-.42-1.87-.66-3.77-1-5.65A4,4,0,0,0,3,25.08C.3,24.58.07,24.32,0,21.67v-.34c-.1-4.7.12-4.6,4.05-5.08a12.73,12.73,0,0,0,8.55-5A28.59,28.59,0,0,1,30.5.5,39.55,39.55,0,0,1,36.51,0Zm-1,4.33A24.07,24.07,0,0,0,11.3,28.43,24.57,24.57,0,0,0,35.82,52.71C49,52.58,60.1,41.6,60,28.71A24.19,24.19,0,0,0,35.54,4.36Zm74.07,0a23.94,23.94,0,0,0-24.38,24,24.33,24.33,0,0,0,24.54,24.33c12.32,0,24.11-10.18,24-24.11C133.84,15,123.33,4.47,109.61,4.37Z"/></g></g></g></svg>