<svg xmlns="http://www.w3.org/2000/svg" viewBox="0 0 142.1 52.05"><defs><style>.cls-1{fill:#d5af62;}.cls-2{fill:#bd996f;}.cls-3{fill:#bc996f;}.cls-4{fill:#c7a780;}.cls-5{fill:#b18b5e;}</style></defs><g id="Capa_2" data-name="Capa 2"><g id="TIENDA"><g id="Gafas"><path class="cls-1" d="M115.41,52c-9.1,0-15.76-3.35-21.78-8.23-7.36-6-12.81-13.31-15.42-22.57-.6-2.15-.38-4.38-.93-6.53-.63-2.42-1.37-3.12-3.87-3.57a12.92,12.92,0,0,0-4.88,0c-2.34.45-3.24,1.25-3.68,3.57s-.6,4.48-1.13,6.66a38.35,38.35,0,0,1-8.23,15.43c-5.47,6.52-12,11.75-20.31,14.1-9.11,2.58-17.38,1.07-24.09-6.07C7.45,40.94,6,36.07,5.09,31a46.3,46.3,0,0,1-.62-6.22c0-1.1-.38-1.46-1.48-1.47-2.49,0-3.64-2-2.61-4.38A1.66,1.66,0,0,1,2,18c2.84-.17,2.89-.17,3.66-2.9C7.84,7.51,13.34,3.58,20.55,1.73A53.85,53.85,0,0,1,37.67.21,63,63,0,0,0,47,.13c1.45-.12,2.93.11,4.39.11,14.54,0,29.07,0,43.61,0,4.47,0,8.92-.43,13.38-.25,5.13.21,10.26.52,15.18,2.25,6.84,2.41,11.55,6.77,13,14.07.29,1.4.93,1.67,2.19,1.65,2.9,0,4,1.47,3,4.21-.39,1.15-1.43,1.22-2.4,1.11-1.55-.17-2,.42-2,2a32.18,32.18,0,0,1-3.1,14.45C130.64,47.28,123,52.2,115.41,52ZM53.61,2.6c4.28,1.42,7.93,3.59,9.73,8,.47,1.15,1,.44,1.51.07a11.29,11.29,0,0,1,12.28-.06c1,.66,1.3.46,1.74-.47a13.19,13.19,0,0,1,7.67-6.76c.81-.31,1.6-.65,2.4-1l-.09-.27H52.62C53.21,2.42,53.4,2.53,53.61,2.6Z"/><path class="cls-2" d="M102.47,47.12A47,47,0,0,1,86.86,34a33.72,33.72,0,0,1-6.6-13c-1.15-4.8-1.21-9.52,2.74-13.36a14.9,14.9,0,0,1,5.91-3.13,54.8,54.8,0,0,1,21-2.41c5.07.33,10.27.56,14.94,3,1.94,1,4.24,1.59,5.42,3.74.45.55.28,1.17.23,1.79C130.14,15,128.43,19,126.71,23a47.35,47.35,0,0,1-10.83,15.64,42.79,42.79,0,0,1-11,7.85A4.87,4.87,0,0,1,102.47,47.12Z"/><path class="cls-3" d="M38,2.68A1.16,1.16,0,0,1,39.23,2c5.36.6,10.74,1.12,15.82,3.13a11.64,11.64,0,0,1,7.24,13.39,37,37,0,0,1-8.56,17.15A46.63,46.63,0,0,1,41.45,46.1a27.39,27.39,0,0,1-14.81,3.83,19.54,19.54,0,0,1-13.59-5.88,17,17,0,0,1-4.59-7.76c.8-.21,1.08.48,1.46.91.84.93,1.53.76,2.18-.19,2.62-3.8,5.54-7.38,8.24-11.13,4.44-6.18,9-12.27,13.56-18.35.85-1.13,1.67-2.27,2.45-3.45A2.84,2.84,0,0,1,38,2.68Z"/><path class="cls-4" d="M38,2.68C33.23,9.11,28.53,15.56,23.75,22c-3.3,4.41-6.3,9-9.9,13.22-.54.64-.87,1.45-1.35,2.14-1.15,1.69-1.74,1.7-3.06.11-.32-.38-.45-.93-1-1.13C8.35,34,7.44,31.82,7,29.56s.07-4.22,0-6.33c-.07-1.61-.43-3.19.06-4.83,1.18-4,2.67-7.74,5.74-10.66a12.36,12.36,0,0,1,3.73-2.27A44.11,44.11,0,0,1,36.68,2.36,6.76,6.76,0,0,1,38,2.68Z"/><path class="cls-5" d="M102.47,47.12c16.18-7.77,24.94-20.91,27.81-38.33A14,14,0,0,1,135,17.92a39.73,39.73,0,0,1-.25,14.46c-1.35,6.13-4.11,11.36-9.63,14.69A20.76,20.76,0,0,1,112.48,50,30.73,30.73,0,0,1,102.47,47.12Z"/></g></g></g></svg>