<svg xmlns="http://www.w3.org/2000/svg" viewBox="0 0 141.64 52.68"><defs><style>.cls-1{fill:#65798c;}</style></defs><g id="Capa_2" data-name="Capa 2"><g id="TIENDA"><g id="Gafas"><path class="cls-1" d="M31.54,0c8,.26,15.93.25,23.74,2.16a10.58,10.58,0,0,1,6.54,4.21,6.64,6.64,0,0,0,5.72,3c1.64,0,3.27.13,4.91.14,3.16,0,5.76-.85,7.74-3.62,2.16-3,5.61-3.86,9.07-4.37A154.75,154.75,0,0,1,125.44.7c4.34.38,8.65.9,13,1.5,2.71.38,3.1.84,3.16,3.61.05,2.14,0,4.29.07,6.44a1.77,1.77,0,0,1-1.35,2.05c-2,.51-2.76,2-3.2,3.8-.9,3.63-1,7.38-1.61,11-.69,4.06-1.32,8.13-2.39,12.12-1.41,5.27-4.49,8.63-10,9.8a79.55,79.55,0,0,1-29.82.4c-4.72-.78-7.71-3.59-9.63-7.68a111.13,111.13,0,0,1-6.55-18.16,19.73,19.73,0,0,0-.74-2.25,5.44,5.44,0,0,0-5.21-3.63,5.37,5.37,0,0,0-5.52,3.15C64.41,25.29,64,28,63.15,30.46c-1.72,5-3.2,10-5.8,14.63a12.28,12.28,0,0,1-9.2,6.46,82.67,82.67,0,0,1-28.5-.25C13.11,50.1,9.49,46.24,8.14,39.84c-1.29-6.14-2.23-12.33-3-18.55a26.35,26.35,0,0,0-.73-3.64,4.55,4.55,0,0,0-3-3.4A1.86,1.86,0,0,1,0,12.2C.05,9.83.08,7.45.07,5.08A2.37,2.37,0,0,1,2.35,2.44c4-.54,7.93-1.18,11.92-1.54A163.19,163.19,0,0,1,31.54,0ZM19,7.74c-3.95.87-6.4,3.15-6.87,7.32-.88,7.68.19,15.19,1.8,22.69a9.44,9.44,0,0,0,7.75,7.91,61.05,61.05,0,0,0,24.2.38A9.3,9.3,0,0,0,53,40.93a51.47,51.47,0,0,0,6.09-22c.2-6.13-2.47-9.5-8.46-10.85C44.94,6.78,39.11,6.6,32.71,6.35A70.86,70.86,0,0,0,19,7.74Zm98.49,38.52c5.29-.7,9.12-3,10.3-8.68,1.47-7.06,2.61-14.12,1.89-21.36-.54-5.42-2.48-7.63-7.86-8.64-10.61-2-21.18-1.39-31.68.73-4.65.94-7.43,4.25-7.52,8.8A48.27,48.27,0,0,0,89,41.57a8.44,8.44,0,0,0,6.19,4.33,61.76,61.76,0,0,0,12.62,1.15A61.08,61.08,0,0,0,117.48,46.26Z"/></g></g></g></svg>