<svg xmlns="http://www.w3.org/2000/svg" viewBox="0 0 800 450.21"><g id="Capa_2" data-name="Capa 2"><g id="DiseñosMascotas"><rect width="800" height="353" style="fill:#203d62"/><path d="M302.23,235.91a98.83,98.83,0,0,1-31.12-50.71c-.3-1.19-.37-2.45-.55-3.67-.55-.76-.68-1.78,0-2.27.92-.71,1.41.34,1.85,1a13,13,0,0,1,1.14,2.23c5.41,12.56,15.79,17.54,28.62,18,23.15.73,40.52-9.67,53.14-28.68a24.39,24.39,0,0,1,1.63-2.42c3.79-3.59,8.43-6.21,11.07-11.09,4.56-8.44,4.86-16.87.95-25.53-.5-1.13-1.31-2.15-1-3.51,1.48-2.9,1.52-6.17,2.46-9.23a61.58,61.58,0,0,1,11.05-20.91c9.14-11.33,22.23-12,32.52-1.69,6.6,6.58,10.3,14.78,13,23.51.82,2.65,1.43,5.37,2.13,8.07.23,1.92-.73,3.51-1.49,5.13-5.37,11.42-.12,27.41,10.42,32.74,1.2.61,2.55,1.18,3.22,2.53.18,2.53,1.84,4.34,3.25,6.17,14.22,18.5,32.65,27.61,56.21,24.21C512,198.11,520.14,192,524.22,181c.38-1,.64-2.29,1.81-2.65,1.49-.45,1.75.28,1,1.51-4,22.2-14.69,40.5-31.67,55.23-1.4,3.81-4.88,5.65-7.89,7.68C475,251.19,461.66,258,447,262.06c-4.84,1.34-5,1.66-2.71,6.23,12.51,24.53,18.41,50.85,21.3,78,.14,1.34.68,2.76-.34,4l-133.73,0c-1-6.07,1.12-11.83,1.9-17.71a201.75,201.75,0,0,1,19.17-64.09c2.38-4.8,2.17-4.83-3-6.51-16.26-5.27-31.66-12.24-45-23.24A7.32,7.32,0,0,1,302.23,235.91Z" style="fill:#d6d1cd"/><path d="M302.23,235.91c6.88,4.14,12.78,9.68,20,13.38a169.66,169.66,0,0,0,29.55,12.09c4.55,1.34,4.86,1.87,2.62,6.24A187.76,187.76,0,0,0,338.77,310c-2.89,12.26-4.61,24.71-6.33,37.16a8,8,0,0,1-.9,3.16l-64.34,0c1.94-6.38,2.07-13.05,3.17-19.57a367.15,367.15,0,0,1,11.15-45.46,283.33,283.33,0,0,1,17.08-42.77C299.71,240.22,301,238.09,302.23,235.91Z" style="fill:#a4a4b0"/><path d="M465.27,350.31c-1.65-8.81-2.28-17.77-4-26.59-3.86-19.52-9.24-38.47-18.54-56.17-2.54-4.85-2.46-4.84,2.72-6.27a129.42,129.42,0,0,0,50-26.2c-.31,1.49.44,2.7,1.09,3.92a280.36,280.36,0,0,1,22.31,57.26c4.58,16.79,8.66,33.74,10,51.2a12.92,12.92,0,0,0,.83,2.75Z" style="fill:#a4a4b0"/><path d="M357.4,169.92c-12.71,24.35-43.18,37.51-67.3,29.43-9.35-3.13-15-9.63-18.54-18.42-.14-.35.22-1.23-.75-1-.07,0-.14.22-.15.34-.05.42-.07.83-.1,1.25-2.61-6.68-1.81-13.68-1.5-20.52a105.75,105.75,0,0,1,2.63-20.15c1.92-7.86,4.1-15.73,8.5-22.49,4.88-7.52,4.7-15.28,3.66-23.55-1.36-10.86-2.13-21.72-1-32.74.86-8.16,1.55-16.26,4.22-24.06,3.61-10.49,10-13.21,20.38-9.41,12.64,4.62,23.24,12.25,33.09,21.14,1.75,1.58,3.71,2.93,5.37,4.6a5,5,0,0,0,6,1.34c17.28-6.44,35.21-8.58,53.55-7.84a130.58,130.58,0,0,1,39.72,8c2.44.89,3.72.67,5.89-1.36C463.52,42.89,476.52,32,493.45,27.52c7.69-2,11.76.17,15.05,7.22,4.13,8.85,5.5,18.35,5.92,27.87a199.87,199.87,0,0,1-2.32,43.56c-.45,2.56.84,4.58,2,6.64a108.23,108.23,0,0,1,14,47,131.37,131.37,0,0,1-.18,17c-.07,1.09.19,2.27-.86,3.08-.24-1.19-1.08-1.54-1.36-.29-4.45,19.52-27,24.75-44.78,21-17.28-3.6-30.15-13.37-39.63-27.93-.34-.52-3.11-1.77-.25-2.92,1.72-.67,3.27.2,4.85.6a27.92,27.92,0,0,0,31.43-13.19c6.25-11.06,4.14-23.78-4.8-33.31-10.29-11-28.43-9.75-37.82-.11-1.86,1.92-3.19,4.6-6.17,5.25-2.61-4.6-2.78-10-5-14.79-2.85-6.06-6-11.85-10.81-16.6-8.73-8.57-19.3-9-27.95-.41-8.28,8.22-12.85,18.52-14.78,30-.15.92.53,2.62-1.58,1.65-1.81-.41-2.54-2.08-3.7-3.23-7.93-7.92-17.13-12-28.37-8.55s-17.93,11.17-19.94,22.87,6.51,25.52,17.93,29.43c6.39,2.18,12.75,2.75,19.22.4C354.8,169.29,356.17,168.65,357.4,169.92Z" style="fill:#a4a5b0"/><path d="M357.4,169.92c-2.79.75-5.54,1.91-8.38,2.2-10.73,1.09-20.39-1.55-27.17-10.35-7.31-9.48-9.42-20.05-3.67-31.22,5.32-10.35,14.17-15.74,25.59-15.71,10.49,0,18.91,4.93,24.62,14,2.81,5.31,4.55,10.74,4.25,17a26.56,26.56,0,0,1-11.56,21.39Z" style="fill:#efede4"/><path d="M428.54,129c5.24-7.2,11.76-12.22,20.9-13.75,15.71-2.62,31.7,9.88,32.46,25.78,1.09,22.82-19.68,37.43-40.85,28.73a27.49,27.49,0,0,1-13.38-38.45A14.48,14.48,0,0,0,428.54,129Z" style="fill:#f0eee4"/><path d="M398.88,192.35c-9.71,8.61-18.26,10.09-27.4,4.93a14.89,14.89,0,0,1-6.52-7.86c-.65-1.64-1.33-3.72,1-4.71s3.43.61,4.24,2.32c2.81,5.91,7.76,7.6,13.8,7.16a11.79,11.79,0,0,0,10.6-8.11c1.12-3.51,1.05-6.34-2.8-8.39a16.52,16.52,0,0,1-6.11-6.17c-1.45-2.4-1-4.51,1.85-5.17a52.06,52.06,0,0,1,21.88-.11c3.26.65,3.79,3.09,1.81,5.7a25.24,25.24,0,0,1-7,6.54c-2.31,1.39-2.73,3.23-2.22,5.67,1.17,5.63,4.68,9,10.42,9.91,6.32,1,11.59-1.28,14.29-6.26,1-1.87,1.81-4.39,4.43-2.91s1.37,3.94.39,5.93C425.72,202.73,406.86,203.1,398.88,192.35Z" style="fill:#180704"/><path d="M502.85,71.65a109.34,109.34,0,0,1-1.45,18.6c-.4,2.79-1.21,3.1-3.17,1.08-5.42-5.57-10.86-11.1-17.18-15.73A114.3,114.3,0,0,0,466.51,66c-3-1.58-4-2.73-.89-5.77a83.4,83.4,0,0,1,23.66-16c5.63-2.58,9-1.06,10.79,4.81A72.57,72.57,0,0,1,502.85,71.65Z" style="fill:#d6d2ca"/><path d="M294.76,70.5c-.24-6.69-.15-13.36,1.78-19.83,1.77-5.93,4.33-9.91,12.19-6.09a98.8,98.8,0,0,1,24.16,16.77c1,.91,2.81,1.76.08,3.25a135.4,135.4,0,0,0-32.05,24.31c-1.16,1.19-2.08,3.58-4.16,2.75-1.8-.72-.81-3-1.17-4.55C294.32,81.61,295,76,294.76,70.5Z" style="fill:#d8d3ca"/><path d="M366.46,144.29A19.26,19.26,0,0,1,347,163.55c-10.52-.13-18.88-9.14-18.62-20.07.24-10.29,8.95-18.91,19-18.85A19.4,19.4,0,0,1,366.46,144.29Z" style="fill:#260a01"/><path d="M430.71,143.94c.08-10.33,8.68-19.23,18.58-19.26,11.21,0,19.53,8.25,19.52,19.41,0,10.94-8.49,19.6-19.08,19.5A19.4,19.4,0,0,1,430.71,143.94Z" style="fill:#240902"/><path d="M355.2,131.35a5.65,5.65,0,0,1,5.42,6.1c-.36,3.43-2.93,4.59-5.87,4.82s-5.38-2.38-5.38-5.67A5.53,5.53,0,0,1,355.2,131.35Z" style="fill:#f2eee5"/><path d="M456.9,142.4c-3.14,0-5.22-2.37-5.18-5.8a5.06,5.06,0,0,1,5.66-5.22c3.09.29,5.24,1.79,5.31,5.24A5.64,5.64,0,0,1,456.9,142.4Z" style="fill:#f5f0e9"/><path d="M357.73,335.41a3,3,0,0,1-1.09,2.07c-9.11,9.25-18.34,18.37-27.86,27.18-5.51,5.1-11.06,10.15-16.59,15.23-4.26-5-7.87-10.42-11.69-15.72-6.17-8.57-12.48-17-18.6-25.63q-11.81-16.64-24.12-32.9a9.3,9.3,0,0,1-2-4.07c-1.06-2.52.39-3.92,2.35-4.9,4.64-2.3,9.36-4.44,14.07-6.61a14.72,14.72,0,0,0,3.42-1.78c-.44-1.14-1.59-1.41-2.37-2-1.45-1.18-3.32-2-4.34-3.54-1.89-2.84-4.12-2.76-6.92-1.73-1.56.57-3.34,1.55-5,0a54.72,54.72,0,0,1,11.61-25.3c8.39-10.06,23.74-14.08,35.54-9,5.62,2.42,9,6.88,11.47,12.17,1.48.54,1.82,1.9,2.1,3.18a24.12,24.12,0,0,1,.76,6.87,10.32,10.32,0,0,1-1.74,5.87c-2.86,4.23-5.66,8.59-10.25,11.24-2.09,1.21-2.6,2.81-2.26,5.18,1.38,9.69,3.73,19.05,9.1,27.38,4.37,6.77,9.95,12.19,17.67,15.16,5.94,2.28,12,2.13,18.05,1.12a38.75,38.75,0,0,1,5.85-.86C356,334,357.31,333.89,357.73,335.41Z" style="fill:#807e8b"/><path d="M317.22,263.64c-.5-1.72-1.05-3.32-1.61-4.77,2.72-1.09,5.41-2.24,8.16-3.24,3.64-1.32,6.29-3.69,6.93-7.51,1.79-10.64,8.8-15.77,18.52-18.32,4.83-1.27,9.61-2.73,14.4-4.1,3.53-.55,6.92-1.81,10.52-2.08,1.22-.09,2.46-.24,2.87,1.24s-.46,2.3-1.77,2.87l-4.16,1.86c-2.43,1.1-2.51,1.25-7.07,3.22-7.72,3.32-10.25,2.75-11.18,5a4.66,4.66,0,0,0,1.3,5.18c.87.6,2.25.81,11-3,4.26-1.85,8.82-2.89,13.2-4.42,1.68-.59,3.08-.52,3.83,1.23s-.88,2.36-2,2.94a125.85,125.85,0,0,1-11.32,5.67c-7.91,3.17-11.76,4.8-12,6.84a3.78,3.78,0,0,0,.6,2.74,3.07,3.07,0,0,0,.95.74c1.37.69,6.37-1,12.63-4.11,3.3-1.11,6.62-2.17,9.9-3.35,1.56-.55,2.87-.48,3.71,1.05s-.49,2.27-1.46,3.23a6.51,6.51,0,0,1-2.78,1.86c-1.94,1.07-1.28.88-4.31,2.67-6.6,3.91-10.4,5.21-17.32,9.76-1.45.95-1.4,1-1.89,1.23-5,2.6-11.45,1.39-15.21-.33-.68-.31-2.17-.77-4.2-1.78a11.52,11.52,0,0,0-10.1-.1c-2.66,1.12-3.42,1.82-6.69,2.79-.87.26-1.61.43-2.11.53C318.23,267.47,317.8,265.61,317.22,263.64Z" style="fill:#afb6bc"/><path d="M266.87,278.91l.69.68c5.3,5.13,7.33,6.55,8.43,7.27.31.19.81.51,1.44.88A111.55,111.55,0,0,0,257,299.63a12.34,12.34,0,0,1-5.65,2.6c-5.63.87-12.9-2.67-13.32-7.29-.31-3.37,3.13-6.21,4.55-7.38,3.1-2.56,5.93-2.95,11.52-4.48C257.14,282.25,261.54,280.94,266.87,278.91Z" style="fill:#aeb4bb"/><path d="M0,352.74,800,353v97.21H0Z" style="fill:#102a4d"/><path d="M280.1,381.31c-5.8-8.89-11-18.06-14.7-28.09-1.57-4.3-6.27-4.18-9.7-5.82-4-3.15-9.18-4.36-13.13-7.72-4.42-3.77-7.07-8.1-5.85-14.12a2.32,2.32,0,0,1,2.05.89c3.07,4,7.18,6.44,11.91,8.07,4.31,1.49,8.6,3.07,13,4.38a29.15,29.15,0,0,1,9.08,4.2c13.5,10,29.06,15.14,45.13,19,20.77,5,41.84,7.52,63.21,8.57a404.18,404.18,0,0,0,76.42-3.85,228,228,0,0,0,27.66-5.9c2.88-.78,5.81-2,8.93-1,1.38,1.85.35,3.5-.54,5.06-10.47,18.31-25.31,31.59-44.94,39.62a155.49,155.49,0,0,1-50,11.16c-32.56,2-63.88-2.79-94.07-15.07a68.27,68.27,0,0,1-15.25-8.62C285.84,388.86,281.65,386.2,280.1,381.31Z" style="fill:#9b582b"/><path d="M280.1,381.31a55.28,55.28,0,0,0,9.34,10c13.83,11.12,28.85,20.19,45.75,25.8a166.78,166.78,0,0,0,30.57,6.71c11.57,1.56,23.19,2.92,34.83,2.54,24.59-.82,49.07-2.84,72.05-12.77,13.58-5.88,26.4-13,36.61-24.11,2.27-2.47,4.09-5.79,8-6.43.95,1.19,0,2-.63,2.77-1.88,2.18-3.7,4.43-5.71,6.49-5,5.1-5,5.07.72,9.09,6.44,4.51,8.63,9.1,6,14.44-1.8,3.68-5,6.36-8.79,8.32-14.58,7.61-30.39,11-46.41,13.72-28.11,4.76-56.48,5.44-84.83,4.34a310.89,310.89,0,0,1-42.83-4.56,229.25,229.25,0,0,1-32.56-8.12c-7-2.35-13.95-5.35-19-11.17-4.31-5-4.07-8.88.55-13.58a30.42,30.42,0,0,1,3.34-3.09c6-4.5,6.05-4.47.62-9.91-1.94-1.93-3.94-3.82-5.78-5.84C280.73,384.68,279.09,383.47,280.1,381.31Z" style="fill:#0a1c39"/><path d="M517.2,383c-20.45,24.25-47.37,36.21-78,41.21a232.52,232.52,0,0,1-44,3.34c-28.12-.79-55.72-4.55-81-18-9.12-4.85-17.93-10.26-24.77-18.27l14.64,8.18c6.52,3.92,13,8.06,20.12,10.66,12.49,4.56,25,8.82,38.32,11,15.74,2.63,31.47,2.69,47.23,2.28a223.67,223.67,0,0,0,29-2.54,116.13,116.13,0,0,0,20.65-5.24c7.6-2.67,15.35-5.08,22.4-9.5,5-3.11,10.05-6,15-9.18,8.94-5.66,14.89-13.76,20.92-21.92a56.6,56.6,0,0,0,9.57-18.56,14.8,14.8,0,0,1,6.17-8.26,57.23,57.23,0,0,1,12.35-6.82c5-1.87,9.24-4.58,12-9.31.64-1.1,1.21-2.6,3-2.11-.1,4.63-2.38,8-6.15,10.47a98.62,98.62,0,0,1-15.33,7.8c-3.74,1.62-7,3.57-7.24,8.24C527.54,365.56,523.46,374.92,517.2,383Z" style="fill:#7e4b32"/><path d="M516.66,393.18a14.2,14.2,0,0,1-6.21,3.16C511.57,393,513.67,393.09,516.66,393.18Z" style="fill:#102a4d"/><path d="M237.51,326.52c2.81-11,10.77-15.74,21.2-17.53,8.83-1.52,17.18-4.06,25.05-8.76,7.4-4.42,7.74-3.86,13,1.44-1,1.76-3,1.95-4.57,2.68-6,2.7-11.51,6-15.62,11.23-3.54,4.53-4,9.65-1.45,13.72,5.81,8.23,14.39,12.56,23.42,15.89,18.79,6.94,38.4,10.37,58.26,12.5a396.41,396.41,0,0,0,55.55,1.76c27.85-.94,55.5-3.73,82.21-12.42a98.62,98.62,0,0,0,17.93-7.86,28.75,28.75,0,0,0,10.57-9.83c2.86-4.42,2.73-8.69-.68-13-6.63-8.4-15.9-12.49-25.83-15.42-1.34-.4-2.7.06-4.05.36s-3.25.94-4.08-.79c-.91-1.9.47-3.09,2.06-4l2.7-5.82,11.3,3.66a50.92,50.92,0,0,1,14.06,6.21c6.21,3.85,13,5.48,20,6.78,5.81,1.08,11.67,2.27,16.35,6.33,3.3,2.87,5.79,6.21,6,10.81s-2.88,7.44-6.37,9.72c-5.94,3.9-12.87,5.44-19.43,7.84a40.18,40.18,0,0,0-9.3,4.74,112.76,112.76,0,0,1-26,13.12c-1.8.67-3.68,1.69-5.66.4-17,4.46-34.05,8.36-51.61,10.07-17.23,1.68-34.49,3-51.75,2.44-26.21-.8-52.26-3.26-77.7-10.29-14.86-4.11-29.1-9.19-41.73-18.48-6.38-4.69-14.77-5.3-22.05-8.32C244.47,333.75,239.63,331.91,237.51,326.52Z" style="fill:#c47a47"/><path d="M494.14,360.32a129.82,129.82,0,0,0,33.74-16.6c6-4.11,13.56-5.07,20.3-7.78,5.65-2.27,10.59-5.3,12.75-11.44,1.33,1.84.18,3.68,0,5.52-3.53,8.76-11.62,11.68-19.32,15.14-7,3.16-12.07,7.69-14.33,15.76-2.16,7.67-7.34,14-12.36,20.36-3.18,4-5.83,8.58-10.06,11.43-6.87,4.61-12.13,11.66-20.87,13.53-2,.44-3.53,3-5.57,3.75-8.23,3.07-16.34,6.37-24.77,9-16.53,5.23-33.51,5.48-50.4,6.37a185.24,185.24,0,0,1-34.91-1.56,161.63,161.63,0,0,1-24.11-5.34c-12.57-3.75-24.72-8.09-35.88-15a11.27,11.27,0,0,1-4.25-4c7.4,1.65,14.34,4.74,21.55,7,10,3.15,20.33,4.89,30.58,6.47a193.83,193.83,0,0,0,31.22,1.95c22.42-.2,44.38-3.69,64.83-13.35,15.5-7.31,28.3-18.05,37.2-33C491.07,365.86,493.49,363.58,494.14,360.32Z" style="fill:#8a4926"/><path d="M493.21,290.71a9.33,9.33,0,0,1-3,5.58c-1.88,1.7-4,1-6.05.52-21.28-5.44-42.95-7.77-64.85-9.15-21.34-1.34-36.77-1.9-67.7,2.58-15.31,2.21-18.79,4-54.85,11.43-16.77,3.44-23.56,4.63-23.86,3.66-.44-1.48,14.47-7.14,16.41-7.89,53.43-20.64,116.16-19.28,116.16-19.28,2.74.15,7,.39,12.8.76,42.82,2.81,58.49,6.73,71.91,10.75C491.22,290,492.21,290.36,493.21,290.71Z" style="fill:#c47a47"/><path d="M524.49,329c-.73,4.76-4.51,7.12-8,9.45-10.86,7.35-23.2,11.17-35.79,14.2-18.62,4.49-37.55,6.55-56.66,7.77-13.85.89-27.68,1-41.48.57-28.6-.92-56.85-4.41-84-14A64.26,64.26,0,0,1,277,334.43a8.82,8.82,0,0,1-3.21-5.37c-1.23-2-.09-3.59,1.1-4.92,7.37-8.2,16.91-12.68,27.3-15.65A2.34,2.34,0,0,1,304,309l2.07-1a4.45,4.45,0,0,1,2.53-1.84c11.51-3.45,23.11-6.48,35.2-7.07a3.35,3.35,0,0,1,2.84,2.61c.61,3.55,3.11,4,6.05,4.07,5.73.07,11.46.06,17.15-1.5-.31-2.65-4.22-3.34-3.4-6,.54-1.79,2.9-1.89,4.63-2.43,12.84.07,25.64-2.35,38.5-.73,2.13.77,1.65,1.95.68,3.47-2.05,3.24-5,5.67-7.52,8.46s-2.32,3.67,1.25,4.49c6.57,1.51,12.81,4.8,19.86,3.93,5.35-.21,10.5-1.49,15.64-2.78,3.9-1,4.6-2.48,3.44-6.35-.26-.87-.66-1.69-1-2.54-1.86-4.76-1.57-5.27,3.45-6.26,8.54.82,17.15,1.19,25.32,4.2,2.16,3.21-.83,3.84-2.6,4.76-5.76,3-11.61,5.77-17.3,8.89-1.87,1-3.68,2.08-4.63,4.12-.17.38-.37.76-.57,1.13-1.91,3.05-1.72,5.74,1.39,7.92A122.15,122.15,0,0,0,467,335.57c7.07,2.78,13.66-.39,20.34-1.79,2-.43,4-1.39,6.05-1.79,7.15-1.38,9.28-5.7,6.26-12.52-1.19-2.7-3.42-5.12-2.33-8.45,1.36-1.54,3.07-1.17,4.63-.61A52,52,0,0,1,522.3,323C523.84,324.6,525.61,326.32,524.49,329Z" style="fill:#dabd71"/><path d="M344.39,300.2c-13.06,1.24-25.64,4.87-38.37,7.8L304,309q-3.58-3.65-7.16-7.28c2.72-.74,6.69-1.8,11.49-3,15.1-3.9,32.83-8.09,42.27-9.91,24.26-4.69,45.88-3.74,58-3.31,26.2.92,52.25,3.25,77.68,10.19a38,38,0,0,0,4,.69c.06.3.12.6.19.91-.33,1.08-2.16,1.83-1.18,3.1.78,1,2,.1,2.91-.38,2.38-1.3,4.56-.71,7,.14,9.14,3.22,17.68,7.28,24.15,14.85,4,4.71,4.62,10.32,1.2,14.07-1.9-5.34-6.32-8.26-10.73-11.18a45.88,45.88,0,0,0-16-7c-3.5.58-5.52-1.66-7.41-4a13.21,13.21,0,0,0-15.44-3.93c-1.27.54-2.51,1.1-3.78,0a191.22,191.22,0,0,0-26.3-4c-6.26,1.49-9.36-4.25-14.14-6.16-4.79-2.31-9.26-1.53-13.66,1.19-1.85,1.13-3.48,3-6,2.48-13.79-.13-27.56.45-41.33,1.05-3.49.58-6.63.37-9.74-1.94-4.2-3.13-6.06-2.65-9.8,1C348.48,298.17,347.48,300.86,344.39,300.2Z" style="fill:#925026"/><path d="M304,309c-7.84,2.86-15.64,5.82-22.4,10.88-3.28,2.45-6.47,5.05-7.72,9.23-2.47-2.72-2.61-8.25.17-12.28a36.46,36.46,0,0,1,22.79-15.11C299.35,303.93,302,306.05,304,309Z" style="fill:#925228"/><path d="M471.12,302.9c.45-.06,1.1.05,1.32-.2,4.6-5.31,9.71-1.85,14.67-.92a3.7,3.7,0,0,1,2.93,1.94c1.36,3.76,4.62,5.29,7.71,7.08a20.41,20.41,0,0,0,3.1,7.49c2.37,3.41,1.84,7.26.87,10.95-1.12,4.23-5.21,3.54-8.24,4.4-5,1.42-10.09,2.56-15.13,3.85-4,1-8,1.84-11.71-.95a13.19,13.19,0,0,1-6.39-7.71c-1.62-4.53-5.06-6.1-9.89-5.55-2.67.31-4.79-.38-5.61-3.27-.26-3.05,1.95-4.16,4.15-5.28,6.7-3.44,13.2-7.26,20.19-10.12A8.75,8.75,0,0,0,471.12,302.9Z" style="fill:#f8bf20"/><path d="M411,296.44c3.15-2.37,6.39-4.66,10.16-5.9a11.13,11.13,0,0,1,10,1.07c8.1,7.8,4.27,20.88-7.27,24.83a8,8,0,0,1-5.7.37c-5.35-1.52-10.77-2.78-16.13-4.24-4.07-1.12-4.43-2.42-1.58-5.37C403.94,303.59,407.47,300,411,296.44Z" style="fill:#f4e28d"/><path d="M363.07,352.06c-13.27.26-24.09-3.38-32.5-13.09-2-2.36-4.14-4.73-7.63-5.45-2.43-.5-1.6-2.46-.57-3.9,2.19-3.07,6.47-3.42,10.55-.37,8,6,16.91,10.62,26.54,11,7.1.31,12.5,3.66,18.7,5.49,1.1.33,2.74.7,2.8,2,.09,1.74-1.81,1.83-3,2.23A38.38,38.38,0,0,1,363.07,352.06Z" style="fill:#f9e2c4"/><path d="M317.78,321.64c-3,.21-6,.35-9.06.68-1.24.13-2.5.49-3.28-.76-.92-1.49.13-2.61,1.1-3.57,11.76-11.56,23-13.78,36.48-4.15a57.18,57.18,0,0,0,11.72,6.88c5.41,2.18,10.76,3.07,16.21.1,1.94-1.05,4.74-1.87,5.52.56.65,2,1.47,5.25-3.15,6.12-10.86,2-21.13.44-31.1-3.68-5.31-2.2-10.41-3.75-16.26-2.12-2.53.71-5.43.12-8.16.12Z" style="fill:#f9e2be"/><path d="M416.52,348.39a51.48,51.48,0,0,0,4.55-7.28c5.56-9.51,18.52-7.59,24.15-1.84,2.66,2.7,7.22,4.77,5.1,10,0,1.88-1.32,2.59-2.75,3.19-9,3.79-18.33,3.59-27.61,1.27C417.71,353.19,414.62,352.12,416.52,348.39Z" style="fill:#c88648"/><path d="M418.21,327.2c-4.13,3.3-8.33,6.13-14,6.34-3.22.12-6.16,2.26-8,4.76-4,5.27-8.82,5-14.14,3.2-1.93-.67-4.94-.39-5.44-2.58-.57-2.54,2.2-3.71,4.1-4.81,10.56-6.11,20.64-13.61,33.91-12.19C417,322.84,419.59,323.68,418.21,327.2Z" style="fill:#f9e2c3"/><path d="M344.39,300.2c2.56-.33,3-2.86,4.37-4.36,4.41-4.75,7.15-5.33,12.13-1.4a13.29,13.29,0,0,0,8.76,3.05l-2.8,1,6.47,6c-3.94,2.48-8.32,1.83-12.35,2.63a21.52,21.52,0,0,1-4.1.09C347.7,307.28,347.7,307.28,344.39,300.2Z" style="fill:#f58d2e"/><path d="M399.58,319.26c-6.24,2.79-12,2.82-16.69-.26-6.74-4.46-13.74-3.92-21-3.37-1.11.08-2.61,1.19-3.15-.48-.43-1.31,1-2.21,2-2.74,5.94-3.24,12.17-4.41,18.87-2.67C386.6,311.57,392.34,315.83,399.58,319.26Z" style="fill:#f9e0ba"/><path d="M423.87,316.44c6.12-4.15,10.81-9,10-17.28-.28-2.84-1.74-5.07-2.74-7.54a6.12,6.12,0,0,1,3.94,1.92,15.55,15.55,0,0,0,9.74,5.39c-2.28,0-3.79,0-2.25,3.19,4.65,9.64,4.19,10.29-6.39,12.73C432.12,315.78,428.12,317,423.87,316.44Z" style="fill:#c49552"/><path d="M442.79,331.67c19.21,11.51,50.93,9.68,64.41,0a9.09,9.09,0,0,1-6.47,7.23c-16.72,5-33.48,7.64-50.07-.63A34.59,34.59,0,0,1,442.79,331.67Z" style="fill:#efdd99"/><path d="M444.75,320c2.23,1.45,4,3,7.27,1.29,3.62-1.9,5.74,1.95,7.67,4.21,2.81,3.31,3.86,7.82,6.95,11-7.34-1.53-14.58-3.36-21-7.48-1.32-2.93-2.53-5.86-.87-9.08Z" style="fill:#d1981c"/><path d="M299.44,329.19c3.59-2.55,7.62-2.56,11.7-1.82s5.91,3.74,6.34,7.34c.4,3.34-2.83,3.23-5,4-2.47.88-4.87,1.62-7.43.48C299.74,336.27,298.33,333.73,299.44,329.19Z" style="fill:#efbb60"/><path d="M416.52,348.39c-.41,2.44,1.32,3.31,3.11,3.73,10.53,2.49,20.94,3.36,30.68-2.82,3,1.05.84,2.29-.06,3a17.26,17.26,0,0,1-8.27,3.47,58.83,58.83,0,0,1-22.13-.21,7.49,7.49,0,0,1-5.5-3.7C413.45,350.13,412.6,347.56,416.52,348.39Z" style="fill:#f7da9a"/><path d="M418.21,327.2c-.32-2.36-2.09-3.73-3.6-5.28,9.74-.07,19.59.7,28.83-3.93-3.62,4.7-8.06,7.35-14,7.6C425.67,325.75,421.55,324,418.21,327.2Z" style="fill:#f0dc9d"/><path d="M319.22,348.4c-1-.19-2.61-.41-4.2-.82-2-.52-3.31-1.79-2.62-4,.75-2.38,2.93-2.15,4.55-1.49,2.18.89,4,2.66,6.5,2.92a1.5,1.5,0,0,1,1.21,1.69c-.1.89-.86,1.23-1.59,1.35C322,348.26,321,348.27,319.22,348.4Z" style="fill:#768030"/><path d="M299.44,329.19c.19,4.27,3.3,6.91,5.58,10a18.75,18.75,0,0,1-2.25,0c-2.66-.32-6.52,1.23-7.46-2.18C294.47,334,296.69,331.1,299.44,329.19Z" style="fill:#c18841"/><path d="M387.84,307.25c-1.76-.11-4.11.34-4.21-2.24-.09-2.12,2-2.31,3.67-2.64l.44-.1c2.06-.4,4.18-1.21,6,.52a1.61,1.61,0,0,1,.1,2.1C392.45,307.17,390.16,307.26,387.84,307.25Z" style="fill:#7a8331"/><path d="M289.77,324.54c2.17-.07,4.2,0,4.1,2.28-.13,2.86-2.81,2.94-4.82,3-1.8,0-4.87.3-4.69-2.14C284.57,324.78,287.77,324.8,289.77,324.54Z" style="fill:#7b8231"/><path d="M367.92,337.49c-1.58-.23-4.14.42-4.07-1.72.11-3,3.13-3.47,5.45-3.44,1.73,0,4.9.31,4.58,2.46C373.48,337.55,370.26,337.29,367.92,337.49Z" style="fill:#777a2a"/><path d="M467.62,349.43c-1.87-.42-5,.61-5-2.29.07-2.21,3-2.53,5.13-2.46s5,.09,4.95,2.6C472.65,350,469.58,349.12,467.62,349.43Z" style="fill:#767a2a"/><path d="M398.32,352.89a35,35,0,0,1-4.1,0c-1-.12-2.87.64-2.67-1.36.14-1.49,1.71-1.45,2.94-1.44,2.57,0,5.14.4,7.68-.49a2.18,2.18,0,0,1,3.08,1.8c.35,2.41-1.69,1.53-2.83,1.65a40,40,0,0,1-4.1,0Z" style="fill:#7c7d2f"/><path d="M454,304.38c1.66.33,3.88.14,4.13,2.49.14,1.23-1.33.92-2.12.67-1.58-.52-4.06.81-4.65-1.57C451,304.23,452.85,304.57,454,304.38Z" style="fill:#7c7929"/><path d="M444.77,320l.87,9.08C442.34,326.32,441.93,323.31,444.77,320Z" style="fill:#f8bf20"/><path d="M315.54,318.91c8.54-8.57,18.53-8.4,29.19,1.44C339.14,318,334.8,315.44,330,316S320.59,317.84,315.54,318.91Z" style="fill:#d3b18b"/></g></g></svg>