<svg xmlns="http://www.w3.org/2000/svg" viewBox="0 0 800 450"><g id="Capa_2" data-name="Capa 2"><g id="DiseñosMascotas"><rect width="800" height="450" style="fill:#75c4c3"/><path d="M800,431.6V450H0V344.07c148.49-15.83,211.16-22.59,223.74-24l8-.93c11.31-1.35,22.61-2.84,33.92-4.17,13.52-1.59,27.16-2.48,40.55-4.8a70,70,0,0,1,34.49,2.73c22.57,7.34,45.81,12.62,68.11,20.75,7.8,2.84,30.15,9.05,74.85,21.46C533.54,368.92,647.61,397.73,800,431.6Z" style="fill:#589ea0"/><path d="M231.48,387.29c-3.21-2.84-6.37-5.73-8.38-9.63-3.67-7.09-2.69-14.71,2.61-19.94,3.55,2.54,5.38,6.41,7.73,9.87a21,21,0,0,0,3.26,8.25c3.72,5.77,8.73,9.19,16.07,8.12,5.51-.81,10.63-2.75,15.76-4.77,2.68-.84,5.25-2,7.88-3a19.06,19.06,0,0,1,3.07-1,55.7,55.7,0,0,1,10.5-3.62,82.89,82.89,0,0,0,10.86-4.15c2.19-1,6.12-.81,6.2-3.29.09-2.81-3.82-2.5-6.05-3.26-6.55-2.26-13.31-3.87-19.85-6.21-4.2-1.72-8.29-3.59-10.57-7.89,1.17-2.21,3.08-1.47,4.71-1q22.82,7,45.77,13.48c3.53,1,6.24,3.35,8.82,5.9,9.1,9,17.95,18.23,27.52,26.76,4.83,4.31,10.05,6.29,16.34,5,14.77-2.92,28.91-7.35,40-18.29,6.74-6.66,6.76-14.88.27-21.76-6.08-6.45-13.76-10.49-22-13.25-16.71-5.61-33.79-9.54-51.58-9.46a53.43,53.43,0,0,1-9.73-1.31c-2.18-1.46-4.74-2.58-5.3-5.59,21.12.36,42,2.26,62.44,8.1,12.37,3.54,24.24,8.13,34.29,16.39,8,6.6,13.2,15.8,7,27.49,0,2.52-1.75,4-3.28,5.56a53.53,53.53,0,0,1-12.34,9.33c-16.53,9.16-34.52,13.46-53,16a251.34,251.34,0,0,1-77.67-1.58c-15-2.64-29.54-6.86-42.93-14.38C236.78,392.23,233,391.14,231.48,387.29Z" style="fill:#d2d8da"/><path d="M231.48,387.29l8,5.46c15,11.12,31.9,17.66,50.21,20.93A199.81,199.81,0,0,0,332.79,417c20.46-.81,40.67-3.29,59.69-11.57a106.66,106.66,0,0,0,21.43-12.73c5.5-4,11.2-7.78,15.21-13.46,5.52,8.47,2.38,19.44-6,25.92-10.63,8.19-22.72,12.72-35.46,16-23.08,5.92-46.64,7.5-70.28,6.18-20.46-1.14-40.68-4.46-59.9-12.19-8.67-3.48-16.61-8.12-22.67-15.34C231.83,396.32,229.66,392.24,231.48,387.29Z" style="fill:#417f7e"/><path d="M325.39,327.29c2.62.61,3.51,3.26,5.49,4.62,9,8.18,8.25,14.81-2.85,19.55-9.38,4-19.34,4-29.22,1.68-4.58-1.09-9.24-1.92-13.58-4-4.78-2.26-5.89-4.77-3.72-9.53.67-1.49,1.51-2.9,2.29-4.33,1.16-2.6,3.61-3.79,5.78-5.29,4.89-5.32,11.41-6.45,18.13-7,5.79-.5,11,2.19,16.61,3C324.73,326,325,326.83,325.39,327.29Z" style="fill:#eae6dc"/><path d="M271,346.65c3.3,2.57,6.4,5.45,10.5,6.78,4.94,3.06,10.59,4.52,15.79,7,4.53,2.12,5.44,4,4.25,8.2-3.68,1.41-7.17,3.33-11.1,4-19.67,1.13-34.05-8.41-45.87-22.92-3.08-3.79-4-8.61-4.52-13.35-.21-1.84-.18-3.95,2-5,4.73-3,8.37-.08,12,2.34,1.7,1.13,3,2.83,5.1,3.37s3.51,2,5.18,3.11C266.56,342.37,269.6,343.68,271,346.65Z" style="fill:#eb9912"/><path d="M242.09,331.38c-2.23,7.49,2.44,18,9.49,24.46,11.13,10.16,24.13,15.36,38.89,16.81l-10.7,3.53c-6.49-2-12.35-5.84-19.49-6.11-4.24-.16-8-2.81-12.24-3.61a1.7,1.7,0,0,1-1.34-2c.41-1.3,1.66-.9,2.67-.82a13.37,13.37,0,0,0,1.55,0c-.44,0-.89,0-1.33,0-.63,0-1.42-.3-1.34-.89.73-5.22-3.92-7.65-5.84-11.47-1.09-1.83-2.44-3.58-2-5.92a63.15,63.15,0,0,1-1.62-7.82C238.59,334.93,238.35,332,242.09,331.38Z" style="fill:#a15708"/><path d="M232.62,367.52c-2.71-3-5.37-6-6.9-9.8-2.51-7.63-.41-9.74,8.32-8.33a1,1,0,0,1,.21,1.22,1.65,1.65,0,0,1-.62.61c-5.33,2.32-5.53,2.9-2.41,8.07,2.46,4.07,6.31,6.66,10.27,8.95A57.82,57.82,0,0,0,273,375.85c1.46-.05,3.34-.92,4.05,1.38l-8,3.08c-12.77,3-23.27-2.55-33.51-9A6.57,6.57,0,0,1,232.62,367.52Z" style="fill:#91521b"/><path d="M263.87,341c-1.83-1-3.88-1.68-4.68-3.88A218.5,218.5,0,0,1,289.58,330l-4.65,5.64C278.21,338.6,271.4,341.22,263.87,341Z" style="fill:#cdd9d8"/><path d="M240.42,345.3q1.61,2.71,3.2,5.43c-2.82,2.44-5.19,2.25-9.41-.79a.74.74,0,0,0-.17-.55A17.94,17.94,0,0,1,240.42,345.3Z" style="fill:#ded4c0"/><path d="M263.87,341c6.91-2.21,13.81-4.47,21.07-5.31-4.6,10.42-2.5,14.22,9.41,15.6,3.41.4,6.55,1.69,10.15,1.67,8.08-.05,16.08.47,23.72-3,8-3.67,8.84-5.73,4.92-13.23-.81-1.55-1.51-3.16-2.26-4.75,21.28.72,42.31,3.14,62.39,10.68,9.51,3.57,18.62,8,24.61,16.84,3.61,5.32,2.86,13.68-1.36,18.61-6.51,7.62-15.22,11.77-24.21,15.36a81.87,81.87,0,0,1-19.74,5.3,17.94,17.94,0,0,1-14.84-4.52c-10.23-9.1-19.83-18.85-29.42-28.6a20.23,20.23,0,0,0-9-5.45q-22.44-6.51-44.85-13.12c-1.12-.33-2.2-1-3.42-.36A21.62,21.62,0,0,1,263.87,341Z" style="fill:#a4a6a9"/><path d="M348.37,402.33a201.15,201.15,0,0,1-69.3-3.72c-4.91-1.1-9.85-2.14-14.51-4.13-3-2.42-1.59-4.39.82-5.91a10.81,10.81,0,0,1,5.91-1.63c1.93.75,1.92,3.21,3.65,4.17,1,.58,2.3,1.26,3.2.29,1.19-1.31-.3-2-1.15-2.67s-2.24-1-1.73-2.6c3.31-2.19,6.52-4.64,10.81-4.44,1.64,1.76,2.07,5.65,6.11,3.49-.65-1.63-4.4-2-1.89-4.73a7.7,7.7,0,0,1,6.21-1.76c2.35,1.06,3.74,4.54,7.25,2.88.46-2.36-3.48-2-2.64-4.5,6.48-4.14,13.09-7.75,21.2-5.08a11.36,11.36,0,0,1,5.38,3.06c5.88,6.95,13.08,12.56,19.25,19.2C349,396.5,351.37,399,348.37,402.33Z" style="fill:#a75629"/><path d="M413.91,392.73c-9,9.82-20.63,14.93-33,18.6-20.73,6.17-42.05,8.15-63.55,7-22.08-1.15-43.82-4.39-63.71-15-5.23-2.8-10.55-5.58-14.18-10.59A163.28,163.28,0,0,0,279,406.22a211.34,211.34,0,0,0,35.71,4.3c20.38.72,40.69-.08,60.69-4.48C388.71,403.11,401.71,399.07,413.91,392.73Z" style="fill:#a4aaae"/><path d="M234.21,349.94c3.21-.61,6.12,2.4,9.41.79q3,3.84,6,7.69a10.32,10.32,0,0,1,1.23,1.81c.64,1.35-3.22,1-1.16,2.72,1,.83,2.56-.06,3.86-.29,1-.19,1.7.33,1.63,1.78-2.53.13-5.12-1.1-7.93.11,1.69,2.09,4,1.19,5.86,1.75,8.4,2.58,17.06,4.28,25.31,7.46,1.55.6,1.82,1.08,1.38,2.42l-2.72,1.06a68.87,68.87,0,0,1-23.94-2.42A52.22,52.22,0,0,1,232,363c-2.5-2.35-3.72-5.72-4.76-9-.67-2.07.19-3.44,2.67-3.39C231.35,350.64,232.89,350.92,234.21,349.94Z" style="fill:#d07316"/><path d="M271.72,387.54a13.92,13.92,0,0,1-4.53,1.61c-3,.56-4.58,2.16-2.63,5.33-2.06-.48-4.24-1-4.35-3.63-.1-2.27,1.87-2.94,3.49-3.52q25.59-9.12,51.22-18.08c4.85-1.7,8.9-.31,12.48,3.39,7.46,7.7,15.15,15.17,22.65,22.82,3.34,3.41,2.8,5.32-1.68,6.87.76-2.9-.22-5.23-2.34-7.21q-7.44-6.94-14.85-13.92A18.94,18.94,0,0,1,329,379c-4.78-6.29-10.53-8.1-17.89-5.43-3.35,1.21-6.61,2.64-9.91,4a5.07,5.07,0,0,1-4.6,1.68l-6.23,2.06c-1.41.64-2.73,1.77-4.43.78l-10.58,4.66A3.15,3.15,0,0,1,271.72,387.54Z" style="fill:#b2a59e"/><path d="M232.62,367.52c10.71,8.31,22.67,13.05,36.39,12.79a65.85,65.85,0,0,1-18.67,5.36C242.42,386.63,232.28,376.46,232.62,367.52Z" style="fill:#a8a9ab"/><path d="M301.57,368.6c.25-4.29-2.45-6.05-6-7.53-4.93-2.07-10.22-3.58-14.08-7.64,8.07,2.42,16.15,4.79,24.19,7.3,1.77.55,4.16,1.08,4,3.47-.1,2.09-2.39,2.36-4,3C304.39,367.72,303,368.14,301.57,368.6Z" style="fill:#aca59d"/><path d="M280.13,362.16c-3.62-.55-6.71-2.43-10-3.45-5.07-1.58-8-6.48-13.22-7.57-.73-.16-2.08-1.3-1.4-1.78,2.82-1.95-.08-2.55-.72-3.5-.85-1.25-2-2.29-2.6-3.89a5.71,5.71,0,0,0,1.36.83c2.21.66,2.25,5.49,6.4,3.05.79-.46,4.27,2.12,5.35,4C268.79,355.82,274.42,358.91,280.13,362.16Z" style="fill:#c1740f"/><path d="M340.67,364c.47-3.75-.1-6.86-2.89-10-2.53-2.84-.81-5.92,2.49-7.61A43.19,43.19,0,0,1,367.12,342a91.71,91.71,0,0,1,17.32,4c3.55,1.3,6.34,3.27,7.21,7.21,1.69,7.39-2,12.8-9.64,12.93a86.05,86.05,0,0,0-23.17,3.24C352.34,371.31,345.5,370,340.67,364Z" style="fill:#f2f6f7"/><path d="M357.54,379.59c4.32-5.51,10.32-5.88,16.71-5.93,7.9-.07,14.75-3.39,20.24-9,3.45-3.51,7.24-5.32,11.94-4.12,3.06.79,2.91-1.4,3.4-3.53l5.31,4.55c-.7,1.69-3.2,1.34-3.37,3.37-2.46,8.07-7.77,13.58-15.37,17-9.3,4.13-18.71,7.78-29.23,6.78C361.08,388.15,357.16,384.56,357.54,379.59Z" style="fill:#b4461f"/><path d="M357.54,379.59c2.39,6.13,4.75,7.45,11.59,7.77,11,.53,20.53-3.73,29.94-8.4,5.21-2.59,8.54-7.17,10.9-12.45.33-.72,0-2.49,1.8-1.53,2.24,4.17,1.11,8.2-1.88,11.08-11.62,11.2-25.47,17.13-41.86,16.15a10.11,10.11,0,0,1-7.93-4.4c-1.21-1.72-2-3.67-4.8-2.55-1.52.59-.68-1.11-1.05-1.66-1.29-1.86.69-3.53.16-5.3C355.76,378,356.55,379,357.54,379.59Z" style="fill:#91321a"/><path d="M340.67,364c7.58,5.18,15.6,6,24,2.26,4.71-2.08,9.65-1.22,14.5-1.31,8.64-.15,12.13-3.37,12.48-11.76,3.49,6.09,2.24,10-4,12.83a17.51,17.51,0,0,1-8.66,1.6,42.91,42.91,0,0,0-17.85,2.71,19.85,19.85,0,0,1-16.74-1.75C342.57,367.61,340.73,366.51,340.67,364Z" style="fill:#dfdcd4"/><path d="M271.72,387.54a3,3,0,0,1,3.68-.87c2.14,1.12,5.62.88,5.11,4.74-.24,1.82-1.74,2.3-3.31,2.07C273.82,393,271.33,391.56,271.72,387.54Z" style="fill:#753111"/><path d="M296.64,379.17c1-1.91,2.78-1.92,4.6-1.68a5.52,5.52,0,0,0,1.46.83c1.82.34,3.92.93,3.42,3.07-.55,2.37-2.91,2.65-5.05,2.07S297,381.72,296.64,379.17Z" style="fill:#7e3313"/><path d="M317,387.31c-2.27,0-4.14-.33-4-2.78.19-3.07,2.72-2.6,4.72-2.6,1.68,0,4.3-.58,4.25,1.87C321.87,386.77,318.93,386.91,317,387.31Z" style="fill:#7b2f11"/><path d="M286,382a4.13,4.13,0,0,1,4.43-.78c-.63,2.2,1.13,1.48,2.08,1.64,1.29.22,2.31.76,2.29,2.18,0,1.66-1.29,2-2.71,2.25C287.39,388,286.17,387,286,382Z" style="fill:#813311"/><path d="M314.31,400.75c-2.51,0-4.93-.37-5.52-3.26-.36-1.75,1.29-2.39,2.62-2.05,2.36.62,5.9-.37,6.49,3.13C318.25,400.65,316,400.72,314.31,400.75Z" style="fill:#7f320e"/><path d="M338.84,399.83c-2.3,0-4.25-.8-4-2.53.38-2.87,3.37-2.93,5.55-3.3a2.37,2.37,0,0,1,2.7,2.76C342.72,399.33,340.33,399.41,338.84,399.83Z" style="fill:#792c0d"/><path d="M328.71,393.53c1.4.18,3.63,0,3,1.69a6.86,6.86,0,0,1-5.54,4.55c-1.27.14-2.61-.18-2.41-1.79C324.08,395.05,326,393.71,328.71,393.53Z" style="fill:#81320e"/><path d="M298.69,398.09c-1.86-.1-4.3.28-4.41-2.37-.14-3.18,2.62-1.93,4.25-2.08,1.82-.16,4.31-.54,4.25,2.29C302.72,398.39,300.39,398,298.69,398.09Z" style="fill:#7b2f0f"/><path d="M304.89,386.37c2,0,4.44,0,4.5,2.12.07,2.56-2.46,2.47-4.41,2.42-1.78-.05-4.18,0-4.28-2.21C300.57,385.83,303.3,386.61,304.89,386.37Z" style="fill:#792c0a"/><path d="M315.91,374.75c1.59.15,3.81-.2,3.64,2.06-.14,2-2.13,2.51-4,2.49-1.73,0-3.44-.3-3.46-2.42C312,374,314.41,375,315.91,374.75Z" style="fill:#7b3010"/><path d="M364.37,358.87a16.16,16.16,0,0,1-9.88-2.13c-3.32-2.11-3.67-4.83-1.18-7.87,5.3-6.46,16.15-6.9,21.87-.89,3.36,3.53,2.5,7.71-2,9.57A19.7,19.7,0,0,1,364.37,358.87Z" style="fill:#e5c262"/><path d="M363,356.94h-.45c-5.89,0-8.43-1.42-8.58-4.74s4-6.33,8.72-6.69a3.28,3.28,0,0,1,3.63,2.59c1,3,2.92,4,5.82,3.19,1.26-.34,2.46-.58,2.95.91.57,1.78-.66,2.8-2,3.46a9.83,9.83,0,0,1-3,.77c-2.34.29-4.7.48-7.05.7Z" style="fill:#f9bd2f"/><path d="M548.36,371.52c-33.11-7.65-65.91-16.47-98.58-25.77-1.07-.93-.64-2.09-.46-3.18,2.11-12.89,4.68-25.71,6.78-38.59,1.33-8.11,2.46-16.27,3-24.49.89-9.38-1.24-18.47-2.56-27.66-.46-3.2-2-4.65-5-5.65-13.51-4.54-25.55-11.57-35.52-21.9-.11-.29-.28-.71-.52-1.2a16.55,16.55,0,0,0-4.49-5.42c-1.2-1.07-2.35-3.22-4.64-7.51a143.76,143.76,0,0,1-8.19-19.26c20.38,9.23,25.95,10.44,26.59,9.35a6.07,6.07,0,0,1,1.29-2,5.47,5.47,0,0,1,2-1.22c1.59-.56,19.64-8,25.54-21.57a24.92,24.92,0,0,0,1.35-4.08,32.37,32.37,0,0,0,5.2-7.69,34.18,34.18,0,0,0,3-9.94c.64-4.15.24-6.2,1.23-13.16.14-1,.26-1.75.35-2.27.81-3.86,1.65-7,2.28-9.2,0,0,4.34-15,10.12-22a24.19,24.19,0,0,1,7.18-6c6.3-3.46,12.62-2.43,18.67,2.7a37.54,37.54,0,0,1,10.36,15.11c2,4.84,3.57,9.8,5.2,14.76l10.59,37.24c1.28,3.93,4.13,6.84,6.87,9.64,11.62,11.9,25.55,18.88,42.49,18.85a43.94,43.94,0,0,0,23.49-6.8c6-3.72,9.61-9.28,12-15.8.46-1.26.5-3.25,2.82-2.66a80.34,80.34,0,0,1-9.55,28.13,142.27,142.27,0,0,1-8.71,13c-1.58,4.56-5.47,7.17-8.79,10.19-13.92,12.67-30.46,20.55-48.26,26.09-3.82,1.19-3.78,1.2-1.86,4.76,9.59,17.83,17.08,36.44,20.76,56.47a54.61,54.61,0,0,1,.22,16.44,190.78,190.78,0,0,1-8.88,39.4C551.2,370.15,550.75,372,548.36,371.52Z" style="fill:#d6d1cd"/><path d="M459.58,164.22c-.88,1.94-3.05,6.28-4.91,9.87l-3,5.8h0c-3,4-11.08,12.89-20.92,17.07-.16.07-.83.23-2.16.6-4.73,1.28-8.57,2.27-11.18,2.94a17,17,0,0,1-15.13-5.14c-1.58-1.8-4.58-4.36-3.39-7,1.61-3.54,3.85-6.76,5.45-10.32.19-.43.48-.81.67-1.25.3-.71.68-1.5,0-2.11s-1.43,0-2,.5a42.93,42.93,0,0,0-5,5.41c-.8.95-1.35,2.42-3.06,2.11A85,85,0,0,1,393.26,159,99.59,99.59,0,0,1,402,124.45c1.14-2.4,2.23-4.82,3.33-7.24a9,9,0,0,0,.86-5.27,211.34,211.34,0,0,1-2.47-25.11,116.35,116.35,0,0,1,2.56-32.4,25.37,25.37,0,0,1,2-5.61,10.14,10.14,0,0,1,12.15-5.55C431,45.88,440,51.39,448.42,58c3,2.35,6,4.65,8.79,7.18a5.21,5.21,0,0,0,5.73,1.13,139.45,139.45,0,0,1,17.48-5,124.88,124.88,0,0,1,19.9-2.94,118.16,118.16,0,0,1,30,2.27A84.32,84.32,0,0,1,541,63.35c3.45,1.24,5.66-.26,7.73-2.48,8.87-9.52,18.75-17.78,30.85-22.76,8.55-3.53,14.4-3.36,18.81,7a36.7,36.7,0,0,1,1.7,5.13,105.63,105.63,0,0,1,3.57,27c0,9,.43,18-1.15,27-1,5.55,2,9.86,4.19,14.43,4.45,9.26,8.08,18.77,9.76,29,1.3,7.94.91,15.88.66,23.83,0,.83.5,1.89-.34,2.67-1,.16-1.36,1-1.59,1.8-3.49,12.39-12.24,19.39-24.11,22.59-16.59,4.46-31.83.85-45.85-8.83a63.28,63.28,0,0,1-15.19-14.78,10.28,10.28,0,0,1-1.29-2.63c-5.43-12.65-8.15-19-8.8-20.83-4.67-13.35-1.05-13.78-5.84-27.9-3.66-10.78-7.51-15.11-10.75-18.13-8.93-8.33-17.84-6.36-25.15,1.9A44.71,44.71,0,0,0,468.82,126c-.14.66-.39,2-.85,3.73-.67,2.48-1.35,4.24-1.5,4.64C464.05,140.84,464.87,152.68,459.58,164.22Z" style="fill:#a4a3af"/><path d="M548.36,371.52c1.57-.16,1.86-1.45,2.23-2.61,4.71-14.44,8.17-29.11,9.28-44.33.81-11.09-2.47-21.36-5.55-31.65a190.35,190.35,0,0,0-16.47-37.72c-1.78-3.2-1.73-3.14,1.72-4.15,21.17-6.27,40.27-16.13,55.71-32.29,1.1-1.16,2.18-2.35,3.26-3.52.5,2.4,2,4.28,3.29,6.27a373.86,373.86,0,0,1,19.48,34.72,354.88,354.88,0,0,1,17.4,42.92q7,21.19,12.43,42.85c1.54,6.24,2.77,12.57,4.11,18.85,1.44,6.75,2.88,13.49,4,20.3.76,4.47,1.36,9,2,13.45a5.14,5.14,0,0,1-1.11,4.27c-6.93-1-13.64-3-20.45-4.49-4-.89-7.88-1.93-11.82-2.88-1.11-.27-2.29-.37-2.66-1.74-1.25-1.22-1-2.81-1-4.3-.08-8.45.13-16.88-1-25.31a78.82,78.82,0,0,0-5.15-19.86c-.23,4,.71,7.26,1.2,10.53,1.73,11.51,1.59,23.09,1.46,34.68,0,1.12-.06,2.31-1.12,3.08a3.24,3.24,0,0,1-2.72.35c-22.59-5.76-45.35-10.81-67.84-17A2.79,2.79,0,0,1,548.36,371.52Z" style="fill:#a4a2af"/><path d="M459.89,279.14a3.18,3.18,0,0,1,.39,2.45c-1.79,13.61-3.78,27.2-6.2,40.72-1.4,7.82-2.86,15.63-4.3,23.44-6.77-1.48-13.3-3.77-19.9-5.82-10.67-3.3-21.4-6.42-32.05-9.79q-20.59-6.51-41.37-12.41a9.9,9.9,0,0,1-4.27-2.16c-2.5-1.46-2.18-3.57-1.14-5.65,2.45-4.9,5.08-9.72,7.67-14.55a15.66,15.66,0,0,0,1.76-3.68c-1.11-.69-2.24-.18-3.31-.22-2-.07-4.09.42-5.93-.22-3.4-1.2-5.23.29-6.95,2.95-1,1.48-1.83,3.44-4.21,3.2a57.62,57.62,0,0,1-6.33-28.77c.66-13.85,11.07-27,24.29-30.25,6.3-1.54,11.95.1,17.45,3,1.6-.49,2.75.45,3.8,1.35a25.4,25.4,0,0,1,5,5.32,11,11,0,0,1,2.27,6.06c.28,5.41.69,10.87-1.49,16-1,2.35-.4,4,1.39,5.82,7.35,7.3,15.3,13.71,25.15,17.32,8,2.93,16.18,3.95,24.6,1.53,6.47-1.85,11.46-5.82,16-10.55a40.3,40.3,0,0,1,4.39-4.47C457.54,279,458.56,278.12,459.89,279.14Z" style="fill:#807e8b"/><path d="M383.53,248.25c-2.34-2.7-4.67-5.41-8-6.91,1.6-2.65,3.14-5.34,4.83-7.94,2.22-3.44,3-7.12,1.06-10.76-5.27-10.13-2.62-18.93,4-27.29,3.26-4.15,6.37-8.43,9.54-12.65,2.64-2.72,4.7-5.94,7.56-8.46,1-.85,1.93-1.77,3.22-.78a2.25,2.25,0,0,1,.83,1.12A3.21,3.21,0,0,1,406,177c-3.11,5.35-14.84,21-12.2,25.7.85,1.53,3.19,1.88,4.56,1.7,3.08-.4,4.91-4,7.79-9.76,0,0,2.88-5.81,7.47-13a3.68,3.68,0,0,1,2.28-1.82,2.73,2.73,0,0,1,1.74.42c1.82,1,.76,2.55.2,3.74-1.91,4-3.73,8.14-5.95,12-6.12,10.68-5.28,12.87-4.85,13.66.09.16,1.15,2.06,2.77,2.13,3.52.15,7.63-8.46,12.49-18.64,0,0,.58-.85,1.61-2.42s2.12-2.24,3.79-1.48a2,2,0,0,1,1,.84,3.65,3.65,0,0,1-.16,2.81c-3.68,9-6.93,18.1-10.92,26.93a25.7,25.7,0,0,1-1.41,3,21.58,21.58,0,0,1-13,9.42c-.75.17-2.31.73-4.68,1.17a12.2,12.2,0,0,0-8.6,6.36c-1.28,2.21-2.63,4.38-3.87,6.62C385.49,247.32,385,248.54,383.53,248.25Z" style="fill:#afb6bc"/><path d="M340.08,297.4c2.72-1.75,3.94-4.79,6-7.1.57-.63.8-1.32,2-.81,3.8,1.59,7.8,1.11,11.76.76.73-.07,1.6-.63,2.09.12s-.27,1.42-.61,2.07c-2.92,5.52-5.81,11.07-8.84,16.53-1.23,2.23-1.85,4.32-.32,6.6a5.31,5.31,0,0,0-3.31,3.37c-2.49,6-11.77,7.28-15.91,2.34-2.33-2.79-1.67-6-.86-9.14C333.6,306.6,337.24,302.22,340.08,297.4Z" style="fill:#aeb4bb"/><path d="M619.63,388.59c0-6.56.1-13.11,0-19.67-.07-8.35-1.29-16.6-2.56-24.84a34.23,34.23,0,0,1-.29-4.53c0-.71-.17-1.69.88-1.8.76-.07,1.1.7,1.3,1.32,1.36,4.14,3,8.22,3.94,12.47,2.7,12.6,2.8,25.4,2.29,38.22C623.13,390.52,621.19,390.45,619.63,388.59Z" style="fill:#787684"/><path d="M592.94,79.44c-.41,4.31-.8,9.13-1.35,13.92-.25,2.2-1.28,2.57-3.09,1.26a16,16,0,0,1-2.08-2A101.19,101.19,0,0,0,561,73.2c-.75-.41-1.47-.88-2.18-1.36-1.37-.92-1.52-1.9-.46-3.31,2.71-3.64,6.36-6.24,9.84-9a55.2,55.2,0,0,1,11.45-7.42c5.58-2.52,8.33-1.38,10.21,4.34C592.25,63.76,592.28,71.38,592.94,79.44Z" style="fill:#d5d1ca"/><path d="M413.7,80.56c-.14-6.64-.09-12.71,1.92-18.56,1.51-4.41,4.32-5.91,8.61-4.14,8,3.27,14.84,8.4,21.35,14,2,1.74,1.58,3.15-1.18,4.82a110.76,110.76,0,0,0-20.61,16.5c-2,1.93-3.7,4.07-5.58,6.08-.63.68-1.27,1.57-2.4,1.11-1-.39-.87-1.34-1-2.19C414.09,92.13,413.37,86.1,413.7,80.56Z" style="fill:#d5d0ca"/><path d="M515.38,151.71c9.07-4,17.76-8.76,26.48-13.46q8.05-4.33,16.2-8.52c1.43-.74,3.14-2.17,4.41.14s-.67,3-2,4a2.49,2.49,0,0,0-.36.43c-.74,2.17-2.86,2.7-4.52,3.72-3.55,2.16-3.5,2.07-2.24,5.91,3.33,10.16-1.12,22.2-12.76,25.33a19.41,19.41,0,0,1-16.94-3,10.72,10.72,0,0,1-4.82-8.87c-1.51-.7-2.77.36-4.12.66-1.57.34-2.83.35-3.58-1.34s.17-2.69,1.55-3.46Z" style="fill:#32150c"/><path d="M419.22,138c-.3-.35-.57-.73-.89-1-.91-.9-1.36-1.91-.58-3.06a2.49,2.49,0,0,1,3.05-1,33.13,33.13,0,0,1,4.41,2c11.58,6.09,23.37,11.75,35.21,17.32,1,.48,2.13.76,3.2,1.14,1.32.56,2.65,1.1,3.95,1.71,1.05.49,2.24,1.05,1.91,2.49a2.89,2.89,0,0,1-3,2.21c-.95,0-1.9-.09-2.85-.14a5.57,5.57,0,0,0-3.41,3.38c-3.26,7.72-12.91,11-21.51,7.68-10.66-4.18-15-15.12-11.81-23.94,1.17-3.22.92-3.19-2-4.8C422.85,140.86,420.23,140.51,419.22,138Z" style="fill:#2f140b"/><path d="M489.8,169.21a61.2,61.2,0,0,1,7.17.06c3.65.42,4.62,2.78,2.6,5.82a19.68,19.68,0,0,1-5.44,5.47,4.12,4.12,0,0,0-2,4.06,40.72,40.72,0,0,1,0,5.74c-.18,2.08.68,2.58,2.63,2.51A52,52,0,0,1,519.49,198,19.71,19.71,0,0,1,522,199.4c1,.67,2,1.53,1.08,2.82a2.12,2.12,0,0,1-3,.65c-11.15-5.82-23.12-5.38-35.11-4.41-7.09.58-14,1.92-20.44,5.28-1.23.65-2.28.51-2.91-.73s.58-1.84,1.44-2.34a55.78,55.78,0,0,1,20.8-7c2.15-.27,2.87-1.09,2.52-3.1a3.09,3.09,0,0,1,0-.86c.43-4.5-.53-8.17-5.19-10.21a10.13,10.13,0,0,1-4.09-3.95c-1.59-2.46-1.2-3.73,1.43-5C482.11,168.87,486,169.41,489.8,169.21Z" style="fill:#311a16"/><path d="M518.79,157.39c3.29,10.84,14.68,13.48,23,10.5,9-3.2,13.91-13.9,10.84-23.11-.59-1.76-2.57-3.54-1.66-5.16.76-1.35,3-1.86,4.58-2.75s3-1.7,4.49-2.55c2.08.85,2.17,3,3,4.64,7.65,16.13-4.13,35-23.45,35A27,27,0,0,1,525.69,170a20.82,20.82,0,0,1-6.55-8.7C518.66,160.1,517.52,158.82,518.79,157.39Z" style="fill:#ece4dc"/><path d="M419.22,138c2.45,1.22,4.84,2.6,7.38,3.62,2.16.88,2.74,1.7,1.76,4.16-4.23,10.55,1.37,21.54,12.26,24.61,8.66,2.45,16.53-1.38,19.46-9.78.93-2.67,2.34-.84,3.56-.93a22.88,22.88,0,0,0-3.89,6.58c-1,2.53-3.74,3.46-5.33,5.47a24.85,24.85,0,0,1-21.62,3.08C416.73,169.91,410.57,153.1,419.22,138Z" style="fill:#e9e1d8"/><path d="M528.47,159.15c-2.18,0-4.35-1.75-4.38-3.62,0-1.67,2.82-3.55,5.48-3.58,2,0,2.91,1.16,3,3A4.07,4.07,0,0,1,528.47,159.15Z" style="fill:#ece2dc"/><path d="M451.74,161.45c-2.33,0-4.56-2.14-4.4-4.37a3.07,3.07,0,0,1,3.35-3.15c2.25,0,5.23,2,5.26,3.63C456,159.52,453.9,161.46,451.74,161.45Z" style="fill:#f0e6e0"/></g></g></svg>