<svg xmlns="http://www.w3.org/2000/svg" viewBox="0 0 800 450"><g id="Capa_2" data-name="Capa 2"><g id="DiseñosMascotas"><rect width="800" height="379.16" style="fill:#f0c96f"/><rect y="378.43" width="800" height="71.57" style="fill:#d6a950"/><path d="M257.81,176.51c-3-15.73-.68-31,3.75-46.14a61.14,61.14,0,0,1,7.25-16.66c4.66-7.1,4.25-14.6,3.36-22.53-1.4-12.36-2.29-24.77-.64-37.24.92-6.94,1.6-13.9,4-20.53,3.82-10.69,9.75-13.32,20.32-9.44,13.28,4.88,24.54,12.91,34.86,22.33,6.78,6.19,6.6,6.31,15.45,3.56a148.7,148.7,0,0,1,33-6.34A126.05,126.05,0,0,1,428,49.72c9.14,2.94,9.29,3.17,16.14-3.33a113.53,113.53,0,0,1,25.42-18.61A53.13,53.13,0,0,1,484,22.49c5.51-1.08,9.34,1.12,12.37,6.62s4.05,11.43,5.12,17.41a130.25,130.25,0,0,1,1.76,29.37,201.2,201.2,0,0,1-2.13,23,17.3,17.3,0,0,0,2.26,12.53c8.63,13.7,12.47,28.81,13.53,44.87a77.36,77.36,0,0,1-.89,20.23c-4.35,14-14.48,21.32-28.48,22.91-20.33,2.31-37.29-5-51.26-19.75a65.84,65.84,0,0,1-7.78-9.71c-.8-1.25-2.18-2.88.45-3.88l-12-39.86c-2.34-.21-2.42-2.2-2.82-3.78a79,79,0,0,0-6.29-17.07,37.46,37.46,0,0,0-10.38-12.56c-5.3-4.11-11.17-5-17.35-1.7-9.11,4.83-13.9,13-17.38,22.2-1.37,3.61-2.07,7.42-3.17,11.11-.39,1.3-.75,3-2.86,1.94-34.92,23.13-42,32.59-40.26,36.54,1.38,3.07,9.14,4.66,14.15,5.09a29.52,29.52,0,0,0,10.52-1c1.45-.4,2.85-1.16,4.44-.72,1.79,1.1.93,2.47.24,3.67a47.39,47.39,0,0,1-4.83,6.63c-11.28,13.39-25.41,21.31-43,23.12a42.65,42.65,0,0,1-28.1-6.66A26.14,26.14,0,0,1,257.81,176.51Z" style="fill:#a3a2ae"/><path d="M257.81,176.51c2.14,3.06,3.34,6.65,5.84,9.56a35,35,0,0,0,22.76,12.24c16,2.07,30.53-2.48,43.27-12.19a66.7,66.7,0,0,0,15.47-17.07c.45-.7,1.29-1.46.34-2.41.17-1.83,1.86-2.25,3-3.14,7.38-5.82,11.87-13.14,11.76-22.77a28.05,28.05,0,0,0-2.67-11.42c-.48-1.05-1.38-2.08-.5-3.36,1.9.53,1.32-1.19,1.49-1.88,1.36-5.61,2.78-11.21,5.35-16.4,3.75-7.55,8.61-13.94,16.44-18,5.65-2.94,14.2-1.08,18.65,2.83,8.84,7.8,13.18,18,16,29,.38,1.49.13,3.32,1.78,4.32.92,1.44.06,2.73-.39,4A34.27,34.27,0,0,0,414.2,142c.14,9.76,4.78,16.82,12.66,22.08,1,.65,2.31,1,2.18,2.57-1.8.78-.41,1.66,0,2.3,8,11.68,18,21,31.59,25.95,10.4,3.78,20.92,5.45,31.81,2.6,10.46-2.74,17.8-9.27,22.32-19,.34-.74.48-1.56,1.26-2A49.54,49.54,0,0,1,512,192.52a141.74,141.74,0,0,1-10.06,20A86.69,86.69,0,0,1,488,230c-1.83,1.72-3.35,3.37-2.36,6.3.55,1.63-.43,3.35-1.22,4.89-.25,1.66-1.45,2.63-2.65,3.55-12.3,9.46-25.48,17.27-40.47,21.69a16.44,16.44,0,0,1-5.63,1.11c-4.35-1.35-8.48-3.31-12.88-4.51a4.3,4.3,0,0,1-2.46-1.74c-1.69-2.68-4.36-4-7.17-4.77-3.71-1-6.64-4-10.65-4.16-3.3-.91-6.74-1.1-10-2.42-2.17-.88-4.62-.45-6.94-.37-5.45.2-10.89-.12-16.33-.23A19.84,19.84,0,0,0,356,253.64a12.52,12.52,0,0,0-4.24,5.8,11.94,11.94,0,0,1-8.21,7.85c-.87.28-1.58.91-2.47,1.15-2.71.42-5.25-.42-7.73-1.23A137.74,137.74,0,0,1,294,247.1a28.43,28.43,0,0,1-5.58-5.54,7.17,7.17,0,0,1,.36-2.87,9.67,9.67,0,0,1,.63-2.32c1.05-1.86.45-3.18-1-4.55A97.28,97.28,0,0,1,274.05,215c-5.53-8.61-10.61-17.47-13.53-27.38C259.44,184,257.51,180.5,257.81,176.51Z" style="fill:#d7cecc"/><path d="M476.61,408.09c-6.49-3.9-9.5-10.48-12.79-16.78,0,0-2.24-5.58-4.24-10.23l-.68-1.55c-.09-.18-.15-.34-.2-.44-1.21-5-2-9.33-2.51-12.57a88.67,88.67,0,0,1-.92-12.87c0-4.63,1.38-8.33,5.15-11.41a34.29,34.29,0,0,1,20.51-8.2s1.87-.23,3.88-.41c3.82-.35,13.54-.65,26.47-.58-17.39-.08-23.8,1.09-25.48,2.53a6.81,6.81,0,0,1-1.92,1.29c-1.79.8-3.75.73-5.66.9A20.58,20.58,0,0,0,465.05,344c-1.95,1.95-2.43,6.14-1.06,8.76,2.77,2.77,6.36,4,9.94,5.08a75.18,75.18,0,0,0,22.19,3.36h23.46a91.22,91.22,0,0,0,18.13-2,20.73,20.73,0,0,0,10.67-5.49c1.55-1.52,1.51-3,.34-4.86a15.69,15.69,0,0,0-7.73-6.52,98.82,98.82,0,0,0-20.55-5.42,11.19,11.19,0,0,1-4-1.24c-1.51-.81-2-1.57-3.62-1.88-.65-.12-.51,0-2.13-.34-.82-.15-1.49-.31-1.94-.42a68.82,68.82,0,0,1,16.7,1,81.55,81.55,0,0,1,20.1,7c1.42.73,3,1.69,4.45,2.55,2.48,1.49,2.86,1.86,3.23,2.26a9.87,9.87,0,0,1,2.2,4.22,5.14,5.14,0,0,0,1.76,2.9,5.51,5.51,0,0,0,3.33.91s3,0,8.55,2.68c6.09,2.88,9.36,17.63,3.34,25.58-2.24,3-4.88,5.23-10.26,6.38a46.75,46.75,0,0,0-17.31,7.82,8,8,0,0,0-1.94,1.92,37.8,37.8,0,0,1-16.19,13.05c-10.68,4.86-21.3,4-26.19,3.64A64.87,64.87,0,0,1,476.61,408.09Z" style="fill:#e0c3a5"/><path d="M435.73,266.67c9.86-1.86,18.83-6,27.53-10.83a131.94,131.94,0,0,0,21.12-14.68q6.47,15.39,12.94,30.78a4.47,4.47,0,0,0,1.22,2.06c3.58,5.74,5.15,12.25,6.9,18.65,1.49,5.46,3.19,10.84,5,16.2.64,1.9,1.38,3.81.82,5.9-3.61.87-7.32,1.29-10.92,2.24-.32.08-.67-.38-.95-.67-1.31-5.46-4.54-9.87-7.79-14.29a14.65,14.65,0,0,1-2.49-11,23.06,23.06,0,0,0,.37-3.34c-4.75,2.79-6.9,9.84-3.35,15.69,1.64,2.69,3.92,5,5.33,7.78,1.67,3.36,3.36,6.8,1.56,10.7a9.94,9.94,0,0,1-7.49,6.3c-1.69.35-2.06,1.42-2.14,3.06-.14,3-1.47,3.63-4,2.17a4.12,4.12,0,0,0-1.39-4.33,25,25,0,0,0-3.8-3,188.82,188.82,0,0,0-22.59-13.58c-3.42-1.66-5.26-3.86-4.65-7.81a7.12,7.12,0,0,0-.5-4.16c-1.1-3.45-3.59-6-5.82-8.66-.76-.92-1.73-1.69-2-2.93A59.11,59.11,0,0,0,435.34,271C435.37,269.56,434.35,268,435.73,266.67Z" style="fill:#a4a2af"/><path d="M516.31,334.27c1.51.52,2.37,1.31,3.22,1.42a94.48,94.48,0,0,1,22.84,6c4,1.6,6.38,4.55,8.07,8.23a4.09,4.09,0,0,1-.85,4.45c-2.64-3.87-6.52-5.9-10.82-7.33-5.34-1.79-10.89-2.31-16.43-2.89a129.37,129.37,0,0,0-49.1,3.86,40.5,40.5,0,0,0-10.6,5.15c0-3.47-1.87-7.07,1.76-10.15,3-2.58,6.73-4,14.41-6.25.64-.19,2-.58,3.79-1,1.26-.32,2.32-.57,3.11-.74a10.11,10.11,0,0,1,5.36-1.5c5.17.3,5.88-.13,16.61-.21A23.94,23.94,0,0,1,516.31,334.27Z" style="fill:#d0a785"/><path d="M513.8,325.78a2,2,0,0,0-1.23-1.79c-2.05-2.76-2-5.95-1.9-9.16-.34-4.82-2.72-9.06-3.92-13.64-1.56-5.95-3.48-11.8-5.27-17.69-1-3.18-2-6.34-2.94-9.5,1.64,1.81,2.88,1.57,4.21-.49a38.85,38.85,0,0,1,3.92-4.61c.47-.52,1.1-1,1.87-.7.94.42.45,1.23.33,1.87-.38,2.08-1,4.14-1.21,6.23-.91,7.75,3.14,13.6,7.75,19.1,7.27,8.68,7.49,17.9.49,26.74A27.78,27.78,0,0,0,513.8,325.78Z" style="fill:#f6d9a0"/><path d="M510.67,314.83a23.48,23.48,0,0,1,1.9,9.16c.17,1,.33,2,.5,3-1.76,3.37-5,4.26-8.36,4.77a28.64,28.64,0,0,1-4.73.34c3.34,0,6.68-.15,10-.09,1.3,0,2.68-.12,3.67,1.05a19.21,19.21,0,0,1-7,1.12c-5.6.11-11.2.07-16.79.32-1.36.07-2.77.36-4.17.43-.25,0-.62,0-1.07,0,0,0-2.23,0-4.16.1a40.3,40.3,0,0,0-11.83,3.18,35.41,35.41,0,0,0-10.34,7.51c-1.43,1.47-1.33,3.4-1.86,6.57a66,66,0,0,0,.7,20.76,52.2,52.2,0,0,0,1.33,5.37c.09.29.17.53.22.68a51.69,51.69,0,0,1-16.3-.48c-2.17-1.09-3.41-3.15-4.83-4.93-5.43-6.78-12.34-11.83-19.26-16.89-2.34-2-4.41-4.3-6.6-6.46a29.41,29.41,0,0,1-5.45-16.2,27.42,27.42,0,0,0,.43-3.5,2.8,2.8,0,0,1,.7-1.11c1.69-1.35,3.45-.89,5.13-.08a37.59,37.59,0,0,1,6.26,3.7c.85.63,1.62,1.53,3.31,1.37-3.55-5.15-8.48-7.46-14.08-8.76a2.21,2.21,0,0,1-.71-.58,2.66,2.66,0,0,1-.38-.86c.13-4.29,4.29-9.78,7.93-10.44a12.72,12.72,0,0,0,4.16,1.74c4,1.11,8,2.35,11.22,5.17a1.63,1.63,0,0,0,1.59.4c.26-1.57-.74-2.63-1.78-3.5a16.42,16.42,0,0,0-10.78-4.25c-1.12,0-2.45.64-3.26-.78,1.19-3.38,4.16-4.53,7.15-5.47a26,26,0,0,1,11.46-.62c3,.42,4.57-.26,5.06-3.22,1.7-.66,2.08.65,2.48,1.75.55,1.51.79,3.14,1.72,4.5,1.73,2.16,4.46,2.72,6.68,4.06,8.25,5,16.51,9.94,24.25,15.69,1.62,1.2,4.18,1.23,4.81,3.7,2.52.81,3.48.22,2.77-2.06-.81-2.62.26-3.54,2.53-3.82,3.61-.45,5.86-2.62,7.49-5.66,1.14.75.43,2.07,1,3.27a16.85,16.85,0,0,0,4.61-6c.45-1,.61-2.18,1.72-2.77.82.4,1.77,1,2.49.11C504.7,313.26,507.68,314.13,510.67,314.83Z" style="fill:#a4a3b0"/><path d="M418.65,356.19a73.06,73.06,0,0,1,17.6,14.63c2.13,2.52,4.86,4.6,6.15,7.79l-5.52.1c-1.28-.92-2.75-.51-4.13-.51q-48.13,0-96.26-.07c-1.09,0-3.26.94-2.49-1.83-.29-1.38.59-2.31,1.33-3.24,5.15-6.48,11.54-11.56,18.42-16.06a3.66,3.66,0,0,1,2.6-.65c3.8,1.4,7.24,3.57,11,5.1,16.61,6.77,32.45,5,47.73-4C416.19,356.83,417.16,355.79,418.65,356.19Z" style="fill:#d9cfca"/><path d="M491.17,66.92A122.54,122.54,0,0,1,490,85.08c-.18,1.31-.22,2.88-1.67,3.31-1.23.37-1.88-1-2.61-1.78C476.56,77,466.55,68.54,455,61.92c-3.63-2.08-3.5-2.47-.65-5.56,6.59-7.16,14.76-12,23.48-16,5.47-2.51,8.92-.87,10.76,4.93C490.83,52.32,491.34,59.58,491.17,66.92Z" style="fill:#d6d1cb"/><path d="M291.33,39.31a17.08,17.08,0,0,1,7.6,2.14,102.62,102.62,0,0,1,22,15.15c2.61,2.36,2.53,2.63-.51,4.15-9.08,4.56-16.59,11.23-24.1,17.89-3,2.62-5.61,5.58-8.45,8.35-.67.65-1.21,1.89-2.44,1.39-1.05-.44-1.13-1.68-1.28-2.63a50.77,50.77,0,0,1-.75-6.94c-.1-7.58-.09-15.17-.05-22.75a34.53,34.53,0,0,1,2.32-12.18C286.67,41.18,288.37,39.13,291.33,39.31Z" style="fill:#d6d0ca"/><path d="M355.9,356.81a54.76,54.76,0,0,0-21.65,21.33l-79.16.29c.17-1.7.42-4.22.66-7.28.6-7.33.66-11,1-15.41.46-6.8,1.24-11.84,2-16.41a266.82,266.82,0,0,1,6.61-28.66c4.93-17.86,9.52-35.84,16.85-52.94,2-4.56,4.05-9.06,6.05-13.61a17.67,17.67,0,0,0,.66-2.32c3.41,1.27,5.37,4.43,8.32,6.38,13.44,8.9,27.51,16.3,43.43,19.69a1.07,1.07,0,0,1,.2,1.14c-2.49,3.93-3.56,8.82-8.12,11.36-8.11,4.53-8.17,8.9-7.29,18.05.24,2.52,1.22,4.9,1.46,7.42.43,2.9-.9,4.69-3.36,6.17-7.91,4.75-15.86,9.46-23.13,15.19a33.86,33.86,0,0,0-5.83,5.83c2.06,0,2.26.1,3.63-1.36,7.89-8.44,17.8-14,27.67-19.65,1.33-.76,2.55-1.65,3.8-2.53a3.56,3.56,0,0,1,1.36-.32c4.15-.77,8.11-2.39,12.41-2.45,5-.07,9.46,1.66,13.88,3.66a2,2,0,0,1,1.19,1.64c-.42,1.19-1.45.9-2.3.87-4.93-.15-8.25,2.8-11.49,5.9a3.45,3.45,0,0,0-.84,1.59c-.14.51-.17,1,.34,1.34s.77,0,1.12-.22a1.9,1.9,0,0,0,.49-.35c3.92-4.44,9.06-6.17,14.77-6.66a4.47,4.47,0,0,1,2.95.71,15,15,0,0,1,3.58,3.06c.77,1.52.5,3.38,1.6,4.79a5.33,5.33,0,0,1-.85,4.38c-.22.22-.67.43-.78.26-1.71-2.83-3.68-1.27-5.64-.39a34.53,34.53,0,0,0-7.06,4.09c-1.15.89-3,2-1.82,3.56s2.79.11,4-.68c2.19-1.44,4.23-3.1,6.44-4.53,1.43-.94,2.91-1.91,4.75-.93a2.23,2.23,0,0,1,.48.81,32.43,32.43,0,0,1-5.32,20.53C360.65,352.46,359.28,355.7,355.9,356.81Z" style="fill:#a4a3b0"/><path d="M358.17,312.42c-2.82-2.93-6.8-3.14-10.36-4.16-4.8-1.37-9.49.11-14.13,1.42-.86.25-1.76,1.21-2.77.25.17-7.93,1.86-15.55,6.31-22.14A98.33,98.33,0,0,1,349,273.47a40.27,40.27,0,0,1,20.44-11.31,36.84,36.84,0,0,0,7.46-2.6,22.25,22.25,0,0,1,14.26-1.27c5.15,1.09,10.32,1.93,15,4.52a29.22,29.22,0,0,0,9.29,2.83c2.66.46,3.36-.11,3.89-3.08-.41-1.19-1.52-1.5-2.48-2.06-4.28-2.47-8.94-4.19-13.28-6.56-.52-.73-1.23-1.4-.76-2.44,4.08-.07,6.83,3.28,10.62,4.1a10.37,10.37,0,0,1,7.32,4.9,4.94,4.94,0,0,0,3.58,2.1c4.13.55,7.56,2.83,11.38,4.07.18,1.37.37,2.75.55,4.12-1.43,0-2.77-.23-4.08,1s-3.29.68-5,.8c-.75.06-1.78-.29-2.12.68-.24.72.43,1.31.88,1.85,4.05,4.9,6.74,10.81,11.37,15.29a56.49,56.49,0,0,1,3.07,9.49c.27,1.15.68,2.37-.28,3.45-.2,4.77-.19,4.54-5.05,4.29-6.12-.32-12.41-.88-17.48,3.81a17,17,0,0,0-1.36,1.57,1.26,1.26,0,0,1-1.25,1.2c-3.44,2.7-6.83,5.43-7.33,10.23a62.63,62.63,0,0,0-15.75,8.74c-2.86,2.2-6.12,3.87-9.07,6a3.42,3.42,0,0,0-1.81,2.58c-.19.75-.83,1.26-1.13,2,1.09,0,2-.67,3.08-.61,4.22-1.42,7.74-.86,10.26,3.27,1.2,2,3.26,2.29,5.39,1.86,4.17-.83,7.43-5.43,7.08-9.64-.14-1.73-1.21-3.86,1.34-4.91.23,6,2.44,11.41,5.51,16.5,1.19,2.07-.32,3-1.76,3.77a44.62,44.62,0,0,1-9,3.67c-11.13,2.94-22.17,2.93-33-1.47a21.3,21.3,0,0,1-5-2.82c-1-.79-2.14-1.61-1.86-3.2,3.92-6.32,5.36-13.32,5.61-20.64,6.38-3,11.19-8.73,18.16-10.76,2.9-.85,5.93-1.2,8.54-3s4.56-3.65,5-6.87,2.41-5,5.55-5.57a12.1,12.1,0,0,0,4.23-1.64c1.53-1,2.34-2.22,1.37-4.06a7.94,7.94,0,0,1-.39-.77c-.8-1.52-2-1.31-3.36-.9a66.48,66.48,0,0,0-6.93,2.87,23,23,0,0,1-7.8,2c-3.3-.33-6.61-.44-9.87-1-4.58-.83-6-2.79-5.71-7.56.29-1.69,1.63-2.51,2.89-3.34q5.58-3.71,11-7.65a7.2,7.2,0,0,0,2.86-2.9c-1.12-.64-2.16-.1-3.08.28-12,5-24.15,9.68-34,18.63a21.22,21.22,0,0,1-3.52,2.4,6.46,6.46,0,0,0-2,1.35c-.71.73-1.65,1.48-1.08,2.59s1.62.2,2.43.09c4.1-.53,6.87,1.13,8.11,5.07a14.74,14.74,0,0,0,2.28,3.92c.64.95,1.8,1.79.92,3.19l-2.5-1C359,315,358.15,314.12,358.17,312.42Z" style="fill:#efd3a1"/><path d="M402.83,251.5l1.09,1.89a3.21,3.21,0,0,1-3.18.4c-5.05-1.44-10.22-1.15-15.37-1.12-1.73,0-3.43-.2-5.13-.32a14.5,14.5,0,0,1-4.76-.8c-10-2.71-18.15.71-23.32,9.74-.94,1.65-1.37,3.62-3,4.87a4.54,4.54,0,0,0-2.48,1.53,29.67,29.67,0,0,1-5.56,5.05c-2.16,1.44-2.81,3.83-3.69,6.06-1.47,2.05-3.8,3-5.75,4.41a10.57,10.57,0,0,0-4.61,9.07,32.55,32.55,0,0,0,1.43,10.47,7.14,7.14,0,0,1,.46,4.16c-1.42,1.94-2-.38-3-.59-1-4.85-2-9.66-1.86-14.69.12-4.85,2.22-8.55,6.18-10.8a18,18,0,0,0,7.78-8.53,50.31,50.31,0,0,1,2.56-4.43,7.75,7.75,0,0,1,3.6-2,6.87,6.87,0,0,0,5.37-4.11c3.85-10.55,11.88-14,22.3-13.33a64.91,64.91,0,0,0,11.16-.16c6.32-.67,12.08,1.46,18,2.87C401.63,251.3,402.23,251.39,402.83,251.5Z" style="fill:#d2a877"/><path d="M462.64,353.13c.19-2.23,2-2.91,3.64-3.69,6.73-3.31,14.05-4.54,21.34-5.73a133,133,0,0,1,48.91,1.52,32.54,32.54,0,0,1,11.78,5.43c1.47,1,1.56,2.21,1.28,3.68-4.76,4.66-10.73,6.47-17.12,7-18.72,1.44-37.46,2.65-56-1.58C471.43,358.57,466.47,357,462.64,353.13Z" style="fill:#844b2c"/><path d="M567.37,371.79a10.68,10.68,0,0,1-.65,4.11c-1.08,2.71-3.14,4.06-6.12,6-1,.65-3.5,1.63-8.51,3.58-1.12.44-2.55,1-3.15.38s-.19-1.71,0-2.24c1.78-4.21,2.49-8.62,3.39-13.05,1-4.93,2.86-6.84,7.57-6.51C565,364.4,567.38,367,567.37,371.79Z" style="fill:#efc26a"/><path d="M499.73,316c-.38,4.34-3.11,7.26-6.09,10-.36.33-.73.79-1.28.57-.72-.3-.57-1-.51-1.56.14-1.19.36-2.37.55-3.55,1.2-4.52-.73-8.25-3.08-11.84-1-1.61-2.34-3-3.4-4.64-4.79-7.19-3.15-14.58,4.6-19.68a16.33,16.33,0,0,1,0,4c-1.64,6,.48,10.85,4.24,15.35C497.46,308,499.76,311.49,499.73,316Z" style="fill:#bdbac2"/><path d="M436.26,290.39c-5.29-4.38-7.52-11.06-12.06-16-.51-.56-1.37-1.1-.88-2.05s1.34-.79,2.15-.8H430c.81,0,1.87.1,2.18-.73,1.41-3.75,2.72-1.49,4.07,0a49.15,49.15,0,0,1,3.31,14.86c.09,1.25-.34,2.36-.23,3.54C438.47,290,437.23,289.83,436.26,290.39Z" style="fill:#f3bd49"/><path d="M479.61,333c-6.81-3.16-12.46-8.15-18.85-12C454.88,317.51,449,314,443,310.67c2.82-1.66,3.49-4.22,3.2-7.29a3.08,3.08,0,0,1,1.19-3.18c1,1.92.64,4,.48,6a4,4,0,0,0,2.59,4.5,211.41,211.41,0,0,1,24.78,14.77,20.8,20.8,0,0,1,4.59,4C480.82,330.62,481.81,332,479.61,333Z" style="fill:#76727b"/><path d="M447.4,300.2c0,2,0,4-.06,6-.11,3.79-.47,4.14-4.33,4.49-1.87-2.09-1-5.26-2.89-7.35a73.07,73.07,0,0,0-3.86-12.93c-.15-3.46,1.87-1.31,3.1-1.2C442.75,292.35,445.81,295.74,447.4,300.2Z" style="fill:#935328"/><path d="M513.67,333.08c-5.46-.13-10.95.29-16.47-.9,5.45-1.49,11.41-1.06,15.87-5.17C512.93,329.06,515.15,330.89,513.67,333.08Z" style="fill:#a4a2af"/><path d="M362,350.15c4.92,5.26,11.42,6.94,18.17,7.89a50.09,50.09,0,0,0,29.12-4.48c1.47-.71,3.47-1,3.3-3.36a33.64,33.64,0,0,1,6.1,6c-16.12,11.32-33.3,13.64-51.7,6.22a62,62,0,0,1-11.05-5.61Z" style="fill:#dcb480"/><path d="M407,333.7a5.33,5.33,0,0,0-.2,4.95c1.88,4.88-5.81,12.41-11.74,10.8a4.31,4.31,0,0,1-2.74-2.27c-1.94-4.09-5.11-4.32-8.86-3.18a2.79,2.79,0,0,1-.91,0c-.2-2.06,1.41-2.78,2.78-3.55a61.84,61.84,0,0,1,8.3-3.75A60.88,60.88,0,0,0,404,331.61c.88-.55,1.75-1.51,3-.81C407.65,331.76,408,332.73,407,333.7Z" style="fill:#e6b677"/><path d="M407,330.8c-5.48,4.18-12,6.28-18.15,9.11-2.28,1-4.78,1.81-6.29,4.07-1.59.35-3,1.49-4.85,1.14.12-1.75,1.73-2.32,2.53-3.48,1.23-2.11,3.41-3.11,5.3-4.41,5.9-4,11.4-8.68,18.11-11.44,1.27-.52,2.47-1.49,4-.73l.14.13c1.4,1.6.9,3.18,0,4.76Z" style="fill:#9a5d2b"/><path d="M415,314.19l1.25-1.2c6.36-1.95,11.18,1,15.62,5a5.6,5.6,0,0,1,1.29,2.36,2.1,2.1,0,0,1-.51,2.52c-.89.67-1.58-.11-2.13-.6-4.14-3.76-9.24-5.3-14.57-6.23C414.53,315.79,414.53,315.19,415,314.19Z" style="fill:#797482"/><path d="M407.78,330c0-1.58,0-3.17,0-4.76,6.36.2,11,3.61,15,8.13.64.72,1,1.69.22,2.45a2,2,0,0,1-2.76-.21,39.78,39.78,0,0,0-7.59-5C411.13,329.72,409.54,329,407.78,330Z" style="fill:#6c6876"/><path d="M407.66,325.06c-8.18,2.39-14.65,7.67-21.37,12.54-2,1.42-3.75,3.08-6,4-.1-3.06,2.68-3.6,4.47-4.78,6.3-4.18,12.23-9,19.22-12,1.22-.53,2.34-1.29,3.69-.41C407.65,324.63,407.66,324.85,407.66,325.06Z" style="fill:#ce9f69"/><path d="M488.93,332.12c2.49-2.15,4.51-1.48,7-.1C493.42,332.92,491.39,333.72,488.93,332.12Z" style="fill:#a4a2af"/><path d="M348.74,266.07c2.33-5.1,4.33-10.43,9.6-13.44s11-4.1,17.08-2.15c1.33.43,2.74.62,4.11.92a45.09,45.09,0,0,0,18.39,5.54,28.38,28.38,0,0,1,10.83,2.5c1.42.71,3,.53,4.46.63a22,22,0,0,1,7.27,1.78c.85,3-1.45,5.72-4.3,5.1-5.26-1.13-10.06-3.64-15.07-5.25-8.22-2.66-16.94-5.22-25.61-.47-4.8,2.63-10.48,2.73-15.45,5.3-7.39,3.82-12.6,9.75-17.56,16-3.05,3.85-6.29,7.58-7.76,12.56a77.08,77.08,0,0,0-2.54,11.17,9.48,9.48,0,0,1-1.28,3.64l-1.27.29c-1.67-.35-2.13-1.3-1.37-2.83.31-3.09-1.3-5.79-1.87-8.71-1.65-8.54.28-15.1,8.64-18.93a11.81,11.81,0,0,0,1.94-1.43,3.25,3.25,0,0,1,1.39-1.13c3.6-1.27,5.6-4.09,7.3-7.29C346.44,268.47,346.71,266.53,348.74,266.07Z" style="fill:#f3bd42"/><path d="M363.18,315.88c-.46-1.86-2.19-2.83-3.11-4.39a6.89,6.89,0,0,1-1.19-2.69c-.41-3.2-5-5.54-7.82-3.82-1.09.67-1.67.81-2.5,0a2.06,2.06,0,0,1-.25-2.78c1-1.37,2-2.81,3.83-3.23.38,2.75.65,3,3.32,1.95,6.57-2.58,13.87-3.58,19.24-8.81a2,2,0,0,1,2.5-.47c.05,5.95,1,6.93,6.94,7.36a36.46,36.46,0,0,1,8.3,1.19.68.68,0,0,1,.18.53c0,.19,0,.28-.07.28-3.59,2.76-7.6,4.87-11.3,7.48a125.07,125.07,0,0,0-9.95,7.8c-1.24,1.09-2.33,2.6-4.36,2.15C365.15,318.38,364.48,316.65,363.18,315.88Z" style="fill:#e7b878"/><path d="M411.27,297.07c1.17,3.51.62,4.69-3.1,6.4a7.24,7.24,0,0,1-2.32.65c-3.56.27-5.2,2.17-5.83,5.68-.78,4.36-6.08,8.54-10.77,9.24a23,23,0,0,0-11.45,5.06c-3,2.43-6,5.21-10.23,5.41-.07-.25-.15-.49-.23-.73a.92.92,0,0,1,0-1.23c.26-1.58.51-3.15.76-4.72.27-.79,1-1.06,1.62-1.48,10.36-5.32,20.63-10.77,30.09-17.64C403.38,301.13,407.45,299.29,411.27,297.07Z" style="fill:#dba970"/><path d="M328.27,307.39a4.91,4.91,0,0,0,1.37,2.83c-1.24,2.53-4,3-6.09,4.21-8.76,5.14-17.51,10.25-24.45,17.86a9.61,9.61,0,0,1-3.26,2.19c-1,.44-2.07.77-2.81-.16-.92-1.15.33-1.81,1-2.5,4.77-5.21,10.49-9.23,16.48-12.89,4.59-2.8,8.91-6,13.74-8.44,1.82-.91,1.84-2.5,1.74-4.17C327.32,305.37,327.59,306.82,328.27,307.39Z" style="fill:#79767f"/><path d="M369.89,322.13c-.45.6-1.15.57-1.78.7-1.93-1.06-1.57-2.73-1.17-4.42,6.05-4.68,11.77-9.79,18.28-13.87,2.32-1.45,4.54-3,7.22-3.75,4.51-.58,8.53-2.49,12.59-4.37a4.06,4.06,0,0,1,2.92-.28c1.14,1.34,0,2.08-.89,2.56-6.7,3.76-13.34,7.65-20.3,10.95a7.5,7.5,0,0,1-2.65.62,9.19,9.19,0,0,0-6.46,3.55c-2.09,2.48-4.12,5-6.87,6.82A1.66,1.66,0,0,0,369.89,322.13Z" style="fill:#bd7e46"/><path d="M367.35,327.55c0,.41,0,.82,0,1.23-3.86,1.18-6.76,3.94-10,6.19a9.58,9.58,0,0,1-2.93,1.5c-1.07.3-2.44.78-3.09-.3a3.15,3.15,0,0,1,.38-3.95c4-3.77,8.89-6,13.95-7.75C367.65,323.79,366.24,326.76,367.35,327.55Z" style="fill:#767582"/><path d="M358.17,312.42l2.51,2.49c-.22,1.1-1.08,1.06-1.9,1-4.77,0-8.54,2.09-11.73,5.49-1.1,1.18-2.55,2.83-4.06,1.49s-.43-3.24.63-4.65C347.15,313.59,353.66,311,358.17,312.42Z" style="fill:#757380"/><path d="M377.2,291.62c-2.92,1.59-5.33,3.9-8.22,5.58-4.87,2.83-10.62,2.87-15.58,5.33-.77.38-2.21.58-2.73-.51-.65-1.38,1.1-2,1.47-3.07,6.55-5.13,13-10.48,20.66-13.88,6.3-2.79,12.45-6,19.06-8,.86-.27,2.07-1.12,2.77,0s-.33,2.11-1.16,2.84c-3.67,3.21-7.84,5.74-11.82,8.54Z" style="fill:#a36227"/><path d="M420.48,261.85c-6.59.1-12.83-1.8-19.16-3.26-4.51-1-9.32-.68-13.67-2.44-2.9-1.17-6.41-1.48-8.12-4.75,8.19,0,16.43-.69,24.39,2C409.65,255.8,415.56,257.86,420.48,261.85Z" style="fill:#a25a1a"/><path d="M369.89,322.13c-.56-.22-2.33-.08-.86-1.18,3.92-2.92,6.73-6.89,10.26-10.15a4.59,4.59,0,0,1,2.42-1.2c8.09-.83,14.05-6.28,21-9.62,1.95-.93,4.2-1.55,5.63-3.42,1-1.76,2-1.32,3,0v.47a6,6,0,0,1-2.08,2.47c-10.51,5.6-19.92,13-30.57,18.42C375.74,319.41,373,321.12,369.89,322.13Z" style="fill:#995723"/><path d="M411.27,296.6c-1-.94-2-.63-3,0a16.1,16.1,0,0,0-5.45,1.78,15.36,15.36,0,0,1-10.42,2.45v-.62c4.75-1,9-3.33,13.57-5C407.92,294.53,410.18,293.65,411.27,296.6Z" style="fill:#dba970"/><path d="M417.6,290.18c1.1.11,2.39.08,2.26,1.5-.16,1.92-1.88,2.58-3.39,2.94a1.7,1.7,0,0,1-1.94-1.85C414.62,290.91,416.05,290.35,417.6,290.18Z" style="fill:#8a5e2e"/><path d="M348.74,266.07c-1.25,2.38-2.4,4.83-3.78,7.13-1.8,3-4.35,4.93-8,5.12a8.12,8.12,0,0,1,4.23-6.81c2.26-1.37,3.76-3.6,5.71-5.33C347.38,265.78,348,264.14,348.74,266.07Z" style="fill:#af661e"/><path d="M426.93,126.57c9.34,6.86,19.85,11.39,30.6,15.45,2.51,2.43,2.14,5.32,1.33,8.29C455.74,161.69,446,167.8,434,166c-10.58-1.61-18.11-10.94-17.78-22,0-.85,0-1.7,0-2.54C417.22,132.44,420.53,127.88,426.93,126.57Z" style="fill:#2b0d05"/><path d="M317.18,147.13,315.27,142c2.25-.63,4.58-1.37,7-2.24a99.66,99.66,0,0,0,24.54-13.07c3-.77,4.92.92,6.49,2.94,8.13,10.38,7.58,22.86-2.69,31.58A21.58,21.58,0,0,1,318.81,157C316.84,154,314.56,150.92,317.18,147.13Z" style="fill:#2c0e07"/><path d="M317.18,147.13c1.69,9.05,7,14.85,16,16.66,8.19,1.66,15.2-1.09,19.84-8.13s4.59-14.72.24-22.13a22.53,22.53,0,0,0-6.49-6.84c5.84-6.9,5.91-6.89,11.43,1.27,3.92,10.66,4.54,20.94-2.57,30.77-3,4.17-7.33,6.24-11.47,8.72-17.31,4.73-29.44-1.64-35.93-12.51a23.4,23.4,0,0,1-1.71-3.39c-1.36-3.48-1.86-5.47-1.12-6.75.91-1.58,3.17-2,6.63-2.5a24.63,24.63,0,0,1,3.24-.3Z" style="fill:#f0e8e1"/><path d="M418,140.75c0,1.26.14,2.54.1,3.8-.4,12.55,8.8,18.49,17.52,19.4,10.95,1.14,19.44-5.34,21.49-16.24a51.14,51.14,0,0,0,.44-5.69c.85,0,2.09.07,3.58.22a27.44,27.44,0,0,1,5.14.91c1.89.55,2.86.84,3.33,1.66s.21,1.75-.26,3.66a27.22,27.22,0,0,1-22.84,20.13c-5.63.68-11.38.92-16.89-1.18-9-5.1-15.14-12.27-16.55-22.87C414.89,143.55,414.86,140.11,418,140.75Z" style="fill:#eee7de"/><path d="M418,140.75c-1.3,1.71-1.89,4.36-4.94,3.8-.67-6.39.26-12.45,3.7-18A3.77,3.77,0,0,1,417,126c3.81-5.49,4.35-5.55,8.81-.93a14,14,0,0,1,1.1,1.52A26,26,0,0,0,418,140.75Z" style="fill:#eee7e0"/><path d="M400.84,165.76c-.87,3.85-3.42,6.07-6,8.29-1.54,1.3-3.44,2.1-3.64,4.78-.53,7.32-.27,8,6.84,9.81,7.63,2,14.12,5.72,18.85,12.15a19,19,0,0,1,2.43,4.42,2.51,2.51,0,0,1-1.22,3.25,2.68,2.68,0,0,1-3.5-.19c-1.2-1.18-2.18-2.59-3.27-3.89a30,30,0,0,0-46.19,0,28.07,28.07,0,0,1-3.37,3.75,2.66,2.66,0,0,1-3.51-.23,2.51,2.51,0,0,1-.63-2.89,18.19,18.19,0,0,1,4.26-7,34.09,34.09,0,0,1,16.94-9.52c5-1.2,4.8-1.28,5.08-5.93.23-4-.65-7.07-4.59-8.77a7.94,7.94,0,0,1-2-1.52c-2.07-1.91-4.23-4.07-3.18-7.06s4-2.81,6.54-2.86q7.94-.18,15.89,0C398.78,162.41,400.63,163.36,400.84,165.76Z" style="fill:#29100a"/><path d="M428.52,139.38a5.42,5.42,0,0,1,4.89,5.64,5.12,5.12,0,0,1-5.81,4.58,4.83,4.83,0,0,1-4.51-5.16A5.23,5.23,0,0,1,428.52,139.38Z" style="fill:#ebdbcd"/><path d="M329.07,140.21a5.25,5.25,0,0,1,5.17,5.25,5.32,5.32,0,0,1-5.18,5.24,5.52,5.52,0,0,1-5.17-5.33A5.12,5.12,0,0,1,329.07,140.21Z" style="fill:#ead9cc"/></g></g></svg>