<svg xmlns="http://www.w3.org/2000/svg" viewBox="0 0 800.01 450"><g id="Capa_2" data-name="Capa 2"><g id="DiseñosMascotas"><rect width="800.01" height="357" style="fill:#f76b5e"/><path d="M800,357v93H0V353.5Z" style="fill:#da9b33"/><path d="M402.31,360.72c14.92,1.85,29.6,4.61,42.92,12.08,6.16,3.46,10.53,8.08,9.11,15.94a3.67,3.67,0,0,1-.84,2.54c-5.56,6.46-13.13,9.7-20.85,12.43-14.88,5.26-30.39,7.45-46,9-18.79,1.82-37.63,1.34-56.41.82a211.73,211.73,0,0,1-58.12-9.39,76.89,76.89,0,0,1-20.9-10.53c-1.37-.87-2.25-2-1.92-3.74-.82-4.13-.88-7,.16-9.39,1.26-2.9,3.48-4.65,7.33-6.89,11.18-6.49,23.12-9.6,33.77-11.24,1.49-.23,2.71-.39,3.45-.49a13.67,13.67,0,0,0,.5,3.06,14.69,14.69,0,0,0,.77,2.08c.81,1.74,2.92,5.77,5.87,11-1,1.85-3,2.32-4.6,3.28-2.11,1.24-4.57,2.53-4.52,5.27,0,3,2.73,4.27,5.11,5.39a34.81,34.81,0,0,0,5.89,2.14c12,3.26,24.1,5.67,36.59,5.59,15.5-.1,31.05.76,46.43-2.1,6.7-1.25,13.37-2.63,19.51-5.7,2.27-1.13,5.16-2.26,5.07-5.38s-2.82-4.14-5.1-5.45c-3.28-1.9-7.49-2-10.11-5.14A25.76,25.76,0,0,1,402.31,360.72Z" style="fill:#ecf0f1"/><path d="M453.31,390l1-1.23c7.79,7.2,5.06,15-3.16,20-11.54,7.06-24.3,10.93-37.5,13.52-25,4.92-50.35,6.24-75.77,5.22-25.59-1-50.84-4.43-74.94-13.73a45.9,45.9,0,0,1-10.79-6.2c-7.28-5.4-8.06-10-2.93-17.71l2.16,2.26c7.35,7.95,17,12.18,26.86,15.57,18.77,6.42,38.26,8.74,58,9.89a289.41,289.41,0,0,0,63.5-3.37c16.77-2.73,33-7.5,47.21-17.34A22.66,22.66,0,0,0,453.31,390Z" style="fill:#b77f2d"/><path d="M370.77,392.12c10.75-2,18.29-8.78,25.13-16.66,4.16,1.69,8.53,3,12.44,5.16,6.48,3.55,6.53,7.73.33,11.59-6.61,4.13-14.17,5.65-21.68,7-17.73,3.19-35.68,2.69-53.54,2a125.43,125.43,0,0,1-37.08-7.47,12.12,12.12,0,0,1-2.24-1.31c-6.26-3.94-6.43-7.63-.3-11.8,2.11-1.44,4.64-2.24,7-3.33C321.27,395.8,344.72,400.09,370.77,392.12Z" style="fill:#b6bbbf"/><path d="M453.31,390c-2.09,8.1-9.44,10.87-15.56,14.38-11,6.29-23.38,9-35.66,11.39a252.47,252.47,0,0,1-51.41,4.19c-24.2-.4-48.32-2.2-71.52-10.05-7.93-2.68-15.72-5.72-22.28-11.1-2.23-1.83-4.94-3.39-5.47-6.67,17,11.41,36.47,14.82,56.15,17.63,22,3.13,44.14,2.95,66.2,1.92,24.14-1.14,48.24-3.59,70.37-14.91C447.63,395,450.24,392.21,453.31,390Z" style="fill:#b4b3ae"/><path d="M547.92,355.58q-47.74,0-95.49-.07c-1.28,0-2.64.35-3.85-.43,1.05-1.47,2.67-1.25,4.15-1.3,1.65,0,2.31-.81,2.42-2.43.92-14.05,1.49-28.08-.86-42.06-.29-2,1.37-2.5,2.66-3.2,2.92-1.59,6-3,8.71-5.67-1.68-.36-2.68.37-3.71.79-10.16,4.14-20.35,8-31.37,9.44-21.14,2.74-40.49-1.26-57.9-13.95a180.26,180.26,0,0,1-28-25.15c-4.93-5.5-10.43-10.52-17.58-13.21a6.49,6.49,0,0,1-2.46-1.4c-2.21-1.79-4.85-2.89-7.06-4.72-3.93-3.25-6-8.52-4.74-12.54,3.86-2.15,5.67-2,14.63,1.28-.1-2-1.5-2.83-2.85-3.57a25.79,25.79,0,0,0-7.49-2.33c-1.28-.25-2.63-.26-3.76-1.07-1.51-2.81-.48-7.2,2.31-9.94,5.54-1.56,10.62.22,16.08,2.83-1.23-3.37-3.42-4.6-5.93-5.46-1.42-.49-3-.46-4.24-1.47-.18-2.58,1-3.72,3.83-4.15,4.31-.64,7.4,1.65,10.28,4.25A74,74,0,0,1,353,242.53a11.85,11.85,0,0,0,7.21,6.53c3.06.89,4.83-.1,5.84-3a1.53,1.53,0,0,1-.69-.64c-.51-.91.42-1.79.77-3.87.08-.49,0-.32.13-2.7.06-1.11.12-2,.16-2.62,1.39.82,3.38,2,5.82,3.22,8.28,4.3,15.39,7.48,24.61,9.49,9.68,2.11,19.15.54,28.48-2.26a66.86,66.86,0,0,0,8.3-3,10.43,10.43,0,0,0,4.15-3c1.29-1.65,3.28-2.36,5.13-3.18a113.12,113.12,0,0,1,13.38-5.07c13.34-3.92,24.68-11.22,35.05-20.25,2.45-2.13,4.86-4.3,7.26-6.49.93-.85,1.82-2,3.36-1.77.94,3.72,3.45,6.62,5.25,9.88,6.65,12.07,13.24,24.16,18.08,37.09C532,268.86,538,287,542,305.78c2.28,10.48,4.78,20.92,6.14,31.57a88.63,88.63,0,0,1,.91,14.85A8,8,0,0,1,547.92,355.58Z" style="fill:#a4a2af"/><path d="M501.92,204c-13.09,12.59-26.87,24.07-44.81,29.33a98,98,0,0,0-15.86,6.16c-1.44.71-3,1.15-3.47,3.09-.12.51-1,.94-1.63,1.23-9.12,4.2-18.78,7-28.7,7.31s-17.41-2.65-21.33-4a76.63,76.63,0,0,1-19.89-10.28c-.43-1.58-1.11-4-2-7.07-7.07-24.6-9.51-27.25-12.13-28.54-2-1-5-1.66-7.87-4.65a42.75,42.75,0,0,1-3-3.75c-1.55-2.12-1.39-2.2-3.12-4.67a49.62,49.62,0,0,0-4.3-5.76c-.9-.84-1.61-1.33-1.6-2.13,0-1.13,1.47-2.05,2.72-2.65,3.19-2.91,7-5.08,9.94-8.33,2-2.25,3.83-4.66,5.67-7.07,1.39-1.82,1.13-3-.9-3.86-.3-1.53,1-1.79,1.9-2.31,1.3-.76,2.49-1.66,3.71-2.53s1.2-1.85.37-2.95c.76-1.47,2.29-1.35,3.57-1.77a5,5,0,0,0,2.74.31,6.68,6.68,0,0,0,4-3c2.11-3,2.21-6.48,2.31-9.92.05-1.62-.08-1.36,0-2.58.29-4.6,1.93-5.88,1.11-8.06-.37-1-.28-1-2.31-3.08-.84-.86-1.77-1.71-1.8-3.07.88-1.63.49-3-.6-4.46a15.36,15.36,0,0,0-7-5.11c-1.37-.52-3-1-2.36-3.1,2.53-1.18,4.49.25,6.44,1.49,2.22,1.42,4.06,3.35,6.4,4.62,3.05,1.65,4.05,1.46,5.12-1.91A173.86,173.86,0,0,1,380,94c2.7-6.13,6.91-10.68,13.49-12.69,6-1.82,15.19,1.53,19.52,7a32,32,0,0,1,6.6,16.11,44,44,0,0,0,1.3,6.24c.8,2.88,1.24,3,3.5.84,1.84-1.73,3.48-3.71,5.65-5.07,1.17-.73,2.36-1.71,3.89-.77.93,5.39-2.89,11.62-8.08,12.35-1.25.18-3,.3-4.15,1.7-.8,1-.62,1.89-.85,5.49-.31,5-.78,5-.38,6.39.82,2.85,2.77,2.88,3,5.32.2,2.2-1.31,3-.88,4.87.36,1.61,2.45,1.78,3.35,3.47,2.43,4.53,6.67,7,10.73,9.65,1.75,1.16,3.71.77,5.61.95,3.07.29,6.29-.84,9.22.91-.13,2.23-2,1.72-3.18,1.78-3.55.17-7.11.06-10.66.06a5.2,5.2,0,0,0-3.12.46,48.28,48.28,0,0,0,7.21,9.18c9.07,8.46,19.76,14,32,15.74,9.6,1.36,19.24.95,28.55-2.41,7.39-2.66,12.42-7.82,16.08-14.58.73-1.37.92-3.51,3.3-3.33.26,3.71-1.45,6.93-2.6,10.29A101.57,101.57,0,0,1,501.92,204Z" style="fill:#d5d0cc"/><path d="M392.93,332.84c-3.66-8.73-9.25-12.19-11.41-13.34-9.55-5.09-24.3-3.69-31.3,3.22-2.09,2-5,6.11-9.29,6.06-2.07,0-3.67-1-5.55-.13s-2.76,2.94-3.23,4.65c-3.5,3.9-4.84,4.31-5.42,4-1-.54-.19-4.34,1.41-11.91.64-3,1-4.75,1.59-7.93a34.8,34.8,0,0,0,.74-5.75,3.08,3.08,0,0,1-.29-1.43c2.48-10.46,4.07-21.11,6.76-31.53.4-1.57.75-3.16,1.28-4.7,1.12-3.24,2.5-3.52,5-1,.93.94,1.65,2.06,2.58,3,11.84,11.75,24,23.22,39.05,30.75s30.77,10.59,47.53,7.64a88.45,88.45,0,0,0,17.8-5.13c1.37-.56,2.76-1.42,4.35-.67s1.15,2.22,1.35,3.48c1.89,11.91,1.57,23.87.58,35.82-.2,2.31,1.23,5.42-1,6.74-1.76,1-4.53.35-6.84.43l-47.1,0a1.15,1.15,0,0,1-1.29-1c-.76-4.83-2.76-9.39-3.11-14.31a4.27,4.27,0,0,0,.77-6A4.22,4.22,0,0,0,392.93,332.84Z" style="fill:#d5d0cc"/><path d="M269.84,173.51a37.68,37.68,0,0,1,11.88-17.45c3-2.58,6.2-5.17,10.14-6.42a19.13,19.13,0,0,1,6.45-2.44c3.29-.66,5.33.56,5.38,3.92.08,5.49,3.14,10,4.33,15.13.44,1.91,2.28,2.85,4,3.52a21.23,21.23,0,0,1,10.46,8.44c1.7,2.66,4.61,3.52,7.52,4.21,1.87.45,3.82.66,5.41,1.9a21.7,21.7,0,0,1,2.66,2.92c2.67,4,1.78,6.48-2.71,8.07a108.89,108.89,0,0,0-22.82,10.75c-2.59,1.67-5.51,3.07-7.14,5.94-4.23,5.52-4.75,5.62-9.4.78-2.09-2.17-4.66-3.8-6.6-6.12a5,5,0,0,0-1.89-2.31c-6.06-3.44-11.89-7.3-18.75-9.16-4.17-1.12-4.5-2.16-3.46-6.36A125.36,125.36,0,0,1,269.84,173.51Z" style="fill:#f9ac0e"/><path d="M290,206.31a48.33,48.33,0,0,1,9.11,8.32c1,1.12,1.45,1.33,2.44.06a24.41,24.41,0,0,1,3.06-2.85,9.16,9.16,0,0,1,4.93-2.79c5.76-1.63,11.25-.57,16.65,1.54a3.87,3.87,0,0,1,2.31,1.85c-.2,2.18-2.23,2.39-3.63,3.13a10.14,10.14,0,0,0-3.46,2.34c-4.67,3.14-7.84,7.39-8.59,13-1,7.48-1.66,15,4.47,21a1.6,1.6,0,0,1,.41,1.41c-1.94,3.82-5.56,5.37-9.34,6-8,1.34-15.94.8-23.2-3.46-1.83-1.07-3.68-2.15-4.62-4.21a3,3,0,0,1,.32-2.34c3.81-7.3,3.32-14.75.82-22.28a44.09,44.09,0,0,0-5.25-10.86c-6.12-9.07-15.45-6.51-21-1.7a28.84,28.84,0,0,0-4.47,5,4.44,4.44,0,0,1-2.53,2c-3.36,3.6-5.62,8.16-9.89,11a12.08,12.08,0,0,1-8.12,1.83c-2.57-.26-3.47-2.29-2-4.23a2.53,2.53,0,0,1,2.12-1c4.84-.1,8-3.17,10.94-6.38s5.77-6.77,9-9.86c8.58-8.26,18.93-11.4,30.59-10.5A12.88,12.88,0,0,1,290,206.31Z" style="fill:#de7022"/><path d="M290,206.31c-14.56-5.84-28.39-2.91-39.56,8.11-3.89,3.84-7,8.35-11.13,12a13.47,13.47,0,0,1-10.83,3.65c-1.24-4.26.13-8.27,1.77-12,4.64-10.42,11.43-19,22.13-23.9a19.82,19.82,0,0,1,8.51-1.83c2.4,0,3.44-.85,3.84-3.17a78.5,78.5,0,0,1,3.74-13.09c.33-.94.47-2,1.39-2.62-1.37,5.18-2.7,10.37-4.12,15.53-.9,3.24-.5,4.27,2.69,5,7.43,1.78,13.74,5.81,20,9.92C289.08,204.42,290.78,204.67,290,206.31Z" style="fill:#fbc13c"/><path d="M293,148.42a10.5,10.5,0,0,0,4.38-1.23,16.38,16.38,0,0,1,3.51-.74c4.2-.85,7.41,1.2,8.44,5.38.93,3.72,2.63,6.72,6.08,8.67a13.81,13.81,0,0,1,5.52,5.95,8.84,8.84,0,0,0,5,4.62,11.87,11.87,0,0,1,7,5.94c1.68,3.28,3.87,6.26,5.41,9.61-1.76.82-2.05-1.36-3.29-1.62-2.1-1.11-4.48-1.22-6.72-1.82a11.67,11.67,0,0,1-7.67-5.47,13.08,13.08,0,0,0-7-5.93c-4.05-1.51-7-3.74-7.85-8.63-.73-4.4-3.62-8.28-3.21-13.13.17-2-1.82-2.42-3.62-2-2.37.52-4.73,1.09-7.09,1.64Z" style="fill:#faca4f"/><path d="M330.8,310.47c-7.1-1-14.3-.56-21.37-2.41-11.06-2.9-20.55-8.43-29.27-15.58a112.74,112.74,0,0,1-18.39-19.73c-2.26-3-9-14-12.09-29.86-1.91-9.7-3.08-16.13.55-22.49,3-5.32,8.93-9.71,14.43-10.17a12.34,12.34,0,0,1,5.67.75,13.14,13.14,0,0,1,5.05,3.85,28.74,28.74,0,0,1,5.47,10c1.66,4.78,3.54,10.17,2.3,16.12-1,4.83-1.5,7.24-2.46,8.75a4.81,4.81,0,0,0-1.1,3.4,4.53,4.53,0,0,0,2.27,2.74c10.47,6.68,15.7,10,20.73,11a39.67,39.67,0,0,0,10.36.52,17.71,17.71,0,0,0,3.31-.52c1.86-.51,5.53-1.49,7.35-4.73a9.07,9.07,0,0,0,.9-5.8A74.71,74.71,0,0,1,338.3,264c8.74,6.23,10.37,11.17,18,18,11.28,10.13,23.09,19.45,37.62,24.62a61.42,61.42,0,0,0,16.28,3.3,100.16,100.16,0,0,0,28.92-2c8.14-1.78,15.82-5,23.47-8.29,1.46-.62,3.68-1.85,4.36-.67,1.12,2-1.24,3.16-2.69,4.06-3.17,2-6.51,3.67-9.78,5.48-11.3,5.13-23.08,8.3-35.58,7.92A82.15,82.15,0,0,1,370.28,299c-10.38-8-20.4-16.36-28.91-26.38a9.89,9.89,0,0,0-1.14-1,20.68,20.68,0,0,0-1.92,6c-2.15,9.78-4.2,19.59-6.3,29.38C331.76,308.27,331.72,309.53,330.8,310.47Z" style="fill:#807f8a"/><path d="M366.15,246.54l.64-.12c-.83,4.11-6.07,5.33-9.8,2.19a23.59,23.59,0,0,1-6.09-7.77,63.82,63.82,0,0,0-18.64-22.35,8.67,8.67,0,0,0-6.84-1.77c-1.76.26-3.37.84-3.72,2.95-1.71,1.73-4,2.86-5.44,4.87-2.19,2.66-3.33,5.61-2.42,9.09.61,2.16.88,4.28-.6,6.23-.6,7.08,3.46,11.27,9.05,14.45a10.38,10.38,0,0,1,3,2h-1.2c-2.87.38-4.91-1.08-6.72-3-7.33-9.42-8.08-21.89-1.91-31a18.35,18.35,0,0,1,5.61-5c4.81-3.48,8.42-3.36,13.5.39,7.81,5.78,13.5,13.3,17.91,21.86a26.46,26.46,0,0,0,4.12,6C359.71,248.84,362.29,249.1,366.15,246.54Z" style="fill:#b67b62"/><path d="M313.24,239.86c0-2.09-.76-4.26.6-6.23a31.9,31.9,0,0,1,10,2.14,9.65,9.65,0,0,1,4.23,2.84c.93,1.12,1.39,2.4.38,3.56-1.21,1.39-2.08,0-3-.69C321.65,238.91,317.48,239.07,313.24,239.86Z" style="fill:#777581"/><path d="M316.26,224.54c.36-3.25,2.61-4.39,5.44-4.87,4.29.05,7.95,1.46,10.56,5,.65.88,1.45,2.05.67,3.06-.95,1.21-2,.15-2.93-.41C325.76,224.72,321.09,224.24,316.26,224.54Z" style="fill:#74717e"/><path d="M332.8,179.53c-5.56-1.67-8.05-4.2-9.29-6.29a49.08,49.08,0,0,0-3.29-6,14,14,0,0,0-3.78-4.16c-1.95-1.34-2.51-.93-3.87-2.13-.38-.34-1.47-1.39-2.8-5.52-1.43-4.42-.83-5.27-1.85-6.61s-3-2.57-8.31-2.18a77.81,77.81,0,0,1,0-12.21,54.46,54.46,0,0,1,1.32-8.26c.39-1.66.43-1.45,6.81-18.93,3.05-8.33,4.28-13,4.24-18.45a37.94,37.94,0,0,0-.63-6.64c-1.27-6.94-.35-14-.66-21a101.91,101.91,0,0,1,2.63-28c1.88-8,6.45-12.53,15.76-10.34,5.21,1.23,9.87,3.79,14.34,6.53,7.77,4.78,15.28,10,21.66,16.61,2.11,2.18,4.25,1.77,6.66,1a233.32,233.32,0,0,1,24-6.53c14.84-3,29.55-2.49,44.3.29A70.54,70.54,0,0,1,453,44.09c3.34,1.31,5.89.56,8.2-1.91a119.27,119.27,0,0,1,18.35-15.9c5.91-4.18,12-7.91,19.17-9.64,5.94-1.44,10.12.38,12.91,5.81,3,5.86,4.18,12.25,5,18.68a105.82,105.82,0,0,1,1.06,22.28c-.28,5.52-.8,15.88-3.49,24.44a19.44,19.44,0,0,0-.9,4.06,22,22,0,0,0,2.83,12.72c10.35,19.08,6.44,51.57,6,55.38-.2,1.59-.4,2.86-.52,3.53-2.22,3.61-3.88,7.54-6.67,10.83-5.43,6.42-12.76,9.21-20.68,10.52-15.21,2.51-29.62.08-42.92-7.95a57.48,57.48,0,0,1-17.76-17.09c-.38-.55-1-1.18-.53-1.92s1.19-.55,1.92-.53q6.68.12,13.37.14c1.09,0,2.26.27,3.2-.59.42-1.5,1.81-1.81,3-2.37a34.57,34.57,0,0,0,7.12-4.61c8.79-7.41,9.95-16.67,6.8-27a37.45,37.45,0,0,0-3.17-7.56c-5.13-9-12.46-12.3-23.7-10.76-2.56.36-5,1.81-7.68,1.15-4.07,1.11-6.4,4.46-9.27,7.12-.85.79-1.46,2.18-2.92,1.83s-1.18-2-1.56-3c-1.46-4-1.47-8.33-2.62-12.43-2.53-8.94-7.92-14.85-17-17.23-5.43-1.43-12.78,1.61-16.52,7.25-4.21,6.36-6.77,13.52-9.24,20.69a24.53,24.53,0,0,1-1.5,3.63c-1,1.86-2.2,2.21-4.2,1a58.35,58.35,0,0,1-7.39-5.24,10.25,10.25,0,0,0-6.4-2.4c-2.13,1.07-4.4.52-6.57.45-7.76-.25-13.66,3.13-18.33,9-3.33,4.19-6.19,8.76-9.91,12.66a4,4,0,0,0-1.18,2.4c-.79,7.09,1.77,17.9,9.44,22.2A28.93,28.93,0,0,0,346,157.58c1.27-.1,2.63-.63,3.72.54,1.13.27,2.71-.6,3.35.67.55,1.07-.87,2.79-1.4,3.43a65.69,65.69,0,0,1-8.81,9.05C340.47,173.11,337,175.86,332.8,179.53Z" style="fill:#a5a3ae"/><path d="M392.53,152.1a42.83,42.83,0,0,1,7.58.52c4.88.75,5.78,2.87,3,7a21.25,21.25,0,0,1-4.16,4.41c-4.77,4-3.74,10.57,2.1,13.18,7.54,3.36,14.23,1.2,18.2-6a3,3,0,0,1,3.59-1.54c1.66.29,1.53,1.71,1.51,2.89-.08,4.54-5.25,9.82-11,11.25-7,1.74-13.52,0-19.48-3.69-2-1.26-3.09-1.06-4.82.52-7.33,6.72-21,5.2-26.91-2.79a9.41,9.41,0,0,1-1.9-3.77c-.24-1.34-.37-2.73,1.3-3.31,1.5-.51,3-.3,3.66,1.24,2.3,5.22,7,6.06,11.83,6.57,4.44.48,7.87-1.47,10.2-5.29s1.9-6.93-1.87-9.64c-2.45-1.77-4.08-4.23-5.79-6.6-1.35-1.86-.22-3.06,1.56-3.67A32.77,32.77,0,0,1,392.53,152.1Z" style="fill:#280d08"/><path d="M338.09,186.8l1.83,3.73a7.25,7.25,0,0,0,4,3c8.63,3.22,14.58,9,17.29,18.05s5.2,18.24,5.24,27.85a9.78,9.78,0,0,1-2.28,6.71c-2.32,1.32-4.07.06-5.71-1.36-3.41-2.94-5.85-6.66-8.31-10.38-3.85-5.83-8.06-11.36-13.62-15.73a35,35,0,0,0-5.35-3.43c-1.05-.55-2.28-.94-2.72-2.25a25.57,25.57,0,0,0-23.88-1.12c1.13-3.25,4.15-4.62,6.68-6.25A103.45,103.45,0,0,1,336.16,194c2.58-.81,3.06-2,2-4.61-.68-1.77-2.15-2.91-3.15-4.42C336.45,185,337,186.32,338.09,186.8Z" style="fill:#fac339"/><path d="M317.36,253.24c2.48.5,4.45,2.11,6.72,3,1.79,2.1,1.23,3.71-.47,5.8-4.93,6.05-11.61,5.54-18.13,5.06-9.78-.72-17.91-5.16-24.57-12.3-1-1.09-2.47-2.27,0-3.44,8.71,7.71,18.79,8.93,29.69,6.23C313.33,256.94,315.23,254.91,317.36,253.24Z" style="fill:#c3442e"/><path d="M328.47,213c8.88,3.11,14.57,9.94,20,17.09,3.46,4.6,6,9.86,10.38,13.79a6.68,6.68,0,0,0,4.84,2.16,1.33,1.33,0,0,1,1.36.36l1.13.18c-1.76,3.68-5.56,4-9.19.84s-5.4-7.53-7.7-11.54a57.13,57.13,0,0,0-16.05-17.94c-3.87-2.83-8-3.13-12.15-.64C322.91,214.77,325.86,214.14,328.47,213Z" style="fill:#b77e36"/><path d="M365,246.36a1.29,1.29,0,0,1-1.36-.36c3.77-5.3,2.79-11,1.09-16.56s-2.67-11.54-4.16-17.27c-2.48-9.57-8.77-15.19-17.58-18.44-1.78-.66-2.75-1.46-3.09-3.2a23.56,23.56,0,0,0,5.86,3.07,27.8,27.8,0,0,1,14.82,14.06,67.61,67.61,0,0,1,6.12,34C366.61,243.34,366.5,245.12,365,246.36Z" style="fill:#faca4f"/><path d="M506.31,58.7c.64,5-1,10-2.31,15.08-.43,1.63-.78,2.09-2.66,1.35-3.7-1.46-4.62-5.24-7.08-7.7a12.6,12.6,0,0,0-3.38-3c-6.85-3.12-11.85-9-18.61-12.32-2.3-1.13-1-2.76.06-4a64.05,64.05,0,0,1,14.41-12c2.74-1.71,5.38-3.65,8.49-4.7,5.3-1.79,9.42.48,9.74,6C505.38,44.4,506.68,51.3,506.31,58.7Z" style="fill:#d6d0ca"/><path d="M327.61,36.12a36.77,36.77,0,0,1,4.93,1.43,73.35,73.35,0,0,1,20.7,14.2c2.47,2.32,2.32,2.64-.53,4.4-9.57,5.93-18.83,12.28-26.59,20.54-1,1.11-1.95,2.34-3,3.46-.46.51-.94,1.19-1.77.92s-.88-1-.93-1.75c-.91-11.63-1.34-23.25.61-34.82a15.17,15.17,0,0,1,2.14-6A5,5,0,0,1,327.61,36.12Z" style="fill:#d6d0ca"/><path d="M423.27,114.92a28.86,28.86,0,0,1,37.15-10.41,28.06,28.06,0,0,1,14.41,31.54,28.42,28.42,0,0,1-27.25,21.53,34,34,0,0,1-12.74-2.49c-15.38-6.59-20.22-25.84-12.33-38.55A15,15,0,0,0,423.27,114.92Z" style="fill:#efebe2"/><path d="M355.6,157c-16.87,8.61-37.66-3.53-39.25-22.33-1.27-14.87,10.86-31.25,28.25-30.08,10,.68,17.26,5.79,22.55,14,3.94,8.07,5,16.28,1.2,24.73A27.58,27.58,0,0,1,355.6,157Z" style="fill:#efebe2"/><path d="M424.47,132.47c-.38-10.74,7.77-19.82,18.14-20.18,10.61-.37,19.33,7.49,19.71,17.78a19.15,19.15,0,0,1-18.53,20.11C433.34,150.44,424.34,143,424.47,132.47Z" style="fill:#2a0c01"/><path d="M347.21,152.08a18.3,18.3,0,0,1-18.28-18.46,18.62,18.62,0,0,1,18.87-18.91,18.16,18.16,0,0,1,17.82,18.86C365.36,143.89,357.65,152.23,347.21,152.08Z" style="fill:#2a0c02"/><path d="M455.65,123.66a5.23,5.23,0,0,1-5,5.11,4.94,4.94,0,0,1-5.16-4.88,5.09,5.09,0,0,1,10.18-.23Z" style="fill:#f3e5dd"/><path d="M354.57,131.33a5.08,5.08,0,0,1-5.13-4.89,5.2,5.2,0,1,1,5.13,4.89Z" style="fill:#f4e9e0"/><path d="M295.23,367a15.89,15.89,0,0,1-1.29-7.16,11.89,11.89,0,0,1,1.43-5.46c1.09-1.93,2.48-2.93,4.5-4.38a30,30,0,0,1,7.44-3.79c1.53-.57,2.83-1,3.77-1.21l.08,0c1.16-.63,3.12-1.74,5.43-3.31a62.31,62.31,0,0,0,6.87-5.43c9.25-8.34,16-14.39,24-17.93,2.94-1.29,13.41-5.51,25.72-2.61a37.71,37.71,0,0,1,13.32,6.17c7,5,9.44,12.56,10.83,20.6.62,13.87-6.95,23.09-17.61,30.33a59.19,59.19,0,0,1-14.4,7.09c-15.73,5.51-31.6,6.51-47.69,1.67-7-2.1-12.92-6-18.48-10.54-.33-.26-.9-2.23-2.74-3.42A6.84,6.84,0,0,0,295.23,367Z" style="fill:#f9af15"/><path d="M362.83,320.78c3.48.23,8.37-.77,8.62,4.18.24,4.78-5,3.5-7.73,3.89-4.29.6-8.5,1.43-12.72,2.34-1.83.39-4,.52-4.95-1.72-.83-2,.88-3.27,2.19-4.29A20.48,20.48,0,0,1,362.83,320.78Z" style="fill:#fcd462"/><path d="M342.37,334.63c-.32,2.46-2.16,3.42-4.29,3.71-1.91.26-2.9-1.07-2.83-2.87a3.92,3.92,0,0,1,3.87-4.07C341.21,331.23,342.28,332.47,342.37,334.63Z" style="fill:#fcd254"/><path d="M398.62,339.89l-3.21.88c-1.12-3-2-6-.3-9,3.18-1.1,3.74,1.52,4.77,3.41S400.85,338.78,398.62,339.89Z" style="fill:#592c14"/><path d="M300.81,377.34a37.49,37.49,0,0,1-3.21-5,39.08,39.08,0,0,1-3.08-7.39,59.09,59.09,0,0,0,11.57,9.21,58.22,58.22,0,0,0,24,8.27c12,1.25,23.86-.44,35.4-4.05,1.89,4.81,3.39,9.77,5.3,14.58-6.34,4.56-13.93,4.53-21.05,4.66-16.44.31-31.7-4-44.74-14.6C303.11,381.51,301.16,380,300.81,377.34Z" style="fill:#ce5e26"/><path d="M370.77,392.12c-3-1.44-6-9.11-5.26-13.7,8-3.82,16.07-7.43,22-14.36,5.22-6.09,8.84-12.82,8.42-21.15l1-3.2c1.17-1,1.82-1.48,1.95-1.37s-.18.69-.9,1.73a27,27,0,0,1,3.71,16.3,40.41,40.41,0,0,1-.42,4.31,41.31,41.31,0,0,1-5.33,14.79c-2.47,7.51-15.73,17.46-23.31,17.48A2.45,2.45,0,0,1,370.77,392.12Z" style="fill:#c2392b"/></g></g></svg>