<svg xmlns="http://www.w3.org/2000/svg" viewBox="0 0 196.36 158.01"><defs><style>.cls-1{fill:#260b01;}</style></defs><g id="Capa_2" data-name="Capa 2"><g id="CARGANDO"><g id="Cargando-2" data-name="Cargando"><path class="cls-1" d="M166.43,75.43c-.23,36-29.55,65.15-65.32,64.89-36-.26-65.14-29.64-64.85-65.4.3-36,29.66-65,65.48-64.68C137.8,10.61,166.66,39.69,166.43,75.43Zm-65-49.55a49.32,49.32,0,0,0-.21,98.64c27.26.12,49.68-22.16,49.6-49.3A49.62,49.62,0,0,0,101.4,25.88Z"/><path class="cls-1" d="M34.39,47a17.35,17.35,0,0,1-5.92,16.3A29.59,29.59,0,0,1,26,65.17c-3.5,2.42-4.73,5.8-4.42,10q2,26.78,3.92,53.56c.38,5.36.54,10.73.75,16.1.16,4-.61,7.65-3.47,10.62-3.34,3.45-8,3.37-11.25-.18a12.86,12.86,0,0,1-3.3-9.66c.69-14,1.37-27.94,2.26-41.89.63-9.69,1.58-19.37,2.41-29.05a9.59,9.59,0,0,0-4.43-9.44c-6.77-4.48-9-10.76-8.37-18.7,1-11.9,1.47-23.83,2.33-35.74A4.84,4.84,0,0,1,4.36,7.32c1.93-1.14,3.94.52,3.85,3.09C8,16,7.7,21.65,7.43,27.27q-.36,7.15-.71,14.31c-.09,2,.46,3.6,2.64,4.06s3.8-1.08,3.88-3.84c.2-6.39.35-12.79.52-19.18.11-3.84.22-7.67.37-11.51C14.25,8.24,15.21,7,17.25,7s3.16,1.46,3.22,4.32c.21,9.3.4,18.59.62,27.88a30.45,30.45,0,0,0,.26,3.57,3,3,0,0,0,3.26,2.91,3,3,0,0,0,3.16-3.3c0-2.64-.18-5.28-.31-7.92Q26.89,22.71,26.29,11c-.1-2,.3-3.65,2.65-3.92,1.93-.23,3.07,1.1,3.23,3.71C32.9,22.58,33.62,34.41,34.39,47Z"/><path class="cls-1" d="M182.33,81c-1.32-.15-2.43-.2-3.5-.42-2.73-.56-4.78-2.54-4.75-5.28.17-13.55-.1-27.14,1-40.62,1-12.09,6.12-23,13.27-32.78C188.92,1,190.12.61,191.05,0c.46,1.08,1.31,2.15,1.31,3.23.08,24.13-.18,48.27.17,72.4.17,11.92,1.47,23.82,2.17,35.73.66,11.4,1.38,22.81,1.66,34.23A16.56,16.56,0,0,1,194,154c-3.19,5.37-10,5.34-13.16,0a15.85,15.85,0,0,1-2.23-7.93c.16-9.89.69-19.77,1.28-29.64C180.59,104.66,181.49,92.94,182.33,81Z"/><path class="cls-1" d="M101.34,111.42a36.17,36.17,0,1,1,36.17-36.16A36.28,36.28,0,0,1,101.34,111.42Z"/></g></g></g></svg>