<svg xmlns="http://www.w3.org/2000/svg" viewBox="0 0 193.95 240.75"><g id="Capa_2" data-name="Capa 2"><g id="NewIcons"><path d="M194,76c-1.51,4.86-3.15,11-5.33,16.88a21.66,21.66,0,0,0,0,16c1.68,4.34,3,8.82,4.32,13.29q3.23,11.05-6,18.09c-4.1,3.14-8.68,5.73-12.4,9.25a35.65,35.65,0,0,0-7.41,10.22c-2.15,4.46-3.22,9.43-4.85,14.14-2.76,8-7.72,11.64-16,11.71-26.42.25-18.17-2.11-39.21,12.77-6.86,4.85-13.49,4.81-20.34-.06-20.93-14.92-12.91-12.44-39.23-12.71-8-.08-13.12-3.71-15.78-11.32-8.93-25.55-2.87-17.68-24.84-34.09C.7,135.64-1.31,129.47,1,122.11,9,96.38,9,105.74,1,80c-2.36-7.61-.69-14.39,6.2-18.33C20.69,54,28.42,42.82,31.81,27.81c1.78-7.89,7.5-11.33,15.51-11.51h1C73.44,16.07,65.93,18.41,86.21,4c7.48-5.3,13.79-5.4,21.13-.21C128,18.42,120.28,16.05,145.67,16.29c8.94.09,13.84,3.63,16.74,12.11,8.46,24.7,3,17.19,24.06,32.84C191.09,64.67,193.57,69,194,76ZM97,161.52a60.53,60.53,0,1,0-60.68-60.24A60.51,60.51,0,0,0,97,161.52Z" style="fill:#260b01"/><path d="M25.88,180.84c6.2,10,14.74,13.22,25.18,12.66a85.52,85.52,0,0,1,12,.05c2.64.23,5.21,1.32,8.6,2.24-3.72,6.49-6.9,12.07-10.11,17.63-4.65,8.07-9.24,16.17-14.05,24.15-.81,1.35-2.59,2.12-3.92,3.15-.88-1.29-2.12-2.48-2.57-3.91-1.84-5.86-3.73-11.74-5-17.74-1-4.68-3.37-5.37-7.52-4.15C22.69,216.61,16.86,218,11,219.3c-1.62.35-3.44-.21-5.16-.36.29-1.65.16-3.54.94-4.92C12.91,203.18,19.19,192.43,25.88,180.84Z" style="fill:#260b01"/><path d="M122.24,196c3.21-1,5.73-2.13,8.35-2.39a72,72,0,0,1,11.47-.06c10.71.65,19.64-2.45,25.91-12.63,6.93,12,13.49,23.32,19.93,34.69.48.84.55,2.84.1,3.1a6.06,6.06,0,0,1-4,.83c-6.33-1.4-12.64-2.89-18.87-4.67-4-1.16-6.14-.23-7.14,4.08-1.43,6.14-3.28,12.19-5.18,18.21-.44,1.37-1.84,2.43-2.8,3.64-1.2-1-2.81-1.71-3.55-3C138.54,224.31,130.78,210.75,122.24,196Z" style="fill:#260b01"/><path d="M74.88,125.8c.57-3.17,1.13-7,1.94-10.69.85-3.92.14-7.08-3.15-9.74A49.85,49.85,0,0,1,66.21,98C65,96.53,64,94.09,64.33,92.41c.3-1.32,2.76-2.56,4.49-3.06a31.76,31.76,0,0,1,8.84-1.41c5.92,0,9.09-3,11-8.23a31.07,31.07,0,0,1,3.54-7.14c1.14-1.61,3.15-3.86,4.57-3.72,1.81.18,3.85,2.18,5,3.92a56.36,56.36,0,0,1,4.69,9.35c1.44,3.42,3.64,5.22,7.5,5.47a85,85,0,0,1,11.83,1.81c4.52,1,5.65,4.67,2.5,8.12a82.86,82.86,0,0,1-8.22,8c-3.12,2.57-3.87,5.54-3,9.3.78,3.57,1.47,7.18,1.89,10.81.62,5.28-2.48,7.52-7.27,5.44a5.55,5.55,0,0,1-1.32-.7c-9-7.37-17.76-6.59-27,0C78.41,133.81,74.7,131.63,74.88,125.8Z" style="fill:#260b01"/></g></g></svg>