<svg xmlns="http://www.w3.org/2000/svg" viewBox="0 0 33.93 33.93"><g id="Capa_2" data-name="Capa 2"><g id="HOME"><g id="Back_Home" data-name="Back Home"><path d="M24.85,19.91a10.73,10.73,0,0,1,.27-1.65,3.35,3.35,0,0,1,2.57-2.41,1,1,0,0,1,1.31.69,1.05,1.05,0,0,1-.72,1.31c-1.13.42-1.37.81-1.21,2,.28-.05.55-.11.82-.14a4.5,4.5,0,0,1,4.21,1.74,8.72,8.72,0,0,1,.19,10.42,4.51,4.51,0,0,1-6,1.38.73.73,0,0,0-.58,0,4.45,4.45,0,0,1-5.78-1.1A8.65,8.65,0,0,1,20,21.32,4.51,4.51,0,0,1,24.85,19.91Z" style="fill:#260b01"/><path d="M16.13,28.25a10.22,10.22,0,0,0,2.53,5.61,4.55,4.55,0,0,1-.55.06H2A1.77,1.77,0,0,1,.25,31.21c.41-.87.83-1.75,1.28-2.61a.83.83,0,0,1,.57-.4c4.61,0,9.22,0,13.84,0A1.62,1.62,0,0,1,16.13,28.25Z" style="fill:#260b01"/><path d="M5.9,19.62c.71-1.46,1.39-2.87,2.1-4.26a.6.6,0,0,1,.46-.27q8,0,16.09,0s0,0,0,0c-.45.79-.89,1.59-1.36,2.37a.72.72,0,0,1-.49.24,6.83,6.83,0,0,0-3.66,1.71,1.14,1.14,0,0,1-.69.28c-4,0-8,0-12,0A2.54,2.54,0,0,1,5.9,19.62Z" style="fill:#260b01"/><path d="M9.17,13c.71-1.45,1.37-2.82,2.06-4.16a.67.67,0,0,1,.52-.28c3.24,0,6.49,0,9.73,0a.6.6,0,0,1,.47.24c.7,1.37,1.37,2.75,2.07,4.2Z" style="fill:#260b01"/><path d="M17.06,21.82l-1.13,4.24H2.74c.68-1.39,1.33-2.73,2-4.06a.57.57,0,0,1,.42-.21H17S17.09,21.83,17.06,21.82Z" style="fill:#260b01"/><path d="M20.77,6.39H12.4l.9-1.88c.56-1.12,1.11-2.25,1.66-3.38a1.75,1.75,0,0,1,3.27,0L20.61,6A2.75,2.75,0,0,1,20.77,6.39Z" style="fill:#260b01"/></g></g></g></svg>