<svg xmlns="http://www.w3.org/2000/svg" viewBox="0 0 75.39 75.43"><g id="Capa_2" data-name="Capa 2"><g id="START10"><g id="Start10-2" data-name="Start10"><path d="M57.83,70H38.27c.24-.47.43-.88.65-1.28A32.44,32.44,0,0,0,43,53.39c.09-5.48-2.14-9.74-6.87-12.47s-9.36-2.43-13.94.37c-.2.13-.41.22-.74.4l-.39-3.86c4.12.54,6.52-1.51,8-4.92.95-2.15.35-3.43-1.93-4.13a9.29,9.29,0,0,0-8.07,1c-.19-.31-.28-.67-.49-.77-.56-.25-1.34-.7-1.71-.49a1.87,1.87,0,0,0-.6,1.67c.48,2,1.25,3.91,1.71,5.91.4,1.71.53,3.47.76,5.11l-8-2.6a2.23,2.23,0,0,1-.07-.52c0-4.9,0-9.81,0-14.72,0-1.35.31-1.92,1.9-1.91,14.08.07,28.17,0,42.25,0h1.62v2.93q0,19.21,0,38.42C56.54,65.28,56.24,67.71,57.83,70Z" style="fill:#fcfcfc"/><path d="M40.39,53.43c-.31,6.37-2,12.21-5.93,17.27C33,72.63,31.23,74.38,28.83,75a7.27,7.27,0,0,1-4-.07,13,13,0,0,0-9.34.07c-2.17.87-4.14.27-6-.92a17.19,17.19,0,0,1-5.39-5.95A29.19,29.19,0,0,1,0,52.73a10.54,10.54,0,0,1,6.7-10c4.19-1.83,8.05-1,11.45,2,1.48,1.31,2.54,1.39,3.85.19,3.54-3.26,7.57-4.14,11.93-2.1S40.4,48.61,40.39,53.43ZM2.66,52.72c0,.72,0,1.67,1.22,1.79s1.4-.71,1.47-1.71a5.66,5.66,0,0,1,4.72-5.58c1-.23,1.72-.6,1.45-1.73s-1.13-1.07-2-.91A8.57,8.57,0,0,0,2.66,52.72Z" style="fill:#fcfcfc"/><path d="M67.32,10.26c2.36,3.1,4.76,6,6.87,9.14a7.9,7.9,0,0,1,1.14,4.17c.09,14,.06,28.07,0,42.1a17.89,17.89,0,0,1-.27,2.11c-2.23-2.2-4.27-4.16-6.22-6.21-.29-.31-.25-1-.25-1.53q0-20.46,0-40.93c0-.34,0-.68,0-1,0-1-.18-1.86-1.37-1.83S66,17.19,66,18.15c0,13.79,0,27.58,0,41.37a4.05,4.05,0,0,1-1.41,3.31C63,64.35,61.44,66,59.55,68a18.81,18.81,0,0,1-.34-2.41c0-14-.05-28,0-41.95a8.75,8.75,0,0,1,1.37-4.54C62.65,16.05,65,13.27,67.32,10.26Z" style="fill:#fcfcfc"/><path d="M64.53,9.45l-1.49,2a36.94,36.94,0,0,0-3.73,4.91c-1.26,2.39-3.08,2.63-5.47,2.62-13.25-.11-26.5-.05-39.74-.05H12.29c.35-.52.55-.88.8-1.21a57,57,0,0,0,4.11-5.37c1.45-2.4,3.34-3,6.05-2.92,13.14.15,26.29.06,39.44.06Z" style="fill:#fcfcfc"/><path d="M36.33.14v2c0,1,.22,1.88,1.38,1.85s1.34-1,1.33-1.91c0-.64,0-1.27,0-2h8.07V2.51c0,.93.5,1.65,1.39,1.47.5-.1,1-.89,1.22-1.47A9,9,0,0,0,49.77.12h8.14A9.08,9.08,0,0,0,58,2.51c.16.58.71,1.37,1.21,1.47.9.2,1.37-.56,1.41-1.46s0-1.55,0-2.47a30,30,0,0,1,4,.06A1.88,1.88,0,0,1,65.89,1.4C66,3.13,66,4.89,66,6.72H20.22c0-1.85-.09-3.65.07-5.43,0-.45.82-1.12,1.33-1.19a28.68,28.68,0,0,1,4-.06,9.65,9.65,0,0,0,.05,2.54c.17.57.83,1,1.28,1.49.44-.5,1.09-.93,1.27-1.5a8.83,8.83,0,0,0,0-2.43Z" style="fill:#fcfcfc"/><path d="M67.4,64.49l5.39,5.36H62Z" style="fill:#fcfcfc"/><path d="M26.77,31.5c-1.26,3-2.83,4.07-5,3.66-.85-.16-1.59-.5-1.49-1.46a2.73,2.73,0,0,1,.78-1.8A5.9,5.9,0,0,1,26.77,31.5Z" style="fill:#fcfcfc"/></g></g></g></svg>