<svg xmlns="http://www.w3.org/2000/svg" viewBox="0 0 798.41 767.34"><g id="Capa_2" data-name="Capa 2"><g id="AJUSTES"><path d="M168.47,419.33c-.45-9.27-2.83-18.27-4-27.43-1.58-12.62-.13-24.44,9.36-34a23.86,23.86,0,0,1,32.63-1.24A36.56,36.56,0,0,1,218.39,376c.8,3,1.55,6.07,2.32,9.11,3.81,3.93,3.38,9.09,3.55,13.85.4,11.14.79,22.35-2.61,31.85-.25,2.12,1,1.46.26,1.51-.37,0-.55-.1-.49-.33,2.2-8.17,2.74-16.66,4.64-24.86,1.5-6.5,3.64-13.08,11.46-15,9.49-7.37,19.59-13.08,32-13.85,6.1-.37,11.78.88,17.46,2.49a8.11,8.11,0,0,0,7.74-1.3c9.82-7.33,20-14.15,31.17-19.26,2.43-1.11,3.42-2.72,3.83-5.38,4.92-32,42.51-48.31,69.44-30.1,3,2,5.3,2.33,8.55.77,15-7.16,25-17.94,27.71-35.05,2.18-13.75,3-27.83,9.31-40.79A83.6,83.6,0,0,1,461,226.49c3.1-3.07,4.51-6.08,2.62-10.48-2.05-4.77-2.28-9.95-2.18-15.13.17-8.11,5.65-13.13,13.71-12.34,2.16.21,4.5.26,6.38,1.17,9.35,4.54,18.34,3.23,28,.28,14.56-4.46,29.6-6.75,45.53-4.24-.94-3.36-1.9-6.07-2.42-8.86-1.15-6,.28-7.35,6.06-5.72A54.91,54.91,0,0,1,578.88,182c3.06,2.55,4.51,2.73,6.34-1.25,2.7-5.89,4.65-6.13,9.87-2.37,4.21,3,7.4,7,10.76,10.9a34.11,34.11,0,0,1,7.08,7.8c6,9.28,14.55,16.11,22.67,23.22a92.75,92.75,0,0,1,26.31,38.75c2.24,6.14,5.51,10.61,11.72,13.14a30.81,30.81,0,0,1,11.61,9c7.08,8.35,5.83,18.22-3.15,24.57a29.78,29.78,0,0,1-10.75,4.86c-5.63,1.24-8,4.7-9.16,10.08A168.44,168.44,0,0,1,654,347.94c-7.57,18.46-19.82,34.08-30.24,50.81q-8.25,13.28-16,26.87c-21.28,37.33-51.72,66-85.78,91.2A414.91,414.91,0,0,1,462.1,554a315.59,315.59,0,0,1-72.7,26.34c-24.79,5.61-49.61,6.28-74.69,6A86.92,86.92,0,0,0,293,589c-7.47,1.83-15.1,2.16-22.63,3.33-19.31,4.75-38.91,7.78-58.64,10.14-16,1.92-28.33,1.16-38.55.75A328,328,0,0,1,121.41,597a221.94,221.94,0,0,1-57-22.91c-26-14.68-47.88-33.43-61-60.93C1.86,510,.28,506.75,0,503.14c-.35-5.07,2.14-7.52,7.17-6.71a48.69,48.69,0,0,1,15,5.38c21.2,11.3,43.25,20.54,67,24.63,38.77,6.69,75.49,1.39,108.92-20.67a50.69,50.69,0,0,1,6.24-7c2.26-1.9,2.41-4.38,1.56-7s-2.78-3.66-5.42-3.68c-1.37,0-2.75-.07-4.12-.18a27.72,27.72,0,0,1-24.11-20.15c-3-11.46-3.2-23.23-3.67-35C168.41,428.29,167.54,423.82,168.47,419.33Z" style="fill:#270d00"/><path d="M458,576.94c13.36-4.85,25.81-11.74,38.11-18.64a399.76,399.76,0,0,0,95.25-74.22,387.15,387.15,0,0,0,45.75-59.54l5.53-7.28q-1.2,4.29-2.68,8.68a177.45,177.45,0,0,1-34.89,59.74c-32.7,40.78-75.22,67.8-122.88,87.52-11.25,4.65-23,8-36,11C450.11,580.11,454.67,579.5,458,576.94Z" style="fill:#74d2fe"/><path d="M521.1,576.8C476.87,622,393.48,636.38,332,614.23,398.36,618.72,462.48,611.81,521.1,576.8Z" style="fill:#74d2fe"/><path d="M175.38,630.44a332.71,332.71,0,0,0,43.45,0c-32,21.43-121.55,6.14-156-27.42l34.77,12.86A333.44,333.44,0,0,0,175.38,630.44Z" style="fill:#74d2fe"/><path d="M638.37,484.65c-4.68,2.34-8.2,6.69-15.17,8.41,7.11-8.31,12.82-15.76,17.15-21.72,6.19-8.5,10.66-14.64,15.61-23.66,4.57-8.34,7.17-14.8,11-24.41,3.08-7.64,6.4-16.64,9.64-26.87a73.48,73.48,0,0,1-.94,27C670.61,448.31,657.87,468.52,638.37,484.65Z" style="fill:#74d2fe"/><path d="M428.51,490.37c-8.43-26.57-40.63-40.1-65-27.37-4.78,2.49-8.16,5.92-9.91,11.15A134.84,134.84,0,0,1,336,508.23a21.59,21.59,0,0,1-4.17,4.61c3.62-10.69,9-20.58,11.86-31.44,4.14-15.95,7.47-31.84,1.33-48.27-3.47-9.3-9.8-14.46-19.13-15.25-9.9-.83-18.89,2-24.67,11A71.06,71.06,0,0,0,292,449.94a507.83,507.83,0,0,1-17.24,53.49c-2.52,6.68-4.67,13.41-4.25,20.71.68,12,6.84,19.94,18.24,23.52,1.28.41,2.54.89,4.88,1.72-10.33,3-18.56,1-26-4.81-1.76-1.36-2.94-2.74-5.61-1.36-20.82,10.78-43.43,15.63-66.41,18.36-36.16,4.31-71.36,1-104.26-16.29-5.37-2.82-10.18-6.46-16.15-11.14,8.5,1.2,15.45,2.2,22.42,3.17,39.11,5.43,75.39-2.14,108.66-23.64,10.6-6.84,18.42-15.52,22.77-27.77,7-19.72,15.4-38.87,27.35-56.29,8.37-12.18,18.76-22.43,29.89-31.88,16.2-13.76,34.46-24.39,54-32.78,8.68-3.73,11.14-3.18,17.77,3.7,5.37,5.57,12.17,8.73,19.13,11.47,5.6,2.2,7.49.4,7.43-5.79-.05-4.65-2.23-8.71-3.58-13.63,5,3.07,5.88,7.87,7.3,12.38,1.29,4.08,1.91,8.55,8.48,7.08,5.93-1.33,6.77-5.26,6.84-10,.08-5.36-1.71-10.37-4-16.36,6.6,4.58,6.2,11.57,9,16.85,7.26-6.17,9-18.82,3.1-29.26-2.9-5.11-1.61-6.29,3.14-8.59,16.26-7.87,27.88-19.42,30.26-38.7,1.38-11.11,4.15-22.06,13.66-30,11.66-9.69,25.58-11.55,39.2-9.21,36.24,6.24,70.05,19,98.3,43.54,16.7,14.48,21.81,34.4,13.89,52.22-5.72,12.84-15.77,21.73-28.28,27.47a407.9,407.9,0,0,1-39.12,15.29c-6.48,2.2-12.17,1.23-18.1-2.1-14.28-8-28.71-15.82-44.69-20.14A69.88,69.88,0,0,0,437,372.83c-7.39,2.69-13.73,8.41-16.37,15.08,2.69-.89,5-1.76,7.37-2.42a12.92,12.92,0,0,1,7.34-.36c-1.3,2.31-3.67,2-5.5,2.59-7.41,2.46-12.55,8.47-12.07,14.23.46,5.59,2.25,6.59,7.25,4,9.61-4.89,9.61-4.89,18-3.69-4.73,1.75-8.4,2.8-11.81,4.42-7.3,3.48-7.44,6.61-.95,11.19s14.09,5.29,21.48,5.67c11.15.58,20.07,4.68,27.57,12.91,10.14,11.13,21.21,21.15,36.21,25.65-17.37.51-30.68-7.27-41.21-20.13-3.22-3.94-5.35-4.57-9.12-1-11.26,10.79-24.93,17.88-38.88,24.43-2.64,1.24-2.93,2.51-1.8,5,2.15,4.82,5.21,9.36,5.31,14.92C429.9,487.23,431.55,489.39,428.51,490.37Z" style="fill:#ebe4da"/><path d="M592.74,276.32c1.61-5.62,5.63-7.88,10.79-8.56,10.11-1.34,18.71,4.95,19.66,14.35.19,1.83,1.09,4.29-1.59,5-2.19.59-3-1.45-3.76-3a18.68,18.68,0,0,0-7.2-7.65A12.92,12.92,0,0,0,599.86,275C597.69,275.62,595.66,277.17,592.74,276.32Z" style="fill:#efe2d6"/><path d="M501.54,232.11c-1.16.26-3.47.68-5.71,1.31-1.21.35-2.34.78-3-.59s.37-2.17,1.18-3c4.37-4.49,12.07-5.69,18.7-2.94,5.29,2.19,8.46,7.64,8.29,14.25,0,.92.42,2-.73,2.57s-1.83-.42-2.46-1.09a39.53,39.53,0,0,1-3.38-4.06C511.11,233.88,508,232.13,501.54,232.11Z" style="fill:#f0e5d8"/><path d="M428.51,490.37c1.68-1.32.54-3.36,1.25-4.93,1.46,3.52,1,7.15.11,10.94C429.42,494.37,429,492.37,428.51,490.37Z" style="fill:#c4aea1"/><path d="M539.52,297c9.57,18.05,24.91,24.51,42.64,18.86,1.68-.54,3.81-2.55,5,.33,1,2.44-.83,4-2.71,5.29-8,5.5-17,5.47-25.66,3.48-10.89-2.49-20-8.37-25.79-18.37-1.46-2.53-2.73-3.33-6-2.85-10.5,1.53-20.86,1.25-30.25-4.95a26.61,26.61,0,0,1-12-18.19c-.46-2.56-.2-5.48,3-6.24s3.71,2,4.43,4.27c3,9.41,10.72,15.06,21.92,16,1.18.1,2.37.09,3.56.1,9.46.07,9.43.08,5.12-7.76a30.11,30.11,0,0,1-2.16-4.86c-2.56-7.52.35-11.74,8.23-11.28,10.37.61,19.57,4.72,27.51,11.2,6.14,5,5,10.58-2.3,13.41a27.31,27.31,0,0,1-6.9,1.48A77.2,77.2,0,0,1,539.52,297Z" style="fill:#280e03"/><path d="M162.77,234.92c-.83,7.22-1.63,13.19-2.2,17.26l.62.29,2.37-3.73c2-1.49,3.13-3.86,5.08-5.41,1.06-.85,2.26-1.66,3.62-.87,1.6.93,1.32,2.51,1,4a9.69,9.69,0,0,1-2.26,3.83,6,6,0,0,0-1.62,3.48c-.57,5.73-.73,5.78-6.24,5.46-.1,1.93,1.19,3.38,1.7,5.09.92,3.07.69,5.67-2.65,7-2.11.83-2.47,2.42-2.57,4.35-.56,11.3-4.46,22.05-5.46,33.3-.37,4.07-3.16,7.59-3.62,11.74,0,.64,0,1.29,0,1.93.47,4.78-1.44,9.06-3,13.36-.75,2.09-2.19,2.84-4.93,2.88-11.14.15-10.78-10-15-15.95a477.31,477.31,0,0,1-40.33-50.68c-1.06-1.56-2-3.63-4.51-3.39-5.87-8.09-11.68-16.22-16.06-25.25,1.35-.21,3.39-.5,5.88-.7,9.54-.78,20-1.62,27.9,4,2.19,1.54,6.21,5,8.9,12.16,2.3,0,3.18,1.73,3.74,3.44,2.63,8,6.83,15.2,10.9,22.41,5.1,9,7.79,19,12,26.47-5-25.25-4.87-52.78-7.75-80,.79-7.15,1.46-14.55,1.95-22.18a486.93,486.93,0,0,0,.41-55.27c2.58-18,4.55-32.45,5.8-41.77,0,0,4.5-46.77,14.42-86.49,1.82-7.25,4.33-14.32,6.55-21.47A6.38,6.38,0,0,1,159.87,0c2.38,6.11,2.68,12.41,3.45,18.5,2.33,18.64,3.86,37.36,4.37,56.16,1,37.1.14,66,.06,70.35C166.75,197.18,164.29,221.69,162.77,234.92Z" style="fill:#5ea575"/><path d="M129.6,231.71c1.71,12.06,2,18,2.73,24.62,3.32,30.22,2.5,40.44,7.08,62.09.09.43-.21.93-.61,2.54-3-5.78-6.21-10.52-8.05-15.74-4.12-11.63-10.14-22.27-16-33C112.39,268,112,263,109.26,259a855.29,855.29,0,0,1-18.11-96c-3.25-26-4.85-52-3.3-78.17a11.45,11.45,0,0,1,1.49-5.69c2.2,2.58,3.16,5.56,4.27,8.39,11,27.91,18.52,56.88,25,86.11,0,0,4.72,20.75,8.81,44.36C128.32,223.14,129,227.28,129.6,231.71Z" style="fill:#518f66"/><path d="M163,696.9a100.53,100.53,0,0,1,40.36-1.23,92.73,92.73,0,0,1,13.49,3.52,34.19,34.19,0,0,1,19,16.09C240.48,731,235,738.54,222.69,748c-13.6,10.44-30.08,13.4-46.85,15-11.39,1.08-18.71-7.18-17.2-17.32a4.54,4.54,0,0,0-1.45-3.64c-1.44-1.14-3.59-.61-4.29-.45-4.59,1-25.2,4.24-32.15-3.14a9.54,9.54,0,0,1-2.29-4.17c-.62-2.63,0-9.91,8-18.68C137.8,703,153.49,699.19,163,696.9Z" style="fill:#9fdb6f"/><path d="M150.49,320.69q2.1-14.55,4.76-29.73c2.55-14.59,5.35-28.67,8.31-42.22a361.53,361.53,0,0,1,17.52-43.28A284.31,284.31,0,0,1,205,164.31c1.18,3.54.6,5.87.18,8.19-4.35,24.16-12,47.39-20.13,70.46q-10.33,29.18-23.37,57.28C158.36,307.32,154.2,313.87,150.49,320.69Z" style="fill:#538e67"/><path d="M66.59,243.59c3.3,1.21,4.21,4.57,6,7,3.36,4.51,6.14,9.44,9.39,14,1,1.47.68,2.77.63,4.21-5.25,11.45-7.84,23.58-9,36.09-.54-.1-1-.05-1.09-.22C65,292.22,59.24,279,57.77,264.35,56.94,256,58.64,248.37,66.59,243.59Z" style="fill:#347145"/><path d="M127.49,322.91c4.37,3.28,6.64,8,9.17,12.68.46.85,1.08,5.11,3.05.65.36-.83,1.08-.64,1.59-.17,4.73,4.39,4.33-.63,5.13-2.91,1.25-3.55,1.58-7.45,4-10.54,1.84,2.1,4.76,2.37,6.82,3.83,3.44,2.43,7.55,5.14,7.12,10.13s-4.33,8.55-8.56,10.29c-11.67,4.77-23.35,4.74-34.26-2.54-5.79-3.86-6.09-10.37-1.09-15.11C122.78,327.05,125.93,325.85,127.49,322.91Z" style="fill:#69bde3"/><path d="M133.56,147.77a36.19,36.19,0,0,1-2,6l-1.13.9a4.44,4.44,0,0,1-4.37,2.53,4,4,0,0,1-2.39-1.33c-5.11-1.93-7.52-5.72-7.71-11.08-.14-4.05-.37-6.19-.43-9.95a130.55,130.55,0,0,0-1.13-14.28c-.53-4.3-.9-5.78-1.21-9.9-.22-3.05-.26-5.57-.26-7.25.6.76,1.5,1.89,2.63,3.24,1.31,1.56,2.42,2.6,2.76,3.18a19.71,19.71,0,0,0,6,6.93c.88-1.63.94-3.94,3.27-4.36,1.91-.35,3.58-.19,4.89,1.41,0,1,.12,3,.28,5.58C133.68,134.17,135.57,139.47,133.56,147.77Z" style="fill:#874e1d"/><path d="M166.93,183.64a5,5,0,0,1-.78-.67,5.55,5.55,0,0,1-1.29-3.74c-.21-7,3.18-22.52,3.18-22.52a91.62,91.62,0,0,0,1.78-11.88c4.72.43,9.19,2.37,14,2.41.7,0,1,.73.85,1.49-1.62,9.19-3.44,18.36-4.8,27.58-.7,4.72-2.51,8.11-7.24,9.52a4.27,4.27,0,0,1-3.25.17A4.35,4.35,0,0,1,166.93,183.64Z" style="fill:#864e1e"/><path d="M123.65,155.83a12,12,0,0,0,6.76-1.2c1.49,5.64.17,11.48,1.2,17.15.18,1-.81,2.39.81,3-.79,18.22-.29,36.48-1.89,54.67a8.07,8.07,0,0,1-.93,2.23q-1.08-6.86-2.17-13.71c1.66-1.65,1.2-3.75,1-5.67Q126.12,184.07,123.65,155.83Z" style="fill:#869696"/><path d="M132.44,113.77c-2.44.57-7.65-2.13-5.12,4.36a1.72,1.72,0,0,1-1.12,2,2.08,2.08,0,0,1-2.58-.92c-2.32-3-6.55-4.53-6.91-9.2-.09-1.15-1.86-2.17-2.86-3.25-2.43-4.68.23-7.5,3.67-10l0,0c3.32-1,6.64-1.57,9.92.17C134.18,101,132.5,107.63,132.44,113.77Z" style="fill:#94663d"/><path d="M158.71,749.88a21.83,21.83,0,0,1-.07-4.22c.11,2.22.69,8.48,5.38,12.29,3.6,2.92,7.95,3.14,12,2.91,16.76-1,32.63-5.46,46.49-15.16,10.39-7.27,15.5-17.38,13.26-30.42,5,7.37,3.72,18-2.84,25.67-7.09,8.32-14.59,12.92-23.26,17.35-2.33,1.19-15.5,7.8-29.32,8.92a20.83,20.83,0,0,1-10.28-1.37,18.87,18.87,0,0,1-8.23-6.72A19.8,19.8,0,0,1,158.71,749.88Z" style="fill:#77bf6e"/><path d="M166.93,183.64a7.27,7.27,0,0,0,5.7,2.19q-4.06,21.73-8.11,43.46c-.36,1.94-.5,4-1.75,5.62Q164.86,209.27,166.93,183.64Z" style="fill:#829999"/><path d="M184.67,148.74c-5.26-.11-10.85,1-14.85-3.91-.15-2.9,1.78-4.54,3.74-6.16,3.49-1.2,7-2.24,9.91,1.18C185.5,142.59,186.26,145.5,184.67,148.74Z" style="fill:#956d48"/><path d="M127.49,96.86c-3.31-.21-6.64,1.55-9.92-.17,2.19-1.58,2.11-3.89,2.09-6.24a192.24,192.24,0,0,1,.71-21.17c.75,6,1.66,12,2.2,18.07C122.92,91.29,123.84,94.72,127.49,96.86Z" style="fill:#789aaa"/><path d="M183.47,139.85a34.54,34.54,0,0,0-9.91-1.18c3.65-2,5.06-5,5.85-8.31.42-1.75,1.39-7.05,2.11-9.94.07-.27.19-.73.37-1.32a22.72,22.72,0,0,1,1.39-3.41c-.86,7.54-1.33,13.39-1.69,16.68A10,10,0,0,0,183.47,139.85Z" style="fill:#76a3b6"/><path d="M144.35,332.26c-2.87-103,2.08-205.59,13.49-307.92a106,106,0,0,1-.55,19.86c-1,7.79-.78,15.6-1.36,23.36-.67,8.91-1.18,17.9-1.44,26.88-.71,24.23-2.25,48.44-3.13,72.68-.51,13.93-1.23,27.87-1.94,41.8-1.3,25.22-1.87,50.47-3,75.7-.69,15.1-.88,30.22-1.83,45.31C144.52,330.7,144.42,331.48,144.35,332.26Z" style="fill:#4c8a5e"/><path d="M693.22,607.37c.83,7.22,1.63,13.19,2.2,17.27l-.62.28-2.37-3.73c-2-1.49-3.13-3.86-5.08-5.41-1.06-.84-2.26-1.66-3.62-.87-1.6.93-1.32,2.51-1,4a9.72,9.72,0,0,0,2.26,3.82,6,6,0,0,1,1.61,3.48c.58,5.73.74,5.78,6.25,5.47.1,1.92-1.19,3.37-1.7,5.08-.92,3.07-.69,5.68,2.65,7,2.11.83,2.47,2.42,2.56,4.35.57,11.3,4.47,22,5.47,33.3.37,4.08,3.16,7.59,3.62,11.74,0,.65,0,1.29,0,1.93-.47,4.78,1.44,9.06,3,13.37.75,2.09,2.19,2.83,4.93,2.87,11.14.15,10.78-10,15-15.95a475.3,475.3,0,0,0,40.33-50.68c1.06-1.55,2-3.62,4.51-3.39,5.87-8.08,11.68-16.22,16-25.25-1.34-.21-3.38-.5-5.87-.7-9.54-.77-19.95-1.62-27.9,4-2.19,1.53-6.21,5-8.9,12.15-2.31,0-3.18,1.73-3.74,3.45-2.63,8-6.84,15.2-10.9,22.4-5.1,9-7.79,19-12,26.47,5-25.25,4.87-52.77,7.75-80q-1.2-10.74-2-22.18a484.79,484.79,0,0,1-.41-55.28c-2.58-18-4.55-32.45-5.8-41.77,0,0-4.5-46.77-14.43-86.49-1.81-7.25-4.32-14.32-6.54-21.46a6.38,6.38,0,0,0-2.63-4.14c-2.38,6.12-2.68,12.42-3.45,18.5-2.33,18.65-3.86,37.36-4.37,56.17-1,37.09-.14,66-.06,70.34C689.24,569.63,691.7,594.14,693.22,607.37Z" style="fill:#5ea575"/><path d="M726.39,604.17c-1.71,12.05-2,18-2.73,24.62-3.32,30.21-2.5,40.44-7.08,62.09-.09.42.2.93.61,2.53,3-5.78,6.2-10.52,8-15.74,4.12-11.62,10.14-22.27,16-33,2.34-4.27,2.73-9.22,5.47-13.24a854.87,854.87,0,0,0,18.11-96c3.25-26,4.85-52,3.3-78.17a11.47,11.47,0,0,0-1.49-5.69c-2.2,2.58-3.16,5.56-4.28,8.39-11,27.92-18.51,56.88-25,86.11,0,0-4.71,20.75-8.8,44.36C727.67,595.59,727,599.73,726.39,604.17Z" style="fill:#518f66"/><path d="M705.5,693.14q-2.12-14.55-4.76-29.73c-2.55-14.59-5.35-28.67-8.31-42.22a361.44,361.44,0,0,0-17.52-43.27A283.88,283.88,0,0,0,651,536.76c-1.18,3.54-.6,5.87-.18,8.19,4.34,24.17,12,47.39,20.13,70.46q10.34,29.19,23.37,57.28C697.63,679.77,701.79,686.33,705.5,693.14Z" style="fill:#538e67"/><path d="M789.39,616c-3.29,1.21-4.21,4.57-6,7-3.36,4.5-6.14,9.43-9.39,14-1.05,1.47-.68,2.77-.63,4.21,5.25,11.45,7.84,23.59,9,36.09.54-.1,1,0,1.09-.22,7.56-12.49,13.34-25.69,14.81-40.36C799.05,628.47,797.35,620.83,789.39,616Z" style="fill:#347145"/><path d="M728.5,695.36c-4.38,3.28-6.64,8.06-9.17,12.68-.46.85-1.08,5.11-3.05.65-.36-.83-1.08-.64-1.59-.17-4.73,4.4-4.33-.62-5.13-2.91-1.25-3.55-1.58-7.44-4-10.54-1.84,2.11-4.76,2.38-6.82,3.83-3.44,2.44-7.55,5.14-7.12,10.13s4.33,8.56,8.56,10.29c11.67,4.78,23.35,4.74,34.25-2.54,5.8-3.86,6.1-10.37,1.1-15.11C733.21,699.51,730.06,698.3,728.5,695.36Z" style="fill:#69bde3"/><path d="M722.43,520.22a35.88,35.88,0,0,0,2,6l1.12.9a4.49,4.49,0,0,0,4.38,2.54,4,4,0,0,0,2.39-1.33c5.11-1.94,7.52-5.73,7.71-11.09.14-4,.37-6.19.43-10A128.29,128.29,0,0,1,741.61,493c.53-4.3.9-5.77,1.21-9.9.22-3,.26-5.56.26-7.25-.6.76-1.5,1.89-2.63,3.24-1.31,1.56-2.42,2.6-2.76,3.18a19.71,19.71,0,0,1-6,6.93c-.88-1.63-.94-3.94-3.27-4.36-1.91-.35-3.58-.19-4.89,1.41,0,1-.12,3-.28,5.58C722.31,506.63,720.42,511.92,722.43,520.22Z" style="fill:#fdde5f"/><path d="M689.06,556.09a4.52,4.52,0,0,0,.78-.67,5.55,5.55,0,0,0,1.29-3.74c.21-7-3.18-22.51-3.18-22.51a91.82,91.82,0,0,1-1.78-11.89c-4.72.43-9.19,2.37-14,2.41-.7,0-1,.73-.85,1.5,1.62,9.19,3.44,18.35,4.8,27.58.7,4.72,2.51,8.1,7.24,9.51a4.16,4.16,0,0,0,5.7-2.19Z" style="fill:#fdde5f"/><path d="M732.34,528.29a12.1,12.1,0,0,1-6.77-1.21c-1.48,5.64-.16,11.48-1.19,17.15-.18,1,.81,2.39-.81,3,.79,18.22.29,36.49,1.89,54.68a8.33,8.33,0,0,0,.93,2.23q1.08-6.87,2.17-13.72c-1.66-1.64-1.2-3.74-1-5.67Q729.86,556.54,732.34,528.29Z" style="fill:#869696"/><path d="M723.55,486.22c2.44.57,7.65-2.13,5.12,4.36a1.72,1.72,0,0,0,1.12,2,2.08,2.08,0,0,0,2.58-.92c2.32-3,6.55-4.53,6.91-9.2.09-1.15,1.86-2.17,2.86-3.25,2.43-4.68-.23-7.5-3.67-10l-.05,0c-3.33-1-6.64-1.58-9.92.16C721.8,473.47,723.49,480.08,723.55,486.22Z" style="fill:#e1c84e"/><path d="M689.06,556.09a7.24,7.24,0,0,1-5.7,2.19q4,21.74,8.11,43.46c.36,1.94.5,4,1.75,5.63Q691.14,581.72,689.06,556.09Z" style="fill:#829999"/><path d="M671.32,521.19c5.26-.11,10.85,1,14.85-3.91.15-2.9-1.78-4.54-3.74-6.15-3.49-1.21-7-2.25-9.91,1.17C670.49,515,669.73,518,671.32,521.19Z" style="fill:#e1c84e"/><path d="M711.64,704.71c2.87-103-2.08-205.59-13.49-307.91a105.9,105.9,0,0,0,.55,19.85c1,7.79.78,15.6,1.36,23.36.66,8.91,1.18,17.9,1.44,26.88.71,24.24,2.25,48.44,3.13,72.68.5,13.93,1.23,27.87,1.94,41.8,1.3,25.23,1.87,50.47,3,75.7.69,15.1.88,30.22,1.83,45.31C711.46,703.16,711.57,703.93,711.64,704.71Z" style="fill:#4c8a5e"/></g></g></svg>