<svg xmlns="http://www.w3.org/2000/svg" viewBox="0 0 942.42 435.32"><g id="Capa_2" data-name="Capa 2"><g id="Capa_131" data-name="Capa 131"><path d="M240.39,319.81c12.1.94,23.34-2.94,34.52-6.59a115.12,115.12,0,0,1,34.32-5.46c14.81-.24,29.63.62,44.43-.72,18.37-1.66,35.64-6.39,51-17a8.7,8.7,0,0,1,6-1.89c35.29,2.91,70.53,1.27,105.75-1.48,3.12-.24,5.24-.06,6.66,3.32,1.55,3.71,5.09,5.6,8.77,6.94,1.74.64,2.69,1.18,2.3,3.51-1.15,7.07,1.22,11.06,7.92,13.4a38.3,38.3,0,0,0,24.51.44c20.53-6.36,41.25-11.7,62.94-12.23,20.65-.5,41.28-.22,61.92.5,10.83.38,21.62.31,32.22-2.51,20.44-5.43,27.62-22,17.47-40.39-1.61-2.91-3.28-5.78-4.92-8.67,1.89-3.84,5.21-2.55,8.25-2.29,4.37,2.36,9.31,2.09,14,2.93,23.6,4.24,46.45,10.59,66.12,25,10.05,7.35,17.92,16.48,17.77,30.09a25.1,25.1,0,0,1-3.9,13.13c-8.8,0-17.34,2.16-26,3.27-8,1-30.23,3.64-62.95,7-43.34,4.45-83.72,7.93-107,9.86-10.06.26-24.84.62-42.7.95-40.24.76-100.93,1.85-176.95.63-40.94-.66-69.46-1.71-77.34-2-25.91-1-51.83-2.23-77.71-4-44.48-3-78.42-6.47-106.75-9.4-25.25-2.62-46.35-5.07-61.52-6.9A23.65,23.65,0,0,1,99.84,304c4-10.54,14.37-13.84,15.68-14.23a6.57,6.57,0,0,1,4-2.23,6.5,6.5,0,0,1,4.22.83c-2.89,5.15-.39,5.69,3.72,6.09,11,1.09,22-.14,32.89-1.06,8.9-.75,17.53-1.08,25.74,3.46,4.07,2.24,8.7,3.27,13.31,4.1a5.5,5.5,0,0,0,3.75.3c3.14-.72,3.76,1.28,4.28,3.54q1.54,2.48,3.08,5a8.78,8.78,0,0,1,4.78,4.19c6.32,4.54,13.74,5.11,21.11,5.83A2.91,2.91,0,0,1,240.39,319.81Z" style="fill:#ac9a83"/><path d="M70.38,231.58A108.65,108.65,0,0,0,70.52,248,109.77,109.77,0,0,0,73,263.9a54.57,54.57,0,0,1-5.23,2.15,3,3,0,0,1-1.8.6c-6.4-.51-12.06,3.34-18.52,2.86-3.39-.26-7.17.06-10.09,2-4,2.71-4.49.35-4.92-2.73-5.42-16.28-12.64-31.66-23.16-45.44,11.08,6.3,19.49,15.2,26.48,25.64-7.33-25.32-18.11-48.79-35.8-68.8,7.27,2.35,13.13,6.84,18.52,11.91C28.31,201.33,36.13,212,41,224.66A42.2,42.2,0,0,0,43.22,229l2,3.7c-.07-.81-.19-2.1-.36-3.7,0,0-.77-7.28-2-14.57-3.25-18.7-13-46.08-13-46.08a349.12,349.12,0,0,0-18.26-44.68C21,131.89,32.18,150.53,42,174.79a243.9,243.9,0,0,1,15.41,57.66c3.29-14.15,5.3-28.62,15.68-39.88-.75,11.6-1.15,19.54-1.22,24.4A78.55,78.55,0,0,1,71,228.28C70.75,229.68,70.53,230.83,70.38,231.58Z" style="fill:#9f9559"/><path d="M51.37,306.93a78.54,78.54,0,0,1-29-11.5c-8-5.29-8.15-11.05-1-17.31a26.28,26.28,0,0,1,8.13-4.78c9.46-3.65,17.49-6.74,30-8,4-.42,7.43-.53,9.9-.55,7.17,16.93,21.6,23.59,38.29,27.07,1.61.34,3.21.72,4.82,1.09,5,1.89,5.12,2,1.22,6-5.84,6.05-9,13.76-13,20.9a235,235,0,0,1-27.36-5.71C65.34,311.93,58,309.46,51.37,306.93Z" style="fill:#aa9a82"/><path d="M299.27,382.74a23.64,23.64,0,0,1-3.8,16.06c-.35,3-2.15,5.1-4.21,7.08-9.47,9.15-21,12.59-33.79,11.15-11.22-1.27-22.13-4.17-32-10.16-1.71-1.05-3.48-2-4.15-4.05a16.67,16.67,0,0,1-5.79-4.73c3.38-.25,6.44-.34,9.45-.73,8.3-1.06,15.42-5.05,22.4-9.31a112.73,112.73,0,0,1,20.05-10c10-3.66,20-1.89,29.9.71.49,3.07-2.11,3.95-3.93,5-11.81,7.07-23.65,14.1-35.18,15.63a97.07,97.07,0,0,0,36.41-15.51C296,383,297.46,382,299.27,382.74Z" style="fill:#9b9252"/><path d="M606.27,340.87l-4.35-12.95a34.51,34.51,0,0,1,7.08,5.81,36.94,36.94,0,0,1,6.07,8.95,219.84,219.84,0,0,1,9.27,20.53q3.35-7.66,6.7-15.31c.31,1.46.6,3,.87,4.55.4,2.38.69,4.65.9,6.81a178.48,178.48,0,0,1,22.52-34.59c-2.31,6.95-4.54,14.45-6.58,22.46-2,7.82-3.6,15.3-4.89,22.36,8-7.34,15.95-14.47,27.87-18.27-8,10.27-15.15,19.43-22.28,28.6-.16.29-.3.76-.54.81-5.83,1.23-11.53,3.13-17.56,3.18h-19c-2.76-4.49-8.17-6.76-10-12a99,99,0,0,0-10.8-12.5,31,31,0,0,1,4.79.87,34.55,34.55,0,0,1,17.16,11.22C611,360.81,608.62,350.84,606.27,340.87Z" style="fill:#998f55"/><path d="M221.36,402.82a81.7,81.7,0,0,0,36.08,12.74c15.6,1.69,28.54-3.93,38-16.76,4.14,2.55,9.29,2.37,13.42,5,1.81,1.15,4.3,1.9,4.31,4.38,0,2.77-2.63,3.63-4.73,4.52-6.79,2.91-14.09,3.76-21.32,4.59-20.73,2.36-41.4,2.27-61.87-2.38a9.79,9.79,0,0,1-1-.2c-3.35-1.19-7.89-1.16-8.82-5.38C214.59,405.31,219.59,405.23,221.36,402.82Z" style="fill:#a99b86"/><path d="M608.29,377a16.7,16.7,0,0,1,4.06,6.8c-4.07,4.31-9.77,3.85-14.83,4.51a64.72,64.72,0,0,1-23.29-.74c-2.14-.51-5.2-.51-5.72-3.21-.46-2.33,2-3.72,3.65-4.94,6.05-4.38,12.5-7.36,19.64-7.7a26.31,26.31,0,0,1,7.42.61A18.16,18.16,0,0,1,608.29,377Z" style="fill:#a8977e"/><path d="M123.45,353.8c-2.08,2.69-5.33,2.44-8.11,2.85-9.92,1.48-19.39,3.82-26.89,11.08,1.34-5.14,5.6-7.37,9.94-8.75a26.93,26.93,0,0,0,8.16-4.37c3.41-.41,4-3.75,5.68-5.78,6-7.1,13.27-11.49,22.67-12a28.43,28.43,0,0,1,2.87.27A70.89,70.89,0,0,0,123.45,353.8Z" style="fill:#998f5b"/><path d="M299.27,382.74c-8.71,5.85-17.67,11.2-27.72,14.54-5.55,1.84-11.3,2.29-17.06,3.08,6.47-2.69,13.33-4.37,19.48-7.65,8-4.29,16.72-7.45,23.4-14a93.54,93.54,0,0,0,10.28-11.33c1-1.19,1.94-2.48,3.66-1.29,2,1.36.95,2.9,0,4.25C307.93,375.11,303.34,378.68,299.27,382.74Z" style="fill:#605b29"/><path d="M422.11,31.71c33.47-15.3,68.32-22.18,75.31-23.6,52-10.57,102.19-6.9,149.36,19.42,17.36,9.69,33.44,21.09,46.45,36.37,9.66,11.91,16.47,20.78,21.23,27.16A130.83,130.83,0,0,0,730,108.9c12.29,12,24.34,18.64,39.14,26.71,4.86,2.65,11.4,5.95,24.66,12.16,14.68,6.88,29.71,13,43.93,20.85,3.19,2,6.77,3.27,10.12,5,3.49,2.31,7.33,4,10.9,6.16,2.28,1.46,4.6,2.87,7,4.16,4,2.17,6.72,3.93,7.12,4.16,48.42,28,64,75.58,64,75.58a110.57,110.57,0,0,1,4.73,21.11c4.28,34.63-7.8,63-33.22,86.08C885,392,856.85,404.32,827.21,413.31A513.06,513.06,0,0,1,659.13,435a146.66,146.66,0,0,1-24.78-2.86A38.23,38.23,0,0,1,624,428.57c-5-2.65-5.47-6.18-1-9.65,6.52-5.08,14.33-7.59,22-10.24,25.66-8.85,52.21-14.7,78.06-22.92,25.51-8.1,50.64-17.08,74.2-30,11.29-6.18,22-13.26,31.13-22.38a46.79,46.79,0,0,0,10-13.56c.33-1.45,0-3,.57-4.41,4.7-12.63,0-22.94-8.61-31.78-10-10.23-22.72-16.14-35.93-21a197.62,197.62,0,0,0-42.14-10.32c-3-.39-6-.84-8.49-2.66-9.18-9.89-13.94-21.85-16.13-33.88a64.81,64.81,0,0,0,10.21,35.33c5,7.58,9.44,15.28,9.2,24.88-.24,9.37-4.46,16.1-12.32,20.91-8.23,5-17.45,6.57-26.76,7.31a140.66,140.66,0,0,1-24.45-.26c-11.14-1.07-22.32-.15-33.47-.48-26.56-.8-52.53,2.44-77.78,10.92a52.15,52.15,0,0,1-21.13,3c-4.71-.39-9.23-1.39-13.24-4-3.69-2.44-6.19-5.7-6-10.3.15-3.15-1.22-5-3.92-6.21-1.52-.69-3.18-1.54-4-3-3.48-6.17-9.15-5.7-14.88-5.25-20.75,1.66-41.5,3-62.33,2.87-11.5-.07-22.94-1.25-34.43-1.42a13.18,13.18,0,0,0-8,2.05c-18.84,12.63-40.12,16.6-62.23,17.26-11.66.35-23.33,0-35,.08a89.78,89.78,0,0,0-28.51,4.43,213,213,0,0,1-26.1,6.83c-3.77.74-7.57,1.22-11.35,0-4-4.77-2.56-10-.8-14.95,2-5.54,5.62-10.13,9.92-14.66-11,4.84-15.75,13.72-13.6,25,.28,1.47.84,2.95-.55,4.19a27,27,0,0,1-21.29-5.62c-1.31-10.39,3-18.67,10-25.75a52,52,0,0,1,6.93-5.53c-11.58,3.22-17.57,10.24-19,22.28-.21,1.73.07,3.82-2.39,4.36-2.56-.88-3.5-3-4.2-5.35-.31-14.94,6.37-26.24,18.52-34.34,10.57-7.05,22.79-10,35-12.89a15.07,15.07,0,0,0,4.64-1.62c8.57-1.28,17.25-.64,25.87-1.58,14.14-1.55,27.57-5.14,39.59-12.8,18.23-11.63,24-28.94,21.64-49.65a92.41,92.41,0,0,0-2.59-15.12c.07-1.32-.82-.69-.17-.85.1,0,.13.13.12.47-.16,3.33-.75,6.61-1.14,9.92-.35,3-2.26,4-5,3.08-13.19-4.33-21.49-17.44-19-29.2,1.84-8.8,5.17-17.31,5.6-26.36.49-10.29-1-20-9.85-27a18.9,18.9,0,0,0-16.45-3.78,41.26,41.26,0,0,0-21.29,12.41c-6.32,6.63-13.16,10.13-22.74,10.25-12.23.15-23.93,4.42-35.06,9.35-18.15,8-35.68,17.29-50.85,30.43-6.58,5.7-12.81,11.72-17.58,19-3.86,5.91-9.19,8.83-16,9.76s-13.52,2.18-19.66,5.45c-6.78,3.61-11.91,8.53-12.64,16.75a12,12,0,0,0,3.32,9.57c12.1,13.4,27.29,19.66,45.16,20.22a113.76,113.76,0,0,0,31.67-3.44c5.14-1.3,10.33-2.71,15.74-2.54,3.33.09,6.65,0,10,0,14.22.32,27.27,4.9,39.91,11a6.2,6.2,0,0,1,2.65,2.19c-.13,3.22-2.87,2.75-4.75,3.1-9,1.7-17.78,4-25.82,8.75a46,46,0,0,0-14.44,12.79c-3.61,5.06-4.67,10.86-4.55,17,.14,6.8,0,6.8-6.88,7.12-6-.57-11.53-3-17-5.4A27.3,27.3,0,0,0,170,294.41c-19.8.54-32.22,1.95-32.22,1.95-26.93,3.06-49.13-8.69-55.55-13.18a41.48,41.48,0,0,1-10-10.06,35.21,35.21,0,0,1-4.14-8.67,44.54,44.54,0,0,1-1.88-8.5,40.6,40.6,0,0,1,1-16.39c3.62-12.19,15.2-23.82,18.16-25.75a4.13,4.13,0,0,0,1.91-2.33,4.31,4.31,0,0,0-.6-3,115,115,0,0,1-11.8-38.44c-.36-3.11-1.61-4.55-4.75-5.25a37.31,37.31,0,0,1-18.82-10.69c-6.51-6.65-6.7-15.94-.32-22.79a40.77,40.77,0,0,1,16.64-10.69c5.06-1.76,8.16-4.6,9.08-9.93a37.65,37.65,0,0,1,1.9-5.66c.67-1.57-.27-3.45.93-4.93a137.36,137.36,0,0,1,19-29.46,109.81,109.81,0,0,1-10.92-1.84c-5.81-1.43-8.21-6-3.93-10.67,6.1-5.73,13.81-8.45,21.4-11.36,1.51-.68,3.09-1.18,4.62-1.82,2-.85,2.56-2.15,2-4.35-2-7.54-1.61-8.13,5.65-11.76a56.12,56.12,0,0,1,11.48-3,7.83,7.83,0,0,1,1.49-.34c4.11-.51,8.29.42,12.36-.69a8.43,8.43,0,0,1,1.55-.34c10.27.6,19.89-2.33,29.48-5.42,1.24-.36,2.56.74,3.78-.21a148,148,0,0,1,63.25-7.58c6.62.64,12.39.68,17.95-4.07C263.2,3.41,269,1.39,275,.36c9.81-1.68,17,2.61,20,12.07,2.1,6.8,1.23,13.57-.43,20.22-.73,3-.15,4.47,2.37,6.12,9.59,6.31,18.78,13.28,30,16.55,1.09.32,2.25.44,3.37.66a69.65,69.65,0,0,0,9.88.73,72.43,72.43,0,0,0,14.23-1.45,160.18,160.18,0,0,0,23.61-6.39C402.38,39.74,414.54,35.17,422.11,31.71Z" style="fill:#280d02"/><path d="M639,379.77c1.64-.33,6.74-1.38,10.45.81a31.55,31.55,0,0,0,3,1.72c1.82.89,2.44.78,3.48,1.65s2.42,1.49,2.23,3a3.18,3.18,0,0,1-3.15,2.67c-6.91.45-13.83.86-20.58-1.34a3.46,3.46,0,0,1-2.62-4.64C632.59,381.08,636.45,380.29,639,379.77Z" style="fill:#a69882"/><path d="M202.4,241.62c-9.44,1.84-18.81,4.1-28.32,5.46-24,3.43-46-.42-63.74-18.72-6.3-6.52-6.91-13.91-1.57-21.39,5.47-7.67,13.54-11.66,22.37-12.68,11.79-1.36,19.81-6.38,27.4-15.93,18.3-23,43.87-36.28,70.72-47,12.14-4.87,24.73-8,37.91-7.8,4.06,0,6.35-2.61,8.8-5,6.8-6.71,13.84-13,23.16-16.08,11.28-3.7,22,.14,27.46,10.08a36.56,36.56,0,0,1,4.19,21.69c-.78,8-3.17,15.61-5.12,23.35-3.78,15,4.67,25.78,18.3,31,2.76,1.07,2.56-.69,2.64-2.46.22-5.27.51-10.54.77-15.81,2.21,0,1.73,1.61,2,2.55a97.49,97.49,0,0,1,4.16,26.56c.33,22.33-11,39.09-32,48.39-16.82,7.47-34.59,9-52.63,9.05l-4.49,0c-3.57.78-6.74.27-9.08-2.85-13.28-6.42-27-11.43-41.87-12.41A41.45,41.45,0,0,0,202.4,241.62Z" style="fill:#eee5dc"/><path d="M536.64,130.06c-9.79,28.45-6.31,54.77,13.08,78.27,13.33,16.17,30.95,25.69,50.78,31.42,13.61,3.94,27.69,5.44,41.89,7.31-4.86,1.68-17.69,1.86-25.83,1.23-16.07-1.25-31.94-4.77-48.13-4.48-7.5.13-14.82,1.41-21.6,4.95-5.2,2.71-9,6.37-8.39,12.8.19,1.91-.84,2.16-2.11,2.66-6.29,2.47-11.2,6.48-13.82,12.87a3.52,3.52,0,0,1-3.36,2.42c-34,2.52-68.12,4.35-102.27,2.21-.09,0-.16-.25-.57-.89,14.81-13.66,24.31-30.65,29.09-50.32,4.74-19.49,3.65-39.17,2-58.94,4.2,5.81,6.26,12.45,7.37,19.18.79,4.72,3,4.61,6.39,3.81,9.53-2.21,19.06-4.43,28.64-6.45a195.69,195.69,0,0,1,37.41-4.36c-4.87-19.65-2.24-37.88,8.33-54.84C536.46,128.72,537,129,536.64,130.06Z" style="fill:#ede4db"/><path d="M118.5,293.07a361.84,361.84,0,0,0-8.3,35.86c-1.61,9-2.79,17.57-3.65,25.68a5.29,5.29,0,0,1-.89,2.35c-1.33,1.86-3.78,2.33-5.88,3a16.89,16.89,0,0,0-10.27,8c-1.44,2.18-2.57,4.61-5.06,5.88l-4.93.17c-6.76-3.37-13.53-6.65-21.35-6.58-.85,0-1.38-.81-1.72-1.59L25.24,326.48c16.46,5.77,29.11,14.81,40.06,26.81C61,337.56,56.85,322,51.37,306.93q-3.27-11.28-6.53-22.56a113.08,113.08,0,0,1,23.72,28.79A112.6,112.6,0,0,1,80,341.22q.87-8.7,1.75-17.39a53.36,53.36,0,0,1,4.64,7.33,53.91,53.91,0,0,1,5,13.81,92.7,92.7,0,0,1,27.13-51.9Z" style="fill:#9c9256"/><path d="M84.45,373.79c.32-2.69,2.64-4.06,4-6.06a24.15,24.15,0,0,1,16.08-10.05c8.11-2.86,14.77-2.47,22.22-2,12.56.73,19.68,2.35,26.51,6.91a38.3,38.3,0,0,1,9.05,8.52c2,2.56,5.78,2.34,8.32,4.24,1.57,1.17,3.76,2.06,3.47,4.42-.3,2.54-2.56,3.54-4.69,3.83-6.07.8-12.69,2.95-18.19.16-13.58-6.91-27.83-2.86-41.73-3.84-5.78-.41-11.63-.08-17.36-1.16C89,378.13,85.23,378.19,84.45,373.79Z" style="fill:#a99a83"/><path d="M66.46,366.87A28.57,28.57,0,0,1,79.52,374c1.49,4.73-.74,7.29-5.1,8.36-9.36,2.31-18.71,1.78-28-.41-2.69-.63-5.13-1.86-5.55-5-.36-2.64,2.74-4.8,4-5.75A27.14,27.14,0,0,1,66.46,366.87Z" style="fill:#a89981"/><path d="M475,396.68c-4.52-.39-8.88-.58-12.95-2.19-4.31-1.7-4.76-4.46-1.4-7.48,6.2-5.59,22.51-5.55,28.67.06,3.3,3,2.86,6-1.26,7.61S479.19,396.13,475,396.68Z" style="fill:#aa9b86"/><path d="M600.85,296.88a26.47,26.47,0,0,1-17.46-5.05c-7.41-5.4-8-14.84-1.31-21.06,10.17-9.44,30.55-9.7,41.09-.51,6.92,6,6.64,15.06-.78,20.46C616.12,295.29,609,297.17,600.85,296.88Z" style="fill:#795238"/><path d="M255.34,254l9.08,2.85c-.75,1.62-2.26,1.59-3.74,1.94-11.93,2.87-23.89,5.79-34.42,12.46C214,279,207.64,290.19,207.4,304.77c-1.28-4.2-5.46-2.34-8-3.84,3.84.32,5.71-.36,5.16-5.28-1.49-13.07,5.58-22.11,15.65-29.14a67,67,0,0,1,33.48-11.68A5.29,5.29,0,0,0,255.34,254Z" style="fill:#714f3a"/><path d="M548.58,292.72a19.14,19.14,0,0,1-8.71-2c-5.64-2.46-6.38-8.39-1.62-12.34,5.53-4.6,16.94-4.73,22.51-.26,3.07,2.46,3.37,6.09.75,9.14C558.1,291.27,553.41,292.17,548.58,292.72Z" style="fill:#7b553b"/><path d="M563.33,254.73c7.53,0,12.57,3.28,12.8,8.08.19,3.91-4.84,7.89-11.29,8.76a17.2,17.2,0,0,1-10.59-2c-5.26-2.85-5.43-8.68-.54-12.06A15.12,15.12,0,0,1,563.33,254.73Z" style="fill:#75503a"/><path d="M128.27,167.71c-2.32.32-4.89-.43-7.47-1.05-1-.24-2-.68-2-1.88s1-1.65,2-1.86c3.08-.62,6.19-1.13,9.27-1.78,8.61-1.81,15.73-5.94,21-13.21,1.12-1.56,2.39-4.63,4.7-3.28,1.88,1.1.07,3.72-.6,5.47C151.12,160.78,140.5,167.75,128.27,167.71Z" style="fill:#6f4f3a"/><path d="M231.06,108.84c-2.2-.16-4.73.32-7.11-.77-.9-.42-2.08-.73-2.11-1.85,0-1.32,1.23-1.33,2.18-1.52,2.76-.56,5.52-1.09,8.27-1.66a34.33,34.33,0,0,0,22.2-14.76c1-1.47,1.86-4.49,4.26-2.92,1.77,1.15.51,3.65-.18,5.52C254.45,101.94,244,108.87,231.06,108.84Z" style="fill:#74523d"/><path d="M744.41,248.71c-2.27,2.48-5.91.06-8.25,2.29a58.64,58.64,0,0,1-9-40.93C730.23,224.2,734.92,237.54,744.41,248.71Z" style="fill:#ebe2d9"/><path d="M556.53,309.81c-3.31-.65-7.26-.59-8.07-5.06-.77-4.29,2.35-6.28,5.63-7.79,4.22-1.93,8.47-1.9,12.28,1a4.45,4.45,0,0,1,1.45,5.79C565.59,308.52,561.22,309.32,556.53,309.81Z" style="fill:#75513b"/><path d="M215.26,313.91a7.66,7.66,0,0,1-4.78-4.19c1.36-1.17.89-2.77.91-4.2.14-13.56,13.35-24,25-23.86C224.17,289.19,216.23,299.36,215.26,313.91Z" style="fill:#6e4e3a"/><path d="M240.39,319.81l-4-.07c-4.79-14.77,4.73-31.34,18.26-30.34C245.18,297.66,238.59,306.88,240.39,319.81Z" style="fill:#76513e"/><path d="M536.64,130.06l-1.14-1.15a18.11,18.11,0,0,1,4.79-6.85A25.59,25.59,0,0,1,536.64,130.06Z" style="fill:#a99991"/><path d="M202.4,241.62a14.68,14.68,0,0,1,11.07,0Z" style="fill:#b0a08c"/><path d="M259.13,143.5c5.75-9.08,15.31-11.5,23.68-6.64,7.36,4.27,10.39,13.3,6.37,20.41-1.13-1.79-2.08-3.4-3.12-5-2.69-4-3.72-4.07-6.24,0a69.56,69.56,0,0,1-17.57,19.55c-11.88,8.75-25.1,12.61-39.82,10.66-2-.27-3.25-.26-4.32,1.91-10.56,21.44-28.65,29.81-51.68,29.44l-1.49,0c-6.08-.14-6.61.8-4.07,6.51.58,1.31,2.92,2.66,1,4.19-1.41,1.13-3.2-.19-4.6-1-5.71-3.31-9.2-11.88-7.69-18.66a16,16,0,0,1,14-12.36c.9-.08,2-.45,2.85.83-1.88,2.58-4.7,4.55-6,7.62s-.95,5.32,3.08,5.16c17.81-.68,32.63-7.14,43-22.26,2.46-3.6,1.69-4.86-2.59-4.88a39.64,39.64,0,0,1-13.23-2.17c-5.87-2.11-7.52-6.73-3.37-11.2,9.3-10,20.64-16.74,34.54-18,5.88-.53,8.6,2.89,7.49,8.71a36.67,36.67,0,0,1-4.3,11.1c-2.43,4.32-2.24,4.74,2.94,4.78A49.33,49.33,0,0,0,261,160.33a73.78,73.78,0,0,0,11.86-12.77c2.15-2.92,1.1-3.87-1.79-4.8C267.26,141.51,263.6,142.86,259.13,143.5Z" style="fill:#260e03"/><path d="M208.74,239.26c30.57-7.33,58.95-17.14,75.54-46.31C281,222.32,239.09,245.23,208.74,239.26Z" style="fill:#b0a08c"/><path d="M213.88,218.41c18.08-.7,32.91-7.37,43.16-23.17,2,5.86-2,13-10.06,19.32C237.4,222.13,221.94,224.21,213.88,218.41Z" style="fill:#b2a28e"/></g></g></svg>