<svg xmlns="http://www.w3.org/2000/svg" viewBox="0 0 734.08 583.18"><g id="Capa_2" data-name="Capa 2"><g id="INFO"><path d="M322.45,26.14a38.16,38.16,0,0,1-9.74-6.4,28.2,28.2,0,0,1-3-3.1c-1.37-1.79-2.66-3.85-1.58-6.11S311.64,8,313.89,8c8.93-.07,17.56,2.19,26.33,3.42.77.11,1.53.23,2.3.36,2.65.45,3.88,0,3.57-3.34-.64-6.94,2.74-9.57,9.55-8a59,59,0,0,1,21.24,9.84,67.85,67.85,0,0,0,28,12.06c23.06,4.33,43.36,15,61.65,29.51a8.25,8.25,0,0,0,6.35,1.85,46.39,46.39,0,0,1,21.54,2.94c7.6,3.08,9.57,8.71,6,16.09-2.93,6-7.51,10.62-12.61,14.79-4.71,3.86-4.68,3.88-2.7,9.53a181.77,181.77,0,0,1,9.42,75.26c-1,12.38-3.15,24.61-4.19,37-1.74,20.72,2,40.56,8.93,60,4.73,13.21,10,26.23,14,39.73,4.54,15.54,6.29,31.23,2.39,47.21a39.14,39.14,0,0,1-6,12.82c-.67,1-1.43,1.82-1.12,3.28,3.15,15.11,4.26,30.48,5.67,45.8A2.45,2.45,0,0,0,516,420.7c19,7.36,28.55,22.26,31.42,41.53,4.5,30.23-5.41,56.19-25.07,78.95-21.43,24.8-49.07,37.43-81,41.59-9.75,1.28-18.36-.87-24-9.86-.8-1.29-1.63-1-2.77-.85-11.85,1.6-23.69,3.25-35.68,3.76-18.05.77-35.84-1.21-53.54-4.4-1.11-.2-1.88-.77-2.74.61-6.14,9.91-15.58,12.36-26.24,10.64-26-4.21-50-13.43-69.53-31.79-18.49-17.35-31.64-37.82-35.05-63.5-2.37-17.84-.45-35,9.81-50.37a38.82,38.82,0,0,1,22.22-16.43c1.7-.48,1.66-1.35,1.74-2.58,1-15.38,2.45-30.7,5.63-45.81a3.14,3.14,0,0,0-.57-2.77c-8.67-11.8-9.83-25.29-8.77-39.27,1.26-16.7,7.43-32,13.26-47.45,4.59-12.11,9.27-24.18,12.22-36.82,3.59-15.35,2.8-30.81,1.11-46.3-1.48-13.54-3.65-27-4.2-40.66-.86-21,2.86-41.27,9.6-61,1.6-4.71,1.41-7.88-2.79-11a48.46,48.46,0,0,1-8.93-9.37,22.53,22.53,0,0,1-3.58-6.31c-2.44-6.7-.48-11.45,6.11-14.25,7.51-3.2,15.45-3.69,23.47-3.11a6.18,6.18,0,0,0,5-1.69C287.23,39.52,303.75,31.36,322.45,26.14Z" style="fill:#280c01"/><path d="M325.92,359.28l8.64-6c1.29-.28,2,.72,2.91,1.31,13.06,8.69,27.19,11.32,42.47,7.55a86.3,86.3,0,0,0,20.53-7.52c1.46-.78,2.91-1.64,4.68-1.46l11.2,8.08c7,4.83,13.38,10.54,21,14.53s15.24,7.17,23.66,8.48c1.86.29,3.19.81,3.11,3,3.57,18.52,4.91,37.16,2.75,56a2.56,2.56,0,0,1-2.32,1.42,22.13,22.13,0,0,1-6.22-.84c-4.9-1.57-9.19-.25-13.24,2.31a10.11,10.11,0,0,1-7.21,1.57c-7.25-1-12.91,2-16.56,8.46-3.55,6.29-5,13.21-5.92,20.26-1.6,12.3-1.18,24.72-2.12,37.06-.38,5-.54,9.93-.63,14.9,0,1.87-.12,3.79-1.57,5.26-12.15,4.63-24.62,7.87-37.65,8.52-15.64.78-30.49-2.71-44.9-8.51-1.75-.88-1.47-2.56-1.56-4.07-.91-16.76-1.33-33.56-2.8-50.29-.63-7.27-1.76-14.51-5.15-21.17-4.22-8.3-9.53-11.32-18.73-10.35a6.82,6.82,0,0,1-5-1.24c-5.78-4.2-12-4.51-18.65-2.44-1.24.39-2.67,1.53-3.85-.22-2.14-17.86-.93-35.56,2.51-53.16.36-1.84.93-3.63,1.4-5.45,1.91-1.57,4.36-1.43,6.56-2,13.68-3.67,25.6-10.61,36.52-19.43C321.77,362.16,324,361,325.92,359.28Z" style="fill:#f2f0eb"/><path d="M308.38,138.87c8.64-7,18.89-9,29.56-9,15.17,0,30.34,1.21,45.53.38,8.85-.49,17.7-1,26.55.09,9.75,1.24,18.77,4.17,26.07,11.17,11.71,11.23,14.57,26,8,41.78a84.44,84.44,0,0,1-7.92,15c-13.73,20.25-14.82,42.11-8.87,65,3.18,12.2,6.77,24.28,11.06,36.15-1.41.94-2.75.09-4.09-.22-6.61-1.47-13.12-3.5-20-3.47-1.77-.61-1.84-2.39-2.38-3.75a66.55,66.55,0,0,0-15.52-23c-7.1-6.92-15.72-10.23-25.71-9.27-5.09.49-9.42,3.15-13.79,5.53-10.39,5.68-20,12.29-26.84,22.29a16.08,16.08,0,0,0-1.67,2.48c-1.43,3.39-3.62,5.75-7.54,6-5.17.94-10.31,2-15.41,3.31-1.34.33-2.72,1-4.11.08,4.29-11.49,8.69-23,11.52-34.92,3.83-16.14,5.19-32.34-.19-48.49-3.11-9.34-8.79-17.32-13.44-25.84-4.46-8.18-8-16.58-6.65-26.21a12.74,12.74,0,0,1,1.35-5.07c2.09.17,2.12,2,2.6,3.36.58,1.66.88,3.49,2.95,4,3,2.05,3,2.05,3.95-1.36.85-3.12,2.14-3.94,5.36-3.21a34.63,34.63,0,0,1,5.58,2.13c17.85,7.34,35.5,8,52.78-1.71a5.42,5.42,0,0,1,5.89.07c17.16,9.49,34.72,9.1,52.5,1.88a51.19,51.19,0,0,1,4.87-2.12c3.85-1.12,5.35-.19,6.13,3.67.18.89-.26,2.3,1.07,2.43,1.05.1,1.58-1.07,2.11-1.91a11.81,11.81,0,0,0-3.58-16.38c-4.93-3.11-10.25-3.87-16.55-1.84a29.74,29.74,0,0,1,6.54,2.64c1.58.92,3.06,2,2.86,4.09-.18,1.93-1.67,2.75-3.26,3.41-5.71,2.37-11.79,3.18-17.84,3.69a57.42,57.42,0,0,1-22.07-2,19.49,19.49,0,0,1-4.91-2c-2.48-1.63-2.47-2.91.19-4.28,2.87-1.48,5.75-2.88,8-5.33,3.21-3.54,2.75-6.54-1.44-8.86a28.23,28.23,0,0,0-11.15-3.06c-7.22-.7-14.4-.55-21.4,1.72a15.79,15.79,0,0,0-3.38,1.38c-3.88,2.33-4.29,5.55-1,8.67a40,40,0,0,0,8,5.38c1,.57,2.64.7,2.51,2.25s-1.51,2.12-2.75,2.62a45.12,45.12,0,0,1-13.15,3.48,75.65,75.65,0,0,1-28.91-3.15c-2.13-.67-5.11-1.11-5.36-3.8-.28-3,2.59-4.06,4.79-5.33.94-.55,2-.86,3.34-1.67-4.26-1-8.11-.31-11.93-.34-2.62-3.14-2.61-4.14,0-7C307.66,140,308.26,139.59,308.38,138.87Z" style="fill:#f2f0eb"/><path d="M321.22,295.29c2.93-.21,4.38-2,5.79-4.5,6.85-12.08,17.6-19.93,29.54-26.36,5.15-2.78,10.23-5.61,16.39-5.73a32.08,32.08,0,0,1,23,8.71,64.87,64.87,0,0,1,18,27.82c-2.39,1.18-5-.06-7.44.7-4.59.59-9.1,1.37-12.65,4.74-1.08,2.48-3.21,3.93-5.32,5.4a18.41,18.41,0,0,0-4.1,12.73,13.85,13.85,0,0,1,.67,6.51,34.39,34.39,0,0,0,2.82,9.25,1.72,1.72,0,0,1-.74,1.73c-9.16,8.27-23.29,13.15-36,7.53-1.42-.63-3.34-.93-3.27-3.18a39,39,0,0,0,6-12c.64-3.08-.6-6.41,1.2-9.34-.06-4.92-1-9.53-4.53-13.28a22.36,22.36,0,0,1-4.82-5.22A28.17,28.17,0,0,0,326,295.47C324.36,295.71,322.76,296.11,321.22,295.29Z" style="fill:#8e8c86"/><path d="M272.8,443.81c.91.74,1.67,0,2.46-.25,7.45-2.75,14.56-2.54,21.07,2.49a4.08,4.08,0,0,0,3.95.78c6.16-1.59,11.4.23,15.62,4.87,5.89,6.47,7.61,14.62,8.71,22.92,1.87,14.08,1.78,28.3,2.74,42.45.37,5.51.12,11.07,1.19,16.52-1,1-.56,2.33-.54,3.49a102.46,102.46,0,0,1-1.49,19.16,4.16,4.16,0,0,1-1.2,2.76c.34-15.37-2.13-30.33-3.86-45.37-1-9-1.16-18.1-1.38-27.17a76.67,76.67,0,0,0-2.22-18.38c-1.39-5.13-3.75-9.77-8.33-12.82-4.39-2.92-7.82-1.52-8.79,3.59-.83,4.44-1.54,8.92-2,13.42a28.76,28.76,0,0,1-2.28,8.49c-.39-2.61-.78-5.22-1.15-7.83-.71-5-1.27-10.09-2.14-15.09-1.31-7.51-4.93-10-13.59-8.38-6.7,1.26-10.64,6.79-11,13.6-.46,9.23,2,17.92,4.68,27.18a10.14,10.14,0,0,1-3.93-4.65c-2.49-4.83-5.09-9.59-7.1-14.65-1.58-4-2.74-4.14-5.87-1.11A21,21,0,0,0,250,484c-.72,10.57,1.63,20.65,4.5,30.69,3.74,13.13,9.17,25.61,14.14,38.28.19.47.7.92.06,1.76A132.4,132.4,0,0,1,260,540.61c-7.47-13.9-13.79-28.28-16.94-43.81-2.18-10.7-1.28-20.95,6.29-29.71a22.37,22.37,0,0,1,6.29-5.34,10.56,10.56,0,0,0,5.38-5.84,19.7,19.7,0,0,1,10-10.64A3.43,3.43,0,0,0,272.8,443.81Z" style="fill:#f2f0eb"/><path d="M347.88,340.64c5.63,4.57,12.21,5.24,19.05,4.37,8.17-1,14.95-5,21-10.45,4.19,7.63,10.25,13.54,17.23,18.6-13.34,7.4-27.36,12.5-42.87,11.41a47.49,47.49,0,0,1-27.72-11.29C339.21,349.28,344.1,345.55,347.88,340.64Z" style="fill:#64635f"/><path d="M465,443.81a1.61,1.61,0,0,0,1.9-.63c.23,2.18,2.32,2.59,3.66,3.52a21.07,21.07,0,0,1,8.14,9.79,9.27,9.27,0,0,0,4.37,4.73c9.95,5.76,15.88,19.42,13.68,31.33-3.93,21.32-13,40.56-24.14,58.94-.1.17-.33.26-.92.71-.08-2,1.07-3.27,1.49-4.71s1.19-2.86,1.71-4.32c5.35-15,11.22-29.82,13.8-45.65,1-6.16,1.36-12.31-.38-18.42a19.63,19.63,0,0,0-6.93-10.26c-1.79-1.43-2.54-1-3.37.9-2.75,6.28-5.33,12.66-9.19,18.39a2.71,2.71,0,0,1-1.7,1.24c.95-4.54,2-9.07,2.81-13.64s1.66-9.43.81-14.18c-1.73-9.62-9.38-14.26-19-11.75-1.33-1.19-.06-1.56.69-1.87,1.2-.5,2.56-.45,3.81-.9,1.79-.63,4.05.06,5.16-2.47C461.88,443.35,463.85,444.65,465,443.81Z" style="fill:#f2f0eb"/><path d="M465,443.81c-1.73.93-4.57.63-4.18,3.92.06.51-.78.78-1.32.44-2.84-1.76-5.2.93-7.86.78,0,.28.05.56.07.85-5.14,2.86-6,8-6.5,13.06-.63,5.94-1.85,11.75-3.2,18.5-1.59-4.75-1.73-8.89-2.28-12.94-.47-3.38-.64-6.82-1.29-10.17-1.09-5.64-5.17-6.89-9.68-3.22s-6.36,8.91-7.66,14.35c-2.12,8.88-2.61,17.94-2.63,27,0,13.65-1.75,27.1-3.78,40.56-1,6.83-1.85,13.75-1.35,20.75-1.17-3.11-1.26-6.39-1.55-9.63-.42-4.82.52-9.7-.68-14.48.65-12.61,1.35-25.23,2-37.85.51-10.85.89-21.72,4.09-32.23,1.91-6.28,4.73-11.95,10.78-15.37a13.34,13.34,0,0,1,10.88-1.38,4.19,4.19,0,0,0,4.31-.65c5.91-4.74,12.5-4.63,19.35-2.68A20.84,20.84,0,0,0,465,443.81Z" style="fill:#f2f0eb"/><path d="M325.92,359.28c-13.17,12.59-28.27,21.69-46.27,25.53-1,.2-2,.26-2.94.39a79.65,79.65,0,0,1-21.87-2,65.06,65.06,0,0,1-9.72-3.29c.24-.29.4-.55.46-.53,12.13,3.66,24,1.73,35.9-1.37A166.34,166.34,0,0,0,325,359.51,3.65,3.65,0,0,1,325.92,359.28Z" style="fill:#f2f0eb"/><path d="M464.13,387.22c-.35-1.52-1.4-1.81-2.85-2.07C443.74,382,429,373.52,416.35,361.24c6,1.87,11.33,5.39,17,8,12.11,5.52,24.58,9.85,37.75,11.81a54.82,54.82,0,0,0,21.89-.92c-5.91,3.37-12.4,4.42-19,5a51,51,0,0,1-7.62,0C464.82,385.09,464.25,385.81,464.13,387.22Z" style="fill:#f2f0eb"/><path d="M312.88,106.83c-.14,3.57-.55,7.1-2.56,10.17-2.36,3.61-5.88,3.58-8.27,0-3.47-5.22-3.2-16.63.52-21.58,2.22-3,4.78-3.08,7.07-.17C312.29,98.64,312.9,102.66,312.88,106.83Z" style="fill:#f2f0eb"/><path d="M438.77,107.63a19.84,19.84,0,0,1-2,9.11c-1.92,3.63-5,4-7.73,1-4.45-4.86-4.74-17.14-.51-22.19,2.64-3.15,5.51-2.93,7.76.62C437.87,98.67,438.71,102.37,438.77,107.63Z" style="fill:#f2f0eb"/><path d="M321.22,295.29l4.73.18c-14.26,3.06-26.8,10.8-40.68,14.88-4.64,1.37-9.29,2.72-14.06,3.83,8.9-7.21,19.54-10.93,30.1-14.8C307.89,297.74,314.4,295.76,321.22,295.29Z" style="fill:#f2f0eb"/><path d="M406.5,295.93c2.4-1,5-.19,7.44-.7,8.42-.27,16.44,1.85,24.42,4.17,5.41,2.85,11.44,4.07,17,6.62a82.64,82.64,0,0,1,13.7,7.32c-12-2.06-23-5-33.32-10.29-3.81-2-7.95-3.29-11.91-5C418.23,295.63,412.35,296,406.5,295.93Z" style="fill:#f2f0eb"/><path d="M308.38,138.87c.42.24.71.69.3,1-2.52,1.84-3.3,4.15-2.06,7.06-.19,1-1,1.38-1.75,1.87-6.46,4.41-8,8.17-6.31,15.81a2.72,2.72,0,0,1,.11,1.62c-1.86.8-1.83-.79-2.3-1.78-.87-1.85-.69-4.16-2.47-5.6C296.2,150.36,301.34,143.93,308.38,138.87Z" style="fill:#f8f3ed"/><path d="M298.67,166.23c-4.06-6.62-.42-14.77,5.32-18,.85-.48,1.75-.89,2.63-1.33,4.78-.79,9.55-1.51,14.89.7-2.95,1.5-5.38,2.63-7.69,4-1.12.63-2.61,1.35-2.56,2.81s1.66,2.07,2.85,2.45c14.67,4.72,29.4,6.45,44.2.46,1-.41,2.13-.68,2.61-2-3.78-1.78-7.61-3.52-10.66-6.48-4.42-4.28-3.78-8.63,2-10.79A47.85,47.85,0,0,1,387,138c6.3,2.4,7,7.1,2.06,11.75-2.76,2.62-6.37,3.83-9.71,5.66,1.25,1.73,3,2.37,4.81,2.94,14.07,4.48,28,3.24,41.78-1.25,1.16-.37,2.41-.77,2.52-2.29s-.88-2.19-1.88-2.93c-2.54-1.85-5.65-2.47-8.53-3.73,4.9-4.31,16.8-2.34,21.58,3.46a12.78,12.78,0,0,1-.32,16.75c-.73.81-1.52,2-2.72,1.57s-.82-1.68-.91-2.65c-.59-5.74-1.64-6.42-7.07-3.62-13.2,6.79-27.08,7.79-41.41,5.19a37.65,37.65,0,0,1-15.26-6.19c-.84-.59-1.6-1.72-3.16-.6-9.56,6.9-20.59,8.25-31.95,8a57.88,57.88,0,0,1-23.73-5.69,34.55,34.55,0,0,0-4-1.65c-3.69-1.22-4.29-.8-5,3.05-.26,1.35.3,3.43-1.2,3.83s-2.47-1.51-3.51-2.63C299.13,166.68,298.9,166.46,298.67,166.23Z" style="fill:#270e05"/><path d="M105.19,458.34c-.84,7.23-1.63,13.2-2.2,17.27l.62.28,2.37-3.73c2-1.48,3.13-3.85,5.08-5.41,1-.84,2.25-1.66,3.61-.87,1.61.94,1.33,2.52,1,4a9.7,9.7,0,0,1-2.26,3.82,6.11,6.11,0,0,0-1.62,3.48c-.57,5.74-.73,5.79-6.24,5.47-.1,1.92,1.19,3.38,1.7,5.08.92,3.08.69,5.68-2.65,7-2.11.83-2.47,2.42-2.57,4.34-.56,11.3-4.46,22.05-5.47,33.3-.36,4.08-3.15,7.59-3.62,11.75,0,.64,0,1.28,0,1.93.46,4.78-1.44,9.05-3,13.36-.75,2.09-2.19,2.84-4.93,2.87-11.14.16-10.78-10-15-15.95a475.3,475.3,0,0,1-40.33-50.68c-1.06-1.55-2-3.62-4.51-3.39C19.19,484.18,13.39,476.05,9,467c1.35-.21,3.38-.49,5.88-.69,9.54-.78,20-1.62,27.9,3.95,2.19,1.54,6.21,5,8.89,12.16,2.31,0,3.18,1.72,3.75,3.44,2.63,8,6.83,15.2,10.9,22.4,5.1,9,7.79,19,12,26.48-5-25.26-4.87-52.78-7.75-80q1.18-10.74,2-22.18a484.68,484.68,0,0,0,.4-55.28c2.59-18,4.56-32.44,5.81-41.76,0,0,4.5-46.77,14.42-86.49,1.81-7.25,4.33-14.32,6.55-21.47a6.36,6.36,0,0,1,2.63-4.13c2.38,6.11,2.68,12.41,3.44,18.5,2.34,18.64,3.87,37.35,4.38,56.16,1,37.1.14,66,.06,70.35C109.16,420.6,106.71,445.12,105.19,458.34Z" style="fill:#5ea575"/><path d="M72,455.14c1.71,12.05,2,18,2.73,24.62,3.32,30.21,2.5,40.44,7.08,62.09.09.42-.21.93-.61,2.53-3-5.77-6.21-10.52-8.06-15.74-4.11-11.62-10.13-22.27-16-33-2.34-4.26-2.73-9.22-5.47-13.24a854.44,854.44,0,0,1-18.11-96c-3.26-26-4.85-52-3.3-78.16a11.45,11.45,0,0,1,1.49-5.69c2.2,2.58,3.15,5.55,4.27,8.38,11,27.92,18.52,56.89,25,86.12,0,0,4.71,20.75,8.8,44.35C70.73,446.57,71.39,450.71,72,455.14Z" style="fill:#518f66"/><path d="M92.9,544.12q2.11-14.57,4.77-29.74,3.83-21.88,8.31-42.22a360.44,360.44,0,0,1,17.52-43.27,284.41,284.41,0,0,1,23.87-41.16c1.18,3.54.59,5.87.18,8.2-4.35,24.16-12,47.39-20.13,70.45Q117.09,495.57,104,523.66C100.77,530.74,96.62,537.3,92.9,544.12Z" style="fill:#538e67"/><path d="M9,467c3.3,1.22,4.21,4.57,6,7,3.36,4.5,6.13,9.44,9.39,14,1,1.48.68,2.78.63,4.21-5.25,11.46-7.84,23.59-9,36.09-.54-.09-1-.05-1.09-.21C7.44,515.65,1.66,502.44.19,487.77-.64,479.44,1.06,471.8,9,467Z" style="fill:#347145"/><path d="M76,371.2a37.16,37.16,0,0,1-2,5.95l-1.13.9a4.46,4.46,0,0,1-4.37,2.54,4,4,0,0,1-2.39-1.33c-5.11-1.93-7.52-5.72-7.71-11.08-.15-4.05-.37-6.19-.44-10A125.7,125.7,0,0,0,56.79,344c-.53-4.31-.9-5.78-1.2-9.9-.22-3.05-.26-5.57-.26-7.26.6.77,1.49,1.9,2.63,3.25,1.3,1.56,2.42,2.59,2.75,3.17a19.83,19.83,0,0,0,6,6.93c.89-1.63,1-3.93,3.28-4.36,1.91-.34,3.58-.19,4.89,1.41,0,1,.12,3,.28,5.58C76.1,357.6,78,362.89,76,371.2Z" style="fill:#874e1d"/><path d="M109.35,407.06a3.75,3.75,0,0,1-.78-.66,5.55,5.55,0,0,1-1.29-3.74c-.22-7,3.18-22.52,3.18-22.52a91.54,91.54,0,0,0,1.78-11.89c4.72.44,9.19,2.37,14,2.41.71,0,1,.74.86,1.5-1.63,9.19-3.44,18.35-4.8,27.58-.7,4.72-2.51,8.1-7.25,9.52a4.16,4.16,0,0,1-5.69-2.2Z" style="fill:#864e1e"/><path d="M66.07,379.26a11.89,11.89,0,0,0,6.76-1.21c1.49,5.64.17,11.48,1.19,17.15.19,1-.81,2.39.81,3-.78,18.22-.28,36.48-1.88,54.67a8.2,8.2,0,0,1-.93,2.23q-1.08-6.86-2.18-13.72c1.66-1.64,1.21-3.74,1-5.66Q68.54,407.5,66.07,379.26Z" style="fill:#869696"/><path d="M74.86,337.19c-2.45.58-7.65-2.13-5.12,4.37a1.7,1.7,0,0,1-1.13,2,2.07,2.07,0,0,1-2.58-.91c-2.32-3-6.54-4.54-6.91-9.2-.09-1.15-1.86-2.17-2.85-3.25-2.43-4.68.23-7.51,3.67-10.05l.05,0c3.32-1,6.64-1.57,9.91.16C76.6,324.44,74.92,331.06,74.86,337.19Z" style="fill:#94663d"/><path d="M109.35,407.06a7.27,7.27,0,0,0,5.69,2.2q-4,21.72-8.1,43.46c-.37,1.94-.5,3.95-1.76,5.62Z" style="fill:#829999"/><path d="M127.09,372.16c-5.27-.1-10.85,1-14.85-3.91-.15-2.9,1.78-4.54,3.74-6.15,3.49-1.2,7-2.25,9.9,1.17C127.92,366,128.68,368.93,127.09,372.16Z" style="fill:#956d48"/><path d="M69.9,320.28c-3.3-.2-6.63,1.55-9.91-.16,2.19-1.59,2.11-3.89,2.09-6.25a189.71,189.71,0,0,1,.71-21.16c.75,6,1.65,12,2.2,18.07C65.34,314.72,66.26,318.15,69.9,320.28Z" style="fill:#789aaa"/><path d="M125.88,363.27a34.78,34.78,0,0,0-9.9-1.17c3.65-2,5.06-5,5.85-8.31.42-1.75,1.39-7.05,2.11-9.94.07-.27.18-.73.37-1.32a22.3,22.3,0,0,1,1.39-3.42c-.86,7.54-1.34,13.4-1.7,16.69A10,10,0,0,0,125.88,363.27Z" style="fill:#76a3b6"/><path d="M86.76,555.68c-2.86-103,2.09-205.58,13.5-307.91a106,106,0,0,1-.55,19.86c-1,7.78-.79,15.59-1.36,23.36-.67,8.91-1.18,17.9-1.44,26.87-.71,24.24-2.26,48.45-3.13,72.69-.51,13.93-1.23,27.87-2,41.79-1.29,25.23-1.86,50.48-3,75.7-.69,15.1-.88,30.22-1.83,45.31C86.94,554.13,86.84,554.91,86.76,555.68Z" style="fill:#4c8a5e"/><path d="M628.89,475.16c.83,7.22,1.63,13.2,2.2,17.27l-.62.28L628.1,489c-2-1.49-3.13-3.85-5.08-5.41-1.06-.84-2.26-1.66-3.62-.87-1.6.93-1.32,2.52-.95,4a9.65,9.65,0,0,0,2.26,3.82,6.11,6.11,0,0,1,1.62,3.48c.57,5.73.73,5.79,6.24,5.47.1,1.92-1.19,3.38-1.7,5.08-.92,3.07-.69,5.68,2.65,7,2.11.83,2.47,2.43,2.57,4.35.56,11.3,4.46,22.05,5.46,33.3.37,4.08,3.16,7.59,3.62,11.75,0,.64,0,1.28,0,1.93-.47,4.78,1.44,9,3,13.36.75,2.09,2.19,2.83,4.93,2.87,11.14.15,10.78-10,15-16a475.3,475.3,0,0,0,40.33-50.68c1.06-1.55,2-3.62,4.51-3.39,5.87-8.08,11.68-16.21,16.06-25.25-1.35-.21-3.39-.49-5.88-.7-9.54-.77-20-1.62-27.9,4-2.19,1.53-6.21,5-8.9,12.15-2.3,0-3.18,1.73-3.74,3.45-2.63,8-6.83,15.2-10.9,22.4-5.1,9-7.79,19-12,26.48,5-25.26,4.87-52.78,7.75-80-.79-7.16-1.46-14.56-1.95-22.18a487.11,487.11,0,0,1-.41-55.28c-2.58-18-4.55-32.44-5.8-41.76,0,0-4.5-46.78-14.42-86.5-1.82-7.24-4.33-14.32-6.55-21.46a6.38,6.38,0,0,0-2.63-4.14c-2.38,6.12-2.68,12.42-3.45,18.51-2.33,18.64-3.86,37.35-4.37,56.16-1,37.1-.14,66-.06,70.34C624.91,437.42,627.37,461.94,628.89,475.16Z" style="fill:#5ea575"/><path d="M662.06,472c-1.71,12.05-2,18-2.73,24.62-3.32,30.21-2.5,40.44-7.08,62.09-.09.42.21.93.61,2.53,3-5.77,6.21-10.52,8.06-15.74,4.11-11.62,10.13-22.27,16-33,2.34-4.27,2.73-9.22,5.47-13.24a854.44,854.44,0,0,0,18.11-96c3.25-26,4.85-52,3.3-78.16a11.45,11.45,0,0,0-1.49-5.69c-2.2,2.57-3.16,5.55-4.27,8.38-11,27.92-18.52,56.89-25,86.12,0,0-4.72,20.74-8.81,44.35C663.34,463.38,662.68,467.53,662.06,472Z" style="fill:#518f66"/><path d="M641.17,560.94q-2.1-14.57-4.76-29.74c-2.55-14.59-5.35-28.67-8.31-42.22a362.11,362.11,0,0,0-17.52-43.27,284.41,284.41,0,0,0-23.87-41.16c-1.18,3.54-.6,5.87-.18,8.2,4.35,24.16,12,47.39,20.13,70.45Q617,512.39,630,540.48C633.3,547.56,637.46,554.12,641.17,560.94Z" style="fill:#538e67"/><path d="M725.07,483.83c-3.3,1.22-4.21,4.57-6,7-3.36,4.5-6.14,9.44-9.39,14-1,1.48-.68,2.78-.63,4.21,5.25,11.45,7.84,23.59,9,36.09.54-.1,1,0,1.09-.21,7.56-12.5,13.34-25.7,14.81-40.37C734.72,496.26,733,488.62,725.07,483.83Z" style="fill:#347145"/><path d="M658.1,388a35.88,35.88,0,0,0,2,6l1.13.9a4.46,4.46,0,0,0,4.37,2.54,4,4,0,0,0,2.39-1.33c5.11-1.93,7.52-5.73,7.71-11.09.14-4,.37-6.19.43-9.95a131,131,0,0,1,1.13-14.28c.53-4.3.9-5.77,1.21-9.89.22-3.05.26-5.57.26-7.26-.6.76-1.5,1.9-2.63,3.25-1.31,1.56-2.42,2.59-2.76,3.17a19.78,19.78,0,0,1-6,6.93c-.89-1.63-.95-3.93-3.28-4.36-1.91-.35-3.58-.19-4.89,1.41,0,1-.12,3-.28,5.58C658,374.42,656.09,379.71,658.1,388Z" style="fill:#fdde5f"/><path d="M624.73,423.88a4.84,4.84,0,0,0,.78-.66,5.56,5.56,0,0,0,1.29-3.75c.22-7-3.18-22.51-3.18-22.51a91.54,91.54,0,0,1-1.78-11.89c-4.72.44-9.19,2.37-14,2.41-.7,0-1,.74-.85,1.5,1.62,9.19,3.44,18.35,4.8,27.58.7,4.72,2.51,8.1,7.24,9.51a4.26,4.26,0,0,0,3.25.18A4.32,4.32,0,0,0,624.73,423.88Z" style="fill:#fdde5f"/><path d="M668,396.08a12,12,0,0,1-6.76-1.21c-1.49,5.64-.17,11.48-1.2,17.15-.18,1,.81,2.39-.81,3,.79,18.22.29,36.48,1.89,54.67a8.2,8.2,0,0,0,.93,2.23q1.08-6.85,2.17-13.72c-1.66-1.64-1.2-3.74-1-5.67Q665.55,424.33,668,396.08Z" style="fill:#869696"/><path d="M659.22,354c2.44.58,7.65-2.13,5.12,4.37a1.71,1.71,0,0,0,1.12,2,2.06,2.06,0,0,0,2.58-.92c2.32-3,6.55-4.53,6.91-9.19.09-1.16,1.86-2.17,2.86-3.25,2.43-4.69-.23-7.51-3.67-10.05l0,0c-3.32-1-6.64-1.57-9.92.16C657.48,341.26,659.16,347.87,659.22,354Z" style="fill:#e1c84e"/><path d="M624.73,423.88a7.24,7.24,0,0,1-5.7,2.19q4.07,21.74,8.11,43.46c.36,1.94.5,4,1.75,5.63Q626.81,449.53,624.73,423.88Z" style="fill:#829999"/><path d="M607,389c5.26-.1,10.85,1,14.85-3.91.15-2.9-1.78-4.54-3.74-6.15-3.49-1.21-7-2.25-9.91,1.17C606.16,382.83,605.4,385.75,607,389Z" style="fill:#e1c84e"/><path d="M647.31,572.5c2.87-103-2.08-205.59-13.49-307.91a106,106,0,0,0,.55,19.86c1,7.78.78,15.59,1.36,23.36.67,8.9,1.18,17.89,1.44,26.87.71,24.24,2.25,48.45,3.13,72.69.51,13.93,1.23,27.87,1.94,41.79,1.3,25.23,1.87,50.48,3,75.7.69,15.1.88,30.22,1.83,45.31C647.14,571,647.24,571.72,647.31,572.5Z" style="fill:#4c8a5e"/></g></g></svg>