<svg xmlns="http://www.w3.org/2000/svg" viewBox="0 0 12.33 35"><defs><style>.cls-1{fill:#54a24a;}.cls-2{fill:#2e8414;}.cls-3{fill:#f4aa0e;}.cls-4{fill:#ed9304;}.cls-5{fill:#f4d188;}.cls-6{fill:#fbfcfb;}.cls-7{fill:#f5f9f4;}.cls-8{fill:#56a34a;}.cls-9{fill:#55a34a;}.cls-10{fill:#57a34b;}.cls-11{fill:#56a34b;}.cls-12{fill:#4b514e;}.cls-13{fill:#4a524d;}</style></defs><g id="Capa_2" data-name="Capa 2"><g id="START11"><g id="Grasas"><path class="cls-1" d="M1.92,34.32A3.87,3.87,0,0,1,0,30.91q0-7.68,0-15.36a5.74,5.74,0,0,1,2.3-4.67A3.61,3.61,0,0,0,3.84,7.72c0-1.71,0-3.42,0-5.12a.36.36,0,0,1,.23-.14,13.11,13.11,0,0,1,3.7.06c.33.31.26.72.25,1.09a57.17,57.17,0,0,0,.26,6.27,22.48,22.48,0,0,0,1,4.3,1.78,1.78,0,0,1,.12,1.32.82.82,0,0,1-.59.1c-1.57-.12-3.14,0-4.71,0a3.29,3.29,0,0,0-.54,0c-1,.16-1.42.54-1.43,1.57q0,6.15,0,12.29c0,1.06.49,1.51,1.56,1.61a9,9,0,0,1,1.56.09c.31.11.28.35.15.54C4.56,33,3.6,34.13,1.92,34.32Z"/><path class="cls-2" d="M9.44,15.45A29.54,29.54,0,0,1,7.89,8c0-1.81,0-3.63-.09-5.44a.5.5,0,0,1,.7,0c0,1.79,0,3.59,0,5.39A3.19,3.19,0,0,0,9.81,10.7a6.15,6.15,0,0,1,2.52,5.18c0,4.92,0,9.83,0,14.74A4.13,4.13,0,0,1,7.91,35C6.61,35,5.32,35,4,35a3.46,3.46,0,0,1-2.1-.67,6.62,6.62,0,0,0,3.3-2.55c.1-.15.17-.31.26-.47.25-.25.58-.2.9-.21.75,0,1.5,0,2.25,0,1.06-.1,1.52-.55,1.53-1.62,0-4.09,0-8.18,0-12.27C10.18,16.46,9.69,16,9.44,15.45Z"/><path class="cls-3" d="M3.16,2.19A1.56,1.56,0,0,1,4.55,0C5.61,0,6.67,0,7.74,0A1.46,1.46,0,0,1,9,.71c.15,1.11-.18,1.56-1.28,1.56A31.45,31.45,0,0,1,3.16,2.19Z"/><path class="cls-4" d="M3.16,2.19c.24-.21.52-.12.78-.12H7.13c1.53,0,1.53,0,1.86-1.36.61,1,.47,1.53-.49,1.89H3.83C3.59,2.48,3.28,2.49,3.16,2.19Z"/><path class="cls-5" d="M9.44,15.45a1.77,1.77,0,0,1,1,1.74c0,4.09,0,8.17,0,12.26,0,1.25-.53,1.79-1.77,1.81l-3.13,0c-.62,0-1.23,0-1.84,0a1.54,1.54,0,0,1-1.7-1.76V17.17c0-1.21.49-1.78,1.71-1.79A53.26,53.26,0,0,1,9.44,15.45Z"/><path class="cls-6" d="M3.64,11.9a2,2,0,0,1-1.05,1,.39.39,0,0,1-.43-.42c0-.36.7-1,1.07-1A.43.43,0,0,1,3.64,11.9Z"/><path class="cls-7" d="M2,14.48c-.16.34-.1.85-.63.93A.36.36,0,0,1,1,15c.05-.39.06-.87.56-1C1.8,14,2,14.18,2,14.48Z"/><path class="cls-8" d="M4.93,24.74A2.09,2.09,0,0,1,3.71,23c0-.19-.1-.44.12-.55s.39.08.55.19a1.75,1.75,0,0,1,.83,1.53c.22.23.31-.2.5-.09.56,0,1.12-.27,1.7,0,.36.19.45.31.11.61a2.06,2.06,0,0,1-2.3.16A.32.32,0,0,1,4.93,24.74Z"/><path class="cls-9" d="M6.87,21.31c.12-.22,0-.44,0-.66a2.46,2.46,0,0,1,1.21-2.47c.31-.21.48-.27.57.21.25,1.31-.13,2.11-1.48,3C7.05,21.41,7,21.42,6.87,21.31Z"/><path class="cls-10" d="M6.79,22.18a2.3,2.3,0,0,1,1.82-.08c.37.17.45.3.1.58a2,2,0,0,1-2.27.16C6.28,22.48,6.44,22.28,6.79,22.18Z"/><path class="cls-11" d="M6.08,22.81c0-.26-.25-.3-.41-.42a1.71,1.71,0,0,1-.75-1.78c0-.11,0-.21.2-.21.42,0,1,.71,1.22,1.42,0,.09.06.18.08.26C6.52,22.43,6.46,22.7,6.08,22.81Z"/><path class="cls-12" d="M4.93,24.74a.31.31,0,0,1,.29.15,10.35,10.35,0,0,1-2.16,2.68C3.65,26.6,4.35,25.71,4.93,24.74Z"/><path class="cls-13" d="M6.08,22.81c.27-.17.25-.47.34-.73l.45-.77.29,0-.37.82c-.12.23-.36.38-.35.67-.25.42-.49.84-.73,1.26-.17.12-.17.43-.46.4a2.4,2.4,0,0,1,0-.31A8.65,8.65,0,0,0,6.08,22.81Z"/></g></g></g></svg>