<svg xmlns="http://www.w3.org/2000/svg" viewBox="0 0 28.3 33.84"><defs><style>.cls-1{fill:#feebce;}.cls-2{fill:#a56a43;}.cls-3{fill:#e7e3d7;}.cls-4{fill:#feefda;}.cls-5{fill:#d8d4c9;}.cls-6{fill:#87888c;}.cls-7{fill:#999a9e;}.cls-8{fill:#7d5032;}.cls-9{fill:#d9d5ca;}.cls-10{fill:#fec139;}.cls-11{fill:#fed45d;}</style></defs><g id="Capa_2" data-name="Capa 2"><g id="START11"><g id="Grasas"><path class="cls-1" d="M28.29,23v9.49c0,1-.38,1.36-1.36,1.36H19c-1,0-1.4-.36-1.41-1.38,0-1.73,0-3.47,0-5.2,0-.25.08-.52-.11-.75a.37.37,0,0,1-.17-.36,13.4,13.4,0,0,0,0-2.37.38.38,0,0,1,.17-.37c.19-.22.11-.49.11-.74q0-4.56,0-9.13a.92.92,0,0,1,.86-.13.58.58,0,0,1,.21.1A20.38,20.38,0,0,1,20,15.93a.43.43,0,0,1-.15.61.82.82,0,0,0-.33.8q0,5,0,9.94c0,.52.23.69.72.69,1.79,0,3.57,0,5.36,0,.57,0,.79-.21.78-.79,0-1.22,0-2.44,0-3.66a2.51,2.51,0,0,1,.1-1,.37.37,0,0,1,.52-.18A3.9,3.9,0,0,1,28.29,23Z"/><path class="cls-2" d="M17.47,23.41a10.39,10.39,0,0,1,0,3.1,8.21,8.21,0,0,1-2.12,4.26.83.83,0,0,0-.86-.1A9.52,9.52,0,0,1,9,31l-.28-.05c-.2,0-.38,0-.43.24s.12.35.3.41a11.08,11.08,0,0,0,2.36.39,10,10,0,0,0,2.31-.18c.29-.06.6-.15.86.11a9.72,9.72,0,0,1-8.19,1.7A1.49,1.49,0,0,1,6.48,32a.43.43,0,0,0,.12-.62c-.19-.26-.42-.05-.61.06a1.85,1.85,0,0,0-.82,1.09c-.07.24-.06.51-.27.7A8.77,8.77,0,0,1,1,30.75a.3.3,0,0,1,.32-.07c1.8.65,3.35-.11,4.88-.9a15.12,15.12,0,0,0,2.86-2c.23-.19.43-.45.78-.43.34.23.32.59.33.94a2.61,2.61,0,0,0,0,.56c0,.2.14.36.35.38s.29-.2.33-.37a2.76,2.76,0,0,0-.36-2.15c0-.42.33-.66.56-.94a16.86,16.86,0,0,0,2.12-3.17c.1-.21.19-.44.47-.47a1.38,1.38,0,0,1,.73,1.45,3.93,3.93,0,0,0-.06.48.4.4,0,0,0,.35.38c.21,0,.28-.12.35-.27a2.3,2.3,0,0,0-.65-2.48c-.18-.14-.43-.2-.52-.45a1.92,1.92,0,0,1,.1-.75A3.64,3.64,0,0,0,14,18.55a.61.61,0,0,1,.08-.66A9.27,9.27,0,0,1,17.47,23.41Z"/><path class="cls-3" d="M13.62,22.13a19.12,19.12,0,0,1-3.11,4.5.8.8,0,0,1-.7.7,17,17,0,0,1-4.37,3A5.83,5.83,0,0,1,1.85,31,8.87,8.87,0,0,1,1,30.75,2.77,2.77,0,0,1,.06,28a12.52,12.52,0,0,1,3.08-5.88A16.65,16.65,0,0,1,9,17.56a5.09,5.09,0,0,1,3.64-.6,2.38,2.38,0,0,1,1.41.93,5.38,5.38,0,0,1-.13,3.41A.68.68,0,0,1,13.62,22.13Z"/><path class="cls-4" d="M28.29,23c-.62,0-1.1-.42-1.66-.57a.41.41,0,0,1-.17-.2,32.49,32.49,0,0,1-.09-4.07c0-1.7.17-1.52-1.55-1.55a42.27,42.27,0,0,1-4.64-.09.47.47,0,0,1-.2-.17l-1.41-2.79a.86.86,0,0,1,.72-.21c.46,0,.93,0,1.4,0a3.7,3.7,0,0,0,2.84-1,5.08,5.08,0,0,1,4.18-1.26.94.94,0,0,1,.58.21Z"/><path class="cls-3" d="M28.29,11.29c-.49,0-1,0-1.48,0a4.29,4.29,0,0,0-3.23,1.29,3.79,3.79,0,0,1-2.76,1c-.75,0-1.5,0-2.25,0h0c-.61-.44-.64-1.15-.84-1.78a2.39,2.39,0,0,0-.14-.6c0-.52,0-1,0-1.54a1.06,1.06,0,0,1,1.13-1.14c.56,0,1.12,0,1.68,0a1,1,0,0,1,.72-.23c1.21,0,2.43,0,3.64,0a1,1,0,0,1,.72.23c.55,0,1.11,0,1.67,0a1.06,1.06,0,0,1,1.14,1.13C28.31,10.17,28.29,10.73,28.29,11.29Z"/><path class="cls-5" d="M25.48,8.47H20.4c0-.74,0-1.49,0-2.23a.84.84,0,0,1,.7-.26c1.23,0,2.46,0,3.7,0a.83.83,0,0,1,.69.26Z"/><path class="cls-6" d="M25.48,6.24H20.39c-1.12-.06-1.12-.06-1.12-1.19V4.49c0-1.13,0-1.13,1.13-1.07a.52.52,0,0,1,.12.17C21,4.86,21,4.86,22.44,4.86h3.22a1.17,1.17,0,0,1,.92.22C26.64,6.18,26.64,6.18,25.48,6.24Z"/><path class="cls-7" d="M26.58,5.09h-4.5c-1.41,0-1.67-.26-1.68-1.67l.56,0a.92.92,0,0,1,.58-.22c.93,0,1.87,0,2.8,0a1,1,0,0,1,.58.22H25C26.67,3.41,26.67,3.41,26.58,5.09Z"/><path class="cls-8" d="M14.07,31.87a21,21,0,0,1-3.26.29,14.69,14.69,0,0,1-2.47-.44c-.32-.08-.55-.19-.39-.63s.29-.57.71-.44a9.1,9.1,0,0,0,6.15-.33c.51-.2.55.07.54.45A4.1,4.1,0,0,1,14.07,31.87Z"/><path class="cls-8" d="M24.92,3.39H21c-.15-.94-.27-1.89-.47-2.81-.11-.5,0-.62.48-.57.27,0,.55,0,.83,0,.28.27.22.65.31,1,.19.77.46,1,1.26,1,.56,0,1.16-.17,1.69.21Z"/><path class="cls-2" d="M25.06,2.27c-.49,0-1,0-1.47,0C22.13,2.36,22,1.74,21.82.6a5.15,5.15,0,0,1,0-.56l3.3,0c.24,0,.43,0,.34.34A18.1,18.1,0,0,1,25.06,2.27Z"/><path class="cls-8" d="M4.9,33.27a2,2,0,0,1,1.23-2.08c.22-.11.52-.33.68,0s.21.76-.06.91a1.22,1.22,0,0,0-.69,1.41s-.12,0-.18.08A2.24,2.24,0,0,1,4.9,33.27Z"/><path class="cls-9" d="M17.59,11.16c.46.73.55,1.63,1,2.38h-1Z"/><path class="cls-10" d="M20,16.34l.14,0a1.14,1.14,0,0,1,.48.39,18.11,18.11,0,0,0,5.49,5,1,1,0,0,1,.49.48l0,.13c0,1.71,0,3.43,0,5.14,0,.53-.16.66-.68.66-2,0-4,0-6.05,0-.49,0-.63-.15-.63-.64,0-3.49,0-7,0-10.48C19.25,16.52,19.41,16.29,20,16.34Z"/><path class="cls-8" d="M14.57,28.21A1.88,1.88,0,0,1,13,27.47c-.19-.22-.58-.54-.27-.8s.73-.5,1.13.06a.75.75,0,0,0,1.3,0,.67.67,0,0,1,1.07-.08c.35.3,0,.6-.25.85A1.72,1.72,0,0,1,14.57,28.21Z"/><path class="cls-8" d="M13.62,22.13l.31-.83c.9.11,1.11.87,1.34,1.52A2.14,2.14,0,0,1,15,24.63c-.14.23-.36.09-.47,0s-.65-.17-.47-.57A1.67,1.67,0,0,0,13.62,22.13Z"/><path class="cls-8" d="M9.81,27.33l.7-.7a2.53,2.53,0,0,1,.37,2.71c-.09.14-.17.32-.36.16s-.73-.25-.61-.73A2.52,2.52,0,0,0,9.81,27.33Z"/><path class="cls-5" d="M11.94,20.41a5.65,5.65,0,0,1-1.19,2.95,15.19,15.19,0,0,1-5.41,4.91,5.92,5.92,0,0,1-1.46.47,1.24,1.24,0,0,1-1.49-1.55,7.82,7.82,0,0,1,1.67-3.28,16.38,16.38,0,0,1,4.41-4,6,6,0,0,1,2-.73A1.15,1.15,0,0,1,11.94,20.41Z"/><path class="cls-11" d="M26.58,22.29a18.05,18.05,0,0,1-6.46-5.91c2,0,4,0,6,0,.4,0,.53.12.53.52C26.59,18.68,26.59,20.48,26.58,22.29Z"/></g></g></g></svg>