<svg xmlns="http://www.w3.org/2000/svg" viewBox="0 0 32.41 31.63"><defs><style>.cls-1{fill:#dbe25c;}.cls-2{fill:#608f00;}.cls-3{fill:#486c00;}.cls-4{fill:#96692b;}.cls-5{fill:#c88b39;}.cls-6{fill:#91c438;}.cls-7{fill:#d3a260;}</style></defs><g id="Capa_2" data-name="Capa 2"><g id="START11"><g id="Grasas"><path class="cls-1" d="M16.9,10.77a18.78,18.78,0,0,0,4.65-3.91C23,5.25,24.39,3.57,26.4,2.6A3.51,3.51,0,0,1,31.08,4a5.54,5.54,0,0,1-.42,4.76A12.91,12.91,0,0,1,29,11.11a12.23,12.23,0,0,0-3,7.41,11.18,11.18,0,0,1-4.84,8.84,9,9,0,0,1-9.5.79,8.59,8.59,0,0,1-2.2-1.73,7.32,7.32,0,0,1-.7-8.94,15.54,15.54,0,0,1,4.65-4.59c1-.68,2-1.27,3-2A.75.75,0,0,1,16.9,10.77Z"/><path class="cls-2" d="M4.42,28.4a7.92,7.92,0,0,1-4-5.07,8.91,8.91,0,0,1,.51-6.72A14,14,0,0,1,2,14.68a18.55,18.55,0,0,0,3.11-8.2,15.79,15.79,0,0,1,.76-3.23,4.8,4.8,0,0,1,7.73-2,17.73,17.73,0,0,1,.71,5.47,7.41,7.41,0,0,1-2.18,5.21c-1,1-2,1.91-3,2.87A9.42,9.42,0,0,0,6.34,21a37.68,37.68,0,0,1-.54,4.72A7.83,7.83,0,0,1,5,28C4.86,28.2,4.76,28.47,4.42,28.4Z"/><path class="cls-3" d="M4.42,28.4a5.07,5.07,0,0,0,1.19-2.67,38.15,38.15,0,0,0,.55-4.88A9.08,9.08,0,0,1,8.65,15c1.1-1.1,2.25-2.15,3.36-3.25a7,7,0,0,0,2.12-5.06,17.44,17.44,0,0,0-.56-4.94c-.05-.19-.18-.37,0-.53a5.45,5.45,0,0,1,1.94,3.55,59,59,0,0,0,1.35,6,14.8,14.8,0,0,1-2,1.38,22.26,22.26,0,0,0-5,4.1,7.51,7.51,0,0,0-1.14,8.81,9.53,9.53,0,0,0,.84,1.23A19.07,19.07,0,0,0,12.25,29c.21.17.6.26.43.68a14.38,14.38,0,0,1-7.54-.85A1.85,1.85,0,0,1,4.42,28.4Z"/><path class="cls-2" d="M12.68,29.66c-.1-.41-.51-.5-.77-.74a9.72,9.72,0,0,1-2.36-2.63,8.05,8.05,0,0,0,4.34,2.48,9.5,9.5,0,0,0,9.6-3.89,11.54,11.54,0,0,0,2.35-6.39,11.84,11.84,0,0,1,3-7.47c.37-.41.68-.9,1-1.34A6.67,6.67,0,0,0,31.08,4a4.25,4.25,0,0,1,.76,1.46,19,19,0,0,1-1.66,8.1,55.29,55.29,0,0,0-2.51,7.59,19.7,19.7,0,0,1-1.46,4.11,10.62,10.62,0,0,1-9.5,5.94,1,1,0,0,0-.25.07,12,12,0,0,1-3.13-1.34A1,1,0,0,0,12.68,29.66Z"/><path class="cls-3" d="M16.46,31.23c.48-.5,1.12-.22,1.67-.33a10.74,10.74,0,0,0,8.65-7.52c.79-2.32,1.28-4.72,2.07-7,.5-1.48,1.25-2.85,1.72-4.34a23,23,0,0,0,1.06-5.19,3.88,3.88,0,0,1,.21-1.39,7.56,7.56,0,0,1,.37,4.6c-.65,2.81-1,5.66-1.42,8.52a16.53,16.53,0,0,1-6.34,11.21A8.52,8.52,0,0,1,16.46,31.23Z"/><path class="cls-4" d="M17.78,13.39c.6,0,1.21,0,1.82,0,1.82.09,2.63,1.36,1.9,3a10.27,10.27,0,0,1-3.67,4.3A6.8,6.8,0,0,1,15,22a1.77,1.77,0,0,1-2.15-1.21c.07-.41.42-.31.66-.35a7.15,7.15,0,0,0,3.06-1.2c1.41-1,2.56-3.3,1.32-5.28C17.73,13.81,17.59,13.61,17.78,13.39Z"/><path class="cls-5" d="M17.78,13.39c0,.42.35.69.51,1,.85,2-.43,4.36-2.13,5.31a7.91,7.91,0,0,1-3.07,1,.93.93,0,0,0-.29.13A5.34,5.34,0,0,1,14,15.51,6.24,6.24,0,0,1,17.78,13.39Z"/><path class="cls-6" d="M6.17,7.61a9.32,9.32,0,0,1,.69-3.08c.14-.33.34-.71.78-.66s.58.41.71.76a4.2,4.2,0,0,1-1.29,4,.54.54,0,0,1-.88-.36A2.73,2.73,0,0,1,6.17,7.61Z"/><path class="cls-7" d="M15.29,17.49a1.33,1.33,0,0,1-.39,1.17.62.62,0,0,1-.71.15.56.56,0,0,1-.34-.58,2.7,2.7,0,0,1,.65-1.65c.12-.14.24-.36.47-.27a.54.54,0,0,1,.32.58C15.28,17.07,15.29,17.24,15.29,17.49Z"/></g></g></g></svg>