<svg xmlns="http://www.w3.org/2000/svg" viewBox="0 0 32.74 30.97"><defs><style>.cls-1{fill:#fdd0a2;}.cls-2{fill:#fee4c0;}.cls-3{fill:#febb85;}</style></defs><g id="Capa_2" data-name="Capa 2"><g id="START11"><g id="Verduras"><path class="cls-1" d="M11.76,26.83H10.1a6.85,6.85,0,0,1-4-3.93c-2-4.76-1.31-9.12,2-13.08.85-1,1.83-1.9,2.71-2.88a6.89,6.89,0,0,0,1.61-4.59c0-.32,0-.64,0-1a.82.82,0,0,1,.3-.73c.27-.33.53-.66,1-.63.36.19.3.53.31.84,0,1,0,2,0,3A8.35,8.35,0,0,0,16.6,9.14a28.49,28.49,0,0,1,2.74,3.36,12.33,12.33,0,0,1,1.92,6.14c0,.7,0,1.4,0,2.1a3.16,3.16,0,0,1-1.56.8,41,41,0,0,1-7.21,1.9c-1.19.21-1.28.32-1.1,1.5a6.52,6.52,0,0,0,.31,1.23C11.79,26.38,12,26.6,11.76,26.83Z"/><path class="cls-2" d="M11.76,26.83a13.45,13.45,0,0,1-.59-2.06c-.16-1,0-1.32,1-1.48a40.75,40.75,0,0,0,7.23-1.83c.62-.22,1.21-.49,1.81-.74.35-.45.91-.49,1.36-.75a14.71,14.71,0,0,0,5.15-3.86c.79-.31,1.07-1.09,1.54-1.69a14.54,14.54,0,0,0,1.36-2.19c.33-.63.52-.67,1.06-.33a13.27,13.27,0,0,1-.35,3.92,18.32,18.32,0,0,1-2.76,7.48,12.91,12.91,0,0,1-8.06,5.52,20.94,20.94,0,0,1-6.06.57A9,9,0,0,1,11.76,26.83Z"/><path class="cls-1" d="M7.81,26.83A7.51,7.51,0,0,1,.42,21.16a10.45,10.45,0,0,1,1.79-9.39A16.74,16.74,0,0,1,6.3,8.18c.75-.51,1.49-1.06,2.19-1.64a5.77,5.77,0,0,0,2-4.87A1.17,1.17,0,0,1,11.77.29a7.41,7.41,0,0,1-2,6.55,33.05,33.05,0,0,0-3.35,3.83,12.5,12.5,0,0,0-2.64,7.89,10,10,0,0,0,3.14,7.35C7.24,26.19,7.76,26.28,7.81,26.83Z"/><path class="cls-1" d="M27.73,16.11c0,.66-.62.92-1,1.31a13.56,13.56,0,0,1-4.1,2.65c-.22-.22-.1-.47-.09-.72A12.53,12.53,0,0,0,22,14a15.76,15.76,0,0,0-3.27-4.9c-.65-.7-1.36-1.34-2-2.07a6.9,6.9,0,0,1-1.52-4.24,6.91,6.91,0,0,1,0-2.08A1.42,1.42,0,0,1,16.87.41a1.32,1.32,0,0,1,.66,1.41,6.11,6.11,0,0,0,2.95,5.5,29.59,29.59,0,0,1,4.77,3.8A9.69,9.69,0,0,1,27.73,16.11Z"/><path class="cls-1" d="M14.46,29.39a8.17,8.17,0,0,1,2.31-.22,16.72,16.72,0,0,0,7.14-1.83,12.53,12.53,0,0,0,5.1-5.1,20.42,20.42,0,0,0,2.31-7.54c.11-.94.25-1.87.37-2.8A1.52,1.52,0,0,1,32.27,13a19.13,19.13,0,0,1-.39,10,11,11,0,0,1-9.31,7.82A12.14,12.14,0,0,1,14.46,29.39Z"/><path class="cls-3" d="M7.81,26.83a10.12,10.12,0,0,1-2.8-3,11.25,11.25,0,0,1-1.26-3.71,11.35,11.35,0,0,1,.47-5.69A16.66,16.66,0,0,1,7.29,9.28a46,46,0,0,0,3.37-3.89,5.19,5.19,0,0,0,1-3.22A4.28,4.28,0,0,1,11.77.29a1.12,1.12,0,0,1,1,.37,3,3,0,0,0-.13,1.07A7.63,7.63,0,0,1,10,8.12a15.81,15.81,0,0,0-3.55,4.53,10,10,0,0,0-1.23,4.42,12.37,12.37,0,0,0,1,5.63,8,8,0,0,0,3.43,3.79c.16.09.36.14.44.34Z"/><path class="cls-3" d="M15.22.66a4,4,0,0,1,.12,1.45A7.18,7.18,0,0,0,17.69,7.8a18.22,18.22,0,0,1,3.78,4.69,9.48,9.48,0,0,1,1.28,4.41,16.79,16.79,0,0,1-.13,3.17,6,6,0,0,1-1.4.65,2.51,2.51,0,0,1-.12-1.43,12.48,12.48,0,0,0-1.43-5.87,17,17,0,0,0-2.37-3.21c-1.23-1.41-2.57-2.74-3.06-4.62A18.42,18.42,0,0,1,13.94,1,1.75,1.75,0,0,0,13.81,0,1.3,1.3,0,0,1,15.22.66Z"/></g></g></g></svg>