<svg xmlns="http://www.w3.org/2000/svg" viewBox="0 0 30.68 31.35"><defs><style>.cls-1{fill:#f5a86c;}.cls-2{fill:#d78955;}.cls-3{fill:#e99a58;}.cls-4{fill:#c47a44;}.cls-5{fill:#e99b58;}.cls-6{fill:#c57a44;}</style></defs><g id="Capa_2" data-name="Capa 2"><g id="START11"><g id="Grasas"><path class="cls-1" d="M9.71,31.33A8.28,8.28,0,0,1,4.32,29.2,12.1,12.1,0,0,1,.61,22.47a18.43,18.43,0,0,1,.53-11.16A26.37,26.37,0,0,1,6,3.67,26.78,26.78,0,0,1,9.21.5,6.78,6.78,0,0,1,11,2a32.53,32.53,0,0,1,4.21,5.15A18,18,0,0,1,18.39,16,18.55,18.55,0,0,1,16,27,9.18,9.18,0,0,1,11,31.1C10.55,31.24,10.11,31.18,9.71,31.33Z"/><path class="cls-2" d="M18.18,29.9a6.09,6.09,0,0,1-2.72-.16c-.16-.3.06-.47.24-.62a12.51,12.51,0,0,0,3.72-6.72A25.32,25.32,0,0,0,20,17.27a18.2,18.2,0,0,0-.36-3.45c.68-1,1.24-2.06,1.9-3.06a2,2,0,0,0,.18-.32c.08-.19.2-.41,0-.54s-.37.08-.48.24c-.46.63-.82,1.32-1.24,2-.12.2-.21.46-.53.42a3.6,3.6,0,0,1-.65-1.35c-.23-.56-.52-1.1-.71-1.68a8.43,8.43,0,0,1,.86-1,2.92,2.92,0,0,0,.28-.32c.11-.15.2-.33,0-.49s-.33,0-.48.07c-.37.27-.57.74-1,.91-.23-.05-.31-.25-.41-.41-.37-.6-.75-1.19-1.14-1.78-.11-.16-.36-.34,0-.54a27.77,27.77,0,0,1,8-3.93c.71-.24,1.44-.41,2.16-.61a1.53,1.53,0,0,1,.48.83,34.38,34.38,0,0,1,2.05,9.35,17.51,17.51,0,0,1-1.14,8.09,18.83,18.83,0,0,1-7,8.83,7,7,0,0,1-3.37,1.34C17.64,29.82,17.93,29.64,18.18,29.9Z"/><path class="cls-3" d="M18.15,9.44a18.69,18.69,0,0,1,1.35,3.07,1.09,1.09,0,0,1,.24,1.21,13.71,13.71,0,0,1,.41,4.38,28.2,28.2,0,0,1-.53,4.2,13.6,13.6,0,0,1-2.87,6c-.42.49-1.07.75-1.29,1.41a1,1,0,0,0-.66.26,8.34,8.34,0,0,1-5.09,1.33c.26-.3.64-.22,1-.31a9.15,9.15,0,0,0,5.26-4.19A15.58,15.58,0,0,0,18,20.4a23.05,23.05,0,0,0,.24-3.52,16.24,16.24,0,0,0-1.37-6.14,27.7,27.7,0,0,0-5.52-8A21.46,21.46,0,0,1,9.21.5c.62-.63,1-.66,1.68-.11a34.36,34.36,0,0,1,4.84,5.17c.12.15.2.36.45.36,0,.07-.06.18,0,.22.62.76,1.05,1.65,1.62,2.45C18,8.81,18.33,9,18.15,9.44Z"/><path class="cls-4" d="M18.18,29.9h-.86c.62-.34,1.3-.5,1.92-.79a14.35,14.35,0,0,0,4.92-3.93,21.19,21.19,0,0,0,3.52-5.81,18.58,18.58,0,0,0,1-4.74,21.47,21.47,0,0,0-.06-4,28.38,28.38,0,0,0-1.26-6.18c-.32-1-.69-2-1-3.06.18,0,.35-.11.53-.15,1-.23,1.26-.09,1.62.86A34,34,0,0,1,30.44,9.7,19.52,19.52,0,0,1,30,18a18.59,18.59,0,0,1-7.82,10.57A8.25,8.25,0,0,1,18.18,29.9Z"/><path class="cls-5" d="M15.81,17.37a29,29,0,0,1-.22,4.79c-.06.37-.17.67-.59.6s-.42-.41-.37-.77c.09-.62.18-1.25.21-1.87,0-.87.1-1.75.1-2.62a27.63,27.63,0,0,0-.64-6.21c-.1-.4-.18-.79-.28-1.19s0-.64.36-.71.51.22.57.5c.23,1,.45,2,.62,3A21.09,21.09,0,0,1,15.81,17.37Z"/><path class="cls-5" d="M4.32,18.53V17.12c0-.31.13-.53.44-.56s.45.24.51.5a1.67,1.67,0,0,1,0,.55,30.91,30.91,0,0,0,1,8.67c.1.38.08.67-.33.76s-.5-.2-.59-.53a28,28,0,0,1-1-6.11C4.39,19.74,4.3,19.07,4.32,18.53Z"/><path class="cls-5" d="M12,21.61a58.33,58.33,0,0,1-.61,7.7c-.06.35-.19.62-.57.55s-.41-.37-.35-.76a40.11,40.11,0,0,0,.43-4.1c.07-1.69.16-3.37.24-5.05,0-.29.13-.5.41-.51s.45.2.45.52C12,20.51,12,21.06,12,21.61Z"/><path class="cls-5" d="M11.89,11.24c0,.3.06.6.06.91a.42.42,0,0,1-.44.47c-.29,0-.44-.11-.46-.42-.08-1.15-.15-2.3-.25-3.45-.09-1-.22-2-.33-2.95a.14.14,0,0,1,0-.06c0-.38-.18-.94.36-1s.56.47.61.9C11.65,7.49,11.8,9.36,11.89,11.24Z"/><path class="cls-5" d="M8.07,14.15l.27-3.87c0-.34.18-.62.56-.57s.31.42.31.69c0,1.56-.2,3.11-.12,4.68a.53.53,0,0,1,0,.18c-.12.31-.11.79-.56.75s-.41-.47-.41-.82v-1Z"/><path class="cls-5" d="M9.37,27.15c0,.25-.06.5-.37.52s-.44-.19-.53-.48A16.66,16.66,0,0,1,8.26,25c-.13-.83,0-1.7-.14-2.55-.07-.38.1-.75.48-.78s.48.36.5.73C9.17,24,9.28,25.56,9.37,27.15Z"/><path class="cls-5" d="M6.15,10c-.16.77-.33,1.56-.5,2.35-.07.32-.32.34-.57.28a.38.38,0,0,1-.34-.47,22.57,22.57,0,0,1,.49-2.31c.08-.31.26-.52.6-.48S6.14,9.69,6.15,10Z"/><path class="cls-6" d="M27.63,11.93a18.64,18.64,0,0,1-.73,2.75,36.51,36.51,0,0,1-4.46,8.7c-.14.22-.28.42-.57.37s-.51-.43-.28-.8c.92-1.41,1.79-2.85,2.58-4.34a27.48,27.48,0,0,0,2.43-6.35,2,2,0,0,1,.19-.58c.12-.21.35-.19.55-.12A.4.4,0,0,1,27.63,11.93Z"/><path class="cls-6" d="M23,12.61a4.16,4.16,0,0,1,.56-1.4c.77-1.66,1.42-3.36,2.11-5.05.14-.33.32-.56.67-.42s.36.41.23.76c-.83,2.1-1.73,4.16-2.63,6.22a.53.53,0,0,1-.61.39C23.08,13.06,23,12.85,23,12.61Z"/><path class="cls-6" d="M19.74,13.72l-.24-1.21a20.86,20.86,0,0,0,1.28-2c.14-.2.25-.42.4-.61s.33-.44.65-.23a.45.45,0,0,1,.13.69c-.39.67-.79,1.33-1.18,2-.21.34-.43.69-.63,1C20.05,13.57,20,13.73,19.74,13.72Z"/><path class="cls-6" d="M18.15,9.44c0-.34-.34-.53-.37-.85.35-.37.69-.74,1-1.1a.38.38,0,0,1,.55,0c.15.13.31.33.17.53A4.69,4.69,0,0,1,18.15,9.44Z"/></g></g></g></svg>