<svg xmlns="http://www.w3.org/2000/svg" viewBox="0 0 29.31 29.25"><defs><style>.cls-1{fill:#88d74f;}.cls-2{fill:#307e45;}.cls-3{fill:#d0fec4;}.cls-4{fill:#2a6e3c;}.cls-5{fill:#76ba44;}</style></defs><g id="Capa_2" data-name="Capa 2"><g id="START11"><g id="Verduras"><path class="cls-1" d="M20.79,14.68c-.88,0-1.77,0-2.64,0a1.13,1.13,0,0,0-.9.38C12.63,19.7,8,24.32,3.38,29c-.37.37-.56.39-.92,0C1.75,28.19,1,27.45.23,26.73c-.32-.29-.3-.45,0-.75,4.14-4.11,8.26-8.25,12.4-12.36a1.37,1.37,0,0,0,.46-1.1c0-1.53,0-3.07,0-4.6a1.92,1.92,0,0,1,1.39-.47c.27,0,.56.1.64.44,0,1.28,0,2.56,0,3.83a11,11,0,0,1,.07,2.15c0,.09-.07.22-.15.22-.6,0-.88.49-1.23.85q-4.5,4.47-9,9c-.21.21-.69.42-.27.82s.6-.1.81-.3c3-3,6.06-6.06,9.11-9.08.36-.37.7-.7.59-1.27a13,13,0,0,1,1.27-1.3,1.06,1.06,0,0,1,1.34-.16l3,0c.2,0,.42-.08.59.09a.28.28,0,0,1,0,.28A4.14,4.14,0,0,0,20.79,14.68Z"/><path class="cls-2" d="M20.79,14.68a2,2,0,0,1,.47-1.94,1.17,1.17,0,0,0,.73-1,1.72,1.72,0,0,1,2.37-1.5,2.27,2.27,0,0,0,1.29,0A1.71,1.71,0,0,1,28,11.77a1.19,1.19,0,0,0,.47.86,5.68,5.68,0,0,1-1.06,1.81,10.4,10.4,0,0,1-4,3.16,2.7,2.7,0,0,1-.6.17A1.55,1.55,0,0,1,22,16.4a1,1,0,0,0-.48-.84A2,2,0,0,1,20.79,14.68Z"/><path class="cls-2" d="M12.16,7.6a1.48,1.48,0,0,1-.81-1.24,1.46,1.46,0,0,0-.6-1,1.69,1.69,0,0,1,0-2.79,1.49,1.49,0,0,0,.57-1A1.69,1.69,0,0,1,13.66.1a2.39,2.39,0,0,0,1.4,0,1.7,1.7,0,0,1,2.28,1.48,1.25,1.25,0,0,0,.49.92A9.6,9.6,0,0,1,13.57,7,3.43,3.43,0,0,1,12.16,7.6Z"/><path class="cls-2" d="M21.6,5.53c-1.25-1.11-1.25-2.11,0-3.18a.82.82,0,0,0,.31-.58A1.76,1.76,0,0,1,24.45.14a2.15,2.15,0,0,0,1.18,0A1.71,1.71,0,0,1,28,1.61a1.3,1.3,0,0,0,.5.9A9.8,9.8,0,0,1,22.42,7a.53.53,0,0,1-.28,0c-.29-.16-.3-.46-.35-.73A1.49,1.49,0,0,0,21.6,5.53Z"/><path class="cls-3" d="M21.6,5.53c.3.12.32.38.35.65a1.26,1.26,0,0,0,.22.7c.23.23.57.39.6.77a1.4,1.4,0,0,0-.3.15q-2.4,2.4-4.78,4.82a1.92,1.92,0,0,0-1.86.84c-.21.25-.4.57-.77.64h0V7.83c.12-.11.2-.11.21.07-.16.16-.1.36-.1.55,0,1.16,0,2.32,0,3.47.18.07.23-.06.31-.14L21.32,6C21.44,5.82,21.59,5.72,21.6,5.53Z"/><path class="cls-4" d="M22.77,7.65c-.22-.23-.54-.4-.6-.77a10,10,0,0,0,6-4.09c.08-.12.14-.28.33-.28a1.7,1.7,0,0,1,.05,2.85,1.31,1.31,0,0,0-.55.93,1.72,1.72,0,0,1-2.48,1.43,1.17,1.17,0,0,0-1,0A1.82,1.82,0,0,1,22.77,7.65Z"/><path class="cls-4" d="M15.27,7.9c0-.09-.13-.08-.21-.07a1.18,1.18,0,0,0-1.33-.08,2.7,2.7,0,0,1-.65.17,1.67,1.67,0,0,1-.92-.32A20.63,20.63,0,0,0,14.8,6.06a10.54,10.54,0,0,0,2.71-3.19c.08-.15.14-.31.32-.38a1.71,1.71,0,0,1,.1,2.85,1.29,1.29,0,0,0-.57.81C17.16,7.44,16.61,7.88,15.27,7.9Z"/><path class="cls-4" d="M22.87,17.77a18.53,18.53,0,0,1,1.65-.88A10.78,10.78,0,0,0,28.2,13c.07-.13.12-.28.28-.35a1.7,1.7,0,0,1,.05,2.89,1.3,1.3,0,0,0-.52.89,1.72,1.72,0,0,1-2.48,1.46,1.27,1.27,0,0,0-1.08,0A1.53,1.53,0,0,1,22.87,17.77Z"/><path class="cls-5" d="M15.06,14.1c.36.36.27.62-.08,1q-4.87,4.83-9.72,9.69c-.42.43-.75.37-1-.16a.22.22,0,0,1,0-.3L4.52,24l9.75-9.75c.24-.25.46-.46.79-.15Z"/></g></g></g></svg>