<svg xmlns="http://www.w3.org/2000/svg" viewBox="0 0 33.26 26.03"><defs><style>.cls-1{fill:#5169cc;}.cls-2{fill:#6d80d4;}.cls-3{fill:#3351c4;}.cls-4{fill:#2944ad;}.cls-5{fill:#8cc537;}.cls-6{fill:#a2e340;}.cls-7{fill:#213992;}.cls-8{fill:#192d7b;}.cls-9{fill:#2a44ae;}.cls-10{fill:#82b732;}.cls-11{fill:#a0e13f;}</style></defs><g id="Capa_2" data-name="Capa 2"><g id="START11"><g id="Fruta"><path class="cls-1" d="M21.32,25.71a8.53,8.53,0,0,1-4.95-3.63c-.11-.18-.15-.41-.38-.5A1,1,0,0,1,15.6,21a8.33,8.33,0,0,1-.71-3.38,3.44,3.44,0,0,0-.14-.89,12,12,0,0,1,1.86-4.39,9,9,0,0,1,1.78-1.76,10.09,10.09,0,0,1,2-1.16,2.52,2.52,0,0,1,.93-.21c.7.28,1.47.33,2.17.64a8.64,8.64,0,0,1,2.61,1.78.89.89,0,0,1,.33.6c-.31.52-.74.29-1.13.17-.6-.19-.74-.14-.83.46A1.61,1.61,0,0,1,23.83,14c-.39.29-.41.57,0,.87a1.56,1.56,0,0,1,.62.88c.15.84.16.84,1,.65a2.19,2.19,0,0,1,1.08,0c.7.17.69.17.88-.57.09-.37.17-.77.69-.78a4.57,4.57,0,0,1,.52,3,8.23,8.23,0,0,1-5.21,7.16A6.5,6.5,0,0,1,21.32,25.71Z"/><path class="cls-2" d="M16.77,12.38A8.35,8.35,0,0,0,15.21,16a1.28,1.28,0,0,1-.39.65c-.19.17-.4.08-.61,0A8.71,8.71,0,0,1,8.42,9.58,1.42,1.42,0,0,1,8.47,9a10.91,10.91,0,0,1,.66-3.66,8.41,8.41,0,0,1,5.7-5,8.09,8.09,0,0,1,6.6,5,6.1,6.1,0,0,1,.48,3.84.4.4,0,0,1-.59.07,1.77,1.77,0,0,1-.92.25c-.61-.06-.8-.52-.92-1-.19-.8-.22-.82-1-.52a1.33,1.33,0,0,1-1.12,0c-.57-.23-.75-.14-.82.46a1.49,1.49,0,0,1-.7,1.17c-.28.17-.45.46-.14.67C16.51,10.77,16.53,11.61,16.77,12.38Z"/><path class="cls-3" d="M6.39,25.72A8.47,8.47,0,0,1,6.51,9.28l0,0c1.76.34,1.52.31,1.57,2a7.88,7.88,0,0,0,4.38,6.94c1,.56,1.06.62.68,1.72a8.16,8.16,0,0,1-5.85,5.62A5.89,5.89,0,0,0,6.39,25.72Z"/><path class="cls-3" d="M21.32,9.27c.18,0,.38,0,.52-.14a3.11,3.11,0,0,1,1.72-.33,6.69,6.69,0,0,1,1.83.26,4.39,4.39,0,0,1,.6.15,8.6,8.6,0,0,1,2.9,1.49c.2.23.58.3.59.69A9,9,0,0,1,32,16.84a8.55,8.55,0,0,1-6.86,9,8.45,8.45,0,0,1-3.84-.16c.76-.41,1.64-.44,2.42-.83a8.12,8.12,0,0,0,4.59-6.09,8.52,8.52,0,0,0-.27-3.69.23.23,0,0,1,.08-.28c.31-.33.29-.61-.1-.85a1.35,1.35,0,0,1-.64-1.07c0-.62-.36-.72-.87-.57a.28.28,0,0,1-.15-.08,7.31,7.31,0,0,0-4.62-2.72C21.58,9.49,21.35,9.56,21.32,9.27Z"/><path class="cls-4" d="M6.39,25.72c.1-.2.29-.21.49-.25a8.14,8.14,0,0,0,6.34-6.24c.1-.48-.2-.56-.48-.69a8.47,8.47,0,0,1-4.07-4.07A7,7,0,0,1,8,10.71c.08-.74-.2-1.05-.9-1.15-.15,0-.58.2-.54-.28a8.66,8.66,0,0,1,2-.28,14.6,14.6,0,0,0,.63,2.61,8.18,8.18,0,0,0,5.72,5.06c.1.13.28.2.26.41a10.25,10.25,0,0,0,.91,4.5,8.55,8.55,0,0,1-9.24,4.28A2.67,2.67,0,0,1,6.39,25.72Z"/><path class="cls-1" d="M25.49,9.24a9.75,9.75,0,0,0-3.65-.11A8,8,0,0,0,15.32.57c-.2,0-.39,0-.49-.25a8.46,8.46,0,0,1,9.49,3.86c.11.18.23.36.34.55a1.78,1.78,0,0,1,.6,1.09A6.34,6.34,0,0,1,25.65,8C25.64,8.43,25.77,8.87,25.49,9.24Z"/><path class="cls-5" d="M29.48,11.39l-.65-.57a8.56,8.56,0,0,0,2-3.88A.77.77,0,0,1,31,6.75c.58-.53.58-.53,0-1a3.6,3.6,0,0,1-.13-.93c0-.46.47-.94,0-1.39a10.76,10.76,0,0,1-.51-2.3c.13-.15.25-.29.39-.43.93-.88,1.9-.6,2.18.65A12.31,12.31,0,0,1,33,6.94,6.34,6.34,0,0,1,29.48,11.39Z"/><path class="cls-6" d="M30.27,1.09a8.78,8.78,0,0,1,.64,2.32A5.79,5.79,0,0,0,29.8,4.9a9.54,9.54,0,0,1-1.49,1.68c-.16.15-.33.33-.56.24s-.21-.34-.21-.55V6.14c0-.21,0-.42-.26-.46s-.31.19-.35.37a11.73,11.73,0,0,1-.42,1.43,1,1,0,0,1-.46.6c-.19.1-.41.19-.54-.1a10.4,10.4,0,0,0-.85-3.25,39.58,39.58,0,0,0,4.9-3.09C29.79,1.45,30,1.27,30.27,1.09Z"/><path class="cls-3" d="M16.77,12.38a.61.61,0,0,1-.39-.62c.09-.62-.28-1-.7-1.29s-.49-.7.06-1a1.19,1.19,0,0,0,.65-1.1q0-1.06,1-.57a1.12,1.12,0,0,0,1.05.07,2,2,0,0,1,0,2.84A15,15,0,0,0,16.77,12.38Z"/><path class="cls-7" d="M26.38,12.25h.13a2.29,2.29,0,0,1-1.27,3.64,1,1,0,0,1-.93-.14,1.85,1.85,0,0,0-.7-.82c-.48-.32-.49-.66,0-1a1.45,1.45,0,0,0,.74-1.27c0-.6.41-.78,1-.49A1,1,0,0,0,26.38,12.25Z"/><path class="cls-8" d="M24.31,15.75a2.2,2.2,0,0,0,2.11-.84,2.41,2.41,0,0,0,.23-2.1c0-.19-.17-.35-.14-.56.72-.38,1-.25,1,.53a1.3,1.3,0,0,0,.5,1c.75.56.75.72,0,1.32a1.12,1.12,0,0,0-.53,1c0,.59-.31.79-.83.56a1.72,1.72,0,0,0-1.53,0C24.59,17,24.31,16.66,24.31,15.75Z"/><path class="cls-9" d="M18.46,10.69c.07-.4.37-.71.39-1.14a2.82,2.82,0,0,0-.39-1.7c.87-.47,1-.38,1.17.61a1.51,1.51,0,0,0,.77,1.06Z"/><path class="cls-7" d="M4.45,20a1.75,1.75,0,0,0-.67-.76c-.52-.36-.52-.7,0-1.05A1.36,1.36,0,0,0,4.45,17c0-.54.34-.74.82-.51a2.25,2.25,0,0,0,1.25.16,2,2,0,0,1,.4,2.3A2.37,2.37,0,0,1,5.06,20.3.53.53,0,0,1,4.45,20Z"/><path class="cls-8" d="M4.45,20a2.05,2.05,0,0,0,2.46-1.65,2.63,2.63,0,0,0-.39-1.73c.84-.45,1.08-.33,1.16.57a1.34,1.34,0,0,0,.65,1c.56.41.55.74,0,1.11a1.32,1.32,0,0,0-.61,1.08c0,.73-.34.9-1,.56a1.26,1.26,0,0,0-1.18,0c-.8.37-1.07.19-1.08-.7C4.44,20.17,4.45,20.1,4.45,20Z"/><path class="cls-10" d="M25.51,8c.47.19.68-.12.82-.47a7.36,7.36,0,0,0,.43-1.61c0-.31.21-.58.54-.49a.57.57,0,0,1,.45.68,2.1,2.1,0,0,0-.06.24c0,.13,0,.31,0,.37s.26-.06.37-.15A9.69,9.69,0,0,0,30.19,4c.16-.3.32-.57.72-.54.76.43.14.87,0,1.3,0,.38-.26.63-.4,1,.16.13.39-.09.53.09a.55.55,0,0,1,.61.35c.11.31-.17.45-.35.61a1.83,1.83,0,0,1-.39.21c-.42.39-1,.31-1.46.41a1.9,1.9,0,0,0-.84.31A26,26,0,0,1,26,9.36l-.48-.12Z"/><path class="cls-6" d="M26,9.36c-.12-.21.06-.25.19-.32a16.16,16.16,0,0,0,2.4-1.6c.35-.3.76-.23,1.15-.31s.8-.14,1.2-.21a7.38,7.38,0,0,1-1.51,3.51.78.78,0,0,1-.57.39A10.31,10.31,0,0,0,26,9.36Z"/><path class="cls-11" d="M31,5.75c-.3,0-.6.43-.8.17s.23-.48.37-.73.2-.32.3-.48C31.17,5,31,5.4,31,5.75Z"/></g></g></g></svg>