<svg xmlns="http://www.w3.org/2000/svg" viewBox="0 0 43.88 30.73"><defs><style>.cls-1{fill:#fcdcb5;}.cls-2{fill:#d8d4c9;}.cls-3{fill:#e7e3d7;}.cls-4{fill:#d1966a;}.cls-5{fill:#fee592;}.cls-6{fill:#e6c091;}.cls-7{fill:#b4b0a4;}.cls-8{fill:#9d7150;}.cls-9{fill:#fed45d;}.cls-10{fill:#fec139;}.cls-11{fill:#e19d14;}.cls-12{fill:#fedf78;}.cls-13{fill:#fed45e;}.cls-14{fill:#e6c092;}.cls-15{fill:#e6c192;}</style></defs><g id="Capa_2" data-name="Capa 2"><g id="START11"><g id="Carbs"><path class="cls-1" d="M6.39,5.46a2.1,2.1,0,0,1,1.92,0c.37.19.58.24.85-.21a3,3,0,0,1,3.28-1.64A3.3,3.3,0,0,1,15,6.06c.18.58.44.59.85.37a2.92,2.92,0,0,1,2.79-.16c.27.12.46,0,.69-.1a3.75,3.75,0,0,1,5.09,2,1.11,1.11,0,0,0,.78.66,3.1,3.1,0,0,1,2.65,3.46c0,.55,0,1.09,0,1.64a2,2,0,0,1-1.15.5,66.47,66.47,0,0,1-15.48,1.22,15.43,15.43,0,0,1-2.62-.28,3.81,3.81,0,0,1-1.08-4c.17-.43.19-.75-.33-.93a.86.86,0,0,1-.58-.75A14.3,14.3,0,0,1,6.39,5.46Z"/><path class="cls-2" d="M6.6,26.88a15.72,15.72,0,0,1-3.54-2.52A10.86,10.86,0,0,1,0,16.79c.41-.25.83-.07,1.23,0a66.15,66.15,0,0,0,8.54,1,1,1,0,0,1,.83.26,1.47,1.47,0,0,0,.39,1.3A21.72,21.72,0,0,0,19,26a10.33,10.33,0,0,1,1,.55c.27.18.51.38.25.74a3.66,3.66,0,0,1-2,.6A42.79,42.79,0,0,1,9,27.83,3.8,3.8,0,0,1,6.6,26.88Z"/><path class="cls-3" d="M20.3,27.06c-1.11-.62-2.24-1.21-3.33-1.86A21.84,21.84,0,0,1,10.42,19c-.22-.31-.62-.7.2-.72A1.52,1.52,0,0,1,11.83,18a71.67,71.67,0,0,0,15-1.25,1.21,1.21,0,0,1,1,.06,10.54,10.54,0,0,1-5.64,9.53l-.94.55C20.94,27.14,20.67,27.35,20.3,27.06Z"/><path class="cls-4" d="M27.78,16.79a54,54,0,0,1-6.71,1.11,79.24,79.24,0,0,1-10.45.36c-.21-.21-.5-.12-.76-.18a5.11,5.11,0,0,1-1.57-2.73.35.35,0,0,1,.12-.23A67,67,0,0,0,27.78,13.9Z"/><path class="cls-5" d="M38,19c0,1.12,0,2.24,0,3.36,0,.29-.11.62.18.85a.78.78,0,0,1-.18.91c0,1.12,0,2.24,0,3.36,0,.29-.1.61.17.85a.76.76,0,0,1-.17.91A5.77,5.77,0,0,0,38,30c.08.62-.21.76-.78.77s-.74-.25-.69-.77c0-.24,0-.48,0-.72a.76.76,0,0,1-.16-.91,11,11,0,0,0,.16-3c0-.39,0-.78,0-1.17a.8.8,0,0,1-.18-.92c.4-.8.11-1.65.18-2.48,0-.57,0-1.15,0-1.73a.78.78,0,0,1-.18-.91c.4-.8.11-1.65.18-2.48,0-.57,0-1.15,0-1.72a.8.8,0,0,1-.18-.91c.4-.74.12-1.54.18-2.3s0-1.27,0-1.91a.8.8,0,0,1-.18-.9c.27-1.19.51-2.32-.61-3.3S33.9,2.68,32.93,1.76c-.42-.4-.36-.65,0-1s.66-.38,1,0c.64.68,1.34,1.31,2,2a1.57,1.57,0,0,0,2.61,0C39.33,2,40.09,1.35,40.76.62c.44-.49.66-.25,1,.08s.46.55.05.94c-1,1-1.94,2-3,2.93s-.87,2.12-.6,3.3a.78.78,0,0,1-.18.9c0,1.12,0,2.24,0,3.36,0,.29-.11.62.18.85a.8.8,0,0,1-.18.91c0,1.12,0,2.24,0,3.36,0,.28-.11.61.18.84A.78.78,0,0,1,38,19Z"/><path class="cls-6" d="M6.39,5.46c.28.23.2.56.19.85a25,25,0,0,0,.18,3.24c0,.44.21.69.66.67s.77.24.47.71c-1,1.55-.1,2.85.52,4.19v.08a3.36,3.36,0,0,1-2,0,51.23,51.23,0,0,1-5.37-.84A1.75,1.75,0,0,1,0,13.9a4.64,4.64,0,0,1,1-3.68,2.71,2.71,0,0,1,2.55-.9c.6.1.7-.09.7-.65A3.05,3.05,0,0,1,6.39,5.46Z"/><path class="cls-7" d="M20.3,27.06l.9-.19c0,.76,0,1.52,0,2.28a1.42,1.42,0,0,1-1.52,1.55q-5.79,0-11.57,0a1.41,1.41,0,0,1-1.53-1.54c0-.76,0-1.52,0-2.28,3.55,1.38,7.26.83,10.91.86A5.27,5.27,0,0,0,20.3,27.06Z"/><path class="cls-8" d="M0,13.9c2.77.58,5.59.9,8.39,1.3a15.54,15.54,0,0,0,1.45,2.88A49.61,49.61,0,0,1,0,16.79Z"/><path class="cls-9" d="M36.39,13a1.44,1.44,0,0,1,.18.91,10,10,0,0,0-1.45,0,3.05,3.05,0,0,1-3.51-1.75,7.3,7.3,0,0,0-.76-1C33.15,10.44,34.55,10.92,36.39,13Z"/><path class="cls-10" d="M36.39,18.09a1.44,1.44,0,0,1,.18.91H36c-3.3,0-3.3,0-5.15-2.77C33.07,15.58,34.46,16.05,36.39,18.09Z"/><path class="cls-10" d="M36.39,23.21a1.46,1.46,0,0,1,.18.92H36c-3.3,0-3.3,0-5.15-2.77C33.07,20.7,34.46,21.17,36.39,23.21Z"/><path class="cls-11" d="M36.41,28.33a1.43,1.43,0,0,1,.16.91h-.63c-3.25,0-3.25,0-5.06-2.78C33.09,25.86,34.35,26.29,36.41,28.33Z"/><path class="cls-12" d="M36.39,7.87a1.35,1.35,0,0,1,.18.9H33.75a1.55,1.55,0,0,1-1.33-.66L30.81,5.94C33.08,5.56,35.06,5.75,36.39,7.87Z"/><path class="cls-11" d="M38,29.24a1.44,1.44,0,0,1,.17-.91l.06-.06c1.34-2,3.27-2.27,5.53-1.83-.6.79-1.17,1.59-1.8,2.35a1.45,1.45,0,0,1-1.23.46C39.86,29.23,39,29.24,38,29.24Z"/><path class="cls-9" d="M38,13.89a1.44,1.44,0,0,1,.18-.91c.54-.53,1.08-1.07,1.62-1.59A1.43,1.43,0,0,1,40.91,11h3c-.68.91-1.26,1.71-1.88,2.48a1.47,1.47,0,0,1-1.23.45C39.86,13.87,39,13.89,38,13.89Z"/><path class="cls-10" d="M38,19a1.44,1.44,0,0,1,.18-.91c1.36-2,3.27-2.39,5.57-1.88-.59.78-1.17,1.58-1.79,2.34a1.44,1.44,0,0,1-1.24.46C39.86,19,39,19,38,19Z"/><path class="cls-10" d="M38,24.12a1.44,1.44,0,0,1,.18-.91c1.37-1.95,3.26-2.42,5.57-1.87-.59.77-1.17,1.57-1.79,2.34a1.46,1.46,0,0,1-1.24.45C39.86,24.11,39,24.12,38,24.12Z"/><path class="cls-12" d="M38,8.77a1.43,1.43,0,0,1,.18-.9l.27-.25c2.08-2,2.17-2.06,5.33-1.7-.63.83-1.2,1.63-1.81,2.4a1.5,1.5,0,0,1-1.24.45C39.86,8.75,39,8.77,38,8.77Z"/><path class="cls-13" d="M38.61,2.7c-1.48,1.65-1.13,1.65-2.61,0,.14-.65.26-1.3.41-1.95a.86.86,0,0,1,.9-.75.88.88,0,0,1,.9.75C38.35,1.4,38.48,2.05,38.61,2.7Z"/><path class="cls-14" d="M23.2,11.12c0,.44-.38.47-.62.61a.55.55,0,0,1-.79-.16c-1.48-1.7-2.34-1.81-4.07-.49-.58.44-.83-.12-1.15-.32s0-.51.15-.71a3.9,3.9,0,0,1,6.25.61A4.92,4.92,0,0,1,23.2,11.12Z"/><path class="cls-15" d="M13.53,9.5a3.65,3.65,0,0,1-3.27,3.64c-.31,0-.75.11-.73-.41s-.28-.9.47-1.06c1.7-.37,2.21-1.15,1.92-2.85-.13-.78.55-.84.93-1s.42.35.5.64A2.2,2.2,0,0,1,13.53,9.5Z"/></g></g></g></svg>