<svg xmlns="http://www.w3.org/2000/svg" viewBox="0 0 32.18 32.31"><defs><style>.cls-1{fill:#47b75c;}.cls-2{fill:#2b6e38;}.cls-3{fill:#399249;}.cls-4{fill:#b2d24c;}.cls-5{fill:#99bc2d;}</style></defs><g id="Capa_2" data-name="Capa 2"><g id="START11"><g id="Carbs"><path class="cls-1" d="M29.33,6.67c-.28.12-.16.37-.17.56a13.66,13.66,0,0,1-4.34,9.71,87.11,87.11,0,0,1-15.54,12,29,29,0,0,1-8.8,3.31c-.15,0-.38.2-.48-.1a4.49,4.49,0,0,1,1.15-1.81,19.5,19.5,0,0,1,1.77-1.75A42.37,42.37,0,0,1,8.28,25c.5-.21.94-.55,1.43-.78.88-.44,1.72-1,2.6-1.37.57-.29,1.11-.63,1.68-.9.85-.46,1.69-.94,2.53-1.42.62-.36,1.24-.72,1.83-1.13a20.84,20.84,0,0,0,2.56-1.92,8.41,8.41,0,0,0,1.28-1.18,22.09,22.09,0,0,0,2.56-2.82c.48-.61.88-1.27,1.29-1.91a16.88,16.88,0,0,0,1.47-2.83,5.86,5.86,0,0,1,.32-.67,11,11,0,0,0,1-1.58c.08-.14.2-.32.39-.26S29.43,6.47,29.33,6.67Z"/><path class="cls-2" d="M3,28.64a24.82,24.82,0,0,0-2.5,2.82c-.15.23-.32.45-.48.67A14.87,14.87,0,0,1,3.34,24,26.32,26.32,0,0,1,9.2,18.92a55.12,55.12,0,0,0,9.67-8.23,22.34,22.34,0,0,1,6-4.89,1,1,0,0,1,.18-.07A9.14,9.14,0,0,0,27,5.42c.28-.11.56,0,.56.33,0,.84.34,1.62.38,2.45l-.27.65c-.29,0-.4-.21-.56-.36A3,3,0,0,0,22,10a4.26,4.26,0,0,0-.07.87.68.68,0,0,1-.46.68,3.3,3.3,0,0,0-2.58,1.95,3.12,3.12,0,0,0-.18.79c0,.3-.16.52-.49.55a3.81,3.81,0,0,0-1.85.36,3,3,0,0,0-1.57,2c-.11.3,0,.68-.32.92a.75.75,0,0,1-.49,0,3,3,0,0,0-3.19,1.5,2.9,2.9,0,0,0-.34.81.66.66,0,0,1-.4.54,1.9,1.9,0,0,1-.63.06,2.85,2.85,0,0,0-2.86,1.66c-.21.37-.22.83-.5,1.17a1.9,1.9,0,0,1-.74.17A3,3,0,0,0,2.9,28C3,28.19,3.12,28.4,3,28.64Z"/><path class="cls-3" d="M27.93,8.2a3.81,3.81,0,0,1-.51-2.08c0-.5,0-.73-.63-.47a1.92,1.92,0,0,1-1.73.08A3.4,3.4,0,0,1,26.3,4c-.64-.22-1.2-.51-1-1.37a10.27,10.27,0,0,0,2.95.68.93.93,0,0,0,1.06-.6c.29-.67.71-1.28,1-1.94A1,1,0,0,1,31.44,0c.22,0,.46-.06.74.09-.6,1.06-1.19,2.12-1.81,3.15a1.65,1.65,0,0,0-.19,1.28,15,15,0,0,0,1.17,2.88c-.81,0-1.56,0-2-.75-.09-.2-.14-.58-.39-.1A6.09,6.09,0,0,1,27.93,8.2Z"/><path class="cls-4" d="M14.65,17.08a3.13,3.13,0,0,1,3.5-2.42A2.92,2.92,0,0,1,21,17a.66.66,0,0,1,0,.61,11.63,11.63,0,0,1-2.58,1.94c-.26-.15-.34-.44-.47-.67a3,3,0,0,0-2.57-1.62C15.12,17.24,14.85,17.3,14.65,17.08Z"/><path class="cls-4" d="M18.78,13.35a3,3,0,0,1,2.57-1.95,2.85,2.85,0,0,1,3.22,1.32,1,1,0,0,1,.27.88,14.52,14.52,0,0,1-2.57,2.85.93.93,0,0,1-.27-.56,3,3,0,0,0-2.56-2.22C19.2,13.63,18.85,13.75,18.78,13.35Z"/><path class="cls-4" d="M3,28.64A3.25,3.25,0,0,1,6,23.77a2.1,2.1,0,0,1,2.32,1.41,38.94,38.94,0,0,0-5.14,3.38A.62.62,0,0,1,3,28.64Z"/><path class="cls-4" d="M10.64,19.52A3.17,3.17,0,0,1,14.42,18a2.56,2.56,0,0,1,2.18,2.68A19.67,19.67,0,0,1,14,22.11c-.23,0-.28-.16-.34-.31a3.2,3.2,0,0,0-2.77-2.13A.39.39,0,0,1,10.64,19.52Z"/><path class="cls-4" d="M21.87,9.87A2.91,2.91,0,0,1,24.1,7.55a3.11,3.11,0,0,1,3.26,1l.3.33a13.38,13.38,0,0,1-1.52,2.84c-.26,0-.31-.18-.4-.33A3.07,3.07,0,0,0,22.3,9.89.54.54,0,0,1,21.87,9.87Z"/><path class="cls-4" d="M6.42,22.61c.64-1.4,1.81-2,3.62-1.78,1.15,0,2.43,1.17,2.31,2.17L9.78,24.4a.38.38,0,0,1-.17-.08,3.55,3.55,0,0,0-2.86-1.43C6.6,22.89,6.39,22.87,6.42,22.61Z"/><path class="cls-5" d="M21.87,9.87c1.73-.67,3.18,0,4.27,1.82a8.59,8.59,0,0,1-1.3,1.91,3.23,3.23,0,0,0-3.49-2.2.5.5,0,0,0,.4-.61A1.19,1.19,0,0,1,21.87,9.87Z"/><path class="cls-5" d="M18.78,13.35c.33.25.73.12,1.1.23a3.16,3.16,0,0,1,2.39,2.87A4.43,4.43,0,0,1,21,17.61a3.82,3.82,0,0,0-1.47-2.45,6.45,6.45,0,0,0-1.37-.5c.31,0,.38-.17.38-.44A1.36,1.36,0,0,1,18.78,13.35Z"/><path class="cls-5" d="M16.6,20.68A3.21,3.21,0,0,0,14.42,18c.24-.27,0-.66.23-.92a3.31,3.31,0,0,1,3.76,2.47A8.71,8.71,0,0,1,16.6,20.68Z"/><path class="cls-5" d="M12.35,23A3.12,3.12,0,0,0,10,20.83c.41-.34.19-1,.6-1.31a3.13,3.13,0,0,1,3.08,2l.3.63A9.21,9.21,0,0,1,12.35,23Z"/><path class="cls-5" d="M6.42,22.61c.39.29.86.09,1.29.22A3.18,3.18,0,0,1,9.78,24.4l-1.42.78A2.93,2.93,0,0,0,6,23.77,2.94,2.94,0,0,1,6.42,22.61Z"/></g></g></g></svg>