<svg xmlns="http://www.w3.org/2000/svg" viewBox="0 0 20.3 32.46"><defs><style>.cls-1{fill:#fee6d6;}.cls-2{fill:#fbc99e;}.cls-3{fill:#64b8fb;}.cls-4{fill:#1c95f8;}.cls-5{fill:#1c96f8;}.cls-6{fill:#c76f5c;}.cls-7{fill:#b95d4f;}</style></defs><g id="Capa_2" data-name="Capa 2"><g id="START11"><g id="Bebidas"><path class="cls-1" d="M15.83,32a5.43,5.43,0,0,1-1.79.21A33.16,33.16,0,0,1,8,32.38a20.94,20.94,0,0,1-5.22-.68A3.91,3.91,0,0,1,0,27.89c0-2.13,0-4.26,0-6.39a.57.57,0,0,1,.54,0,23.93,23.93,0,0,0,3.81.89c.42.16.54.57.76.89a6.75,6.75,0,0,0,4.09,2.85l.32,0a6.1,6.1,0,0,0,5.69-3c.19-.27.3-.61.66-.73.62-.07,1.23-.41,1.88-.14a1.43,1.43,0,0,1,.15.91c0,1.52,0,3,0,4.55A4.7,4.7,0,0,1,15.83,32Z"/><path class="cls-1" d="M0,14.57V10.2A4.47,4.47,0,0,1,3.51,5.65c.32-.08.63-.14.54-.59a1.15,1.15,0,0,1,.84-.19H12.6c.94,0,1.15.17,1.26,1.11a1,1,0,0,0,.71.85,4.87,4.87,0,0,1,3.34,4.73,30.89,30.89,0,0,1,0,3.6,1.24,1.24,0,0,1-.1.2,2,2,0,0,1-1.41.33c-.32-.11-.36-.43-.47-.7a7,7,0,0,0-3.77-3.92,5.62,5.62,0,0,0-2.47-.38,6.27,6.27,0,0,0-4.38,2.67,7.12,7.12,0,0,0-.95,1.76c-.09.23-.16.49-.44.58a11,11,0,0,1-3.57-.84A.67.67,0,0,1,0,14.57Z"/><path class="cls-2" d="M17.72,15.31c0-1.16,0-2.32,0-3.48A4.75,4.75,0,0,0,14.24,7a.76.76,0,0,1-.58-.8c0-1.07-.06-1.08-1.13-1.09H4.05c0-.67,0-1.33,0-2a1,1,0,0,1,.82-.23c3.18,0,6.36,0,9.54,0,.38,0,.75,0,1.13,0s.51,0,.69.23c0,.67,0,1.35,0,2,0,.28,0,.45.38.52a4.6,4.6,0,0,1,3.68,4.93c0,1.35,0,2.69,0,4A3.21,3.21,0,0,1,17.72,15.31Z"/><path class="cls-3" d="M14.43,3,4.86,3,4,3.06C3,3,2.91,2.89,2.91,1.85c0-.34,0-.68,0-1,0-.58.29-.84.86-.84H14.44A2.55,2.55,0,0,1,14.43,3Z"/><path class="cls-3" d="M0,14.57a16.7,16.7,0,0,0,3.93,1c.2.23.1.49,0,.72a9.34,9.34,0,0,0,.38,5.46c.09.25.26.49.1.78A17.39,17.39,0,0,1,0,21.5C0,19.19,0,16.88,0,14.57Z"/><path class="cls-2" d="M15.83,32c-.23,0-.17-.1,0-.2a4.64,4.64,0,0,0,1.94-4.38c-.07-1.72,0-3.45,0-5.17a.31.31,0,0,1,.17-.23c.6-.21,1.22-.34,1.82-.56a.6.6,0,0,1,.54,0c0,2.17,0,4.33,0,6.49a4.06,4.06,0,0,1-3.44,3.92Z"/><path class="cls-4" d="M20.25,21.49a12.34,12.34,0,0,1-2.39.69c-.38-.08-.34-.4-.34-.65,0-1.85,0-3.7,0-5.55a.78.78,0,0,1,.22-.63v0a11.92,11.92,0,0,0,2.54-.74C20.31,16.88,20.32,19.18,20.25,21.49Z"/><path class="cls-5" d="M14.43,3a3.84,3.84,0,0,0,0-3h2.07c.59,0,.84.28.83.85v1c0,1-.1,1.14-1.12,1.2Z"/><path class="cls-6" d="M4.45,22.54a10,10,0,0,1-.52-7,8.82,8.82,0,0,1,2.21-3.45,6,6,0,0,1,3.48-1.6c0,.17.15.23.29.29,2.95,1.39,4.21,3.87,4.44,7a8.8,8.8,0,0,1-1.74,6.12A7,7,0,0,1,10,26c-.17.07-.37.09-.48.28a6.45,6.45,0,0,1-4.6-3.08Z"/><path class="cls-7" d="M9.49,26.31c-.3-.24,0-.28.13-.34a6.58,6.58,0,0,0,3.67-3.45,9.2,9.2,0,0,0-1.18-9.94A5.52,5.52,0,0,0,9.64,10.9c-.33-.1-.31-.23,0-.37A6.51,6.51,0,0,1,16.06,15l.27.63a3.52,3.52,0,0,1,.55,2,8.87,8.87,0,0,1-.59,4.2,1.45,1.45,0,0,1-.48.73,8.12,8.12,0,0,1-2.8,3A5.69,5.69,0,0,1,9.49,26.31Z"/><path class="cls-3" d="M15.81,22.54a10.07,10.07,0,0,0,.52-7l1.4-.23c0,2.1,0,4.2,0,6.3,0,.19,0,.39.14.53l-.14.11Z"/><path class="cls-2" d="M9.61,15c0-.21,0-.42,0-.63a.5.5,0,0,1,.47-.56c.33,0,.49.21.53.51s0,.38,0,.64a4.06,4.06,0,0,1,1.21-.55c.9-.15,1.24.2,1,1.08a2.52,2.52,0,0,1-.23.65.32.32,0,0,0,0,.4c-.14.15-.31.08-.47.08a2,2,0,0,0-2,1.7c0,.25-.08.52.16.69s.4,0,.58-.14a1.83,1.83,0,0,1,1.42-.3c.59.29.61.77.45,1.32a2,2,0,0,1-1.68,1.57c-.47.06-.55.25-.53.64a10.59,10.59,0,0,1,0,1.26c0,.33-.15.61-.5.6s-.49-.29-.5-.62l0-1.83A1.61,1.61,0,0,0,8.54,19c-.24-.06-.52,0-.7-.22s-.27-.61-.4-.91a1.32,1.32,0,0,1,.28-1.48,2.32,2.32,0,0,1,1.71.43c.16.09.31.27.5.13s.12-.38.1-.58C10,15.85,9.58,15.52,9.61,15Z"/><path class="cls-1" d="M7.84,18.73a2.23,2.23,0,0,1,2.39,1.91c.08.51,0,.87-.64.91a2.14,2.14,0,0,1-2.25-2.17C7.36,19,7.4,18.74,7.84,18.73Z"/><path class="cls-1" d="M12.38,18.61a5,5,0,0,0-1.73.67c-.36.23-.72-.23-.64-.82a2.15,2.15,0,0,1,2.66-1.88C13.07,17.13,13,17.78,12.38,18.61Z"/><path class="cls-1" d="M9.61,15a2.82,2.82,0,0,1,.64,1.53.58.58,0,0,1-.25.61c-.22.12-.39,0-.55-.19a4.28,4.28,0,0,0-1.73-.65c-.32-.56-.6-1.14-.21-1.75.22-.34,1.2-.18,1.8.24Z"/></g></g></g></svg>