<svg xmlns="http://www.w3.org/2000/svg" viewBox="0 0 33.95 31.6"><defs><style>.cls-1{fill:#d0d0fc;}.cls-2{fill:#e7bba1;}.cls-3{fill:#ebeafc;}.cls-4{fill:#bfbff8;}.cls-5{fill:#e5a580;}.cls-6{fill:#e0966d;}.cls-7{fill:#e5a680;}.cls-8{fill:#e5a57f;}</style></defs><g id="Capa_2" data-name="Capa 2"><g id="START11"><g id="Carbs"><path class="cls-1" d="M9.42,30.75a.74.74,0,0,0-.8-.55A7.93,7.93,0,0,1,2,25.41a9.41,9.41,0,0,1-.67-3.67q0-3.1,0-6.23c.35-.32.79-.22,1.19-.22H26.23c1.35,0,1.7-.21,2.07-1.27a2,2,0,0,0-.9-2.4c-.17-.13-.39-.22-.37-.5.5-.35,1.06-.16,1.6-.2.28,0,.57,0,.85,0,.73,0,1.46,0,2.19,0,.08.33.39.24.6.3A2.17,2.17,0,0,1,33.9,13a2.12,2.12,0,0,1-.9,2.18c-.18.13-.39.21-.4.47a2.07,2.07,0,0,1-1.09.21H29.06c-1,0-1,0-1,1,0,1.7,0,3.4,0,5.1a8.48,8.48,0,0,1-1.44,4.94A7.9,7.9,0,0,1,20,30.42c-3.13,0-6.26,0-9.39,0A1.57,1.57,0,0,0,9.42,30.75Z"/><path class="cls-2" d="M6.9,3.61c.91.12,1.38-.24,1.73-1.14a3.23,3.23,0,0,1,3-1.93c0,.4-.48.51-.57.86a1.1,1.1,0,0,0,0,1.08,3,3,0,0,0,5.07,0,1.09,1.09,0,0,0-.05-1.09c-.12-.4-.64-.53-.69-1a3.55,3.55,0,0,1,4,.51l.59.52a.41.41,0,0,1,.26.27,1.51,1.51,0,0,0,1.63,1,2,2,0,0,1,1.21.45,7,7,0,0,0,1.95,2.27,2.67,2.67,0,0,1,.17,2c-.11.4-.45.62-.69.93s-.29.38-.08.57.37,0,.53-.09.4-.41.73-.39a2.68,2.68,0,0,1,1.23,2.31.53.53,0,0,1-.26.44,1.69,1.69,0,0,1-.58.1c-2.25,0-4.5,0-6.75,0a1.42,1.42,0,0,1-.46-.06c-.41-.16-.24-.51-.25-.79a3.05,3.05,0,0,0-3.93-2.86,1.09,1.09,0,0,0-.72.88,2.86,2.86,0,0,0,.61,2.19c.14.17.3.41-.06.57a1.79,1.79,0,0,1-.65.08H3.26a1.07,1.07,0,0,1-.86-.22,2.79,2.79,0,0,1,1.33-2.6A.55.55,0,0,0,4,7.84,1.93,1.93,0,0,1,4,6.5c.31-.07.47.18.68.33a2.73,2.73,0,0,0,2.24.55,1.06,1.06,0,0,0,.85-.89A2.86,2.86,0,0,0,7.09,4.2.59.59,0,0,1,6.9,3.61Z"/><path class="cls-3" d="M2.4,11.14l12.33,0c.49-.35,1.06-.15,1.59-.2.24,0,.48,0,.73,0a5.79,5.79,0,0,1,1.44.05.44.44,0,0,1,.2.13h8.1a.17.17,0,0,1,.25.05,2.35,2.35,0,0,1,1.6,2.46c-.05.74-.59,1.21-.9,1.81-.1.19-.46.08-.7.08H1.35A2.87,2.87,0,0,1,0,13.64,2.2,2.2,0,0,1,2.4,11.14Z"/><path class="cls-4" d="M9.42,30.75a.49.49,0,0,1,.07-.4c.11-.13.33-.14.58-.14h10a7.91,7.91,0,0,0,7.66-7.08c.19-2.27.06-4.53.1-6.8,0-.54.14-.72.7-.71a31.54,31.54,0,0,0,3.89-.06c.06,0,.12,0,.18.07,0,2.23,0,4.46,0,6.69a7.9,7.9,0,0,1-7.45,7.87.6.6,0,0,0-.41.14.86.86,0,0,0-.19.55C24.46,31.93,9.58,31.79,9.42,30.75Z"/><path class="cls-5" d="M27,11.16l-.25-.05A3.17,3.17,0,0,0,26.1,9a.66.66,0,0,0-.51-.36c-.09-.21.07-.33.17-.47s.25-.27.15-.47-.33-.16-.52-.11a.44.44,0,0,1-.32,0,3.75,3.75,0,0,0-.15-2.12.69.69,0,0,1,.58-.18A1.22,1.22,0,0,0,26.45,5c.55-.3.52-1,.87-1.39A4,4,0,0,1,30.09,6.9c0,.32-.27.36-.44.51a2.59,2.59,0,0,0-1,2.34,1,1,0,0,0,.58.82c.14.17.39.27.37.55Z"/><path class="cls-6" d="M29.56,11.12c-.15-.16-.42-.22-.39-.51s.24-.35.42-.47C30.7,9.43,31.82,8.73,32.94,8c.2-.13.44-.46.72-.07a2.82,2.82,0,0,1-1.38,2.55,6.41,6.41,0,0,1-.61.4c-.36.41-.85.17-1.27.22A4.71,4.71,0,0,1,29.56,11.12Z"/><path class="cls-6" d="M28.5,9.81a2.61,2.61,0,0,1,1.15-2.63l.44-.28A2.77,2.77,0,0,1,33,6.9c.06.22-.12.31-.26.4-1.25.85-2.53,1.63-3.82,2.43A.41.41,0,0,1,28.5,9.81Z"/><path class="cls-6" d="M25.59,5.44h-.67a3.72,3.72,0,0,1-1.85-2.12A1.94,1.94,0,0,1,23.46.64l.27-.25a.71.71,0,0,1,.3.42c.52,1.36,1.06,2.7,1.55,4.07C25.65,5.06,25.74,5.25,25.59,5.44Z"/><path class="cls-6" d="M27.32,3.56c-.06.6-.15,1.19-.8,1.48-.28-.16-.33-.45-.43-.71C25.64,3.14,25.17,2,24.72.77c-.09-.24-.26-.48,0-.74a3,3,0,0,1,2.64,2.81C27.33,3.08,27.32,3.32,27.32,3.56Z"/><path class="cls-7" d="M23.46.64a2.81,2.81,0,0,0-.39,2.68,2.93,2.93,0,0,0-1.45-.41c-1,0-1.43-.6-1.62-1.47A3.28,3.28,0,0,1,22.87.63,2.9,2.9,0,0,0,23.46.64Z"/><path class="cls-6" d="M7,7.55a3.24,3.24,0,0,1-3-1,3,3,0,0,1-.79-2.65c.23-.35.43-.1.59,0Q5.36,5.42,6.88,7C7,7.13,7.22,7.3,7,7.55Z"/><path class="cls-8" d="M7,7.55a.51.51,0,0,0-.15-.35L3.61,3.93c-.12-.12-.24-.19-.4-.08a1.14,1.14,0,0,1,.89-1,.68.68,0,0,1,.34.19C5.61,4.26,6.82,5.4,8,6.63A1.48,1.48,0,0,1,7,7.55Z"/><path class="cls-6" d="M15.39.41c.28.29.71.45.8.92-.06.36-.37.34-.62.34-1.32,0-2.63,0-4,0-.24,0-.55,0-.62-.34s.44-.54.68-.79A3.85,3.85,0,0,1,15.39.41Z"/><path class="cls-6" d="M8,6.63c-.08,0-.19,0-.24-.08C6.5,5.34,5.23,4.18,4.1,2.89a2.52,2.52,0,0,1,2.24.37l.56.35c.2.28.43.54.62.83A3.21,3.21,0,0,1,8,6.63Z"/><path class="cls-2" d="M28.5,9.81C30,8.82,31.57,8,33,6.9A1.44,1.44,0,0,1,33.66,8c-.16-.11-.27,0-.41.06l-4.08,2.59C28.53,10.69,28.58,10.2,28.5,9.81Z"/><path class="cls-2" d="M24.67,0c.54,1.44,1.09,2.88,1.62,4.32.09.23.16.46.23.69-.19.41-.55.42-.93.4L23.73.39A.93.93,0,0,1,24.67,0Z"/><path class="cls-6" d="M18.69,11.12h-.12c-1.18-.91-2.28-1.91-3.43-2.85a1.26,1.26,0,0,1-.55-.71,2.64,2.64,0,0,1,2.93.4C18.42,8.54,19.18,10.19,18.69,11.12Z"/><path class="cls-8" d="M11,1.33c.1,0,.2.12.29.12,1.54,0,3.07,0,4.61,0,.1,0,.19-.08.29-.12a1,1,0,0,1,.12,1.2,1.5,1.5,0,0,1-.88.22H11.76a1.52,1.52,0,0,1-.88-.22A1,1,0,0,1,11,1.33Z"/><path class="cls-6" d="M10.88,2.53h5.43A2.74,2.74,0,0,1,13.57,4,2.74,2.74,0,0,1,10.88,2.53Z"/><path class="cls-8" d="M14.59,7.56q1.9,1.61,3.8,3.22c.09.07.12.22.18.34H17.1a20.66,20.66,0,0,1-3.29-2.76C14,8,14.14,7.64,14.59,7.56Z"/><path class="cls-6" d="M13.81,8.36A15.92,15.92,0,0,1,16,10.11a3.69,3.69,0,0,1,1.11,1H14.73A3,3,0,0,1,13.81,8.36Z"/><path class="cls-6" d="M19.88,5.12a.74.74,0,0,1-.56.52c-.44.15-.88.27-1.32.41a.51.51,0,0,1-.73-.36c-.1-.33.11-.54.42-.63.48-.15,1-.3,1.46-.41A.56.56,0,0,1,19.88,5.12Z"/><path class="cls-6" d="M25.07,7.56a3.48,3.48,0,0,1,.52-.24.42.42,0,0,1,.53.25.39.39,0,0,1-.06.52,5.93,5.93,0,0,0-.47.53l-.54.47c-.26.24-.57.31-.81.05a.54.54,0,0,1,.07-.77Z"/><path class="cls-6" d="M10.89,7.59a5,5,0,0,1-.43,1.32c-.09.2-.24.4-.5.34a.5.5,0,0,1-.4-.54A4.69,4.69,0,0,1,10,7.08c.1-.24.37-.22.59-.15S10.88,7.29,10.89,7.59Z"/></g></g></g></svg>