<svg xmlns="http://www.w3.org/2000/svg" viewBox="0 0 26.55 28.87"><defs><style>.cls-1{fill:#fed300;}.cls-2{fill:#fee370;}.cls-3{fill:#a04603;}.cls-4{fill:#6f2e01;}</style></defs><g id="Capa_2" data-name="Capa 2"><g id="START11"><g id="Fruta"><path class="cls-1" d="M23.18,3.55a15.4,15.4,0,0,1,3.21,7.67A15.17,15.17,0,0,1,24,22,15.42,15.42,0,0,1,13.81,28.5a16.29,16.29,0,0,1-11-1.45A12.24,12.24,0,0,1,.72,25.69a1.87,1.87,0,0,1-.61-2.12c.22-.17.44,0,.64,0,1.54.43,3.07.87,4.6,1.32a16.21,16.21,0,0,0,4.64.76,12.66,12.66,0,0,0,8-2.91,12.68,12.68,0,0,0,4.69-8.19,12.88,12.88,0,0,0-.17-4.63c-.37-1.74-.75-3.48-1.1-5.22a1.64,1.64,0,0,1-.06-.62.35.35,0,0,1,.08-.16A2.77,2.77,0,0,1,23.18,3.55Z"/><path class="cls-2" d="M21.48,4c.42,2,.87,4,1.26,6.08a12.71,12.71,0,0,1-2.92,11.13,12.84,12.84,0,0,1-7.68,4.39,13,13,0,0,1-5.94-.32L.11,23.57A1.84,1.84,0,0,1,2,22.22a24,24,0,0,0,7.22-.79,14.14,14.14,0,0,0,8.34-5.7,14,14,0,0,0,2-6.18,39.47,39.47,0,0,0,.1-5.1A2,2,0,0,1,21.48,4Z"/><path class="cls-3" d="M21.48,4l-1.81.42c-.27-1.37-.38-2.76-.58-4.14,0-.26.09-.27.27-.26l1.23,0a.46.46,0,0,1,.26.34c.26,1.06.45,2.12.68,3.18a.56.56,0,0,1-.05.38Z"/><path class="cls-4" d="M21.48,4C21.22,2.78,21,1.58,20.69.39a1.7,1.7,0,0,0-.1-.32c.52,0,1.13-.18,1.53,0s.36.91.51,1.4c.2.67.36,1.36.55,2Z"/></g></g></g></svg>