<svg xmlns="http://www.w3.org/2000/svg" viewBox="0 0 26.51 29.67"><defs><style>.cls-1{fill:#7f34ac;}.cls-2{fill:#6d2c92;}.cls-3{fill:#4e8f1e;}.cls-4{fill:#47821c;}</style></defs><g id="Capa_2" data-name="Capa 2"><g id="START11"><g id="Verduras"><path class="cls-1" d="M10.06,9.74a19.26,19.26,0,0,0,4.78,3.79,40.53,40.53,0,0,0,6.39,2.93,9.07,9.07,0,0,1,4,2.81,6.29,6.29,0,0,1-.09,7.84,7,7,0,0,1-4.75,1c-2.86-.21-5.15-1.67-7.28-3.4a29.2,29.2,0,0,1-7.68-10.1A39.06,39.06,0,0,1,3.7,10.78c-.09-.24-.33-.53,0-.77.29,0,.45.21.62.38.6.58,1.17,1.18,1.77,1.76a1.27,1.27,0,0,0,.65.43,11.4,11.4,0,0,0-.29-1.78C6.33,10,6.18,9.29,6,8.53c-.06-.31,0-.61.39-.45,1.18.44,2.35.9,3.48,1.44A.3.3,0,0,1,10.06,9.74Z"/><path class="cls-2" d="M3.75,10.07c-.16.32,0,.59.15.85A41.85,41.85,0,0,0,8.09,19a24.68,24.68,0,0,0,6.55,6.73,11.84,11.84,0,0,0,4.63,2.11,8.37,8.37,0,0,0,5.55-.66,1.15,1.15,0,0,1,.28-.07,6.38,6.38,0,0,1-4.75,2.53,11.35,11.35,0,0,1-7.65-2.49,27.5,27.5,0,0,1-7.81-9c-.79-1.39-1.47-2.84-2.12-4.3a11.18,11.18,0,0,1,.12-1.41c.1-.75.18-1.5.34-2.23,0-.17.08-.37.3-.37A.21.21,0,0,1,3.75,10.07Z"/><path class="cls-3" d="M3.75,10.07c-.2-.31-.29-.25-.34.08-.12.79-.24,1.57-.37,2.35-.33,0-.41-.25-.5-.47-.92-2.27-.77-6,2.4-7.6a1,1,0,0,0,.44-.37,5.31,5.31,0,0,1,4.6,4,10.77,10.77,0,0,1,.23,1.13c0,.19.14.43-.15.54l-4-1.65c.18.87.36,1.66.5,2.44A16.28,16.28,0,0,1,7,13,39.16,39.16,0,0,1,3.75,10.07Z"/><path class="cls-4" d="M5.38,4.06c.29.22.07.3-.11.38A5.61,5.61,0,0,0,3.64,5.59,4.89,4.89,0,0,0,2.25,9a6.22,6.22,0,0,0,.35,2.77A1.33,1.33,0,0,0,3,12.5a3.27,3.27,0,0,1-.27,1.31c-.39.26-.71,0-1-.18A4.18,4.18,0,0,1,.06,10.42,5.74,5.74,0,0,1,1.43,5.54a.65.65,0,0,0,.07-.21c.21-.23.38-.51.75-.48A5.39,5.39,0,0,1,5.38,4.06Z"/><path class="cls-3" d="M2.25,4.85c-.28.12-.39.48-.75.48A5.91,5.91,0,0,1,.89.72C1,.39,1.1-.15,1.62,0s.22.62.11,1A5.1,5.1,0,0,0,2.25,4.85Z"/></g></g></g></svg>