<svg xmlns="http://www.w3.org/2000/svg" viewBox="0 0 32.99 33.88"><defs><style>.cls-1{fill:#4aad50;}.cls-2{fill:#abd282;}.cls-3{fill:#419e49;}.cls-4{fill:#abd283;}.cls-5{fill:#9bc967;}.cls-6{fill:#9bc968;}.cls-7{fill:#c3dfa5;}.cls-8{fill:#9bca68;}.cls-9{fill:#9bca69;}.cls-10{fill:#9ac967;}</style></defs><g id="Capa_2" data-name="Capa 2"><g id="START11"><g id="Verduras"><path class="cls-1" d="M8.63,13a1.07,1.07,0,0,1-.58-1.38c.16-.43,0-.56-.31-.76a3,3,0,0,1-.21-5.2A1,1,0,0,0,8,4.82a3.21,3.21,0,0,1,3.21-2.91,1.23,1.23,0,0,0,1.16-.54A3.43,3.43,0,0,1,16.57.3a1.41,1.41,0,0,0,1.17,0,3.75,3.75,0,0,1,4.3.89.84.84,0,0,0,1,.25,3.68,3.68,0,0,1,4.88,2.69,1.45,1.45,0,0,0,.47.64,9.13,9.13,0,0,0,3,1.86,2.65,2.65,0,0,1,.4,4.62c-.27.22-.39.35-.27.75a2.58,2.58,0,0,1-1.25,3.11,3.58,3.58,0,0,1-3.65-2.77A1.83,1.83,0,0,0,25.51,11,3.37,3.37,0,0,1,24,9.48a.8.8,0,0,0-1-.42,4.62,4.62,0,0,1-4.7-1.3c-.37-.39-.58-.15-.82.11a5.71,5.71,0,0,1-2.62,1.6,4.87,4.87,0,0,1-1.31.14c-.33,0-.5.13-.41.48.26,1.06-.35,1.67-1.14,2.16A5.7,5.7,0,0,1,8.63,13Z"/><path class="cls-1" d="M2.22,30.59A1.81,1.81,0,0,1,1.43,29,1.16,1.16,0,0,0,1,28,2.19,2.19,0,0,1,.71,25.2a.52.52,0,0,0-.07-.76A2.3,2.3,0,0,1,.81,21.1a.9.9,0,0,0,.32-.92,2.55,2.55,0,0,1,3.24-3A.5.5,0,0,0,5,17c1.11-1.39,2.21-1.54,3.61-.51.17.13.29.18.48.08a.66.66,0,0,1,.15,0,4.43,4.43,0,0,1,2.12.45c.57.16,1.33-.56,2.12-.3A1.75,1.75,0,0,1,14.83,18a2.88,2.88,0,0,1-3.44,1.93.88.88,0,0,0-1,.37,3.63,3.63,0,0,1-2.24,1.45.91.91,0,0,0-.7.65,2.28,2.28,0,0,1-1.07,1.29.92.92,0,0,0-.51.9A2.42,2.42,0,0,1,5,26.5a1,1,0,0,0-.33,1.11A2.46,2.46,0,0,1,2.22,30.59Z"/><path class="cls-2" d="M23,20.79c-.21,1.2,0,2.42-.26,3.62a7.09,7.09,0,0,0-1.72.53c.48.53,1.21.12,1.67.53-.09,1.62-.17,3.24-.28,4.86,0,.55-.54.65-.92.83a2.51,2.51,0,0,1-1.43.25,3.8,3.8,0,0,0-.74-.18,1,1,0,0,1-.82-.85c-.08-.85-.21-1.7-.22-2.56,0-.7.51-.8,1-1a2.56,2.56,0,0,1-1.14-3c.1-.39.1-.39,1.07-.71,0-.17-.15-.2-.26-.24a1.42,1.42,0,0,1-1-1.63,13.62,13.62,0,0,0-.62-4.7,9.05,9.05,0,0,0-1.82-3.15c-.83-.95-.76-1.22.43-1.7.73.09.91.77,1.32,1.21A6.12,6.12,0,0,1,17.89,14c.08.13.16.3.35.24s.16-.19.18-.32c.14-.74.22-1.48.29-2.23,0-.29-.06-.64.33-.79.67.42,1.43.62,2.13,1a10,10,0,0,1,.15,2.83,11,11,0,0,0,.13,2.15c1.07-1.22,1.56-2.71,2.81-3.6a4.23,4.23,0,0,1,1.35,1.59,14.18,14.18,0,0,0-2.47,4.69c-.5.47-1.19.46-1.78.69a4.35,4.35,0,0,0-.93.38C21.3,20.89,22.15,20.59,23,20.79Z"/><path class="cls-3" d="M8.63,13c.68-.37,1.47-.19,2.18-.43a3.92,3.92,0,0,0,1.61-.91,1.33,1.33,0,0,0,.39-1.6c-.19-.42-.11-.65.4-.61a5,5,0,0,0,4.23-1.89c.37-.43.54-.37.92.07A3.92,3.92,0,0,0,22,9a4.93,4.93,0,0,0,1.37-.24c.28-.13.41,0,.53.26a3.87,3.87,0,0,0,2.29,2.09c.25.09.49.16.51.49.17,2.09,1.46,3.09,3.38,3.47a.81.81,0,0,1,.21.1,3.18,3.18,0,0,1-4.21-.62c-.53-.17-.61-.66-.76-1.1s0-.64-.34-.83A3.81,3.81,0,0,1,23.12,11a.58.58,0,0,0-.79-.27A3.89,3.89,0,0,1,19,10.07c-.8-.65-.8-.65-1.56,0a4.38,4.38,0,0,1-2.19,1,1.08,1.08,0,0,1-.31,0c-.45-.05-.67,0-.56.58a.84.84,0,0,1-.61,1.08A4.16,4.16,0,0,1,8.63,13Z"/><path class="cls-4" d="M11.3,22.31c.35.54.75,1.06,1,1.63a22.17,22.17,0,0,0,4.72,5.71,1.4,1.4,0,0,0,.26.16c.38.32.84.57.82,1.16a5.39,5.39,0,0,0-2,1.41,40.83,40.83,0,0,0-4.74-3.77c-1.07-.66-2.3-1-3.41-1.53-.47-.24-1-.5-.61-1.18a1.12,1.12,0,0,1,1,0c.66.22,1.32.42,2,.6.23.06.47.13.64-.1s.05-.39,0-.58c-.22-.55-.47-1.09-.69-1.64a1.32,1.32,0,0,1-.19-.89C10.48,23,10.89,22.65,11.3,22.31Z"/><path class="cls-5" d="M18.14,30.94c-.2-.43-.74-.6-.81-1.13-.19-3.75-.34-7.5-.61-11.25a9.32,9.32,0,0,0-2.31-5.33c-.16-.19-.3-.44-.62-.4A1.33,1.33,0,0,0,13.91,11h1.42c.29.19.7.28.63.77-.07.08-.11.19-.2.24-.87.47-.85.46-.18,1.19A9.64,9.64,0,0,1,18,18.67a23.57,23.57,0,0,1,.14,3,.77.77,0,0,0,.56.83,3.21,3.21,0,0,1,1.1.57.65.65,0,0,1-.66.33c-.81-.1-.91.35-.85,1a2.44,2.44,0,0,1,0,.54,1.31,1.31,0,0,0,1,1.59.67.67,0,0,1,.5.34.49.49,0,0,1-.51.27c-.81-.06-.86.41-.82,1a17.31,17.31,0,0,1,.17,2.16c0,.4.33.56.64.71l.75.38h-.93C18.75,31.28,18.25,31.51,18.14,30.94Z"/><path class="cls-3" d="M2.22,30.59c1-.36,2-.8,2.26-2a1.15,1.15,0,0,0,0-.68c-.39-.77-.11-1.26.51-1.75a1.77,1.77,0,0,0,.62-1.61.82.82,0,0,1,.54-1,1.4,1.4,0,0,0,.87-.84c.19-.91.82-1.16,1.61-1.35A3.06,3.06,0,0,0,10.33,20c.21-.29.38-.5.82-.39a2.74,2.74,0,0,0,3.38-1.28,3.27,3.27,0,0,1,.3-.35c.19,1.87-.53,3-2,3.34a1.91,1.91,0,0,1-1.14-.11c-.45-.22-.59,0-.73.36a1.71,1.71,0,0,1-1.06,1.23C8.3,23.1,7.93,24.66,7,25.58c0,.63,0,1.28-.69,1.6a1.06,1.06,0,0,0-.53,1.47,2,2,0,0,1-1,2.17A2.14,2.14,0,0,1,2.22,30.59Z"/><path class="cls-6" d="M6.28,27.18a2.29,2.29,0,0,0,.5-1.71.6.6,0,0,1,.61.43c-.11.49.11.76.55,1a30,30,0,0,1,4,1.81c1.42,1,2.7,2.16,4,3.26.11.09.13.27.2.41a.56.56,0,0,1,0,.81c-1.36-1.1-2.72-2.22-4.1-3.31A19.22,19.22,0,0,0,6.28,27.18Z"/><path class="cls-7" d="M16.11,33.16c0-.27,0-.54,0-.81a2.1,2.1,0,0,1,2-1.41c.25.28.65.26.94.46-.2,0-.32.1-.24.36a1.51,1.51,0,0,1-.48,1.53C17.59,34.12,16.91,34.07,16.11,33.16Z"/><path class="cls-8" d="M23,20.79a5.11,5.11,0,0,1-3.15-.19,15.18,15.18,0,0,1,3.34-1.06Z"/><path class="cls-9" d="M25.15,12.38c.3.06.32.29.33.53a2.76,2.76,0,0,0,.62,1.6c-.23,0-.31.24-.49.34a3.2,3.2,0,0,1-1.22-1.54C24.33,12.74,24.78,12.59,25.15,12.38Z"/><path class="cls-6" d="M22.64,25.47a3.7,3.7,0,0,1-1.83-.23c-.19-.09-.44-.3-.14-.43a2.75,2.75,0,0,1,2-.4C22.68,24.76,22.66,25.12,22.64,25.47Z"/><path class="cls-6" d="M9.86,22.67a5.53,5.53,0,0,0,1.07-1.09c.12.24.24.49.37.73a1.36,1.36,0,0,1-1.15,1C9.79,23.21,9.7,23,9.86,22.67Z"/><path class="cls-10" d="M19.06,10.93l0-1.06a3.6,3.6,0,0,0,2,.79l0,1.23A2.45,2.45,0,0,1,19.06,10.93Z"/></g></g></g></svg>