<svg xmlns="http://www.w3.org/2000/svg" viewBox="0 0 33.73 31.25"><defs><style>.cls-1{fill:#5fa7ec;}.cls-2{fill:#b98180;}.cls-3{fill:#e19974;}.cls-4{fill:#4688d2;}.cls-5{fill:#e8ad8d;}.cls-6{fill:#e8ad8c;}.cls-7{fill:#5fcca3;}.cls-8{fill:#986b6c;}.cls-9{fill:#ae6c6c;}.cls-10{fill:#3974a8;}.cls-11{fill:#4f92c8;}.cls-12{fill:#4ca887;}</style></defs><g id="Capa_2" data-name="Capa 2"><g id="START11"><g id="Otros"><path class="cls-1" d="M31.42,11c.77,3.79,1.79,7.52,2.24,11.37a6.79,6.79,0,0,1,0,2.11,3.77,3.77,0,0,1-4.08,3.12c-3.36,0-6.72,0-10.07,0-.36-.06-.38-.38-.47-.63-.28-.79-.49-1.61-.82-2.39a8.57,8.57,0,0,0-3.12-3.87,1.74,1.74,0,0,1-.73-.64c0-.46.44-.5.73-.65A8.61,8.61,0,0,0,18,17a5.21,5.21,0,0,0-1.51-1.41A8.89,8.89,0,0,0,12.83,14c-.34-.07-.71-.08-.94-.41A5.59,5.59,0,0,1,12.37,11a.65.65,0,0,1,.23-.13,2.9,2.9,0,0,1,.83-.09H30.36A1.39,1.39,0,0,1,31.42,11Z"/><path class="cls-2" d="M20,.12A4.81,4.81,0,0,1,24.6,1.6c2.07,2,4.09,4.05,6.14,6.08-.3.42-.76.3-1.16.3h-14a12.49,12.49,0,0,1-2-.06c-.33-.08-.42-.26-.22-.55a3.87,3.87,0,0,1,.43-.47q2.76-2.78,5.53-5.53A4.36,4.36,0,0,1,20.91.3c-.14,0-.3,0-.46,0A.54.54,0,0,1,20,.12Z"/><path class="cls-3" d="M20,30.44a.44.44,0,0,1-.25.3.62.62,0,0,1-.48,0,56.54,56.54,0,0,1-6.53-2.6A23.78,23.78,0,0,1,4,19.73a1.78,1.78,0,0,1-.26-.58c0-.44.26-.66.62-.82a1.54,1.54,0,0,1,.9.08,23.76,23.76,0,0,1,11.42,7.15c1.18,1.35,2,3,3.19,4.3A.64.64,0,0,1,20,30.44Z"/><path class="cls-4" d="M13.28,7.67a4.28,4.28,0,0,0,.49,0H30.25c.16,0,.32,0,.49,0,.54,0,.76.14.72.74-.07.85,0,1.71,0,2.56h-19a.78.78,0,0,1-.23-.7,7.07,7.07,0,0,1,.17-2.55A.77.77,0,0,1,13.28,7.67Z"/><path class="cls-5" d="M20,30.44C18.35,28.26,17,25.84,14.9,24A24.43,24.43,0,0,0,4.78,18.48a1.46,1.46,0,0,0-.42,0c0-.64.55-.75,1-.91a2.19,2.19,0,0,1,1.38-.09c2,.76,4.16.88,6.15,1.64a2.59,2.59,0,0,1,1.47.88A9.73,9.73,0,0,1,19,26.14a11.43,11.43,0,0,0,.54,1.44c.2.45.4.89.61,1.34A1.4,1.4,0,0,1,20,30.44Z"/><path class="cls-6" d="M3.82,19.16a26.7,26.7,0,0,0,4.32,5.39,22.22,22.22,0,0,0,7.61,4.76c1.33.51,2.72.87,4,1.43a1.38,1.38,0,0,1-1.45.47A15.65,15.65,0,0,0,15,30.87a9.51,9.51,0,0,1-8.63-5C5.51,24.52,4.9,23,3.91,21.72a3.87,3.87,0,0,1-.48-1.46C3.5,19.88,3.16,19.35,3.82,19.16Z"/><path class="cls-7" d="M12,13.66a10.13,10.13,0,0,1,5.86,2.87c.14.13.46.2.34.52a1.8,1.8,0,0,1-1,.24c-3.56-.08-7.12.27-10.68.12-.72,0-1.44.18-2.17.12a.77.77,0,0,1-.8-.39,9.82,9.82,0,0,1,5.9-3.37,1.62,1.62,0,0,0,.42-.24A3.28,3.28,0,0,1,12,13.66Z"/><path class="cls-8" d="M13.28,7.67l-.86.07A1,1,0,0,1,11,7.68q3.11-3,6.2-6.1A4.84,4.84,0,0,1,20,.12h1.37C18.22,2.14,16,5.17,13.28,7.67Z"/><path class="cls-9" d="M3.53,17.14l.71.2c.36.19.86-.09,1.12.37a1.78,1.78,0,0,0-1,.75,1,1,0,0,0-.54.7c-.32.3-.2.76-.39,1.1A9.42,9.42,0,0,0,.29,16.63c-.47-.31-.28-.5,0-.81s.35-.49.74-.15A8,8,0,0,0,3.53,17.14Z"/><path class="cls-10" d="M11,7.68l1.41.06V11h0a2.22,2.22,0,0,1-1.64.18.42.42,0,0,1-.41-.47,24.22,24.22,0,0,1,.07-2.95C10.61,7.58,10.82,7.7,11,7.68Z"/><path class="cls-11" d="M10.44,7.75c0,.9,0,1.79,0,2.68,0,.43.14.59.57.56s.94,0,1.41,0c0,.91-.46,1.75-.43,2.67a6.7,6.7,0,0,1-2.14-.13,19.31,19.31,0,0,0,.48-5.47A.32.32,0,0,1,10.44,7.75Z"/><path class="cls-12" d="M5.36,17.71l-1.12-.37c4.65-.18,9.3-.29,14-.29A10.6,10.6,0,0,1,14.38,20a13.83,13.83,0,0,0-4.52-1.45,10.83,10.83,0,0,1-2.29-.64A3.8,3.8,0,0,0,5.36,17.71Z"/></g></g></g></svg>