<svg xmlns="http://www.w3.org/2000/svg" viewBox="0 0 35.82 31.18"><defs><style>.cls-1{fill:#f9dedb;}.cls-2{fill:#f4c7c0;}.cls-3{fill:#fe725c;}</style></defs><g id="Capa_2" data-name="Capa 2"><g id="START11"><g id="Proteina"><path class="cls-1" d="M.55,19.8C1,19,.76,18.17.9,17.36a20,20,0,0,1,2.31-6.14,22.9,22.9,0,0,1,4.65-6,19.26,19.26,0,0,1,10-5,15.66,15.66,0,0,1,9.47,1.31,14.37,14.37,0,0,1,6.57,6,14.15,14.15,0,0,1,1.9,7.75,4.08,4.08,0,0,1-.15,1.22c-.23.58.07,1.12,0,1.68-.16,0-.23,0-.3.17a11.31,11.31,0,0,1-7,7.16,8.64,8.64,0,0,1-5.91.16c-.91-.3-1.84-.56-2.76-.81A6.68,6.68,0,0,0,14.08,26a14.13,14.13,0,0,1-3.55,1.8,7,7,0,0,1-9.24-4.5A7,7,0,0,1,.66,20,.34.34,0,0,0,.55,19.8Z"/><path class="cls-2" d="M.55,19.8c.33.05.23.31.25.51A8.73,8.73,0,0,0,4.27,27a6.16,6.16,0,0,0,4.54,1,14.39,14.39,0,0,0,5.75-2.5,6.71,6.71,0,0,1,5.71-.65A16.51,16.51,0,0,0,25.34,26a10.36,10.36,0,0,0,6.36-2.52,11.27,11.27,0,0,0,3.73-5.7l.25.48a10.56,10.56,0,0,1-.85,5.23,9.5,9.5,0,0,1-6.54,5.25,12.38,12.38,0,0,1-7.13-.3,21,21,0,0,0-2.31-.68,3.58,3.58,0,0,0-2.87.56,16.61,16.61,0,0,1-5.46,2.58A10.17,10.17,0,0,1,4,30.39,6.57,6.57,0,0,1,.28,25.72a10.72,10.72,0,0,1,.18-5.48Z"/><path class="cls-3" d="M2.49,19.94a14.39,14.39,0,0,1,1.87-7.23A19.78,19.78,0,0,1,13,3.65C18.55.83,24,.9,29.18,4.68a12.27,12.27,0,0,1,4.52,12.8,9.46,9.46,0,0,1-8.65,6.75,9.67,9.67,0,0,1-2.8-.6A20.61,20.61,0,0,0,19,22.79a8.4,8.4,0,0,0-5.81,1.52,12,12,0,0,1-4,1.85,4.94,4.94,0,0,1-5.89-3A8.29,8.29,0,0,1,2.49,19.94Z"/><path class="cls-1" d="M24.48,16.64a2.82,2.82,0,1,1,0-5.64,2.82,2.82,0,0,1,0,5.64Z"/></g></g></g></svg>