<svg xmlns="http://www.w3.org/2000/svg" viewBox="0 0 29.15 33.03"><defs><style>.cls-1{fill:#f8edd6;}.cls-2{fill:#f1dcb0;}.cls-3{fill:#d3bca6;}.cls-4{fill:#f1dcb1;}.cls-5{fill:#feab7b;}.cls-6{fill:#fcd66f;}.cls-7{fill:#f9945a;}.cls-8{fill:#feab7a;}.cls-9{fill:#6483b0;}.cls-10{fill:#fcc252;}.cls-11{fill:#f57f58;}.cls-12{fill:#f9955a;}</style></defs><g id="Capa_2" data-name="Capa 2"><g id="START11"><g id="Carbs"><path class="cls-1" d="M26.71,33H5.5c-.79,0-1-.22-1-1.05,0-4.21,0-8.42,0-12.63,0-2.6-.22-5.19-.14-7.78,0-.25-.08-.52.11-.74l.08.06a9.11,9.11,0,0,1,.12,2.5c0,1.33-.27,1.45,1.36,1L21.6,10.21c1.41-.38,2.82-.75,4.23-1.15A2,2,0,0,1,27,8.93a.56.56,0,0,1,.32.58c0,1.43,0,2.86,0,4.29a.62.62,0,0,1-.09.3.21.21,0,0,1-.33.06c-1-.82-2-.42-3,.08a4.31,4.31,0,0,0-1.56,1.5,13,13,0,0,1-1.52,2.14.8.8,0,0,1-1.15-.3,1.59,1.59,0,0,0-2.12-.38.86.86,0,0,1-1.29.07,1.41,1.41,0,0,0-2.06.26,1.29,1.29,0,0,1-1.05.48,1.49,1.49,0,0,0-1.58,1.45c0,.34-.1.59-.5.72-1.06.35-1.28.69-1.3,1.84,0,.13,0,.26-.09.36a2,2,0,0,1-.87.14.86.86,0,0,0-.85.93c0,.65.21,1,.81,1.1.42.09.9-.06,1.27.3.54.74,1,1.56,1.46,2.34A3.56,3.56,0,0,0,14.73,29H18c.34,0,.68,0,1,0a3.51,3.51,0,0,0,3.06-1.72,25,25,0,0,1,1.62-2.55,2.19,2.19,0,0,1,1-.12,1,1,0,0,0,.09-2.07,1.35,1.35,0,0,1-.68-.17,1.26,1.26,0,0,1-.15-.74A1.35,1.35,0,0,0,23,20.29a1,1,0,0,1-.79-.95c0-.3-.23-.56-.23-.87a.4.4,0,0,1,.1-.23A7.72,7.72,0,0,1,27,16a.26.26,0,0,1,.21.12,1.78,1.78,0,0,1,.15.94V31.67C27.31,32.21,27.35,32.77,26.71,33Z"/><path class="cls-1" d="M4.5,2v-1c0-.68.25-.92,1-.92H26.71c.28.14.53.32.54.66a21.6,21.6,0,0,1-.05,4,1.22,1.22,0,0,1-.86.51Q18.62,7.24,10.91,9.34c-1.86.5-3.72,1-5.6,1.5-.26.07-.53.21-.8,0l0,0c0-1,0-2,0-3,0-.49-.12-.68-.64-.66-1,0-1.93,0-2.89,0-.21,0-.43.06-.61-.11a.91.91,0,0,1,.77-.22c.71,0,1.42,0,2.13,0,1,0,1,0,1-1s0-2.06,0-3.09A1.12,1.12,0,0,1,4.5,2Z"/><path class="cls-2" d="M27,14.2A9.28,9.28,0,0,0,27.08,12c0-.81,0-1.63,0-2.44,0-.22.09-.5-.26-.56,0-.2.14-.24.28-.3a6.45,6.45,0,0,1,1-.27c.58-.1.76-.43.74-1,0-.81,0-1.62,0-2.42A1.29,1.29,0,0,1,29,4.3a.13.13,0,0,1,.19,0V31.65c0,1.11-.27,1.38-1.35,1.38H26.71a1.54,1.54,0,0,0,.39-1.17c0-5,0-10.08,0-15.12,0-.25.09-.52-.1-.74A3.54,3.54,0,0,1,27,14.2Z"/><path class="cls-3" d="M4.5,2c0,1.52,0,3.05,0,4.58,0,.45-.15.59-.59.58-1.19,0-2.37,0-3.55,0A.64.64,0,0,1,0,6.49,4.45,4.45,0,0,1,4.5,2Z"/><path class="cls-4" d="M29.15,4.26H29a2.88,2.88,0,0,1-1.86.56l-.07-.07c0-1.2,0-2.39,0-3.59A1.53,1.53,0,0,0,26.71,0H28c.81,0,1.15.34,1.16,1.17Z"/><path class="cls-5" d="M27.1,8.89,26.83,9,19.57,11Q12.34,12.9,5.12,14.85c-.48.13-.65.09-.63-.46,0-1.18,0-2.36,0-3.54l9.62-2.59L26.42,5c.22-.06.44-.15.67-.22v0A9.25,9.25,0,0,1,27.1,8.89Z"/><path class="cls-6" d="M9.64,22.31A1.69,1.69,0,0,1,10.94,20c.3-.07.38-.16.4-.45a1.7,1.7,0,0,1,2-1.74.51.51,0,0,0,.55-.27,1.68,1.68,0,0,1,2.67-.27c.51.46.57-.24.87-.24a3.84,3.84,0,0,0,1.79.71,1.6,1.6,0,0,1,1.29,1.38,1,1,0,0,0,.73.85,1.77,1.77,0,0,1,1.11,1.67.69.69,0,0,1-.47.82,3.31,3.31,0,0,1-.89.07H10.74C10.36,22.54,10,22.63,9.64,22.31Z"/><path class="cls-7" d="M18.05,29.16c-1.26,0-2.52.05-3.78,0a3.31,3.31,0,0,1-2.75-1.54c-.58-.87-1.09-1.79-1.62-2.69.16-.48.58-.35.91-.36q3.54,0,7.08,0a34.38,34.38,0,0,1,3.66.05c.22.06.37.19.24.42a13.14,13.14,0,0,1-2.31,3.44A3.52,3.52,0,0,1,18.05,29.16Z"/><path class="cls-8" d="M21.8,24.78c-3.75,0-7.5,0-11.24,0-.23,0-.48-.07-.66.14-.3-.25-.66-.13-1-.15-.86,0-1.21-.42-1.2-1.31s.39-1.12,1.22-1.14H22.06a1.37,1.37,0,0,1,1.12-.13,1.29,1.29,0,0,1,.87,1.29,1.35,1.35,0,0,1-.88,1.42A1.64,1.64,0,0,1,21.8,24.78Z"/><path class="cls-9" d="M27,14.2A4.05,4.05,0,0,1,27,16a.8.8,0,0,1-.57.26,5,5,0,0,0-3.09,1.23c-.41.33-.85.64-1.28,1a2.39,2.39,0,0,1-1.27-.65c.56-.86,1.07-1.76,1.7-2.58a4.14,4.14,0,0,1,3.32-1.69A1.17,1.17,0,0,1,27,14.2Z"/><path class="cls-10" d="M20.77,17.79a2.46,2.46,0,0,1,1.27.65c.33.79.51,1.61,1.5,2,.75.29.63,1.18.59,1.88-.3.31-.61.11-.91,0H22.06A1.67,1.67,0,0,0,20.8,20c-.33-.07-.41-.18-.43-.49a1.68,1.68,0,0,0-2-1.68c-.59.06-.58-.58-.94-.8a1.69,1.69,0,0,1,2.26.31A.89.89,0,0,0,20.77,17.79Z"/><path class="cls-11" d="M21.8,24.78h1.41c.19-.1.37-.17.55,0-.56.94-1.06,1.92-1.68,2.81a4,4,0,0,1-4,1.57,5.2,5.2,0,0,0,2.35-2.08C20.81,26.28,21.33,25.54,21.8,24.78Z"/><path class="cls-12" d="M23.76,24.78h-.55c.93-.89.93-1.69,0-2.44l.91,0c.22,0,.43,0,.65,0a1.13,1.13,0,0,1,1.14,1.21,1.15,1.15,0,0,1-1.13,1.23C24.45,24.79,24.1,24.78,23.76,24.78Z"/><path class="cls-4" d="M18,3.62c.36,0,.58,0,.62.35a.47.47,0,0,1-.39.57L13.91,5.7,8.83,7.09c-.36.09-.81.29-.94-.28s.32-.6.67-.7L14,4.65l3.59-1Z"/><path class="cls-12" d="M27.1,8.89V4.8L29,4.26c0,1.22,0,2.43,0,3.65,0,.34-.07.56-.46.62S27.59,8.77,27.1,8.89Z"/></g></g></g></svg>