<svg xmlns="http://www.w3.org/2000/svg" viewBox="0 0 33.51 33.35"><defs><style>.cls-1{fill:#7a432a;}.cls-2{fill:#f25244;}.cls-3{fill:#e54c3f;}.cls-4{fill:#f1ddc1;}.cls-5{fill:#6e3c26;}.cls-6{fill:#fea812;}.cls-7{fill:#feb431;}.cls-8{fill:#91563a;}.cls-9{fill:#92563a;}.cls-10{fill:#fb675a;}</style></defs><g id="Capa_2" data-name="Capa 2"><g id="START11"><g id="Grasas"><path class="cls-1" d="M8.73,13.57,21.42.85c1.13-1.13,1.13-1.13,2.26,0q3.7,3.72,7.42,7.43C30.62,9,30,9.51,29.55,10.19c-.55,0-.77-.45-1.08-.76-1.28-1.25-1.27-1.26-2.53,0s-1.38,1.38,0,2.75c.27.27.64.46.75.86-.52.66-1.22,1.15-1.77,1.79-.49,0-.7-.39-1-.67-1.37-1.34-1.36-1.35-2.75,0-.23.24-.46.49-.72.72s-.36.63,0,.95a1.77,1.77,0,0,1,.46.56c.12.26.12.48-.23.55A22.44,22.44,0,0,1,16,15.71a21.78,21.78,0,0,0-2.37-2.53c-.29-.31-.52-.19-.79.06a6.62,6.62,0,0,1-1.39,1.25,7.48,7.48,0,0,1-2.33-.55A.62.62,0,0,1,8.73,13.57Z"/><path class="cls-2" d="M8.73,13.57l.3.19c2.46,2,4.88,4,7.34,5.93.27.23.61.41.61.84-.2.5-.7.64-1.11.87a55.62,55.62,0,0,1-8.35,3.81.86.86,0,0,1-.32,0,9.85,9.85,0,0,1-1.63-1.53c-1-.94-1.92-1.9-2.87-2.86-.2-.21-.52-.38-.46-.76Q5.42,16.75,8.73,13.57Z"/><path class="cls-3" d="M7.45,25.15a4.59,4.59,0,0,1,1.69-.75,60.67,60.67,0,0,0,7.43-3.62.68.68,0,0,0,.34-.35c.1,0,.21-.05.28,0,.68.63,1.38.32,2.08.06,1.87-.69,3.75-1.35,5.63-2,.33-.11.67-.34,1-.06-3.27,3.28-6.52,6.59-9.84,9.83-.93.91-1.83,1.85-2.82,2.7-.31,0-.48-.2-.66-.38L7.83,25.81C7.65,25.63,7.42,25.46,7.45,25.15Z"/><path class="cls-4" d="M25.92,18.43a5.54,5.54,0,0,0-1.64.49c-1.68.58-3.36,1.15-5,1.82-.9.37-1.66.48-2.36-.31-2.25-1.84-4.5-3.67-6.73-5.53-.41-.35-1-.53-1.15-1.14l2.5.61a1.65,1.65,0,0,1,1,.1c1,.22,1.88.52,2.83.75.25.06.53.09.66.37l4.8,1.26a8.83,8.83,0,0,1,2.55.52c.69.17,1.38.34,2,.55.25.08.52.12.65.39Z"/><path class="cls-5" d="M26.05,18.31l-2.75-.78c.07-.68.68-1,1.09-1.37a1.25,1.25,0,0,0,.49-1.35,4.48,4.48,0,0,1,1.74-1.74.86.86,0,0,0,1.13-.29,13.81,13.81,0,0,1,1.33-1.32,1.13,1.13,0,0,0,.44-1.3A3.56,3.56,0,0,1,31.1,8.28c.74.73,1.46,1.47,2.23,2.17.41.38,0,.54-.17.73C30.8,13.56,28.42,15.93,26.05,18.31Z"/><path class="cls-6" d="M7.45,25.15c1.9,2,3.83,3.91,5.81,5.81a16.62,16.62,0,0,1-2.15,2.29c-.21.23-.34,0-.46-.13C8.42,30.89,6.21,28.65,4,26.42a.24.24,0,0,1,.1-.32,9,9,0,0,1,3.11-1Z"/><path class="cls-7" d="M7.2,25.1c-.86.31-1.71.61-2.56.93-.24.09-.54.09-.65.39L.18,22.65c-.22-.21-.25-.36,0-.58.7-.66,1.38-1.34,2.07-2Z"/><path class="cls-8" d="M29.52,10.16c.54.45.36.8-.09,1.21-.63.56-1.22,1.17-1.8,1.79-.41.44-.72.42-1-.09l-1.93-1.86a.47.47,0,0,1,0-.79c.72-.71,1.45-1.42,2.15-2.15.3-.32.5-.24.76,0C28.23,8.94,28.88,9.55,29.52,10.16Z"/><path class="cls-8" d="M25.27,6c0,.21-.12.3-.22.4-.71.72-1.44,1.42-2.15,2.16-.27.28-.46.23-.71,0q-1-1.06-2.1-2.1c-.25-.25-.32-.43,0-.71.73-.7,1.44-1.43,2.16-2.15.18-.19.35-.33.6-.08l2.3,2.31A1.15,1.15,0,0,1,25.27,6Z"/><path class="cls-8" d="M17.92,8c.13.11.25.19.35.29.7.7,1.39,1.41,2.11,2.09.3.29.29.49,0,.77-.72.69-1.41,1.39-2.1,2.1-.27.28-.46.27-.71,0q-1.06-1.1-2.16-2.16c-.25-.24-.24-.42,0-.66l2.16-2.15A4.26,4.26,0,0,1,17.92,8Z"/><path class="cls-8" d="M24.88,14.81c.52.43.38.78-.08,1.19s-1,1-1.5,1.53a19.65,19.65,0,0,1-2.5-.68c.13-.58-.4-.75-.68-1.05s-.32-.51,0-.82c.7-.66,1.38-1.33,2-2,.31-.33.51-.3.81,0C23.59,13.59,24.24,14.19,24.88,14.81Z"/><path class="cls-9" d="M16,15.59c-1.5-.38-3-.72-4.47-1.22L13,12.86c.17-.17.34-.28.55-.06.81.82,1.62,1.63,2.42,2.45C16,15.32,16,15.48,16,15.59Z"/><path class="cls-10" d="M7.71,18.69c0,.19-.12.27-.22.37-.53.54-1.07,1.05-1.58,1.6-.34.36-.53.11-.77-.11s-.32-.44,0-.71c.55-.52,1.07-1.06,1.6-1.59.13-.13.27-.31.49-.13A1.55,1.55,0,0,1,7.71,18.69Z"/><path class="cls-10" d="M8.7,17.82C8.43,17.56,8,17.38,8,17a.86.86,0,0,1,.73-.69.69.69,0,0,1,.66.62C9.42,17.35,9,17.54,8.7,17.82Z"/></g></g></g></svg>