<svg xmlns="http://www.w3.org/2000/svg" viewBox="0 0 31.63 31.62"><defs><style>.cls-1{fill:#81512b;}.cls-2{fill:#82512b;}.cls-3{fill:#6b4124;}</style></defs><g id="Capa_2" data-name="Capa 2"><g id="START11"><g id="Grasas"><path class="cls-1" d="M21.58,18.5a4.31,4.31,0,0,1-6.37.5c.18-.41.47-.75.67-1.15a5.8,5.8,0,0,0,0-5.39,9.19,9.19,0,0,1-.7-1.49,21.78,21.78,0,0,1,1.65-2.85c.39-.58.68-.61,1.17-.12a19,19,0,0,1,2.1,2.46,6.91,6.91,0,0,1-.38,1.4A6.1,6.1,0,0,0,21,17.68,2.06,2.06,0,0,1,21.58,18.5Z"/><path class="cls-2" d="M24.8,3.05A19.72,19.72,0,0,1,26.68.41c.44-.54.73-.54,1.17,0a19.75,19.75,0,0,1,1.87,2.65c-.2.78-.61,1.48-.78,2.28a5.94,5.94,0,0,0,1.27,5.35,1.36,1.36,0,0,1,.3.41,4.35,4.35,0,0,1-6.5,0c.29-.47.7-.85,1-1.34a6.38,6.38,0,0,0,.1-5.93A2.15,2.15,0,0,1,24.8,3.05Z"/><path class="cls-2" d="M24.76,20.16a4.32,4.32,0,0,1,6,2.42c-.58.53-1.3.84-1.89,1.38A6.5,6.5,0,0,0,27,28.54a9.63,9.63,0,0,1,0,1.2,18.41,18.41,0,0,1-2.8,1.74c-.51.27-.83.15-1-.37a16.84,16.84,0,0,1-.71-3.28c.48-.62,1.1-1.12,1.56-1.77A5.8,5.8,0,0,0,24.76,20.16Z"/><path class="cls-1" d="M13.26,1.12a4.34,4.34,0,0,1,0,6.51c-.47-.29-.85-.7-1.33-1a6.33,6.33,0,0,0-5.88-.13c-.28.13-.55.35-.89.23A17.16,17.16,0,0,1,2.52,4.91c-.46-.38-.45-.7,0-1.09a19.38,19.38,0,0,1,2.68-1.9c.84.22,1.6.65,2.47.81A5.92,5.92,0,0,0,13,1.3.76.76,0,0,1,13.26,1.12Z"/><path class="cls-1" d="M6.84,18.75a19.54,19.54,0,0,1-1.91,2.69c-.41.51-.71.51-1.12,0A18.18,18.18,0,0,1,1.9,18.75a9.27,9.27,0,0,1,.54-1.35A6.17,6.17,0,0,0,1.35,11a1,1,0,0,1-.21-.32,4.34,4.34,0,0,1,6.46,0,11.33,11.33,0,0,0-1.22,1.92,6.44,6.44,0,0,0,0,5.06C6.56,18.05,6.73,18.39,6.84,18.75Z"/><path class="cls-2" d="M6.78,22.84a4.32,4.32,0,0,1,5.72-2.7.79.79,0,0,1,0,.62c-.65,2.66.38,4.72,2.31,6.46.2.18.46.31.52.61a17,17,0,0,1-.54,3.25.57.57,0,0,1-.91.44,19.58,19.58,0,0,1-2.93-1.64,17.69,17.69,0,0,0-.47-3.06,5.82,5.82,0,0,0-2.92-3.44C7.28,23.23,7,23.14,6.78,22.84Z"/><path class="cls-3" d="M1.14,10.71c.7.28,1,1,1.24,1.54a6.51,6.51,0,0,1-.33,6.39c0,.05-.1.07-.15.11A10.84,10.84,0,0,1,0,14.08,4,4,0,0,1,1.14,10.71Z"/><path class="cls-3" d="M21.58,18.5a6.41,6.41,0,0,1-1.44-8,9.83,9.83,0,0,1,2.38,5.11A3.72,3.72,0,0,1,21.58,18.5Z"/><path class="cls-3" d="M13.26,1.12a3,3,0,0,1-1.85,1.42,6.72,6.72,0,0,1-6.07-.48.55.55,0,0,1-.12-.14A10.86,10.86,0,0,1,10,0,3.91,3.91,0,0,1,13.26,1.12Z"/><path class="cls-3" d="M30.51,11.09a3.46,3.46,0,0,1-1.46-1.93,6.83,6.83,0,0,1,.48-5.94.77.77,0,0,1,.19-.17A10.84,10.84,0,0,1,31.6,7.78,4,4,0,0,1,30.51,11.09Z"/><path class="cls-3" d="M26.94,29.74a5.18,5.18,0,0,1,.13-3,5.79,5.79,0,0,1,3.72-4.19,4,4,0,0,1-.38,3.76A10.83,10.83,0,0,1,26.94,29.74Z"/><path class="cls-3" d="M6.78,22.84A6.15,6.15,0,0,1,11,28.55c0,.44.35.89,0,1.33A10.91,10.91,0,0,1,7.3,26.6,4.1,4.1,0,0,1,6.78,22.84Z"/><path class="cls-3" d="M5.16,6.76a7.73,7.73,0,0,1,4.36-1,6.11,6.11,0,0,1,3.54,1.53.48.48,0,0,1,.2.38,4.17,4.17,0,0,1-3.9,1A11.12,11.12,0,0,1,5.16,6.76Z"/><path class="cls-3" d="M6.84,18.75c-.39-.1-.35-.5-.47-.76A6.42,6.42,0,0,1,7,11.17c.15-.2.29-.42.57-.46a4.42,4.42,0,0,1,.9,4.5A12.06,12.06,0,0,1,6.84,18.75Z"/><path class="cls-3" d="M24.76,20.16c.64.34.55,1,.61,1.55.3,2.53-.85,4.45-2.68,6.05-.06,0-.16,0-.24.07a10.19,10.19,0,0,1,.14-5.23A3.84,3.84,0,0,1,24.76,20.16Z"/><path class="cls-3" d="M24.8,3.05a5.38,5.38,0,0,1,1.07,2.74,6.26,6.26,0,0,1-1.35,5,.72.72,0,0,1-.51.35A4.25,4.25,0,0,1,23,7,11.89,11.89,0,0,1,24.8,3.05Z"/><path class="cls-3" d="M15.32,27.83a7.16,7.16,0,0,1-3.14-4.71,5.82,5.82,0,0,1,.32-3A3.86,3.86,0,0,1,15,22.7,10.37,10.37,0,0,1,15.32,27.83Z"/><path class="cls-3" d="M15.22,11a6.45,6.45,0,0,1,1.46,3.31,5.84,5.84,0,0,1-1.06,4.38c-.11.15-.18.34-.41.34A4.46,4.46,0,0,1,14,14.41,12.5,12.5,0,0,1,15.22,11Z"/></g></g></g></svg>