<svg xmlns="http://www.w3.org/2000/svg" viewBox="0 0 25.96 30.11"><defs><style>.cls-1{fill:#3f9009;}.cls-2{fill:#276e05;}.cls-3{fill:#f4f5f3;}</style></defs><g id="Capa_2" data-name="Capa 2"><g id="START11"><g id="Verduras"><path class="cls-1" d="M13,10.52a2.08,2.08,0,0,0-1.75-1.31,7,7,0,0,0-2.58.37A1.69,1.69,0,0,1,7,9.19c-.24-.17-.21-.37-.19-.61s.21-.33.42-.37.27,0,.4-.07.72,0,.7-.39-.47-.28-.7-.24c-.88.16-.89-.5-1-1-.26-1.15-.22-1.15,1-1.17a1.27,1.27,0,0,1,1.22.75l0-.64c0-.24-.08-.58.27-.61A1.4,1.4,0,0,1,10,5c.77.43.78,1.17,1.1,1.77a10,10,0,0,0,1.66,2.3,6.24,6.24,0,0,0-1.58-4.14,2.27,2.27,0,0,1-.41-2.42c.11-.31.57-.24,1,.24-.39-1.1.3-1.78.71-2.55.16-.3.33-.24.54-.06s.58.45.86.69a1,1,0,0,1,.29,1.24c-.15.39-.31.78-.44,1.21.46-.49,1.22-.37,1.66-.92.24-.3.61-.23.82.19a1.21,1.21,0,0,1,.07,1.18,3.21,3.21,0,0,1-1,1.25,4.74,4.74,0,0,0-1.8,3.43c0,.27-.07.55-.12,1a7,7,0,0,0,2.09-3.16c.19-.72.76-1,1.14-1.46s1,0,1,.51a8,8,0,0,0,0,.92c.36-1.11,1.23-.85,2-.88.33,0,.48.1.39.44a.76.76,0,0,0,0,.21,4.72,4.72,0,0,1-.29,1.34c-.22.64-.82.11-1.19.35a1.59,1.59,0,0,1-.49.13c.17.49.61.41,1,.52s.64,0,.75.45-.23.64-.52.85a1.41,1.41,0,0,1-1.23.23,11.25,11.25,0,0,0-2.58-.45,2.39,2.39,0,0,0-1.67.68c-.42.36,0,.84-.18,1.24-.25,0-.24-.22-.27-.38S13.25,10.5,13,10.52Z"/><path class="cls-1" d="M16.56,18.48c.25-.21.11-.45,0-.69a9.47,9.47,0,0,0-1.91-3.08c-.56-.65-.55-.86,0-1.53.18-.24.33-.24.56-.08a3.76,3.76,0,0,1,.64.62c.18.19.35.6.6.47s0-.53,0-.8a.15.15,0,0,0,0-.07c-.38-.68-.08-1.08.51-1.43s1-.29,1.26.4a4.69,4.69,0,0,1,.17.67c0,.13,0,.34.21.27.54-.23.6.19.79.72.08-.52.25-.79.61-.73s.72.09.72.57c0,.13,0,.23.19.18.7-.18.58.37.68.79.37-.29.7-.58,1.06-.84.18-.13.41-.33.63-.19s.1.38.09.58,0,.27,0,.48a5,5,0,0,1,2.19-.3c.47,0,.56.24.27.61s-.53.63-.8.94-.38.31-.22.64-.15.35-.32.42c-.4.18-.81.33-1.29.52.85.55.15,1.21.21,1.82a.22.22,0,0,1-.28.23c-.65-.19-1.36,0-2-.41a3.15,3.15,0,0,0-2.92-.61c-.11,0-.21.08-.37.14a6.34,6.34,0,0,0,3.59,1.07,1.62,1.62,0,0,1,1.2.7c.07.1.22.27.07.36-.62.39-.1.66.09,1s.57.87,0,1.27a1.13,1.13,0,0,1-1.7-.17c-.22-.3-.43-.86-.77-.74s0,.65,0,1,.3.88-.29,1a1,1,0,0,1-1.23-.82,11.31,11.31,0,0,0-.9-3,2.91,2.91,0,0,0-1.09-1.38A1,1,0,0,1,16.56,18.48Z"/><path class="cls-1" d="M6.63,17.93c-.35-.2-.62.06-.88.19A9.6,9.6,0,0,0,3.1,20.3a1,1,0,0,1-1.49-.05c-.2-.25,0-.43.14-.6a3.86,3.86,0,0,1,.49-.58,1.08,1.08,0,0,0,.37-.57c-.49-.12-.86.16-1.26.29A1.22,1.22,0,0,1,.06,18c-.18-.44.09-.68.43-.88s.93-.16.94-1c0-.36.88-.37,1.4-.12a7.34,7.34,0,0,0,2.83,1h.26c-.31-1-.77-1.43-1.76-1.42-.69,0-1.38.06-2.06.08-.36,0-.81.13-.92-.36s-.05-.79.51-.85c.05,0,.16,0,.11-.12-.3-.64.17-.73.62-.77-.33-.36-.62-.67-.89-1-.13-.15-.32-.33-.22-.54s.35-.17.55-.17l.44,0a4.69,4.69,0,0,1-.5-2.09c0-.39.15-.51.5-.31s.54.35.81.52.47.59.93.3c.16-.11.27.13.34.26.22.38.42.76.64,1.18.28-.1.23-.69.75-.46a3,3,0,0,0,1,.08.26.26,0,0,1,.22.31,5.76,5.76,0,0,1-.25,2,3.17,3.17,0,0,0,0,3.18,4.72,4.72,0,0,0,.71-2.27c0-.53,0-1.06,0-1.59,0-.75.46-1,1.17-.85.18.05.24-.09.33-.17a4.55,4.55,0,0,1,.58-.49.64.64,0,0,1,1.05.3c.3.62.42,1.14-.3,1.57a.86.86,0,0,0-.51.7c.47.11.84-.22,1.27-.24.26,0,.68-.23.73.2s.27,1-.42,1.21a13.06,13.06,0,0,0-2.57,1,3.93,3.93,0,0,0-1.68,1.37A.59.59,0,0,1,6.63,17.93Z"/><path class="cls-2" d="M6.63,17.93c.11-.23.34-.28.53-.39a6.46,6.46,0,0,0,1.46,1.35,5.88,5.88,0,0,1,2.63,3.77A31.78,31.78,0,0,0,13,10.52c.29-.39.46-.23.56.13s-.06.47.12.66a33.51,33.51,0,0,1-1.18,10.06,13.3,13.3,0,0,1,4.1-2.89c.35.06.27.34.29.57a14.12,14.12,0,0,0-4.79,3.85,2,2,0,0,0-.34.51,42.78,42.78,0,0,0-2,6.13c-.06.26-.06.62-.45.56S9,29.63,9,29.38a24.63,24.63,0,0,1,1.31-4.2,4.28,4.28,0,0,0-1.06-4.85,13.85,13.85,0,0,0-1.44-1.17A5.15,5.15,0,0,1,6.63,17.93Z"/><path class="cls-3" d="M19.33,14.26c.08,2.69-.16,3.22-1.71,3.69A4.26,4.26,0,0,1,18.23,16C18.57,15.47,18.93,14.91,19.33,14.26Z"/></g></g></g></svg>