<svg xmlns="http://www.w3.org/2000/svg" viewBox="0 0 41.05 32.02"><defs><style>.cls-1{fill:#fef5d7;}.cls-2{fill:#feecb0;}.cls-3{fill:#aedb82;}.cls-4{fill:#95cc82;}.cls-5{fill:#cce582;}.cls-6{fill:#feecb1;}</style></defs><g id="Capa_2" data-name="Capa 2"><g id="START11"><g id="Verduras"><path class="cls-1" d="M15.23,1.33a1.05,1.05,0,0,1,.31,0A2.19,2.19,0,0,0,17.91.93c1.73-1.41,4.57-1.37,6.5,1.2a1.51,1.51,0,0,0,1.25.66A3.9,3.9,0,0,1,29.13,5a1.88,1.88,0,0,0,1.61,1.16,5.16,5.16,0,0,1,4.38,5.27,1.68,1.68,0,0,0,.76,1.72c2.85,2.1,3.4,5.18,1.57,8.23-.1.16-.24.29-.24.49-.14.45-.56.55-.92.7a25.24,25.24,0,0,1-7.47,1.63,4.39,4.39,0,0,1-2.13,0c-.35-.26-.24-.62-.17-.95.13-.63.21-1.26.3-1.89,0-.23.13-.53-.12-.66s-.44.14-.6.3a11.27,11.27,0,0,1-6,3,2.58,2.58,0,0,1-.39,0c-3.16-.23-6-1.14-8.21-3.58A6,6,0,0,1,9.92,14.6a4.08,4.08,0,0,1,1.33-2.14A2.24,2.24,0,0,0,12,10a8,8,0,0,1,2.19-7.79A10.69,10.69,0,0,1,15.23,1.33Z"/><path class="cls-2" d="M15.23,1.33a.51.51,0,0,1-.21.41,8.06,8.06,0,0,0-3.14,6.13,6.72,6.72,0,0,0,.37,2.35,1.9,1.9,0,0,1-.61,2.16c-2.6,2.15-1.93,5.71-.09,7.79a11.39,11.39,0,0,0,8.17,3.62c-.08.43-.45.37-.73.39a11.36,11.36,0,0,1-1.65,0,11.73,11.73,0,0,1-8.49-3.64c-.23-.22-.45-.7-.79-.52s-.09.63,0,1c.09.53.23,1,.35,1.56.06.28.18.57,0,.84a1.37,1.37,0,0,1-1.07,0,12,12,0,0,1-2.55-.82c-.25-.11-.58-.17-.55-.56a6,6,0,0,1-.3-7.72c.06-.08.11-.2.2-.25,1.25-.73,1.41-1.74,1.3-3.19C5.12,7.93,7,5.93,10,5.37a.85.85,0,0,0,.78-.71A4.76,4.76,0,0,1,15.23,1.33Z"/><path class="cls-3" d="M8.33,23.28c-.21-1-.44-1.91-.62-2.88,0-.28-.17-.7.2-.86s.5.24.68.43a12.19,12.19,0,0,0,7.14,3.89c.47.07.95.06,1.43.1s.43.51.54.83a4.86,4.86,0,0,0,5.91,3.44c.21-.06.53-.25.61.19a17.19,17.19,0,0,0-1.31,2.47A1.76,1.76,0,0,1,21.22,32c-1.74.18-3.06-.19-3.5-2.11a1.06,1.06,0,0,0-.11-.21c-.35-.75-.74-1.26-1.76-.94a4.89,4.89,0,0,1-3.28-.24,1.81,1.81,0,0,0-.86-.08,8.51,8.51,0,0,1-3.23-4.22C8.37,23.89,8.16,23.61,8.33,23.28Z"/><path class="cls-3" d="M26.63,24.09c3.64-.21,7.24-.6,10.58-2.25A8.82,8.82,0,0,0,40,20c.23-.22.47-.5.83-.31s.23.54.17.86a9.18,9.18,0,0,1-4.47,6.85,11.85,11.85,0,0,1-7,1.16A16.22,16.22,0,0,1,25,27.49a.41.41,0,0,1,0-.44,9.6,9.6,0,0,0,1.2-2.65C26.31,24.24,26.38,24,26.63,24.09Z"/><path class="cls-4" d="M8.33,23.28a13.68,13.68,0,0,0,1.75,3.37,5.79,5.79,0,0,0,1.34,1.23c.19.13.48.19.29.52C6,29.36.89,26.65,0,20c0-.21-.07-.45.16-.58s.44.1.6.25A10.09,10.09,0,0,0,4.16,22,9.57,9.57,0,0,0,8.33,23.28Z"/><path class="cls-5" d="M26.63,24.09A11.54,11.54,0,0,1,25,27.49l-.8.93c-.61-.18-1.16.18-1.76.2a5.15,5.15,0,0,1-4.89-3.54c-.14-.38-.28-.75-.41-1.12.85-.12,1.73.17,2.56-.17A11,11,0,0,0,25.77,21c.17-.17.33-.35.5-.51s.31-.32.55-.24.31.36.27.6c-.12.86-.26,1.72-.39,2.58C26.67,23.67,26.65,23.88,26.63,24.09Z"/><path class="cls-6" d="M15.88,10c1.21.55,1.48-.17,1.78-1.11a3.62,3.62,0,0,1,1.67-2.07.73.73,0,0,1,1.06.14c.32.45,0,.74-.33,1A3.14,3.14,0,0,0,19,9.05c-.58,1.12-.53,1.39.35,2.25a4.09,4.09,0,0,1,.9,1,.65.65,0,0,1-.17.92.58.58,0,0,1-.85-.13,4.1,4.1,0,0,0-2.48-1.63,19.43,19.43,0,0,0-2.16,0c-.32,0-.58-.08-.62-.46a.59.59,0,0,1,.4-.7.85.85,0,0,1,.22-.09A5.47,5.47,0,0,1,15.88,10Z"/><path class="cls-6" d="M24.91,12.23a3.71,3.71,0,0,1,2.65,2.71c.12.78.3,1.41,1.16,1.65.21.06.37.29.54.46a.65.65,0,0,1,.13.93c-.25.32-.62.25-.93,0a2.7,2.7,0,0,0-3.59.1c-.35.28-.68.33-1,0s-.09-.67.19-1a3.47,3.47,0,0,1,1.72-.95c.54-.14.55-.44.48-.82a2.25,2.25,0,0,0-1.13-1.57c-.23-.13-.47-.25-.69-.4a.68.68,0,0,1-.21-.8C24.35,12.22,24.64,12.23,24.91,12.23Z"/><path class="cls-6" d="M15.68,20.08a4,4,0,0,1-3.49-3.73.65.65,0,0,1,.66-.74c.44,0,.58.2.63.62a2.75,2.75,0,0,0,2.44,2.56c.45.08.8.25.73.75S16.16,20.12,15.68,20.08Z"/></g></g></g></svg>