<svg xmlns="http://www.w3.org/2000/svg" viewBox="0 0 472.1 487.01"><g id="Capa_2" data-name="Capa 2"><g id="DISPONIBLE"><path d="M34.15,405C12.88,381.16.92,353.33.36,321.37-.29,284.46.13,247.54.17,210.62c0-8.85,4.35-14.19,12.58-16.05a41.33,41.33,0,0,1,6-.14c76.3,0,152.6-.18,228.9.06,36.11.12,72.18-2.13,108.3-1.39,20.1.41,40.23-.41,60.3,1.33,2.49.87,2.27,3.09,2.27,5,.06,33.32,1,66.67-.26,99.94-1.16,30.69-12.81,57.71-33.69,80.69-19.62,21.6-43.74,34.9-72.05,40.77a124.76,124.76,0,0,1-25.25,2.47c-61,0-121.93.15-182.89,0A130.8,130.8,0,0,1,39.56,406C38.27,405.22,36.56,401.28,34.15,405Z" style="fill:#8b3f0a"/><path d="M343.4,443a8.37,8.37,0,0,0-1.84.76c-2.12,1.52-5.45-.27-6.93,2-1.68,2.59-.59,5.84-.67,8.79-.14,5.32,0,10.65-.08,16-.21,10.27-6.28,16.39-16.64,16.44-23,.11-45.92,0-68.88,0H127.57c-13.66,0-19.16-5.45-19.2-18.95,0-5.82-.21-11.66.06-17.47.2-4.05-.71-6.39-5.34-6.15-1.37.06-2.8-.93-4.2-1.44,2.14-2.18,4.7-1.34,7.06-.77,10,2.43,20.07,2.9,30.24,2.91q86.46,0,172.92-.05c9.13,0,18.3-.39,27.24-2.82C338.69,441.62,341.25,440.81,343.4,443Z" style="fill:#7b3108"/><path d="M343.4,443c-2.57-.75-5.07.28-7.32,1-8.84,2.72-17.95,2.77-27,2.8-57.94.15-115.88.07-173.82.08-10.79,0-21.5-.69-32-3.5a10.7,10.7,0,0,0-4.42-.35c-7.23-.56-13.75-3.57-20.31-6.25-11.4-4.64-21.65-11.31-31.25-19a9.57,9.57,0,0,1-1.25-1.5c-1.31-1.87-1.19-3.16,1.45-3.06,1.88.08,3.43,1.25,5,2.13a135,135,0,0,0,49,16.34,83.28,83.28,0,0,0,10.46.61c63.79,0,127.58.13,191.37-.06,30-.09,56.39-10.55,79.24-29.76,25.78-21.68,40.37-49.56,44.46-82.89a167.43,167.43,0,0,0,1.46-20.91q-.09-48,0-95.94c0-2.73-.77-5.74,1.73-8,9.13,3.05,12,6.88,12,16.11,0,36.77.4,73.55-.09,110.31-.75,55.13-38.83,105.56-94,120.85C346.62,442.41,345.19,443.68,343.4,443Z" style="fill:#6d2e03"/><path d="M292.15,192.89l-1,1,5-5c3.51-3.52,9.19-9.66,18.68-21.11,2.26-1,4.6-.27,6.9-.28,16.64,0,33.28-.11,49.92,0,4.47,0,7.37-1.48,9.78-5.36,19.46-31.19,38.76-62.49,58.44-93.55a36.78,36.78,0,0,0,5.51-22.36c-.11-2-1.36-5.14,2.91-4.42,19.55,5.14,30.07,30.21,19.82,48.87-7.27,13.23-15.72,25.81-23.7,38.63-14.38,23.09-27.61,35.29-37.19,59.59-.72,1.83-1.28,3.35-1.64,4.33Z" style="fill:#f69119"/><path d="M448.29,41.85c-2,.3-2.08,1.37-1.77,3.21,1.45,8.73-.67,16.75-5.31,24.18Q411.59,116.7,382,164.17c-1.88,3-4,4.86-8,4.82-18-.17-35.93-.09-53.9-.05a10.19,10.19,0,0,1-5.27-1.16C324,156.58,333,145.34,342.2,134.2c21.49-26,43.15-51.9,64.51-78,8.5-10.39,18.53-17.06,32.45-16.23A24.54,24.54,0,0,1,448.29,41.85Z" style="fill:#fea81a"/><path d="M430.25,194.72q-.09,49.47-.19,98.94c0,18.32-1.56,36.4-7.74,53.86a130.33,130.33,0,0,1-25.32,43c-17.56,20-39.37,32.86-64.83,39.61a98.82,98.82,0,0,1-25.5,3.69c-65-.05-129.91.07-194.87-.09a112.23,112.23,0,0,1-48.51-11.42c-4.95-2.37-9.79-5-14.62-7.58-1.9-1-3.21-1.66-2.59,1.47a41.07,41.07,0,0,1-9-8.08c1.92-2.59,2.37-2.78,6.23-.65a130.89,130.89,0,0,0,20,8.92,118.23,118.23,0,0,0,38.58,6.81c62.28.23,124.56.41,186.84,0a126.92,126.92,0,0,0,79.43-27.89c22.68-17.84,38-40.57,45.65-68.35a124,124,0,0,0,4.78-33.42c-.08-30.14,0-60.29,0-90.43,0-1.5,0-3,0-4.5.08-3.05,1.43-4.61,4.68-4.22,2.3.27,4.66-.33,6.95.35Z" style="fill:#7b3108"/><path d="M74,148.2C64.27,136.77,60.37,123,58.34,108.55a106.87,106.87,0,0,1-1-17.88c.17-6.09,2.45-8.56,8.36-8.66,19.43-.32,38.05,2.63,54.61,13.76,1.78,1.2,3.78,2.13,4.84,4.16,0,2.09,1.07,3.84,1.88,5.62,6.28,13.82,7.81,28.47,7.56,43.4-.12,6.7-3.43,10.27-10.18,10.35-14.92.18-29.54-1.58-43.47-7.45C78.54,150.81,76.89,148.33,74,148.2Z" style="fill:#76a24f"/><path d="M194.08,86.08a5.86,5.86,0,0,1-1.69-4c.6-17.7,2-35.22,11.13-51.05,10-17.43,26.38-25,45.14-28.73C256.66.66,264.84.8,272.93,0a3.64,3.64,0,0,1,3.24.9c-5.51,1.45-6.44,5.5-6.76,10.55A81.62,81.62,0,0,1,258.86,47.1a52.11,52.11,0,0,1-24.78,22.37c-10.25,4.53-20.94,7.69-32.29,7.91-6.41.13-6.41.12-6.75,6.49A2.85,2.85,0,0,1,194.08,86.08Z" style="fill:#76a24f"/><path d="M194.08,86.08c-1.16-10-1.1-9.37,9.16-10.28,20.38-1.81,39.29-7.53,51.83-25.39,8.51-12.11,12.23-26,13.06-40.65,0-.34,0-.67,0-1,.52-7.45.71-7.63,8-7.82a5.34,5.34,0,0,1,4.93,5.38c.93,19.61-1.42,38.57-12.49,55.43-9.89,15.06-25,21.86-41.92,25.31-2.42.5-4.91.66-7.37,1-7.75.53-15.51,1-23.26,0A2.65,2.65,0,0,1,194.08,86.08Z" style="fill:#648940"/><path d="M430.25,194.75c-10.19.51-10.19.51-10.19,10.94,0,29.31.27,58.62-.07,87.92s-9.32,55.8-27.25,79c-19.36,25-44.5,41.5-75.41,48.56a132.6,132.6,0,0,1-29.48,3.72c-62.11,0-124.21.31-186.31-.2-20.22-.17-39.74-5-57.48-15.48-2.1-1.25-4.26-3.57-7-1A6.91,6.91,0,0,1,34.15,405c.26-1.42-.87-2.41-1.47-3.94,2.92-.25,4.54,1.75,6.39,2.81C56,413.57,74,419.55,93.58,421.06c7.65.58,15.25.72,22.87.73,57.43.08,114.86.49,172.28-.13,32.6-.35,61.47-11.44,85.93-33.74,22.76-20.75,35.89-46.44,41.18-76.41A71.27,71.27,0,0,0,417,299.67c.11-35,0-69.91-.07-104.87a.5.5,0,0,0-.16-.61C421.26,193.74,425.81,193,430.25,194.75Z" style="fill:#7d3208"/><path d="M114.16,56c-8.53-9.62-7.43-26,2.24-35.6S143.21,10.61,152,19c-1.74,1.46-1.74,3.39-1.56,5.44,1.56,18.15-13,32.58-32.27,30.36A4.62,4.62,0,0,0,114.16,56Z" style="fill:#f69119"/><path d="M184,164.21c-7.05-10.81-5.38-25.42,3.87-34.06a26.69,26.69,0,0,1,34.16-2.21,20.1,20.1,0,0,0-.37,7.41c1.73,19.24-17.44,33.34-33.24,29.13A7.9,7.9,0,0,0,184,164.21Z" style="fill:#f69119"/><path d="M74,148.2c.85-1.41,1.91-1,3-.35,14.56,8.46,30.67,9.78,47,10,6.6.1,9.19-2.73,9.24-9.38.11-15.71-1.63-31-8.87-45.33-.64-1.25-1.85-2.82.87-3.25,10.3,8.87,15.08,20.78,18.17,33.52a106.71,106.71,0,0,1,2.75,29.17c-.19,5-2.77,8-7.59,8.08-17.31.36-34.1-2-49.64-10.26A49.2,49.2,0,0,1,74,148.2Z" style="fill:#648940"/><path d="M184,164.21c.28-2.3,1.61-1.94,3.23-1.43,13.55,4.24,27.31-4.72,31.77-16.46,2-5.21,1.14-10.44,1-15.68-.05-1.78-.21-3,2-2.7,9.53,7.05,13,16.43,10.32,27.89-2.47,10.71-9.49,17.46-20,19.88C200.64,178.44,190.39,173.89,184,164.21Z" style="fill:#ee7816"/><path d="M114.16,56c.64-1-2.86-4.42,1.88-3.21,18.87,4.83,36.29-10.67,32.77-30.9-.71-4.1.5-3.77,3.23-2.89,8.71,7.09,11.74,16.18,9.12,27-2.53,10.48-9.36,17.38-19.67,19.65C130.78,68,121.05,65.47,114.16,56Z" style="fill:#ee7816"/><path d="M196.06,88l23.26,0C211.57,88.93,203.81,90.89,196.06,88Z" style="fill:#76a24f"/><path d="M160.11,203.91H299c1,0,2,0,3,0,3.87-.15,7.69.93,7.75,5.15,0,4.46-3.93,4.89-7.7,4.89q-136.87-.06-273.75,0c-8.06,0-8.06,0-8.06,8.28q0,36.72,0,73.44c0,3.07-.35,5.73-4.12,6.22-4.05.53-5.88-1.4-5.89-6.43q0-37.23,0-74.44c0-3.33.15-6.67,0-10-.27-4.74,2.38-6.59,6.55-7.05a37.89,37.89,0,0,1,4,0Z" style="fill:#975020"/><path d="M211.29,295.85a67.06,67.06,0,0,0-24.53-20.69c-2.63-1.29-4.65-3.07-4.56-6.48.09-3.2,2.11-4.81,4.54-6,13.37-6.48,23.13-16.53,29.76-29.74,1.26-2.51,3-4.41,6.14-4.23a6.82,6.82,0,0,1,6.13,4.38c4.45,9.54,11.32,17.11,19.4,23.69,2.87,1.92,2.72,3.89,0,5.8-1.91,1.33-3.94,2.48-6,3.65a60.21,60.21,0,0,0-23.84,24.87C217,293.75,216.1,298,211.29,295.85Z" style="fill:#fea81a"/><path d="M176.16,388.85A69.15,69.15,0,0,0,154,370.76c-5.27-2.67-5.48-8-.32-10.76,12.55-6.66,22.27-15.9,28.57-28.81,2.5-5.14,7.88-4.9,10.84.47A81.25,81.25,0,0,0,207.68,351c1.43,1.38,2.93,2.61,4.46,3.84.46,3.24-2.11,4.34-4.21,5.41-11.22,5.68-19.36,14.33-25.37,25.28C181.4,387.68,180.37,391.88,176.16,388.85Z" style="fill:#fea81a"/><path d="M211.29,295.85c2.55.25,4-1.19,5-3.3,6.3-14.06,17.16-23.57,30.57-30.48,2.7-1.4,3.2-2.94,1.33-5.28,3.6,2,7.25,3.92,10.8,6,5.64,3.35,5.67,9.54-.25,12.48a64.17,64.17,0,0,0-29.26,28.63c-1.39,2.68-2.87,5.85-6.77,5.79s-5.52-3.14-7.14-6.05C214.11,301.07,212.71,298.46,211.29,295.85Z" style="fill:#f69119"/><path d="M176.16,388.85c3.22,1.22,4.13-1.49,5.09-3.36,6-11.74,14.62-20.84,26.65-26.54a9.61,9.61,0,0,0,4.24-4.08c4.16.89,7.52,3.45,10.88,5.75,4.11,2.82,2.64,8.16-2.74,11.05-5,2.66-9.76,5.53-13.84,9.5a56.92,56.92,0,0,0-11.92,15.76c-1.45,3-3.17,6.08-7.17,6-3.73-.1-5.35-2.87-6.62-5.89S176.94,392,176.16,388.85Z" style="fill:#f69119"/><path d="M252.06,352.89A69.91,69.91,0,0,0,237,341.64c-4.66-2.45-4.29-6.77.9-9.43a45.69,45.69,0,0,0,16.48-14.07c1.64-2.28,2.81-4.89,4.37-7.23,2.67-4,6.08-4.07,8.5.13a74.44,74.44,0,0,0,10.94,14.72c1.44,2.37.07,3.74-1.8,4.85-8.32,4.91-15.15,11.26-19.73,19.92C255.77,352.18,254.71,354.3,252.06,352.89Z" style="fill:#fea81a"/><path d="M252.06,352.89c2,0,2.79-1.43,3.55-3,4.41-9,11.45-15.53,20.14-20.32,1.63-.9,2.58-1.94,2.43-3.84,3.67,2.24,7.4,4.39,11,6.75,4.29,2.83,4.38,6.91-.15,9.35a52.45,52.45,0,0,0-21.77,21.84c-2.22,4.09-5.59,4.29-8.19.57S254.38,356.7,252.06,352.89Z" style="fill:#f69119"/></g></g></svg>