<svg xmlns="http://www.w3.org/2000/svg" viewBox="0 0 30.18 31.1"><defs><style>.cls-1{fill:#fb9e63;}.cls-2{fill:#fe835d;}.cls-3{fill:#97da7c;}.cls-4{fill:#77cb7c;}.cls-5{fill:#a36a5a;}</style></defs><g id="Capa_2" data-name="Capa 2"><g id="START11"><g id="Fruta"><path class="cls-1" d="M16.78,31a13,13,0,0,1-4.58-.15,14.82,14.82,0,0,1-9.63-5.88A13.41,13.41,0,0,1,.08,18.19a16.69,16.69,0,0,1,1-7.67A9.91,9.91,0,0,1,4.64,5.93c.29,0,.4.24.55.41a6.32,6.32,0,0,0,4,2.34,4.33,4.33,0,0,1,1.23.24c.21.28.08.55,0,.81a18.77,18.77,0,0,0-.65,8.16c0,.21,0,.51.33.48s.29-.33.25-.54a12.67,12.67,0,0,1-.16-2.29c0-2.68.24-5.31,1.77-7.63a6.43,6.43,0,0,1,4-2.77A12.38,12.38,0,0,1,23,5.53a7.42,7.42,0,0,1,4.53,4.53,15.87,15.87,0,0,1,.31,12,13.43,13.43,0,0,1-6.34,7.16,13.58,13.58,0,0,1-4.12,1.58c-.22,0-.44.06-.66.08,0,0-.15-.06-.05.06S16.75,30.93,16.78,31Z"/><path class="cls-2" d="M16.78,31l-.65,0c1-.28,1.8-.41,2.59-.69a15,15,0,0,0,6.2-3.88,13.53,13.53,0,0,0,3.62-7.93,16.75,16.75,0,0,0-1.12-8.23,7.72,7.72,0,0,0-6.37-5,12.76,12.76,0,0,0-4.85.06c-2.88.67-4.46,2.63-5.27,5.35A18.8,18.8,0,0,0,10.34,15a17.35,17.35,0,0,0,.2,2.58c0,.12,0,.24,0,.36,0,.35,0,.7-.46.71s-.47-.36-.51-.68a29.42,29.42,0,0,1-.13-3.51,14.41,14.41,0,0,1,.78-4.74,2,2,0,0,0,.2-.76,6.67,6.67,0,0,1,2.23-3.2c.11-.1.25-.19.37-.29a4.57,4.57,0,0,1,2.12-1,13.75,13.75,0,0,1,6.89-.08,9.22,9.22,0,0,1,6.84,5.87c1.87,4.82,1.83,9.59-1,14.06a14.4,14.4,0,0,1-10.1,6.47C17.46,30.89,17.12,30.92,16.78,31Z"/><path class="cls-3" d="M9.11,8.83A6.49,6.49,0,0,1,4.87,6.2c-.07-.1-.16-.18-.23-.27a8.87,8.87,0,0,1-.95-2.79c-.15-1.09,0-1.49,1-1.95A6,6,0,0,1,9.48.93a6.09,6.09,0,0,0,1.6,3c.64.89.62,1-.09,1.88A11.28,11.28,0,0,0,9.45,8.27,1.53,1.53,0,0,1,9.11,8.83Z"/><path class="cls-4" d="M9.11,8.83A6.92,6.92,0,0,1,10.5,6.19c1.07-1.31,1.09-1.7-.13-2.93A2.67,2.67,0,0,1,9.48.93a5.05,5.05,0,0,1,1.42.6,7.5,7.5,0,0,1,2.26,3.52.56.56,0,0,1,0,.52A10.19,10.19,0,0,0,10.44,9Z"/><path class="cls-5" d="M13.12,5.57a7.43,7.43,0,0,0-1.78-3.41c-.17-.2-.4-.35-.44-.63A.67.67,0,0,1,11.36,1C11.9.68,12.45.41,13,.13s.78-.11,1,.39a22.31,22.31,0,0,1,1.19,4A17.94,17.94,0,0,0,13.12,5.57Z"/></g></g></g></svg>