<svg xmlns="http://www.w3.org/2000/svg" viewBox="0 0 41.29 32.75"><defs><style>.cls-1{fill:#e84444;}.cls-2{fill:#d73131;}.cls-3{fill:#90ddb5;}.cls-4{fill:#00c17a;}.cls-5{fill:#08b765;}.cls-6{fill:#6ed4a1;}.cls-7{fill:#09b765;}.cls-8{fill:#09b865;}.cls-9{fill:#c22;}.cls-10{fill:#cc2121;}.cls-11{fill:#cb2121;}</style></defs><g id="Capa_2" data-name="Capa 2"><g id="START11"><g id="Fruta"><path class="cls-1" d="M22.56,32.5a14.32,14.32,0,0,1-4.71.1A24.2,24.2,0,0,1,12,31.21a10.08,10.08,0,0,1-6.87-9.78c0-.13,0-.26,0-.4A1,1,0,0,1,5,20.19,10.26,10.26,0,0,1,6.54,16a12.6,12.6,0,0,1,1.58-1.92,10.75,10.75,0,0,1,5-2.62,2.72,2.72,0,0,1,.64,0,12.05,12.05,0,0,1,5.66,1.85,11.19,11.19,0,0,1,4.25,6,23.43,23.43,0,0,1,1.25,8.22,10.59,10.59,0,0,1-.49,3A3,3,0,0,1,22.56,32.5Z"/><path class="cls-1" d="M21.91,13.94c.19,0,.29-.07.38-.23a12.17,12.17,0,0,1,2-2.56,1.86,1.86,0,0,1,.75-.82A10.37,10.37,0,0,1,29.4,8.52a6.87,6.87,0,0,1,1.86-.14,5.26,5.26,0,0,1,2.12.31,15.37,15.37,0,0,1,3.55,2.6,9.74,9.74,0,0,1,2.3,10.08,20.26,20.26,0,0,1-7.63,10.4,3.16,3.16,0,0,1-1.77.67,13.49,13.49,0,0,1-3.06-2.3c-.21-.2-.35-.48-.66-.55-.25-.26-.14-.56-.1-.84A22,22,0,0,0,24.55,18.1a10.47,10.47,0,0,0-2.24-3.51C22.13,14.4,21.87,14.26,21.91,13.94Z"/><path class="cls-2" d="M29.83,32.44a11.46,11.46,0,0,0,4.32-3.11c2.41-2.73,4.53-5.67,5.21-9.34A9.65,9.65,0,0,0,37,11.65,16.9,16.9,0,0,0,33.37,8.9c.3-.24.61-.11.91,0a9.76,9.76,0,0,1,2.5,1.2c.37.35.93.49,1.1,1a10.65,10.65,0,0,1,3.32,6.37A8.35,8.35,0,0,1,41,21.07a20.62,20.62,0,0,1-8,11.07A3,3,0,0,1,29.83,32.44Z"/><path class="cls-2" d="M21.91,13.94a11,11,0,0,1,3.47,5.84,23.26,23.26,0,0,1,1,7.27c0,.85-.2,1.69-.31,2.54-.51,2-1.46,2.77-3.55,2.91,1.61-1.06,2-2.74,2.07-4.47a21.32,21.32,0,0,0-2.14-10.8,9.48,9.48,0,0,0-7.92-5.4c-.31,0-.63-.12-.94-.18.28-.49.68-.39,1.09-.22a10.43,10.43,0,0,1,7,2.33A1.37,1.37,0,0,1,21.91,13.94Z"/><path class="cls-3" d="M3.67,14.88a5.41,5.41,0,0,0-.86-1.49,7,7,0,0,1-.9-4.14.89.89,0,0,1,.75-.2,7.79,7.79,0,0,1,4.86,2.19,1.74,1.74,0,0,1,.59,1,4.29,4.29,0,0,1-.16,2,1.05,1.05,0,0,1-.82.25,7.65,7.65,0,0,0-2.92.4A.55.55,0,0,1,3.67,14.88Z"/><path class="cls-3" d="M27.55,5.72c.39,0,.29-.37.34-.62A6.74,6.74,0,0,1,30.27.7c.42-.12.64.21.86.45a6.86,6.86,0,0,1,1.77,3.7,7,7,0,0,1,.16,1.59,6.19,6.19,0,0,1-1.94,1.94.71.71,0,0,1-.52-.33,7.08,7.08,0,0,0-2.77-2C27.68,6,27.52,5.93,27.55,5.72Z"/><path class="cls-4" d="M31.11,8.3,32.9,6.54a1.9,1.9,0,0,1,1.77-.79,7.07,7.07,0,0,1,4.34,0,.49.49,0,0,1,.17.43,5.51,5.51,0,0,1-2.44,4.08A9.76,9.76,0,0,0,33.37,8.9a7.93,7.93,0,0,0-2.11-.32C31.15,8.52,31,8.47,31.11,8.3Z"/><path class="cls-4" d="M7.88,14.25V12.17c0-.75-.13-1.57.63-2.11a7.2,7.2,0,0,1,3.39-3.35,2.55,2.55,0,0,1,1,1.75,4.42,4.42,0,0,1,.11,3.2,12,12,0,0,0-4.81,2.61A.26.26,0,0,1,7.88,14.25Z"/><path class="cls-4" d="M29.32,8.74a11.21,11.21,0,0,0-5,2.41,6.65,6.65,0,0,1-2.42-4,1,1,0,0,1,.69-.37,7.43,7.43,0,0,1,6.17,1.14C29,8.13,29.37,8.31,29.32,8.74Z"/><path class="cls-4" d="M6.76,16a11.88,11.88,0,0,0-1.65,5,6.65,6.65,0,0,1-4.54-1.1A4.54,4.54,0,0,1,2.33,17.5a7.32,7.32,0,0,1,3.2-1.62A1.24,1.24,0,0,1,6.76,16Z"/><path class="cls-5" d="M6.76,16A6.85,6.85,0,0,0,.94,19.42c-.12.18-.16.4-.37.51-.65-.22-.66-.64-.44-1.2a7.25,7.25,0,0,1,3.54-3.85,7.62,7.62,0,0,1,4.21-.63l.35,0Z"/><path class="cls-5" d="M29.32,8.74a7,7,0,0,0-6.25-1.83c-.4,0-.78.17-1.17.25-.33-.56-.09-.87.43-1.12a7.3,7.3,0,0,1,5.22-.32A7.9,7.9,0,0,1,31.11,8.3l.15.28Z"/><path class="cls-6" d="M8.52,10.06a11.91,11.91,0,0,0-.63,2.11A5.37,5.37,0,0,0,4.73,9.75a7.15,7.15,0,0,0-2.82-.5C2,8.18,2.05,8,3.11,8A7.23,7.23,0,0,1,7.73,9.52,2.64,2.64,0,0,0,8.52,10.06Z"/><path class="cls-6" d="M34.67,5.75l-1.77.79c-.18-2.09-.6-4.07-2.25-5.56A4.61,4.61,0,0,0,30.27.7c.84-.91,1.06-.92,1.92-.1A7.16,7.16,0,0,1,34.33,5C34.37,5.3,34.25,5.65,34.67,5.75Z"/><path class="cls-7" d="M13,11.66a8.31,8.31,0,0,0-1.13-4.95c1.22-.61,1.35-.57,2,.6a7.19,7.19,0,0,1,.81,4.12c-.35.17-.76,0-1.09.22Z"/><path class="cls-8" d="M36.74,10.24A7.69,7.69,0,0,0,38.91,6.6a5,5,0,0,0,.1-.87c1.58.48,1.67.63,1.15,2.18a6.34,6.34,0,0,1-2.28,3.2Z"/><path class="cls-9" d="M18.33,15.76c.44,0,1.49,1,1.42,1.44s-.22.61-.63.59-1.42-1.09-1.37-1.37A.85.85,0,0,1,18.33,15.76Z"/><path class="cls-9" d="M16.09,26.84c-.53,0-1.45-.92-1.38-1.34a.66.66,0,0,1,.68-.57c.31,0,1.37,1.11,1.33,1.39S16.43,26.89,16.09,26.84Z"/><path class="cls-9" d="M10,24.11a2,2,0,0,1,1.41,1.42.19.19,0,0,1,0,.08c-.06.38-.34.44-.65.41s-1.28-.95-1.26-1.31A.64.64,0,0,1,10,24.11Z"/><path class="cls-10" d="M19.16,21a2.81,2.81,0,0,1,1.45,1.43.49.49,0,0,1-.74.46,2,2,0,0,1-1.16-1.16A.49.49,0,0,1,19.16,21Z"/><path class="cls-10" d="M14.19,19.92c.39,0,1.47,1.15,1.42,1.5s-.35.44-.66.41-1.28-.94-1.26-1.3A.64.64,0,0,1,14.19,19.92Z"/><path class="cls-11" d="M20.68,27.62a3.3,3.3,0,0,1-1.34-1.38.54.54,0,0,1,.85-.47,2.67,2.67,0,0,1,1,1A.61.61,0,0,1,20.68,27.62Z"/><path class="cls-9" d="M30.46,17.8c0-.34-.07-.7.25-1a.57.57,0,0,1,.85.06,2.06,2.06,0,0,1,0,1.81.56.56,0,0,1-.85.05C30.39,18.5,30.48,18.14,30.46,17.8Z"/><path class="cls-9" d="M31.74,25.89a3.84,3.84,0,0,1,0,.48c-.06.39-.29.66-.7.61s-.6-.52-.58-1-.14-1.09.55-1.24c.41-.09.65.17.72.56a2.61,2.61,0,0,1,0,.56Z"/><path class="cls-9" d="M27.73,22.16a2.62,2.62,0,0,1,0-.56.58.58,0,0,1,.67-.55c.56.07.61.5.6,1s.07,1.09-.59,1.25c-.36.09-.6-.18-.68-.53A2.7,2.7,0,0,1,27.73,22.16Z"/><path class="cls-9" d="M34.48,22.16a2.62,2.62,0,0,1,0,.56c-.07.35-.31.62-.67.54-.62-.13-.59-.67-.6-1.16s0-1,.6-1.05a.58.58,0,0,1,.67.54A2.7,2.7,0,0,1,34.48,22.16Z"/><path class="cls-11" d="M36.43,17.52a2.6,2.6,0,0,1,0-.48.42.42,0,0,1,.46-.36c.25,0,.53,0,.59.3a3.45,3.45,0,0,1,0,1.5.55.55,0,0,1-.67.43c-.34-.05-.4-.31-.4-.6Z"/></g></g></g></svg>