<svg xmlns="http://www.w3.org/2000/svg" viewBox="0 0 34.27 32.76"><defs><style>.cls-1{fill:#f19a75;}.cls-2{fill:#de8761;}.cls-3{fill:#feddc6;}.cls-4{fill:#f5cbae;}</style></defs><g id="Capa_2" data-name="Capa 2"><g id="START11"><g id="Carbs"><path class="cls-1" d="M.61,20.41a4.47,4.47,0,0,1,3.47-2.35,10.53,10.53,0,0,1,4.33,0c.19.14.19.36.23.56a5.82,5.82,0,0,0,5.92,5,5.92,5.92,0,0,0,4.92-2.31,5,5,0,0,0,1.17-2.62c0-.25,0-.52.24-.7,2.08-.52,4.1-.51,5.86.91A4.73,4.73,0,0,1,28.32,22a2.66,2.66,0,0,1-.05,2,5,5,0,0,1-.7,2.62c-1.67,2.29-4.09,3.37-6.7,4.11a25.77,25.77,0,0,1-5,.74,18.13,18.13,0,0,1-8.59-1.35,11.25,11.25,0,0,1-6.11-5.83A6.85,6.85,0,0,1,.61,20.41Z"/><path class="cls-1" d="M16.38,0a6.5,6.5,0,0,1,4,2.05A9.16,9.16,0,0,1,22,3.93c.08.37-.16.61-.33.88A5.63,5.63,0,0,0,21.48,11a6.06,6.06,0,0,0,5.86,3.19,3.4,3.4,0,0,0,.34-.07A5.59,5.59,0,0,0,30.42,13a.54.54,0,0,1,.5-.17,9.3,9.3,0,0,1,2.56,2.52,4.14,4.14,0,0,1,.1,4.71,6.61,6.61,0,0,1-3.78,3.37,1.88,1.88,0,0,1-.35-1.17c-.34-2.35-1.27-4.3-3.62-5.23a9.37,9.37,0,0,0-6.1,0,16.14,16.14,0,0,0-2.35.87,1,1,0,0,1-1.21-.19,16.12,16.12,0,0,1-4.23-8,10,10,0,0,1,1.45-7.61A4.29,4.29,0,0,1,16.38,0Z"/><path class="cls-2" d="M16.38,0a7.94,7.94,0,0,0-2.1,1.31A8.32,8.32,0,0,0,12.07,6.2c-.53,4.21,1.1,7.69,3.77,10.8a4.59,4.59,0,0,1,.33.44.79.79,0,0,0,1.13.3,12.49,12.49,0,0,1,6.18-1.37,6,6,0,0,1,6,5.12c.14.65.19,1.32.28,2a3.55,3.55,0,0,1-1.53.47,8.06,8.06,0,0,0-.69-3.65,4.27,4.27,0,0,0-3.82-2.38,10.56,10.56,0,0,0-2.91.14.92.92,0,0,1-.45.3c-1,.27-2,.74-2.95,1.09-.31.11-.67.3-.9-.16a22.11,22.11,0,0,1-4.34-5.34,12.05,12.05,0,0,1-1.4-9.19A6.79,6.79,0,0,1,13.43.83,4,4,0,0,1,16.38,0Z"/><path class="cls-2" d="M.61,20.41c.25.28.13.63.13.94a7.77,7.77,0,0,0,2.14,5.29A13.32,13.32,0,0,0,11.48,31a22.69,22.69,0,0,0,10.66-1,10.73,10.73,0,0,0,5.25-3.5c.05-.07.12-.05.18,0a8.87,8.87,0,0,1-4,4,16.46,16.46,0,0,1-6.22,1.92,21.92,21.92,0,0,1-8.65-.38A12.1,12.1,0,0,1,1.13,26.7a6.93,6.93,0,0,1-.94-5.34A2.09,2.09,0,0,1,.61,20.41Z"/><path class="cls-3" d="M30.92,12.87a5.15,5.15,0,0,1-3.2,1.41,3,3,0,0,1-1.78-.16,6.65,6.65,0,0,1-3.89-8c.11-.36.21-.77.64-.94a5.46,5.46,0,0,1,.8,1.69,7.46,7.46,0,0,0,4.65,4.59A9.72,9.72,0,0,1,30.92,12.87Z"/><path class="cls-3" d="M16.55,19.28c.34.29.66.06,1-.07a19.6,19.6,0,0,1,3.33-1.16,4.59,4.59,0,0,1-1.24,3.34c-2.25,1.86-6.82,1.39-8.9-1.64-.22-.33-.54-.67-.33-1.14a9.27,9.27,0,0,0,5,1.1C15.81,19.67,16.3,19.79,16.55,19.28Z"/><path class="cls-4" d="M10.38,18.61c.52,1.89,3.25,3.61,5.07,3.64a8.49,8.49,0,0,0,4.16-.86,6,6,0,0,1-6.24,2.3A5.82,5.82,0,0,1,8.51,19a6.13,6.13,0,0,1-.1-1A6.49,6.49,0,0,1,10.38,18.61Z"/><path class="cls-4" d="M22.69,5.18c-2.06,3.54.46,8.29,4.26,9a6.48,6.48,0,0,0,.77.06,5,5,0,0,1-3.38-.38,6.53,6.53,0,0,1-3.89-6,6.16,6.16,0,0,1,1.16-3.37c.13-.19.25-.39.37-.58A3.06,3.06,0,0,1,22.69,5.18Z"/></g></g></g></svg>