<svg xmlns="http://www.w3.org/2000/svg" viewBox="0 0 36.4 33.96"><defs><style>.cls-1{fill:#fed896;}.cls-2{fill:#e6b441;}.cls-3{fill:#f8ca6e;}.cls-4{fill:#c99735;}.cls-5{fill:#e6b542;}</style></defs><g id="Capa_2" data-name="Capa 2"><g id="START11"><g id="Carbs"><path class="cls-1" d="M18.27,14.86a16.06,16.06,0,0,1,3.31-1.34,1.2,1.2,0,0,1,.91-.31,16.5,16.5,0,0,1,5.2.19,8,8,0,0,1,4.6,3.13,1.56,1.56,0,0,1,.36.9,10.88,10.88,0,0,1,1.07,8,9.61,9.61,0,0,1-3.48,5.34,3.15,3.15,0,0,0-1.06,1.43,10.44,10.44,0,0,0-5.32-1.76c-1.58-.16-3.18-.13-4.75-.33a6.76,6.76,0,0,1-4.35-2.26,10.08,10.08,0,0,1-2.64-8.45,5.39,5.39,0,0,1,1-2.27,2.31,2.31,0,0,1,1.3-.6,14.56,14.56,0,0,1,8.49,3.58,15,15,0,0,1,4.4,6.51c.09.25.15.61.53.5s.31-.46.21-.75a14.9,14.9,0,0,0-4.39-6.69,15.16,15.16,0,0,0-6.1-3.38A.92.92,0,0,1,17,16C17.1,15.22,17.68,15,18.27,14.86Z"/><path class="cls-2" d="M21.44,13.35c-3.37-1.95-4.22-6.9-1.76-10.14A8.55,8.55,0,0,1,31,1.35a8.8,8.8,0,0,0,5.07,1.7c.21,0,.43,0,.32.32-1,3.18-1,6.5-1.31,9.78A5.73,5.73,0,0,1,33.12,17,11.46,11.46,0,0,0,31,14.57a7.94,7.94,0,0,0-4.8-1.6H23.74a.74.74,0,0,1-.84-.76,6.27,6.27,0,0,1,2-5.55,6.13,6.13,0,0,1,2.55-1.27,3.79,3.79,0,0,0,.66-.18.35.35,0,0,0,.19-.44c0-.18-.18-.23-.34-.24a3.54,3.54,0,0,0-1,.18,6.36,6.36,0,0,0-4.85,6.19c0,.53,0,1.06,0,1.59S22,13.28,21.44,13.35Z"/><path class="cls-3" d="M9.47,21.66a10.22,10.22,0,0,1-2.59-.48A14.31,14.31,0,0,0,2,20.64c-.62,0-.8-.18-.75-.76A5.3,5.3,0,0,0,.8,17.3a9.18,9.18,0,0,1,.73-8.81,7.87,7.87,0,0,1,13.09-.23,3,3,0,0,1,.59,2.06A7.69,7.69,0,0,1,12.83,10,6.41,6.41,0,0,0,7,11.9c-.58.6-1.18,1.18-1.76,1.78-.17.18-.4.39-.16.64s.51.07.71-.13c.58-.56,1.15-1.14,1.71-1.71a5.87,5.87,0,0,1,5.27-1.69,21.54,21.54,0,0,1,3.93,1.06,4,4,0,0,1,1.35,2.27c-1,.82-1.8,1.81-3.26,2a5.74,5.74,0,0,0-4.9,3.31A4.23,4.23,0,0,0,9.47,21.66Z"/><path class="cls-3" d="M13.26,17.14c-2.59,3.77,0,10,3.28,11.84a7.64,7.64,0,0,0,3,.91c2.29.2,4.62.09,6.87.73a14.44,14.44,0,0,1,2.38,1,.54.54,0,0,1,.38.58c0,1.69-1,2.25-2.5,1.4a15.61,15.61,0,0,0-7.43-1.72,12.42,12.42,0,0,1-4-.53c-2.72-1-4.14-3.19-5-5.81a10.62,10.62,0,0,1-.46-3.8,1.53,1.53,0,0,1,.11-1.17,5.74,5.74,0,0,1,2.49-3.19C12.64,17.18,12.9,16.91,13.26,17.14Z"/><path class="cls-4" d="M21.44,13.35a1.22,1.22,0,0,0,.46-1.19,8.16,8.16,0,0,1,.83-4.46,6.82,6.82,0,0,1,5.13-3.43c.3,0,.7-.13.71.41s.06.72-.56.82c-3.66.6-5.24,3.42-4.9,6.88,0,.36.27.37.54.37H26a8.05,8.05,0,0,1,6.81,3.4,1.31,1.31,0,0,1,.32.82l-.47.46a8.07,8.07,0,0,0-5.94-4,20.55,20.55,0,0,0-4.15,0c-.33,0-.65.06-1,.1Z"/><path class="cls-2" d="M16.74,11.85c-.3.3-.58,0-.83-.07a13.93,13.93,0,0,0-4.42-.86A5.18,5.18,0,0,0,8,12.39c-.78.72-1.52,1.48-2.26,2.24-.27.28-.47.21-.68,0s-.58-.39-.2-.73c1.32-1.2,2.34-2.72,4-3.53A7.72,7.72,0,0,1,13.9,10c.45.08.87.23,1.31.35,0,.38.06.66.49.81A2.71,2.71,0,0,1,16.74,11.85Z"/><path class="cls-5" d="M13.26,17.14a5.44,5.44,0,0,0-3.34,4l-.15.58-.3,0A.6.6,0,0,1,9.22,21a5.74,5.74,0,0,1,4.7-4.88,6.18,6.18,0,0,0,3.51-1.6,2.58,2.58,0,0,1,.66-.35l.18.74c-.38.4-1,.56-1.23,1.07a1.32,1.32,0,0,1-1.4.66,3.28,3.28,0,0,0-1.17.09A3,3,0,0,0,13.26,17.14Z"/><path class="cls-3" d="M14.47,16.68a1.19,1.19,0,0,1,.83-.26A2.88,2.88,0,0,0,17,15.93a15.2,15.2,0,0,1,7.56,4.32,15.13,15.13,0,0,1,3.7,6.16c.14.44.18.74-.37.93s-.63-.16-.76-.52a14.64,14.64,0,0,0-8.9-9.27A12,12,0,0,0,14.47,16.68Z"/></g></g></g></svg>