<svg xmlns="http://www.w3.org/2000/svg" viewBox="0 0 33.76 23.05"><defs><style>.cls-1{fill:#955353;}.cls-2{fill:#9f6464;}.cls-3{fill:#7f4545;}.cls-4{fill:#494e57;}</style></defs><g id="Capa_2" data-name="Capa 2"><g id="START11"><g id="Proteina"><path class="cls-1" d="M20.08,16a31.2,31.2,0,0,1-5.77,1.66,19.32,19.32,0,0,0-2.62.54,3.08,3.08,0,0,0-1,.56,2.5,2.5,0,0,1-1.08.93,13.35,13.35,0,0,1-3.4,2.52,11.24,11.24,0,0,1-4.75.85C.62,23,.33,22.7.37,21.85S.53,19.94.59,19a39.37,39.37,0,0,0-.4-5.74c0-.48,0-1-.08-1.44A15.37,15.37,0,0,1,.47,6.52a6.94,6.94,0,0,1,6-5.14,19.86,19.86,0,0,1,5.39.06c2.42.26,4.84.58,7.29.65a1,1,0,0,1,.63.16c.17.27.06.54,0,.81a24.35,24.35,0,0,0-.65,5.76A20.31,20.31,0,0,0,20,15.19C20.12,15.45,20.26,15.72,20.08,16Z"/><path class="cls-1" d="M33.55,3.26a15.1,15.1,0,0,1-3,5.49,23.07,23.07,0,0,1-9.19,6.72,1,1,0,0,1-.41-.7,20.84,20.84,0,0,1-.78-7.53,29.92,29.92,0,0,1,.63-4.33c.09-.38,0-.58-.42-.57a1,1,0,0,1-.58-.13A1.22,1.22,0,0,1,20.08.83,4.45,4.45,0,0,1,21.49.69c.35.06.19.33.17.51-.06.63,0,.67.56.6a48.26,48.26,0,0,1,6.47-.31,12.28,12.28,0,0,1,3.66.58,2.59,2.59,0,0,1,.9.47C33.46,2.73,33.66,2.93,33.55,3.26Z"/><path class="cls-2" d="M20.08.83a12.21,12.21,0,0,0-.24,1.32.15.15,0,0,1-.12.12,58.79,58.79,0,0,1-7-.57,24.83,24.83,0,0,0-5.38-.25C3.25,1.82,1,4,.24,8.15A34.34,34.34,0,0,0,.11,11.8C-.13,9-.07,6.16,1.32,3.57A6.68,6.68,0,0,1,6.81.11a31.74,31.74,0,0,1,7.35.37A45.11,45.11,0,0,0,20.08.83Z"/><path class="cls-3" d="M19.72,2.27l.12-.12c1.3,0,1.34,0,1.07,1.28a27.12,27.12,0,0,0-.58,4.65,20.39,20.39,0,0,0,1.07,7.39,4.54,4.54,0,0,1-1.32.52A23,23,0,0,1,19,9.93a27.5,27.5,0,0,1,.69-7.3C19.69,2.51,19.7,2.39,19.72,2.27Z"/><path class="cls-2" d="M33.55,3.26c-.16-.58-.64-.79-1.12-1A11,11,0,0,0,29,1.69a49.46,49.46,0,0,0-6.32.23.5.5,0,0,0-.17,0,1.25,1.25,0,0,1-1,0c-.34-.24.1-.62.09-1,0-.11.09-.23,0-.33A18.21,18.21,0,0,1,24.05.42,26.24,26.24,0,0,1,31.4.58,5.72,5.72,0,0,1,32.76,1,1.51,1.51,0,0,1,33.55,3.26Z"/><path class="cls-4" d="M9.63,19.68a4.19,4.19,0,0,1,1.08-.93.69.69,0,0,1-.11.91A.73.73,0,0,1,9.63,19.68Z"/></g></g></g></svg>