<svg xmlns="http://www.w3.org/2000/svg" viewBox="0 0 36.53 29.15"><defs><style>.cls-1{fill:#f8e7d3;}.cls-2{fill:#e49670;}.cls-3{fill:#e7cfb9;}.cls-4{fill:#da7e56;}.cls-5{fill:#db7f58;}.cls-6{fill:#fdbf07;}.cls-7{fill:#eeac0a;}</style></defs><g id="Capa_2" data-name="Capa 2"><g id="START11"><g id="Proteina"><path class="cls-1" d="M18.23,3.16c.54-.47,1.06-1,1.62-1.39A8.5,8.5,0,0,1,25.08,0c.21,0,.43,0,.6.13a.9.9,0,0,1-.77,0c2.39.49,4,2.09,5.41,3.91a21.8,21.8,0,0,1,4.27,10.53,13.1,13.1,0,0,1-.91,7.47,11.77,11.77,0,0,1-7.95,6.81c-.48.13-1,.09-1.47.24a11.64,11.64,0,0,1-5.65-1.89c-.17-.12-.32-.21-.52-.11a11.57,11.57,0,0,1-1-.82,11.39,11.39,0,0,1-4-7.28c-.61-3.85.35-7.46,1.85-11a16.35,16.35,0,0,1,2.25-3.8A5.43,5.43,0,0,1,18.23,3.16Z"/><path class="cls-2" d="M17.39,4.29a21.54,21.54,0,0,0-4.22,10.9,12.17,12.17,0,0,0,4,11,.28.28,0,0,1,.08.11.52.52,0,0,1-.21.36A9.84,9.84,0,0,1,12,29a1.52,1.52,0,0,0,.28,0,.39.39,0,0,1,.45.11,9,9,0,0,1-5-.69,11.53,11.53,0,0,1-7.6-10A20.16,20.16,0,0,1,3.49,5.41,13.89,13.89,0,0,1,6.73,1.73,7.92,7.92,0,0,1,11.54,0C14.12.58,15.83,2.33,17.39,4.29Z"/><path class="cls-3" d="M24.26,29.15a22.65,22.65,0,0,0,4-1.42,11.65,11.65,0,0,0,6.12-8.84A19.78,19.78,0,0,0,31.47,6.17a13.54,13.54,0,0,0-4.54-5c-.7-.44-1.5-.64-2.24-1h1a8.07,8.07,0,0,1,5.2,2.64A19.26,19.26,0,0,1,34,7a23.78,23.78,0,0,1,2.44,8.13,12.22,12.22,0,0,1-2.29,9.21A11.38,11.38,0,0,1,26.25,29,13.29,13.29,0,0,1,24.26,29.15Z"/><path class="cls-4" d="M17.39,4.29a.75.75,0,0,1-.58-.37A9.34,9.34,0,0,0,11.68.25c-.06,0-.09-.15-.14-.22a8,8,0,0,1,5.93,2.39l.76.74C18.11,3.65,17.65,3.9,17.39,4.29Z"/><path class="cls-5" d="M12.7,29h-1a14.31,14.31,0,0,0,5.54-2.73c.29.29.77.36.85.85A11.44,11.44,0,0,1,12.7,29Z"/><path class="cls-6" d="M21.11,23.58a5.93,5.93,0,0,1,6.15-10c2.3,1.84,2.31,5.28,1.1,7.41C26.9,23.5,23.43,24.7,21.11,23.58Z"/><path class="cls-7" d="M21.11,23.58a13.12,13.12,0,0,0,2.59.16A5.92,5.92,0,0,0,29,18.21a6.56,6.56,0,0,0-1.71-4.68,5.94,5.94,0,0,1-.93,11.18A5.66,5.66,0,0,1,21.11,23.58Z"/></g></g></g></svg>