<svg xmlns="http://www.w3.org/2000/svg" viewBox="0 0 25.73 34.08"><defs><style>.cls-1{fill:#fbb44c;}.cls-2{fill:#fed44f;}.cls-3{fill:#f9990f;}.cls-4{fill:#deecfe;}.cls-5{fill:#81b7fc;}.cls-6{fill:#7fcc91;}.cls-7{fill:#add481;}.cls-8{fill:#b3e6fc;}.cls-9{fill:#fec007;}.cls-10{fill:#52b86a;}.cls-11{fill:#bfdafe;}.cls-12{fill:#8bc24a;}.cls-13{fill:#54b96b;}.cls-14{fill:#fec008;}.cls-15{fill:#f99a11;}</style></defs><g id="Capa_2" data-name="Capa 2"><g id="START11"><g id="Bebidas"><path class="cls-1" d="M14.67,13.7a14.71,14.71,0,0,1,.1,3c0,1.17,0,1.14,1.14,1a8.34,8.34,0,0,1,3.68.33c.24.51-.19.8-.39,1.15s-.53.52-.26.93c.6.65.69.65,1.4.16.29-.2.56-.52,1-.34a5.78,5.78,0,0,1,1.29,3,8.64,8.64,0,0,1-1.2,6.18c-.38.58-1.24.59-1.37,1.08a2.22,2.22,0,0,1-1.14,1.37,8.15,8.15,0,0,1-5.85,1.21c-.24-.05-.49-.08-.73-.12A3.91,3.91,0,0,0,9.42,32a1.08,1.08,0,0,1-.7-.13c-.1-.09-.06-.17,0-.25.63-.26,1.3,0,2-.16a5.6,5.6,0,0,0-.68-.95A22.57,22.57,0,0,1,8.93,28a7.63,7.63,0,0,1,.36-5.32,10,10,0,0,1,2.76-3.56,6.84,6.84,0,0,1,1.79-1,.9.9,0,0,0,.64-1c0-.87,0-1.73,0-2.59A1.09,1.09,0,0,1,14.67,13.7Z"/><path class="cls-2" d="M9.09,28.08a21.19,21.19,0,0,1,1.06,2.39A2.36,2.36,0,0,1,8.8,31.68l-.12.11a.56.56,0,0,1-.47.21c-2.37.08-4.74,0-7.12,0-.37,0-.76.07-1-.27,0-5.86,0-11.72,0-17.58,0-.76.57-.41.84-.62A7.38,7.38,0,0,1,4,12.82a.37.37,0,0,1,.25.19Q5.61,18.06,7,23.1c.35,1.35.74,2.7,1.07,4C8.18,27.76,8.44,28.12,9.09,28.08Z"/><path class="cls-3" d="M12.4,32.6a4.22,4.22,0,0,1,1.28.12,8.13,8.13,0,0,0,5.82-1.79c.21-.18.36-.32.26-.65a.4.4,0,0,1,.51-.55.57.57,0,0,0,.67-.27,7.77,7.77,0,0,0,1.6-4.35A8.12,8.12,0,0,0,21.2,20a.79.79,0,0,1,1-.52,8.86,8.86,0,0,1,2.89,4.89,8.23,8.23,0,0,1-9.83,9.56l-.59-.13A2.68,2.68,0,0,1,12.4,32.6Z"/><path class="cls-4" d="M5.52,7.7H12a.93.93,0,0,1,.2.68c0,1.56,0,3.12,0,4.68a.2.2,0,0,1-.14.17,9.61,9.61,0,0,0-3.76.49,1.71,1.71,0,0,1-1.16.08A.46.46,0,0,1,7,13.67c-.51-1.34-.79-2.75-1.18-4.13A8,8,0,0,1,5.4,7.86.24.24,0,0,1,5.52,7.7Z"/><path class="cls-5" d="M12.4,32.6a8.13,8.13,0,0,0,2.3,1.15c-.08.31-.31.33-.57.33H.6c-.43,0-.61-.17-.58-.6,0-.24,0-.48,0-.72a1.11,1.11,0,0,1,.87-.23c1,0,2,0,3,0a11.62,11.62,0,0,0,4.41-.73l.39,0a8.22,8.22,0,0,0,1.11,0A2.92,2.92,0,0,1,12.4,32.6Z"/><path class="cls-6" d="M2.56,7.56C2,5.46,1.49,3.36.91,1.27.77.75.87.54,1.39.46A6,6,0,0,0,2.73.09c.57-.24.74,0,.87.51C4.17,2.78,4.76,5,5.34,7.13l.18.57h0l0,0a5,5,0,0,1-2.66.14A.43.43,0,0,1,2.56,7.56Z"/><path class="cls-4" d="M2.56,7.56l.13.14A1.17,1.17,0,0,1,3,8.21c.36,1.36.73,2.72,1.08,4.08a.64.64,0,0,1,0,.63c-1.1,0-2.08.63-3.18.65-.66.1-.86-.17-.84-.85.06-1.43,0-2.87,0-4.31,0-.55.19-.73.73-.73A4,4,0,0,0,2.56,7.56Z"/><path class="cls-7" d="M18.8,20.22c-.28-.25-.26-.47,0-.76a2.73,2.73,0,0,0,.79-1.4c.1-.42.43-.9-.25-1.15.3-.47.12-.82-.29-1.1s-.57-.33-.85-.51a.72.72,0,0,1-.4-.71.64.64,0,0,1,.63-.57c.42,0,.34-.22.28-.47-.1-.48-.29-.93-.37-1.41-.11-.66.17-1,.89-.92a1.58,1.58,0,0,1,.56.64.94.94,0,0,0,.66.48c.59.12.86.51.54,1a3,3,0,0,0-.18,2.84,1.19,1.19,0,0,1,0,.46l0,.59c-.06.87-.06.86.78.52a7.88,7.88,0,0,1,3.22-.6c.19,0,.4,0,.54.14-.29.88-.5,1.05-1.41,1.12A7.27,7.27,0,0,0,19.75,20C19.48,20.21,19.19,20.46,18.8,20.22Z"/><path class="cls-8" d="M12.14,13.13a1,1,0,0,1-.13-.64c0-1.6,0-3.19,0-4.79.7,0,1.41,0,2.11,0,.39,0,.56.11.56.52,0,1.62,0,3.23,0,4.84,0,.56-.32.52-.68.54A1.64,1.64,0,0,1,12.14,13.13Z"/><path class="cls-9" d="M12.14,13.13a4.64,4.64,0,0,0,1.87.46l.66.11c0,1.26,0,2.52,0,3.77,0,.38-.07.63-.48.72A15.12,15.12,0,0,0,12,19.27a.92.92,0,0,1-.23-.79c0-1.51,0-3,0-4.51a1,1,0,0,1,.22-.81Z"/><path class="cls-10" d="M20.81,16.64a9.66,9.66,0,0,1-.53-1.89,1.1,1.1,0,0,1,.25-.86,3.63,3.63,0,0,0,.39-.82c.08-.28,0-.64-.36-.55-.61.15-.74-.25-1-.62l-.4-.6c-.43-.38-.94-.69-1.05-1.32a.84.84,0,0,1,1.1,0,7,7,0,0,1,2.83,3.48A2.55,2.55,0,0,1,20.81,16.64Z"/><path class="cls-6" d="M18.15,10A9.51,9.51,0,0,1,19.2,11.3c-.73.12-.83.26-.66.95s.29,1.11.45,1.65c.08.3.12.55-.3.33s-.61,0-.73.3.08.49.33.63l.91.53c-.2.57-.7.6-1.18.65a2.54,2.54,0,0,1-1-2,7.61,7.61,0,0,1,.69-3.79A1.28,1.28,0,0,1,18.15,10Z"/><path class="cls-11" d="M8.29,31.81a5.34,5.34,0,0,1-3.06.92c-1.73.05-3.47,0-5.2,0,0-.33,0-.66,0-1Z"/><path class="cls-12" d="M18.8,20.22a1.25,1.25,0,0,0,.83-.35,6.87,6.87,0,0,1,4.23-1.63c.59,0,1.05-.13,1.21-.77,0-.14.14-.16.25-.18a.81.81,0,0,1,.34,1,.91.91,0,0,1-.94.59,6.28,6.28,0,0,0-2.49.52,2.29,2.29,0,0,0-1,.52c-.26.16-.54.3-.78.48C19.59,21.06,19.45,21,18.8,20.22Z"/><path class="cls-13" d="M18,16.34c.37-.25.85-.31,1.18-.65.43.19.47.6.51,1s-.22.2-.37.25A2.23,2.23,0,0,1,18,16.34Z"/><path class="cls-9" d="M7.05,13.58a.14.14,0,0,1,0,.08,1.35,1.35,0,0,1,.4.75c.6,2.35,1.25,4.69,1.88,7a1.78,1.78,0,0,1,.11,1.16,8.7,8.7,0,0,0-.4,5.47c-.84.34-.89.34-1.11-.46Q6.07,20.54,4.19,13.47a2.38,2.38,0,0,1,0-.46.61.61,0,0,1,.61-.15A10.87,10.87,0,0,1,7.05,13.58Z"/><path class="cls-2" d="M9.49,22.61c-.8-3-1.59-6-2.39-8.95a6.65,6.65,0,0,0,2.2-.42A4.13,4.13,0,0,1,12,13.16c0,2,0,4.08,0,6.11A13.5,13.5,0,0,0,9.49,22.61Z"/><path class="cls-14" d="M8.8,31.68l1.35-1.21c.45.26.6.78,1.15,1.21Z"/><path class="cls-15" d="M21.2,25.81a.54.54,0,0,1-.5.53c-.31,0-.43-.17-.43-.46a.39.39,0,0,1,.43-.46A.42.42,0,0,1,21.2,25.81Z"/><path class="cls-10" d="M7.05,13.58a3.31,3.31,0,0,1-1.48-.31A3.15,3.15,0,0,0,4.15,13L4,12.92c-.44-1.74-.89-3.48-1.33-5.22H5.46Z"/></g></g></g></svg>