<svg xmlns="http://www.w3.org/2000/svg" viewBox="0 0 37.13 26.9"><defs><style>.cls-1{fill:#d67e4a;}.cls-2{fill:#baeb6c;}.cls-3{fill:#c76d36;}.cls-4{fill:#a1e52e;}.cls-5{fill:#00c179;}.cls-6{fill:#08b865;}.cls-7{fill:#c86e37;}.cls-8{fill:#98d81c;}.cls-9{fill:#97d81b;}.cls-10{fill:#97d71a;}</style></defs><g id="Capa_2" data-name="Capa 2"><g id="START11"><g id="Fruta"><path class="cls-1" d="M11.92,26.8A10.39,10.39,0,0,1,1.6,21.59,14.92,14.92,0,0,1,.06,13.25,15.87,15.87,0,0,1,4.38,3.3a9.71,9.71,0,0,1,6-3.25,3,3,0,0,1,1.43.07.34.34,0,0,1-.29.14,4.68,4.68,0,0,1,1.89.81c4.07,2.63,6.09,6.52,6.83,11.17a5,5,0,0,1,0,2.71,6.2,6.2,0,0,1-2.35.15c-1,0-1.05.12-.89,1A8.38,8.38,0,0,0,22.51,23a8.13,8.13,0,0,0,7.82-1.18,7.8,7.8,0,0,0,3.38-6.27c0-.24,0-.49.24-.65h1.56a1.14,1.14,0,0,1,.13,1A11.89,11.89,0,0,1,25.45,26.19a8.86,8.86,0,0,1-4.36-.26.69.69,0,0,0-.49-.05,9.36,9.36,0,0,1-2.09-1.18c-.2-.13-.37-.41-.68-.26-.44-.48-.83-.43-1.32,0a8.58,8.58,0,0,1-4.67,2.25s0,0,0,0A.12.12,0,0,1,11.92,26.8Z"/><path class="cls-2" d="M22.47,23.18a8.32,8.32,0,0,1-5.63-6.49c-.39-1.76-.34-1.77,1.44-1.77l1.87,0a1.45,1.45,0,0,1,1.6,0l.87,0a1,1,0,0,1,.22.58,2.4,2.4,0,0,0,1.44,1.74,2.54,2.54,0,0,0,3.43-1.4,3,3,0,0,1,.38-.92l4.52,0a.65.65,0,0,1,.14.54c-.5,5.26-5.32,8.53-9.38,8C23.06,23.34,22.78,23.21,22.47,23.18Z"/><path class="cls-3" d="M20.6,25.88c.22-.17.45-.09.69-.05a11.42,11.42,0,0,0,7.83-1,11.47,11.47,0,0,0,6.26-8.63,7,7,0,0,0,.13-1.28c1.74-.05,1.77-.4,1.49,1.58a11.61,11.61,0,0,1-9.76,10.23A10.94,10.94,0,0,1,20.6,25.88Z"/><path class="cls-3" d="M21.75,14.9h-1.6A16.57,16.57,0,0,0,16.81,4.47,11.82,11.82,0,0,0,10.92.18l.85-.06A8.68,8.68,0,0,1,17,2.87,16.1,16.1,0,0,1,21.75,14.9Z"/><path class="cls-4" d="M22.47,23.18a8.18,8.18,0,0,0,5.24-.77,8.36,8.36,0,0,0,4.76-6.59c0-.31.09-.61.14-.92H34a8.56,8.56,0,0,1-6.82,8.61A7.75,7.75,0,0,1,22.47,23.18Z"/><path class="cls-5" d="M24.15,17.39a2.45,2.45,0,0,1-1.53-2.46h3.76a.64.64,0,0,1,.11.61A2.45,2.45,0,0,1,24.15,17.39Z"/><path class="cls-6" d="M24.15,17.39a2.6,2.6,0,0,0,2.23-2.46h1.71A2.72,2.72,0,0,1,24.15,17.39Z"/><path class="cls-7" d="M11.92,26.8l-.57-.06a22.91,22.91,0,0,0,2.76-.91,12,12,0,0,0,2.55-1.72c.64-.53.75-.51,1.17.33A9.88,9.88,0,0,1,11.92,26.8Z"/><path class="cls-8" d="M23.2,21.26c-.31-.09-.6-.27-.51-.64s.15-1,.79-1.06a.5.5,0,0,1,.55.54C24,20.62,23.57,21.27,23.2,21.26Z"/><path class="cls-9" d="M26.68,20.16c0-.41.13-.61.5-.61s.8.58.79,1.12c0,.34-.2.6-.52.57C26.78,21.18,26.83,20.55,26.68,20.16Z"/><path class="cls-9" d="M21.16,17.36c.38,0,.62.13.58.54-.07.65-.67.61-1.08.73s-.58-.2-.6-.56S20.61,17.36,21.16,17.36Z"/><path class="cls-10" d="M29.59,17.37c.34.13.92.09,1,.73a.46.46,0,0,1-.53.53c-.46-.1-1.07-.14-1.15-.77C28.83,17.5,29.13,17.33,29.59,17.37Z"/></g></g></g></svg>