<svg xmlns="http://www.w3.org/2000/svg" viewBox="0 0 20.96 35.52"><defs><style>.cls-1{fill:#9bcefd;}.cls-2{fill:#2a74e5;}.cls-3{fill:#8fbce7;}.cls-4{fill:#e3e7ea;}.cls-5{fill:#b6dbfd;}.cls-6{fill:#fdfdfd;}</style></defs><g id="Capa_2" data-name="Capa 2"><g id="START11"><g id="Bebidas"><path class="cls-1" d="M21,11q0,11.92,0,23.85c0,.43-.07.71-.59.71-3.79,0-7.58,0-11.37,0a.8.8,0,0,1-.08-.33c0-2.93,0-5.86,0-8.79-.06-1.83,0-3.65,0-5.48,0-.91,0-.94-.93-.95H1.2a1.4,1.4,0,0,1-1-.24h0a.16.16,0,0,1,.07-.22,2.1,2.1,0,0,1,1.08-.15H7.94a1.73,1.73,0,0,0,1-.13,1,1,0,0,0,.21-.84c0-2,0-4.07,0-6.11,0-1,.23-1.25,1.23-1.23,2,.05,4-.17,6-.17,1.2,0,2.4-.16,3.6-.12A1.4,1.4,0,0,1,21,11Z"/><path class="cls-2" d="M9.15,26.39c0,2.82,0,5.63,0,8.45a1,1,0,0,1-.17.65c-2.76,0-5.53,0-8.29,0-.4,0-.6-.15-.6-.57,0-2.85,0-5.71.05-8.56a1.08,1.08,0,0,1,.9-.26h7.2A1.07,1.07,0,0,1,9.15,26.39Z"/><path class="cls-3" d="M21,11c-2.33,0-4.67,0-7,.17-1.29.09-2.58.09-3.86.11-.58,0-.82.2-.81.81,0,2.27,0,4.53,0,6.8,0,.24.1.51-.15.71a1.39,1.39,0,0,1-.21-1V12.65a2.22,2.22,0,0,0-.18-1.14,2,2,0,0,0-.48-1.11C7,8.75,5.78,7.1,4.55,5.43c-.19-.26-.57-.58,0-.87a4.49,4.49,0,0,1,1.1-.07h9.93a4.48,4.48,0,0,0,1.5-.19l3.75,6.21A.73.73,0,0,1,21,11Z"/><path class="cls-2" d="M17.08,4.3c-.09.49-.47.43-.81.43H4.3c-.31,0-.38-.16-.29-.43C4,3.13,4,2,4,.78,4,.23,4.18,0,4.77,0q5.77,0,11.54,0c.58,0,.77.21.76.77C17.05,2,17.07,3.12,17.08,4.3Z"/><path class="cls-4" d="M9.15,26.39h-9c0-2.23,0-4.46,0-6.69,2.77,0,5.54,0,8.31,0,.52,0,.72.11.71.68C9.14,22.38,9.16,24.39,9.15,26.39Z"/><path class="cls-5" d="M4,4.31a.65.65,0,0,0,.29.43L8,9.69c.3.41.6.81.91,1.2.18.22.1.32-.14.37a.85.85,0,0,1-.71.2c-2.57-.23-5.15-.24-7.71-.61A.51.51,0,0,1,.1,10.7Q1.75,8,3.39,5.3Z"/><path class="cls-4" d="M.16,19.56v.14C0,19.57,0,19.38,0,19.2v-8a.67.67,0,0,1,.1-.46H.16a1.25,1.25,0,0,1,.22.91q0,3.53,0,7A1.26,1.26,0,0,1,.16,19.56Z"/><path class="cls-2" d="M.16,19.56c-.06-3-.07-5.91,0-8.86l7.05.5c.5,0,1,0,1.52.06.26.11.45.22.44.58,0,2.57,0,5.14,0,7.72Z"/><path class="cls-6" d="M18.18,24.09A3.51,3.51,0,0,1,15.1,27.6,3.65,3.65,0,0,1,11.25,25a3.73,3.73,0,0,1,.45-2.85,14.07,14.07,0,0,1,2.48-3.4c.3-.3.59-.46.94-.08A14.07,14.07,0,0,1,18,22.94,2.53,2.53,0,0,1,18.18,24.09Z"/></g></g></g></svg>