<svg xmlns="http://www.w3.org/2000/svg" viewBox="0 0 27.06 29.35"><defs><style>.cls-1{fill:#75d54c;}.cls-2{fill:#6ac245;}.cls-3{fill:#65be41;}.cls-4{fill:#55a837;}.cls-5{fill:#6ac345;}</style></defs><g id="Capa_2" data-name="Capa 2"><g id="START11"><g id="Verduras"><path class="cls-1" d="M.47,25.2A5.29,5.29,0,0,1,.09,22c.1-.64.11-1.28.26-1.91.07.06.13.05.17,0a7,7,0,0,1,2-2.52A15.06,15.06,0,0,0,7,11.28a15.18,15.18,0,0,1,2-4c1.6-2.1,5-2.76,7-.93.39.35.63.31,1,0a5,5,0,0,1,3.52-1.12A6.46,6.46,0,0,1,23.44,6a1.41,1.41,0,0,1,.4.32,7,7,0,0,1,1.49,1.27A5.27,5.27,0,0,1,23.91,12c-.61.63-1.31,1.17-1.93,1.79a4.18,4.18,0,0,0-1.29,2.44c-.32,2.65-1.89,4.43-4,5.87a20.75,20.75,0,0,1-9.49,3.43,12.86,12.86,0,0,1-2.56.14c-.29,0-.6,0-.7-.36s.27-.4.46-.55c1.67-1.29,3.34-2.6,5-3.9a4.16,4.16,0,0,1,3-.61,7.74,7.74,0,0,1,2.18.43,1,1,0,0,0,.34.06c.12,0,.23,0,.26-.17s-.06-.21-.16-.28a1.49,1.49,0,0,0-.37-.14,9.48,9.48,0,0,0-2.64-.44c-.21,0-.48,0-.56-.18s.17-.4.34-.53c2.24-1.72,4.46-3.46,6.69-5.2.2-.16.64-.32.42-.62s-.5.06-.71.21c-.95.68-1.83,1.44-2.77,2.13a2,2,0,0,1-.42.29c-.12.06-.24.16-.37.05s-.07-.21,0-.32a3.31,3.31,0,0,1,.12-.45A11.43,11.43,0,0,0,15,11.77c0-.17,0-.4-.23-.41s-.23.26-.24.44a15.6,15.6,0,0,1-.12,2.46A11.9,11.9,0,0,1,14,15.92a3.77,3.77,0,0,1-1.33,1.87C11,19,9.42,20.27,7.82,21.5a2.31,2.31,0,0,1-.19.14c-.14.1-.27.24-.46.14S7,21.49,7,21.32s.07-.6.12-.9a2.2,2.2,0,0,0-.1-1.08c0-.11-.09-.21-.23-.2s-.19.12-.21.24a3,3,0,0,0,0,.79A5.55,5.55,0,0,1,6.34,22a2.75,2.75,0,0,1-1,1.4L3,25.2a1,1,0,0,1-.5.25C1.83,25.52,1.18,25.13.47,25.2Z"/><path class="cls-2" d="M4,25.31c.14.29.41.23.65.23a22.12,22.12,0,0,0,9.12-1.95,17.13,17.13,0,0,0,4.25-2.73,6.9,6.9,0,0,0,2.44-4.44,5.26,5.26,0,0,1,2.24-3.52A5.65,5.65,0,0,0,25.23,8a.48.48,0,0,1,.1-.43c2.55,2.55,2.27,7.63-.76,9.39-.18.11-.3.18-.14.43,1.72,2.61,0,5.85-2.46,6.83a13.82,13.82,0,0,1-3.73.85,16.11,16.11,0,0,0-8.07,3.06A6.18,6.18,0,0,1,4,28.85a5.45,5.45,0,0,1-2.39-1.71.56.56,0,0,1,.28-.4c.55-.4,1.06-.84,1.61-1.23C3.68,25.41,3.81,25.24,4,25.31Z"/><path class="cls-3" d="M23.84,6.29A9.46,9.46,0,0,0,21,5.42,5.12,5.12,0,0,0,17.08,6.5c-.41.35-.58.56-1.11.07C13.76,4.52,10.09,5.45,8.56,8.2c-1,1.7-1.54,3.56-2.44,5.28a12.35,12.35,0,0,1-2,2.76c-.91,1-2,1.73-2.8,2.77A14.52,14.52,0,0,0,.4,20.6l-.05-.47a5.35,5.35,0,0,1,.78-2.48c.18-.31.37-.62.58-.92A15.17,15.17,0,0,0,4.27,9.14a13.29,13.29,0,0,1,.81-3.9,4.79,4.79,0,0,1,6.3-2.74,2.24,2.24,0,0,1,.4.22c.18.13.29.15.43-.09A5.59,5.59,0,0,1,17.8,0a6.51,6.51,0,0,1,6,5.87C23.85,6,23.84,6.16,23.84,6.29Z"/><path class="cls-4" d="M4,25.31,1.64,27.14a1.76,1.76,0,0,1-.51-.67,3.44,3.44,0,0,1,1.41-1.15c.89-.52,1.61-1.27,2.46-1.83a3.51,3.51,0,0,0,1.43-3.18c0-.32,0-.64,0-1s.11-.44.4-.44.34.13.41.37a6.88,6.88,0,0,1-.1,2.54L9,20.43c1.36-1.06,2.76-2.08,4.08-3.2a4.34,4.34,0,0,0,1.06-2.36,11.3,11.3,0,0,0,.24-3.18c0-.27,0-.57.36-.58s.44.3.44.6a10.44,10.44,0,0,1-.49,4.21c1-.64,1.8-1.35,2.64-2,.38-.29.75-.59,1.12-.89s.52-.29.75,0,0,.51-.23.7l-7.3,5.65s0,.06-.12.19a8.84,8.84,0,0,1,2.43.24c.42.1.84.23,1.26.37a.38.38,0,0,1,.28.49c-.06.27-.27.31-.49.27a4,4,0,0,1-.66-.17,8.23,8.23,0,0,0-3.82-.25,4.87,4.87,0,0,0-1.9,1.21C7.06,22.9,5.55,24.12,4,25.31Z"/><path class="cls-5" d="M2.54,25.32a8.64,8.64,0,0,1-1.41,1.15A3.5,3.5,0,0,1,.47,25.2C.54,24.89.74,25,1,25A7.18,7.18,0,0,0,2.54,25.32Z"/></g></g></g></svg>