<svg xmlns="http://www.w3.org/2000/svg" viewBox="0 0 45.35 24.85"><defs><style>.cls-1{fill:#8a8e21;}.cls-2{fill:#cbc66d;}.cls-3{fill:#8b8e21;}.cls-4{fill:#a3a924;}.cls-5{fill:#b6af58;}.cls-6{fill:#b6af57;}.cls-7{fill:#cac56b;}.cls-8{fill:#dbd483;}</style></defs><g id="Capa_2" data-name="Capa 2"><g id="START11"><g id="Carbs"><path class="cls-1" d="M4.88,13.22a1.47,1.47,0,0,1-.68-1.88A8,8,0,0,1,7.57,7.09c.42-.3.89-.55,1.33-.83.51-.78,1.38-.86,2.16-1.08.36-.09.75-.11,1.12-.21a16.59,16.59,0,0,1,3,0A6.28,6.28,0,0,1,18.82,6.6c.47.47,1.64.12,2.44-.61a1.49,1.49,0,0,0,.31-2c-.27-.54-1-.81-.89-1.57A10.05,10.05,0,0,1,30.81,1.28a6.18,6.18,0,0,1,1.6,1c1.1.93,1.19,1.64.46,2.93-.1.51-.49.63-.93.71A9.1,9.1,0,0,0,27.67,8a3.82,3.82,0,0,1-1.35.78A11.93,11.93,0,0,1,20,8.62c-.59-.19-.95-.15-1.3.42a7.27,7.27,0,0,1-1.82,1.85,3,3,0,0,1-1,.5,11,11,0,0,0-4.37,2,1.56,1.56,0,0,1-.67.29,30.77,30.77,0,0,0-5.17,0A.76.76,0,0,1,4.88,13.22Z"/><path class="cls-2" d="M26.38,8.57c1.41-.89,2.62-2.06,4.24-2.65.74-.27,1.63-.1,2.25-.72.44.46,1.05.24,1.57.37a3.93,3.93,0,0,1,3.32,4c.58,1.06,0,2-.43,2.87-.71,1.61-.74,1.61,1.1,1.48a12.77,12.77,0,0,0,2.86-.66,2.92,2.92,0,0,1,.91-.24.88.88,0,0,1,.9.59c.15.41-.11.67-.41.88a5.8,5.8,0,0,1-1.54.65,9.08,9.08,0,0,1-5.36.18.84.84,0,0,0-.84.25,4.25,4.25,0,0,1-1.6,1c-.51.18-1.15.18-1.32.87a1.8,1.8,0,0,1-1.5-1.29c.3-.53.88-.66,1.36-.92a9.53,9.53,0,0,0,2.47-1.9c.13-.15.27-.37,0-.54s-.34,0-.47.13c-.46.43-.94.83-1.43,1.21a10.33,10.33,0,0,1-3.64,1.52,2.73,2.73,0,0,1-1.7-.58c-.76-1.18-.31-2.41,0-3.76a2.69,2.69,0,0,0-1,3c.09.21.33.39.16.67a.69.69,0,0,1-.87-.14A20.36,20.36,0,0,1,24.28,13C24.18,11.16,25.26,9.86,26.38,8.57Z"/><path class="cls-2" d="M20.27,21.65a2.61,2.61,0,0,1-1.47,1.69,14.19,14.19,0,0,1-12.19.26c-1.77-.75-2-1.35-1.78-3.17-.06-.54.91-.77.51-1.29-.26-.33-.9-.29-1.37-.46a5.75,5.75,0,0,1-1.24-.56c-.33-.23-.62-.51-.41-1a.89.89,0,0,1,.94-.53,4.36,4.36,0,0,1,1,.3,9.33,9.33,0,0,0,5.58.32,10.27,10.27,0,0,1,5.71.12,10.66,10.66,0,0,1,2.1.86,5.91,5.91,0,0,1,2.26,1.82C20.24,20.51,20.69,21,20.27,21.65Z"/><path class="cls-3" d="M20.27,21.65c-.16-1.7-1.49-2.42-2.73-3.2-.35-.78.25-1.17.69-1.56a9.1,9.1,0,0,1,5.3-2.27c.66-.06,1.37-.44,2,.07a1.21,1.21,0,0,0,.83.18.54.54,0,0,1,.81.06l1.75.55a1.53,1.53,0,0,1,1.62.72L32,17.44c1.2,1.5,1,2.48-.63,3.47a10.46,10.46,0,0,1-4.49,1.34A16.41,16.41,0,0,1,20.27,21.65Z"/><path class="cls-4" d="M12.06,5.25a13.39,13.39,0,0,0-3.16,1A16.88,16.88,0,0,1,7.28,5a1.64,1.64,0,0,1,.06-2.72A9.36,9.36,0,0,1,14.74,0a11.12,11.12,0,0,1,5.94,2.4c.31.6.93.93,1.21,1.57a1.64,1.64,0,0,1-.54,2.29,7.21,7.21,0,0,1-1.49.76,1,1,0,0,1-1.42-.38c-.72-1-1.92-1.15-3-1.44,0-.19-.13-.23-.27-.23a10.86,10.86,0,0,1-4.93-1.25.93.93,0,0,0-.4-.12.27.27,0,0,0-.23.09c-.1.4.28.45.51.62C10.69,4.79,11.5,4.75,12.06,5.25Z"/><path class="cls-5" d="M15.64,17.64a13.78,13.78,0,0,0-6.81.13,8.43,8.43,0,0,1-5-.67,4.11,4.11,0,0,0-.57-.25.64.64,0,0,0-.76.42c-.18.36.14.48.38.62A17.86,17.86,0,0,0,6.35,19L4.83,20.43A8.19,8.19,0,0,1,1,19a1.75,1.75,0,0,1-.38-2.87A8.16,8.16,0,0,1,4,13.81c.3-.12.84,0,.84-.59.6.43,1.21,0,1.81,0a41.51,41.51,0,0,1,4.32.2,7.65,7.65,0,0,1,4,2.31C15.48,16.23,16.08,16.79,15.64,17.64Z"/><path class="cls-4" d="M33.35,16.57l2.3-2c.33.17.15.73.72.75a11.92,11.92,0,0,0,5.93-.94c.29-.15.88-.2.57-.78s-.6-.45-1.07-.24a10.69,10.69,0,0,1-4.9.89c-.64,0-1,0-.47-.78a6.84,6.84,0,0,0,1.33-3.9,10.47,10.47,0,0,1,5.31,1.48,6.11,6.11,0,0,1,1.75,1.49,1.68,1.68,0,0,1-.25,2.66,5.92,5.92,0,0,1-2.21,1.18A15.13,15.13,0,0,1,33.35,16.57Z"/><path class="cls-4" d="M15.64,17.64c-.32-2-1.94-2.76-3.49-3.58-.39-.2-.93-.13-1.14-.65a10.43,10.43,0,0,1,4.64-2.25,3.44,3.44,0,0,0,1-.46A10.72,10.72,0,0,1,23.4,12a2.52,2.52,0,0,1,1.08.94c.29.61,1,1,1.07,1.72-2.43.2-4.83.51-6.81,2.13a2.64,2.64,0,0,0-1.2,1.63Z"/><path class="cls-6" d="M10.72,11.71a.49.49,0,0,1-.52-.42c-.09-.35,0-.67.36-.76a10.72,10.72,0,0,0,5-2.85c.3-.29.58-.1.83.13a.4.4,0,0,1,0,.64A11.92,11.92,0,0,1,10.72,11.71Z"/><path class="cls-7" d="M12.06,5.25a5.13,5.13,0,0,1-2.71-1c-.22-.12-.54-.32-.22-.64s.4-.65.85-.36a10.44,10.44,0,0,0,5.55,1.54c.17,0,.42,0,.4.22s-.32.18-.51.23Z"/><path class="cls-8" d="M30.56,16.2l-1.62-.72c0-.05.07-.15.12-.16a9,9,0,0,0,5-2.89c.26-.29.52-.1.75.06s.19.5,0,.73a7.8,7.8,0,0,1-2.37,2C31.84,15.61,31.19,15.88,30.56,16.2Z"/><path class="cls-8" d="M27.19,14.93l-.81-.06a1.24,1.24,0,0,1-.64-1.3,6.79,6.79,0,0,1,.68-2.3.49.49,0,0,1,.77-.25c.22.15.54.37.33.67A4.08,4.08,0,0,0,27.19,14.93Z"/><path class="cls-8" d="M12.19,23.11A11.56,11.56,0,0,1,7.63,22c-.31-.18-.68-.29-.41-.77a.58.58,0,0,1,.88-.26,9.73,9.73,0,0,0,5,.93c.39,0,1-.27,1.06.48s-.61.63-1.05.75A4,4,0,0,1,12.19,23.11Z"/><path class="cls-6" d="M25,20.59a10.11,10.11,0,0,1-4.48-.88c-.35-.15-1-.16-.72-.88s.68-.43,1.16-.22a10,10,0,0,0,5.19.82c.36,0,.63-.08.66.38s0,.79-.56.78S25.32,20.59,25,20.59Z"/></g></g></g></svg>