<svg xmlns="http://www.w3.org/2000/svg" viewBox="0 0 25.4 29.86"><defs><style>.cls-1{fill:#e8a42d;}.cls-2{fill:#e28523;}.cls-3{fill:#5ea470;}.cls-4{fill:#b47f5f;}.cls-5{fill:#9dc53d;}</style></defs><g id="Capa_2" data-name="Capa 2"><g id="START11"><g id="Fruta"><path class="cls-1" d="M15.14,6.29h.37a1.51,1.51,0,0,1,1-.17,2.1,2.1,0,0,1,1.16.14c.08,0,0,.14,0,.18a9,9,0,0,1,5.63,7.67,12.17,12.17,0,0,1-3.17,10.17A15.5,15.5,0,0,1,8.55,29.54a13.88,13.88,0,0,0-1.44-.07,9.78,9.78,0,0,1-2.3-.79A2.11,2.11,0,0,1,4.46,25a7.63,7.63,0,0,0,3.11-5.84,11.22,11.22,0,0,0,0-1.16A5.7,5.7,0,0,1,7.27,16c.05-.62,0-1.23,0-1.84a9.13,9.13,0,0,1,7.11-7.81A1.73,1.73,0,0,1,15.14,6.29Z"/><path class="cls-2" d="M7.11,29.47a2.71,2.71,0,0,1,1.2-.09,15.31,15.31,0,0,0,9-2.78,12.86,12.86,0,0,0,5.83-8.72,10.65,10.65,0,0,0-2-8.78,8.44,8.44,0,0,0-3.46-2.58l-.09,0,.15-.08c.26-.23.53-.08.81,0a1.81,1.81,0,0,1,.91.39,9.77,9.77,0,0,1,4,3,10.65,10.65,0,0,1,1.92,7.39c-.45,6-5.17,10.51-10.77,12.08A14.59,14.59,0,0,1,7.11,29.47Z"/><path class="cls-3" d="M15.14,6.29a10.31,10.31,0,0,0-3.63,1.36A9.13,9.13,0,0,0,7.44,14a1.37,1.37,0,0,1-1,.35,11.48,11.48,0,0,1-5.17-.47c-.3-.11-.71-.13-.81-.56,2.47-.32,4-1.89,5.13-3.94A8.23,8.23,0,0,1,8.35,6.14a5.89,5.89,0,0,1,6.62,0Z"/><path class="cls-3" d="M7.43,16A15.69,15.69,0,0,1,7.57,18,10.08,10.08,0,0,1,.34,14.33a.54.54,0,0,1,.56,0,12.48,12.48,0,0,0,5.56.55c.91-.13.91-.09.93.83A.68.68,0,0,0,7.43,16Z"/><path class="cls-4" d="M19.46,6.75l-.93-.24a2.51,2.51,0,0,1-.32-1,5.26,5.26,0,0,0-.94-2c-.14.74-.27,1.42-.46,2.09-.06.22-.07.47-.28.62l-1,0a17.48,17.48,0,0,0,.81-3.56A.67.67,0,0,0,16,2,8.59,8.59,0,0,0,13.87.93c-.31-.1-.64-.21-.52-.62s.44-.33.77-.23A7.35,7.35,0,0,1,19.46,6.75Z"/><path class="cls-5" d="M7.43,16l0-.05c-.16-.3.11-.76-.17-.92s-.64,0-1,0a12.74,12.74,0,0,1-5.93-.71c-.48-.52-.46-.74.1-1a7.82,7.82,0,0,0,3.37.91A12,12,0,0,0,7.44,14C7.44,14.64,7.44,15.3,7.43,16Z"/></g></g></g></svg>