<svg xmlns="http://www.w3.org/2000/svg" viewBox="0 0 21.53 32.39"><defs><style>.cls-1{fill:#fed681;}.cls-2{fill:#b6e8f8;}.cls-3{fill:#fcbc40;}.cls-4{fill:#86cde8;}.cls-5{fill:#d2833d;}.cls-6{fill:#c55c38;}.cls-7{fill:#9b2d20;}.cls-8{fill:#f1ab2e;}.cls-9{fill:#9c2d20;}.cls-10{fill:#d1803c;}</style></defs><g id="Capa_2" data-name="Capa 2"><g id="START11"><g id="Grasas"><path class="cls-1" d="M16.2,6.2c.41,1.21,1.52,1.75,2.4,2.53.67.59,1.4,1.14,2.06,1.75a2.66,2.66,0,0,1,.87,2c0,5.76,0,11.52,0,17.27A2.59,2.59,0,0,1,19,32.38c-5.21,0-10.42,0-15.63,0a2.46,2.46,0,0,1-2.2-2.11A5.28,5.28,0,0,1,1.07,29c0-5.2,0-10.4,0-15.6A4.22,4.22,0,0,1,2.74,9.73l.49-.4A17.8,17.8,0,0,0,6.66,6.1,2.28,2.28,0,0,1,7.59,6h7.58A1.43,1.43,0,0,1,16.2,6.2Z"/><path class="cls-2" d="M2.78,3.68a1.53,1.53,0,0,1-.1-1.11,10.8,10.8,0,0,0,.1-1.5A1,1,0,0,1,3.85,0H17.69a1.12,1.12,0,0,1,1.16,1.15c0,.47,0,.93,0,1.39-.27.73-.54.93-1.38.94-1.64,0-3.29,0-4.93,0h-8a2.06,2.06,0,0,1-1.05-.12C3.1,3.14,2.94,3.38,2.78,3.68Z"/><path class="cls-3" d="M6.59,6.21a1.37,1.37,0,0,1-.48.92A30.47,30.47,0,0,1,3,9.73a4.14,4.14,0,0,0-1.77,3.49c0,5.26,0,10.52,0,15.78A3.14,3.14,0,0,0,3.4,32.38c-1.86.08-3-.62-3.33-2.11A4.65,4.65,0,0,1,0,29.52V12.75a3.25,3.25,0,0,1,1.26-2.63,30.32,30.32,0,0,1,2.37-1.9A3.49,3.49,0,0,0,5.36,4.59a.1.1,0,0,1,.16,0A.73.73,0,0,1,5.61,5c.09.91.09.91.92,1.16Z"/><path class="cls-4" d="M5.45,4.6H5.36c-.48,0-1,0-1.43,0a1,1,0,0,1-1.15-.88v-1a2,2,0,0,0,1.64.59q6.44,0,12.87,0a1.63,1.63,0,0,0,1.55-.75c0,.3,0,.59,0,.88a1.12,1.12,0,0,1-1.16,1.13l-1.5,0a.92.92,0,0,1-.66.19c-2.92,0-5.84,0-8.76,0A2.38,2.38,0,0,1,5.45,4.6Z"/><path class="cls-3" d="M6.71,4.59h9.48c0,.54,0,1.08,0,1.62H6.58A2.19,2.19,0,0,1,6.71,4.59Z"/><path class="cls-5" d="M4.42,14.07l13.59,0c.58,0,.84.29.84.86q0,6.16,0,12.33c0,.16,0,.34-.13.46-.3-.34-.17-.76-.18-1.15,0-.93,0-.93-1-.93H13.93a3.63,3.63,0,0,1-.57,0c-.13,0-.27,0-.32-.18s.11-.28.23-.33c.83-.31,1.21-1.09,1.72-1.71a2.21,2.21,0,0,0-1.13-3.44,2.2,2.2,0,0,1-1.44-1.45,2.59,2.59,0,0,0-1.78-1.58,2,2,0,0,0-2.3,1.6A2.38,2.38,0,0,0,9.89,21c.3.11.7.09.79.52-.24.38-.58.26-.89.14a4.42,4.42,0,0,0-.94-.35,3.76,3.76,0,0,0-1.06,0,1.94,1.94,0,0,0-1.62,1.48,1.91,1.91,0,0,0,.89,2.06c.23.16.72.1.62.62a6.76,6.76,0,0,1-2.37.15A1.84,1.84,0,0,1,4,25.45a1.33,1.33,0,0,1-.19-.91q0-4.63,0-9.27C3.84,14.78,3.84,14.28,4.42,14.07Z"/><path class="cls-6" d="M4.06,25.43H7.24c.17,0,.34,0,.47-.1s.34-.07.5-.15a2.18,2.18,0,0,1-1.09-2.36,2,2,0,0,1,1.72-1.68,2.19,2.19,0,0,1,.93.35.68.68,0,0,0,.86,0c.44,0,.52.32.6.61A2.39,2.39,0,0,0,13.58,24c.08,0,.05-.11,0,0s0,0-.06,0a2.4,2.4,0,0,1-1.28-1.57,1.5,1.5,0,0,0-1-1.06,2.56,2.56,0,0,1-1.91-2.72,2.28,2.28,0,0,1,1.3-1.95,2.82,2.82,0,0,1,2.09,2,1.26,1.26,0,0,0,1,.95,2.47,2.47,0,0,1,1.19,4.19c-.55.53-.9,1.25-1.69,1.6h3.92c1.65,0,1.65,0,1.64,1.63v.64c-.26.42-.68.36-1.07.36H5.08A5.45,5.45,0,0,1,3.15,28c.26-.29.62-.17.95-.19,0,0,.05-.14,0-.06s0,.05-.07,0A3.29,3.29,0,0,1,4,25.5Z"/><path class="cls-6" d="M4.42,14.07A1.36,1.36,0,0,0,4,15.15c0,3.42,0,6.85,0,10.28H4a1.05,1.05,0,0,1-1.27,0c0-3.52,0-7,0-10.55,0-.6.28-.84.85-.83Z"/><path class="cls-7" d="M2.77,25.43H4A12.25,12.25,0,0,0,4.18,28h-1a.62.62,0,0,1-.4-.69C2.75,26.67,2.76,26.05,2.77,25.43Z"/><path class="cls-8" d="M6.71,4.59A4.38,4.38,0,0,1,6.58,6.2c-1.38,0-1.1.11-1.13-1.1,0-.17,0-.33,0-.5A5.31,5.31,0,0,1,6.71,4.59Z"/><path class="cls-9" d="M10.62,16.71c0,.1.1.18,0,.25A2,2,0,0,0,9.51,19.3a2.3,2.3,0,0,0,1.77,1.93,1.45,1.45,0,0,1,1.16,1.16A2.53,2.53,0,0,0,14,24.08a2.34,2.34,0,0,1-2.86-1.73c-.09-.32-.14-.68-.5-.84a4.38,4.38,0,0,0-1-.4,2.73,2.73,0,0,1-1.48-2.33,2.23,2.23,0,0,1,1.64-2A3.64,3.64,0,0,1,10.62,16.71Z"/><path class="cls-9" d="M8.84,21.14a4.28,4.28,0,0,0-.69.4,2,2,0,0,0,.26,3.54l.26.18c-.32.36-.65,0-1,.07a2.11,2.11,0,0,1-1.15-3.59A2.66,2.66,0,0,1,8.84,21.14Z"/><path class="cls-10" d="M9.11,25.4c1-.78,1.2-.78,2.59,0Z"/></g></g></g></svg>