<svg xmlns="http://www.w3.org/2000/svg" viewBox="0 0 28.27 31.56"><defs><style>.cls-1{fill:#f84848;}.cls-2{fill:#e13d3d;}.cls-3{fill:#c6f391;}.cls-4{fill:#a2e161;}.cls-5{fill:#b15719;}.cls-6{fill:#e23d3d;}.cls-7{fill:#fb8080;}</style></defs><g id="Capa_2" data-name="Capa 2"><g id="START11"><g id="Fruta"><path class="cls-1" d="M14.7,8.5c1.67-.3,3.3-.88,5-.65a7.85,7.85,0,0,1,6.16,4.71,11,11,0,0,1,.76,7.72,19.52,19.52,0,0,1-5.05,9.13c-.1.1-.22.18-.33.27a20.91,20.91,0,0,1-8.34-.13,8.36,8.36,0,0,1-6.49-6.86,12.57,12.57,0,0,1,1.12-8.53,9.05,9.05,0,0,1,2.61-3.06,1.1,1.1,0,0,1,1.3-.14,3.43,3.43,0,0,0,1.41.37,2.36,2.36,0,0,0,1.12,0c1.27-.18,1.51-.29,1.88-.85a3,3,0,0,0-1-.1c-.53-.05-.66-.24-.57-.77S14.67,8.92,14.7,8.5Z"/><path class="cls-2" d="M12.89,11.48a2.54,2.54,0,0,1-1.58-.39.74.74,0,0,0-1,.1A9.34,9.34,0,0,0,6.94,16a12.87,12.87,0,0,0-.18,7.3,8.13,8.13,0,0,0,5.74,5.93,18.85,18.85,0,0,0,7.1.45c.55,0,1.11-.37,1.66,0a5.25,5.25,0,0,1-5.16,1.71,9.93,9.93,0,0,0-5.19,0,5.09,5.09,0,0,1-5-1.51C2.1,26.2-.27,21.85,0,16.47A8.9,8.9,0,0,1,5.57,8.24a7.58,7.58,0,0,1,4.64-.18l2.16.44c.19,0,.27.1.3.24A8.63,8.63,0,0,1,13,11.27.33.33,0,0,1,12.89,11.48Z"/><path class="cls-3" d="M28.15.51c.14-.06.13.06.11.12a9.29,9.29,0,0,1-3.43,5.88A5.32,5.32,0,0,1,19.37,7c-1.31-.53-2.47-1.36-3.75-1.94-.1-.18,0-.32.1-.45a15,15,0,0,1,3.92-1.16,16.82,16.82,0,0,1,2.92-.31,6.48,6.48,0,0,0,3.31-1C26.67,1.67,27.39,1.07,28.15.51Z"/><path class="cls-4" d="M28.15.51a7.91,7.91,0,0,1-4.59,2.72c-1.39.26-2.83.15-4.23.48-1.21.29-2.4.64-3.59,1-.22-.16-.49-.3-.53-.62a6.43,6.43,0,0,1,7.09-4c1.18.17,2.34.41,3.5.62A4,4,0,0,0,28.15.51Z"/><path class="cls-5" d="M15.21,4.1c.23.16.5.29.53.62l-.12.37C15,6.05,14.34,7,13.69,8a.54.54,0,0,0,0,.56,3.88,3.88,0,0,1,.37,3,1.29,1.29,0,0,1-1.12,0,11.16,11.16,0,0,0-.52-3,9.78,9.78,0,0,0-.9-2.9,4.68,4.68,0,0,0-.2-.45.53.53,0,0,1,.25-.78.54.54,0,0,1,.77.3c.29.63.55,1.27.87,2,.46-.69.9-1.34,1.32-2A1.06,1.06,0,0,1,15.21,4.1Z"/><path class="cls-6" d="M14,11.48a17.49,17.49,0,0,0-.37-3l1.06,0c.14,0,.32.06.2.27s-.2.22-.26.34c-.14.31-.38.65-.21,1s.55.1.84.16h.18c.25.05.63-.15.71.15s-.27.52-.52.68A2.74,2.74,0,0,1,14,11.48Z"/><path class="cls-7" d="M20.89,15a2.49,2.49,0,0,1,.58-1.95,1.27,1.27,0,0,1,2,0,3.88,3.88,0,0,1,.5,4.13,1.39,1.39,0,0,1-2.45.14A3.33,3.33,0,0,1,20.89,15Z"/></g></g></g></svg>