<svg xmlns="http://www.w3.org/2000/svg" viewBox="0 0 29.49 30.6"><defs><style>.cls-1{fill:#4cc56e;}.cls-2{fill:#febe00;}.cls-3{fill:#14a042;}.cls-4{fill:#fed70c;}.cls-5{fill:#fed60f;}.cls-6{fill:#fed711;}.cls-7{fill:#fdd70c;}.cls-8{fill:#fcd60c;}.cls-9{fill:#f7d30e;}</style></defs><g id="Capa_2" data-name="Capa 2"><g id="START11"><g id="Carbs"><path class="cls-1" d="M.15,20.51A10.1,10.1,0,0,1,1.87,16.6,26.28,26.28,0,0,0,6.38,7.17c.13-.56.44-1,1.07-1s.84.49,1,1c.18.87.36,1.74.53,2.61a.75.75,0,0,1,.25.48c0,.55.17,1.08.16,1.64.05.8,0,1.61,0,2.41,0,.23,0,.45,0,.67a7.87,7.87,0,0,1-.12,1.18A10,10,0,0,1,9,17.52a26.54,26.54,0,0,1-.81,3c0,.36.28.42.58.37a3.24,3.24,0,0,0,.75-.29c.69-.28,1.41-.5,2.1-.76.3-.12.6-.23.91-.33,1.11-.33,2.22-.67,3.35-1,.68-.17,1.37-.28,2.06-.41a17.68,17.68,0,0,1,3.25-.27.77.77,0,0,1,.65.19,15.12,15.12,0,0,1,1.64.26c.06.34-.21.49-.41.66a37.7,37.7,0,0,1-7.45,5.26A15.18,15.18,0,0,1,7.9,26.39,7.65,7.65,0,0,1,2.85,24.3,11.15,11.15,0,0,1,.15,20.51Z"/><path class="cls-2" d="M21.87,18.09l-.65,0a8.44,8.44,0,0,1-.87-.82c-.59-.58-.59-.58-1.2,0a5.06,5.06,0,0,1-1.24,1.07l-2,.4c-.6-.53-1.14-1.13-1.71-1.7-.29-.29-.51-.3-.79,0a16.14,16.14,0,0,1-1.17,1.17c-.34.31-.39.56,0,.88.18.15.41.31.36.62l-.89.28a.39.39,0,0,1-.47,0c-.38-.33-.65-.16-.9.15a4.67,4.67,0,0,1-.77.64,1.91,1.91,0,0,1-1,.35A.5.5,0,0,1,8,20.62a6.15,6.15,0,0,1,1.33-1.5c.35-.33.42-.59,0-.91a1.21,1.21,0,0,1-.49-.64l.17-1.38c.38,0,.54.29.76.49,1.15,1.11.82,1.14,2,0,.2-.19.38-.4.58-.58s.35-.5,0-.79-.84-.83-1.25-1.25a.44.44,0,0,0-.75,0,9.63,9.63,0,0,1-.72.71c-.15.14-.28.34-.53.27v-.64c.09-.53-.11-1.15.46-1.55.16-.11.07-.26-.05-.37a1.88,1.88,0,0,1-.43-.61L9,10.2c.51,0,.69.43,1,.7.9.85.72.89,1.6,0l.58-.58c.63-.63.6-.61,0-1.29-.36-.39-.92-.62-1-1.25A2.81,2.81,0,0,1,12,7.16c.56,0,.77.53,1.11.85.81.76.63.78,1.44,0,.27-.27.53-.55.81-.81s.28-.53,0-.84-.79-.52-.82-1.06a3.38,3.38,0,0,1,.85-.56c.54,0,.72.46,1,.75s.41.28.66,0c.42-.45.85-.88,1.3-1.29.28-.26.39-.48,0-.76A.3.3,0,0,1,18.3,3a2.11,2.11,0,0,1,.76-.39C20,2.88,20.35,2,21,1.7A9.93,9.93,0,0,1,23.25.8c.33-.13.51.1.7.29.42.4.85.81,1.24,1.25s.62.35,1,0c.56-.6,1.15-1.17,1.73-1.74.19-.18.37-.42.69-.29a1.17,1.17,0,0,1,.66.76,9.28,9.28,0,0,1-1.61,1.76c-1,1-1,1,0,2A4.21,4.21,0,0,1,28.71,6a10.73,10.73,0,0,1-1,2.55,5.23,5.23,0,0,1-.59.73.62.62,0,0,0-.18.92,2.68,2.68,0,0,1-.51,1c-.06,0-.14,0-.18,0-.52-.54-.9-.25-1.27.2a8.47,8.47,0,0,1-.67.67c-.64.65-.64.64,0,1.28.19.19.43.34.48.64a2.85,2.85,0,0,1-.59.91c-.54,0-.74-.44-1-.74s-.62-.39-1,0a12.12,12.12,0,0,1-1.07,1.08c-.31.28-.29.52,0,.79s.61.59.9.9.36.32.19.6Z"/><path class="cls-3" d="M.15,20.51c.53.28.6.88.88,1.33a8.48,8.48,0,0,0,6.22,4.34,11.27,11.27,0,0,0,5-.65,27.63,27.63,0,0,0,7.13-3.8c1.26-.89,2.43-1.89,3.61-2.88a4.56,4.56,0,0,0,.48-.5,8.74,8.74,0,0,1,3.33,1.14.82.82,0,0,1,.37,1,.73.73,0,0,1-.76.64c-3.08-.18-5.33,1.51-7.5,3.34-1.45,1.23-2.8,2.58-4.35,3.7A15.61,15.61,0,0,1,12,29.77a7.41,7.41,0,0,1-7.5-.39c-.36-.22-.59-.22-.84.11a2.67,2.67,0,0,1-.44.45c-.6.52-1.1.43-1.82-.24C.1,28.53,0,28.17.59,27.39a2.71,2.71,0,0,1,.54-.53c.26-.22.27-.4.09-.69A7.77,7.77,0,0,1,.15,20.51Z"/><path class="cls-4" d="M11.18,7.79c.5.52,1,1,1.5,1.55.28.27.28.45,0,.72-.52.49-1,1-1.52,1.53-.28.3-.46.24-.72,0-.45-.47-.94-.9-1.42-1.36l-.08-.4C9.68,9.12,10.37,8.39,11.18,7.79Z"/><path class="cls-4" d="M28.71,6c-.68-.66-1.36-1.33-2.05-2-.17-.17-.2-.29,0-.47.88-.82,1.66-1.74,2.59-2.51a3.08,3.08,0,0,1,.15,2A12.86,12.86,0,0,1,28.71,6Z"/><path class="cls-4" d="M28.58.29C28.2.34,28,.67,27.8.9c-.58.56-1.16,1.11-1.7,1.71-.31.34-.53.38-.86,0s-1-1-1.47-1.49C23.62,1,23.49.81,23.25.8A12,12,0,0,1,27.51,0,1.57,1.57,0,0,1,28.58.29Z"/><path class="cls-4" d="M14.49,5.28c.37.38.72.77,1.1,1.13s.32.44,0,.71c-.52.49-1,1-1.51,1.52-.27.29-.42.2-.65,0-.48-.5-1-1-1.49-1.45A20.23,20.23,0,0,1,14.49,5.28Z"/><path class="cls-4" d="M22.23,17.57a5.1,5.1,0,0,0-1.32-1.49c-.31-.32-.33-.51,0-.81a19.29,19.29,0,0,0,1.43-1.43c.27-.31.44-.26.7,0a6.14,6.14,0,0,0,1.14,1.08A21.65,21.65,0,0,1,22.23,17.57Z"/><path class="cls-4" d="M18.3,3c0,.06,0,.15,0,.18.74.54.38.95-.14,1.38A7.66,7.66,0,0,0,17.14,5.6c-.34.41-.57.33-.88,0a4.18,4.18,0,0,0-.92-.86A22.56,22.56,0,0,1,18.3,3Z"/><path class="cls-4" d="M24.77,14c-1.44-1.16-1.44-1.16-.19-2.41l.27-.27c.76-.76.76-.76,1.58-.12A18.76,18.76,0,0,1,24.77,14Z"/><path class="cls-5" d="M21,1.7c-.17.19-.36.36-.51.56-.38.51-.79.83-1.4.32A10,10,0,0,1,21,1.7Z"/><path class="cls-6" d="M26.94,10.21c-.53-.27-.51-.56-.06-.91s.49-.57.83-.74A6.36,6.36,0,0,1,26.94,10.21Z"/><path class="cls-4" d="M9.17,15c.42-.41.86-.8,1.27-1.23.25-.27.44-.31.71,0,.49.52,1,1,1.52,1.52.27.25.31.44,0,.71-.52.49-1,1-1.52,1.52-.25.28-.44.31-.71,0-.45-.47-.93-.91-1.4-1.36Z"/><path class="cls-4" d="M12.57,19.71a.83.83,0,0,0-.11-.15c-.87-.93-.87-.93,0-1.81.33-.33.67-.64,1-1s.39-.31.65,0c.48.53,1,1,1.52,1.53a.71.71,0,0,1,.27.48Z"/><path class="cls-7" d="M17.91,18.34l1.53-1.59c.14-.14.33-.28.49-.11a5,5,0,0,1,1.29,1.43Z"/><path class="cls-7" d="M8.88,17.57c1.27,1,1.27,1,.19,2.06l-1,1Z"/><path class="cls-8" d="M9.54,20.78a6.28,6.28,0,0,1,1-1.11.28.28,0,0,1,.48,0,.71.71,0,0,0,.64.33A16.13,16.13,0,0,1,9.54,20.78Z"/><path class="cls-9" d="M9.16,11.86a5.2,5.2,0,0,0,.43.37c.43.3.45.61,0,.9s-.17.88-.41,1.26C9.17,13.55,9.16,12.7,9.16,11.86Z"/><path class="cls-4" d="M19.75,8.89a.45.45,0,0,1-.35-.18c-.53-.54-1.06-1.09-1.61-1.61-.27-.25-.24-.43,0-.67.54-.5,1.06-1,1.57-1.56.25-.27.43-.24.66,0,.51.54,1,1,1.57,1.57.17.18.32.33.07.57-.59.58-1.16,1.16-1.74,1.74A1.29,1.29,0,0,1,19.75,8.89Z"/><path class="cls-4" d="M22.71,11.85a.59.59,0,0,1-.4-.24c-.53-.52-1-1-1.58-1.56-.21-.21-.24-.34,0-.56q.87-.84,1.71-1.71c.19-.2.32-.19.51,0,.54.56,1.1,1.11,1.65,1.66.17.17.25.36.06.55-.58.59-1.16,1.17-1.75,1.75A1.18,1.18,0,0,1,22.71,11.85Z"/><path class="cls-4" d="M18.89,15.73l-.24.29c-.52.52-1.06,1-1.57,1.57-.22.24-.39.24-.62,0C15.94,17,15.4,16.51,14.85,16c-.24-.23-.23-.4,0-.62.55-.53,1.08-1.07,1.62-1.61.16-.16.31-.3.53-.08l1.69,1.71A1.9,1.9,0,0,1,18.89,15.73Z"/><path class="cls-4" d="M13.79,14.87c-.1-.09-.2-.16-.29-.25-.55-.55-1.1-1.11-1.66-1.65-.22-.21-.24-.35,0-.56.54-.51,1.07-1,1.57-1.57.28-.31.52-.22.75,0,.51.49,1,1,1.48,1.48.2.21.33.44,0,.71-.57.54-1.11,1.1-1.66,1.66C14,14.75,13.88,14.79,13.79,14.87Z"/><path class="cls-4" d="M24.74,3.79c0,.18-.1.26-.19.35C24,4.68,23.47,5.2,23,5.76c-.23.23-.36.17-.56,0-.54-.56-1.09-1.12-1.65-1.66-.21-.2-.25-.33,0-.55.55-.52,1.08-1.07,1.61-1.61.18-.18.32-.25.53,0L24.6,3.62A1.77,1.77,0,0,1,24.74,3.79Z"/><path class="cls-4" d="M18.88,9.77c-.07.08-.13.17-.2.24-.53.54-1.08,1.07-1.6,1.62-.24.24-.41.21-.63,0-.52-.55-1.06-1.09-1.61-1.61-.25-.24-.21-.4,0-.62.53-.51,1.05-1,1.57-1.56.13-.13.24-.32.46-.1L18.77,9.6A1.71,1.71,0,0,1,18.88,9.77Z"/><path class="cls-4" d="M25.61,4.67a2.2,2.2,0,0,1,.28.24c.53.52,1,1,1.57,1.56a.43.43,0,0,1,0,.74q-.75.72-1.47,1.47c-.21.22-.38.29-.62,0-.54-.56-1.1-1.11-1.65-1.66-.14-.14-.27-.28-.07-.48l1.79-1.78A.83.83,0,0,1,25.61,4.67Z"/><path class="cls-4" d="M21.81,12.77a.13.13,0,0,1,0,.06,18.22,18.22,0,0,1-1.93,1.9c-.18.15-.35-.06-.48-.19-.52-.52-1-1-1.57-1.56-.2-.19-.28-.33,0-.56.55-.52,1.08-1.06,1.61-1.61.2-.2.36-.24.57,0l1.65,1.66C21.71,12.54,21.82,12.62,21.81,12.77Z"/></g></g></g></svg>