<svg xmlns="http://www.w3.org/2000/svg" viewBox="0 0 21.87 31.69"><defs><style>.cls-1{fill:#fea812;}.cls-2{fill:#60d0df;}.cls-3{fill:#5ac5d3;}.cls-4{fill:#814b33;}.cls-5{fill:#feb431;}.cls-6{fill:#91553a;}.cls-7{fill:#7a432a;}.cls-8{fill:#8e5439;}.cls-9{fill:#92563a;}.cls-10{fill:#feca72;}.cls-11{fill:#9ee3ec;}.cls-12{fill:#9de3ec;}</style></defs><g id="Capa_2" data-name="Capa 2"><g id="START11"><g id="Otros"><path class="cls-1" d="M21.69,19.66a8.84,8.84,0,0,1-1.22,6.54c-1.06,1.72-2.19,3.4-3.27,5.11a.74.74,0,0,1-.72.38q-5.52,0-11,0a.78.78,0,0,1-.81-.46,5.11,5.11,0,0,0-.41-.62A.42.42,0,0,1,4,30.28c0-.38.34-.51.61-.67a22.92,22.92,0,0,0,8.84-9.49,1.26,1.26,0,0,1,.39-.55.85.85,0,0,1,.22-.09c2.34-.1,4.67,0,7,0A1.06,1.06,0,0,1,21.69,19.66Z"/><path class="cls-2" d="M.17,19.66A7.81,7.81,0,0,1,4,14.4a.64.64,0,0,0,.35-.66c0-.66,0-1.32,0-2a1,1,0,0,1,.72-.3l10.74,0a.79.79,0,0,1,.08.26c.16,1.81-.12,2.12-1.91,2.13-2.07,0-4.14,0-6.2,0-.32,0-.84-.12-.85.32s.53.31.84.32c2.09,0,4.18,0,6.27,0a5.67,5.67,0,0,1,.82,0,.57.57,0,0,1,.56.7,16.73,16.73,0,0,1-1.3,4.08.63.63,0,0,1-.36.3v.05a1,1,0,0,1-.64.2c-3.28,0-6.57.06-9.85,0a1,1,0,0,1-.21-.07c-.42-.39,0-.7.1-1s.52-.63.06-.87-.55.3-.74.57-.28,1-.67,1.32a.74.74,0,0,1-.21.07C1.15,19.85.63,20,.17,19.66Z"/><path class="cls-3" d="M13.8,19.64a23.21,23.21,0,0,0,1.47-4.3c.14-.54-.16-.6-.59-.6h-7a5,5,0,0,1-.55,0,.53.53,0,0,1-.52-.53.51.51,0,0,1,.5-.54,3.33,3.33,0,0,1,.55,0h7.09c.87,0,.94-.07,1-1a2.34,2.34,0,0,1,.13-1.2c1.64-.08,1.69-.08,1.62,1.57a1.63,1.63,0,0,0,.9,1.67,7.38,7.38,0,0,1,3.32,4.93Z"/><path class="cls-4" d="M13.67.27a1.76,1.76,0,0,1,1.06.8,1.08,1.08,0,0,0,1.15.58c1.54,0,3.09,0,4.63,0,.85,0,1.35.41,1.35,1.09s-.5,1.09-1.36,1.09c-1.58,0-3.17,0-4.76,0a.9.9,0,0,0-.94.47,1.76,1.76,0,0,1-1.13.91.87.87,0,0,1-.23-.69q0-1.77,0-3.54A.88.88,0,0,1,13.67.27Z"/><path class="cls-5" d="M13.11,5.46c0,.84,0,1.68,0,2.53s-.38,1.24-1,1.29S11.05,8.93,11,8.19c-.07-.48-.26-.67-.76-.6-.93.13-1.42-.3-1.44-1.24,0-.3,0-.59,0-.89a.7.7,0,0,1,.55-.2,9.73,9.73,0,0,1,1.08,0,9.73,9.73,0,0,1,1.08,0,7.79,7.79,0,0,1,1.08,0A.68.68,0,0,1,13.11,5.46Z"/><path class="cls-6" d="M10.39,5.44H9.29a1,1,0,0,1-.22-.75c0-1.31,0-2.61,0-3.92A1,1,0,0,1,9.29,0h1.1a1,1,0,0,1,.23.75c0,1.31,0,2.61,0,3.92A1,1,0,0,1,10.39,5.44Z"/><path class="cls-7" d="M10.39,5.44V0h1.09a.94.94,0,0,1,.23.75c0,1.31,0,2.61,0,3.92a.94.94,0,0,1-.23.75Z"/><path class="cls-8" d="M11.48,5.44V0h1.1a.94.94,0,0,1,.22.75c0,1.31,0,2.61,0,3.92a1,1,0,0,1-.22.75Z"/><path class="cls-9" d="M8.2,5.19a2.5,2.5,0,0,1-1.62-2.5A2.45,2.45,0,0,1,8.2.27.84.84,0,0,1,8.43,1q0,1.77,0,3.54A.84.84,0,0,1,8.2,5.19Z"/><path class="cls-7" d="M8.2,5.19V.27A1.52,1.52,0,0,1,9.29,0V5.44l-.53,0Z"/><path class="cls-7" d="M12.58,5.44V0a1.46,1.46,0,0,1,1.09.25V5.19l-.56.27Z"/><path class="cls-5" d="M.17,19.66l1.61,0c.24.26.14.56.11.85a7.37,7.37,0,0,0,.76,4.1c.1.2.19.53.53.35s.2-.43.09-.66a6.38,6.38,0,0,1-.7-3.43c0-.42,0-.93.44-1.21h10.8A17.52,17.52,0,0,1,11,24.31a24,24,0,0,1-6.41,5.51c-.2.12-.46.22-.49.52-.95-1.46-1.95-2.89-2.82-4.4A8.83,8.83,0,0,1,.17,19.66Z"/><path class="cls-10" d="M3,19.68a5.86,5.86,0,0,0,.49,4.65c.14.28.33.53-.07.81s-.62.32-.86-.2a7.45,7.45,0,0,1-.8-4.85,1.86,1.86,0,0,0,0-.41l.14,0a1,1,0,0,1,1.1,0Z"/><path class="cls-11" d="M3,19.63H1.92a4.62,4.62,0,0,1,.79-1.85c.2-.34.41-.32.65-.12s.54.27.27.68A3.87,3.87,0,0,0,3,19.63Z"/><path class="cls-12" d="M5.56,16.56a1.13,1.13,0,0,1-.87.52.62.62,0,0,1-.54-.66A.91.91,0,0,1,5,15.78C5.37,15.77,5.35,16.28,5.56,16.56Z"/></g></g></g></svg>