<svg xmlns="http://www.w3.org/2000/svg" viewBox="0 0 29.48 29.75"><defs><style>.cls-1{fill:#fea325;}.cls-2{fill:#0bac67;}.cls-3{fill:#ea9622;}.cls-4{fill:#13bc79;}.cls-5{fill:#fec77b;}.cls-6{fill:#0cac66;}.cls-7{fill:#ea9724;}</style></defs><g id="Capa_2" data-name="Capa 2"><g id="START11"><g id="Fruta"><path class="cls-1" d="M12.54,29.73a12.22,12.22,0,0,1-8.31-3.36A12.3,12.3,0,0,1,.58,13.29c1.46-5,5-8,10.09-9.09A8.22,8.22,0,0,1,12.52,4c.25.23.12.51.11.77a8.69,8.69,0,0,1-.07,1.44c-.12.34-.47.37-.73.51s-.4.19-.4.45.2.35.39.44a2.38,2.38,0,0,0,2,0c.2-.08.41-.18.41-.43s-.2-.35-.39-.46-.61-.14-.81-.41a2.48,2.48,0,0,1,.47-1.88.73.73,0,0,1,.56,0,8.48,8.48,0,0,1,2.45,1.11,1.47,1.47,0,0,1,.27.63,9.1,9.1,0,0,0,5,6.17,1.31,1.31,0,0,1,.64.47A12.67,12.67,0,0,1,21.2,23.61a12.68,12.68,0,0,1-8.46,6A.3.3,0,0,0,12.54,29.73Z"/><path class="cls-2" d="M22.33,12.87a15,15,0,0,1-2.65-1.63,9.24,9.24,0,0,1-3.06-5c0-.17-.09-.34-.13-.51-.29-.34-.16-.87-.53-1.18a5.33,5.33,0,0,1-1-1.26.87.87,0,0,1-.16-.6c.06-.15.13-.28.33-.21a4.28,4.28,0,0,0,.67,1.15,2.21,2.21,0,0,0,1.8,1,13.63,13.63,0,0,1,8.23,3.18,8,8,0,0,1,2.94,4.86c.19,1.09.43,2.16.64,3.25.05.23.21.51-.12.66s-.42-.11-.58-.27a8.84,8.84,0,0,0-3.22-2.11,6.44,6.44,0,0,1-2.06-.65A1.94,1.94,0,0,1,22.33,12.87Z"/><path class="cls-3" d="M22.33,12.87l3.15,1.23a12.87,12.87,0,0,1-9.89,15.36,10.42,10.42,0,0,1-3.05.27c-.12-.11-.21-.17.05-.22a12.13,12.13,0,0,0,2.75-.9,12.9,12.9,0,0,0,4.49-3.37,12.69,12.69,0,0,0,2.88-6,12.91,12.91,0,0,0-.35-6.11A2.08,2.08,0,0,1,22.33,12.87Z"/><path class="cls-4" d="M15.12,2.43a.41.41,0,0,0-.27.27,5.23,5.23,0,0,0-1,1.43.67.67,0,0,1-.28.38,4.84,4.84,0,0,0-.45,1.87.86.86,0,0,1-.15,1,.22.22,0,0,1-.32,0,.84.84,0,0,1-.2-1A12.42,12.42,0,0,1,12.52,4,5.61,5.61,0,0,1,14,1.09a4.49,4.49,0,0,1,1.79-1,1,1,0,1,1,.46,2A2.9,2.9,0,0,0,15.12,2.43Z"/><path class="cls-5" d="M1.51,16.37a.52.52,0,0,1,.57.59,8.83,8.83,0,0,0,.29,2.34A.54.54,0,0,1,2,20c-.35.11-.59-.11-.69-.44A13.92,13.92,0,0,1,.94,17,.53.53,0,0,1,1.51,16.37Z"/><path class="cls-6" d="M12.46,6.39c.18.22,0,.49.12.72s.11.22.24.23.17-.11.19-.23l.12-.73a2.39,2.39,0,0,1,1,.35.52.52,0,0,1,0,.94,2.74,2.74,0,0,1-2.65,0,.53.53,0,0,1,0-1A2.57,2.57,0,0,1,12.46,6.39Z"/><path class="cls-7" d="M13.58,4.51A1,1,0,0,1,13.76,4,2.74,2.74,0,0,1,16,4.37c.55.29.45.83.5,1.31A15.26,15.26,0,0,0,13.58,4.51Z"/></g></g></g></svg>