<svg xmlns="http://www.w3.org/2000/svg" viewBox="0 0 33.07 33.07"><defs><style>.cls-1{fill:#b36e53;}.cls-2{fill:#db9574;}.cls-3{fill:#c87c5d;}.cls-4{fill:#d08c6c;}.cls-5{fill:#97523d;}.cls-6{fill:#c87d5d;}.cls-7{fill:#d08d6c;}.cls-8{fill:#c97d5d;}.cls-9{fill:#96523d;}.cls-10{fill:#fe9b41;}.cls-11{fill:#fe8336;}</style></defs><g id="Capa_2" data-name="Capa 2"><g id="START11"><g id="Grasas"><path class="cls-1" d="M11,11.39c.46-.09.76.31,1.17.37s.38.51.46.81a9.35,9.35,0,0,0,2,3.62,11.27,11.27,0,0,0,1.15,1c.19.17.43.29.45.59-.25.83-.66,1.62-.83,2.48a10.59,10.59,0,0,0,0,4.27,1.4,1.4,0,0,1,.06.81c-.26.25-.43,0-.58-.14-.71-.66-1.4-1.34-2.06-2.05a1.29,1.29,0,0,1-.27-1.43c.19-.52.4-1.05.58-1.57A1.94,1.94,0,0,0,12.64,18c-.38-.36-.73-.74-1.1-1.09-.16-.15-.35-.46-.58-.23s0,.45.21.63.57.59.86.87a1.69,1.69,0,0,1,.44,2,6.25,6.25,0,0,0-.7,2.33c0,.35-.27.46-.58.48s-.9,0-1.35,0c-.17,0-.37,0-.39.24s.18.28.34.33a2.69,2.69,0,0,0,1.16.08,2.59,2.59,0,0,1,2.53,1.06c.29.37.67.66,1,1,.15.16.37.31.27.6a7.53,7.53,0,0,1-6,2A9.2,9.2,0,0,1,.92,23c.24-.25.56-.2.85-.2h2.9a2.75,2.75,0,0,0,.57-.05c.11,0,.23-.06.23-.19s-.13-.19-.25-.22a1.71,1.71,0,0,0-.39,0c-1.39,0-2.79-.06-4.18.05a8.23,8.23,0,0,1-.26-5.7,12.86,12.86,0,0,0,1.19,1.26,2,2,0,0,0,2.38.4c.39-.19.8-.32,1.2-.49A1.58,1.58,0,0,1,7,18.21Q8.3,19.5,9.59,20.76c.2.2.44.6.73.34s-.07-.57-.27-.78c-.73-.76-1.48-1.51-2.23-2.24a1.5,1.5,0,0,1-.5-1.2c0-.58,0-1.16,0-1.74,0-.22,0-.49-.31-.5s-.32.28-.34.52c0,.41,0,.81,0,1.22S6.52,17,6,17a4.8,4.8,0,0,0-2,.59,1.83,1.83,0,0,1-2.38-.47A12.31,12.31,0,0,0,.54,16a4.27,4.27,0,0,1,1.73-3.88,3.28,3.28,0,0,1,1.85-.66c1.07,0,2.06-.43,3.1-.55a6.5,6.5,0,0,1,2.74.16,1.35,1.35,0,0,1,.19.92c0,.51,0,1,0,1.54,0,.26-.07.68.28.68s.32-.43.33-.71c0-.47,0-.94,0-1.41C10.8,11.85,10.76,11.59,11,11.39Z"/><path class="cls-2" d="M16.15,17.7a8.79,8.79,0,0,1-3.71-5.1c-.09-.28-.2-.56-.29-.84a16.18,16.18,0,0,1,.12-3.68,7.85,7.85,0,0,1,.87-2.4c.29-.13.43.12.58.27.46.43.88.88,1.33,1.31.17.16.38.39.61.18s0-.48-.15-.65a21.53,21.53,0,0,0-1.94-1.88A7.63,7.63,0,0,1,16,2.35,16.13,16.13,0,0,0,18.23.8,2.44,2.44,0,0,1,19.36.22C20.6,1.27,22.09,2,23.27,3.09a1.49,1.49,0,0,1,.48.6A1.22,1.22,0,0,1,22.93,5a10.25,10.25,0,0,0-2.44,1.31c-.24.22-.49,0-.69-.14s-.59-.62-.93-.89c-.17-.14-.39-.28-.57-.06s0,.36.16.5c.37.41.77.81,1.18,1.19a1.68,1.68,0,0,1,.57,1.38c0,.94,0,1.89,0,2.84a4.34,4.34,0,0,0,0,.51c0,.19,0,.44.28.44s.23-.27.23-.45c0-1.14,0-2.28,0-3.42A2,2,0,0,1,22.25,6a6.72,6.72,0,0,0,2.14-1.26.5.5,0,0,1,.43.23A6.46,6.46,0,0,1,26,8.07c-.15.52-.62.78-.94,1.17-.13.16-.37.32-.19.54s.38,0,.56-.1.39-.45.71-.17a2.62,2.62,0,0,1,.08,1.68A4.4,4.4,0,0,1,25.73,13c-.42.24-.84,0-1.26,0s-.64,0-1,0a8.86,8.86,0,0,0-2.69.62,1.31,1.31,0,0,1-1.23,0c-.43-.24-.91-.39-1.35-.61a1.6,1.6,0,0,1-1-1.59c0-.5,0-1,0-1.48,0-.17,0-.38-.23-.41s-.34.17-.37.35a5.21,5.21,0,0,0,.27,2.79,1.8,1.8,0,0,0,.94.84,6.21,6.21,0,0,0,.59.26c.85.38.88.58.21,1.19a10,10,0,0,0-2.11,2.42A.67.67,0,0,1,16.15,17.7Z"/><path class="cls-3" d="M16.15,17.7a8.72,8.72,0,0,1,2.63-3.12c.33-.26.33-.41-.05-.56l-.35-.17c-1.69-.58-1.86-1.24-2-2.84a3.48,3.48,0,0,1,.1-1.47.46.46,0,0,1,.53-.36c.3,0,.39.21.39.48,0,.61,0,1.21,0,1.81a1.22,1.22,0,0,0,.74,1.24c.6.29,1.21.55,1.81.85a.59.59,0,0,0,.55-.05,9.93,9.93,0,0,1,2.85-.71,8,8,0,0,1,3.84,1.7A9.75,9.75,0,0,1,31,23.67a9.62,9.62,0,0,1-5.12,7.6c-.53.3-.94.75-1.43,1.09a2.75,2.75,0,0,1-1.28.57A1.82,1.82,0,0,1,22,32.52c-1.16-1-2.49-1.65-3.65-2.6a9.16,9.16,0,0,1-2.61-3.6c-.08-.19-.09-.44-.35-.5a.47.47,0,0,1,0-.37,19.09,19.09,0,0,1-.4-2.83A10,10,0,0,1,16.15,17.7Z"/><path class="cls-1" d="M23.12,32.93c1.33-.89,2.69-1.73,4-2.7a9.33,9.33,0,0,0,3.67-6.4,9.82,9.82,0,0,0-2.05-7.64A9.07,9.07,0,0,0,24,13.06a1,1,0,0,1-.56-.26,12.77,12.77,0,0,1,2.31.11,3.34,3.34,0,0,1,2.61,1,9.94,9.94,0,0,1-.09,17,10,10,0,0,0-1.41,1A3.85,3.85,0,0,1,23.12,32.93Z"/><path class="cls-4" d="M28.31,14a10.32,10.32,0,0,0-2.61-1,19.23,19.23,0,0,0,.39-2.74A1.36,1.36,0,0,0,26,9.43c-.08-.34.21-.48.39-.67C27,8,27.79,7.38,28.42,6.6a9.32,9.32,0,0,1,.07,6.68C28.42,13.5,28.25,13.69,28.31,14Z"/><path class="cls-5" d="M.54,16a.71.71,0,0,1,.61.3c.25.26.54.5.77.78a1.52,1.52,0,0,0,2,.41,4.7,4.7,0,0,1,2.38-.65c.27,0,.2-.23.2-.38,0-.49,0-1,0-1.48,0-.34.12-.61.49-.64s.51.3.53.6a13.67,13.67,0,0,1,0,1.81A1.47,1.47,0,0,0,8,18.06c.74.68,1.44,1.42,2.15,2.13a2.5,2.5,0,0,1,.35.38c.16.24.3.49,0,.74a.48.48,0,0,1-.73-.09c-.92-.91-1.85-1.8-2.73-2.74a1.49,1.49,0,0,0-2-.43c-.31.18-.69.24-1,.41A2.12,2.12,0,0,1,1.42,18c-.4-.39-1-.67-1-1.34Z"/><path class="cls-6" d="M24.41,4.78A4.39,4.39,0,0,1,22.18,6.2c-1.05.41-1.25.68-1.25,1.82v3.73c0,.28,0,.62-.36.63s-.55-.26-.55-.63c0-1.12,0-2.24,0-3.35a1.66,1.66,0,0,0-.62-1.46c-.44-.37-.83-.81-1.24-1.22C18,5.5,17.84,5.26,18.1,5a.51.51,0,0,1,.75,0c.36.34.71.69,1.06,1s.35.34.64,0a5,5,0,0,1,2-1c.62-.26,1.16-.59,1.12-1.38a2.18,2.18,0,0,1-.18-1.48c0-.26.13-.51.47-.49l.73.43a7.38,7.38,0,0,1,0,2.15A.7.7,0,0,1,24.41,4.78Z"/><path class="cls-5" d="M15.37,25.45a.33.33,0,0,1,0,.37,1.65,1.65,0,0,1-.64.56c-.66-.85-1.5-1.53-2.23-2.31a.84.84,0,0,0-.66-.18,11.34,11.34,0,0,1-2.18-.09c-.32-.08-.52-.18-.49-.54s.33-.4.61-.4h1.42c.21,0,.43,0,.41-.28A6,6,0,0,1,12.39,20,1.36,1.36,0,0,0,12,18.43c-.4-.42-.81-.82-1.22-1.23-.26-.26-.3-.52,0-.78s.46-.07.65.12c.5.5,1,1,1.5,1.51a1.94,1.94,0,0,1,.4,2c-.17.55-.4,1.08-.62,1.62a1.2,1.2,0,0,0,.3,1.45Z"/><path class="cls-7" d="M24.41,4.78a8,8,0,0,0,.13-2,1.33,1.33,0,0,1,.12-.68,8.15,8.15,0,0,1,3.54,4c-.61.67-1.28,1.28-1.92,1.92-.12.12-.25.25-.45.16A5.8,5.8,0,0,0,24.41,4.78Z"/><path class="cls-7" d="M23.93,1.66c-.35.16-.29.48-.29.77v1.2C22.53,2.4,21,1.79,19.75.7c-.15-.14-.39-.22-.39-.48A3.74,3.74,0,0,1,23.21,1Z"/><path class="cls-8" d="M25.83,8.14l1.75-1.67c.18-.18.33-.4.62-.41a1.07,1.07,0,0,1,.22.54c0,.32-.18.5-.38.69C27.35,8,26.66,8.72,26,9.43a6.53,6.53,0,0,1-.63.55.49.49,0,0,1-.69,0c-.19-.22-.09-.44.09-.63Z"/><path class="cls-9" d="M.65,22.35c0-.31.29-.26.5-.26H5.21c.34,0,.62,0,.61.47s-.33.43-.64.43H.92Z"/><path class="cls-5" d="M11,11.39c0,.79,0,1.58,0,2.37,0,.37,0,.81-.51.82s-.52-.41-.52-.8c0-.9,0-1.79,0-2.69A1.61,1.61,0,0,1,11,11.39Z"/><path class="cls-8" d="M13.57,4.91a.62.62,0,0,1,.51.2c.55.55,1.1,1.08,1.63,1.64.21.23.47.51.15.83s-.6.11-.87-.14a19.24,19.24,0,0,0-1.85-1.76A1.84,1.84,0,0,1,13.57,4.91Z"/><path class="cls-9" d="M24,30.49a1.63,1.63,0,0,1-1.36-.62,7.24,7.24,0,0,0-1.47-1,7.07,7.07,0,0,1-3.57-5.3,7.1,7.1,0,0,1,1.86-6.17,6.17,6.17,0,0,1,9.81.8,7.52,7.52,0,0,1-1,9.69c-.83.8-1.92,1.21-2.8,1.93S24.56,30.49,24,30.49Z"/><path class="cls-10" d="M24.15,18.22a1.53,1.53,0,0,1,1.9-.1,1.9,1.9,0,0,1,.78,2c-.06.24-.22.47.22.56a1.65,1.65,0,0,1,1.51,1.94A1.7,1.7,0,0,1,27,24.28l-.24,0a2.06,2.06,0,0,1-.55,2.36A1.75,1.75,0,0,1,24,26.6a1.52,1.52,0,0,1-.74-1.68A1.11,1.11,0,0,0,23,23.83a2,2,0,0,1,0-2.74,1.25,1.25,0,0,0,.35-1.2A1.49,1.49,0,0,1,24.15,18.22Z"/><path class="cls-11" d="M24.15,18.22a1.8,1.8,0,0,0-.62,2,.63.63,0,0,1-.23.76,1.83,1.83,0,0,0,0,3,.48.48,0,0,1,.2.6A1.93,1.93,0,0,0,24,26.6a1.69,1.69,0,0,1-2,.15,1.72,1.72,0,0,1-.78-1.95c.07-.4,0-.48-.38-.56a1.83,1.83,0,0,1-1.44-1.82,1.73,1.73,0,0,1,1.55-1.76c.33-.05.36-.14.29-.45A1.82,1.82,0,0,1,22,18.12,1.48,1.48,0,0,1,23.56,18C23.75,18.1,23.92,18.26,24.15,18.22Z"/></g></g></g></svg>