<svg xmlns="http://www.w3.org/2000/svg" viewBox="0 0 45.38 27.29"><defs><style>.cls-1{fill:#845151;}.cls-2{fill:#ad6c6c;}.cls-3{fill:#704444;}.cls-4{fill:#c28e85;}.cls-5{fill:#b77d72;}.cls-6{fill:#855151;}.cls-7{fill:#865252;}.cls-8{fill:#875353;}</style></defs><g id="Capa_2" data-name="Capa 2"><g id="START11"><g id="Carbs"><path class="cls-1" d="M16.44.33A28.51,28.51,0,0,1,20.67.08a80.24,80.24,0,0,1,17,1,11.73,11.73,0,0,1,3.89,1.41,7.09,7.09,0,0,0,2.56,1.12,1.48,1.48,0,0,1,1.22,1.62q0,9.61,0,19.23a2.93,2.93,0,0,1-3.18,2.87c-4.82,0-9.63,0-14.45,0l-5,0c0-.26.2-.34.38-.42a3.2,3.2,0,0,0,1.8-3.11c0-1.44,0-2.89,0-4.34V6.3a7.17,7.17,0,0,0-.17-1.85,3,3,0,0,0-2.1-2.32,18.6,18.6,0,0,1-2.37-.95A5.44,5.44,0,0,0,17.68.63C17.25.63,16.78.72,16.44.33Z"/><path class="cls-2" d="M20.93,27.27c-6,0-12,0-18,0A2.9,2.9,0,0,1,0,24.34q0-9.53,0-19A1.66,1.66,0,0,1,1.57,3.47a3.78,3.78,0,0,0,1.61-.65A13.8,13.8,0,0,1,10,.72C11,.65,11.86.61,12.77.56A14.59,14.59,0,0,1,18,1.48a11.93,11.93,0,0,1,1.88,1,6,6,0,0,0,1.86.8,1.81,1.81,0,0,1,1.63,2.07q0,9.47,0,18.94C23.31,26,22.64,26.79,20.93,27.27Z"/><path class="cls-3" d="M20.93,27.27c1.75-.74,2.18-2.1,2.16-3.92-.09-5.94,0-11.87,0-17.81,0-1.46-.28-1.8-1.69-2.12a2.15,2.15,0,0,1-.92-.25A14.26,14.26,0,0,0,13.17.7a1.74,1.74,0,0,1-.4-.14L16.44.33C17.75.39,19.12.2,20.32.9a18.55,18.55,0,0,0,2.61,1,3.51,3.51,0,0,1,2.23,3.5q0,9.3,0,18.6a3.19,3.19,0,0,1-2.46,3.24Z"/><path class="cls-4" d="M2.66,25a1.26,1.26,0,0,1-.53-1.23c0-5.61,0-11.22,0-16.83A1.53,1.53,0,0,1,3.22,5.32c1-.36,1.72-1.1,2.69-1.49a18.9,18.9,0,0,1,5.08-1,21.56,21.56,0,0,0,2.27.24c1.85.27,3.29,1.4,4.85,2.27a1.64,1.64,0,0,1,.73,1.26,7.42,7.42,0,0,1,.07,1.33V22.71c0,.3,0,.59,0,.89-.08,1.23-.34,1.47-1.56,1.47H3.53A1.62,1.62,0,0,1,2.66,25Z"/><path class="cls-5" d="M2.66,25H17.19c1.24,0,1.42-.16,1.42-1.43,0-3.13,0-6.26,0-9.39,0-2.15,0-4.31,0-6.46a2.41,2.41,0,0,0-1.52-2.63A18.25,18.25,0,0,0,13,3.25a8.9,8.9,0,0,1-2-.41A14.41,14.41,0,0,1,19.46,5a2.66,2.66,0,0,1,1.48,2.63c-.05,5.34,0,10.67,0,16,0,1.25-.25,1.49-1.5,1.5H3.58C3.27,25.16,2.93,25.27,2.66,25Z"/><path class="cls-6" d="M14.17,18.62c-1,0-1.22-.24-1.22-1.18a1.17,1.17,0,0,1,1.29-1.33c.81,0,1.34.39,1.35,1.06C15.62,18.2,15.22,18.6,14.17,18.62Z"/><path class="cls-6" d="M6.55,19.49a1.29,1.29,0,0,1,1.26,1.45,2,2,0,0,1-1.52,1.35c-.46,0-1.13-.93-1.14-1.53A1.38,1.38,0,0,1,6.55,19.49Z"/><path class="cls-6" d="M6.32,9.77c-.67.06-1.2-.11-1.18-1s.42-1.47,1.34-1.48A1.25,1.25,0,0,1,7.8,8.4C7.8,9.36,7.39,9.77,6.32,9.77Z"/><path class="cls-6" d="M16.67,9.22a1.58,1.58,0,0,1-1.29,1.43A1.68,1.68,0,0,1,14,9.28a1.67,1.67,0,0,1,1.41-1.46A1.74,1.74,0,0,1,16.67,9.22Z"/><path class="cls-6" d="M7.27,14.62A1.55,1.55,0,0,1,8.7,13.13a1.79,1.79,0,0,1,1.23,1.45A1.7,1.7,0,0,1,8.57,16,1.7,1.7,0,0,1,7.27,14.62Z"/><path class="cls-7" d="M16.69,13.43a.7.7,0,0,1-.57-.73c0-.44.94-1.21,1.45-1.17a.62.62,0,0,1,.64.67C18.2,12.57,17.11,13.46,16.69,13.43Z"/><path class="cls-8" d="M10.64,4.79c.74.19.88.8,1,1.34a.57.57,0,0,1-.6.71c-.77,0-.87-.71-1-1.23S10.35,5,10.64,4.79Z"/><path class="cls-8" d="M14.89,22.68A1.05,1.05,0,0,1,14,21.63a.61.61,0,0,1,.63-.7c.63,0,.83.5.91,1S15.33,22.6,14.89,22.68Z"/><path class="cls-8" d="M10.79,21.27c-.47,0-.82-.21-.8-.59a1.07,1.07,0,0,1,1-1,.6.6,0,0,1,.71.7A1,1,0,0,1,10.79,21.27Z"/><path class="cls-7" d="M9.69,11.36c-.46,0-.84-.09-.82-.66s.5-.61.94-.61.84.08.82.65S10.13,11.35,9.69,11.36Z"/><path class="cls-8" d="M5.5,15.73c0,.43-.27.73-.67.73a.87.87,0,0,1-.9-.89.62.62,0,0,1,.68-.66A1,1,0,0,1,5.5,15.73Z"/></g></g></g></svg>