<svg xmlns="http://www.w3.org/2000/svg" viewBox="0 0 48.11 31.18"><defs><style>.cls-1{fill:#c5845b;}.cls-2{fill:#d6a98a;}.cls-3{fill:#c07e4e;}.cls-4{fill:#cd9675;}.cls-5{fill:#f1d49b;}.cls-6{fill:#c5855b;}</style></defs><g id="Capa_2" data-name="Capa 2"><g id="START11"><g id="Carbs"><path class="cls-1" d="M1.87,30.08c-1.8-1.57-2-3.64-1.8-5.8a14.32,14.32,0,0,1,1.25-4.57c.36-.3.72-.11,1.06,0a10.33,10.33,0,0,1,4.2,2.55,7.8,7.8,0,0,0,1,1,1.68,1.68,0,0,0,2.08,0,1.49,1.49,0,0,0,.21-2A9.82,9.82,0,0,0,7.81,19,13.56,13.56,0,0,0,4,16.84c-.36-.13-.84-.17-.88-.7a32.59,32.59,0,0,1,2.53-3.73,2.33,2.33,0,0,1,1.89-.2,10.9,10.9,0,0,1,6.09,3c.31.31.6.64.94.92a1.56,1.56,0,0,0,2.05.08,1.51,1.51,0,0,0,.31-2,8,8,0,0,0-1.9-2A13.94,13.94,0,0,0,9.88,9.44c-.36-.1-.83-.1-.92-.63a26.09,26.09,0,0,1,4.38-3.74,9.09,9.09,0,0,1,6.33,2.54A5.07,5.07,0,0,1,21.4,9.66c.39.92,1.09,1.15,2.14.7a1.53,1.53,0,0,0,1-2c-.06-.14-.17-.26-.22-.41a1.14,1.14,0,0,1-.06-.25c0-1.26-.14-1.48-1.43-1.72a.86.86,0,0,1-.47-.5,1.81,1.81,0,0,0-1-1.57,13.12,13.12,0,0,1-1.47-1c-.82-.64-.82-.92.15-1.22C21.29,1.3,22.39.47,23.75.46a.71.71,0,0,0,.48-.28.14.14,0,0,1,.15,0,6.15,6.15,0,0,1,2.14,0,1.17,1.17,0,0,1,.9.23c1.35,1.44,1.21,3.15.78,4.84a17.16,17.16,0,0,1-2.93,5.62,65.09,65.09,0,0,1-6.45,7.42A81.88,81.88,0,0,1,10.38,26,19.38,19.38,0,0,1,1.87,30.08Z"/><path class="cls-2" d="M38.87,16.15c3,.92,5.81,2.2,7.87,4.7.44,2.26-.76,3.69-2.49,4.81a15,15,0,0,1-5.62,2,49.36,49.36,0,0,1-8.75.8c-3.47,0-6.94.12-10.4-.19a48.55,48.55,0,0,1-4.82-.66,1.4,1.4,0,0,1-1-.5.47.47,0,0,1,.1-.59A12,12,0,0,1,16.6,24.3a.92.92,0,0,1,.71.39,1.51,1.51,0,0,0,1.76.44,1.82,1.82,0,0,0,1.11-1.6c.08-.86,0-1.73.08-2.6a.78.78,0,0,1,.13-.34c1.29-1.37,2.51-2.81,3.86-4.12a.57.57,0,0,1,.51-.19,3.13,3.13,0,0,1,1.17,1.64,10.85,10.85,0,0,1,1,4.73,7.85,7.85,0,0,0,0,.84c.05,1.06.59,1.7,1.45,1.74a1.73,1.73,0,0,0,1.72-1.65,12.34,12.34,0,0,0-.23-3.64,14.83,14.83,0,0,0-1.26-3.81c-.4-.81-.88-1.35-1.86-1.23a.9.9,0,0,1-.62-.18c-.12-.18-.07-.26.14-.26,2.24.07,4.48.14,6.7.38a7.3,7.3,0,0,1,.81.18,4.17,4.17,0,0,1,1.76,2.23,10.87,10.87,0,0,1,1.06,6.1,1.73,1.73,0,0,0,1.34,2c.86.12,1.55-.47,1.76-1.54a12.64,12.64,0,0,0-.67-6.53C38.93,16.94,38.68,16.58,38.87,16.15Z"/><path class="cls-3" d="M24.61,16.35l-4.16,4.49a12.4,12.4,0,0,1-3.92,3.57L13.7,26.85a4.68,4.68,0,0,1-2.62,1.84A14,14,0,0,1,5.4,31.1a4.14,4.14,0,0,1-3.53-1c0-.2.1-.37.33-.4,3.46-.47,6.13-2.46,8.78-4.51a70.7,70.7,0,0,0,6-5.38,66.3,66.3,0,0,0,8.77-10,18.34,18.34,0,0,0,1.85-3.36,6.57,6.57,0,0,0-.15-6,4.32,4.32,0,0,1,3.76,4A9,9,0,0,1,30.1,8.7a35,35,0,0,1-3.81,5.76l-.18.18A2.71,2.71,0,0,1,24.61,16.35Z"/><path class="cls-4" d="M11.08,28.69l2.62-1.84c.33.54.92.46,1.42.55,5.46,1,11,.85,16.49.72a35.74,35.74,0,0,0,9.3-1.3,10.72,10.72,0,0,0,4.2-2.16,3.92,3.92,0,0,0,1.47-3.29.56.56,0,0,1,.16-.52c2.25,2.79,1.68,5.91-1.42,7.66A19.59,19.59,0,0,1,38,30.59a72.35,72.35,0,0,1-11.77.54c-4.39-.15-8.8-.27-13-1.66C12.47,29.23,11.78,29,11.08,28.69Z"/><path class="cls-5" d="M9,8.81c.84.31,1.69.61,2.52.93a13.74,13.74,0,0,1,5.35,3.83c1.12,1.27.73,2.89-.75,3.27a1.85,1.85,0,0,1-2-.75,10.83,10.83,0,0,0-6.38-3.6,7.85,7.85,0,0,0-2-.08A32,32,0,0,1,9,8.81Z"/><path class="cls-6" d="M38.87,16.15A13.59,13.59,0,0,1,40,23.9a2,2,0,0,1-2.18,1.81,2.11,2.11,0,0,1-1.5-2.44,10.34,10.34,0,0,0-2.25-7.87L33.8,15A19.11,19.11,0,0,1,38.87,16.15Z"/><path class="cls-5" d="M21.24,9.71a10.53,10.53,0,0,0-7.09-4.45c-.27,0-.54-.12-.81-.19A23,23,0,0,1,17.7,2.29a8.23,8.23,0,0,1,4.84,3.15.58.58,0,0,0,.37.38,2.65,2.65,0,0,1,1.49,1.9.51.51,0,0,0,0,.17,1.71,1.71,0,0,1-.78,2.21A1.82,1.82,0,0,1,21.24,9.71Z"/><path class="cls-5" d="M3.14,16.14c1,.63,2.17.9,3.19,1.54a16.06,16.06,0,0,1,3.55,3,1.88,1.88,0,0,1,0,2.76,2,2,0,0,1-2.69-.26,10.29,10.29,0,0,0-5.83-3.49A18.19,18.19,0,0,1,3.14,16.14Z"/><path class="cls-6" d="M22.54,5.44A18.17,18.17,0,0,0,17.7,2.29,17,17,0,0,1,24.23.18c0,.28-.14.54-.42.54C22.2.72,21,1.9,19.32,2.12a13.68,13.68,0,0,0,2.36,1.7A1.37,1.37,0,0,1,22.54,5.44Z"/><path class="cls-6" d="M26.52.17H24.38A3.34,3.34,0,0,1,26.52.17Z"/><path class="cls-6" d="M21.24,9.71c2,.91,3.1.27,3.19-1.82.71.78.73,1.34.06,2.08a2.27,2.27,0,0,1-2.75.63A.79.79,0,0,1,21.24,9.71Z"/><path class="cls-6" d="M24.4,7.72l-1.49-1.9C24.25,5.83,24.78,6.5,24.4,7.72Z"/><path class="cls-1" d="M24.61,16.35l1.5-1.71c1.66-.34,2.47.49,3.06,1.95a16,16,0,0,1,1.23,7,2,2,0,0,1-2.11,1.92c-1-.07-1.66-.85-1.61-2.11A11.21,11.21,0,0,0,25,16.82C24.91,16.63,24.83,16.43,24.61,16.35Z"/><path class="cls-6" d="M16.53,24.41l3.92-3.57c0,.81,0,1.62,0,2.43a2.08,2.08,0,0,1-1.31,2.15,1.75,1.75,0,0,1-2.25-.8A.45.45,0,0,0,16.53,24.41Z"/></g></g></g></svg>