<svg xmlns="http://www.w3.org/2000/svg" viewBox="0 0 24.06 29.48"><defs><style>.cls-1{fill:#f8e9af;}.cls-2{fill:#f2d45b;}.cls-3{fill:#4fb96f;}.cls-4{fill:#f08c46;}.cls-5{fill:#314250;}.cls-6{fill:#314150;}.cls-7{fill:#304150;}.cls-8{fill:#334350;}.cls-9{fill:#324250;}</style></defs><g id="Capa_2" data-name="Capa 2"><g id="START11"><g id="Fruta"><path class="cls-1" d="M11,29.46a6.71,6.71,0,0,1-4.71-1.65A15.48,15.48,0,0,1,.57,20a10.67,10.67,0,0,1,1.05-9.09A24.53,24.53,0,0,0,4,5.44a8.33,8.33,0,0,1,2.52-4.1A2.32,2.32,0,0,1,7.62.7c.58-.2.87.23,1.14.6s.53.72.17,1.17a5.43,5.43,0,0,0-2.62,3.3A40.76,40.76,0,0,1,3.15,13a8.19,8.19,0,0,0-.79,2.39A8.43,8.43,0,0,0,3,20.13a13.82,13.82,0,0,0,5.6,6.51,3,3,0,0,0,3.58-.09,14.27,14.27,0,0,0,5.25-6,8.39,8.39,0,0,0,0-7.85,39,39,0,0,1-3.11-7.1,5.44,5.44,0,0,0-2.62-3.22A1.58,1.58,0,0,1,13.11.57a4.25,4.25,0,0,1,2,1.47,9.19,9.19,0,0,1,1.72,3.29,29.4,29.4,0,0,0,2.56,5.83,10.38,10.38,0,0,1,1.29,3.25,12,12,0,0,1-1.05,7.45,16.37,16.37,0,0,1-6.07,6.76A6.06,6.06,0,0,1,11,29.46Z"/><path class="cls-2" d="M8.87,2.41A1.48,1.48,0,0,0,7.62.7,3.71,3.71,0,0,1,9.7,0c.57,0,1.14,0,1.72,0a4.34,4.34,0,0,1,1.33.29c.16.07.4.09.36.36a1.63,1.63,0,0,0-1.35,1.71c.11.8,0,1.61.16,2.41a8.5,8.5,0,0,0,.71,2.35,19.55,19.55,0,0,1,1.82,7,16.1,16.1,0,0,1-.15,5.32,6.65,6.65,0,0,1-2,3.62,2.62,2.62,0,0,1-3.82.12,6.06,6.06,0,0,1-2-3.34,13.87,13.87,0,0,1-.35-4.68,29.21,29.21,0,0,1,1-5.87A11.72,11.72,0,0,1,8,7.27a9.05,9.05,0,0,0,.87-4.58A1.29,1.29,0,0,1,8.87,2.41Z"/><path class="cls-3" d="M13.11.68A5.69,5.69,0,0,0,11.42,0a12.4,12.4,0,0,1,4,.49,6.71,6.71,0,0,1,4.07,4.41,36.39,36.39,0,0,0,3.17,6.67c2.22,3.72,1.66,7.39-.38,11A16.91,16.91,0,0,1,17,28.06,8.08,8.08,0,0,1,13,29.35a10.8,10.8,0,0,1-2,.11c4.11-1.2,6.68-4.13,8.5-7.8a11.09,11.09,0,0,0,.92-7.6,8.55,8.55,0,0,0-.9-2.24,40,40,0,0,1-3.16-7.19A6.83,6.83,0,0,0,13.8,1.09C13.58.93,13.34.82,13.11.68Z"/><path class="cls-4" d="M8.87,2.41a.93.93,0,0,1,.22.69,10.83,10.83,0,0,1-1,4.32,16.87,16.87,0,0,0-1.56,5.49,23.17,23.17,0,0,0-.31,4,10,10,0,0,0,1.09,4.7,5.21,5.21,0,0,0,1.74,1.87,2.19,2.19,0,0,0,2.54,0,6.14,6.14,0,0,0,2.55-4.14,18.24,18.24,0,0,0,0-5.76,24.28,24.28,0,0,0-1.07-4.85,27.54,27.54,0,0,1-1.2-2.92,11.24,11.24,0,0,1-.29-2.95.51.51,0,0,1,.12-.43,4.67,4.67,0,0,1,2.69,3.19,39.82,39.82,0,0,0,3.1,7,8.49,8.49,0,0,1,.11,7.9A14.05,14.05,0,0,1,12,26.89a2.81,2.81,0,0,1-3.13,0,13.49,13.49,0,0,1-6.53-8.65,7.75,7.75,0,0,1,.57-5.1C3.63,11.51,4.64,10,5.29,8.23c.37-1,.66-2,1.06-3A4.81,4.81,0,0,1,8.87,2.41Z"/><path class="cls-5" d="M13,17.13a.5.5,0,0,1-.57.48.47.47,0,0,1-.47-.54.48.48,0,0,1,.57-.49A.5.5,0,0,1,13,17.13Z"/><path class="cls-6" d="M9.28,10.14c-.31,0-.51-.16-.53-.48a.46.46,0,0,1,.5-.55.48.48,0,0,1,.53.53A.48.48,0,0,1,9.28,10.14Z"/><path class="cls-7" d="M8.72,14.4c0,.33-.2.55-.54.55a.49.49,0,0,1-.52-.5.48.48,0,0,1,.53-.53A.51.51,0,0,1,8.72,14.4Z"/><path class="cls-8" d="M12,16a.54.54,0,0,1-.49.56.49.49,0,0,1-.57-.5.47.47,0,0,1,.47-.53A.52.52,0,0,1,12,16Z"/><path class="cls-5" d="M10.32,9.09C10,9,9.79,8.86,9.81,8.52a.49.49,0,0,1,.54-.47.46.46,0,0,1,.5.55C10.83,8.92,10.62,9.05,10.32,9.09Z"/><path class="cls-7" d="M9.24,11.25a.52.52,0,1,1-.47-.54A.49.49,0,0,1,9.24,11.25Z"/><path class="cls-7" d="M9.8,12.85c-.07.32-.25.52-.58.49a.47.47,0,0,1-.47-.53.47.47,0,0,1,.56-.49A.51.51,0,0,1,9.8,12.85Z"/><path class="cls-9" d="M12,12.82c-.06.32-.23.54-.57.53a.49.49,0,0,1-.49-.52.48.48,0,0,1,.49-.52C11.74,12.3,11.89,12.52,12,12.82Z"/><path class="cls-5" d="M10.86,14.42a.5.5,0,0,1-.5.53.5.5,0,0,1-.55-.53.49.49,0,0,1,.56-.5A.48.48,0,0,1,10.86,14.42Z"/><path class="cls-8" d="M10.34,18.16c-.32-.06-.54-.22-.53-.56a.49.49,0,0,1,.53-.49.48.48,0,0,1,.51.55C10.84,18,10.63,18.11,10.34,18.16Z"/><path class="cls-7" d="M11.84,18.3a.52.52,0,0,1,0,1,.48.48,0,0,1-.51-.55A.49.49,0,0,1,11.84,18.3Z"/><path class="cls-7" d="M8.72,20.85a.52.52,0,1,1,0-1,.52.52,0,0,1,0,1Z"/><path class="cls-7" d="M12,9.63c-.07.31-.22.52-.57.51a.49.49,0,0,1-.49-.52.47.47,0,0,1,.49-.51C11.74,9.09,11.9,9.31,12,9.63Z"/><path class="cls-7" d="M10.36,10.71a.48.48,0,0,1,.49.56.47.47,0,0,1-.53.47.49.49,0,0,1-.51-.5A.5.5,0,0,1,10.36,10.71Z"/><path class="cls-5" d="M12.47,11.2c0,.32-.16.52-.47.54a.49.49,0,0,1-.57-.5.48.48,0,0,1,.48-.53A.49.49,0,0,1,12.47,11.2Z"/><path class="cls-5" d="M13,14.43a.51.51,0,0,1-.55.52.52.52,0,1,1,.55-.52Z"/><path class="cls-5" d="M9.22,15.52c.32,0,.54.15.56.45a.49.49,0,0,1-.49.58A.48.48,0,0,1,8.75,16,.47.47,0,0,1,9.22,15.52Z"/><path class="cls-5" d="M8.84,19.35c-.32-.06-.54-.23-.52-.56a.49.49,0,0,1,.53-.49.48.48,0,0,1,.51.55C9.35,19.17,9.14,19.31,8.84,19.35Z"/><path class="cls-5" d="M10.36,20.36c-.32,0-.54-.19-.55-.52a.47.47,0,0,1,.49-.51.46.46,0,0,1,.55.45A.51.51,0,0,1,10.36,20.36Z"/><path class="cls-9" d="M12.47,20.36a.52.52,0,0,1-1,0,.52.52,0,1,1,1,0Z"/><path class="cls-8" d="M8.18,16.58a.52.52,0,1,1,0,1,.52.52,0,1,1,0-1Z"/><path class="cls-5" d="M10.85,21.84a.5.5,0,0,1-.47.58.5.5,0,0,1-.57-.52.52.52,0,0,1,1-.06Z"/></g></g></g></svg>