<svg xmlns="http://www.w3.org/2000/svg" viewBox="0 0 36.89 32.22"><defs><style>.cls-1{fill:#efa55f;}.cls-2{fill:#e18540;}.cls-3{fill:#e18541;}</style></defs><g id="Capa_2" data-name="Capa 2"><g id="START11"><g id="Carbs"><path class="cls-1" d="M2.3,28.7A9.91,9.91,0,0,1,.06,21.08,14.37,14.37,0,0,1,4,12.66a32.88,32.88,0,0,0,4.5-6.74,9.75,9.75,0,0,1,2.15-3,6.61,6.61,0,0,1,2.26.17,2.92,2.92,0,0,0,.49.12c.21,0,.4,0,.47-.23s-.1-.35-.27-.43a5.3,5.3,0,0,0-1-.27c-.28,0-.58,0-.74-.34a9.89,9.89,0,0,1,12.24.42c.31.68.69,1.31,1,2a11,11,0,0,1,.48,5.25,3.58,3.58,0,0,1-2.52,3,1.2,1.2,0,0,1-1.22-.16,3.85,3.85,0,0,0-1.06-.61c-.16-.05-.33-.09-.46.08s-.05.26,0,.4c.3.66.26.74-.45.78a12.1,12.1,0,0,0-7.29,2.85,8.73,8.73,0,0,0-2.62,10,8.35,8.35,0,0,1,.32.88,2.65,2.65,0,0,1-3,3.38A11.14,11.14,0,0,1,2.3,28.7Z"/><path class="cls-1" d="M27.93,12.71a7,7,0,0,1,4.56.64,4.91,4.91,0,0,1,1.66,1.08,7.94,7.94,0,0,1,.9,5.68A7.32,7.32,0,0,1,33,24a39,39,0,0,1-4.29,4,13.43,13.43,0,0,1-3.59,1.8c-.76.25-.86.17-1-.61,0,0,0-.1,0-.15-.07-.26-.05-.67-.43-.62s-.31.45-.25.71c.25,1-.16,1.21-.93,1.29a14,14,0,0,1-9-1.85,6.59,6.59,0,0,1-3.16-6.72,8.34,8.34,0,0,1,1.24-3.35c.57-.87,1.08-.94,1.89-.29a2.06,2.06,0,0,1,.67.92c.07.2.16.45.44.37s.27-.37.21-.61a2,2,0,0,0-.71-1.14c-.15-.13-.32-.22-.47-.33-.52-.38-.54-.6-.05-1A10.74,10.74,0,0,1,17,14.64a12.18,12.18,0,0,1,3-.52A23.89,23.89,0,0,0,26,13a1.91,1.91,0,0,1,2,.3,4.58,4.58,0,0,1,1.63,2c.07.22.16.54.46.44s.21-.4.17-.63a2.81,2.81,0,0,0-1.91-2.11A.68.68,0,0,1,27.93,12.71Z"/><path class="cls-2" d="M27.93,12.71a2.8,2.8,0,0,1,2.6,2.66c0,.26,0,.56-.32.63a.51.51,0,0,1-.66-.41,4.17,4.17,0,0,0-2-2.4,1,1,0,0,0-1-.15A24.25,24.25,0,0,1,21,14.26a17.4,17.4,0,0,0-4.42.74,12,12,0,0,0-3,1.68c-.32.24-.27.39.07.55a2.48,2.48,0,0,1,1.43,1.69c.12.44,0,.82-.43.92s-.62-.18-.68-.63A1.94,1.94,0,0,0,12.51,18c-.25,0-.32.12-.44.27a7.57,7.57,0,0,0-.35,8.67,5.59,5.59,0,0,0,2.07,1.63,13.68,13.68,0,0,0,6,1.78,22.71,22.71,0,0,0,3-.11c.49,0,.67-.27.51-.77a2.83,2.83,0,0,1-.08-.78c0-.26.07-.48.37-.51s.54,0,.63.34a1.72,1.72,0,0,1,.13.62c-.1.81.29.69.83.51a13.06,13.06,0,0,0,5.08-3.13,36.06,36.06,0,0,0,3.11-3.2,7.63,7.63,0,0,0,.81-8.43c-.07-.15-.21-.28,0-.42A7.64,7.64,0,0,1,35.25,25a22.68,22.68,0,0,1-4.68,4.55,13.56,13.56,0,0,1-13.44,1.54,1.48,1.48,0,0,0-1.15,0,14.86,14.86,0,0,1-8.81.77A9.12,9.12,0,0,1,2.3,28.7c.22-.25.41,0,.56.08A10,10,0,0,0,7.46,30a2.43,2.43,0,0,0,2.4-3.56,9.31,9.31,0,0,1-.8-4,8.76,8.76,0,0,1,3.15-6.51,11.63,11.63,0,0,1,5.64-2.8,11.48,11.48,0,0,1,2.47-.23c.1-.33-.18-.25-.28-.36a.59.59,0,0,1-.06-.78.44.44,0,0,1,.67-.18,5.6,5.6,0,0,1,1.17.68,1,1,0,0,0,1.24.13A3.69,3.69,0,0,0,25.36,9a10.87,10.87,0,0,0-1.31-6.22c-.08-.13-.2-.29,0-.44a9.84,9.84,0,0,1,3.59,7.32c.05.83,0,1.68,0,2.51C27.67,12.38,27.53,12.69,27.93,12.71Z"/><path class="cls-3" d="M11.81,1.92l1.8.39c.38.08.68.31.56.68a.62.62,0,0,1-.91.4,5,5,0,0,0-2-.32c-.21,0-.44,0-.59-.17A3.38,3.38,0,0,1,11.81,1.92Z"/><path class="cls-2" d="M4.83,15.74A3.84,3.84,0,0,1,8,18c.13.4.17.8-.27,1s-.6-.21-.72-.51A2.59,2.59,0,0,0,5.19,17c-.19-.05-.37-.13-.55-.18s-.64-.22-.56-.61S4.52,15.71,4.83,15.74Z"/><path class="cls-2" d="M11.81,10a3.89,3.89,0,0,1,2.87,1.39c.21.25.45.54.12.88s-.66.19-.92-.12a3.48,3.48,0,0,0-2.2-1.06c-.36-.07-.88-.08-.84-.6S11.39,10,11.81,10Z"/><path class="cls-2" d="M22.61,6.54a.59.59,0,0,1-.4.66c-.32.1-.5-.15-.6-.39a2.62,2.62,0,0,0-1.86-1.65.5.5,0,0,1-.44-.57.55.55,0,0,1,.53-.5C20.75,4.06,22.58,5.31,22.61,6.54Z"/><path class="cls-2" d="M25.2,19.39a.57.57,0,0,1-.52.65.51.51,0,0,1-.61-.48,2.86,2.86,0,0,0-1.58-2.08c-.29-.21-.78-.39-.49-.87s.7-.31,1.12-.06A3.94,3.94,0,0,1,25.2,19.39Z"/><path class="cls-2" d="M31.09,21.16a.73.73,0,0,1-.55.57.52.52,0,0,1-.58-.44,2.27,2.27,0,0,0-1.06-1.55.57.57,0,0,1-.11-.88c.22-.3.45-.23.74,0A3.43,3.43,0,0,1,31.09,21.16Z"/></g></g></g></svg>