<svg xmlns="http://www.w3.org/2000/svg" viewBox="0 0 33.6 31.99"><defs><style>.cls-1{fill:#e99074;}.cls-2{fill:#e57f5d;}.cls-3{fill:#e0d7db;}</style></defs><g id="Capa_2" data-name="Capa 2"><g id="START11"><g id="Proteina"><path class="cls-1" d="M26.91,11.77A6.67,6.67,0,0,1,27,16.92c-.11.29.05.51.13.74a10.2,10.2,0,0,1-.46,8.12A9.55,9.55,0,0,1,22,30.12a16.79,16.79,0,0,1-6.24,1A17.86,17.86,0,0,1,7.35,29,9.7,9.7,0,0,1,2,20.42a11.44,11.44,0,0,1,3.24-8.14,10.48,10.48,0,0,1,7.24-3.35A18.66,18.66,0,0,1,18,9.38a.94.94,0,0,0,1.25.32,6.44,6.44,0,0,1,5.28-.16A3.51,3.51,0,0,1,26.91,11.77Z"/><path class="cls-2" d="M18,9.38c-.17.22-.37.14-.59.08a14.71,14.71,0,0,0-9.15.66A8.75,8.75,0,0,0,5,12.73a11.74,11.74,0,0,0-2.71,5.5,9.59,9.59,0,0,0,4,9.94A15.72,15.72,0,0,0,13,30.68a20.87,20.87,0,0,0,8.58-.55c.14,0,.28-.17.42,0a13,13,0,0,1-4.56,1.53,19.05,19.05,0,0,1-11-1.14C3.14,29.08.79,26.75.17,23.08a10.93,10.93,0,0,1,3.1-9.67,11.4,11.4,0,0,1,2.36-2,1.7,1.7,0,0,0,.63-.8,7.64,7.64,0,0,1,7.35-4.53,6.93,6.93,0,0,1,2,.52,3.36,3.36,0,0,1,2.25,2.25Z"/><path class="cls-3" d="M17.87,8.89a6.07,6.07,0,0,0-2.25-2.25L19.21,3c.19-.19.32-.31.13-.65A1.47,1.47,0,0,1,19.57.41a1.7,1.7,0,0,1,2-.16,1.58,1.58,0,0,1,.58,1.89c0,.06,0,.12-.06.23.45.06.84-.27,1.32-.07a1.61,1.61,0,0,1,1,2.09,1.49,1.49,0,0,1-2.23.81c-.36-.21-.52-.09-.75.14Z"/><path class="cls-3" d="M26.91,11.77a6.59,6.59,0,0,0-2.37-2.23c.25,0,.39-.19.54-.34l3.15-3.15c.21-.2.35-.33.15-.7a1.61,1.61,0,0,1,.75-2.3,1.69,1.69,0,0,1,2.18,1.13c.15.42-.09.77-.17,1.21A1.68,1.68,0,0,1,33,5.62a1.52,1.52,0,0,1,.37,1.94,1.46,1.46,0,0,1-1.91.69c-.65-.33-.95-.05-1.35.36C29.07,9.68,28,10.72,26.91,11.77Z"/><path class="cls-2" d="M25.92,18.69a7.38,7.38,0,0,1-2.85,2.47,6.3,6.3,0,0,1-5.54.16,4.77,4.77,0,0,1-2.79-3.85,7,7,0,0,1,1.78-5.74c.05-.06.13-.09.29-.22-1.24,3-1.41,5.74,1.33,7.74S23.41,20.32,25.92,18.69Z"/></g></g></g></svg>