<svg xmlns="http://www.w3.org/2000/svg" viewBox="0 0 20.84 32.84"><defs><style>.cls-1{fill:#cdd043;}.cls-2{fill:#2ec870;}.cls-3{fill:#d87b17;}</style></defs><g id="Capa_2" data-name="Capa 2"><g id="START11"><g id="Fruta"><path class="cls-1" d="M10.69,6.24a6.79,6.79,0,0,1,4,1.65,5.83,5.83,0,0,1,1.95,4.88,11.35,11.35,0,0,0,1.87,6.55c.32.52.67,1,1,1.53a6.55,6.55,0,0,1-.86,8.71,12.1,12.1,0,0,1-16.92-.34,6.53,6.53,0,0,1-.87-7.84,25.67,25.67,0,0,0,2.37-4.3,11.13,11.13,0,0,0,.82-4.4A6,6,0,0,1,9.5,6.35a.91.91,0,0,0,.25-.11A.68.68,0,0,1,10.69,6.24Z"/><path class="cls-2" d="M10.42,4.15a3,3,0,0,0,.17-.37A5.09,5.09,0,0,1,15.22,0c.23,0,.51-.16.39.26a5.43,5.43,0,0,1-2.43,3.64A8.51,8.51,0,0,1,11,4.59l-.52.13C10.12,4.61,10.12,4.53,10.42,4.15Z"/><path class="cls-3" d="M10.42,4.15c.06.19-.24.39,0,.57l.24,1.52H9.75c-.11-.69-.2-1.39-.31-2.09A1.71,1.71,0,0,0,7.51,2.71c-.28,0-.68.12-.7-.3S7.2,2,7.51,2C9.05,1.88,9.92,2.53,10.42,4.15Z"/></g></g></g></svg>