<svg xmlns="http://www.w3.org/2000/svg" viewBox="0 0 34.66 28.76"><defs><style>.cls-1{fill:#51616b;}.cls-2{fill:#91c7f3;}.cls-3{fill:#76b7e4;}.cls-4{fill:#677981;}.cls-5{fill:#cce2fc;}.cls-6{fill:#f3ab45;}.cls-7{fill:#fbd070;}.cls-8{fill:#f18921;}.cls-9{fill:#fe9e34;}.cls-10{fill:#fd9e35;}</style></defs><g id="Capa_2" data-name="Capa 2"><g id="START11"><g id="Proteina"><path class="cls-1" d="M1,10.26C-.61,7.86-.21,5.63,2.15,3.84A17.09,17.09,0,0,1,8.58,1,37.34,37.34,0,0,1,20.86.16,27.07,27.07,0,0,1,30.3,2.49,11.09,11.09,0,0,1,32.74,4c2.17,1.81,2.47,3.88.92,6.22a1.76,1.76,0,0,1-.71,1A16.35,16.35,0,0,1,27.39,14a31.91,31.91,0,0,1-7.27,1.26,31.31,31.31,0,0,1-3.75.1A34.69,34.69,0,0,1,7.26,14a21.33,21.33,0,0,1-4.14-1.77c-.19-.11-.38-.24-.56-.37s-.63-.5-.95-.74A1.4,1.4,0,0,1,1,10.26Z"/><path class="cls-1" d="M33.68,18.66a3.83,3.83,0,0,1,.07,5,10.32,10.32,0,0,1-4.59,3.1,28.63,28.63,0,0,1-7.53,1.74,38.91,38.91,0,0,1-7.63.1A25.86,25.86,0,0,1,3.39,25.76,7.87,7.87,0,0,1,.86,23.63a3.83,3.83,0,0,1,.11-5c.21.16.19.4.18.62C1,21.47,2.23,22.74,4,23.7a10.92,10.92,0,0,0,3.09,1.35,31.25,31.25,0,0,0,9,1.43,39.45,39.45,0,0,0,7.83-.5,27.16,27.16,0,0,0,3.76-.93,12.19,12.19,0,0,0,4.26-2.13,3.85,3.85,0,0,0,1.64-3.33C33.49,19.28,33.41,18.93,33.68,18.66Z"/><path class="cls-2" d="M33.68,18.66c0,.06,0,.12,0,.18.32,2.47-1,4-3,5.09a12,12,0,0,1-2.93,1.24c-.28-.28-.21-.65-.21-1,0-2.68,0-5.36,0-8,0-.77,0-1.55-.05-2.33a17.14,17.14,0,0,0,4.82-2.31,9.33,9.33,0,0,0,1.35-1.24C33.67,13.06,33.67,15.86,33.68,18.66Z"/><path class="cls-3" d="M3.94,23.85C2.27,23,.76,21.5,1,19.46a5.33,5.33,0,0,0,0-.8l0-8.4a10.48,10.48,0,0,0,1.59,1.46,1.69,1.69,0,0,1,.2,1c0,2.51,0,5,0,7.52a4.53,4.53,0,0,0,.88,2.83C3.82,23.3,4.05,23.52,3.94,23.85Z"/><path class="cls-4" d="M3.08,6.3c.88-.07,1.38-.72,2-1.22a12.68,12.68,0,0,1,4.4-2,31,31,0,0,1,10.59-1A23.72,23.72,0,0,1,30,4.58a6.17,6.17,0,0,1,2.19,1.74A2,2,0,0,1,32,9c-1.57,1.73-3.67,2.43-5.81,3a33.58,33.58,0,0,1-7.93,1.06,31.78,31.78,0,0,1-9.66-1.3A11.58,11.58,0,0,1,5,10.09a5.49,5.49,0,0,1-.84-.95A.17.17,0,0,1,4.23,9a2.13,2.13,0,0,1,1-.12c.84,0,1.68,0,2.52,0a1.17,1.17,0,0,0,1.16-1A1.22,1.22,0,0,0,8,6.6a3.14,3.14,0,0,0-.91-.1c-1,0-2,0-3,0C3.7,6.47,3.35,6.58,3.08,6.3Z"/><path class="cls-5" d="M27.49,13.81c.4.11.25.43.25.67,0,3.56,0,7.13,0,10.69a23.55,23.55,0,0,1-5.31,1.23,39,39,0,0,1-7.48.25A31.71,31.71,0,0,1,7.47,25.4c-.19-.06-.38-.15-.57-.23a1,1,0,0,1-.21-.75c0-3.29,0-6.57,0-9.86,0-.29-.13-.77.46-.75a37,37,0,0,0,11.18,1.35A35.84,35.84,0,0,0,27.49,13.81Z"/><path class="cls-2" d="M7.16,13.81c-.39.11-.25.43-.25.67,0,3.56,0,7.13,0,10.69a9.49,9.49,0,0,1-3-1.32,6.78,6.78,0,0,1-1.27-2.42,3.72,3.72,0,0,1-.08-.66v-9A20.3,20.3,0,0,0,7.16,13.81Z"/><path class="cls-6" d="M3.08,6.3l1,0a.56.56,0,0,1,0,.42,2.19,2.19,0,0,0,.11,1.87c.06.12.14.25.06.4l0,.1a3.06,3.06,0,0,0-.74,0c-.76.15-1.06-.32-1.29-.91a1.91,1.91,0,0,1,.29-1.79C2.63,6.25,2.86,6.35,3.08,6.3Z"/><path class="cls-7" d="M4.2,9a2.27,2.27,0,0,1-.14-2.69c1.19,0,2.37,0,3.56,0A1.39,1.39,0,0,1,9.1,7.73,1.37,1.37,0,0,1,7.57,9.05Z"/><path class="cls-7" d="M21,21.49a9.34,9.34,0,0,1-8.17,1A2.87,2.87,0,0,0,13.59,21c.17-.8.22-.83,1-.94a9.35,9.35,0,0,1,5.78,1C20.63,21.17,20.87,21.25,21,21.49Z"/><path class="cls-6" d="M21,21.49a17.7,17.7,0,0,0-3-1.14,11.72,11.72,0,0,0-3.69-.11c-.6.08-.35.61-.58.87-.2-.17-.17-.41-.18-.64.07-.64-.36-1-.71-1.47a9.34,9.34,0,0,1,8.56,1.22c.15.1.27.26.47.27a.5.5,0,0,1,0,.49C21.48,21,21.3,21.38,21,21.49Z"/><path class="cls-8" d="M12.8,19a1.31,1.31,0,0,1,.88,1.36,1,1,0,0,1-.57.33,11,11,0,0,0-1.74.73.54.54,0,0,1-.63,0c-1-.68-1-.8,0-1.48A6,6,0,0,1,12.8,19Z"/><path class="cls-9" d="M10.74,21.47c.66-.14,1.18-.62,1.84-.76a8.28,8.28,0,0,0,1.1-.35c0,.25,0,.5,0,.75-.1.58-.21,1.16-.88,1.37A6.53,6.53,0,0,1,10.74,21.47Z"/><path class="cls-8" d="M21.83,21a.4.4,0,0,1,0-.49,6.53,6.53,0,0,1,1.52-1c.24-.12.47-.21.58.16A5.3,5.3,0,0,1,24,20.89c0,.11,0,.23-.12.25-.46.07-.81.51-1.32.35Z"/><path class="cls-10" d="M22.54,21.49c.47,0,.74-.56,1.26-.49.16,0,.11-.18.12-.29,0-.36,0-.72,0-1.08a6.85,6.85,0,0,1,0,2.12c0,.33-.24.42-.51.27A9.94,9.94,0,0,1,22.54,21.49Z"/></g></g></g></svg>