<svg xmlns="http://www.w3.org/2000/svg" viewBox="0 0 46.92 29.75"><defs><style>.cls-1{fill:#feb441;}.cls-2{fill:#fea712;}.cls-3{fill:#fece85;}.cls-4{fill:#fec165;}.cls-5{fill:#fe7c66;}.cls-6{fill:#fe6c55;}.cls-7{fill:#7c7279;}</style></defs><g id="Capa_2" data-name="Capa 2"><g id="START11"><g id="Proteina"><path class="cls-1" d="M10.16,6.93a21.75,21.75,0,0,1,4.68-1.2l.81-.17a3,3,0,0,1,1.27-.38A29.89,29.89,0,0,1,29.47,6.73a2.35,2.35,0,0,1,1.06.63c1.4.83,2.92,1.47,4.26,2.42a21.74,21.74,0,0,1,2.57,2c.45.43.69.44,1.06-.1a11.23,11.23,0,0,1,6.66-4.56,2.92,2.92,0,0,1,.4-.1c.45,0,1-.27,1.29.27s-.14.83-.38,1.17a11.61,11.61,0,0,0-2.46,6.78,10.57,10.57,0,0,0,1.28,4.44c-.33.22-.64,0-1-.06a11.44,11.44,0,0,1-5.53-3.71c-.78-.9-.9-.9-1.8-.17a26.47,26.47,0,0,1-14.18,5.94,32.62,32.62,0,0,1-9.61-.53c-.43-.08-.9-.1-1.17-.54a1.2,1.2,0,0,1,.14-.87A12.36,12.36,0,0,0,10.6,7.87C10.4,7.58,10.06,7.36,10.16,6.93Z"/><path class="cls-2" d="M12,20.6a22.49,22.49,0,0,0,4.3.81,24.88,24.88,0,0,0,4.4.16,26.25,26.25,0,0,0,10.05-2.31A25.54,25.54,0,0,0,37,15.33c.83-.71,1.06-.64,1.73.21a11.64,11.64,0,0,0,6.47,4.13c.49.73,1,1.48,1.48,2.21a.76.76,0,0,1,.12.92c-.23.36-.56.36-1,.29a11.27,11.27,0,0,1-7.4-4.65c-.42-.58-.63-.5-1.09-.09a25.78,25.78,0,0,1-13.45,6.24A1.5,1.5,0,0,1,23,25a28.87,28.87,0,0,1-6.57,0A3,3,0,0,1,15,24.61a37.4,37.4,0,0,1-4.66-1.18.32.32,0,0,1,0-.45,15.21,15.21,0,0,1,1.56-2.35Z"/><path class="cls-3" d="M10.16,6.93a12.57,12.57,0,0,1,3,9.46A13.22,13.22,0,0,1,12,20.6h0a.66.66,0,0,1-.7.09A20.14,20.14,0,0,1,1.25,14.33a1.48,1.48,0,0,1-.42-.7A17.58,17.58,0,0,1,10.16,6.93Z"/><path class="cls-4" d="M.83,13.63c.75.77,1.46,1.58,2.25,2.3A19.75,19.75,0,0,0,12,20.59c-.42,1-1.24,1.81-1.64,2.84A18.33,18.33,0,0,1,.73,16.6C-.27,15.2-.24,15,.83,13.63Z"/><path class="cls-5" d="M17.84,3.73A18.76,18.76,0,0,1,25.57.05a1.3,1.3,0,0,1,1.55.63,30.35,30.35,0,0,1,2.73,4.84A1,1,0,0,1,29,5.45,26.48,26.48,0,0,0,19.18,4,1.72,1.72,0,0,1,17.84,3.73Z"/><path class="cls-6" d="M17.84,3.73A28.9,28.9,0,0,1,28.53,5l1.32.49a5.05,5.05,0,0,1,.68,1.84,43.77,43.77,0,0,0-5.4-1.54,30.49,30.49,0,0,0-8.74-.27c-.24,0-.49,0-.74,0A9.65,9.65,0,0,1,17.84,3.73Z"/><path class="cls-5" d="M24.26,26.23c.26.87.55,1.73.76,2.62.15.64-.24,1-.85.88a13,13,0,0,1-7.45-3.3,1.45,1.45,0,0,1,1.33-.25,21.23,21.23,0,0,0,5.1-.13A1.39,1.39,0,0,1,24.26,26.23Z"/><path class="cls-6" d="M24.26,26.23c-1.56.09-3.1.36-4.67.36a23,23,0,0,0-2.87-.16A6,6,0,0,1,15,24.61a49.77,49.77,0,0,0,5.6.29c1.1-.06,2.19-.2,3.28-.31C24,25.14,24.15,25.68,24.26,26.23Z"/><path class="cls-7" d="M7.28,16.42A1.3,1.3,0,0,1,6,15.13a1.26,1.26,0,0,1,1.31-1.21,1.16,1.16,0,0,1,1.2,1.21A1.28,1.28,0,0,1,7.28,16.42Z"/></g></g></g></svg>