<svg xmlns="http://www.w3.org/2000/svg" viewBox="0 0 32.55 32.55"><defs><style>.cls-1{fill:#c72e25;}.cls-2{fill:#c01107;}.cls-3{fill:#ae0a00;}.cls-4{fill:#7d1a00;}.cls-5{fill:#dd7f79;}.cls-6{fill:#d1514a;}</style></defs><g id="Capa_2" data-name="Capa 2"><g id="START11"><g id="Verduras"><path class="cls-1" d="M18.22,32.2a3.62,3.62,0,0,1-1.95.33,1,1,0,0,1-.19-.72c0-.48,0-1,0-1.46a.65.65,0,0,0-.51-.7,4,4,0,0,1-2.2-2A12.27,12.27,0,0,1,12,23.25,30,30,0,0,1,12.35,12a10.73,10.73,0,0,1,.54-1.63c.11-.26.2-.56.51-.69.3.14.17.4.16.61a7.22,7.22,0,0,0,.13,2.27,3.29,3.29,0,0,0,.82,1.55A1.37,1.37,0,0,0,16.7,14a4.67,4.67,0,0,0,.85-3,4.63,4.63,0,0,0-.37-1.79,2.78,2.78,0,0,0-1.1-1.36c-.16-.09-.44-.15-.29-.45.33-.29.26-.69.29-1.06.05-.61-.17-1.25.19-1.84a1,1,0,0,1,1.14.06c.55.24,1.2.21,1.7.61,2,1.62,2.54,3.93,2.91,6.28A46.65,46.65,0,0,1,22.21,21a31.29,31.29,0,0,1-.88,6.08A13.48,13.48,0,0,1,20.72,29,6.1,6.1,0,0,1,18.22,32.2Z"/><path class="cls-1" d="M12.71,31.27A7.32,7.32,0,0,0,10.9,31a5.55,5.55,0,0,1-4.22-2.24,3.63,3.63,0,0,1-.76-2.12,9,9,0,0,0-2-5.48,37.37,37.37,0,0,1-2.81-3.84A8.27,8.27,0,0,1,2.72,7.11,5.27,5.27,0,0,1,9,6.83c1.19.89,1.69.78,2.7-.34a4.74,4.74,0,0,1,2.82-1.81c.07.28-.16.32-.32.4a8.06,8.06,0,0,0-3.85,4.7A21.6,21.6,0,0,0,9.2,15.36a33.87,33.87,0,0,0-.09,4.83,20.11,20.11,0,0,0,1.78,8.32,8.49,8.49,0,0,0,1.45,2.07C12.52,30.77,12.77,30.94,12.71,31.27Z"/><path class="cls-2" d="M18.22,32.2s-.11-.1,0-.15c1.71-1.1,2.36-2.89,2.87-4.7a34.62,34.62,0,0,0,1-6.17c.15-1.6.14-3.21.15-4.8A20.61,20.61,0,0,0,20.83,7.7a5.37,5.37,0,0,0-1.75-2.43c-.09-.06,0-.15,0-.2A4.4,4.4,0,0,1,20.77,6.4c1.14,1.25,1.43,1.3,2.86.45a4.78,4.78,0,0,1,1.18,1.46A1,1,0,0,0,26,8.79a2.53,2.53,0,0,1,2.76,1.15,5.44,5.44,0,0,1,.51,5.6,14.84,14.84,0,0,1-2,3,15,15,0,0,0-3,5.33c-.17.64-.23,1.29-.34,1.94-.07.45.11.62.55.61h1.46c.25,0,.51,0,.71.18a4.53,4.53,0,0,1-3.09,4,5.71,5.71,0,0,1-2.15.45,3.32,3.32,0,0,0-2.23.72A2,2,0,0,1,18.22,32.2Z"/><path class="cls-2" d="M12.71,31.27c-2.27-2.15-3.07-5-3.53-7.93a34.91,34.91,0,0,1-.25-7.08,22.64,22.64,0,0,1,.89-5.59c.79-2.59,2.09-4.78,4.67-6l.87-.23a.68.68,0,0,1,.92,0c0,.79,0,1.59,0,2.38,0,.4-.12.59-.53.55A2.74,2.74,0,0,0,13.89,9a1,1,0,0,1-.43.67,10.21,10.21,0,0,0-1.24,3.88,26.61,26.61,0,0,0-.38,6.11c.15,2.69.33,5.39,1.66,7.84a3.47,3.47,0,0,0,2.36,2c.34.06.42.28.42.6,0,.8,0,1.61,0,2.41A5,5,0,0,1,12.71,31.27Z"/><path class="cls-3" d="M26.59,26.58c-.78,0-1.57,0-2.35,0-.49,0-.64-.15-.6-.63a12.75,12.75,0,0,1,2.59-6.49,24.63,24.63,0,0,0,3-4.24c.89-2,.12-5.06-1.43-6a2.35,2.35,0,0,0-2.12-.23c-.24.1-.42.14-.59-.11a24.14,24.14,0,0,1-1.43-2.09A5.18,5.18,0,0,1,30.71,8a8.44,8.44,0,0,1,.36,10c-.52.77-1.08,1.52-1.67,2.23A10.55,10.55,0,0,0,26.59,26.58Z"/><path class="cls-4" d="M16.28,4.47l-.92,0C16.27,2.29,17.56.54,20,.06c1.16-.22,1.9.18,2.09,1.09A1.4,1.4,0,0,1,20.78,3a4.68,4.68,0,0,0-3.37,1.51Z"/><path class="cls-5" d="M13.46,9.67a6.67,6.67,0,0,1,.64-1.38,1.86,1.86,0,0,1,1.65-.89,2.89,2.89,0,0,1,1.84,2.38,5.28,5.28,0,0,1-.49,3.91c-.85,1.48-2.31,1.46-3.16,0a5.7,5.7,0,0,1-.54-3.56Z"/><path class="cls-6" d="M1.53,14.08a8.16,8.16,0,0,1,3.3-6.26,1.51,1.51,0,0,1,1.65-.3,1.72,1.72,0,0,1,.89,1.64,8.09,8.09,0,0,1-3.21,6.63,1.56,1.56,0,0,1-1.87.3,1.7,1.7,0,0,1-.76-1.69Z"/><path class="cls-5" d="M5.86,10.13a1.78,1.78,0,0,1-1.76,1.7,1.17,1.17,0,0,1-1.16-1.17A1.84,1.84,0,0,1,4.75,8.91C5.5,8.92,5.86,9.32,5.86,10.13Z"/></g></g></g></svg>