<svg xmlns="http://www.w3.org/2000/svg" viewBox="0 0 22.47 33.08"><defs><style>.cls-1{fill:#ec9c0f;}.cls-2{fill:#4eaa18;}.cls-3{fill:#fec750;}.cls-4{fill:#5ec52e;}.cls-5{fill:#5ec52f;}.cls-6{fill:#f8b328;}.cls-7{fill:#f8b429;}.cls-8{fill:#fec74f;}.cls-9{fill:#4faa1a;}.cls-10{fill:#f3b52b;}</style></defs><g id="Capa_2" data-name="Capa 2"><g id="START11"><g id="Fruta"><path class="cls-1" d="M2.46,21.83a7.3,7.3,0,0,1,0-1.55,7.33,7.33,0,0,1,1.22-1.39c.67-.65,1.32-1.33,2-2,.25-.23.26-.38,0-.62-.56-.52-1.09-1.08-1.64-1.61-.2-.21-.42-.41-.61-.63s-.34-.34-.19-.61a2.27,2.27,0,0,1,.4-.77c.5,0,.65.47,1,.7.63.64,1.28,1.27,1.9,1.92.27.27.48.3.75,0,.92-.94,1.85-1.86,2.78-2.78.28-.27.26-.49,0-.76-.71-.69-1.4-1.39-2.1-2.09-.14-.19-.39-.31-.32-.61l.09-.12a1,1,0,0,1,.87-.37A1.39,1.39,0,0,1,9.13,9c.59.61,1.21,1.2,1.79,1.82.33.35.58.32.9,0,.69-.72,1.41-1.42,2.11-2.14a.84.84,0,0,1,.54.07.43.43,0,0,1,.27.24l.23.15c.19.32-.09.47-.25.63-.65.68-1.32,1.35-2,2-.32.31-.32.54,0,.85q1.38,1.35,2.73,2.73c.34.35.58.31.89,0,.65-.69,1.33-1.35,2-2,.17-.17.32-.43.63-.35a2.58,2.58,0,0,1,.41.89c.06.31-.18.46-.35.63-.54.56-1.1,1.1-1.64,1.65s-.56.57,0,1.11c.7.7,1.39,1.41,2.1,2.1A2.9,2.9,0,0,1,20,20a13.35,13.35,0,0,1,0,2.19,3,3,0,0,1-.81,1L17.5,24.89c-.68.68-.68.68,0,1.39.39.39.79.78,1.18,1.18.16.17.36.31.41.57a2.53,2.53,0,0,1-.43.89c-.32.19-.47-.09-.64-.25-.59-.56-1.17-1.14-1.73-1.73-.3-.32-.54-.35-.86,0q-1.35,1.38-2.73,2.73c-.28.28-.27.48,0,.75.47.44.92.9,1.36,1.37.17.17.44.31.35.63a1.67,1.67,0,0,1-.75.28c-.34.14-.57,0-.8-.25l-1.09-1.08c-.12-.12-.23-.26-.43-.23a5.93,5.93,0,0,0-1.27,1.23c0,.17.11.21.2.3s.25.16.11.29a.32.32,0,0,1-.36,0,4.23,4.23,0,0,1-1.78-.42c-.07-.29.18-.42.32-.6.49-.49,1-1,1.46-1.46s.32-.57,0-.89c-.9-.87-1.78-1.75-2.65-2.65-.34-.35-.61-.39-1,0s-1,1-1.45,1.47c-.36.22-.51.82-1.1.67a2.21,2.21,0,0,1-.42-.73c0-.57.54-.68.79-1A7.1,7.1,0,0,1,5.4,26.16c.63-.49.63-.59.09-1.14L3.81,23.34A8.79,8.79,0,0,1,2.46,21.83Z"/><path class="cls-2" d="M14.44,8.81,14,8.7c-.3.15-.58,0-.87,0a8.31,8.31,0,0,0-1.72-.19,15.73,15.73,0,0,0-1.81.07C8.62,8,7.77,7.27,6.82,6.71a1,1,0,0,1-.26-.36A26.14,26.14,0,0,0,.4,3.93C.21,3.88,0,3.84,0,3.59s.19-.3.38-.36A3,3,0,0,1,1.3,3,40.51,40.51,0,0,1,5.81,4.51,25.87,25.87,0,0,1,9.54,6.6a14.62,14.62,0,0,0-1-1.88,1.52,1.52,0,0,1-.35-.81A20,20,0,0,0,5.37.7C5.2.55,4.91.42,5.08.13s.39-.11.59,0,.47,0,.67.19A16.17,16.17,0,0,1,10.4,5c.18.29.34.59.55,1a1.66,1.66,0,0,1,.41-1.26A6.63,6.63,0,0,1,17,0c.18,0,.41-.08.4.24a3.65,3.65,0,0,1-.68.35,6,6,0,0,0-4.18,5.63c0,.11,0,.21,0,.33A22,22,0,0,1,13.7,4.51a1.67,1.67,0,0,1,.77-.76c.37,0,.61-.25.92-.38a7,7,0,0,1,2.53-.66.81.81,0,0,1,.7.09,8.28,8.28,0,0,0-2.94,1.54,10.55,10.55,0,0,0-1.66,3,3,3,0,0,1,2.8-.76,2.37,2.37,0,0,1,1,.16c.06.22-.09.33-.24.41-.87.5-1.74,1-2.59,1.56A.53.53,0,0,1,14.44,8.81Z"/><path class="cls-3" d="M19,12.93c-.95.8-1.79,1.72-2.66,2.61-.35.36-.54.33-.87,0-1-1-2-2-3-3-.32-.31-.35-.5,0-.82.73-.69,1.44-1.42,2.15-2.14.14-.14.35-.26.35-.51A8.65,8.65,0,0,1,19,12.93Z"/><path class="cls-3" d="M14.45,32.4c-.65-.68-1.31-1.36-2-2-.23-.24-.33-.38,0-.67,1.05-1,2.09-2.05,3.1-3.1.3-.31.48-.22.73,0,.62.65,1.27,1.28,1.91,1.92.15.14.27.35.52.35A8.49,8.49,0,0,1,14.45,32.4Z"/><path class="cls-4" d="M16.82,6.58c-1.22-.21-2.11.5-3.07,1.1a10,10,0,0,1,1.6-3.21,5.21,5.21,0,0,1,3.28-1.68l-.71-.08a8.89,8.89,0,0,1,4.27.56c.14,0,.28.13.28.31s-.27.31-.47.36a23.45,23.45,0,0,0-5.54,2.14L16,6.33s0,.07-.07.12Z"/><path class="cls-4" d="M8.19,3.91A18.15,18.15,0,0,1,10,7L7.82,5.73A22.42,22.42,0,0,0,2,3.38c-.28-.07-.55-.12-.7-.39a8.08,8.08,0,0,1,6.26.64C7.77,3.74,7.93,3.93,8.19,3.91Z"/><path class="cls-3" d="M20,20l-3.16-3.1c-.3-.29-.08-.44.1-.63l2.43-2.47A6.48,6.48,0,0,1,20,16.48C20,17.66,20,18.84,20,20Z"/><path class="cls-4" d="M6.56,6.35a18.18,18.18,0,0,1,2.87,2c-.16.36-.46.35-.77.28l-.94.27a18.67,18.67,0,0,0-5.38.27c-.12-.26.08-.4.22-.55A5.94,5.94,0,0,1,5.68,6.72c.21,0,0-.08,0-.14C5.93,6.38,6.32,6.68,6.56,6.35Z"/><path class="cls-3" d="M19.12,28c-.84-.67-1.52-1.5-2.3-2.23-.19-.18-.14-.33,0-.49L20,22.21a12.48,12.48,0,0,1-.51,5.08A1.85,1.85,0,0,1,19.12,28Z"/><path class="cls-5" d="M14.44,8.81l3.37-2.07a7.06,7.06,0,0,1,3.5,2.17c.13.14.33.27.21.49s-.35.09-.53,0a17.1,17.1,0,0,0-6.25-.51Z"/><path class="cls-4" d="M14.47,3.75a17.84,17.84,0,0,0-2,3.31C11.35,4.9,14.36.81,17.42.27c0,.3-.3.4-.47.58A14.31,14.31,0,0,0,14.47,3.75Z"/><path class="cls-6" d="M3.24,13.44c.11.54.68.71.9,1.16a1,1,0,0,1,0,.57,13.28,13.28,0,0,0-.21,3,1.4,1.4,0,0,1-.21.87,7.5,7.5,0,0,1-1.29,1.29c0-2.21-.27-4.44.63-6.56C3.13,13.63,3.19,13.54,3.24,13.44Z"/><path class="cls-6" d="M2.46,21.83a9.47,9.47,0,0,1,1.42,1.41,24.8,24.8,0,0,0,.51,4.13c-.26.36-.72.53-.92.95a7.23,7.23,0,0,1-1-3.47C2.43,23.84,2.46,22.83,2.46,21.83Z"/><path class="cls-4" d="M11.36,4.66a4.17,4.17,0,0,0-.26,1.58c-.33-.06-.34-.35-.44-.53a19.78,19.78,0,0,0-4-5A3.73,3.73,0,0,1,6.34.27a6.31,6.31,0,0,1,4.67,4C11.06,4.39,10.9,4.85,11.36,4.66Z"/><path class="cls-7" d="M7.63,9.06,8,9.55c-.3.51-.86.74-1.26,1.15A11.46,11.46,0,0,0,4.94,13c-.1.18-.18.4-.42.45l-.88-.77A8.15,8.15,0,0,1,7.63,9.06Z"/><path class="cls-7" d="M8.66,32l-.38.49a8.34,8.34,0,0,1-4.39-3.47c.48-.07.63-.58,1-.77a11.89,11.89,0,0,0,2,2.48C7.44,31.26,8.14,31.52,8.66,32Z"/><path class="cls-8" d="M10.06,32.94c.07,0,.14,0,.19,0s-.05-.15-.07-.16c-.58-.12-.45-.35-.12-.65a12.42,12.42,0,0,0,1-1c.28-.34.49-.37.8,0s.81.83,1.22,1.24a.78.78,0,0,0,.66.33A7.14,7.14,0,0,1,10.06,32.94Z"/><path class="cls-9" d="M5.66,6.58l.48.06a15.3,15.3,0,0,0-1.42.59,7,7,0,0,0-1.34.86,4.27,4.27,0,0,0-1,1.12l-1,.28c-.15,0-.3.09-.41-.06s0-.28.08-.4A6.85,6.85,0,0,1,5.66,6.58Z"/><path class="cls-3" d="M11.44,13l.31.27c1,1,2,2,3.05,3.05.31.3.29.48,0,.77q-1.52,1.47-3,3c-.26.26-.41.34-.71,0C10.06,19,9,18,8,16.93c-.2-.2-.35-.33-.06-.61,1.08-1,2.13-2.11,3.19-3.17A.43.43,0,0,1,11.44,13Z"/><path class="cls-3" d="M11.4,29.28,11.1,29c-1-1-2.09-2.1-3.15-3.13-.25-.25-.29-.4,0-.67,1.08-1,2.06-2.12,3.18-3.09.27-.22.4-.2.62,0,1,1,2.06,2.07,3.09,3.1.21.2.34.36.06.62-1.09,1.07-2.16,2.16-3.23,3.23Z"/><path class="cls-3" d="M3.76,21.06a1,1,0,0,1,.36-1q1.26-1.2,2.46-2.46c.26-.26.4-.27.66,0,1,1.06,2.08,2.11,3.15,3.14.31.3.24.45,0,.71q-1.53,1.48-3,3c-.29.3-.48.3-.77,0C5.78,23.65,5,22.83,4.12,22A1,1,0,0,1,3.76,21.06Z"/><path class="cls-3" d="M19.58,21.11c-.09.11-.16.21-.25.3Q17.76,23,16.19,24.55c-.24.25-.39.24-.63,0-1-1.06-2.08-2.11-3.14-3.14-.26-.26-.2-.4,0-.62,1.05-1,2.07-2.06,3.11-3.09.17-.18.32-.35.58-.09l3.28,3.29C19.46,21,19.51,21,19.58,21.11Z"/><path class="cls-3" d="M4.52,13.44A9.32,9.32,0,0,1,8,9.55c.78.77,1.56,1.54,2.35,2.3.26.25.18.41,0,.63Q8.75,14,7.19,15.62c-.17.18-.3.27-.52,0C6,14.91,5.24,14.18,4.52,13.44Z"/><path class="cls-3" d="M8.66,32A7.56,7.56,0,0,1,5,28.65a1.11,1.11,0,0,1-.07-.37c.55-.57,1.11-1.13,1.66-1.71.25-.27.45-.25.7,0,1.05,1.07,2.12,2.14,3.19,3.19.2.2.21.33,0,.52C9.85,30.86,9.26,31.45,8.66,32Z"/><path class="cls-3" d="M11.37,8.29A7.14,7.14,0,0,1,14,8.7a23.42,23.42,0,0,1-2.42,2.56c-.17.18-.31,0-.44-.09L9,9.05c.25-.61.88-.44,1.34-.62A7.61,7.61,0,0,1,11.37,8.29Z"/><path class="cls-8" d="M3.75,19a13.26,13.26,0,0,1,.39-4.39c.61.6,1.22,1.2,1.85,1.78.2.19.14.31,0,.47Z"/><path class="cls-8" d="M4.39,27.37a6.67,6.67,0,0,1-.51-4.13c.7.69,1.4,1.38,2.11,2.06.23.22.17.38,0,.57A13.08,13.08,0,0,0,4.39,27.37Z"/><path class="cls-10" d="M11.37,8.29A12.69,12.69,0,0,0,9,9.05a.82.82,0,0,1-.38-.38l.77-.28A11.42,11.42,0,0,1,11.37,8.29Z"/></g></g></g></svg>