<svg xmlns="http://www.w3.org/2000/svg" viewBox="0 0 27.08 30.6"><defs><style>.cls-1{fill:#dc9155;}.cls-2{fill:#db8744;}.cls-3{fill:#e0e5e8;}.cls-4{fill:#d5d6db;}.cls-5{fill:#db9862;}.cls-6{fill:#da9e6d;}</style></defs><g id="Capa_2" data-name="Capa 2"><g id="START11"><g id="Proteina"><path class="cls-1" d="M.7,26.26a8.4,8.4,0,0,1-.38-5.67,12.18,12.18,0,0,1,8.82-9.24,17.49,17.49,0,0,0,8.6-5.27,1.82,1.82,0,0,1,1,1.38,5.69,5.69,0,0,1-.07,2.69A42.93,42.93,0,0,1,17.38,15a23.57,23.57,0,0,0-.91,5.26,9.53,9.53,0,0,1-8.21,8.64,8.85,8.85,0,0,1-7-2.29A1.61,1.61,0,0,0,.7,26.26Z"/><path class="cls-2" d="M.7,26.26c.26-.34.41,0,.5.13a8.71,8.71,0,0,0,1.41,1.09,8.24,8.24,0,0,0,4.5,1.35,8.79,8.79,0,0,0,7.35-3.75A8.86,8.86,0,0,0,16.32,20a28.72,28.72,0,0,1,1.51-7.1A23.75,23.75,0,0,0,18.7,9a3.26,3.26,0,0,0-1-2.91c.22-.4.51-.56,1-.32a1.36,1.36,0,0,1,.64.38c.65.58,1.38,1.08,2,1.67a2.25,2.25,0,0,1,.71.73c.27.29.18.56,0,.83a16.13,16.13,0,0,0-3.29,8c-.13.91-.13,1.83-.25,2.74a12.56,12.56,0,0,1-9,10.19,7.26,7.26,0,0,1-8.61-3.6C.8,26.57.76,26.41.7,26.26Z"/><path class="cls-3" d="M21.32,7.91,18.69,5.76A3.29,3.29,0,0,0,19.29,3a2.45,2.45,0,0,1,2.42-3,2.3,2.3,0,0,1,2.05,1.36,2,2,0,0,0,1.47,1.21,1.74,1.74,0,0,1,1.07.57,2.58,2.58,0,0,1-1.08,3.53,3,3,0,0,1-1.3.3,3.54,3.54,0,0,0-2,.72A.74.74,0,0,1,21.32,7.91Z"/><path class="cls-4" d="M21.32,7.91a5,5,0,0,1,3.16-1.18,2.37,2.37,0,0,0,1.94-2.84c-.07-.23-.29-.47-.12-.75a2.45,2.45,0,0,1,.63,2.62,2.36,2.36,0,0,1-2.11,1.51,4.35,4.35,0,0,0-2.24.67.93.93,0,0,0-.51.6Z"/><path class="cls-5" d="M8,25.69c-2.74.14-5.06-2.17-5.53-4.86a6.27,6.27,0,0,1,3-6.28,5.44,5.44,0,0,1,6.21.81,5.92,5.92,0,0,1,1.91,5,5.75,5.75,0,0,1-4.68,5.31A4.1,4.1,0,0,1,8,25.69Z"/><path class="cls-6" d="M9.82,18.39A2.49,2.49,0,0,1,7.37,21a2.61,2.61,0,0,1-2.53-2.65,2.66,2.66,0,0,1,2.52-2.66A2.49,2.49,0,0,1,9.82,18.39Z"/></g></g></g></svg>