<svg xmlns="http://www.w3.org/2000/svg" viewBox="0 0 30.8 31.52"><defs><style>.cls-1{fill:#fadf8a;}.cls-2{fill:#6fd6a2;}.cls-3{fill:#a5c7f7;}.cls-4{fill:#eeecee;}.cls-5{fill:#f8d076;}.cls-6{fill:#3ec2a3;}.cls-7{fill:#8ab5f6;}.cls-8{fill:#d6cfd5;}</style></defs><g id="Capa_2" data-name="Capa 2"><g id="START11"><g id="Proteina"><path class="cls-1" d="M.05,23.73c0-.16,0-.32,0-.49V11c0-.16,0-.33.06-.47s.53-.13.79-.13H20a.71.71,0,0,1,.43.11.75.75,0,0,1,.13.54q0,3.14,0,6.27a1.18,1.18,0,0,1-.07.45c-.16.24-.36.09-.54,0a3.38,3.38,0,0,0-2.13-.13.39.39,0,0,1-.26,0,2.84,2.84,0,0,0-2.36.31,3.27,3.27,0,0,0-1.3,1.43c-.47,1-1,1.92-1.45,2.89a.82.82,0,0,1-.66.54.58.58,0,0,0-.54.61c0,.17,0,.33-.23.4a1.78,1.78,0,0,1-.61.05q-4.84,0-9.69,0A1,1,0,0,1,.05,23.73Z"/><path class="cls-2" d="M20.44,10.51H.08A10.27,10.27,0,0,1,0,8.58,5.09,5.09,0,0,1,3.94,3.43a.75.75,0,0,1,.54-.12c4,0,7.92,0,11.87,0,.15,0,.3,0,.45,0a5.12,5.12,0,0,1,3.7,4,11.26,11.26,0,0,1,.07,2.17c0,.82-.05.77.79.77s.84.07.85-.87c0-.37,0-.74,0-1.11,0-.16,0-.33.13-.45a16.53,16.53,0,0,1,.05,2.63.27.27,0,0,1-.24.12A3.81,3.81,0,0,1,20.44,10.51Z"/><path class="cls-3" d="M18.32,31.51a8,8,0,0,1-2.39-.45,1.81,1.81,0,0,0-.64-.12H5.37a.83.83,0,0,1-.44-.05c.19-.22.45-.17.69-.17,2.59,0,5.18,0,7.77,0a15.13,15.13,0,0,1,1.67,0,3.19,3.19,0,0,1-2.12-2.83c0-1.4,0-2.81,0-4.21,0-.9.31-1.2,1.25-1.2,1.23,0,2.45,0,3.68,0s2.58,0,3.87,0c.49,0,1,0,1.46,0a.66.66,0,0,1,.45.13h5.61c.16,0,.33-.05.47.07a2.07,2.07,0,0,1-1.34.07A1.41,1.41,0,0,1,29,24a1.48,1.48,0,0,1-.76,1.3s.09,0,.06,0,0,0,0,0a1.21,1.21,0,0,1,1,.05,5.43,5.43,0,0,1-1.61,0,19.92,19.92,0,0,0-3.09,0,8.53,8.53,0,0,1-1.34.06c-.56,0-.73.2-.74.75s0,1.07,0,1.6a2.89,2.89,0,0,1-1.3,2.55,5.79,5.79,0,0,1-2.77,1.13A.62.62,0,0,0,18.32,31.51Z"/><path class="cls-2" d="M13.48,30.86H5.42l-.49,0A5,5,0,0,1,.12,26.71a12.9,12.9,0,0,1-.07-3H10.6l.57,0,.05.05a1.08,1.08,0,0,1,.07.56c0,1.13,0,2.26,0,3.39a2.78,2.78,0,0,0,1.3,2.49,6,6,0,0,0,.6.36C13.31,30.62,13.47,30.67,13.48,30.86Z"/><path class="cls-4" d="M16.42,3.44H9.79l-5.85,0a1.65,1.65,0,0,1-.57-1.58c0-.23,0-.46,0-.69A1.06,1.06,0,0,1,4.51,0H16.42a1.06,1.06,0,0,1,.86,1.17c0,.4,0,.79,0,1.19A1,1,0,0,1,16.42,3.44Z"/><path class="cls-5" d="M20.44,10.51h1.95q0,3.18,0,6.36c0,1.16,0,2.32,0,3.48-.16.06-.22-.07-.27-.17a7.81,7.81,0,0,0-1.67-2.24s0-.07,0-.11Z"/><path class="cls-6" d="M22.34,7.87c0,.72,0,1.45,0,2.17,0,.31-.1.41-.4.39s-.79,0-1.19,0c-.23,0-.31-.08-.31-.31,0-.58,0-1.15,0-1.72A5,5,0,0,0,17,3.55a1,1,0,0,1-.18-.09,2.17,2.17,0,0,1,1.64,0,5,5,0,0,1,3.81,4A3.44,3.44,0,0,1,22.34,7.87Z"/><path class="cls-7" d="M18.32,31.51c.13-.23.38-.18.58-.23a5.83,5.83,0,0,0,2.88-1.54A2.5,2.5,0,0,0,22.5,28V26c0-.33.11-.61.47-.66a4.79,4.79,0,0,1,1.73,0,.78.78,0,0,0-.31.71c0,.52,0,1,0,1.56a2.94,2.94,0,0,1-1.62,2.85A7.8,7.8,0,0,1,18.32,31.51Z"/><path class="cls-8" d="M20.44,17.82a6,6,0,0,1,1.74,2.24c.06.11.09.23.22.28a20.31,20.31,0,0,0,1.15,2.1,2,2,0,0,1,.1.21H21.76a.94.94,0,0,1-.34-.4c-.56-1-1.16-2-1.71-3a3.53,3.53,0,0,0-1.6-1.53c-.11-.05-.24-.08-.3-.19a3,3,0,0,1,2.26.1Z"/><path class="cls-8" d="M18.48,3.43l-1.64,0-.42,0a1.23,1.23,0,0,0,.74-1.37,3.11,3.11,0,0,1,0-.61A1.32,1.32,0,0,0,16.42,0h1.52a1.05,1.05,0,0,1,1.11,1.09c0,.23,0,.47,0,.7A1.72,1.72,0,0,1,18.48,3.43Z"/><path class="cls-7" d="M29.4,25.29H28.19c1-1.21,1-1.61,0-2.56h1.54a1.29,1.29,0,0,1-.12,2.56Z"/><path class="cls-4" d="M17.81,17.56A2.86,2.86,0,0,1,19.64,19c.74,1.21,1.42,2.46,2.12,3.7H14.1a.29.29,0,0,1,0-.31c.61-1.21,1.16-2.45,1.84-3.62a3.24,3.24,0,0,1,1.37-1.14.25.25,0,0,1,.24,0Z"/><path class="cls-5" d="M17.58,17.57a3.79,3.79,0,0,0-1.94,2c-.49,1-1,2.08-1.54,3.12l-.36,0c-.5.07-.64.29-.68,1a2.85,2.85,0,0,1-1.89,0v0c0-.84,0-.84.85-1,.19-.05.23-.21.31-.35.58-1.14,1.15-2.29,1.75-3.42a3.3,3.3,0,0,1,3.28-1.48A.3.3,0,0,1,17.58,17.57Z"/><path class="cls-4" d="M10.91,16.41c.53,0,1,0,1.4,0a.51.51,0,0,1,.54.29c.11.24,0,.4-.18.58-.93,1-1.89,2-2.9,2.89-.25.23-.5.3-.74,0s-.14-.49.08-.71c.61-.59,1.2-1.19,1.8-1.8.09-.08.27-.16.2-.31s-.22-.05-.34-.06h-1a.41.41,0,0,1-.47-.25.47.47,0,0,1,.13-.55l2.6-2.61c.21-.21.45-.29.68-.05a.46.46,0,0,1,0,.72L11.2,16.1Z"/><path class="cls-6" d="M11.17,23.73h1.89c0,1.23.06,2.46,0,3.69a3.27,3.27,0,0,0,2,3.25.63.63,0,0,1,.25.2H13.48a6.35,6.35,0,0,1-1.57-1.1,2.54,2.54,0,0,1-.74-1.8Z"/></g></g></g></svg>