<svg xmlns="http://www.w3.org/2000/svg" viewBox="0 0 34.1 34.28"><defs><style>.cls-1{fill:#ece9d8;}.cls-2{fill:#e5d4b8;}.cls-3{fill:#f8f6ea;}.cls-4{fill:#e8e8dc;}.cls-5{fill:#d5c5ad;}.cls-6{fill:#e1decf;}.cls-7{fill:#d5c5ac;}</style></defs><g id="Capa_2" data-name="Capa 2"><g id="START11"><g id="Bebidas"><path class="cls-1" d="M17.12,34.26c-.3.08-.52-.14-.78-.21s-.59-.25-.9-.33a.49.49,0,0,1-.42-.57.94.94,0,0,0-1.25-1,.85.85,0,0,0-.47.38c-.14.24-.3.25-.54.15L9.37,31.42,5.12,29.81a.41.41,0,0,1-.32-.37.65.65,0,0,0-1-.45.69.69,0,0,1-.73,0c-.9-.33-1.8-.68-2.7-1a.45.45,0,0,1-.35-.5C0,26.31,0,25.14,0,24a.51.51,0,0,1,.21-.5c.27-.18.2-.41,0-.57A.43.43,0,0,1,0,22.48C0,21.25,0,20,0,18.8c0-.25.06-.39.33-.42.43-.05.65-.53.67-.92a.92.92,0,0,0-.64-.94C.07,16.44,0,16.3,0,16c0-1.43,0-2.86,0-4.29,0-.19,0-.32.22-.43s.25-.41,0-.61A.57.57,0,0,1,0,10.15C0,9.33,0,8.5,0,7.68a.91.91,0,0,1,.48-1,.41.41,0,0,1,.47,0C2.76,7.36,4.59,8,6.4,8.72c1.47.58,3,1.09,4.42,1.67s3,1.12,4.51,1.72c.5.2,1,.35,1.53.56.12.06.28.07.31.25,0,5,0,9.93,0,14.89,0,.11,0,.21,0,.31,0,.73,0,1.46,0,2.18,0,1.22,0,2.44,0,3.66A.78.78,0,0,1,17.12,34.26Z"/><path class="cls-2" d="M17.12,34.26C17,34.16,17,34,17,33.9V30.31c.17-.12.35,0,.53,0a1.06,1.06,0,0,0,0-2.12c-.18,0-.36.1-.53,0V13.26a.74.74,0,0,1,.08-.44c.05-.16.2-.19.33-.24,3.9-1.47,7.79-2.95,11.69-4.41C30.56,7.63,32,7.11,33.4,6.55a.74.74,0,0,1,.66-.08c0,1,0,2,0,2.94a.49.49,0,0,1-.19.47.33.33,0,0,0,0,.54.61.61,0,0,1,.19.51q0,2,0,4c0,.21,0,.34-.27.41-.42.11-.59.46-.59,1a.84.84,0,0,0,.6.89c.23.07.26.18.26.38,0,2.36,0,4.72,0,7.08A4.72,4.72,0,0,0,34,26a8.35,8.35,0,0,1,0,1.66c0,.15,0,.29-.18.34l-1.07.34c-.12,0-.16-.16-.23-.25a1.51,1.51,0,0,0-1.88-.54,1.6,1.6,0,0,0-.93,1.73.91.91,0,0,1,0,.23l-2.46.95c-.11.05-.16,0-.24-.05-.35-.23-.53-.17-.63.22,0,.1,0,.16-.14.2a17.43,17.43,0,0,1-1.87.69c-.06-.12,0-.23,0-.34a.65.65,0,0,0-.41-.74.67.67,0,0,0-.72.32.7.7,0,0,0,.27.85c.07,0,.17.06.22.15l-4,1.54-2.4.91Z"/><path class="cls-3" d="M34.06,6.47a8.86,8.86,0,0,0-1.73.6L26,9.45,19,12.12l-1.84.7a11.79,11.79,0,0,1-1.82-.61c-.76-.26-1.51-.58-2.26-.87L7.57,9.28C5.93,8.67,4.33,8,2.68,7.44c-.61-.2-1.2-.45-1.8-.7a.56.56,0,0,0-.4,0c.16-.73.83-.8,1.37-1l2.59-1,1.08-.41a.57.57,0,0,1,.55,0,.36.36,0,0,0,.58-.22c.06-.21.19-.28.39-.36,1.34-.59,2.75-1,4.09-1.57a2.78,2.78,0,0,1,1.34-.42c.11.14,0,.24-.06.35a.64.64,0,0,0,.31.91.61.61,0,0,0,.78-.43.63.63,0,0,0-.52-.8c-.09,0-.2,0-.27-.11A8.21,8.21,0,0,1,14.46.91C15.21.63,16,.38,16.69.07a.76.76,0,0,1,.59,0l2.31.86c.26.09.51.19.58.51a.25.25,0,0,0,.38.16c.47-.24.87.06,1.28.18s.52.2.79.29a1,1,0,0,1,.74.6.9.9,0,0,0,1.21.43.88.88,0,0,1,.71,0c.69.32,1.46.48,2.13.85a1.71,1.71,0,0,0,0,2.28,1.57,1.57,0,0,0,2.7-.87.72.72,0,0,1,.1-.4l1.47.55c.13,0,.13.17.17.27s.22.4.52.24c.5-.26.89.13,1.33.26A1.48,1.48,0,0,1,34.06,6.47Z"/><path class="cls-4" d="M30.19,4.92A1.68,1.68,0,0,1,28,6.71a1.77,1.77,0,0,1-1.06-2.13c.09-.28.12-.59.49-.67l2.6,1A.57.57,0,0,0,30.19,4.92Z"/><path class="cls-5" d="M29.81,29.46c-.35-.39-.14-.81,0-1.18a1.65,1.65,0,0,1,2.83-.37,3.26,3.26,0,0,1,.18.38A28.84,28.84,0,0,1,29.81,29.46Z"/><path class="cls-4" d="M12.71,1.67a.76.76,0,0,1,.86.43.69.69,0,0,1-.09.76.74.74,0,0,1-1,.17.83.83,0,0,1-.16-1c.06-.08.15-.15.14-.26Z"/><path class="cls-5" d="M23.86,31.71a.59.59,0,0,1-.61-.49c-.06-.3-.09-.63.26-.82a.69.69,0,0,1,.82,0c.31.23.36.61.14,1.08A2.16,2.16,0,0,1,23.86,31.71Z"/><path class="cls-6" d="M6.46,22.88a1.58,1.58,0,0,1-1.65-1.72,1.59,1.59,0,0,1,1.68-1.74,1.63,1.63,0,0,1,1.65,1.72A1.61,1.61,0,0,1,6.46,22.88Z"/><path class="cls-5" d="M17,28.14a1.33,1.33,0,0,1,1.28.16,1.2,1.2,0,0,1,.29,1.46,1.12,1.12,0,0,1-1.38.6L17,30.31Z"/><path class="cls-7" d="M28.42,22.45a1.14,1.14,0,0,1-1.14,1.2,1.09,1.09,0,0,1-1.16-1.12,1.15,1.15,0,1,1,2.3-.08Z"/><path class="cls-7" d="M24.47,15.86c0,.78-.38,1.14-1.21,1.13-.64,0-1-.44-1.05-1.14a1.19,1.19,0,0,1,1.18-1.19A1,1,0,0,1,24.47,15.86Z"/><path class="cls-7" d="M30,10.84a1.07,1.07,0,0,1,1.1-1.2,1.12,1.12,0,0,1,1.15,1.21A1.12,1.12,0,0,1,31.09,12,1.07,1.07,0,0,1,30,10.84Z"/><path class="cls-7" d="M19.47,20.48a.72.72,0,0,1,.74.7.76.76,0,0,1-.74.77.88.88,0,0,1-.73-.83A.73.73,0,0,1,19.47,20.48Z"/><path class="cls-4" d="M14.85,5.62a1.62,1.62,0,0,1,1.64,1.75A1.7,1.7,0,0,1,14.8,9.1a1.66,1.66,0,0,1-1.68-1.71A1.6,1.6,0,0,1,14.85,5.62Z"/><path class="cls-4" d="M18.74,2.45a1.18,1.18,0,0,1-1.11,1.23,1.21,1.21,0,0,1-1.21-1.19,1.16,1.16,0,1,1,2.32,0Z"/><path class="cls-4" d="M9.53,6.89A1.1,1.1,0,0,1,8.36,8.08,1.21,1.21,0,0,1,7.21,6.9,1.19,1.19,0,0,1,8.44,5.69,1.13,1.13,0,0,1,9.53,6.89Z"/><path class="cls-4" d="M20.75,7.36a1,1,0,0,1,1.12-1.12A1,1,0,0,1,23,7.39a1.11,1.11,0,0,1-1.14,1.17A1.08,1.08,0,0,1,20.75,7.36Z"/></g></g></g></svg>