<svg xmlns="http://www.w3.org/2000/svg" viewBox="0 0 31.32 31.29"><defs><style>.cls-1{fill:#fed745;}.cls-2{fill:#fef26c;}.cls-3{fill:#fe9c21;}.cls-4{fill:#feb354;}.cls-5{fill:#feb453;}.cls-6{fill:#fe7d46;}</style></defs><g id="Capa_2" data-name="Capa 2"><g id="START11"><g id="Bebidas"><path class="cls-1" d="M19.21,31.28c-3.46,0-6.92,0-10.38,0A1.73,1.73,0,0,1,7.1,29.72c-.12-1.76,0-3.52,0-5.28,0-.31.21-.4.43-.4a22.84,22.84,0,0,1,3.88.05c.35.21.4.59.53.93a3.08,3.08,0,0,0,2.78,2,3,3,0,0,0,2.81-1.89c.26-.63.18-.76-.49-.77-1.57,0-3.13,0-4.69,0-.29,0-.63.1-.81-.26A1.33,1.33,0,0,0,11.93,23c0-1.31,0-2.61,0-3.91a2,2,0,0,1,.08-.72c.12-.28.39-.33.63-.41a2.31,2.31,0,0,0,1.73-2.25,2.39,2.39,0,0,0-1.73-2.12c-.25-.09-.53-.12-.64-.42a1.74,1.74,0,0,1-.08-.6V4c0-.41,0-.85.57-.89A2.55,2.55,0,0,0,14.71.69c0-.5.26-.69.77-.69,2.22,0,4.44,0,6.66,0A1.89,1.89,0,0,1,24.2,2.06c0,1.44,0,2.89,0,4.33,0,.48.12.63.61.62,1.43,0,2.85,0,4.28,0a1.11,1.11,0,0,1,.65.08c-.23.27-.55.21-.85.22H25.29c-.83,0-.85,0-.87.85a12.86,12.86,0,0,1-.06,2.06c-.09.24-.23.27-.4.07s-.21-.34-.34-.5a2.08,2.08,0,0,0-2.53-.73,2.1,2.1,0,0,0,.65,4,2,2,0,0,0,1.85-.86c.14-.17.24-.38.4-.54s.28-.12.36.09a2.62,2.62,0,0,1,.07.79v9.35a2.37,2.37,0,0,1-.65,1.84,2.24,2.24,0,0,1-1.6.64c-.7,0-1.39,0-2.08,0-.5,0-.69.19-.68.69q0,2.63,0,5.25A1.23,1.23,0,0,1,19.21,31.28Z"/><path class="cls-2" d="M12.12,18.22c0,1.67,0,3.33,0,5,0,.49,0,.91-.62,1h0c-1.28,0-2.55,0-3.83,0-.47,0-.58.15-.58.59,0,1.65,0,3.29,0,4.93A2.33,2.33,0,0,1,7,28.58c0-1.26,0-2.53,0-3.79,0-.49-.15-.62-.62-.61-1.39,0-2.77,0-4.16,0A1.93,1.93,0,0,1,0,22c0-1,0-2.08,0-3.12,0-.48.11-.74.67-.79A2.22,2.22,0,0,0,2.7,16a2.13,2.13,0,0,0-1.82-2.3C.2,13.57,0,13.29,0,12.6c0-3.5,0-7,0-10.51A1.85,1.85,0,0,1,2.07,0C4.25,0,6.43,0,8.61,0c.55,0,.78.15.85.75.16,1.51,1.25,2.31,3,2.33-.36.12-.37.41-.37.73,0,3.17,0,6.35,0,9.52l-.06.07a4.26,4.26,0,0,0-1.44.65,2.24,2.24,0,0,0,.71,3.82,2.4,2.4,0,0,1,.73.28Z"/><path class="cls-3" d="M19.21,31.28c0-2.18,0-4.35,0-6.52,0-.43.13-.57.55-.56.84,0,1.67,0,2.5,0a1.9,1.9,0,0,0,2-2c0-3.54,0-7.08,0-10.61a1.05,1.05,0,0,1,0-1.24c0-.87,0-1.74,0-2.61,0-.53.11-.7.66-.69,1.62,0,3.24,0,4.86,0a1.78,1.78,0,0,1,1.58,1.86c0,3.56,0,7.12,0,10.69,0,.43-.1.66-.59.73a1.59,1.59,0,0,0-1.49,1.57,1.56,1.56,0,0,0,1.46,1.59c.51.07.63.31.63.77,0,1.71,0,3.42,0,5.13a1.79,1.79,0,0,1-1.78,1.87C26.09,31.3,22.65,31.29,19.21,31.28Z"/><path class="cls-4" d="M24.21,10.39v1.24a2.84,2.84,0,0,1-1.87,1.6A2.35,2.35,0,0,1,19.85,12,2.29,2.29,0,1,1,24,10C24,10.12,24.12,10.25,24.21,10.39Z"/><path class="cls-3" d="M11.51,24.21c1.93,0,3.87,0,5.8,0,.54,0,.63.18.48.66a3.12,3.12,0,0,1-3.11,2.37,3.07,3.07,0,0,1-3.06-2.48c0-.18-.07-.36-.11-.54Z"/><path class="cls-4" d="M12.12,13.33a2.45,2.45,0,0,1,0,4.89h0a.94.94,0,0,1-.21-.68c0-1.18,0-2.35,0-3.53a.94.94,0,0,1,.21-.68Z"/><path class="cls-5" d="M19.08,18.84a1,1,0,0,1-.9,1,1,1,0,0,1-.93-1,.93.93,0,0,1,.93-.94A1,1,0,0,1,19.08,18.84Z"/><path class="cls-5" d="M18,5.14a1,1,0,0,1-.86,1,1,1,0,0,1-.86-1,.86.86,0,1,1,1.72,0Z"/><path class="cls-1" d="M4.17,8.13A2.24,2.24,0,0,1,6.46,5.88,2.29,2.29,0,0,1,8.71,8.19,2.33,2.33,0,0,1,6.43,10.5,2.28,2.28,0,0,1,4.17,8.13Z"/><path class="cls-1" d="M12.12,13.33v4.89c-1.57-.25-2.43-1.09-2.45-2.37A2.41,2.41,0,0,1,12.12,13.33Z"/><path class="cls-1" d="M7.23,21.44a1,1,0,0,1-.91.94.92.92,0,0,1,0-1.84A1,1,0,0,1,7.23,21.44Z"/><path class="cls-6" d="M27.64,16.63a1,1,0,0,1-.88,1,1,1,0,0,1-1-1,1,1,0,0,1,.91-1A1,1,0,0,1,27.64,16.63Z"/><path class="cls-6" d="M23.31,27.63a.89.89,0,0,1-.92-.85.94.94,0,0,1,.86-1,1,1,0,0,1,1,.9A.94.94,0,0,1,23.31,27.63Z"/></g></g></g></svg>