<svg xmlns="http://www.w3.org/2000/svg" viewBox="0 0 38.59 27.63"><defs><style>.cls-1{fill:#337baa;}.cls-2{fill:#23313e;}.cls-3{fill:#384550;}.cls-4{fill:#d2a058;}.cls-5{fill:#005c97;}.cls-6{fill:#f6d787;}.cls-7{fill:#67a744;}.cls-8{fill:#91c744;}.cls-9{fill:#394651;}.cls-10{fill:#f6d788;}.cls-11{fill:#045e97;}</style></defs><g id="Capa_2" data-name="Capa 2"><g id="START11"><g id="Carbs"><path class="cls-1" d="M36.54,14.37c-.38,1.51-.79,3-1.13,4.53a7.2,7.2,0,0,1-5,5.41l-.39.17a1.63,1.63,0,0,1-1.18.43c-4.22,0-8.44.09-12.66,0-.78-.27-1.68-.21-2.32-.87-.16-.37.08-.65.22-1a6.84,6.84,0,0,0,.73-4c-.08-.49-.19-1-.85-1a5.09,5.09,0,0,0-2.9,1c-.35.22-.66.66-1.19.41a28.26,28.26,0,0,1-1.24-4.61.54.54,0,0,1,.29-.65,3.42,3.42,0,0,1,1.27-.13H35.08C35.58,14.07,36.12,14,36.54,14.37Z"/><path class="cls-2" d="M37.57,11.25a2.48,2.48,0,0,1,.13,1.4c-.48.43-1.08.29-1.63.29H5.12c-.88,0-1.76,0-2.65,0a1.31,1.31,0,0,1-1-.29c-.06-.72-.18-1.47.75-1.76a34.23,34.23,0,0,1,5.45-.21q13.89,0,27.8,0c.46,0,.92,0,1.37,0A.86.86,0,0,1,37.57,11.25Z"/><path class="cls-3" d="M1.44,12.65H37.7c0,1.3-.09,1.52-1.16,1.72l-18.2,0-9.57,0a1.26,1.26,0,0,1-.87.28H3.48a1.22,1.22,0,0,1-.86-.28C1.54,14.18,1.38,14,1.44,12.65Z"/><path class="cls-4" d="M14.63,5.11a6.57,6.57,0,0,1,.52-3.66,2.37,2.37,0,0,1,3-1.3.55.55,0,0,1,0,.5,7.33,7.33,0,0,0,.34,6.29,7.64,7.64,0,0,1,2.17-2,.83.83,0,0,0,.39-.72c0-.32.06-.64.38-.82A5,5,0,0,1,22.59.93a2.29,2.29,0,0,1,3-.61c.21.31,0,.54-.16.77a5.61,5.61,0,0,0-1,3.48,1.89,1.89,0,0,1-1,1.94,6.22,6.22,0,0,0-2.56,3.12,2.51,2.51,0,0,1-.61,1.19,7.65,7.65,0,0,1-1.07,0c-.34-.09-.36-.4-.46-.66A7.59,7.59,0,0,0,15.1,5.76.73.73,0,0,1,14.63,5.11Z"/><path class="cls-5" d="M2.62,14.37H8.77Q9.39,17,10,19.52c-.08.71-.66,1.1-1,1.62s-.42,1.19-1,1.32-.94-.55-1.44-.81a15.84,15.84,0,0,0-1.61-.77c-.29-.1-.62-.15-.75-.5Z"/><path class="cls-6" d="M14.63,5.11a15.32,15.32,0,0,1,2.61,2A7.78,7.78,0,0,1,19,10.74a33.47,33.47,0,0,1-4.25.11c-.9-.58-.91-1.58-1.06-2.47a5.89,5.89,0,0,1,0-2.29c.12-.55-.11-.6-.53-.5a2.32,2.32,0,0,0-1.38,1.19c-.47.76-.8.78-1.3,0A7.75,7.75,0,0,1,9.27,1.36C9.32,1,9.4.62,9.82.47c1.84.25,2.9,1.53,3.86,3C14,4,14.1,4.67,14.63,5.11Z"/><path class="cls-6" d="M32.59.86a4.52,4.52,0,0,1,1.52,2.73,14.63,14.63,0,0,1,.21,1.5c-.12.43-.54.55-.84.8a15.11,15.11,0,0,0-1.21,1.19A1.37,1.37,0,0,0,32,8.92a3.39,3.39,0,0,1,.4,1.21c0,.29.13.65-.35.72H28.16a.59.59,0,0,1-.51-.4A6.64,6.64,0,0,1,27,6.05c.27-1.09.72-1.28,1.74-.8l.31.16c.7.4.71.4.88-.4A6.6,6.6,0,0,1,32.59.86Z"/><path class="cls-7" d="M4.17,20.38a9,9,0,0,1,3.45,1.79c.32.31.47.17.61-.15A9.91,9.91,0,0,1,10,19.52a6.54,6.54,0,0,1,3.93-1.71c0,.44-.33.56-.59.76a7,7,0,0,0-2.95,6.17A2.07,2.07,0,0,0,11,26.33c-.27.8-.94.67-1.55.68l-1.71.23c-.37.13-.61.07-.63-.38-.18-3-3.21-5.44-5.9-5.75-.25,0-.61.05-.67-.36A7.11,7.11,0,0,1,4.17,20.38Z"/><path class="cls-4" d="M9.82.47C8.92,2.87,9.64,5,11,7c.29.45.43.21.6-.16a2.2,2.2,0,0,1,2.12-1.57c.34,0,.52,0,.41.47a7.28,7.28,0,0,0,.58,5,15.28,15.28,0,0,1-3,.13,1,1,0,0,1-1-.84A8,8,0,0,0,7.33,5.65a.88.88,0,0,1-.42-.71,6.52,6.52,0,0,1,.18-2.88A2.3,2.3,0,0,1,9.82.47Z"/><path class="cls-6" d="M20.29,10.74a6.79,6.79,0,0,1,3.22-4.6c.31-.19.73-.27.68-.76A7.36,7.36,0,0,1,25.57.32a4.08,4.08,0,0,1,1.76,1.73c.18.29.18.74.62.83A4.16,4.16,0,0,1,27.41,5c-.11.3-.45.32-.72.39A1.93,1.93,0,0,0,25.1,7.64,7.89,7.89,0,0,1,25,10.11c-.08.33-.16.68-.59.74A32.87,32.87,0,0,1,20.29,10.74Z"/><path class="cls-2" d="M9.48,27c.5-.26,1.1-.26,1.55-.63a1.3,1.3,0,0,1,1.06-.6c2.54-.14,5.08,0,7.62-.06h8.91c.47,0,1-.08,1.38.3.06.93-.53,1.32-1.29,1.53a3.29,3.29,0,0,1-.94.08H11.35A2.23,2.23,0,0,1,9.48,27Z"/><path class="cls-4" d="M24.51,10.74a6,6,0,0,0,.34-3.16,2.08,2.08,0,0,1,1.66-2.42c.63-.07.78-.36.92-.85A14.35,14.35,0,0,1,28,2.88,4.73,4.73,0,0,1,29.66.79a2.32,2.32,0,0,1,2.93.07.53.53,0,0,1-.22.44,7.19,7.19,0,0,0-2.4,5c-.52-.32-1-.65-1.45-.89-.85-.41-1-.31-1.24.57A7,7,0,0,0,28,10.73,11.11,11.11,0,0,1,24.51,10.74Z"/><path class="cls-8" d="M.57,20.75a8.54,8.54,0,0,1,4.21,1.63,6.34,6.34,0,0,1,2.59,4.41c0,.34.1.44.4.45a6.87,6.87,0,0,1-5.54-1.83A6,6,0,0,1,0,21.59C0,21.12.06,20.82.57,20.75Z"/><path class="cls-9" d="M30,26,11.84,26a3,3,0,0,1,1.75-1.58,11.9,11.9,0,0,1,2.38.21H28.76A10.85,10.85,0,0,0,30,24.48Z"/><path class="cls-6" d="M6.91,4.94c.47.66,1.24.95,1.8,1.51a8.62,8.62,0,0,1,2.06,3.36,1.6,1.6,0,0,0,.55.92,27.79,27.79,0,0,1-4.47.09.62.62,0,0,1-.54-.37,6.48,6.48,0,0,1-.66-4.93A1.23,1.23,0,0,1,6,5C6.31,4.83,6.62,5.27,6.91,4.94Z"/><path class="cls-4" d="M6,5A7,7,0,0,0,6.34,10a1,1,0,0,0,1.15.76c1.27-.06,2.55,0,3.83,0h3.34l4.36,0H32.23a1.49,1.49,0,0,1,1.09-.23c.93-.06,1.87,0,2.8,0,.34,0,.77-.08.92.4l-32.45,0H2.19c1.21-.25,1.19-.24,1-1.62a5.21,5.21,0,0,1,.14-2.45A2.48,2.48,0,0,1,6,5Z"/><path class="cls-4" d="M33.3,10.74H32.23a4.34,4.34,0,0,0-.66-2.15,1,1,0,0,1,.13-1.15,7.87,7.87,0,0,1,2.62-2.35c1.91-.71,3-.46,3.78.88.14.28,0,.44-.26.51-2.1.58-3.31,2.12-4.28,3.92A1.46,1.46,0,0,1,33.3,10.74Z"/><path class="cls-6" d="M21.43,3.36a2.53,2.53,0,0,1-1.49,2.37,8.53,8.53,0,0,0-1.52,1.58c-1.16-2.4-1.63-4.74-.23-7.16A4.62,4.62,0,0,1,20.74,2.3C21,2.64,21.2,3,21.43,3.36Z"/><path class="cls-10" d="M33.3,10.74a6.44,6.44,0,0,1,2.3-3.35,4.23,4.23,0,0,1,2.25-1.12c.17,0,.21-.17.25-.3,1,1.87.31,3.58-.53,5.28L37,10.9A21.21,21.21,0,0,0,33.3,10.74Z"/><path class="cls-8" d="M13.37,24.63,11.84,26l-.81.38c-.42,0-.62-.18-.74-.63a7.27,7.27,0,0,1,2.76-7.27,2.86,2.86,0,0,0,.87-.67c.61-.15.91.07,1.06.71a7.27,7.27,0,0,1-1.09,5.41A.73.73,0,0,1,13.37,24.63Z"/><path class="cls-11" d="M13.37,24.63l.52-.7a16.94,16.94,0,0,0,2.08.7Z"/></g></g></g></svg>