<svg xmlns="http://www.w3.org/2000/svg" viewBox="0 0 30.72 30.08"><defs><style>.cls-1{fill:#30a944;}.cls-2{fill:#3bbb56;}.cls-3{fill:#239b31;}.cls-4{fill:#30aa44;}.cls-5{fill:#82cb8d;}.cls-6{fill:#78c081;}.cls-7{fill:#239a31;}.cls-8{fill:#9adfa2;}</style></defs><g id="Capa_2" data-name="Capa 2"><g id="START11"><g id="Verduras"><path class="cls-1" d="M3.35,22.59a2.82,2.82,0,0,1-2.09-.49,1.73,1.73,0,0,1-.41-2.63,7.21,7.21,0,0,1,1.06-.94c.47-.32.52-.66.24-1.19A3.27,3.27,0,0,1,2,14.72a2.16,2.16,0,0,0-.21-1.93A5.28,5.28,0,0,1,3.05,5.94a7,7,0,0,1,1.14-.63l0,0C5.3,5.4,5.88,4.77,6.54,4A4,4,0,0,1,11,2.93a1.45,1.45,0,0,0,1.58-.32,3.73,3.73,0,0,1,3.28-.9.72.72,0,0,0,.84-.31,3.56,3.56,0,0,1,5-.63c-.11.35-.38.19-.58.17A3.65,3.65,0,0,0,18.22,2c-.29.28-.31.53,0,.81a3.41,3.41,0,0,1,1,1.75c.07.3.1.61-.29.74A2,2,0,0,1,18,5.22,9.46,9.46,0,0,0,15.57,5a11.37,11.37,0,0,0-8.3,3.16,12.17,12.17,0,0,0-4,9.13c0,.34,0,.64.4.78.16.28-.11.34-.25.44s-.54.35-.79.54a1.67,1.67,0,0,0,.17,3C3,22.17,3.36,22.22,3.35,22.59Z"/><path class="cls-2" d="M28.79,11.32a30.37,30.37,0,0,1,.79,4.54c.22,3,.05,6-1.65,8.55A12.32,12.32,0,0,1,19.37,30a3.09,3.09,0,0,1-.53,0,2,2,0,0,1-1.31-2.89,9.47,9.47,0,0,1,3.09-3.8A2,2,0,0,0,21,23a1.33,1.33,0,0,1,.57-.25,5,5,0,0,0,1.32-.52,8.41,8.41,0,0,0,4.42-4A8,8,0,0,0,28,14.36,9,9,0,0,1,28,12C28.1,11.64,28.26,11.27,28.79,11.32Z"/><path class="cls-2" d="M3.35,22.59c-.16-.27-.46-.31-.69-.45a1.84,1.84,0,0,1-.09-3.21c.36-.27.76-.5,1.14-.75s.47,0,.7,0a3.8,3.8,0,0,1,1.26.8,2.1,2.1,0,0,0,1,.64A4.9,4.9,0,0,1,10.1,23a2.3,2.3,0,0,1,.12.34,1.3,1.3,0,0,0,1.06,1.07A5.16,5.16,0,0,1,13.9,26.2a9.43,9.43,0,0,1,1.67,2.68.87.87,0,0,1-.21.69,8.3,8.3,0,0,1-3.14.13c.1-.13.24-.05.29-.06A7.38,7.38,0,0,1,6.92,25.4c-.35-.63-.63-1.3-1-1.91-.5-.82-.66-.9-1.61-.74A1.5,1.5,0,0,0,3.35,22.59Z"/><path class="cls-1" d="M28.79,11.32c-.61.21-.7.73-.7,1.26,0,.69.08,1.4.07,2.08a7.46,7.46,0,0,1-1.64,5.15,9.42,9.42,0,0,1-3.6,2.55c-.3-.2-.29-.51-.29-.81.06-2,.38-3.9,1.92-5.37a.88.88,0,0,0,.18-.89,6.69,6.69,0,0,1-.1-2.56,4.38,4.38,0,0,1,1.22-2.35,2.88,2.88,0,0,0,.67-1.11A3,3,0,0,1,28.44,7.2a.5.5,0,0,1,.38,0,1.9,1.9,0,0,1,1.81,1.22,2,2,0,0,1-.69,2.14A3.54,3.54,0,0,1,28.79,11.32Z"/><path class="cls-2" d="M28.82,7.24h-.39a.92.92,0,0,1-.4.11,2.63,2.63,0,0,0-2.4,1.78,1,1,0,0,1-.27.39c-.23.07-.33-.11-.44-.24a12.66,12.66,0,0,0-5.6-3.75c-.16,0-.37-.09-.38-.32.32-.75-.18-1.27-.48-1.85a1.39,1.39,0,0,0-.15-.19c-.71-.82-.7-1,.22-1.65A3.47,3.47,0,0,1,21.45.85a.25.25,0,0,0,.27-.08,2.75,2.75,0,0,1,1,1.34A1.27,1.27,0,0,0,23.89,3a3.78,3.78,0,0,1,3.37,3.35c.1.53.35.83.92.78A.9.9,0,0,1,28.82,7.24Z"/><path class="cls-3" d="M4.19,5.31c-.06.2-.25.25-.4.34A5.12,5.12,0,0,0,1.22,10,4.41,4.41,0,0,0,2,12.79a1.89,1.89,0,0,1,.23,1.85,3.43,3.43,0,0,0,.26,3c.31.51.26.57-.59.85a3.46,3.46,0,0,1-.87-4,1.92,1.92,0,0,0-.32-1.8A5,5,0,0,1,2.56,5.84,3.28,3.28,0,0,1,4.19,5.31Z"/><path class="cls-1" d="M15.36,29.57l.11-.74a3.91,3.91,0,0,1,.58-1.72,11.74,11.74,0,0,1,1-1.59,8.31,8.31,0,0,1,3.14-2.33c.28-.12.56-.34.89-.1-.58.57-1.28,1-1.81,1.62a7.5,7.5,0,0,0-1.78,3,1.75,1.75,0,0,0,1,2.09,3.13,3.13,0,0,1,.3.2A8.74,8.74,0,0,1,15.36,29.57Z"/><path class="cls-4" d="M4.3,22.75a1,1,0,0,1,1.57.35c.52.92,1,1.88,1.52,2.78A7.5,7.5,0,0,0,13,29.64l-.75.06a7.24,7.24,0,0,1-5.87-3.39A25.56,25.56,0,0,1,5,23.9,5.78,5.78,0,0,0,4.3,22.75Z"/><path class="cls-5" d="M16.19,27.16l-.72,1.67a21.75,21.75,0,0,0-1.61-2.43A5.47,5.47,0,0,0,11,24.46a1,1,0,0,1-.82-.81,5.9,5.9,0,0,0-2.11-3.26,2.77,2.77,0,0,0-1.13-.52,2.2,2.2,0,0,1-1.24-.67,6.83,6.83,0,0,0-1.25-.9,1.28,1.28,0,0,1-.15-1A13.14,13.14,0,0,1,14,5.09a12,12,0,0,0,1.46-.25,12.21,12.21,0,0,1,3.46.38A15.52,15.52,0,0,1,22.48,6.9a14.42,14.42,0,0,1,2.83,2.63c.2.37,0,.64-.25.84a4.47,4.47,0,0,0-1.29,4.71,1.52,1.52,0,0,1-.47,1.59,5.63,5.63,0,0,0-1.52,3.92c0,.66,0,1.32,0,2a.49.49,0,0,1-.13.27c-.11.2-.39.07-.5.25a6.41,6.41,0,0,0-3,1.58c-.34.3-.66.63-1,.95a.52.52,0,0,1-.13-.55,13.2,13.2,0,0,0-.3-4.65,7.14,7.14,0,0,1,1.07-5.26A8.71,8.71,0,0,1,21,12l.19-.13c.15-.13.38-.26.22-.48s-.36-.07-.53,0a10,10,0,0,0-4.31,5c-.11.27-.1.69-.45.71s-.39-.4-.51-.66c-.31-.63-.59-1.27-1-1.87a1.54,1.54,0,0,1-.14-1.37,9.26,9.26,0,0,1,2.32-3.87c.17-.17.5-.39.27-.63s-.5.07-.69.25a8.12,8.12,0,0,0-2,3c-.06.13-.1.26-.16.39-.29.61-.52.66-.94.14a18.33,18.33,0,0,0-2.89-2.95c-.25-.2-.61-.63-.85-.33s.28.55.51.78.74.67,1.12,1c.15.12.33.28.24.5s-.3.18-.48.19A9.38,9.38,0,0,0,9,11.72c-.12,0-.24,0-.35.07s-.49.12-.44.4.35.19.55.15a7.75,7.75,0,0,1,2.92-.09,1.89,1.89,0,0,1,1.33.82,24.51,24.51,0,0,1,1.4,2.23c.09.17.23.38.09.56s-.37.06-.55,0a10.36,10.36,0,0,0-6.3.27l-.17.07c-.18.09-.41.18-.35.42s.33.16.51.11a17,17,0,0,1,2.81-.61,6.72,6.72,0,0,1,4.19.72,1.79,1.79,0,0,1,.89,1.07,16.23,16.23,0,0,1,.67,2.55c.12.73-.08.89-.76.62a8.28,8.28,0,0,0-3.5-.71,1.45,1.45,0,0,0-.36,0c-.14,0-.29.06-.27.25s.14.19.26.2c.46,0,.92.09,1.37.15a8.84,8.84,0,0,1,2.74.86,1.32,1.32,0,0,1,.83,1.32A19.62,19.62,0,0,1,16.19,27.16Z"/><path class="cls-6" d="M15.48,4.84a5,5,0,0,1-1.65.47A13,13,0,0,0,7.28,9.69,12.3,12.3,0,0,0,4.6,15.86a10.48,10.48,0,0,0-.17,2.44l-.72-.12c-.46.05-.6-.13-.61-.6A12.5,12.5,0,0,1,13,5,8.68,8.68,0,0,1,15.48,4.84Z"/><path class="cls-7" d="M21.62,22.84A11.13,11.13,0,0,1,22,18.58a4.75,4.75,0,0,1,1.41-2.25.8.8,0,0,0,.28-.93,5.64,5.64,0,0,1,.09-3.47,3.3,3.3,0,0,1,1-1.51,1.39,1.39,0,0,0,.54-.89A4.4,4.4,0,0,1,26.21,8a2.46,2.46,0,0,1,2.22-.71,3.81,3.81,0,0,0-1.89,2.5.79.79,0,0,1-.27.45,4.82,4.82,0,0,0-1.38,5,1.13,1.13,0,0,1-.39,1.24A5.6,5.6,0,0,0,22.93,20a5.27,5.27,0,0,0,0,2.37A2.28,2.28,0,0,1,21.62,22.84Z"/><path class="cls-8" d="M16.19,27.16a4.06,4.06,0,0,1,0-1.63c.12-.92,0-1.83.07-2.74,0-.38-.28-.55-.57-.71a9.14,9.14,0,0,0-4-1c-.19,0-.4.05-.57-.1a.45.45,0,0,1-.1-.5c.08-.25.29-.23.5-.24a8.52,8.52,0,0,1,4,.76c.14.06.3.23.43.11s.09-.34.05-.51c-.17-.74-.39-1.47-.54-2.2A2.37,2.37,0,0,0,13.7,16.6a7.7,7.7,0,0,0-3.9-.21A16.12,16.12,0,0,0,7.55,17c-.29.09-.57.14-.68-.22s.11-.53.39-.64a12.32,12.32,0,0,1,1.89-.53,8.93,8.93,0,0,1,5.28.3,1.57,1.57,0,0,0-.31-.76c-.41-.66-.86-1.29-1.26-2a1.6,1.6,0,0,0-1.22-.74,7,7,0,0,0-3,.15c-.33.08-.58.06-.68-.26s.13-.55.46-.63A6,6,0,0,1,10,11.44h1.47L9.83,10c-.14-.13-.3-.25-.45-.39S9,9.28,9.22,9A.46.46,0,0,1,10,9c.31.25.65.46,1,.72a18.58,18.58,0,0,1,2.59,2.8c.35.48.45,0,.52-.19a8.85,8.85,0,0,1,2.41-3.66c.26-.25.56-.51.87-.19s.05.62-.23.86a8.91,8.91,0,0,0-2.51,4.27.58.58,0,0,0,0,.41c.56,1,1,2,1.57,3.15a9.79,9.79,0,0,1,1.7-3.33A11,11,0,0,1,21,11.09c.26-.15.5-.16.67.13a.46.46,0,0,1-.21.66,13.26,13.26,0,0,0-1.74,1.26A9.75,9.75,0,0,0,17,17.3a7.8,7.8,0,0,0,0,3.87,13.22,13.22,0,0,1,.12,4.21,1,1,0,0,0,0,.24Z"/></g></g></g></svg>