<svg xmlns="http://www.w3.org/2000/svg" viewBox="0 0 19.81 31.77"><defs><style>.cls-1{fill:#e95e57;}.cls-2{fill:#d1544e;}.cls-3{fill:#dbddde;}.cls-4{fill:#aaabae;}.cls-5{fill:#bcbfc2;}.cls-6{fill:#c5c6c7;}.cls-7{fill:#be4c46;}.cls-8{fill:#d4554e;}.cls-9{fill:#fefefe;}.cls-10{fill:#e4e4e3;}.cls-11{fill:#f2c97f;}.cls-12{fill:#4d545d;}.cls-13{fill:#70b58e;}</style></defs><g id="Capa_2" data-name="Capa 2"><g id="START11"><g id="Otros"><path class="cls-1" d="M18.2,14.89a5.58,5.58,0,0,0,1,3.25,3.34,3.34,0,0,1,.52,1.63,15.24,15.24,0,0,1,0,3,4.64,4.64,0,0,1-4.15,4.29,62.46,62.46,0,0,1-7.11.18,2.55,2.55,0,0,1-.67-.07A5.45,5.45,0,0,1,5.28,24.1a10.4,10.4,0,0,1-.37-5.42c0-.24,0-.56.42-.57.48.7.24,1.52.39,2.28.07.34.06.7.12,1,.17.89.46,1.16,1.37,1.2.62,0,1.24,0,1.86,0h3.22c1.23,0,1.55-.26,1.69-1.49.18-1.56.3-3.12.43-4.68.17-2.12.39-4.23.57-6.35.06-.7.16-1.4.17-2.1s-.14-.87-.82-.87A1.52,1.52,0,0,1,12.74,6,2.87,2.87,0,0,0,9.88,3.91,2.92,2.92,0,0,0,7,6,1.81,1.81,0,0,1,4.48,7a1.64,1.64,0,0,1-.19-.71A38,38,0,0,1,4.13,1.2,2,2,0,0,1,4.43,0Q11.12,0,17.8,0a1.83,1.83,0,0,1,1.89,1.63,34.75,34.75,0,0,1,0,6.12,2.77,2.77,0,0,1-.52,1.31,5.52,5.52,0,0,0-.94,2.72c-.32.27-.71.13-1.06.19s-.52,0-.5.34.29.24.49.27c.36.05.75-.09,1.07.19V13.9c-.32.27-.71.13-1.07.18-.2,0-.47,0-.49.27s.28.3.49.34C17.49,14.76,17.88,14.61,18.2,14.89Z"/><path class="cls-2" d="M5.3,18.11A1.83,1.83,0,0,0,5,19.28a9.39,9.39,0,0,0,1.18,6.17,20.73,20.73,0,0,0,1.49,1.61,4.2,4.2,0,0,1-2.3.15c-.38,0-.77-.07-1.16-.13A4.64,4.64,0,0,1,.06,22.73a17.21,17.21,0,0,1,0-3,3.41,3.41,0,0,1,.52-1.63,5.67,5.67,0,0,0,1-3.25c.31-.28.71-.14,1.06-.2s.51,0,.49-.34-.29-.24-.49-.27c-.36-.05-.75.09-1.06-.18V12.78c.32-.28.7-.14,1.06-.19.2,0,.47,0,.49-.27S2.86,12,2.65,12s-.75.08-1.06-.19A5.49,5.49,0,0,0,.64,9.08,4.54,4.54,0,0,1,0,6.54C0,5.13,0,3.73,0,2.33A2.08,2.08,0,0,1,2.39,0l2,0c.06.64-.13,1.25-.13,1.89a50.18,50.18,0,0,0,.28,5.2.4.4,0,0,1,.06.32,31.39,31.39,0,0,0,.3,4c.11,1.75.37,3.49.42,5.25,0,.27.12.52.12.79A.74.74,0,0,1,5.3,18.11Z"/><path class="cls-3" d="M14.73,29.65c.14,2-.43,2.15-2.08,2.12-1.38,0-2.75,0-4.13,0A2.85,2.85,0,0,1,7,29.63a.46.46,0,0,1,.16-.11A2.05,2.05,0,0,0,8.51,29a2.16,2.16,0,0,1,2.83.05,1.63,1.63,0,0,0,1.28.47c.47,0,.94,0,1.41,0A1,1,0,0,1,14.73,29.65Z"/><path class="cls-4" d="M4.2,27.08l3.46,0,7.91,0c-.63,0-1,.28-.83,1a1.33,1.33,0,0,1-1,.2h-6c-.64,0-.76.18-.68.81,0,.2.12.4,0,.59H7a2.18,2.18,0,0,1-2,0,11.85,11.85,0,0,1,0-1.46C5.12,27.52,5,27.05,4.2,27.08Z"/><path class="cls-5" d="M7,29.65C6.44,27.94,7,28,8.2,28c2.18,0,4.36,0,6.54,0,0,.54,0,1.08,0,1.61-.82,0-1.64,0-2.47,0a1,1,0,0,1-.94-.43,1.94,1.94,0,0,0-2.71-.13A1.66,1.66,0,0,1,7,29.65Z"/><path class="cls-6" d="M5.05,29.65H7a6.73,6.73,0,0,0,1.48,2.1h-2c-1.09,0-1.49-.4-1.49-1.49Z"/><path class="cls-7" d="M1.59,11.79c.42,0,.86,0,1.28,0s.59.14.56.52-.29.46-.62.46H1.59Z"/><path class="cls-8" d="M18.2,12.78H16.91a.5.5,0,0,1-.55-.46c0-.35.24-.48.5-.51.44,0,.89,0,1.34,0Z"/><path class="cls-7" d="M1.59,13.9H2.87a.5.5,0,0,1,.56.45c0,.35-.24.48-.5.51-.44.05-.89,0-1.34,0Z"/><path class="cls-8" d="M18.2,14.89c-.44,0-.87,0-1.3,0-.27,0-.56-.14-.54-.49s.26-.49.6-.48H18.2Z"/><path class="cls-9" d="M4.54,7.29l0-.18a1.8,1.8,0,0,1,1.2-.2.88.88,0,0,0,1-.76A3.12,3.12,0,0,1,9.89,3.7,3.12,3.12,0,0,1,13,6.13a.88.88,0,0,0,1,.78h.49c.65,0,.91.27.86.92-.12,1.67-.27,3.33-.42,5-.23,2.57-.5,5.13-.69,7.71-.15,2-.32,2.25-2.35,2.25H7.19c-1.06,0-1.43-.34-1.54-1.36s-.24-2.21-.35-3.32v-.62A31.61,31.61,0,0,0,5.24,11a13.58,13.58,0,0,0-.41-1.87A6.26,6.26,0,0,1,4.54,7.29Z"/><path class="cls-10" d="M4.54,7.29a29.56,29.56,0,0,1,1,5.28,26.88,26.88,0,0,1-.16,4.58c0,.13,0,.25-.12.34-.21-2.2-.42-4.39-.62-6.59-.1-1-.18-2-.26-3C4.42,7.72,4.35,7.48,4.54,7.29Z"/><path class="cls-1" d="M10.62,13.66a2.35,2.35,0,0,1,1.77,1,2,2,0,0,1-.76,3,6.56,6.56,0,0,1-2.23-.4,1.69,1.69,0,0,1-1.09-1.58A1.91,1.91,0,0,1,9.4,13.76l.15,0A1.42,1.42,0,0,1,10.62,13.66Z"/><path class="cls-5" d="M9.92,10.56H7.5c-.42,0-.58-.17-.59-.6,0-1.37,0-1.4,1.32-1.4h3.9c.53,0,.74.21.75.74,0,1.26,0,1.26-1.23,1.26Z"/><path class="cls-2" d="M9.4,13.76a3,3,0,0,0-.91,1.63,1.46,1.46,0,0,0,.76,1.53,3.41,3.41,0,0,0,1.76.46c.22,0,.52-.14.62.22a4.72,4.72,0,0,1-3.41,0,2,2,0,0,1-1.06-2.48A2,2,0,0,1,9.4,13.76Z"/><path class="cls-11" d="M11.89,6.83c0,.27,0,.57-.36.6S11.08,7.25,11,7c-.19-.77-.47-1-1.1-1s-.94.25-1.12,1c-.07.3-.18.51-.51.49s-.38-.3-.38-.59a2,2,0,0,1,4,0Z"/><path class="cls-12" d="M9.88,20.72h-1a.43.43,0,0,1-.45-.42.41.41,0,0,1,.44-.48c.67,0,1.35,0,2,0a.41.41,0,0,1,.42.44.44.44,0,0,1-.47.46C10.54,20.73,10.21,20.72,9.88,20.72Z"/><path class="cls-13" d="M10.62,13.66a1.78,1.78,0,0,1-1.07.06,2.11,2.11,0,0,0,.25-.93c0-.3.16-.57.53-.53s.44.31.42.62S10.66,13.4,10.62,13.66Z"/></g></g></g></svg>