<svg xmlns="http://www.w3.org/2000/svg" viewBox="0 0 30.01 29.95"><defs><style>.cls-1{fill:#fe4755;}.cls-2{fill:#97da7b;}.cls-3{fill:#82d261;}.cls-4{fill:#fb2b3a;}.cls-5{fill:#5c5b5b;}.cls-6{fill:#5c5a5b;}.cls-7{fill:#5b5b5b;}</style></defs><g id="Capa_2" data-name="Capa 2"><g id="START11"><g id="Fruta"><path class="cls-1" d="M2.74,21.89a3.85,3.85,0,0,1,.27-.3L22.43,2.17c.11-.11.23-.21.35-.31a.65.65,0,0,1,.53.3,14.73,14.73,0,0,1,3.93,9.6,2.24,2.24,0,0,1,0,.52,15.55,15.55,0,0,1-1.65,5.32,14.57,14.57,0,0,1-11.36,7.85A14.52,14.52,0,0,1,3.29,22.54C3.06,22.37,2.8,22.22,2.74,21.89Z"/><path class="cls-2" d="M27.08,12.29a14.36,14.36,0,0,0-3.21-9.22c-.33-.43-.73-.81-1.09-1.21L24.32.27a.58.58,0,0,1,1,0,17.59,17.59,0,0,1,4,7,18.74,18.74,0,0,1,.71,6,1.44,1.44,0,0,1-.11.74c-.14-.12-.08-.27-.06-.42a11,11,0,0,1-.44,2.21A14.81,14.81,0,0,1,28.58,18a17.64,17.64,0,0,1-5.85,7.15,17.25,17.25,0,0,1-7.89,3.17A17.62,17.62,0,0,1,1.15,24.55,1.52,1.52,0,0,1,.63,24l1.26-1.26c.27,0,.41.2.58.35a14.31,14.31,0,0,0,9.61,3.79,14.15,14.15,0,0,0,9.46-3.25,14.45,14.45,0,0,0,5.26-9.22C26.91,13.71,27,13,27.08,12.29Z"/><path class="cls-3" d="M.63,24c.83.57,1.63,1.17,2.48,1.71A16.73,16.73,0,0,0,9.56,28.1a16,16,0,0,0,3.24.22,18.24,18.24,0,0,0,6.44-1.4,17.45,17.45,0,0,0,5.94-4.14,17.35,17.35,0,0,0,4.47-8.68,4,4,0,0,1,.2-.73l0,.69A16.82,16.82,0,0,1,26,23.47a17.14,17.14,0,0,1-12,6.4A17.32,17.32,0,0,1,.59,25.52C-.21,24.83-.19,24.7.63,24Z"/><path class="cls-4" d="M27.08,12.29a14.33,14.33,0,0,1-5.57,11.58A14.82,14.82,0,0,1,2.33,23.2l-.44-.46.85-.85A14.08,14.08,0,0,0,10,25.24a14.52,14.52,0,0,0,11.67-3.16,14.71,14.71,0,0,0,4.66-6.7A11,11,0,0,0,27,12.6.37.37,0,0,1,27.08,12.29Z"/><path class="cls-5" d="M20.16,9.47c-.38-.06-.76-.07-.91-.46a.82.82,0,0,1,.36-1,1.2,1.2,0,0,1,.94-.39.86.86,0,0,1,.21,1.67A2.87,2.87,0,0,1,20.16,9.47Z"/><path class="cls-6" d="M18.53,17.62a.88.88,0,0,1-.85.87,1.36,1.36,0,0,1-1.13-1.34.6.6,0,0,1,.67-.64A1.39,1.39,0,0,1,18.53,17.62Z"/><path class="cls-7" d="M9.49,20c0,.79-.38,1.3-.93,1.31a.94.94,0,0,1-.88-.85c0-.52.67-1.3,1.15-1.28S9.41,19.64,9.49,20Z"/><path class="cls-6" d="M12.46,20c0-.71.36-1.17.82-1.13s.94.75.92,1.32a.82.82,0,0,1-.93.81A.89.89,0,0,1,12.46,20Z"/><path class="cls-6" d="M21,13.32a.86.86,0,0,1-.87.84c-.61,0-1.28-.52-1.27-1s.53-.77,1.21-.76A.87.87,0,0,1,21,13.32Z"/></g></g></g></svg>