<svg xmlns="http://www.w3.org/2000/svg" viewBox="0 0 39.45 26.42"><defs><style>.cls-1{fill:#fee7b4;}.cls-2{fill:#fe964f;}.cls-3{fill:#fe7a41;}.cls-4{fill:#fecf6a;}.cls-5{fill:#fed06b;}.cls-6{fill:#feb35d;}</style></defs><g id="Capa_2" data-name="Capa 2"><g id="START11"><g id="Proteina"><path class="cls-1" d="M14.19,26.4A13.33,13.33,0,0,1,3.27,21.91a12.64,12.64,0,0,1-3.2-7.33,5.6,5.6,0,0,1,.62-3.8A2.81,2.81,0,0,0,1.14,9.1,4.57,4.57,0,0,1,4.06,4.64a.86.86,0,0,0,.5-.52,5.54,5.54,0,0,1,3.35-3A14,14,0,0,1,12.83.09c4.61-.18,9.23,0,13.85-.08A.46.46,0,0,1,27,.09c-.25.27-.58.14-.87.16s-.44,0-.66,0C22,.23,18.5.42,15,.16h0c.09,0,.17,0,.25,0A7.47,7.47,0,0,1,19.7,2.87a.5.5,0,0,1,.11.17,5.54,5.54,0,0,0,1.75,2.18A5,5,0,0,1,23.12,9.5a1.72,1.72,0,0,0,.19.92,3.38,3.38,0,0,1,.6,2.18.24.24,0,0,1-.06.08c-.52.54-.52.59.06,1.09a2,2,0,0,1,0,1.3,14.38,14.38,0,0,1-2.7,7.05,10.38,10.38,0,0,1-5.39,4,2.26,2.26,0,0,0-.33.13A11.81,11.81,0,0,1,14.19,26.4Z"/><path class="cls-2" d="M15.4.31,14.61.18V.12H25.48A11,11,0,0,1,30.6,1.75a4.79,4.79,0,0,1,1.94,2.12,1.33,1.33,0,0,0,.69.71,4.88,4.88,0,0,1,2.83,3.9,1.85,1.85,0,0,1,0,.66,1.9,1.9,0,0,0,.43,1.61,4.87,4.87,0,0,1,.7,3.05,13.46,13.46,0,0,1-2.75,7.5,13.23,13.23,0,0,1-7.16,4.78,10.08,10.08,0,0,1-1.19.18c.3,0,.63-.18.92.07A2.92,2.92,0,0,1,26,26.4c-3.93,0-7.86,0-11.79,0l1.32-.29a14.2,14.2,0,0,0,7.1-4,13,13,0,0,0,3.44-7.31,8.46,8.46,0,0,0,.06-2.19,5,5,0,0,0-.92-2.26,1.05,1.05,0,0,1-.2-.77,4.62,4.62,0,0,0-2.84-4.87.88.88,0,0,1-.52-.46,5.3,5.3,0,0,0-3.18-2.95A17.94,17.94,0,0,0,15.4.31Z"/><path class="cls-3" d="M27,26.33H25.81a22.5,22.5,0,0,0,3-.91A13.24,13.24,0,0,0,37.07,13.2a4.22,4.22,0,0,0-1-2.8,1.06,1.06,0,0,1-.2-.9A4.58,4.58,0,0,0,35,6.23,4.86,4.86,0,0,0,32.91,4.6a.6.6,0,0,1-.36-.34,5.42,5.42,0,0,0-3.22-3A16.66,16.66,0,0,0,25.48.12L27,.09a13.26,13.26,0,0,1,5.75,1.69,4.71,4.71,0,0,1,2.11,2.36.83.83,0,0,0,.52.5,4.75,4.75,0,0,1,2.86,5.1.57.57,0,0,0,.14.51,5.05,5.05,0,0,1,1,3.71,13,13,0,0,1-4.51,9.19A12.54,12.54,0,0,1,27,26.33Z"/><path class="cls-4" d="M15.4.31c2.21.43,4.33,1,5.82,2.89,0,0,.05,0,.06.08.26,1,1.14,1.37,1.89,1.9a4.58,4.58,0,0,1,1.94,4.56.57.57,0,0,0,.11.46,5.69,5.69,0,0,1,1,4.31,13.63,13.63,0,0,1-1.35,4.64,12.86,12.86,0,0,1-5.71,5.75,10.6,10.6,0,0,1-3.66,1.21A21.55,21.55,0,0,0,17.91,25a11.94,11.94,0,0,0,4.19-4.51,15.47,15.47,0,0,0,1.8-6.44.61.61,0,0,0-.09-.28.26.26,0,0,1,.11-.1c.59-.36.59-.59,0-.95a.26.26,0,0,1-.11-.1,4.15,4.15,0,0,0-.72-2.31A1,1,0,0,1,23,9.61a5,5,0,0,0-2.41-5,.59.59,0,0,1-.33-.36A5.38,5.38,0,0,0,17,.93C16.46.69,15.92.52,15.4.31Z"/><path class="cls-5" d="M13.12,23.42c.38,0,.62.22.62.58s-.25.57-.63.57a.56.56,0,0,1-.57-.59C12.54,23.62,12.81,23.46,13.12,23.42Z"/><path class="cls-5" d="M8.31,3.79c0,.49-.22.7-.55.71a.54.54,0,0,1-.58-.58.55.55,0,0,1,.55-.61A.52.52,0,0,1,8.31,3.79Z"/><path class="cls-5" d="M3.27,7.9c0-.44.19-.6.56-.61a.51.51,0,0,1,.57.57.53.53,0,0,1-.59.56C3.47,8.42,3.23,8.25,3.27,7.9Z"/><path class="cls-6" d="M23.82,12.64a.53.53,0,0,1,.66.58c0,.4-.25.6-.67.57a.57.57,0,0,1-.49-.55A.58.58,0,0,1,23.82,12.64Z"/><path class="cls-5" d="M21,8.93c0,.44-.16.62-.52.64A.5.5,0,0,1,19.83,9c0-.39.27-.55.6-.56A.53.53,0,0,1,21,8.93Z"/></g></g></g></svg>