<svg xmlns="http://www.w3.org/2000/svg" viewBox="0 0 27.77 27.81"><defs><style>.cls-1{fill:#fee7c7;}.cls-2{fill:#dab17d;}.cls-3{fill:#f6d4a8;}.cls-4{fill:#fef2df;}.cls-5{fill:#fedeb8;}.cls-6{fill:#fedfb8;}</style></defs><g id="Capa_2" data-name="Capa 2"><g id="START11"><g id="Proteina"><path class="cls-1" d="M12.18,27.7c-.62.1-1.26,0-1.9.11-2.59,0-5.19,0-7.78,0a4.38,4.38,0,0,1-1.14-.07A2,2,0,0,1,0,25.61c0-.7,0-1.39,0-2.09a1.13,1.13,0,0,1,.21-.83c0-5.39,0-10.77,0-16.16A1.8,1.8,0,0,1,1,4.87a3.92,3.92,0,0,1,2.37-.1c.46.53.28,1.21.34,1.8a19.42,19.42,0,0,0,3.2,9.07c.14-.71.43-1.06.89-1.06a.77.77,0,0,1,.77.71c.16.68-.09,1.12-.83,1.44a17.24,17.24,0,0,0,3.85,3.73A19.1,19.1,0,0,0,21.1,24a3.74,3.74,0,0,1,1.89.31c.17,1.07.41,2.16-.61,3a3.2,3.2,0,0,1-.58.35,3,3,0,0,1-.94.08H15.8"/><path class="cls-2" d="M22.24,27.29c1-.83.62-1.95.65-3a1.7,1.7,0,0,1-.2-1.17q0-8,0-15.9a4.17,4.17,0,0,0-.26-1.65.67.67,0,0,1,.25-.66c1.39-1.41,2.8-2.82,4.21-4.22a.67.67,0,0,1,.35-.19,1.23,1.23,0,0,1,.53,1.16q0,9.91,0,19.82a4.4,4.4,0,0,1-.15.79,2.11,2.11,0,0,1-.73,1.46c-1,1-1.93,1.95-2.9,2.91a3.13,3.13,0,0,1-1.24.79C22.57,27.5,22.31,27.65,22.24,27.29Z"/><path class="cls-3" d="M27.24.52c-1.51,1.65-3.1,3.23-4.75,4.75-.73,0-1.45-.19-2.19-.19-5.23,0-10.45,0-15.67,0a1.58,1.58,0,0,1-1.16-.22H1C2.35,3.57,3.62,2.24,5,1A4,4,0,0,1,7.72,0H26A1.31,1.31,0,0,1,27.24.52Z"/><path class="cls-4" d="M3.47,4.87H21.24a2.58,2.58,0,0,1,1.25.41,3.21,3.21,0,0,1,.43,1.92c0,5.71,0,11.41,0,17.12A19.56,19.56,0,0,1,7.29,16.5c.41-.09.76.1,1-.2a1.15,1.15,0,0,0,.18-.9c0-.42-.22-.75-.73-.66s-.65.58-.51,1.32C5.6,15.19,3.43,8.71,3.47,4.87Z"/><path class="cls-5" d="M7.39,11.21c.58,0,.87.35.8,1A1.76,1.76,0,0,1,6.5,13.51a.77.77,0,0,1-.72-.88A1.73,1.73,0,0,1,7.39,11.21Z"/><path class="cls-6" d="M19,11.53c-.05.41-.05.86-.6.89s-.71-.45-.72-.85.11-.89.69-.89S19,11.13,19,11.53Z"/></g></g></g></svg>