<svg xmlns="http://www.w3.org/2000/svg" viewBox="0 0 33.8 33.77"><defs><style>.cls-1{fill:#fbc754;}.cls-2{fill:#fbda75;}.cls-3{fill:#f8bb43;}.cls-4{fill:#e7aa3d;}.cls-5{fill:#e8aa3d;}.cls-6{fill:#e8aa3e;}.cls-7{fill:#fbc855;}</style></defs><g id="Capa_2" data-name="Capa 2"><g id="START11"><g id="Carbs"><path class="cls-1" d="M6.08,26.91C3,24.22.75,21,.16,16.88a19.27,19.27,0,0,0,4.75-1,14.35,14.35,0,0,0,8.81-9.58,22.11,22.11,0,0,0,.61-3.5A1.67,1.67,0,0,0,14.15,2c.09-.68-.14-1.42.38-2A14.56,14.56,0,0,1,25,4c.69.64,1.32,1.34,2,2a14.19,14.19,0,0,1,2.44,5.43,14.56,14.56,0,0,1-3.43,13.19,14.4,14.4,0,0,1-11.37,5A13.66,13.66,0,0,1,6.2,27S6.12,26.92,6.08,26.91Z"/><path class="cls-2" d="M14.53,0l-.26,2.1a3.69,3.69,0,0,1-.36,2.29A14.76,14.76,0,0,1,1.7,14.5a3.3,3.3,0,0,1-1.68,0,5.76,5.76,0,0,1,1.11-2.85A36.45,36.45,0,0,1,7.62,4.24,22.34,22.34,0,0,1,12.78.51,3.86,3.86,0,0,1,14.53,0Z"/><path class="cls-3" d="M27.86,7a9.8,9.8,0,0,1,1.42,1.46,14.12,14.12,0,0,1,1.66,3C33,17,32.28,22.12,28.49,26.74a14,14,0,0,1-9.75,5.19,14.1,14.1,0,0,1-10.1-2.57.44.44,0,0,0-.19-.07A14.18,14.18,0,0,1,7,27.83c.4-.21.67.11.94.29a14,14,0,0,0,6,2.18,14.22,14.22,0,0,0,11.07-3,14,14,0,0,0,5.43-9.82A14.37,14.37,0,0,0,28.18,8C28,7.69,27.64,7.42,27.86,7Z"/><path class="cls-3" d="M29.84,9a13.17,13.17,0,0,1,3.53,6.5,14.42,14.42,0,0,1-4.15,14.17,14.75,14.75,0,0,1-19.7.63L9,29.81c.27-.16.46,0,.65.16a16.41,16.41,0,0,0,6.46,2.32,13.75,13.75,0,0,0,7.23-1,14.27,14.27,0,0,0,9-11.71,15,15,0,0,0-2.24-9.89C29.93,9.49,29.71,9.3,29.84,9Z"/><path class="cls-4" d="M27.86,7a4.38,4.38,0,0,0,.8,1.43,14.61,14.61,0,0,1,1.94,9.1,14,14,0,0,1-3.36,7.85,14.26,14.26,0,0,1-9.19,5.12A14.56,14.56,0,0,1,7.82,28.25,1.75,1.75,0,0,0,7,27.83a5.4,5.4,0,0,1-.93-.92.17.17,0,0,1,.28,0,13.67,13.67,0,0,0,6.35,2.51,14.35,14.35,0,0,0,10.9-2.79,14.26,14.26,0,0,0,5.63-8.82,14.52,14.52,0,0,0-2-10.95c-.14-.23-.5-.4-.31-.77A5.84,5.84,0,0,1,27.86,7Z"/><path class="cls-3" d="M0,14.51a25.22,25.22,0,0,0,3.87-.65,14.66,14.66,0,0,0,5.73-3.22,14.79,14.79,0,0,0,4-5.94,16.76,16.76,0,0,0,.65-2.6.48.48,0,0,1,.25.55A15.27,15.27,0,0,1,10.81,12a14.65,14.65,0,0,1-8.08,4.7,5.32,5.32,0,0,1-2.57.2A12.53,12.53,0,0,1,0,14.51Z"/><path class="cls-5" d="M29.84,9c.45.85.94,1.68,1.35,2.55a14.32,14.32,0,0,1,1.2,8.75A14.73,14.73,0,0,1,19.64,32.47,14.91,14.91,0,0,1,9.52,30,4.23,4.23,0,0,0,9,29.81a1.35,1.35,0,0,1-.54-.52c.27-.27.41.06.55.15a14.52,14.52,0,0,0,9.72,2.32,14.17,14.17,0,0,0,7.94-3.44,14.28,14.28,0,0,0,5.11-9.54,14.34,14.34,0,0,0-2.22-9.67c-.12-.19-.44-.34-.27-.67Z"/><path class="cls-6" d="M26.54,12.13c-.07.33-.26.62-.63.62a.52.52,0,0,1-.56-.53.55.55,0,0,1,.54-.62A.57.57,0,0,1,26.54,12.13Z"/><path class="cls-6" d="M16.78,15.6c0,.37-.2.62-.54.6a.61.61,0,0,1-.62-.63.53.53,0,0,1,.61-.54A.57.57,0,0,1,16.78,15.6Z"/><path class="cls-5" d="M10,21.8a.7.7,0,0,1-.59.6c-.37.05-.57-.19-.58-.55a.53.53,0,0,1,.54-.61C9.8,21.2,9.92,21.47,10,21.8Z"/><path class="cls-6" d="M17.77,7.5c-.3-.1-.58-.28-.57-.61a.52.52,0,0,1,.58-.57.55.55,0,0,1,.57.58C18.37,7.3,18.08,7.4,17.77,7.5Z"/><path class="cls-5" d="M22.71,20.54c0,.32-.19.55-.52.55s-.54-.25-.53-.61a.5.5,0,0,1,.52-.55C22.55,19.93,22.7,20.19,22.71,20.54Z"/><path class="cls-7" d="M8.06,8.07c0,.36-.17.62-.55.61a.61.61,0,0,1-.6-.58.52.52,0,0,1,.56-.59A.55.55,0,0,1,8.06,8.07Z"/><path class="cls-7" d="M11.69,4.52c-.08.31-.22.6-.6.59a.5.5,0,0,1-.52-.55.51.51,0,0,1,.48-.6C11.43,3.92,11.58,4.21,11.69,4.52Z"/></g></g></g></svg>