<svg xmlns="http://www.w3.org/2000/svg" viewBox="0 0 16.19 30.11"><defs><style>.cls-1{fill:#feab3e;}.cls-2{fill:#8bc832;}.cls-3{fill:#f89d32;}.cls-4{fill:#f89e32;}.cls-5{fill:#80b525;}.cls-6{fill:#f8d068;}.cls-7{fill:#81b526;}.cls-8{fill:#f8d26b;}.cls-9{fill:#fec243;}.cls-10{fill:#fec343;}.cls-11{fill:#f8d26a;}</style></defs><g id="Capa_2" data-name="Capa 2"><g id="START11"><g id="Verduras"><path class="cls-1" d="M.08,20.19a52.18,52.18,0,0,0,.8,8.28,1.33,1.33,0,0,0,.37.77A1.37,1.37,0,0,0,2,28.71a58.88,58.88,0,0,0,8.55-11.6,1.64,1.64,0,0,0,.29-.74.35.35,0,0,0-.1-.19,9.94,9.94,0,0,0-1.94-.69,4.09,4.09,0,0,1-.49-.18c-.14-.08-.29-.16-.25-.35s.22-.22.38-.21a3.61,3.61,0,0,1,1,.23,11.71,11.71,0,0,0,1.67.44.59.59,0,0,0,.22-.05c2.28-3,2.1-6.74-1.11-8.65a5.84,5.84,0,0,0-1.73-.86,3.07,3.07,0,0,0-2.13-.18,4.8,4.8,0,0,0-4.76,2.2c-.25.47.17.54.42.63.77.29,1.58.48,2.36.75.3.1.83.14.72.52s-.6.16-.91.07c-.8-.21-1.58-.47-2.37-.7a1,1,0,0,0-.84,0,25.05,25.05,0,0,0-.7,4.47A43.28,43.28,0,0,0,0,19.05c.16.31.48.37.77.46.81.26,1.62.48,2.42.75.18.06.47.12.41.36s-.37.15-.57.1c-.73-.19-1.44-.45-2.17-.63C.63,20,.3,19.8.08,20.19Z"/><path class="cls-2" d="M6.33,5.68a7.86,7.86,0,0,1,2.09.38c.53-.07.93.39,1.44.36A.79.79,0,0,0,10.22,6c.49-1,1-2,1.51-3.06A1.73,1.73,0,0,0,11.26.48,1.66,1.66,0,0,0,9.08,1.92C8.93,3,8.79,4.05,8.6,5.12a11.73,11.73,0,0,1-.27-2.28c0-.4-.05-.8-.08-1.2A1.63,1.63,0,0,0,7.07.09,1.58,1.58,0,0,0,5.35.53,1.65,1.65,0,0,0,5,2.39C5.44,3.49,5.88,4.58,6.33,5.68Z"/><path class="cls-3" d="M7.22,26.15a48.88,48.88,0,0,0,5.18-7.37c.33-.55.62-1.13.92-1.7a3.18,3.18,0,0,0-2-.74c-.32.08-.43.36-.57.61a57.57,57.57,0,0,1-5,7.61c-.25.32-.61.63-.34,1.12A2.59,2.59,0,0,0,7.22,26.15Z"/><path class="cls-3" d="M9.89,6.36c-.5-.07-.94-.4-1.47-.3,1.9.71,3.47,1.78,4.05,3.87a5.53,5.53,0,0,1-.73,4.39c-.19.32-.19.74-.51,1a3.76,3.76,0,0,0,2.6.83,11.33,11.33,0,0,0,1.33-3.32,4.93,4.93,0,0,0-2.69-5.29.93.93,0,0,0-.56-.47c-.45-.31-1-.42-1.47-.69A.66.66,0,0,0,9.89,6.36Z"/><path class="cls-4" d="M5.31,25.56a5.8,5.8,0,0,1,1.18-1.75,56.19,56.19,0,0,0,4.59-7.13,1.25,1.25,0,0,0,.09-.25.28.28,0,0,0-.39-.12,58.6,58.6,0,0,1-4.29,6.74,50,50,0,0,1-5.15,6,.68.68,0,0,0-.09.17,2,2,0,0,0,3,.3,18.4,18.4,0,0,0,2.12-2.38c.07-.5-.35-.57-.66-.67C5.18,26.33,5,26.05,5.31,25.56Z"/><path class="cls-2" d="M10.4,6.53c.43.35,1,.38,1.46.68.8-.59,1.63-1.13,2.47-1.68A1.85,1.85,0,0,0,15.16,3c-.16-.36.18-.16.2-.28a1.61,1.61,0,0,0-2.23.38c-.63.77-1.22,1.57-1.83,2.36-.11.15-.18.36-.41.39A.56.56,0,0,0,10.4,6.53Z"/><path class="cls-5" d="M15.36,2.7l-.62-.19A2.38,2.38,0,0,1,15.21,4a1.67,1.67,0,0,1-.72,1.23c-.65.45-1.33.86-2,1.3-.26.18-.61.28-.63.68l.61.32c1-.67,2-1.31,3-2A1.65,1.65,0,0,0,15.36,2.7Z"/><path class="cls-6" d="M1,9.12l3.59,1.09c.37.11.74.16.88-.29s-.19-.63-.56-.74L2,8.32c-.22-.06-.52-.07-.47-.44A2.6,2.6,0,0,0,1,9.12Z"/><path class="cls-7" d="M10.4,6.53l.49-.7a25.44,25.44,0,0,1,1.37-2.89,1.68,1.68,0,0,0-1-2.46c.11.4.48.66.56,1.1a2.74,2.74,0,0,1-.48,1.68,25,25,0,0,0-1.45,3.1Z"/><path class="cls-8" d="M.08,20.19a6.49,6.49,0,0,1,2,.49c.41.1.81.24,1.21.37s.53.06.64-.27,0-.54-.37-.64L0,19.05A3.12,3.12,0,0,0,.08,20.19Z"/><path class="cls-9" d="M10.78,16.31l.39.12,2.15.65.51-.94-2.6-.83v0a.9.9,0,0,0-.43,1Z"/><path class="cls-10" d="M5.31,25.56c-.33.06-.42.31-.42.59s.28.35.51.43.79.15,1,.58a3.87,3.87,0,0,0,.84-1Z"/><path class="cls-6" d="M10.79,16.3c.11-.34.39-.6.43-1l-2.49-.77c-.4-.12-.82-.14-1,.3s.28.62.65.73Z"/><path class="cls-11" d="M5.25,21.64c.33.06.72.32.86-.17s-.29-.66-.69-.77-.67-.24-.8.24S5,21.5,5.25,21.64Z"/></g></g></g></svg>