<svg xmlns="http://www.w3.org/2000/svg" viewBox="0 0 82.54 69.69"><defs><style>.cls-1{fill:#cb3836;}.cls-2{fill:#992e2d;}.cls-3{fill:#a92623;}.cls-4{fill:#cc3736;}.cls-5{fill:#f0f0ee;}</style></defs><g id="Capa_2" data-name="Capa 2"><g id="TIENDA"><g id="Gorros"><path class="cls-1" d="M52,4.59C65.19,7.14,76.87,14.92,79.67,29.47c0,2.12.72,4.14,1,6.22.67,4.44,1.05,8.92,1.55,13.38.11,1,.27,2.18-.69,2.78s-1.83-.14-2.64-.64c-1.18-.73-2.51-1.13-3.73-1.77a8,8,0,0,0-2.57-1.24,2.78,2.78,0,0,1-2.07-2.68c-.48-4.86-1-9.73-1.86-14.54a49.77,49.77,0,0,0-2.58-9C63.45,15.1,58.53,10.28,52.23,6.72,51.47,6.29,50.55,6,50.3,5,50.77,4.45,51.46,5,52,4.59Z"/><path class="cls-1" d="M3.47,26.94c2.59-9.18,8.74-15.19,17.14-19.15A38.62,38.62,0,0,1,32.12,4.26c.3.16.83-.08,1,.39s-.35.76-.7.94c-1.55.82-3.07,1.66-4.54,2.63C20.68,13,16.5,19.66,14.47,27.89a111.11,111.11,0,0,0-2.44,18,2.4,2.4,0,0,1-.29,1.39c-1.32,1.17-3.1,1.34-4.6,2.13A38.8,38.8,0,0,0,2.9,51.58c-.62.42-1.33.88-2,.35a2.3,2.3,0,0,1-.63-2.2c.19-2.8.59-5.58.89-8.37a108.16,108.16,0,0,1,2.4-13.95A1,1,0,0,0,3.47,26.94Z"/><path class="cls-2" d="M3.47,26.94C3.68,29,3,31,2.58,33c-.83,4.27-1.2,8.59-1.75,12.89a24.51,24.51,0,0,0-.29,4.76c.07,1.21.67,1.55,1.66.84,2.88-2.08,6.2-3.18,9.47-4.42a1.73,1.73,0,0,1,1.2-.66,9.71,9.71,0,0,0,5.32-1.88,11.86,11.86,0,0,1,4.39-1,34.46,34.46,0,0,0,6.78-.92,4.55,4.55,0,0,0,2.23-.68c2.26-.46,4.5-1.06,6.84-.64a5.81,5.81,0,0,0,5,0c2.63-.44,5.17.19,7.73.62,1.9,1.06,4.07,1,6.13,1.47a9.14,9.14,0,0,0,3.29.42c2.25,0,4.22,1.08,6.33,1.65a2.63,2.63,0,0,0,2,.65,1.84,1.84,0,0,1,1.45.5A16.21,16.21,0,0,0,75.24,49a26.61,26.61,0,0,1,4.59,2.15c1.5,1,2.09.67,2.13-1.12a82.2,82.2,0,0,0-.81-9,71.56,71.56,0,0,0-1.72-10.48,1,1,0,0,1,.24-1,124.34,124.34,0,0,1,2.82,19.86c.13,1.55.14,3.3-2,3.83-.81.2-.43.88-.39,1.33a38.82,38.82,0,0,1,0,9.87,9,9,0,0,1-.91,2.87,4.15,4.15,0,0,1-5.06,2.31,19.24,19.24,0,0,1-5.22-2.32c-7-4-14.36-7.17-22.46-8.27A43.88,43.88,0,0,0,24.28,62,75.35,75.35,0,0,0,12,68.11a10.9,10.9,0,0,1-1.72.83c-4.3,1.78-7.16.15-7.9-4.47a35.71,35.71,0,0,1,.17-10c.07-.51.38-1.08-.44-1.27C0,52.71-.09,51.07,0,49.44c.19-2.6.51-5.19.8-7.78A83.68,83.68,0,0,1,3.47,26.94Z"/><path class="cls-3" d="M18.08,44.82c-1.12,1.44-2.87,1.64-4.45,2a16.47,16.47,0,0,1-2,.23c-.48-1.31,0-2.64.07-3.92.55-7.12,1.36-14.2,4-20.93A30.24,30.24,0,0,1,26.89,8.26a27.12,27.12,0,0,1,5.34-3.1c1.15-.46,0-.62-.11-.9C32.74,4.13,33.35,4,34,3.9c1.4-.18,2.61-.21,3.31-2S40.12-.1,42,.05A3.72,3.72,0,0,1,45.57,2.5c.18.5.31,1,1,1.09,1.81.3,3.6.66,5.4,1-.33.42-.89.2-1.45.45,2,1.46,4.21,2.45,6.11,3.89A30.23,30.23,0,0,1,67.74,25.09,98.56,98.56,0,0,1,70.8,43.18c.1,1,.35,2.08.35,3.16,0,.82.76,1.07,1.39,1.34A7.55,7.55,0,0,1,75.24,49c-1.85.09-3.18-1.23-4.79-1.8-.76-.26-1.34-.93-2.32-.52-.52.21-.9-.4-1.17-.87,2.19-.81,2.22-.93,2-3.51a111.12,111.12,0,0,0-2.65-15.87C63.65,15.73,54,6.59,43.14,4.92a15.37,15.37,0,0,0-8,1c-9.54,3.78-16,10.4-18.88,20.41-1.66,5.82-2.12,11.82-2.8,17.79-.17,1.52,0,1.54,1.47,1.1C16,44.92,16.92,44.05,18.08,44.82Z"/><path class="cls-4" d="M18.08,44.82c-1.52.1-2.82.89-4.22,1.34-.89.29-1.22,0-1.1-.89.73-5.18,1-10.43,2.13-15.55,1.42-6.55,3.92-12.57,8.9-17.27a29.54,29.54,0,0,1,14.94-8c4-.73,7.74.32,11.33,2,8.13,3.87,13.81,10,16.41,18.65a65.48,65.48,0,0,1,2.75,15.44c.07,1.31.29,2.62.33,3.95s-.48,1.86-1.81,1.34a2.88,2.88,0,0,0-.78-.11c-2.23-.13-4.17-1.43-6.39-1.61-3.08-.7-6.21-1.12-9.27-1.91-2.68,0-5.29-.77-8-.62a8.82,8.82,0,0,1-4.78,0c-2.38-.13-4.67.62-7,.64a87.63,87.63,0,0,1-8.94,1.6C21,44,19.64,44.8,18.08,44.82Z"/><path class="cls-5" d="M43.71,42.76c10.14.08,21.88,3.18,33.19,8.15a2,2,0,0,1,1.4,1.71c.55,3.8,1.28,7.57.14,11.39-.75,2.54-2,3.24-4.55,2.49a33.7,33.7,0,0,1-6.45-3.13,61.6,61.6,0,0,0-19.37-7.09c-8.72-1.48-17,.1-25.12,3.36a95.93,95.93,0,0,0-10.56,5.23,16.21,16.21,0,0,1-4.27,1.75c-2,.45-3.11-.16-3.83-2.12-1.06-2.9-.54-5.87-.51-8.84,0-3.3,1.62-4.8,4.57-6A95.18,95.18,0,0,1,43.71,42.76Z"/><path class="cls-3" d="M51.3,42.25a25,25,0,0,1,9.27,1.91c-.08.07-.17.21-.23.19q-4.38-.76-8.73-1.59C51.48,42.73,51.4,42.42,51.3,42.25Z"/><path class="cls-3" d="M22.56,43.86a33.93,33.93,0,0,1,8.94-1.6.69.69,0,0,1-.62.62l-7.14,1.25A1.15,1.15,0,0,1,22.56,43.86Z"/><path class="cls-3" d="M38.53,41.62a24.63,24.63,0,0,1,4.78,0C42.39,42.54,39.45,42.54,38.53,41.62Z"/></g></g></g></svg>