<svg xmlns="http://www.w3.org/2000/svg" viewBox="0 0 91.1 49.81"><defs><style>.cls-1{fill:#e38793;}.cls-2{fill:#bc616b;}.cls-3{fill:#bb5f6b;}</style></defs><g id="Capa_2" data-name="Capa 2"><g id="TIENDA"><g id="Gorros"><path class="cls-1" d="M2.45,24.55C2.39,22.69,1.6,21,1.19,19.23c-.93-4-1.67-8-.81-12.13C1.47,1.85,5.13-.68,10.41.16a44.77,44.77,0,0,1,15.49,6A53.38,53.38,0,0,1,36.13,14a1.82,1.82,0,0,0,1.85.7,27.25,27.25,0,0,1,15,.13c.91.27,1.45-.33,2-.85A58.54,58.54,0,0,1,72.89,2.8a30.54,30.54,0,0,1,8.62-2C88,.34,91,4.46,91.09,10.24c.1,3.92-1,7.66-1.89,11.44-.3,1.37-.85,2.71-.6,4.16-1.28,2.19-.39,4.42,0,6.6a18.31,18.31,0,0,1-1.88,11.91,6.62,6.62,0,0,1-6.3,3.84,17.38,17.38,0,0,1-7-1.3,54.43,54.43,0,0,1-16.85-10.8,6.26,6.26,0,0,1-1.41-7.35c.59-1.3,1.67-1.39,2.86-1.13a35.93,35.93,0,0,1,7.87,2.88,19.85,19.85,0,0,0-8.34-3.83c-1-.25-1.94-.54-2.07-1.78a2.52,2.52,0,0,1,1.5-2.57A41.75,41.75,0,0,1,68.59,18a31,31,0,0,0-9.77,2.33c-2.88,1.25-3.27,1.06-4.15-1.94-.15-.51-.12-1.13-.89-1.56.89,3.89.73,7.7.7,11.5a18.3,18.3,0,0,1-1.1,6.42c-5.39,1.6-10.76.91-16.13-.1a35.17,35.17,0,0,1-.35-17.81,8,8,0,0,0-1.07,2.76c-.34,1.29-1.08,1.78-2.35,1.26a37.06,37.06,0,0,0-12.14-3A38.67,38.67,0,0,1,32.6,21.7c1.3.73,2.84,1.17,2.64,3.11s-1.77,1.79-3,2.15a21.14,21.14,0,0,0-7.58,3.44,38.61,38.61,0,0,1,8-2.67c1.93-.39,2.54,0,3.14,1.86.94,2.82.55,4.9-2,7a65.27,65.27,0,0,1-16.71,9.86,16.74,16.74,0,0,1-7.24,1.26A6.37,6.37,0,0,1,4,43.88C2,40,2,35.85,2.48,31.66c.21-1.75.58-3.48.76-5.24.07-.67.12-1.27-.61-1.61Z"/><path class="cls-2" d="M89,26.27c0,.39.65,5.66.88,9.42a16.69,16.69,0,0,1-.51,5.61c-.46,1.74-1.26,4.76-3.48,6.63a9.12,9.12,0,0,1-5.41,1.84c-1.88.15-6.24.15-14.8-5.18a67.43,67.43,0,0,1-12.32-9.86,1.84,1.84,0,0,1-.31-1.4,39.68,39.68,0,0,0,0-16.35c-.11-.59-.38-1.33.48-1.61s1.09.41,1.28,1a19.41,19.41,0,0,1,.65,2.22c.48,2.33.45,2.29,2.66,1.27A25.15,25.15,0,0,1,71,17.44c-.6,1-1.53,1-2.27,1.18a44.66,44.66,0,0,0-11.47,4.22c-.79.45-1.39.84-1.35,1.89s.88,1,1.61,1.21a21.65,21.65,0,0,1,9.11,4.23c.59.49.6.47,1.1,1.89-1.93-.85-3.67-1.7-5.47-2.39-1.58-.61-3.21-1.06-4.83-1.54-1.25-.38-1.61.21-2,1.42-1.06,3.62.78,5.67,3.35,7.78a61.5,61.5,0,0,0,15.76,9.33,15.6,15.6,0,0,0,7.5.77c1.73-.16,2.82-1.33,3.72-2.82,2.63-4.39,2.85-9.06,1.76-13.89a19.05,19.05,0,0,1-.23-4.64c0-1.63.79-.47,1.28-.24Z"/><path class="cls-3" d="M9.36,49.26c-3.83.29-6.71-4.38-7.68-7.73a15.64,15.64,0,0,1-.51-3.25,27.6,27.6,0,0,1,.09-5.53,65.08,65.08,0,0,1,1.32-8.1c2-.93,1.56.55,1.43,1.55-.46,3.55-1.33,7.06-1.12,10.69a18.43,18.43,0,0,0,1,5.17c1.5,4.27,4.34,5.73,8.94,4.9,3.68-.66,6.89-2.41,10.2-4,4.51-2.15,8.24-5.36,12.1-8.43,1-.78.65-1.61.46-2.46-1.12-4.85.06-4.37-4.9-3.2a32.53,32.53,0,0,0-4,1.39,33.37,33.37,0,0,1-3.94,1.4,8.92,8.92,0,0,1,4.37-3.59,29.22,29.22,0,0,1,6-2c.7-.16,1.58-.12,1.61-1.28s-.5-1.52-1.43-2A48.57,48.57,0,0,0,19.19,18a1.75,1.75,0,0,1,1.94-1,35.94,35.94,0,0,1,12.24,3c1.19.52,1.67.64,1.89-.91a6.15,6.15,0,0,1,1.36-3.5c.3-.32.71-.56,1.13-.29s.13.61,0,1a32.32,32.32,0,0,0,0,17.45c.13.47-.37.52-.5.82C30.41,41.71,22.36,46.74,12.7,49A23.15,23.15,0,0,1,9.36,49.26Z"/></g></g></g></svg>