<svg xmlns="http://www.w3.org/2000/svg" viewBox="0 0 42.9 21.57"><defs><style>.cls-1{fill:#fe9898;}.cls-2{fill:#fa5858;}.cls-3{fill:#fbbaba;}.cls-4{fill:#d27f7f;}.cls-5{fill:#c94c4c;}.cls-6{fill:#dba2a2;}.cls-7{fill:#c84b4b;}.cls-8{fill:#daa1a1;}.cls-9{fill:#f95959;}</style></defs><g id="Capa_2" data-name="Capa 2"><g id="START11"><g id="Proteina"><path class="cls-1" d="M5.48.42a10.19,10.19,0,0,1,4.59-.3c2.21.24,4.4.63,6.61.84,1.14.1,2.29-.09,3.44-.1A83.94,83.94,0,0,1,38.2,2.7c3.66.77,5.29,3.72,4.5,6.57,0,.1,0,.2,0,.3-.93.62-2,.36-3,.29-3-.23-6.08-.28-9.11-.53-1.24-.11-2.5-.16-3.74-.31A54.69,54.69,0,0,0,9,9.89c-1,.22-2,.55-3,.78a2.72,2.72,0,0,1-1.3.11.78.78,0,0,1-.5-.47C2.6,6.81,2.39,3.42,5.48.42Z"/><path class="cls-2" d="M42.06,12l-1.62,6.88c-.54.42-1,0-1.52-.12a64.32,64.32,0,0,0-12.65-3.29,25.51,25.51,0,0,0-9.45.86c-3.22.78-6.44,1.57-9.62,2.53a3,3,0,0,1-1.29.21A.73.73,0,0,1,5.59,19a9,9,0,0,1-.71-5.4,2.56,2.56,0,0,1,1.21-.48A115.32,115.32,0,0,1,17.88,11,74.08,74.08,0,0,1,28.31,11c.74,0,1.48.12,2.23.12,3.27,0,6.54.21,9.81.44A2.54,2.54,0,0,1,42.06,12Z"/><path class="cls-3" d="M5.89,19a132.41,132.41,0,0,1,15.43-3.76,22.55,22.55,0,0,1,8.34.59,71.16,71.16,0,0,1,9.9,2.93,6.63,6.63,0,0,0,.88.21,3.44,3.44,0,0,1-.38,1.24,2.15,2.15,0,0,1-1.54.33c-2.74,0-5.48.05-8.22,0a1.94,1.94,0,0,1-.54-.05A32.78,32.78,0,0,0,25.54,19a9.48,9.48,0,0,0-5.77.23c-1.1.42-2.24.76-3.34,1.19a2,2,0,0,1-.54.07c-2.6.07-5.2,0-7.8,0A2.64,2.64,0,0,1,6.36,20C6,19.77,5.63,19.49,5.89,19Z"/><path class="cls-3" d="M42.06,12c-4.2-.43-8.42-.52-12.64-.68-2.47-.1-4.94-.07-7.4-.18A46.2,46.2,0,0,0,11.8,12.32c-2.32.42-4.63.91-6.94,1.36l-.12-.1a5.64,5.64,0,0,1-.47-2.72.63.63,0,0,1,.2-.26c2-.2,3.79-.9,5.7-1.29a54.14,54.14,0,0,1,14.08-.89c3.48.21,7,.64,10.45.79,2.66.11,5.31.43,8,.36A12.93,12.93,0,0,1,42.06,12Z"/><path class="cls-4" d="M4.47,10.6l0,.19a5.68,5.68,0,0,1-3.24,1C.31,9.65-.52,7.47.4,5.08A7.11,7.11,0,0,1,5.48.42c0,.56-.43.84-.71,1.21A7,7,0,0,0,3.64,8C3.88,8.88,4.19,9.73,4.47,10.6Z"/><path class="cls-5" d="M29.67,20.14h.41A5.86,5.86,0,0,1,32,20.8c.26.18.64.29.53.74H13.23c.1-.71.77-.71,1.23-1a9.42,9.42,0,0,1,1.6-.43l.42,0a10.4,10.4,0,0,1,2.89-.35c2.44,0,4.87,0,7.3,0A10.81,10.81,0,0,1,29.67,20.14Z"/><path class="cls-6" d="M16.06,20.16c-.89.57-2,.69-2.83,1.39l-8.59,0a2.3,2.3,0,0,1-2.38-1.65,7.5,7.5,0,0,1,3.42-1l.21,0a1.69,1.69,0,0,0,1.87,1.2Z"/><path class="cls-7" d="M5.68,18.92a12.24,12.24,0,0,1-3.42,1L1.6,15.08c-.24-.64,0-1.06.64-1.18.87-.17,1.71-.68,2.64-.27l0,0A49.18,49.18,0,0,0,5.68,18.92Z"/><path class="cls-6" d="M32.48,21.54c-.65-.72-1.64-.85-2.4-1.39h10a2,2,0,0,1-2,1.4C36.2,21.6,34.34,21.55,32.48,21.54Z"/><path class="cls-8" d="M4.88,13.63c-.85.18-1.69.41-2.54.53-.6.09-.8.37-.74.92a15.45,15.45,0,0,1-.4-3.25,20.38,20.38,0,0,1,3.24-1C4.59,11.73,4.73,12.68,4.88,13.63Z"/><path class="cls-9" d="M29.67,20.14H16.47A13,13,0,0,1,29.67,20.14Z"/></g></g></g></svg>