<svg xmlns="http://www.w3.org/2000/svg" viewBox="0 0 35.91 28.69"><defs><style>.cls-1{fill:#fe9393;}.cls-2{fill:#ea6f6d;}.cls-3{fill:#f4c9a6;}.cls-4{fill:#f4c8a6;}</style></defs><g id="Capa_2" data-name="Capa 2"><g id="START11"><g id="Proteina"><path class="cls-1" d="M29.1,4c.88-.54,1.41-1.47,2.26-2.06a12,12,0,0,1,4-1.85c.55-.15.61.05.6.5,0,1.28,0,2.57,0,3.86-.18.13-.39.06-.59.08a1,1,0,1,0,0,2c.2,0,.41,0,.59.08V26.85c-.24,0-.29-.19-.33-.36a4.58,4.58,0,0,0-2.42-2.77,10.69,10.69,0,0,0-3.24-1.23A4.33,4.33,0,0,1,27,20.16a11.49,11.49,0,0,1-1.14-4.7,16.19,16.19,0,0,1,1.65-9.07A23.32,23.32,0,0,1,29.1,4Z"/><path class="cls-1" d="M24.3,21c-.27.23-.14.53-.15.79,0,1.7,0,3.39,0,5.08-.25,0-.29-.19-.34-.36a4.6,4.6,0,0,0-2.41-2.77,10.9,10.9,0,0,0-3.24-1.23,4.33,4.33,0,0,1-2.92-2.33,11.33,11.33,0,0,1-1.14-4.7,16,16,0,0,1,1.65-9.07A24.93,24.93,0,0,1,17.34,4c.88-.54,1.41-1.47,2.26-2.06a12.06,12.06,0,0,1,4-1.85c.55-.15.6.05.59.5,0,1.28,0,2.57,0,3.86-.19.13-.4.06-.59.08a1,1,0,1,0,0,2c.19,0,.4,0,.59.08.11.66-.15,1.34.15,2,.14.25,0,.45-.1.65-1.54,3.6-1.25,7.2-.07,10.81C24.21,20.34,24.45,20.62,24.3,21Z"/><path class="cls-1" d="M13,22.1l0,4.75c-.24,0-.29-.19-.33-.36a4.58,4.58,0,0,0-2.42-2.77A10.69,10.69,0,0,0,7,22.49a4.33,4.33,0,0,1-2.92-2.33,11.33,11.33,0,0,1-1.14-4.7A16.19,16.19,0,0,1,4.59,6.39,24.93,24.93,0,0,1,6.2,4c.89-.54,1.41-1.47,2.26-2.06a12.16,12.16,0,0,1,4-1.85c.55-.15.6.05.6.5,0,1.28,0,2.57,0,3.86-.18.13-.39.06-.59.08a1,1,0,1,0,0,2c.2,0,.41,0,.59.08.09.31-.12.67.18.93a.68.68,0,0,1-.14.58,13.06,13.06,0,0,0-1.36,9.38,15.38,15.38,0,0,0,1.19,3.74C13,21.5,13.18,21.77,13,22.1Z"/><path class="cls-2" d="M13,22.1a16.56,16.56,0,0,1-1.86-8.31,10.9,10.9,0,0,1,2-6.26A10.6,10.6,0,0,1,17.34,4c.22.17.06.3-.05.44-2.56,3.21-3.28,7-3,10.94A13,13,0,0,0,15,19.17a4.6,4.6,0,0,0,3.5,3.21A8.74,8.74,0,0,1,23,24.65a4.35,4.35,0,0,1,1.15,2.2c0,1.21-.6,1.85-1.93,1.83a8.69,8.69,0,0,1-5.92-2.61A22.6,22.6,0,0,1,13,22.1Z"/><path class="cls-2" d="M6.2,4c.23.17.06.3,0,.44-2.56,3.21-3.28,7-3,10.94a13.31,13.31,0,0,0,.73,3.83,4.6,4.6,0,0,0,3.51,3.21,8.67,8.67,0,0,1,4.46,2.27A4.35,4.35,0,0,1,13,26.85c0,1.21-.6,1.83-1.93,1.84A8,8,0,0,1,6,26.77,15.28,15.28,0,0,1,.48,10.85,10.37,10.37,0,0,1,6.2,4Z"/><path class="cls-2" d="M24.3,21a14.73,14.73,0,0,1-.44-11.59,7.91,7.91,0,0,1,.42-.82A10.65,10.65,0,0,1,29.1,4c.22.17.06.3-.06.44-2.56,3.21-3.28,7-3,10.94a13.66,13.66,0,0,0,.73,3.83,4.61,4.61,0,0,0,3.51,3.21,8.67,8.67,0,0,1,4.46,2.27,4.35,4.35,0,0,1,1.15,2.2c0,1.18-.57,1.8-1.86,1.84a7.48,7.48,0,0,1-4.35-1.36A15.19,15.19,0,0,1,24.3,21Z"/><path class="cls-3" d="M13,6.6a1.22,1.22,0,0,1-1.59-.34,1.18,1.18,0,0,1,0-1.5A1.21,1.21,0,0,1,13,4.41Z"/><path class="cls-3" d="M24.13,6.6a1.21,1.21,0,0,1-1.59-.34,1.15,1.15,0,0,1,0-1.5,1.2,1.2,0,0,1,1.59-.35Z"/><path class="cls-3" d="M35.88,6.6a1.2,1.2,0,0,1-1.58-.34,1.15,1.15,0,0,1,0-1.5,1.19,1.19,0,0,1,1.58-.35Z"/><path class="cls-4" d="M29.69,14.17a1.24,1.24,0,1,1-1.21,1.22A1.21,1.21,0,0,1,29.69,14.17Z"/><path class="cls-4" d="M32.17,6.13a.6.6,0,0,1,.62.56.6.6,0,1,1-1.2,0C31.59,6.37,31.83,6.19,32.17,6.13Z"/><path class="cls-4" d="M30.3,18.5a.61.61,0,0,1,.63.55.56.56,0,0,1-.57.67.57.57,0,0,1-.63-.61A.62.62,0,0,1,30.3,18.5Z"/><path class="cls-4" d="M19.2,15.42A1.24,1.24,0,1,1,18,14.17,1.21,1.21,0,0,1,19.2,15.42Z"/><path class="cls-4" d="M20.39,7.36c-.35-.08-.6-.29-.55-.68A.6.6,0,1,1,21,6.81.6.6,0,0,1,20.39,7.36Z"/><path class="cls-4" d="M19.19,19.12a.6.6,0,0,1-.58.6.6.6,0,1,1,0-1.2A.59.59,0,0,1,19.19,19.12Z"/><path class="cls-4" d="M8.06,15.38a1.21,1.21,0,0,1-1.25,1.26,1.24,1.24,0,1,1,1.25-1.26Z"/><path class="cls-4" d="M9.92,6.75c-.09.4-.3.64-.69.59a.56.56,0,0,1-.53-.63.56.56,0,0,1,.67-.56A.61.61,0,0,1,9.92,6.75Z"/><path class="cls-4" d="M8.07,19.09c-.08.41-.28.66-.67.63a.6.6,0,1,1,.09-1.2A.64.64,0,0,1,8.07,19.09Z"/></g></g></g></svg>