<svg xmlns="http://www.w3.org/2000/svg" viewBox="0 0 18.87 31.45"><defs><style>.cls-1{fill:#fcd4a5;}.cls-2{fill:#fcc998;}.cls-3{fill:#539efa;}.cls-4{fill:#68b0fb;}.cls-5{fill:#418ffa;}.cls-6{fill:#fbb760;}.cls-7{fill:#fba952;}</style></defs><g id="Capa_2" data-name="Capa 2"><g id="START11"><g id="Otros"><path class="cls-1" d="M4.23,24.93A11.45,11.45,0,0,1,.89,21.41c-1.2-2-1-4.18-.55-6.34a17.45,17.45,0,0,0,.72-4.42,37.35,37.35,0,0,0-.71-4.1,8.88,8.88,0,0,1-.2-3.87A3.63,3.63,0,0,1,3.49,0C7.05,0,10.6,0,14.16,0c2.24.59,3,2.77,2.77,4.65C16.73,6.34,16.27,8,16,9.61a10.66,10.66,0,0,0,.38,4.46A18.15,18.15,0,0,1,17,17.42c.23,2.71-1,4.79-2.92,6.56a7.78,7.78,0,0,1-1.7,1.31,11,11,0,0,1-2.14.07q-2.48,0-4.95,0C4.85,25.36,4.44,25.37,4.23,24.93Z"/><path class="cls-2" d="M12.45,25.12a5.76,5.76,0,0,1,1.16-1,8.32,8.32,0,0,0,3.09-5,11.52,11.52,0,0,0-.26-4,24.21,24.21,0,0,1-.73-4,22.68,22.68,0,0,1,.72-4.56,11.93,11.93,0,0,0,.33-3A3.52,3.52,0,0,0,14.85.48C14.6.36,14.3.3,14.16,0A4.6,4.6,0,0,1,17.5.81a4.05,4.05,0,0,1,1.33,3.83c-.15,1.76-.72,3.44-.93,5.19a10.28,10.28,0,0,0,.31,3.87,19.13,19.13,0,0,1,.65,4c.14,2.69-1.22,4.64-3.1,6.33-.35.32-.73.61-1.1.92-.6.61-1.33.32-2,.29A.4.4,0,0,1,12.45,25.12Z"/><path class="cls-3" d="M4.22,29.33v-1c.47-.35,1-.2,1.51-.19s.86-.12,1-.73A1.66,1.66,0,0,1,8.29,26a13.35,13.35,0,0,1,2.28,0,1.82,1.82,0,0,1,1.62,1.39c.08.26,0,.58.33.75a.5.5,0,0,1,.15.17,1.18,1.18,0,0,1-.05,1,.57.57,0,0,1-.21.13,5.62,5.62,0,0,1-1.36.08H5.21C4.87,29.55,4.5,29.61,4.22,29.33Z"/><path class="cls-4" d="M12.58,28.28c-.33,0-.51,0-.54-.44a1.58,1.58,0,0,0-1.77-1.65c-.59,0-1.18,0-1.77,0a1.58,1.58,0,0,0-1.67,1.56c0,.44-.17.56-.58.54-.68,0-1.35,0-2,0,0-1.12,0-2.24,0-3.36a1.3,1.3,0,0,0,.67.22c2.51,0,5,0,7.55,0l.13.05c.41.63.17,1.34.21,2A1.35,1.35,0,0,1,12.58,28.28Z"/><path class="cls-4" d="M4.22,29.33h8.36a1.48,1.48,0,0,1-1,2.07c-1.92,0-3.83,0-5.75,0C4.72,31.41,4.16,30.63,4.22,29.33Z"/><path class="cls-3" d="M12.58,28.28V25.17c.69-.11,1.41.12,2.08-.18,0,1.1,0,2.2,0,3.3a2.32,2.32,0,0,1-2.07,0Z"/><path class="cls-3" d="M11.54,31.41a2,2,0,0,0,1-2.07h0a2.32,2.32,0,0,1,2.07,0,1.7,1.7,0,0,1-2,2.1A10.28,10.28,0,0,0,11.54,31.41Z"/><path class="cls-5" d="M14.65,29.33H12.58v-1h2.07Z"/><path class="cls-6" d="M11.8,20.94,5.46,21c-.48,0-.71-.19-.74-.69q-.32-4.21-.66-8.43C4,10.52,3.8,9.21,3.69,7.89c-.09-.92.07-1.07,1-1.08a3,3,0,0,1,.52,0c.75.1,1.13-.13,1.48-.91a2.88,2.88,0,0,1,3-1.72,3.19,3.19,0,0,1,2.69,2c.1.26.08.65.51.67.45.19.48.58.44,1-.29,2.91-.46,5.84-.73,8.76-.11,1.19-.17,2.38-.3,3.57A.8.8,0,0,1,11.8,20.94Z"/><path class="cls-7" d="M11.8,20.94c.45-.46.26-1.08.34-1.62.19-1.22.21-2.46.31-3.69.16-2.05.35-4.09.5-6.14a13.82,13.82,0,0,1,.15-1.82,1,1,0,0,0-.25-.84c.5,0,1,0,1.5,0s.9.21.85.84c-.1,1.23-.19,2.47-.29,3.71s-.25,2.72-.36,4.08c-.14,1.65-.27,3.3-.4,4.94a.55.55,0,0,1-.65.57Z"/></g></g></g></svg>