<svg xmlns="http://www.w3.org/2000/svg" viewBox="0 0 17.6 31.25"><defs><style>.cls-1{fill:#fed050;}.cls-2{fill:#fec830;}.cls-3{fill:#7f8990;}.cls-4{fill:#4c585e;}.cls-5{fill:#6b7c85;}.cls-6{fill:#fef6d6;}.cls-7{fill:#4d595f;}</style></defs><g id="Capa_2" data-name="Capa 2"><g id="START11"><g id="Otros"><path class="cls-1" d="M11.42,31.21c-2.64,0-5.28,0-7.92,0a2.2,2.2,0,0,1-2-1.31A12.71,12.71,0,0,1,.63,20c1.11-3.5,2.33-7,3.5-10.43,0-.13.08-.27.12-.41S4.62,9,4.84,9a8.34,8.34,0,0,1,1,0Q7,8.92,8.21,9a8.68,8.68,0,0,1,1,0c.8,0,1.59,0,2.39,0a7,7,0,0,1,1,0c.23,0,.47,0,.6.24a.14.14,0,0,1,0,.06c-.32.27-.7.16-1.06.17-.52,0-1.05,0-1.58,0-.36,0-.47.15-.36.5.18.56.38,1.11.58,1.67.9,2.52,1.67,5.09,2.59,7.61a13.45,13.45,0,0,1,.86,4.34,13.18,13.18,0,0,1-1.56,6.56A2.49,2.49,0,0,1,11.42,31.21Z"/><path class="cls-2" d="M11.42,31.21s0-.1,0-.12c1.7-1.12,2-3,2.37-4.74a13.64,13.64,0,0,0-.9-7.89c-.86-2.33-1.59-4.72-2.38-7.08-.18-.54-.36-1.07-.58-1.6s0-.52.39-.51c1,0,1.91,0,2.87,0q1.59,4.76,3.19,9.5a1.3,1.3,0,0,1,.44.71,13.32,13.32,0,0,1,.71,3.12,13.59,13.59,0,0,1-.87,6.25c-.11.23-.17.5-.44.63a2.84,2.84,0,0,1-3.2,1.74C12.51,31.19,12,31.21,11.42,31.21Z"/><path class="cls-3" d="M4.83,9.16l-.58,0a6.15,6.15,0,0,1-1-.07c-.86-.21-1.2-1.11-1-2.56A1.4,1.4,0,0,1,3.68,5.34c.85,0,1.7,0,2.55,0a1.12,1.12,0,0,0,.65-.1,24.05,24.05,0,0,1,3.7,0,17.31,17.31,0,0,0,2.16,0A4.44,4.44,0,0,1,14,5.36c-.43.35-.94.15-1.4.2-.26,0-.53,0-.83,0,0,0,0,.11,0,0,.9.28.94,1,.8,1.72-.68.17-.82.65-.75,1.26a.68.68,0,0,1-.18.61H9.21C8.94,8.82,9.08,8.42,9,8c0-.21,0-.51-.3-.51s-.28.3-.3.51c0,.38.08.78-.18,1.12H5.79c-.26-.34-.12-.74-.18-1.11s0-.51-.31-.51S5,7.84,5,8.05C5,8.42,5.1,8.82,4.83,9.16Z"/><path class="cls-4" d="M10.58,5.23c-.22.22-.51.14-.76.13a13.15,13.15,0,0,1-2.94-.13c.25-1.49.49-3,.75-4.49C7.74.1,8.2,0,8.76,0s1,.14,1.07.74C10.09,2.24,10.33,3.74,10.58,5.23Z"/><path class="cls-5" d="M12.51,7.33a2.35,2.35,0,0,0-.75-2H14a1.4,1.4,0,0,1,1.23,1.43V7.4c0,1.27-.47,1.75-1.75,1.79l-.24,0-.6-.06A2.68,2.68,0,0,1,12.51,7.33Z"/><path class="cls-6" d="M8.72,26.85c-.87,0-1.75,0-2.62,0-.36,0-.55-.09-.64-.46-.39-1.63-.81-3.26-1.2-4.89a1.33,1.33,0,0,1,1-1.67c.42-.12.49-.31.46-.68a3.05,3.05,0,0,1,.93-2.48A3,3,0,0,1,9.87,16a2.88,2.88,0,0,1,1.9,2.78c0,.58.06.94.72,1.14a1.27,1.27,0,0,1,.71,1.57c-.4,1.64-.82,3.26-1.21,4.89a.5.5,0,0,1-.59.45C10.51,26.83,9.62,26.85,8.72,26.85Z"/><path class="cls-7" d="M8.25,9.16c0-.44,0-.89,0-1.34a.49.49,0,1,1,1,0c0,.45,0,.9,0,1.34Z"/><path class="cls-7" d="M4.83,9.16c0-.42,0-.85,0-1.27s.11-.63.48-.63.49.29.5.63,0,.85,0,1.27Z"/><path class="cls-7" d="M12.51,7.33a6.23,6.23,0,0,1,.13,1.83h-1c0-.4,0-.8,0-1.21C11.68,7.34,11.89,7.2,12.51,7.33Z"/></g></g></g></svg>