<svg xmlns="http://www.w3.org/2000/svg" viewBox="0 0 31.32 27.32"><defs><style>.cls-1{fill:#5eab24;}.cls-2{fill:#90db5a;}.cls-3{fill:#4e901e;}.cls-4{fill:#4e8f1e;}.cls-5{fill:#47821c;}.cls-6{fill:#47831c;}.cls-7{fill:#48821d;}.cls-8{fill:#b5e791;}.cls-9{fill:#6ec82d;}.cls-10{fill:#6ec82c;}.cls-11{fill:#6dc82b;}.cls-12{fill:#6fc82e;}.cls-13{fill:#6dc72b;}.cls-14{fill:#6ec82b;}</style></defs><g id="Capa_2" data-name="Capa 2"><g id="START11"><g id="Verduras"><path class="cls-1" d="M1.47,2.2A5.42,5.42,0,0,1,5.85,0C12.2,0,18.56,0,24.91,0c-.06.32-.33.24-.53.27a5.88,5.88,0,0,0-4,9.2c.17.24.63.49.19.9a3.13,3.13,0,0,1-1,.07h-8a1,1,0,0,1-.53-.1A8.13,8.13,0,0,0,5.84,10a1.22,1.22,0,0,1-.54.07A7,7,0,0,1,2,7.31a6.1,6.1,0,0,1-.84-2.94c0-.26,0-.54.26-.7a2.48,2.48,0,0,1,.9-.08H7.4c.24,0,.66.1.66-.22s-.42-.22-.66-.22c-1.5,0-3,0-4.51,0H2.22C1.47,3.09,1.34,2.93,1.47,2.2Z"/><path class="cls-2" d="M20.78,10.25a6.23,6.23,0,0,1-1.6-4.47A6,6,0,0,1,24.57.11c.12,0,.24,0,.34-.09a6.14,6.14,0,0,1,6.32,5.1,6.22,6.22,0,0,1-6.8,7.07A5.58,5.58,0,0,1,21.38,11C21.13,10.78,20.84,10.61,20.78,10.25Z"/><path class="cls-2" d="M13.93,13.79a9.4,9.4,0,0,1,.1,2.12c0,.24,0,.48,0,.83a7,7,0,0,1,3.35-1.41A7.67,7.67,0,0,1,23,16.52a3.73,3.73,0,0,1,1.73,2.87,21.3,21.3,0,0,1,0,3.83,4.92,4.92,0,0,1-.15-2.32c0-.08,0-.15,0-.2a3.17,3.17,0,0,1-1.14,1.69,7.9,7.9,0,0,1-9,.37,3.85,3.85,0,0,1-1.7-2.18,3.17,3.17,0,0,1,.73-3.5A1.51,1.51,0,0,0,13.75,16c0-.47,0-.93,0-1.39C13.75,14.32,13.69,14,13.93,13.79Z"/><path class="cls-2" d="M13.93,13.79l0,.9A3.45,3.45,0,0,1,12,17.2a7.83,7.83,0,0,1-8.4-.2A3.73,3.73,0,0,1,2,15s-.11.07,0,0,0,0,0,0a4.67,4.67,0,0,1-.05,2.77,19.39,19.39,0,0,1-.09-3.14,4.18,4.18,0,0,1,1-3.21c0-.05,0-.15.07-.22A3.47,3.47,0,0,1,5.25,10a8,8,0,0,1,6.24.37,2.89,2.89,0,0,1,2.07,1.84A3.25,3.25,0,0,1,13.93,13.79Z"/><path class="cls-1" d="M3.66,16.88a7.79,7.79,0,0,0,8.45,0,4.65,4.65,0,0,0,1.8-2.23c0,.21,0,.41,0,.61a3,3,0,0,1-.71,2.44,2.82,2.82,0,0,0-.39,2.91,12.54,12.54,0,0,1,.08,2.21.88.88,0,0,1-.2.73,11.27,11.27,0,0,1-.1-2.46c0-.29,0-.59,0-.94l-1.08.62c-.36-.38-.15-.85-.21-1.28s.1-.74-.29-.75-.28.45-.31.73c-.08.58.16,1.18-.19,1.73a5.56,5.56,0,0,1-1.71.36c-.25-.27-.14-.62-.19-.93s0-.35-.23-.38-.31.15-.36.34c-.27.95-.42,1-1.35.6a6.06,6.06,0,0,1-2.46-1.85,3.74,3.74,0,0,1-.69-2.11A.45.45,0,0,1,3.66,16.88Z"/><path class="cls-1" d="M14.42,22.6A7.71,7.71,0,0,0,19,23.81a6.44,6.44,0,0,0,5-2.31,2.73,2.73,0,0,0,.21-.3,3.54,3.54,0,0,1,.47-.77v2.79a2.68,2.68,0,0,1-.62,1.71c-.24-.22-.15-.52-.19-.79s0-.51-.31-.5-.27.31-.29.52,0,.69,0,1a1.18,1.18,0,0,1-.17.75,4,4,0,0,1-1.35.79c-.25-.25-.14-.57-.19-.86s0-.45-.27-.44-.29.24-.32.44c-.06.38,0,.77,0,1.15a3.25,3.25,0,0,1-1.34.24l-.09-.06a6.19,6.19,0,0,1-.13-1.87c0-.3.11-.8-.3-.81s-.27.5-.3.8a7.33,7.33,0,0,1-.11,1.75.37.37,0,0,1-.44.11,5.12,5.12,0,0,1-3.7-3A1.67,1.67,0,0,1,14.42,22.6Z"/><path class="cls-3" d="M13.56,12.21a5.48,5.48,0,0,0-2.07-1.84c.21-.2.47-.11.7-.11h8.59a7.76,7.76,0,0,0,3.65,1.94Z"/><path class="cls-4" d="M5.25,10a11.94,11.94,0,0,0-2.33,1.27A6,6,0,0,1,.5,3.78a.62.62,0,0,1,.85,0A5.92,5.92,0,0,0,4.82,9.62C5,9.71,5.23,9.74,5.25,10Z"/><path class="cls-4" d="M3.66,16.88c-.07,2.53,1.89,3.82,3.66,4.4.39.13.53,0,.5-.37a1.54,1.54,0,0,1,0-.48.5.5,0,0,1,.6-.39c.29,0,.36.22.36.46v1.1a7.52,7.52,0,0,1-5.16-1.21,3.7,3.7,0,0,1-1.71-2.55V14.75A5.38,5.38,0,0,0,3.66,16.88Z"/><path class="cls-3" d="M14.42,22.6c-.09,2.07,1.24,3.36,2.93,4.13a10.15,10.15,0,0,0,1.22.38,1.11,1.11,0,0,1,.94.11l.07,0a6.79,6.79,0,0,1-6.21-2.14,2.55,2.55,0,0,1-.67-1.53c0-.79,0-1.58,0-2.37,0-.19-.07-.4.11-.57A4.9,4.9,0,0,0,14.42,22.6Z"/><path class="cls-5" d="M1.35,3.79H.5a3.81,3.81,0,0,1,1-1.58c0,.76.46.75,1,.74,1.74,0,3.49,0,5.24,0,.33,0,.7-.05.67.46s-.37.39-.67.39Z"/><path class="cls-6" d="M10.51,21.24V19.12c0-.37.1-.67.51-.66s.47.32.47.66c0,.56,0,1.13,0,1.69A2.86,2.86,0,0,1,10.51,21.24Z"/><path class="cls-7" d="M23.1,25.94c0-.65,0-1.29,0-1.94,0-.34.09-.64.47-.65s.51.31.51.67,0,.61,0,.91A2.76,2.76,0,0,1,23.1,25.94Z"/><path class="cls-6" d="M20.92,27a2.13,2.13,0,0,1-.07-1.51.44.44,0,0,1,.56-.34c.29,0,.34.23.34.48s0,.72,0,1.08A2.06,2.06,0,0,1,20.92,27Z"/><path class="cls-5" d="M13.47,7.08h3.78c.36,0,.69.07.69.49s-.35.48-.66.48H9.6c-.34,0-.64-.14-.63-.52s.3-.47.66-.46Z"/><path class="cls-5" d="M12.34,2.93h2.25c.32,0,.57,0,.56.45s-.26.41-.55.41c-1.5,0-3,0-4.51,0-.33,0-.66-.07-.65-.46s.34-.41.65-.41Z"/><path class="cls-5" d="M6.38,7.08h1.1c.25,0,.43.08.46.37S7.83,8,7.53,8c-.81,0-1.62,0-2.43,0a.43.43,0,0,1-.44-.49.5.5,0,0,1,.56-.45Z"/><path class="cls-8" d="M20.15,6.06C20,3.52,22.5,1,25.23,1.05a5.14,5.14,0,0,1,5,5,5.06,5.06,0,0,1-5,5.12A5,5,0,0,1,20.15,6.06Z"/><path class="cls-8" d="M18.68,22.6a5.29,5.29,0,0,1-4-1.4,2.26,2.26,0,0,1,0-3.56c1.88-1.83,6.06-1.78,8,0a2.41,2.41,0,0,1-.39,4A5.82,5.82,0,0,1,18.68,22.6Z"/><path class="cls-8" d="M8.54,10.62A5.25,5.25,0,0,1,12,12.09a2.24,2.24,0,0,1-.15,3.52,5.85,5.85,0,0,1-4.78,1.28A6,6,0,0,1,4.44,16a2.45,2.45,0,0,1,0-4.38A6.76,6.76,0,0,1,8.54,10.62Z"/><path class="cls-5" d="M19.51,27.22c-.31,0-.65.13-.94-.11V24.87c0-.37.09-.68.51-.67s.47.32.47.66C19.53,25.65,19.52,26.43,19.51,27.22Z"/><path class="cls-9" d="M25.28,9c-.1.36-.26.66-.69.64a.65.65,0,0,1,0-1.3C25,8.34,25.22,8.63,25.28,9Z"/><path class="cls-10" d="M25.32,2.55c.45,0,.7.25.69.66a.65.65,0,0,1-1.3,0A.62.62,0,0,1,25.32,2.55Z"/><path class="cls-11" d="M23.1,4.76a.6.6,0,0,1,.66.59.63.63,0,0,1-.68.69.58.58,0,0,1-.6-.63A.61.61,0,0,1,23.1,4.76Z"/><path class="cls-10" d="M29.22,6.4c0,.41-.28.68-.67.65A.62.62,0,0,1,28,6.34a.58.58,0,0,1,.63-.59C29,5.75,29.18,6,29.22,6.4Z"/><path class="cls-12" d="M17.47,20c.31.06.62.13.62.53s-.29.53-.6.53-.62-.12-.63-.51S17.16,20.11,17.47,20Z"/><path class="cls-13" d="M20.71,19.16a.41.41,0,0,1,.43.46c0,.42-.27.56-.64.55s-.6-.16-.58-.54S20.24,19.15,20.71,19.16Z"/><path class="cls-10" d="M17.94,18.59a.46.46,0,0,1-.46-.49c0-.39.32-.5.63-.49s.61.14.59.54S18.41,18.59,17.94,18.59Z"/><path class="cls-10" d="M9.82,13.43c.36,0,.62.22.61.56a.55.55,0,0,1-.67.53c-.31,0-.6-.16-.59-.55S9.5,13.47,9.82,13.43Z"/><path class="cls-14" d="M6.58,15.39a.46.46,0,0,1-.46-.51c0-.39.32-.48.65-.47s.64.14.62.5S7.07,15.4,6.58,15.39Z"/><path class="cls-10" d="M7.39,13c-.31,0-.64-.1-.65-.48S7,12,7.34,12s.64.09.66.45S7.71,12.9,7.39,13Z"/></g></g></g></svg>