<svg xmlns="http://www.w3.org/2000/svg" viewBox="0 0 35.44 29.84"><defs><style>.cls-1{fill:#9166cb;}.cls-2{fill:#a98cd7;}.cls-3{fill:#744ea9;}.cls-4{fill:#3bbb56;}.cls-5{fill:#7f573c;}.cls-6{fill:#30aa44;}.cls-7{fill:#7b54b9;}.cls-8{fill:#67449e;}.cls-9{fill:#92603e;}.cls-10{fill:#7b54ba;}.cls-11{fill:#67459e;}.cls-12{fill:#67459d;}.cls-13{fill:#7c55ba;}.cls-14{fill:#987fc8;}.cls-15{fill:#977ec8;}.cls-16{fill:#553787;}.cls-17{fill:#462f7a;}</style></defs><g id="Capa_2" data-name="Capa 2"><g id="START11"><g id="Fruta"><path class="cls-1" d="M27.69,27.91a5.37,5.37,0,0,1-2.64,1.34,2.2,2.2,0,0,1-1.27-.06c-.05-.11.49-.06,0-.31a4.21,4.21,0,0,1-2.13-4.53,1.07,1.07,0,0,1,.33-.66,1.7,1.7,0,0,1,.74-.12A4,4,0,0,0,26,18.22a1,1,0,0,1,0-.34,4.28,4.28,0,0,1,3-2.38,4.13,4.13,0,0,1,3.48,5.62c-.07.19-.21.38,0,.56a4.32,4.32,0,0,1-3.78,2.2,4,4,0,0,1-.05,2.69A2.46,2.46,0,0,1,27.69,27.91Z"/><path class="cls-2" d="M26,17.82a4.16,4.16,0,0,1-3.2,5.95,4.15,4.15,0,0,1-3.36-3.44,4.31,4.31,0,0,1,2.61-4.7,2.3,2.3,0,0,1,1-.21,2.59,2.59,0,0,1,2.12,1.17l.24.25C25.87,17,26.16,17.3,26,17.82Z"/><path class="cls-3" d="M28.38,26.55a3.75,3.75,0,0,0,.08-2.62c-.06-.16-.14-.44.16-.35,1.29.37,2.09-.43,3-1.13.29-.24.36-.72.83-.77a4.16,4.16,0,0,1-1,8.16A4.42,4.42,0,0,1,28.38,26.55Z"/><path class="cls-3" d="M12.59,22.56c-.17-.24-.07-.54-.18-.86A4.25,4.25,0,0,1,9,23.62a4.36,4.36,0,0,1-2.81-5.77,4.44,4.44,0,0,1,1.69-2c.33-.05.55.18.8.33a3.5,3.5,0,0,0,2.55.57.57.57,0,0,1,.42.08,12.55,12.55,0,0,0,1.48,3.3A18.8,18.8,0,0,1,12.59,22.56Z"/><path class="cls-1" d="M25.21,16.59a3.83,3.83,0,0,0-2.09-1,4.58,4.58,0,0,0-2.31.36,2.17,2.17,0,0,1-.83.25c-.53-.45-.59-1.12-.83-1.72,0-.2,0-.41,0-.61a4.34,4.34,0,0,1,3.35-4.26,2.49,2.49,0,0,1,2.23,1A4.15,4.15,0,0,1,25.21,16.59Z"/><path class="cls-4" d="M14,.84a8,8,0,0,1,1.2,1.33c.43.57.6.59,1.07.06A10.52,10.52,0,0,1,18.74.17c.51-.32.79-.19,1,.37a10.65,10.65,0,0,1,.5,3.67c-.1.28-.38.32-.6.42A8.87,8.87,0,0,0,17.81,6c-.5,0-1-.2-1.48-.14a3.87,3.87,0,0,0-2.43.59c-.2.12-.41.32-.69.15A.8.8,0,0,1,13,6.11a9.24,9.24,0,0,1,.66-4.85A.78.78,0,0,1,14,.84Z"/><path class="cls-3" d="M24.77,10.62a3.82,3.82,0,0,0-2.2-.83,4.36,4.36,0,0,0-1.39.19,1.33,1.33,0,0,1-.79,0,.31.31,0,0,1-.16-.21,6.12,6.12,0,0,0-1.37-3.12,3.14,3.14,0,0,1,2-2.33c.18-.09.4-.08.57-.22A4.14,4.14,0,0,1,25.09,10C25,10.22,24.88,10.42,24.77,10.62Z"/><path class="cls-3" d="M20.49,23.71a4.38,4.38,0,0,1-3.92,2.36,1.34,1.34,0,0,1-.39-.07c.14-.29-.14-.29-.27-.37A4.25,4.25,0,0,1,13.8,21.4c0-.3,0-.6.36-.76a18.7,18.7,0,0,0,2,.17A5.75,5.75,0,0,0,18,20.34c.35,0,.47.22.57.48A4.15,4.15,0,0,0,20.19,23c.19.13.38.27.39.53A.37.37,0,0,1,20.49,23.71Z"/><path class="cls-4" d="M6.2,8.39a7.31,7.31,0,0,1,3.62.33c0,.28-.25.31-.43.38A4,4,0,0,0,7.51,15a.7.7,0,0,1,.16.44,18.26,18.26,0,0,1-2.23,1.47l-.58,0c-.09-.1-.21-.06-.32-.08-1-.11-1.19-.54-.73-1.39a9.89,9.89,0,0,1,1.58-2.17C6,12.6,6,12.51,5.3,12a8.52,8.52,0,0,1-1.41-1.2c-.56-.61-.52-1,.19-1.44a5.83,5.83,0,0,1,2.16-.84c.09,0,.13-.07,0,0A.79.79,0,0,1,6.2,8.39Z"/><path class="cls-5" d="M11.23,8.66a15.54,15.54,0,0,0-9.8-3.45l-.62,0C.21,5.29,0,5,0,4.42c0-.29-.1-.6.08-.87a13.13,13.13,0,0,1,8.47,1.7c.24.13.48.27.73.39a16.34,16.34,0,0,1,2.43,2.12c.15.15.25.4.53.38l.09,0a.66.66,0,0,1-.26.7,1,1,0,0,1-.74-.08A.24.24,0,0,1,11.23,8.66Z"/><path class="cls-6" d="M6.2,8.39l.58.08a17.8,17.8,0,0,0-2.48,1c-.81.45-.84.65-.22,1.31a7.67,7.67,0,0,0,1.61,1.29c.52.33.53.65.1,1A10.1,10.1,0,0,0,4.05,15.3c-.54.87-.41,1.15.58,1.43a.89.89,0,0,1,.23.13,7.14,7.14,0,0,1-2.06-.19c-.64-.14-.75-.39-.45-1a9.6,9.6,0,0,1,1.86-2.56c.54-.53.53-.69-.11-1.1a11.42,11.42,0,0,1-1.71-1.39C2,10.23,2,9.9,2.5,9.6A8.56,8.56,0,0,1,6.2,8.39Z"/><path class="cls-7" d="M7.6,15.44A4.21,4.21,0,0,1,9.82,8.72l1.41-.06v0c0,.35-.31.35-.52.46a3.9,3.9,0,0,0-2.36,3.72,3.81,3.81,0,0,0,2.35,3.58c.2.1.45.15.52.41a3.23,3.23,0,0,1-2.69-.56c-.22-.12-.42-.28-.63-.42S7.52,15.71,7.6,15.44Z"/><path class="cls-8" d="M7.6,15.44l.3.44a7.83,7.83,0,0,0-1.6,2.2,4.2,4.2,0,0,0,2,5.08c.24.13.53.18.67.46a4.15,4.15,0,0,1-3.91-6.06c.11-.23.23-.45.35-.67A5.3,5.3,0,0,1,7.6,15.44Z"/><path class="cls-9" d="M9.3,5.64a1.46,1.46,0,0,1-.9-.3A15.79,15.79,0,0,0,2.32,3.58a2.7,2.7,0,0,0-1.09.07A1.4,1.4,0,0,1,.1,3.55c0-.44,0-.88.1-1.31.09-.64.4-.89,1-.72A22,22,0,0,1,9.3,5.64Z"/><path class="cls-6" d="M12.26,8.14h0a9.06,9.06,0,0,1,.2-7C12.94,0,13.16,0,14,.84a10.12,10.12,0,0,0-.83,4.7,5.72,5.72,0,0,0,.15,1.09A3.13,3.13,0,0,1,12.26,8.14Z"/><path class="cls-10" d="M20.49,23.71v0c.42-.41.85-.39,1.52.09-.59,1.87-.14,3.92,2.55,5.36l-.78.05a4.11,4.11,0,0,1-3.38-4.8C20.45,24.16,20.46,23.93,20.49,23.71Z"/><path class="cls-8" d="M14.12,20.73c-.64,2,.14,3.55,2.54,5.14-.13.18-.33.08-.48.13a4,4,0,0,1-3.59-3.44A5.9,5.9,0,0,1,13,20C13.5,20.09,13.94,20.21,14.12,20.73Z"/><path class="cls-11" d="M28.38,26.55a.58.58,0,0,1,.34.42,4.09,4.09,0,0,0,2.39,2.6,1.53,1.53,0,0,1,.3.27,4.09,4.09,0,0,1-3.72-1.93C27.85,27.42,28.31,27.08,28.38,26.55Z"/><path class="cls-12" d="M21.46,4.13c-.2.35-.6.4-.91.58A3.4,3.4,0,0,0,19,6.62a1.37,1.37,0,0,1-1.13-.71,4,4,0,0,1,2.37-1.69A3.11,3.11,0,0,1,21.46,4.13Z"/><path class="cls-13" d="M26,17.82a4.06,4.06,0,0,0-.59-1,4,4,0,0,1,3.47-1.34A7.24,7.24,0,0,0,26,17.82Z"/><path class="cls-14" d="M22,23.78c-.51,0-1-.42-1.52-.09a.51.51,0,0,0-.31-.49,4.12,4.12,0,0,1-1.87-2.45c-.06-.16-.11-.3-.31-.31a4.65,4.65,0,0,1,1.24-3.89,1,1,0,0,1,.7-.39,4.7,4.7,0,0,1,2.74-.69c.16,0,.32,0,.44.14-1.53,0-3.35,1.83-3.48,3.53a4.21,4.21,0,0,0,3,4.51.61.61,0,0,1,.16.12Z"/><path class="cls-1" d="M11.22,16.86a4.63,4.63,0,0,1-2.33-1.63,4.19,4.19,0,0,1,1.55-6.15c.27-.12.53-.26.79-.39l.82.12c.55-.11.92.26,1.34.5a4.61,4.61,0,0,1,1.66,2.46,1.57,1.57,0,0,1,0,1.07,1.48,1.48,0,0,1-.64.37,3.87,3.87,0,0,0-2.44,3,.8.8,0,0,1-.32.65Z"/><path class="cls-15" d="M11.63,16.86a4.7,4.7,0,0,1,1.43-3,5,5,0,0,1,1.93-1,1.13,1.13,0,0,1,1.5-.08c-.08.36-.44.35-.68.47a3.93,3.93,0,0,0-2.45,4.2,4,4,0,0,0,2.2,3.07c.23.15.6.13.64.52a5.26,5.26,0,0,1-2.08-.27L13,20A4.85,4.85,0,0,1,11.63,16.86Z"/><path class="cls-2" d="M16.2,21a4.72,4.72,0,0,1-2.74-2.46,4.13,4.13,0,0,1,3-5.71c.54-.31,1,.06,1.39.27.54.39,1.25.61,1.37,1.4a5.89,5.89,0,0,1,.69,1.66,4.66,4.66,0,0,0-1.81,3.9,1.32,1.32,0,0,1-.13.38A3.5,3.5,0,0,1,16.2,21Z"/><path class="cls-7" d="M19.25,14.5a4.58,4.58,0,0,0-1.39-1.24,3.9,3.9,0,0,1,2.5-3.32,12.56,12.56,0,0,1,1.51-.28c.23,0,.49-.08.7.13A4.23,4.23,0,0,0,19.38,14C19.39,14.17,19.42,14.36,19.25,14.5Z"/><path class="cls-16" d="M20.36,9.94c-.27.39-.72.54-1.06.82a6.23,6.23,0,0,0-1.44,2.5,3,3,0,0,0-1.37-.43c-.5-.28-1,0-1.5,0A4.49,4.49,0,0,0,13.28,9.4,4,4,0,0,1,16.1,5.74c.09,0,.18,0,.25-.11a3.5,3.5,0,0,1,1.49.28L19,6.62A4.64,4.64,0,0,1,20.36,9.94Z"/><path class="cls-17" d="M16.35,5.63c-.45.43-1.07.58-1.53,1A4.58,4.58,0,0,0,13.44,9c0,.14,0,.27-.16.36l-1.23-.59.21-.67a6.06,6.06,0,0,1,1-1.51A4.13,4.13,0,0,1,16.35,5.63Z"/></g></g></g></svg>