<svg xmlns="http://www.w3.org/2000/svg" viewBox="0 0 33.08 33.1"><defs><style>.cls-1{fill:#d77856;}.cls-2{fill:#cb6a4c;}.cls-3{fill:#c15f4c;}.cls-4{fill:#c05f4c;}.cls-5{fill:#f3e9bc;}.cls-6{fill:#fef5d1;}</style></defs><g id="Capa_2" data-name="Capa 2"><g id="START11"><g id="Carbs"><path class="cls-1" d="M29.06,14a15,15,0,0,1-2.3,2.54c-.33.36-.67.71-1,1.06-.17.22-.42.18-.65.2a7.3,7.3,0,0,0-5.23,2.38A7.27,7.27,0,0,0,17.75,25c0,.27.06.57-.2.78a25,25,0,0,1-3.08,2.53c-1.07-.93-2-2-3-3-.17-.16-.33-.34-.51-.49a.79.79,0,0,0-1.11-.06c-.37.31-.39.68-.09,1.15a3.12,3.12,0,0,0,.51.58c.74.75,1.49,1.49,2.22,2.24.17.17.43.31.34.63a23.56,23.56,0,0,1-7.52,3.08,29.57,29.57,0,0,1-3.86.63.77.77,0,0,1-.14-.73,28.49,28.49,0,0,1,2.54-8.89L4,23.17c.23-.38.49-.46.82-.1a5,5,0,0,0,.73.72c.15.11.31.19.47,0s.06-.32-.06-.46a2.26,2.26,0,0,0-1-.8c-.33-.11-.48-.33-.3-.64a17.41,17.41,0,0,1,3.17-4.35.39.39,0,0,1,.36.06c.52.45,1,1,1.48,1.44s.89.47,1.25.13.35-.82-.07-1.31a11.48,11.48,0,0,1-1.59-1.75c.06-.4.4-.6.65-.86q.74-.77,1.5-1.5c.34-.33.63-.34.89.09a2,2,0,0,0,.53.56c.13.08.29.15.42,0s.09-.32,0-.47a2.43,2.43,0,0,0-.44-.47c-.54-.51-.54-.59,0-1.13S14,11.2,14.55,10.61l1.92-1.92c.7-.69.86-.69,1.58,0,.34.33.66.68,1,1s.82.39,1.15.08a.85.85,0,0,0,0-1.22c-.36-.45-.81-.83-1.21-1.25s-.48-.67,0-1.19a7.7,7.7,0,0,1,7.69-2.36A5.69,5.69,0,0,1,29.31,6.1a9.85,9.85,0,0,1,.52.89,1.72,1.72,0,0,0,.09.81A6.8,6.8,0,0,1,30,12c-.28.07-.42-.16-.59-.31a4.6,4.6,0,0,0-.56-.52.82.82,0,0,0-1.11.09.75.75,0,0,0,0,1.1c.28.34.63.64.93,1S29,13.69,29.06,14Z"/><path class="cls-2" d="M19.77,20a7,7,0,0,1,4.14-2.33,11.4,11.4,0,0,1,1.84-.14c3.75.47,6.38,2.65,7.12,6.06A7.37,7.37,0,0,1,30.53,31c-.4.06-.66.38-1,.53a7.76,7.76,0,0,1-7.72-.85,7.67,7.67,0,0,1-3.34-6.19A6.72,6.72,0,0,1,19.77,20Z"/><path class="cls-2" d="M26.75,3.89a16.28,16.28,0,0,0-2.31-.14,7.47,7.47,0,0,0-5.53,2.74c-.21.22-.12.37.05.54q.67.64,1.32,1.32a1.08,1.08,0,0,1,.07,1.6c-.43.41-.94.35-1.47-.16S18.05,9,17.66,8.55a.48.48,0,0,0-.81,0q-2.06,2.09-4.14,4.15c-.23.23-.31.36,0,.57a3.12,3.12,0,0,1,.69.67.49.49,0,1,1-.7.68,2,2,0,0,1-.56-.61c-.21-.42-.37-.44-.68-.1-.72.77-1.46,1.51-2.2,2.26A3.36,3.36,0,0,0,10.48,18a1.06,1.06,0,0,1,.31.41.53.53,0,0,1-.07.6.49.49,0,0,1-.59.1,2.44,2.44,0,0,1-.9-.72,1.78,1.78,0,0,0-1.09-.62l-.26-.13A3.11,3.11,0,0,0,6.24,19,26.1,26.1,0,0,0,1.35,30.48a9.36,9.36,0,0,1-.27,1.4c0,.13-.07.32-.27.3s-.25-.15-.3-.3a2,2,0,0,1-.11-.76A16,16,0,0,1,1,27.51c.38-1.18.87-2.34,1.24-3.52.28-.91.91-1.64,1.13-2.57.09-.39.45-.67.69-1,.69-.94,1.24-2,2-2.85a1.46,1.46,0,0,0,.27-.89.91.91,0,0,1,.38-.42c.39.12.59.47.88.73s.48.25.69-.05a2.12,2.12,0,0,1,.34-.39c.39-.33.32-.62,0-1s-.56-.37-.47-.77q1.65-1.68,3.31-3.35C13.61,9.3,15.77,7.11,18,5a7,7,0,0,1,7.38-1.76,1.48,1.48,0,0,0,.75.07C26.33,3.46,26.7,3.5,26.75,3.89Z"/><path class="cls-3" d="M19.77,20a19.52,19.52,0,0,0-1,2.65,7.63,7.63,0,0,0,1.54,6.41,7.49,7.49,0,0,0,4.13,2.68,7.66,7.66,0,0,0,5.32-.54,1.24,1.24,0,0,1,.73-.2,8.19,8.19,0,0,1-3.22,1.79A7.76,7.76,0,0,1,17.59,26a2.34,2.34,0,0,0,0-.26,8.05,8.05,0,0,1,1.58-5.1A2.36,2.36,0,0,1,19.77,20Z"/><path class="cls-2" d="M6.33,16.69c.65.72-.21,1-.46,1.43A24.38,24.38,0,0,1,3.93,21a14.43,14.43,0,0,0-1.18,2.18,9.2,9.2,0,0,0-.85,2.4,12.89,12.89,0,0,1-.74,1.9,7.79,7.79,0,0,0-.3,1.79,6.67,6.67,0,0,0-.21,2.59c0,.11,0,.22.19.28a12.23,12.23,0,0,0,.38-2A26.18,26.18,0,0,1,6.55,18.27c.37-.46.72-.78,1.33-.68a29.82,29.82,0,0,0-2.88,4c-.18.3-.67.68.21.85.44.09.75.62,1,1a.41.41,0,0,1-.11.58.43.43,0,0,1-.63,0,5.3,5.3,0,0,1-.82-.82c-.33-.48-.5-.21-.65.1-.29.62-.57,1.25-.82,1.88a27.92,27.92,0,0,0-1.81,7.85A1.31,1.31,0,0,1,0,31.61,26.07,26.07,0,0,1,6.33,16.69Z"/><path class="cls-4" d="M26.75,3.89c-.17-.26-.63-.21-.65-.63A10.39,10.39,0,0,0,30.05.71c.93-1,1.11-.95,2,.09.19.31-.07.48-.24.65a19.87,19.87,0,0,1-2.07,1.81c-.53.41-.54.5-.11,1s.77.75.77,1.35L29.83,7c-.3,0-.36-.26-.47-.46A6.5,6.5,0,0,0,26.75,3.89Z"/><path class="cls-2" d="M12.8,29.36c-.91-1.08-2-2-3-3-.63-.67-.68-1.25-.13-1.72a.85.85,0,0,1,1.17-.06c1.2,1.16,2.36,2.37,3.54,3.56,0,0,0,.12.05.18A8.62,8.62,0,0,1,12.8,29.36Z"/><path class="cls-2" d="M30.39,5.62a8.07,8.07,0,0,0-1-1.38c-.44-.43-.4-.65.11-1a20.12,20.12,0,0,0,2.27-1.95C31.88,1.14,32,1,32,.8c1.35,1.14,1.36,1.24.12,2.46A12.34,12.34,0,0,0,30.39,5.62Z"/><path class="cls-2" d="M29.06,14c-.5-.49-1-1-1.51-1.48a.9.9,0,0,1,0-1.37,1.05,1.05,0,0,1,1.39,0L30,12A4.73,4.73,0,0,1,29.06,14Z"/><path class="cls-3" d="M8.12,14.83a3.89,3.89,0,0,0,.82.9c.28.27.25.47,0,.75-1.09,1.2-1.15,1.2-2.22-.21A11.28,11.28,0,0,1,8.12,14.83Z"/><path class="cls-2" d="M20.53,16.27a.75.75,0,0,1-.45.88,1.2,1.2,0,0,1-1.36-.29l-2.6-2.6a5.78,5.78,0,0,1-.49-.5,1.12,1.12,0,0,1-.05-1.47,1.09,1.09,0,0,1,1.54.13c1,1,2,2,3.05,3.05C20.41,15.71,20.64,15.93,20.53,16.27Z"/><path class="cls-2" d="M8.14,17.72a.64.64,0,0,1,.9.17,10.36,10.36,0,0,0,1,1c.16.13.39.24.57,0a.42.42,0,0,0-.05-.58,7.27,7.27,0,0,0-.68-.68,1.43,1.43,0,0,1-.6-1.45c.6.58,1.22,1.15,1.8,1.75A1,1,0,0,1,11,19.35a.94.94,0,0,1-1.37-.06C9.13,18.78,8.64,18.24,8.14,17.72Z"/><path class="cls-5" d="M25,31.06a5.75,5.75,0,0,1,.52-11.48A5.75,5.75,0,1,1,25,31.06Z"/><path class="cls-6" d="M25.31,20.69a4.57,4.57,0,0,1,4.63,4.64A4.46,4.46,0,0,1,25.34,30a4.5,4.5,0,0,1-4.64-4.61A4.61,4.61,0,0,1,25.31,20.69Z"/></g></g></g></svg>