<svg xmlns="http://www.w3.org/2000/svg" viewBox="0 0 800 450.21"><g id="Capa_2" data-name="Capa 2"><g id="DiseñosMascotas"><rect width="800" height="353" style="fill:#203d62"/><path d="M273.05,366.23c1-11.53,4.38-22.4,8.59-33.09,7.24-18,17.26-34.53,26.27-51.62a117.35,117.35,0,0,0,13.22-44.72,142.09,142.09,0,0,0-.16-24.67,10.64,10.64,0,0,0-3.62-7.24c-11.46-10.95-19.12-24-22.07-39.66-2.36-12.63-.5-24.76,3.29-36.72,2.61-8.25,5.64-16.42,8.75-24.5,3-7.75,3.79-15.66,3.71-23.92-.08-9.26,1.35-18.44,5.3-26.94,8.09-17,22.15-22.57,39.58-15.67a7.33,7.33,0,0,0,7-.25,94.78,94.78,0,0,1,85.39.25,6.15,6.15,0,0,0,6.15-.08c10.69-4.63,21-3.87,30.65,3a21.55,21.55,0,0,1,5.72,6.65c5.31,8.59,8.85,18.19,8.42,28.21-.67,14.82,3.71,28.13,8.85,41.52,4.71,12.21,8.59,24.59,8.25,37.81-.42,17.68-6.82,32.92-18.86,45.89a33.75,33.75,0,0,1-3.88,3.87c-3.28,2.53-4,5.73-4.29,9.77-1.35,17.52.34,34.61,6.23,51.2,3.54,10.11,8.67,19.37,13.89,28.72,10.87,19.7,22.07,39.41,26.7,61.89.67,3.37,1.68,6.82,1.35,10.36H486.94a3.25,3.25,0,0,1-1.77-2.61c-1.68-11.12-5.22-21.73-9.43-32.17a8.17,8.17,0,0,1-.84-4.46c.76-1.44,2.1-1.69,3.45-2.11,6.49-2,9.94-6.9,12-13.05.42-1.43,1.26-3.54-.42-4.13-2-.67-2.19,1.69-2.53,3-1.77,6.23-5.64,10.19-12.21,11-4.8.59-9-1.51-13.3-3.2-5.65-2.18-7.16-1.6-9.6,4-.93,2-1.1,4.38-2.78,6.07-3.12,1.26-6.07-.59-9.1-.51a9,9,0,0,1-2.27-.84c-3.28-2.78-7.16-4.72-10.44-7.5C428.42,311.5,432.54,305,439,300c5.39-4.12,7-4.12,22.56-3.7.68-.84.09-1.6-.08-2.36-3.79-15-6.57-30.06-6.82-45.64-.09-3.87-.84-7.75-.76-11.7.09-3.79-.42-4-3.79-2.53-13.81,6.4-28.55,8.34-43.37,8.59a113.93,113.93,0,0,1-45.13-8.25c-4.13-1.69-4.46-1.43-4.55,3-.17,19-2.27,37.72-7.32,56.08-.93,3.2.33,3,2.77,2.78,13.65-1.68,22.24,2.53,28.47,13.64a18.42,18.42,0,0,1,2.52,10c-.5,1.94-2.36,2.19-3.79,3-2.27,1.35-4.63,2.61-6.23,4.8-.76.85-.92,2.36-2.52,2.28a3.4,3.4,0,0,0-4.05-1.35,6.11,6.11,0,0,1-5.55-1.18c-1.44-2.44-2.36-5.05-3.79-7.49-1.6-2.78-3.71-3.62-6.66-2.36a78.58,78.58,0,0,1-7.74,3.11c-8.76,2.7-15.92-.84-19.29-9.34-.59-1.43-.42-4.55-2.86-3.62-1.94.75-.59,3.28-.08,4.88a16.49,16.49,0,0,0,15.15,11.79c1.35.08,2.87-.08,3.88,1.18-5.73,4.21-7,10.78-9,16.92a95.82,95.82,0,0,0-4.55,18.78c-.17,1.86-.67,3.62-2.53,4.55C306.73,366.23,289.89,366.23,273.05,366.23Z" style="fill:#729960"/><path d="M323.58,366.32c2.35-7.58,2.94-15.67,5.81-23.16,1.85-4.8,3.79-9.6,5.39-14.48.84-2.61,3.45-1.35,4.88-2.53,3.79-2.61,8.42-3.28,12.55-5.22,1.6-.76,2.52.59,3.2,1.85,1.09,2.27,1.77,4.63,3.2,6.74,1.85,2.61,2.86,5.64,4.71,8.25,1.43,2,2.7,1.94,4.13-.08,1.68-2.28,1.6-5.22,3.37-7.5.92-.67.42-2.27,1.68-2.69,2.7-.09,3.62,2.19,5.14,3.79.84.92,1.51,2.35,2.95,1.93,1.6-.5,1.6-2.19,1.68-3.53.25-2.95-.17-5.9.34-8.85a28.15,28.15,0,0,0-7.08-16.16c-6.65-7.67-14.9-8.68-24.08-6.91-4.8.93-4.63,1.1-3.28-3.7,3.78-13.22,5.64-26.7,6.82-40.34.5-6.4.75-12.88.75-19.28,0-2.53.26-3.54,3.29-2.19a110.89,110.89,0,0,0,48.59,9.34c15.15-.42,30.14-2.35,43.87-9.43,3.37-1.77,3.54-.33,3.62,2.53.25,19.87,2.11,39.58,7.41,58.86.42,1.6.93,3.2,1.6,5.39-4.13-1.52-8.08-1.52-12.13-1.68-8-.34-13.55,3.53-18.1,9.51A31.15,31.15,0,0,0,428.16,321c1.1,1.43.17,2.95.17,4.47a16.79,16.79,0,0,0,.68,6.14c1,2.95,1.68,3,3.78.76,1.77-1.85,2.45-4.8,5.56-5.3a1.41,1.41,0,0,1,1.52.67c1.77,2.61.92,6,2.61,8.59.76,1.18,1.09,2.78,2.61,3,1.94.25,2.44-1.6,3.11-2.87,1.27-2.27,2.36-4.71,3.71-7,1.94-2.52,1.85-6.48,5-7.91,3.28-1.52,6,1.51,9,2.27s6.74.51,9.35,3c5.13,12.8,9.51,25.86,11.7,39.5q-30.06.12-60.12.17Q375,366.35,323.58,366.32Z" style="fill:#bccc74"/><path d="M340.33,176.93c3.88-1.6,4.47-4.63,4.3-8.42a71.07,71.07,0,0,1,10-41.77A61.44,61.44,0,0,1,382.1,101.9,57.14,57.14,0,0,1,404,97.19c14.14-.59,26.69,4,37.8,13.13,13.39,11.12,20.3,25.69,23.67,42.19a54.23,54.23,0,0,1,1,18.78,6.57,6.57,0,0,0,2.78,6.82c-1.1,4.55-4.89,6.74-8.42,8.84a79.4,79.4,0,0,1-19.71,8.26c-12.55,3.45-25.35,4.29-38.31,4.21A130.21,130.21,0,0,1,365.51,194c-8-2.45-15.41-6-21.72-11.62C342.19,180.81,340,179.63,340.33,176.93Z" style="fill:#88a862"/><path d="M340.33,176.93c5.73,7.41,13.48,11.88,22.15,14.57,30.06,9.43,60,9.68,89.77-1.68,6.56-2.53,12.54-6.15,17-11.88a34.12,34.12,0,0,0,7.41-9.51c.84-1.52,1.85-3,3.95-1.86,2.28,1.1,1.94,2.78,1,4.64-6.15,11.79-16,19.36-27.88,24.42-19.87,8.42-40.75,9.43-61.89,7.91-12.8-.92-25.26-3.37-37-8.67-10.44-4.72-19.11-11.54-25-21.64a14.66,14.66,0,0,1-1.18-2.19c-.5-1.69-.84-3.45,1-4.47,2.11-1.17,3.12.51,4,1.86C335.7,171.37,337.3,174.66,340.33,176.93Z" style="fill:#1b0b03"/><path d="M491.07,91.55a23.21,23.21,0,0,1-23.24,22.82,24.11,24.11,0,0,1-23.67-24.09,23.47,23.47,0,0,1,23.5-23.07C481.3,67.38,491.24,77.65,491.07,91.55Z" style="fill:#efeedc"/><path d="M319.28,90.7a23.68,23.68,0,0,1,24-23.49c12.55.08,23.07,10.78,23.07,23.49,0,13.06-11.2,23.83-24.42,23.58C329.72,114.11,319.28,103.17,319.28,90.7Z" style="fill:#efefde"/><path d="M475.07,326.74a46.4,46.4,0,0,1-15.5-4.3c-2.27-1.17-3.11-.59-3.95,1.6s-1.52,4.47-3.29,6.15a2.53,2.53,0,0,1-3.37-1.77,35.45,35.45,0,0,1,3.62-9.34c1.94-3.46,4.21-4,7.58-2.36a74.7,74.7,0,0,0,9.43,3.53,12.69,12.69,0,0,0,16.26-8.58c.25-.76.25-1.69.5-2.45.51-1.68.93-3.87,3.45-3.36,2.7.58,2.36,3,1.86,4.8C489.38,319.33,484.5,325.39,475.07,326.74Z" style="fill:#496a37"/><path d="M358,330.19c-2.19-1.68-2.44-4.29-3.37-6.57-.76-2-1.6-2.52-3.62-1.34a30.91,30.91,0,0,1-11.45,3.87c-12.47-.51-18.36-4.88-20.8-15.33-.51-2.27-.26-4.12,1.93-4.8,2.36-.75,2.61,1.44,3.12,3,4.21,13.38,13.39,13.81,22.57,9.59,8.59-3.95,9-5.22,14.14,5.82a20.59,20.59,0,0,1,.85,3.2C361.39,329.94,360.38,331,358,330.19Z" style="fill:#496c39"/><path d="M479.28,272.42c-.17-3.36,1.6-4.71,4.88-4.63,4.38.17,8.76,4.38,8.51,8.59-.17,3.37-2.28,4.89-5.48,4.8C483.32,281.27,479.19,276.63,479.28,272.42Z" style="fill:#7e6d43"/><path d="M405.93,70a5,5,0,0,1-4.88-4.8c-.34-3.12,3.87-7.16,7.24-6.74,2.78.34,5.73,1.26,5.89,4.8C414.44,66.45,410.06,70,405.93,70Z" style="fill:#7d683f"/><path d="M449.05,328.42c1.09.59,2.27,1.18,3.37,1.77-1.44,2.86-2.78,5.81-4.38,8.59-1.77,3.12-3.62,3.2-5.56.08a17.91,17.91,0,0,1-2.78-11.19C442.9,326.23,445.85,328.59,449.05,328.42Z" style="fill:#80784f"/><path d="M358,330.19c1.77-.08,2.69-1.18,3.45-2.52,2,0,4,1.26,6.06.08,2.7-1.52,3.37.08,3.2,2.53.26,3.53-1.43,6.48-3.28,9.26-1.35,2-3,2.44-4.46-.17C361.39,336.25,359.7,333.22,358,330.19Z" style="fill:#7d7749"/><path d="M486.52,247.67c-.59,5.22-3.28,8.59-6.32,8.33s-4.71-3.2-4.21-7.32c.42-3.45,3.37-6.49,6.32-6S486.1,245.73,486.52,247.67Z" style="fill:#7f6e42"/><path d="M438.18,326.91c-1.76,2.27-3.53,4.63-5.39,6.9-2.1,2.61-3.36,2.44-4.63-.67a17.7,17.7,0,0,1-.17-12.3C433,320.25,434.9,324.63,438.18,326.91Z" style="fill:#81784c"/><path d="M382.44,320.84c1.6,3.79.84,7.58.42,11.46a3,3,0,0,1-2.19,2.78c-1.52.33-2.36-.76-3-1.69a31.75,31.75,0,0,0-5.22-5.89C374.78,323.79,378.48,322.11,382.44,320.84Z" style="fill:#7a7246"/><path d="M324.33,247.58c0-3.28,2.7-6.73,5.14-6.65,2.27.08,4.89,3.79,4.55,7.07-.34,2.78-2,5-5,5.31C326.52,253.73,324.33,250.87,324.33,247.58Z" style="fill:#7b7145"/><path d="M425.38,145.27c1.18-4.46,1.94-9.68,7.25-12.29,2.86-1.44,5.55-1.18,7.15,1.85s-.08,5.3-2.69,6.48c-2.95,1.43-5.64,2.87-7.16,6.07-.59,1.17-1.35,2.86-3,2.35S425.38,147.38,425.38,145.27Z" style="fill:#1f0c04"/><path d="M385.13,145.86c-.08,1.85.26,3.54-1.51,4s-2.36-1.18-2.95-2.36a12.06,12.06,0,0,0-6.32-5.73c-3.79-1.77-5-5-3.11-7.74,1.6-2.36,5.22-2.61,8.17-.17C383.36,137,384.71,141.48,385.13,145.86Z" style="fill:#1e0d04"/><path d="M480.29,90.62c0,9.6-6.82,16.67-16.09,16.76a15.74,15.74,0,0,1-15.91-15.92,16.2,16.2,0,0,1,16.34-16.59A15.72,15.72,0,0,1,480.29,90.62Z" style="fill:#260c01"/><path d="M362.31,91.29c0,9.6-7,16.42-16.42,16.25-8.33-.16-15.83-7.74-15.83-16A16.38,16.38,0,0,1,346.4,74.87C355.49,74.79,362.31,82,362.31,91.29Z" style="fill:#270c02"/><path d="M470.27,80.6c2.61.67,4.8,2,4.54,5.05A4.23,4.23,0,0,1,470.1,90c-3-.17-4.46-2.36-4.3-5.14C465.89,82.2,467.66,80.85,470.27,80.6Z" style="fill:#ebe2d8"/><path d="M356.42,85.48C356.08,88,354.9,90.11,352,90s-4.29-2-4.21-4.8,1.6-4.3,4.21-4.3C354.82,80.85,356.25,82.53,356.42,85.48Z" style="fill:#efe5d8"/><path d="M0,352.74,800,353v97.21H0Z" style="fill:#102a4d"/><path d="M516.66,393.18a14.2,14.2,0,0,1-6.21,3.16C511.57,393,513.67,393.09,516.66,393.18Z" style="fill:#102a4d"/><path d="M280.1,381.31c-5.8-8.89-11-18.06-14.7-28.09-1.57-4.3-6.27-4.18-9.7-5.82-4-3.15-9.18-4.36-13.13-7.72-4.42-3.77-7.07-8.1-5.85-14.12a2.32,2.32,0,0,1,2.05.89c3.07,4,7.18,6.44,11.91,8.07,4.31,1.49,8.6,3.07,13,4.38a29.15,29.15,0,0,1,9.08,4.2c13.5,10,29.06,15.14,45.13,19,20.77,5,41.84,7.52,63.21,8.57a404.18,404.18,0,0,0,76.42-3.85,228,228,0,0,0,27.66-5.9c2.88-.78,5.81-2,8.93-1,1.38,1.85.35,3.5-.54,5.06-10.47,18.31-25.31,31.59-44.94,39.62a155.49,155.49,0,0,1-50,11.16c-32.56,2-63.88-2.79-94.07-15.07a68.27,68.27,0,0,1-15.25-8.62C285.84,388.86,281.65,386.2,280.1,381.31Z" style="fill:#9b582b"/><path d="M307.86,256.16l-.26.94c-.54,1.41-.7,3-1.62,4.22-6.05,7.95-6.53,17.05-5.6,26.46a7.34,7.34,0,0,1-.3,4c-2.47,2.44-5,4.57-8.8,2.59-8.06-9.93-8.71-22.53-2-34.31,3.56-6.22,8.71-11.27,12.37-17.38,1-1.71,2.86-3.31,1.38-5.66,2.69-1.9,5.21-.74,7.73.4,1.88,1.41,2.16,3.17,1.14,5.22C309.83,246.93,308.89,251.56,307.86,256.16Z" style="fill:#60748f"/><path d="M291.28,294.39c3-.09,5.47-1.67,8.1-2.8,5.85-3.41,12-5.64,18.91-4.92,1,.31,2.77-.77,3,.9.23,1.36-1.38,1.84-2.49,2.22-4,1.37-8.17,2.25-12.29,3.25-3.59.86-4.85,2.76-3.34,6.24.84,3,3.24,5.39,3.08,8.71a2.23,2.23,0,0,1-2.09,1.45c-3.64-1.4-5.48-5-8.52-7.08-2.85-3.72-6.39-3.84-10-1.52-9,5.77-19.14,8-29.48,10.11-7.53,1.52-13.72,5.72-16.58,13.51-.35,1-.71,2.07-2.09,2.06l-.79-1c-.09-7.22,4.52-11.21,10.13-14.28,5.25-2.88,11.11-4,17-4.8C274.2,305.14,282.32,298.84,291.28,294.39Z" style="fill:#b98c72"/><path d="M280.1,381.31a55.28,55.28,0,0,0,9.34,10c13.83,11.12,28.85,20.19,45.75,25.8a166.78,166.78,0,0,0,30.57,6.71c11.57,1.56,23.19,2.92,34.83,2.54,24.59-.82,49.07-2.84,72.05-12.77,13.58-5.88,26.4-13,36.61-24.11,2.27-2.47,4.09-5.79,8-6.43.95,1.19,0,2-.63,2.77-1.88,2.18-3.7,4.43-5.71,6.49-5,5.1-5,5.07.72,9.09,6.44,4.51,8.63,9.1,6,14.44-1.8,3.68-5,6.36-8.79,8.32-14.58,7.61-30.39,11-46.41,13.72-28.11,4.76-56.48,5.44-84.83,4.34a310.89,310.89,0,0,1-42.83-4.56,229.25,229.25,0,0,1-32.56-8.12c-7-2.35-13.95-5.35-19-11.17-4.31-5-4.07-8.88.55-13.58a30.42,30.42,0,0,1,3.34-3.09c6-4.5,6.05-4.47.62-9.91-1.94-1.93-3.94-3.82-5.78-5.84C280.73,384.68,279.09,383.47,280.1,381.31Z" style="fill:#0a1c39"/><path d="M517.2,383c-20.45,24.25-47.37,36.21-78,41.21a232.52,232.52,0,0,1-44,3.34c-28.12-.79-55.72-4.55-81-18-9.12-4.85-17.93-10.26-24.77-18.27l14.64,8.18c6.52,3.92,13,8.06,20.12,10.66,12.49,4.56,25,8.82,38.32,11,15.74,2.63,31.47,2.69,47.23,2.28a223.67,223.67,0,0,0,29-2.54,116.13,116.13,0,0,0,20.65-5.24c7.6-2.67,15.35-5.08,22.4-9.5,5-3.11,10.05-6,15-9.18,8.94-5.66,14.89-13.76,20.92-21.92a56.6,56.6,0,0,0,9.57-18.56,14.8,14.8,0,0,1,6.17-8.26,57.23,57.23,0,0,1,12.35-6.82c5-1.87,9.24-4.58,12-9.31.64-1.1,1.21-2.6,3-2.11-.1,4.63-2.38,8-6.15,10.47a98.62,98.62,0,0,1-15.33,7.8c-3.74,1.62-7,3.57-7.24,8.24C527.54,365.56,523.46,374.92,517.2,383Z" style="fill:#7e4b32"/><path d="M237.51,326.52c2.81-11,10.77-15.74,21.2-17.53,8.83-1.52,17.18-4.06,25.05-8.76,7.4-4.42,7.74-3.86,13,1.44-1,1.76-3,1.95-4.57,2.68-6,2.7-11.51,6-15.62,11.23-3.54,4.53-4,9.65-1.45,13.72,5.81,8.23,14.39,12.56,23.42,15.89,18.79,6.94,38.4,10.37,58.26,12.5a396.41,396.41,0,0,0,55.55,1.76c27.85-.94,55.5-3.73,82.21-12.42a98.62,98.62,0,0,0,17.93-7.86,28.67,28.67,0,0,0,10.57-9.83c2.86-4.42,2.73-8.69-.68-13-6.63-8.4-15.9-12.49-25.83-15.42-1.34-.4-2.7.06-4.05.36s-3.25.94-4.08-.79c-.91-1.9.47-3.09,2.06-4,3.31-.17,6.56-.43,9.67-1.92a4.48,4.48,0,0,1,4.33-.24,50.92,50.92,0,0,1,14.06,6.21c6.21,3.85,13,5.48,20,6.78,5.81,1.08,11.67,2.27,16.35,6.33,3.3,2.87,5.78,6.21,6,10.81s-2.88,7.44-6.37,9.72c-5.94,3.9-12.87,5.44-19.43,7.84a40.18,40.18,0,0,0-9.3,4.74,112.76,112.76,0,0,1-26,13.12c-1.8.67-3.68,1.69-5.66.4-17,4.46-34.05,8.36-51.61,10.07-17.23,1.68-34.49,3-51.75,2.44-26.21-.8-52.26-3.26-77.7-10.29-14.86-4.11-29.1-9.19-41.73-18.48-6.38-4.69-14.77-5.3-22.05-8.32C244.47,333.75,239.63,331.91,237.51,326.52Z" style="fill:#c47a47"/><path d="M494.14,360.32a129.82,129.82,0,0,0,33.74-16.6c6-4.11,13.56-5.07,20.3-7.78,5.65-2.27,10.59-5.3,12.75-11.44,1.33,1.84.18,3.68,0,5.52-3.53,8.76-11.62,11.68-19.32,15.14-7,3.16-12.07,7.69-14.33,15.76-2.16,7.67-7.34,14-12.36,20.36-3.18,4-5.83,8.58-10.06,11.43-6.87,4.61-12.13,11.66-20.87,13.53-2,.44-3.53,3-5.57,3.75-8.23,3.07-16.34,6.37-24.77,9-16.53,5.23-33.51,5.48-50.4,6.37a185.24,185.24,0,0,1-34.91-1.56,161.63,161.63,0,0,1-24.11-5.34c-12.57-3.75-24.72-8.09-35.88-15a11.27,11.27,0,0,1-4.25-4c7.4,1.65,14.34,4.74,21.55,7,10,3.15,20.33,4.89,30.58,6.47a193.83,193.83,0,0,0,31.22,1.95c22.42-.2,44.38-3.69,64.83-13.35,15.5-7.31,28.3-18.05,37.2-33C491.07,365.86,493.49,363.58,494.14,360.32Z" style="fill:#8a4926"/><path d="M503.43,292.56a2.66,2.66,0,0,0,.74.07c.11.58.23,1.16.34,1.74a26.7,26.7,0,0,0-4.61,1.79c-3,1.85-6.12,2.4-9.46,1A2,2,0,0,1,490,296a8.2,8.2,0,0,1,3.19-5.32C496.79,290.41,499.6,294.32,503.43,292.56Z" style="fill:#c59670"/><path d="M493.21,290.71a9.33,9.33,0,0,1-3,5.58c-1.88,1.7-4,1-6.05.52-21.28-5.44-42.95-7.77-64.85-9.15-22.71-1.42-45.17,0-67.7,2.58-15.6,1.74-31,4.43-45.93,9.18a11.83,11.83,0,0,1-3.59.53c-2.35-6.69-2.34-6.67,4.45-8.39a116.37,116.37,0,0,0,13.94-4.21L318.4,287c-.18-.35-.07-.55.31-.62a433.68,433.68,0,0,1,86.79-8.26c2.63,0,5.67,2.08,8-.86,1,2.3,3.06,1.53,4.76,1.62,24.3,1.36,48.45,3.73,71.91,10.75C491.22,290,492.21,290.36,493.21,290.71Z" style="fill:#c47a47"/><path d="M524.49,329c-.73,4.76-4.51,7.12-8,9.45-10.86,7.35-23.2,11.17-35.79,14.2-18.62,4.49-37.55,6.55-56.66,7.77-13.85.89-27.68,1-41.48.57-28.6-.92-56.85-4.41-84-14A64.26,64.26,0,0,1,277,334.43a8.82,8.82,0,0,1-3.21-5.37c-1.23-2-.09-3.59,1.1-4.92,7.37-8.2,16.91-12.68,27.3-15.65A2.34,2.34,0,0,1,304,309l2.07-1a4.45,4.45,0,0,1,2.53-1.84c11.51-3.45,23.11-6.48,35.2-7.07a3.35,3.35,0,0,1,2.84,2.61c.61,3.55,3.11,4,6.05,4.07,5.73.07,11.46.06,17.15-1.5-.31-2.65-4.22-3.34-3.4-6,.54-1.79,2.9-1.89,4.63-2.43,12.84.07,25.64-2.35,38.5-.73,2.13.77,1.65,1.95.68,3.47-2.05,3.24-5,5.67-7.52,8.46s-2.32,3.67,1.25,4.49c6.57,1.51,12.81,4.8,19.86,3.93,5.35-.21,10.5-1.49,15.64-2.78,3.9-1,4.6-2.48,3.44-6.35-.26-.87-.66-1.69-1-2.54-1.86-4.76-1.57-5.27,3.45-6.26,8.54.82,17.15,1.19,25.32,4.2,2.16,3.21-.83,3.84-2.6,4.76-5.76,3-11.61,5.77-17.3,8.89-1.87,1-3.68,2.08-4.63,4.12-.17.38-.37.76-.57,1.13-1.91,3.05-1.72,5.74,1.39,7.92A122.15,122.15,0,0,0,467,335.57c7.07,2.78,13.66-.39,20.34-1.79,2-.43,4-1.39,6.05-1.79,7.15-1.38,9.28-5.7,6.26-12.52-1.19-2.7-3.42-5.12-2.33-8.45,1.36-1.54,3.07-1.17,4.63-.61A52,52,0,0,1,522.3,323C523.84,324.6,525.61,326.32,524.49,329Z" style="fill:#dabd71"/><path d="M344.39,300.2c-13.06,1.24-25.64,4.87-38.37,7.8-1.49-2.6-3.1-5.13-3.9-8.05.32-1.8,1.86-1.68,3.13-2.09,14.77-4.71,29.9-7.33,45.3-9.14,19.3-2.28,38.6-4,58-3.31,26.2.92,52.25,3.25,77.68,10.19a38,38,0,0,0,4,.69c.06.3.12.6.19.91-.33,1.08-2.16,1.83-1.18,3.1.78,1,2,.1,2.91-.38,2.38-1.3,4.56-.71,7,.14,9.14,3.22,17.68,7.28,24.15,14.85,4,4.71,4.62,10.32,1.2,14.07-1.9-5.34-6.32-8.26-10.73-11.18a45.88,45.88,0,0,0-16-7c-3.5.58-5.52-1.66-7.41-4a13.21,13.21,0,0,0-15.44-3.93c-1.27.54-2.51,1.1-3.78,0a191.22,191.22,0,0,0-26.3-4c-6.26,1.49-9.36-4.25-14.14-6.16-4.79-2.31-9.26-1.53-13.66,1.19-1.85,1.14-3.48,3-6,2.48-13.79-.13-27.56.45-41.33,1.05-3.49.58-6.63.37-9.74-1.94-4.2-3.13-6.06-2.65-9.8,1C348.48,298.17,347.48,300.86,344.39,300.2Z" style="fill:#925026"/><path d="M304,309c-7.84,2.86-15.64,5.82-22.4,10.88-3.28,2.45-6.47,5.05-7.72,9.23-2.47-2.72-2.61-8.25.17-12.28a36.46,36.46,0,0,1,22.79-15.11C299.35,303.93,302,306.05,304,309Z" style="fill:#925228"/><path d="M471.12,302.9c.45-.06,1.1.05,1.32-.2,4.6-5.31,9.71-1.85,14.67-.92a3.7,3.7,0,0,1,2.93,1.94c1.36,3.76,4.62,5.29,7.71,7.08a20.41,20.41,0,0,0,3.1,7.49c2.37,3.41,1.84,7.26.87,10.95-1.12,4.23-5.21,3.54-8.24,4.4-5,1.42-10.09,2.56-15.13,3.85-4,1-8,1.84-11.71-.95a13.19,13.19,0,0,1-6.39-7.71c-1.62-4.53-5.06-6.1-9.89-5.55-2.67.31-4.79-.38-5.61-3.27-.26-3.05,1.95-4.16,4.15-5.28,6.7-3.44,13.2-7.26,20.19-10.12A8.75,8.75,0,0,0,471.12,302.9Z" style="fill:#f8bf20"/><path d="M411,296.44c3.15-2.37,6.39-4.66,10.16-5.9a11.13,11.13,0,0,1,10,1.07c8.1,7.8,4.27,20.88-7.27,24.83a8,8,0,0,1-5.7.37c-5.35-1.52-10.77-2.78-16.13-4.24-4.07-1.12-4.43-2.42-1.58-5.37C403.94,303.59,407.47,300,411,296.44Z" style="fill:#f4e28d"/><path d="M363.07,352.06c-13.27.26-24.09-3.38-32.5-13.09-2-2.36-4.14-4.73-7.63-5.45-2.43-.5-1.6-2.46-.57-3.9,2.19-3.07,6.47-3.42,10.55-.37,8,6,16.91,10.62,26.54,11,7.1.31,12.5,3.66,18.7,5.49,1.1.33,2.74.7,2.8,2,.09,1.74-1.81,1.83-3,2.23A38.38,38.38,0,0,1,363.07,352.06Z" style="fill:#f9e2c4"/><path d="M317.78,321.64c-3,.21-6,.35-9.06.68-1.24.13-2.5.49-3.28-.76-.92-1.49.13-2.61,1.1-3.57,11.76-11.56,23-13.78,36.48-4.15a57.18,57.18,0,0,0,11.72,6.88c5.41,2.18,10.76,3.07,16.21.1,1.94-1.05,4.74-1.87,5.52.56.65,2,1.47,5.25-3.15,6.12-10.86,2-21.13.44-31.1-3.68-5.31-2.2-10.41-3.75-16.26-2.12-2.53.71-5.43.12-8.16.12Z" style="fill:#f9e2be"/><path d="M416.52,348.39a51.48,51.48,0,0,0,4.55-7.28c5.56-9.51,18.52-7.59,24.15-1.84,2.66,2.7,7.22,4.77,5.1,10,0,1.88-1.32,2.59-2.75,3.19-9,3.79-18.33,3.59-27.61,1.27C417.71,353.19,414.62,352.12,416.52,348.39Z" style="fill:#c88648"/><path d="M418.21,327.2c-4.13,3.3-8.33,6.13-14,6.34-3.22.12-6.16,2.26-8,4.76-4,5.27-8.82,5-14.14,3.2-1.93-.67-4.94-.39-5.44-2.58-.57-2.54,2.2-3.71,4.1-4.81,10.56-6.11,20.64-13.61,33.91-12.19C417,322.84,419.59,323.68,418.21,327.2Z" style="fill:#f9e2c3"/><path d="M344.39,300.2c2.56-.33,3-2.86,4.37-4.36,4.41-4.75,7.15-5.33,12.13-1.4a13.29,13.29,0,0,0,8.76,3.05l-2.8,1,6.47,6c-3.94,2.48-8.32,1.83-12.35,2.63a21.52,21.52,0,0,1-4.1.09C347.7,307.28,347.7,307.28,344.39,300.2Z" style="fill:#f58d2e"/><path d="M399.58,319.26c-6.24,2.79-12,2.82-16.69-.26-6.74-4.46-13.74-3.92-21-3.37-1.11.08-2.61,1.19-3.15-.48-.43-1.31,1-2.21,2-2.74,5.94-3.24,12.17-4.41,18.87-2.67C386.6,311.57,392.34,315.83,399.58,319.26Z" style="fill:#f9e0ba"/><path d="M423.87,316.44c6.12-4.15,10.81-9,10-17.28-.28-2.84-1.74-5.07-2.74-7.54a6.12,6.12,0,0,1,3.94,1.92,15.55,15.55,0,0,0,9.74,5.39c-2.28,0-3.79,0-2.25,3.19,4.65,9.64,4.19,10.29-6.39,12.73C432.12,315.78,428.12,317,423.87,316.44Z" style="fill:#c49552"/><path d="M442.79,331.67c19.21,11.51,50.93,9.68,64.41,0a9.09,9.09,0,0,1-6.47,7.23c-16.72,5-33.48,7.64-50.07-.63A34.59,34.59,0,0,1,442.79,331.67Z" style="fill:#efdd99"/><path d="M444.75,320c2.23,1.45,4,3,7.27,1.29,3.62-1.9,5.74,1.95,7.67,4.21,2.81,3.31,3.86,7.82,6.95,11-7.34-1.53-14.58-3.36-21-7.48-1.32-2.93-2.53-5.86-.87-9.08Z" style="fill:#d1981c"/><path d="M299.44,329.19c3.59-2.55,7.62-2.56,11.7-1.82s5.91,3.74,6.34,7.34c.4,3.34-2.83,3.23-5,4-2.47.88-4.87,1.62-7.43.48C299.74,336.27,298.33,333.73,299.44,329.19Z" style="fill:#efbb60"/><path d="M416.52,348.39c-.41,2.44,1.32,3.31,3.11,3.73,10.53,2.49,20.94,3.36,30.68-2.82,3,1.05.84,2.29-.06,3a17.26,17.26,0,0,1-8.27,3.47,58.83,58.83,0,0,1-22.13-.21,7.49,7.49,0,0,1-5.5-3.7C413.45,350.13,412.6,347.56,416.52,348.39Z" style="fill:#f7da9a"/><path d="M418.21,327.2c-.32-2.36-2.09-3.73-3.6-5.28,9.74-.07,19.59.7,28.83-3.93-3.62,4.7-8.06,7.35-14,7.6C425.67,325.75,421.55,324,418.21,327.2Z" style="fill:#f0dc9d"/><path d="M319.22,348.4c-1-.19-2.61-.41-4.2-.82-2-.52-3.31-1.79-2.62-4,.75-2.38,2.93-2.15,4.55-1.49,2.18.89,4,2.66,6.5,2.92a1.5,1.5,0,0,1,1.21,1.69c-.1.89-.86,1.23-1.59,1.35C322,348.26,321,348.27,319.22,348.4Z" style="fill:#768030"/><path d="M299.44,329.19c.19,4.27,3.3,6.91,5.58,10a18.75,18.75,0,0,1-2.25,0c-2.66-.32-6.52,1.23-7.46-2.18C294.47,334,296.69,331.1,299.44,329.19Z" style="fill:#c18841"/><path d="M387.84,307.25c-1.76-.11-4.11.34-4.21-2.24-.09-2.12,2-2.31,3.67-2.64l.44-.1c2.06-.4,4.18-1.21,6,.52a1.61,1.61,0,0,1,.1,2.1C392.45,307.17,390.16,307.26,387.84,307.25Z" style="fill:#7a8331"/><path d="M289.77,324.54c2.17-.07,4.2,0,4.1,2.28-.13,2.86-2.81,2.94-4.82,3-1.8,0-4.87.3-4.69-2.14C284.57,324.78,287.77,324.8,289.77,324.54Z" style="fill:#7b8231"/><path d="M367.92,337.49c-1.58-.23-4.14.42-4.07-1.72.11-3,3.13-3.47,5.45-3.44,1.73,0,4.9.31,4.58,2.46C373.48,337.55,370.26,337.29,367.92,337.49Z" style="fill:#777a2a"/><path d="M467.62,349.43c-1.87-.42-5,.61-5-2.29.07-2.21,3-2.53,5.13-2.46s5,.09,4.95,2.6C472.65,350,469.58,349.12,467.62,349.43Z" style="fill:#767a2a"/><path d="M398.32,352.89a35,35,0,0,1-4.1,0c-1-.12-2.87.64-2.67-1.36.14-1.49,1.71-1.45,2.94-1.44,2.57,0,5.14.4,7.68-.49a2.18,2.18,0,0,1,3.08,1.8c.35,2.41-1.69,1.53-2.83,1.65a40,40,0,0,1-4.1,0Z" style="fill:#7c7d2f"/><path d="M454,304.38c1.66.33,3.88.14,4.13,2.49.14,1.23-1.33.92-2.12.67-1.58-.52-4.06.81-4.65-1.57C451,304.23,452.85,304.57,454,304.38Z" style="fill:#7c7929"/><path d="M444.77,320l.87,9.08C442.34,326.32,441.93,323.31,444.77,320Z" style="fill:#f8bf20"/><path d="M315.54,318.91c8.54-8.57,18.53-8.4,29.19,1.44C339.14,318,334.8,315.44,330,316S320.59,317.84,315.54,318.91Z" style="fill:#d3b18b"/></g></g></svg>