<svg xmlns="http://www.w3.org/2000/svg" viewBox="0 0 800.01 448.27"><g id="Capa_2" data-name="Capa 2"><g id="DiseñosMascotas"><rect width="800.01" height="357" style="fill:#f76b5e"/><path d="M264.47,230.2l2.59-1.94c.58-1.23,1.74-1.6,2.92-1.93a85.49,85.49,0,0,1,9.71-2.28,8.27,8.27,0,0,1,2.11,0c3.46.46,4.53,1.76,4.32,5.24-.27,4.28-.27,4.28,4.08,4a27.15,27.15,0,0,1,4.23,0c4.27.41,6.1,3.56,4.38,7.53-.48,1.1-1.17,2.11-1.72,3.19-1.7,3.36-1,4.6,2.64,4.95.41,0-.1,0,.31,0,5.07.46,6.18,2.09,4.9,7.21-2.15,5.46-4.52,10.8-8.33,15.35-1.34,1.6-1.07,2.87.45,4.13,13.46,11.21,28.32,18.94,46.37,18.9,1.3,0,2.65-.08,3.73.9a3.14,3.14,0,0,1-1.66,4.1c-6.8-1.48-13.8-1.55-20.55-3.58-12.29-3.72-22.74-10.45-32.38-18.63-2.59-2.19-2.67-4.19-.38-6.81,5.13-5.82,5.36-4.67-.56-11.75-.13-.16-.27-.3-.41-.45a13.35,13.35,0,0,0-2.65-3.25,6.4,6.4,0,0,1-2.6-5.48c0-3.83-1.53-5.42-5.31-5.82-3.05-.32-4.35-1.44-5-4.31-.82-3.76-3.26-5.91-7.22-6.41-1.46-.19-3.08.16-4.23-1.17A1.86,1.86,0,0,1,264.47,230.2Z" style="fill:#82764c"/><path d="M279.7,224.6c-4,1.88-8.49,2.26-12.64,3.67-.8-5.15-2-10.19-2.05-15.49a44.42,44.42,0,0,1,7.54-25.31,23.62,23.62,0,0,0,1.12-2.11c2.69-1.68,4-5,7.24-6a2.89,2.89,0,0,1-.45,2.85c-6.41,10.89-5.92,22.26-2.36,33.83.53,1.74,1.19,3.43,1.68,5.17C280.1,222.31,280.65,223.49,279.7,224.6Z" style="fill:#cd422e"/><path d="M279.68,177.4a7.14,7.14,0,0,1-2,3c-.89.75-1.52,2.2-3,1.64-1.29-.51-1.39-2-1.54-3.12-.9-6.89-1.71-13.77-2.06-20.74a82.45,82.45,0,0,1,3.29-28.93c4.88-15.57,15.06-26.43,30.4-32.27C315.12,93,326,90.36,336,85.56a19,19,0,0,0,10.56-11.81A44.6,44.6,0,0,1,356.69,56a29.89,29.89,0,0,1,17.66-9.13,32.12,32.12,0,0,1,15.7,1.89,15.37,15.37,0,0,0,11.41-.09,85.87,85.87,0,0,1,37.72-5.87c16.18,1.21,31.78,5,46.39,12.5,8,4.14,15.82,8.65,22.49,14.66a96.67,96.67,0,0,1,20.67,26.22A115.64,115.64,0,0,1,541.85,139a100.33,100.33,0,0,1-.77,28c-1.1,6.25-2,12.51-3.68,18.66a161.77,161.77,0,0,1-8.92,24.74,71.64,71.64,0,0,0-6,38.64c1,8.6,3.47,16.76,6.47,24.81,6.37,17.12,13.78,33.83,20.44,50.84a192.82,192.82,0,0,1,8.18,27.21,18.81,18.81,0,0,1,.22,2.71c-2,2.59-7.46,2.17-9.09-.79a34.76,34.76,0,0,0-3.38-5.73,9.28,9.28,0,0,0-5.06-3.12c-3.08-.78-6.28.64-6.25,4.77.05,7-.16,7-7,7-4.85,0-9.7-.08-14.55,0-7.85.45-15.69-.09-23.53-.23-12.69-.22-25.39-.15-38.09-.2a4,4,0,0,1-1.67-2.76c-1-7-2.58-13.85-3.84-20.78a4.38,4.38,0,0,1,.27-2.94c1.51-1.7,3.64-1.58,5.6-1.87a93.86,93.86,0,0,0,27.5-8.21c.45-.22.91-.42,1.36-.67,1.15-.63,2.66-1.29,2-2.89s-2.27-1-3.46-.48a113.82,113.82,0,0,1-21.25,7.1c-24.09,5.27-45.85,0-65.72-14.3A121.81,121.81,0,0,1,369,288.06a8.79,8.79,0,0,0-7-3.42c-6.17-.18-12-1.77-16.89-5.84-3.11-2.58-3.56-4.13-2.12-7.9A20.11,20.11,0,0,0,344.4,266c.6-3.54,1.72-6.92,1.19-10.73-.58-4.1,4.11-9.21,8.23-9.71a4.35,4.35,0,0,0,3.56-2.4,16.31,16.31,0,0,1,9.62-7.42c2.15-.69,4.29-1.26,6.47-.07a2.69,2.69,0,0,0,2.62-.12,3.24,3.24,0,0,1,1.67-.76c3.48,1.19,5.42,4.08,7.35,6.89,2.76,4,3.75,8.69,4.31,13.44a5.87,5.87,0,0,0,2.22,4.11c9.19,7.61,19.17,13.4,31.4,14.54,9.34.87,18.11-1.14,26.58-4.73A64,64,0,0,0,461.14,263a11.14,11.14,0,0,0,2.34-1.93,1.78,1.78,0,0,0,.16-2.47c-.62-.79-1.41-.64-2.19-.29a22.06,22.06,0,0,0-2.61,1.54,72.63,72.63,0,0,1-23.1,9.68c-1.47.31-3,.75-4.43-.12-1.24-1.08-1.4-2.62-1.74-4.09-1.37-6-3-11.95-4.92-17.78-1.06-3.16-1.34-3.32-4.29-2.05-7.25,3.14-14.83,5.28-22.4,7.44a22.51,22.51,0,0,0-4.49,1.76c-1.56.07-1.67-1.21-2-2.21-.47-1.54-.77-3.12-1.21-4.66a25.68,25.68,0,0,0-15.64-17.53c-2.86-2.64-3.87-6.31-5.28-9.72-1.53-3.72-3.44-7.27-4.64-11.13-.3-1-.79-1.87-.4-2.91.69-1.29,2-1.66,3.24-2.05a91.65,91.65,0,0,0,29.64-14.92c3-2.35,3.71-2.19,6.4.53a23.85,23.85,0,0,0,14.88,7.44,10.77,10.77,0,0,0,2.72-.05c.91-.14,2-.31,2-1.45s-1.13-1-1.88-1.14c-5.52-1-10.5-3-14.3-7.33-5.88-6.64-8.33-14.2-6-23,.11-.39.05.1.07-.29.06-1.28,1.64-3.05-.17-3.68-1.26-.43-1.82,1.59-2.33,2.74a22.16,22.16,0,0,0-.91,15.42c.73,2.53.33,4.49-1.74,6.21-9.8,8.11-21.08,13.06-33.41,15.81a3.69,3.69,0,0,1-1.81,0c-1.82-3-4.67-3.33-7.76-3-1.93.19-3.72-.62-5.62-.63A16.49,16.49,0,0,1,335.84,188a6.53,6.53,0,0,0-5.22-3.84c-8.62-1.58-14.76-6.27-17.36-14.94-2.73-3.23-6.33-1.76-9.54-1.57-5.5.31-10.23,3.15-15.17,5.27a1.81,1.81,0,0,1-1.6-.65c-1.15-1.4-2.32-2.49-4.31-1.35s-3.32,2.55-2.69,5.07A1.51,1.51,0,0,1,279.68,177.4Z" style="fill:#759861"/><path d="M446,329.85q2.44,13.26,4.88,26.52c-16.15-.11-32.31.7-48.45-.48a1.41,1.41,0,0,1-.77-.88c-.83-4.83-2.36-9.51-3.05-14.37a6.74,6.74,0,0,1,.6-1.68c1.25-3,.8-4.22-2.15-5.77a3.14,3.14,0,0,1-1.22-.84c-2-5.35-6.31-8.59-10.9-11.25-13.61-7.87-27.6-7.35-41.66-1.11-1.49.66-2.91,1.38-4.59,1.2l-.12-.75c-.76-.91-.44-1.92-.15-2.88,1.58-5.21,3.15-10.44,5-15.58.37-1,.74-2.12,1.93-2.56l1.76-3.47a2.37,2.37,0,0,1,2.21-1.29,109.36,109.36,0,0,0,15.8-3.35,5.18,5.18,0,0,1,2,.16c1.9.88,3.1,2.54,4.44,4,13.69,15.28,30.09,26.21,50.16,31.24a72.41,72.41,0,0,0,19.85,1.93C443.07,328.63,444.82,328.25,446,329.85Z" style="fill:#b8c76f"/><path d="M512.48,356.8c5.41-.77,10.85-.2,16.28-.33,4.14-.1,4.16-.06,4.14-4.3v-.91c0-5.18.61-6.44,3.78-7.51,2.74-.93,7.41.68,9.42,3.34a20.93,20.93,0,0,1,3,4.84c1.74,4.47,4.51,5.3,8.67,2.71,1.07,1.78-.27,1.69-1.39,1.82-1.95.23-4-.53-5.87.54Z" style="fill:#85723e"/><path d="M279.7,224.6c-1.92-6.44-4.44-12.68-5-19.52-.77-8.82.47-17,5.52-24.44.28-.41.49-.88.73-1.32,0-.21,0-.43,0-.65,1.8-1.69,4.46-1.85,6.26-3.54,6.44-6.45,14.53-7.9,23.17-7.68a3.59,3.59,0,0,1,2.38,1.18c.95,1.37.73,2.89.5,4.39a14.64,14.64,0,0,0,.36,6c1.7,6.6,4.82,9.37,11.61,10,2.27.2,3.7,1,4.47,3.31,2,6,6.2,9,12.62,9.43a26,26,0,0,0,10.13-1.49c1.8-.62,3.59-1.46,5.59-1.12,3,1.44,3.89,4.52,5.16,7.16,2.86,6,5.15,12.21,7.87,18.25a29.41,29.41,0,0,0,1.49,3c.71,1.19,1.07,2.46.09,3.66s-2.29.88-3.6.44c-4.19-1.42-8.31-3-12.57-4.27a10.46,10.46,0,0,0-3.27-.45c-2.93.08-4.3,1.63-3.77,4.45.34,1.77.73,3.54,1.2,5.3.72,2.6-.43,4.08-3.15,4.18s-5.66,0-8.48,0c-3.5.08-5.29,2.75-4.3,6.09.82,2.79,2.73,4.9,4.17,7.31,1.8,3,1.28,4.42-2,5.76-1.78.73-3.76.64-5.49,1.57-2.68,1.45-3.33,2.79-2.35,5.66.58,1.69,1.06,3.29-.33,4.8-1.22.85-2.34.2-3.41-.31a90.9,90.9,0,0,1-18-11.07c-1.38-1.12-2.92-2.23-3.19-4.23a10.77,10.77,0,0,1,.06-1.51c.7-3.92.1-4.65-3.9-4.73a12,12,0,0,1-3-.15,3.39,3.39,0,0,1-2-4.95c.87-1.59,1.86-3.13,2.64-4.76,1.53-3.22.05-5.72-3.47-5.85a30,30,0,0,0-6.34.3c-2.68.48-3.8-.63-3.53-3.3.05-.4.16-.79.24-1.19.84-4.18.6-4.51-3.71-5.23A9,9,0,0,1,279.7,224.6Z" style="fill:#fa950b"/><path d="M287.45,176.07a8.42,8.42,0,0,1-6.5,2.6l-1.27-1.27c-1.86-3.89.13-7.64,4.44-8.27,2.61-.37,2.84,2,3.88,3.46C289.43,174,288.15,175,287.45,176.07Z" style="fill:#462009"/><path d="M345.31,299.42q-3.37,10.51-6.76,21c-5.09-.16-9.89-1.84-14.72-3.12-10.21-2.71-20-6.59-28.61-12.79-9.61-7-18.12-15.17-24.14-25.57-1.34-2.31-3.89-3.91-4.08-6.88,1.43-.81,2.76-.06,4.07.32,7.33,2.12,13.44-.13,18.84-5.09,2-1.85,3.2-3.86,1.79-6.66a2,2,0,0,1,.17-2.52c2.21,1.37,3.18,3.88,5.13,5.51,1.11.93.37,2.07-.14,3a21.75,21.75,0,0,1-4.1,4.83c-1.76,1.76-1.82,3.36.21,5.08,12.7,10.74,26.74,18.69,43.52,20.9,1.4.19,2.83,0,4.24.12C342.44,297.71,344.18,297.8,345.31,299.42Z" style="fill:#688552"/><path d="M304.15,256.42c7.05,6.76,15.37,11.55,24.16,15.62,1.95-.66,3.47.48,5.08,1.21a31.92,31.92,0,0,0,3.69,1.23,4.48,4.48,0,0,1,2.22,2c4.15,8.06,11.66,10.18,19.78,11.11a23.79,23.79,0,0,1,4.43.86c1.65.52,2.8,1.66,1.87,3.68A60.41,60.41,0,0,1,347.07,296a73.51,73.51,0,0,1-28.9-5.42c-8.43-3.48-15.38-9.12-22.57-14.45-1.37-1-2.08-2.71-.83-3.95C299.26,267.66,301,261.64,304.15,256.42Z" style="fill:#ca432f"/><path d="M291.87,258.14c.38,2.46,3,4.65,1.1,7.36a21.63,21.63,0,0,1-10.5,7.76c-5.36,1.95-10.45,1.06-15.47-1.17-12-9.25-14.53-23.66-6.16-35.69a56.46,56.46,0,0,1,3.7-4.36c2.9,0,5.82-.33,8.47,1.53,2.14,1.5,3.9,2.87,3.75,6-.13,2.59,1.8,3.62,4.33,3.38a5.58,5.58,0,0,1,6,6.22c-.32,2.2.05,4,2.13,5.19A5.15,5.15,0,0,1,291.87,258.14Z" style="fill:#759664"/><path d="M446,329.85c-11.17.3-22.19-.49-32.81-4.39a104.59,104.59,0,0,1-46-33.38c-2.23-3.83-6.05-3.81-9.82-4.27-6.63-.81-12.67-2.92-16.74-8.78a5.86,5.86,0,0,1-.82-5.68,32.16,32.16,0,0,1,2.44-5.84c.65-1.08,1.37-2.36,3-1.49a18.81,18.81,0,0,1-1.83,6.37c-.91,2-.24,3.46,1.29,4.79A25.2,25.2,0,0,0,362,283.49c3.9-.06,6.13,1.74,8.39,4.33,12.74,14.63,27.68,26.24,46.31,32.37,14.67,4.83,29.54,4.7,44.41.6a116,116,0,0,0,17.64-6.37c1.76-.82,3.72-1,4.71,1.13s-.32,3.49-2.1,4.36A103.79,103.79,0,0,1,446,329.85Z" style="fill:#54753f"/><path d="M424.13,108.83c-.72,1-.4,2.34-.8,3.65-2.28-9.58,1.17-19.07,8.66-24.15a21.7,21.7,0,0,1,24.5-.1c12.56,8.57,13.77,27.14,2.38,36.68-5.81,4.87-18.2,6-24.7,2.15a.47.47,0,0,1-.19-.74c1.36-1.15,2.92-.43,4.37-.38,6.31.19,11-2.59,13.57-8.21,2.2-4.77,1.12-12-2.34-15.63-4.41-4.62-10.42-6-16.05-3.78a13.73,13.73,0,0,0-7.44,7.58C425.6,107,425.41,108.27,424.13,108.83Z" style="fill:#efedde"/><path d="M424.13,108.83c1.65-8.85,9.18-14.11,17.7-12.36,9.06,1.86,14,9.81,12,19.23-1.72,8.07-10,13-18.42,11l-1.47-.36C426.51,122.84,423.56,116.82,424.13,108.83Z" style="fill:#2a0f04"/><path d="M345.27,266c-2.65.75-2.65,3.32-3.48,5.24-2.41,5.55-1.51,8.1,3.42,11.75s10.35,4.33,16,4.74c3.17.23,5.16,1.28,6,4.33h-1.78c-.38-2.09-1.61-3-3.74-3.21-5.48-.62-10.94-1.31-15.87-4.26a17.17,17.17,0,0,1-6.68-6.79,9.72,9.72,0,0,0-2.33-2.72A14.56,14.56,0,0,1,329,267.9c-1.64-3.48-1-5.49,2.7-6.75,2.1-.71,4.32-1,6.41-1.73,2.52-.91,2.85-1.66,1.43-4-1.1-1.81-2.31-3.55-3.5-5.3a11.13,11.13,0,0,1-1.69-3.85c-.75-3.37.88-5.61,4.32-5.73,4.42-.17,8.82.42,13.44.38-.79-3-2.29-5.68-2.88-8.63-.82-4.09.18-5.43,4.32-5.43a11.25,11.25,0,0,1,3,.3,86.48,86.48,0,0,1,18.76,7.43c.72.4,1.42.8,1.52,1.74a3,3,0,0,1-2.87.42c-6.44-1.32-12.81,1.4-15.65,7-1,2.1-2.27,3.11-4.65,2.84s-3.8.82-4.71,3c-1.17,2.74-3.21,5-2,8.61C347.72,260.61,346.13,263.45,345.27,266Z" style="fill:#817a4f"/><path d="M393.2,254.51a1.74,1.74,0,0,1,1.47-1.91c9.37-2.52,18.75-5,27.54-9.25,2-.95,2.44.57,2.9,2a172.58,172.58,0,0,1,5.83,21.31c.16.79.34,1.58.51,2.37-.71,1.08-1.86,1.08-3,1.16-13.22,1-24.19-4.05-33.88-12.53C393.71,256.85,392.83,255.93,393.2,254.51Z" style="fill:#b7c66f"/><path d="M393.2,254.51c7.81,8,16.94,13.47,28.3,14.5a50.13,50.13,0,0,0,9.95,0c8.64-.72,16.32-4.24,23.8-8.29,1.95-1.06,3.78-2.33,5.62-3.57,1.54-1,2.82-.89,3.93.59a2.71,2.71,0,0,1-.28,4,26,26,0,0,1-3.92,2.82c-10.28,6.14-21.17,10.46-33.35,10.48a48.74,48.74,0,0,1-26.32-7.79,91.75,91.75,0,0,1-10.78-7.8,4.42,4.42,0,0,1-1.78-3.33c-.4-8.64-3.86-15.75-10.8-21.06-2.9-1.37-3.52-2.77-2.51-5.58,11,3.78,15.38,12.55,17.53,23C392.73,253.22,392.64,254,393.2,254.51Z" style="fill:#50733e"/><path d="M360.82,200.15c11.52-2.73,22.43-6.83,31.94-14.11.8-.62,1.57-1.29,2.41-1.85,1.87-1.23,2.14-2.66,1.45-4.87a23.51,23.51,0,0,1,.75-16.33,10.05,10.05,0,0,1,2.44-3.79,1.89,1.89,0,0,1,2.23-.43,1.83,1.83,0,0,1,1.06,2,12.08,12.08,0,0,1-.48,2.06c-4.83,14.84,3.95,28.81,19.44,30.91,1.33.18,2.83.23,2.8,2.06s-1.44,2.48-3.1,2.64c-7.79.74-14.08-2.31-19.07-8-1.79-2-2.71-1.94-4.7-.3-8.79,7.24-18.94,11.93-29.79,15.22-1.15.35-2.27.81-3.4,1.22-.46.32-1.15.42-1.35,0C362.43,204.5,360.48,202.78,360.82,200.15Z" style="fill:#1d0e03"/><path d="M358,199.83c-4.9,1-9.43,3.36-14.68,3.14-7.87-.32-12.63-3.52-14.89-11a2.17,2.17,0,0,0-2.56-1.82c-11,.22-14.75-9.41-13.73-17.48.16-1.2.21-2.4.31-3.6a.6.6,0,0,1,.33-.93c.72-.28,1.1.17,1.41.72a19.9,19.9,0,0,0,18.08,14.46c2,.15,3,.79,3.66,2.67,2,5.25,6,8.41,11.18,10.26,3.29,1.15,6.71.88,10.11.88,1,0,1.87.16,2.17,1.21S358.76,199.59,358,199.83Z" style="fill:#fcc83d"/><path d="M526.29,113.24a7.39,7.39,0,0,1-4.34,7.41c-3.84,1.87-7.06.33-10-2.12a16.85,16.85,0,0,1-6.4-13.73c0-3.82,1.16-7.18,4.71-8.78,3.7-1.67,7.13-.11,10,2.37C524.56,102,526.16,106.9,526.29,113.24Z" style="fill:#7f6a41"/><path d="M538.42,147.52c-.52,5.6-2.2,10.62-7.28,13.85-3.85,2.46-7.75,1.43-10-2.58-3.58-6.48-.38-17.95,6.26-21.31,3.58-1.8,7.74-1.33,9.51,3.26C537.78,142.89,538.7,145.07,538.42,147.52Z" style="fill:#7f6c41"/><path d="M358,199.83c2-1.93.59-2.28-1.14-2.34-2.82-.1-5.66.29-8.41-.61a12.61,12.61,0,0,1-1.34-.63c3.46.28,6.9.85,10.4.61,2.32-.16,2.47,1.92,3.3,3.29,1.56,2,1.52,5,4,6.43,3,7.86,5.68,15.82,10.26,22.94-.09,2.28,1.41,3.84,2.5,5.58l-.76,1.25c-6.46-2.64-12.32-6.73-19.32-8.07-2.55-.49-5.72-1.7-7.39.46s0,5.25,1.25,7.67a29.76,29.76,0,0,1,2.65,6.31,82.74,82.74,0,0,0-13.87-1.51c-5.45-.28-6.44,2.65-4.18,7.18a64.81,64.81,0,0,0,5.43,8.38c1.24,1.75.62,2.5-1.16,2.94-2.84.7-5.7,1.35-8.52,2.13-3.34.91-3.94,3-2,5.91s4.84,4.81,7.1,7.36c-3.06-.35-5.71-1.81-8.45-3.07.18-1.27.71-2.42.19-3.83-1.75-4.71-.25-7.21,4.68-8.25,1.38-.29,2.73-.71,4.09-1.1,2.18-.62,2.32-1.86,1.2-3.65-1.74-2.82-4-5.32-4.86-8.67a5.21,5.21,0,0,1,4.61-6.59c2.73-.09,5.46,0,8.19,0,3.77,0,4.13-.52,3.11-4a40.21,40.21,0,0,1-1.1-4.71c-.53-3.15,1.06-5,4.26-5.22s5.93,1,8.78,2,5.71,2,8.55,3.06c.7.25,1.36.47,2-.09a1.63,1.63,0,0,0,.16-2.21c-4.64-8.53-7.29-17.94-12-26.44A5.47,5.47,0,0,0,358,199.83Z" style="fill:#c9a434"/><path d="M439.38,48.75c6.15,0,8.88,2.57,8.57,7.49-.17,2.57-1.93,3.84-3.73,4.77a13.86,13.86,0,0,1-12.85.3,5.24,5.24,0,0,1-2.15-6.76A9.87,9.87,0,0,1,439.38,48.75Z" style="fill:#816e44"/><path d="M509.84,290.13c.05-3.94,2.78-5.95,7.05-5.21,4.09.71,9,5.59,9.84,9.71.62,3.2-1.84,6.06-5.11,6.63C517.18,302.05,509,295,509.84,290.13Z" style="fill:#7e6e40"/><path d="M322.2,142.71c.93-5,2.45-10.44,8.18-13.28a5.94,5.94,0,0,1,6.32.15,5.18,5.18,0,0,1-1.52,9c-3.83,1.28-7.26,3-9.27,6.74a2,2,0,0,1-2.61.93C322.05,145.68,322.11,144.49,322.2,142.71Z" style="fill:#281306"/><path d="M518.35,263.29c0,5.48-2.78,8.82-7.29,8.81-3.33,0-4.88-2-4.87-6.15,0-4.34,3.55-8.43,7.3-8.42C516.82,257.53,518.35,259.35,518.35,263.29Z" style="fill:#827042"/><path d="M295.44,136.07a12.85,12.85,0,0,1-.58,4.77,2,2,0,0,1-1.75,1.44,1.68,1.68,0,0,1-1.75-1.39c-1-4-3.4-6.91-6.44-9.57-2.1-1.83-1.83-4.8.1-6.75a4.46,4.46,0,0,1,6.28,0C294.84,127.58,295.37,131.76,295.44,136.07Z" style="fill:#1c0e03"/><path d="M517,182.27c3.32.06,5.69,2.72,5.58,6.26-.13,4-3.86,8.12-7.31,8.07-2.88,0-4.91-2.8-4.82-6.53C510.55,186.08,513.8,182.2,517,182.27Z" style="fill:#7b6f42"/><path d="M412.5,79.08c-2.42.23-4.55-.52-5.57-2.74s.41-4.13,1.83-5.69a8.23,8.23,0,0,1,8.46-2.52c3.16.77,4.69,4.24,2.79,6.79S416,79.52,412.5,79.08Z" style="fill:#7d7044"/><path d="M501.37,136.2c-.5-3,1.29-4.78,3.63-5.93,1.68-.84,4.62,1.24,5.82,3.78a7.56,7.56,0,0,1,.24,6.13c-.65,1.76-1.64,3-3.57,3.21a4.67,4.67,0,0,1-4.71-2.07A7.09,7.09,0,0,1,501.37,136.2Z" style="fill:#7b7044"/><path d="M415.7,54.2c0,3.1-3.32,6.08-6.73,6.07-3,0-5.45-1.87-5.36-4.13.1-2.59,4.35-6.64,7-6.66C413.65,49.45,415.71,51.36,415.7,54.2Z" style="fill:#7b6f43"/><path d="M314.2,168.86c-.62-.29-1.26-.71-1.74.21-4.9-1.65-9.72-.62-14.41.79-4,1.21-7.86,2.8-10.6,6.21.18-1.16.37-2.32.55-3.48,6.69-4.25,13.9-6.67,21.92-6.06C311.58,166.66,313.7,166.39,314.2,168.86Z" style="fill:#b98e3a"/><path d="M449,104.84c-.23,2.32-1.29,3.82-3.75,3.92a3.56,3.56,0,0,1-3.75-3.83c.14-2.23,1.16-4,3.65-4S448.67,102.62,449,104.84Z" style="fill:#f2eae6"/><path d="M800,355.27v93H0v-96.5Z" style="fill:#da9b33"/><path d="M295.23,365.25a15.7,15.7,0,0,1-1.29-7.17,11.88,11.88,0,0,1,1.43-5.45c1.09-1.94,2.48-2.94,4.5-4.39a29.89,29.89,0,0,1,7.44-3.78,38.39,38.39,0,0,1,3.76-1.21l.09,0a62.73,62.73,0,0,0,5.42-3.31,61.5,61.5,0,0,0,6.87-5.43c9.25-8.35,16-14.4,24-17.93,2.94-1.3,13.41-5.51,25.71-2.61a37.8,37.8,0,0,1,13.33,6.16c7,5,9.44,12.57,10.83,20.61.62,13.87-6.95,23.08-17.61,30.33a59,59,0,0,1-14.41,7.08c-15.72,5.51-31.59,6.52-47.68,1.68-7-2.1-12.92-6-18.49-10.54-.32-.26-.9-2.24-2.74-3.42A5.57,5.57,0,0,0,295.23,365.25Z" style="fill:#f9af15"/><path d="M402.31,359c14.92,1.85,29.6,4.6,42.92,12.08,6.16,3.45,10.53,8.08,9.11,15.94a3.69,3.69,0,0,1-.84,2.53c-5.56,6.47-13.14,9.71-20.85,12.43-14.88,5.26-30.4,7.45-46,9-18.79,1.82-37.63,1.34-56.41.83a212.12,212.12,0,0,1-58.12-9.4,76.81,76.81,0,0,1-20.91-10.53c-1.36-.87-2.24-2-1.92-3.73-.81-4.13-.87-7,.17-9.4,1.26-2.89,3.48-4.65,7.32-6.88,11.19-6.49,23.13-9.6,33.77-11.24,1.5-.23,2.71-.4,3.45-.49a14.2,14.2,0,0,0,.5,3.05,14,14,0,0,0,.78,2.09c.8,1.74,2.92,5.76,5.86,11-1,1.85-3,2.31-4.59,3.27-2.12,1.25-4.58,2.54-4.52,5.28,0,3,2.72,4.27,5.1,5.39a36.14,36.14,0,0,0,5.9,2.14c12,3.25,24.1,5.67,36.59,5.59,15.5-.11,31,.76,46.43-2.11,6.7-1.24,13.36-2.63,19.51-5.69,2.27-1.13,5.16-2.26,5.06-5.39s-2.81-4.13-5.09-5.45c-3.28-1.89-7.49-1.94-10.11-5.14A25.67,25.67,0,0,1,402.31,359Z" style="fill:#ecf0f1"/><path d="M453.31,388.24l1-1.22c7.79,7.2,5.06,15-3.16,20-11.55,7.06-24.31,10.92-37.51,13.52-25,4.92-50.35,6.24-75.76,5.22-25.59-1-50.84-4.43-74.94-13.73a45.9,45.9,0,0,1-10.79-6.2c-7.28-5.41-8.06-10-2.94-17.72l2.17,2.27c7.35,7.94,17,12.18,26.85,15.56,18.78,6.43,38.26,8.74,58,9.9a289.29,289.29,0,0,0,63.49-3.38c16.78-2.72,33-7.49,47.22-17.33A22.94,22.94,0,0,0,453.31,388.24Z" style="fill:#b77f2d"/><path d="M300.81,375.61a39.05,39.05,0,0,1-3.22-4.95,38.12,38.12,0,0,1-3.07-7.4,59.33,59.33,0,0,0,11.56,9.22,58.32,58.32,0,0,0,24,8.26c12,1.26,23.87-.44,35.41-4,1.89,4.81,3.39,9.76,5.3,14.58-6.34,4.56-13.94,4.52-21.05,4.65-16.44.31-31.7-4-44.75-14.6C303.1,379.78,301.16,378.29,300.81,375.61Z" style="fill:#ce5e26"/><path d="M370.77,390.39c-3-1.43-6-9.1-5.26-13.69,8-3.83,16.07-7.43,22-14.36,5.22-6.09,8.83-12.83,8.42-21.16l1-3.19c1.17-1,1.81-1.49,1.95-1.37s-.18.68-.91,1.73a26.68,26.68,0,0,1,3,7.2,27.19,27.19,0,0,1,.73,9.1,40,40,0,0,1-.42,4.3,41.43,41.43,0,0,1-5.33,14.79c-2.48,7.51-15.74,17.46-23.32,17.48A2.43,2.43,0,0,1,370.77,390.39Z" style="fill:#c2392b"/><path d="M362.82,319.05c3.49.23,8.38-.77,8.63,4.18.24,4.79-5,3.51-7.73,3.89-4.3.61-8.5,1.44-12.73,2.34-1.82.4-4,.52-4.94-1.72-.83-2,.88-3.26,2.19-4.29A20.45,20.45,0,0,1,362.82,319.05Z" style="fill:#fcd462"/><path d="M342.36,332.91c-.31,2.45-2.16,3.42-4.28,3.71-1.92.26-2.9-1.08-2.84-2.87a3.93,3.93,0,0,1,3.88-4.07C341.2,329.5,342.28,330.75,342.36,332.91Z" style="fill:#fcd254"/><path d="M398.62,338.16l-3.21.88c-1.12-3-2-6-.3-9,3.18-1.09,3.74,1.53,4.76,3.42S400.85,337.06,398.62,338.16Z" style="fill:#592c14"/><path d="M370.77,390.39c10.74-2,18.29-8.78,25.13-16.65,4.16,1.69,8.53,3,12.44,5.15,6.48,3.56,6.53,7.73.33,11.6-6.61,4.12-14.18,5.65-21.69,7-17.72,3.19-35.67,2.69-53.53,2a126.07,126.07,0,0,1-37.08-7.47,12.36,12.36,0,0,1-2.24-1.31c-6.26-3.94-6.43-7.63-.31-11.81,2.11-1.43,4.65-2.24,7-3.33C321.27,394.07,344.72,398.37,370.77,390.39Z" style="fill:#b6bbbf"/><path d="M453.31,388.24c-2.1,8.11-9.44,10.87-15.56,14.38-11,6.3-23.38,9.06-35.66,11.39a253.24,253.24,0,0,1-51.41,4.2c-24.2-.41-48.32-2.21-71.52-10-7.93-2.68-15.72-5.73-22.29-11.11-2.22-1.82-4.94-3.39-5.46-6.66,17,11.4,36.47,14.82,56.14,17.62,22,3.14,44.15,3,66.2,1.92,24.15-1.13,48.24-3.58,70.37-14.9C447.63,393.23,450.24,390.48,453.31,388.24Z" style="fill:#b4b3ae"/></g></g></svg>