<svg xmlns="http://www.w3.org/2000/svg" viewBox="0 0 800 450"><g id="Capa_2" data-name="Capa 2"><g id="DiseñosMascotas"><rect width="800" height="379.16" style="fill:#f0c96f"/><path d="M235.23,417.59c1.1-12.87,4.85-25,9.62-37,8.05-20.1,19.28-38.59,29.38-57.65A129.7,129.7,0,0,0,289,273a159.61,159.61,0,0,0-.22-27.57,12,12,0,0,0-4-8.13c-12.84-12.16-21.33-26.72-24.65-44.27-2.67-14.1-.57-27.68,3.65-41,2.91-9.23,6.27-18.33,9.79-27.35,3.36-8.64,4.2-17.48,4.14-26.66-.07-10.36,1.46-20.59,6-30.08,9-19,24.73-25.25,44.16-17.46a8.44,8.44,0,0,0,7.85-.29,105.68,105.68,0,0,1,95.3.23c2.69,1.35,4.47,1,6.9,0,12-5.13,23.41-4.33,34.2,3.35a24.42,24.42,0,0,1,6.41,7.4c5.93,9.64,9.87,20.35,9.36,31.51-.76,16.52,4.1,31.4,9.87,46.33,5.25,13.6,9.6,27.44,9.21,42.27-.51,19.75-7.64,36.8-21.06,51.24a35.25,35.25,0,0,1-4.33,4.31c-3.69,2.8-4.49,6.43-4.83,10.94-1.5,19.57.39,38.66,6.94,57.19,4,11.24,9.72,21.65,15.47,32.08,12.15,22,24.68,44,29.78,69.08.77,3.8,1.84,7.59,1.52,11.54H473.94a3.32,3.32,0,0,1-1-.71,4.1,4.1,0,0,1-1-2.25c-3-21.37-11.69-32.92-11.69-32.92a31.75,31.75,0,0,0-3.74-4.13,7.77,7.77,0,0,0-2-3.2c-2.25-2.12-5.42-1.89-6-2.24-4.09-2.55-13.31-9.42-25-19a15.73,15.73,0,0,1-6.54-6.35c-2.38-4.53-1.5-9.06-.18-15.32,1.76-8.36,2.63-12.54,6.16-15.32,7.49-5.89,19.49-.4,20.2-.07,0-.44.11-1.13.16-2,.78-13-5.11-16.14-5.53-28.05-.15-4.37-.92-8.72-.87-13.1.05-4.21-.45-4.54-4.26-2.78-15.38,7.14-31.85,9.29-48.47,9.58a126.36,126.36,0,0,1-50.45-9.2c-2.31-.94-3.56-1.35-4.24-.9-1.31.87-.89,3.58-.81,4.29,1.32,10.55-10.8,42.57-5.85,44.77,1.26.56,2.13-1.48,8.22-4.11,4.31-1.87,7-2.92,9.71-2.49,1.36.21,5.1,1.18,14.69,19.92,3.09,6,4.63,9,4.55,10.21-.73,10-18.15,10.9-29.7,26A20.34,20.34,0,0,1,323.8,374a21.93,21.93,0,0,1-11.58,2.49c-8.26,5.46-11.35,11-12.64,15.09-1.95,6.12-3.94,11.15-5.07,21-.23,2-.78,4-2.85,5.11Z" style="fill:#729960"/><path d="M291.66,417.63c3.69-11.76,5.69-19.94,6.47-25.82,0,0,.89-6.65,4.63-10.88a7.31,7.31,0,0,1,3.24-2.36c1.41-.47,2.12-.12,3.43-.57a6.54,6.54,0,0,0,3.29-2.8,68.3,68.3,0,0,1,10.83-3.11c.28,0,1.29-.63,2.74-1.25,1.84-.77,3.21-1.23,3.43-1.3,3.86-1.34,12.67-10,15.32-12.52,9.23-8.74,12.48-7.9,13.88-12.83.81-2.83-.18-5.87-1.74-11.95-2.83-11-4.24-16.5-9-19.18-7.18-4.08-17.51.79-19.8,1.87-5.57,2.62-7.59,5.66-8.84,4.86-2.46-1.58,7.36-12.18,6.95-27.93-.19-7.18.81-14.35.84-21.53,0-2.82.27-3.93,3.68-2.41a124.29,124.29,0,0,0,54.27,10.43c16.9-.44,33.65-2.64,49-10.55,1.7-.87,2.67-1,3.24-.67,1.11.72.83,3,.79,3.48-.29,3.11,2.17,14.6,10.62,43.32-7.56-5.19-16.15-5.41-20.8-1.24a11.8,11.8,0,0,0-3.61,6.85c-10.65,19-9.95,26.81-7,30.38s6.94,2.44,13.64,8.22c5.12,4.42,4.52,7.3,9.23,9.4,4.07,1.8,6.33.45,10,2.58a14.91,14.91,0,0,1,6.09,7.47,60.29,60.29,0,0,1,17.44,40c-22.4,0-44.79.15-67.18.14Q349.21,417.74,291.66,417.63Z" style="fill:#bccc74"/><path d="M315.16,196.69c-2.26-11.27.87-21.16,3.38-29.24a78.87,78.87,0,0,1,7.84-17.36,68.77,68.77,0,0,1,30.69-27.78c7.86-3.57,16.19-4.94,24.45-5.28,15.76-.65,29.82,4.44,42.19,14.68,2.21,1.83,22.32,18.7,26.44,47.08,1,7.1,1.79,13.57-1.06,21.34-.62,1.71-5.89,15.52-17.85,19.92-15.38,5.65-22.06-11.55-48.73-11.92-8.46-.11-25.67-.53-36.39,10.59-3.19,3.31-4.36,5.85-7.64,6.37C329.85,226.44,318.11,211.47,315.16,196.69Z" style="fill:#88a862"/><path d="M465.53,312.85c-.15-3.79,1.77-5.31,5.44-5.2,4.9.16,9.77,4.94,9.51,9.63-.2,3.81-2.55,5.44-6.14,5.41C470,322.64,465.49,317.51,465.53,312.85Z" style="fill:#7e6d43"/><path d="M383.68,86.69a5.59,5.59,0,0,1-5.49-5.4c-.34-3.5,4.36-8,8.09-7.51,3.08.4,6.4,1.45,6.61,5.36C393.09,82.79,388.27,86.72,383.68,86.69Z" style="fill:#7d683f"/><path d="M473.63,285.2c-.64,5.85-3.7,9.55-7.09,9.26s-5.28-3.53-4.74-8.21c.44-3.88,3.72-7.22,7.06-6.69S473.17,283,473.63,285.2Z" style="fill:#7f6e42"/><path d="M292.55,285.05c0-3.66,3-7.51,5.76-7.41,2.52.1,5.49,4.22,5.09,7.95a6.32,6.32,0,0,1-5.59,5.94C294.93,291.9,292.52,288.71,292.55,285.05Z" style="fill:#7b7145"/><path d="M405.32,170.79c1.28-5,2.15-10.83,8.11-13.77,3.22-1.6,6.22-1.31,8,2.11s-.07,5.91-3,7.28c-3.34,1.57-6.33,3.21-8,6.73-.63,1.34-1.53,3.15-3.37,2.63C405.06,175.19,405.32,173.14,405.32,170.79Z" style="fill:#1f0c04"/><path d="M360.38,171.5c-.11,2.06.3,3.95-1.7,4.44s-2.65-1.3-3.29-2.67c-1.48-3.14-4-5-7.05-6.44-4.21-2-5.55-5.65-3.51-8.62,1.81-2.63,5.81-2.87,9.17-.19C358.44,161.56,359.9,166.61,360.38,171.5Z" style="fill:#1e0d04"/><path d="M456.5,377.59c-9.69-.65-17.37-5.43-22.88-12.91-3.8-5.15-8.51-7.93-14.24-9.72-2.78.06-3.67-2.52-5.43-3.88-1.73-2.07-3.52-4.1-3.65-7,0-.19,0-.49.17-.54a82.11,82.11,0,0,0,9-4.93c.37-.22.67.21.53.69a27.85,27.85,0,0,1-.7,2.9c-1.82,5.09.16,8.59,5.51,9.69a23.36,23.36,0,0,0,2.94.55,7.77,7.77,0,0,1,6.14,3.75c4.77,6.92,10.88,12.18,19,14.88a5.51,5.51,0,0,0,2.61.56C456.28,373.53,456.15,375.6,456.5,377.59Z" style="fill:#536e3d"/><path d="M329.33,311.18c-1-.08-2,.16-2.43-1.17-1.5-4.73-3.36-9.36-3.49-14.43-.16-6.48,3.3-10.35,9-12.63,2.58-1.26,5-2.86,7.43-4.3,4.62-2.7,6.16-7.3,7.4-12.07,1.57-4.34,3.58-8.36,7.81-10.78,5.14-4.12,11-4.42,17.13-3.21a27.16,27.16,0,0,0,4.62,1,29.49,29.49,0,0,1,6.13,2.41c6.49,3.72,13.61,5.15,20.92,5.85a71.35,71.35,0,0,1,14.42,2.62,3.7,3.7,0,0,0,1.78,0c12.41,1.1,16.5,6.57,18.4,18.81a15.76,15.76,0,0,1-.39,7.4,4.25,4.25,0,0,1-4.13,2.46c-1.55-.39-2.19-1.69-2.76-2.95-2.25-4.93-5.8-8.79-9.86-12.27-1.33-1.14-3.29-2.36-2-4.39,1.16-1.86,3.21-1,4.94-.54,1,.27,1.95,1,3.4.85a7.38,7.38,0,0,0-5.24-3.94,8.87,8.87,0,0,0-3.58-.22c-8.84,1.48-16.81-1.45-24.52-5.09-6.37-3-12.39-3.21-18.53.43-3.67,2.18-8.08,2.07-12,3.55a36.85,36.85,0,0,0-13.3,8.42c-5.07,5.08-10.09,10.17-13.61,16.59-2.88,5.24-3.65,10.92-4.63,16.62A2.08,2.08,0,0,1,329.33,311.18Z" style="fill:#f7c64c"/><path d="M352.69,338.73c-.64-4.65-3.86-8.4-4.57-13a2.64,2.64,0,0,0-1.24-1.93c-3.12-2-4.55-5.11-5.48-8.52-.51-4.31.08-5.14,4.86-6.77,4,.06,8.14-.53,11.05,3.19.94,1.78.34,3.5-.35,5.15s-.32,2.4,1.26,3a18.07,18.07,0,0,1,5.08,3.06c1.05,1.29,1.42,2.93,2.28,4.31,1.73,2.28,2.45,4.73,1.3,7.5-1.4,3.25-2.9,6.47-4.61,9.59-4.85.69-6.29,0-8.6-4.11C353.39,339.64,353.3,339,352.69,338.73Z" style="fill:#827a4b"/><path d="M352.69,338.73c1.39-.59,1.37.82,1.78,1.39,1.69,2.34,3.38,4.5,6.78,3.29.11,0,.43.54.65.84,1.21,3-1.22,4.7-2.48,6.82-2.41,2.35-4.7,4.92-8.48,4.92-3.34.66-5.58,2.69-7.48,5.47-5,7.31-11.12,13.34-20.08,15.65a51.31,51.31,0,0,1-12.12,1.21c-2.07-.12-3.5-.66-3.52-3,0-2.63,1.86-2.38,3.56-2.37,10.77,0,19.41-4.29,26.14-12.59a12.45,12.45,0,0,0,1-1.79c3.14-4.35,6.19-6,8.43-6.68,1.5-.47,4-.84,6.16-2.86,1.81-1.66,2.67-3.37,1.15-5.75A10.22,10.22,0,0,1,352.69,338.73Z" style="fill:#54703f"/><path d="M346.17,309.29c-3.24.66-4.27,3.09-4.77,5.95-.82-1.34-1.81-1.69-3.5-1.38a39.86,39.86,0,0,0-17.81,8.6,114.19,114.19,0,0,1-12.35,8.34c-1.83.35-3.73,1.39-5.36-.5-.17-1.8,0-3.42,2-4.25a52.73,52.73,0,0,0,12.25-7.91c3.84-3.12,8.24-5.12,12.74-7l2.47-1.11c1.11-2.12,3.31-2.13,5.16-2.28C340.1,307.52,343.49,306.47,346.17,309.29Z" style="fill:#4f6b3b"/><path d="M420,265.46c-9.35-1.47-18.74-2.68-28-4.52-5.48-1.08-10.26-4.29-15.26-6.76a4.55,4.55,0,0,1,3.58-.94c3.42.11,6.86-.34,10.27.24,6.88,1.08,13.36,3.49,19.82,6a2.23,2.23,0,0,1,2.21-.47c1.8,1.21,3.76,2.17,5.49,3.49C419.08,263.21,420.39,263.82,420,265.46Z" style="fill:#b68056"/><path d="M339.46,272.16c.71,1.58,1.25.21,1.66-.17,1.87-1.75,3.66-3.59,5.51-5.36.43-.41,1-1.32,1.41.07-2,9.39-6.92,14.54-15.62,16.25C335.71,280,337.77,276.19,339.46,272.16Z" style="fill:#bd8a5a"/><path d="M420,339.29c-.4-.35-.77-.16-1,.17a13.23,13.23,0,0,1-8,4.67c-.21,0-.51.06-.56-.06-1.89-4.18-5.37-7.73-5.06-12.77a16.77,16.77,0,0,1,3.29-5.62c1.7-1.95,5-2.59,4.93-4.25,0-.49-.27-.84-.09-1.44a2.77,2.77,0,0,1,1.65-1.54c-.22-.87-.45-1.73-.59-2.62-.57-3.6,1-6,4.58-6.73a42.21,42.21,0,0,1,7.71-.47c2.81.92,5.26,2.22,5.79,5.53a34.16,34.16,0,0,1-6.78,10.52,22.5,22.5,0,0,0-5.24,12.68A2.63,2.63,0,0,1,420,339.29Z" style="fill:#817c4b"/><path d="M432.63,314.16c-1.8-1.61-3.08-3.81-5.4-4.83,2.62-2.55,7.5-2.54,11.14,0,1.42,1.1,3.18.88,4.8,1.2,1.13.22,2.42,0,3.16,1.24,5.2,1.65,9.7,4.61,14.12,7.69a48.53,48.53,0,0,0,14.38,7.2,11.06,11.06,0,0,1,1.39.53c1.55.72,2.4,1.91,1.88,3.61s-2,2.08-3.62,1.72a39.12,39.12,0,0,1-13-6c-5.92-3.88-11.67-8.06-18.4-10.5C439.74,314.81,436.31,313.8,432.63,314.16Z" style="fill:#54733f"/><path d="M446.33,311.78c-2.28-.16-4.57-.35-6.85-.45a1.21,1.21,0,0,1-1.32-.93c-1.93-4.88-2.5-10.18-4.47-15-.36-.91-.69-1.9.12-2.8,1.43-.15,2.45-1.11,3.63-1.77,3.12,3.3,6.24,6.61,8.36,10.7,1.27,2,1,4.49,1.89,6.62C447.16,309.3,449.54,311.57,446.33,311.78Z" style="fill:#c0815a"/><path d="M350.94,356a32.16,32.16,0,0,0,7.73-5.4,5.59,5.59,0,0,1,3.33,1.12c6.4,3.88,13.27,6.61,20.75,7.18a42.23,42.23,0,0,0,21-3.72,72.87,72.87,0,0,0,6.92-3.56,5,5,0,0,1,4-.91l4.76,4.26c-7.09,8.12-16.32,12-26.74,13.76-12.43,2.11-23.63-1.32-34.36-7.15-1.49-.81-3-1.51-4.54-2.31S351.18,357.67,350.94,356Z" style="fill:#dbb681"/><path d="M414.62,350.7c-6.71,3.72-13.35,7.49-21.12,8.76-13,2.13-24.41-1.25-34.83-8.87,1.26-2,2.92-3.84,3.23-6.34.45-3.64,2.71-6.52,4.13-9.75a3.39,3.39,0,0,1,1.35-1.57c5.6-2.93,9.81-7.76,15.2-11a18,18,0,0,1,5.83-2.19,49.68,49.68,0,0,0,5.53-1.25c4.09-1.32,5.77-3.68,5.78-8,0-1.39-.4-2.77,0-4.16,1.14-2.1,3.49-2.47,5.27-3.64,1.4-.92,4.12-1.51,3.08-3.55-.91-1.78-3.2-.35-4.82.2-2.7.94-4.79,3.23-7.79,3.54-3.66-.49-7.34-.05-11-.29-4.61-.31-9.15-.9-12.11-5.15-.63-2.15,1-3.09,2.34-4.05,4.7-3.37,9.85-6.14,14.07-10.17,1-.95,3.23-1.73,2.24-3.26-.76-1.18-2.52.3-3.7.89-4,2-8.14,3.8-12.26,5.61A81.62,81.62,0,0,0,353,301.28c-1.4,1.26-2.82,2.51-4.47,4a17.58,17.58,0,0,0,6.85-2.15c1.26-.58,2.45-1.4,4-.94a1.4,1.4,0,0,1,1,1.37,20.38,20.38,0,0,1-2.38,8.52.85.85,0,0,1-1,.34c-1.33-2.09-3.43-2.5-5.67-2.64-1.69-.11-3.37-.31-5.05-.46-4.88-1.42-9.63-.41-14.37.78-.92-2.06,0-4.08.29-6.06,1.43-9.53,6.88-16.86,13.33-23.56a65.9,65.9,0,0,1,8-7.63,35.67,35.67,0,0,1,16.35-7c3.73-.52,6.63-2.68,10-3.91,4.66-1.72,9.06-1.05,13.32,1a75.88,75.88,0,0,0,17.55,5.9c3.28.65,6.34-.41,9.53-.32a11,11,0,0,1,8.54,4.25c.61.73,1.17,1.47.4,2.37s-1.41.47-2.19.14c-1.37-.59-2.73-1.23-4.15-1.69-1-.33-2.39-.76-3,.33-.72,1.25.65,2,1.46,2.59a36.31,36.31,0,0,1,8.31,8.56c1.62,2.37,2.87,5,4.29,7.52a81.74,81.74,0,0,1,4.33,15c.17.95.75,1.87,0,2.82-3.38-3-7.15-2.07-10.93-1.07-2.36.2-4.73.34-7.08.62-3.3.38-3.88,1.38-4.17,1.87-.8,1.41,0,3.23.54,4.48,1.78,4,5.4,6.08,5.23,6.35s-1.41-.4-6.2-3.19a1.71,1.71,0,0,0-.78.11c-.62.25-1,.87-1.65,2.07l-.09.17c-1.22,2.21-13.4,8.12-16.09,9.46,0,0-4.37.92-18.12,12.59a3.13,3.13,0,0,0-1.2,1.81,28.69,28.69,0,0,0,6.95-2.64c1.4-.64,2.74-1.81,4.46-.85a7.89,7.89,0,0,1,1.3,2.65c1.4,3.06,4,4.58,6.85,4.06a7.06,7.06,0,0,0,5.56-6.52c.27-2.66-1.75-4.62-1.81-7.12,1.22-2.05,2.28-4.3,5.22-4.22a12.52,12.52,0,0,0,1.8,6.18,20.49,20.49,0,0,1,3,6.92C411.4,346.75,413.29,348.58,414.62,350.7Z" style="fill:#f2d7a0"/><path d="M356.89,312.39l2.61-8.69c.19-.64-.22-.87-.74-1-.16-.91.51-1.27,1.13-1.53,3.66-1.57,7.39-3,11-4.73a1.51,1.51,0,0,1,1.69.18c3.45,3.82,7.92,4.92,12.85,4.88,3.56,0,7.14-.27,10.65.65.09,1.42-1.05,2-2,2.29-2.14.72-26.77,9.4-27.85,17.39-.14,1-.14,3.84-1.94,4.88a3.8,3.8,0,0,1-1.1.36,24,24,0,0,0-5.3,2.21c-2.45,1.3-3.9,2.63-4,2.52a8.2,8.2,0,0,1,1.34-1.33c3-2.82,4.54-4.26,5.2-6.08.39-1.09.88-2.44.27-3.4-1.82-2.86-11.61.57-11.86-.27-.13-.45,2.76-1.16,5.23-3.74A13,13,0,0,0,356.89,312.39Z" style="fill:#e9bc79"/><path d="M362.94,323q8.25-6.12,16.52-12.24a52.9,52.9,0,0,1,12.44-6.35,12.8,12.8,0,0,0,4.16-2.27c3-1.5,5.74-3.61,9-4.55,1.66-.47,3.73-1.38,4.69.87.88,2.08-.75,3.31-2.4,4.2-2.36,1.28-4.75,2.49-7.14,3.72a14.47,14.47,0,0,1-1.47,1.86c-9.56,7.46-19.5,14.25-30.92,18.63a4.64,4.64,0,0,1-3.19.39A7.22,7.22,0,0,1,362.94,323Z" style="fill:#9b6024"/><path d="M364.26,326.71q15.42-8,31.17-17.39c1.61-1,3.22-1.95,4.81-2.93a14,14,0,0,1,.49,6.5,7.51,7.51,0,0,1-6.73,6.68,32.43,32.43,0,0,0-19.07,9.52c-2.5,2.48-5.76,3.88-8.9,5.41a7.92,7.92,0,0,0-1.77-7.79Z" style="fill:#e6b771"/><path d="M406.15,331l-4.74,4.1a5.09,5.09,0,0,1-2.18,2.36c-3.49,1.55-6.49,4.18-10.45,4.69-3.51,1.43-6.71,3.58-10.42,4.54-.91.23-2.08,1-2.69-.11s.51-1.86,1.25-2.47c5-4.18,9.71-8.72,15.59-11.62,8-3.94,8.39-5.38,19.8-11.79l3.39-1.9a7.56,7.56,0,0,0-.93.83,7.86,7.86,0,0,0-1.46,2.52c-.55,1.63.3,5.58,3.39,9.56-3-3.4-6.79-4.46-8.89-3.13A4.15,4.15,0,0,0,406.15,331Z" style="fill:#996029"/><path d="M372.56,296.62a100.89,100.89,0,0,1-13.8,6.08c-3,.85-5.38,3.06-8.49,3.51-1,.15-2.39.91-2.95-.35-.44-1,.87-1.66,1.56-2.32a93.74,93.74,0,0,1,30.63-20.07c3.15-1.23,6.14-2.9,9.18-4.4,1.51-.75,3.09-1.48,4.23.33s-.81,2.42-1.73,3.21A84.51,84.51,0,0,1,378,292.4,24,24,0,0,0,372.56,296.62Z" style="fill:#965b24"/><path d="M388.78,342.18c4-2.82,8.51-4.55,12.63-7.05.82,2.09,2.39,3.82,2.41,6.3,0,4.78-2.87,8.41-7.24,8.67S389.1,347.28,388.78,342.18Z" style="fill:#e5b674"/><path d="M414.52,296.57c-1.1-.11-2.42-.32-2.26-1.72a3.35,3.35,0,0,1,3.23-3c1.31-.13,2.55.46,2.45,1.92C417.81,295.73,416.2,296.26,414.52,296.57Z" style="fill:#96652d"/><path d="M321.72,228.24c29.66-24,62.36-29.58,98.09-15.91,9.53,3.65,17.59,9.84,25.52,16.14a6.24,6.24,0,0,0,.72,1.09c1.82,1.89,3.19,4,.74,6.19s-4.52.35-6.33-1.32a82,82,0,0,0-36.78-19.62c-28.55-7-53.79.08-76.21,18.51-.85.7-1.63,1.48-2.42,2.25-1.43,1.4-3,1.77-4.7.54s-1.83-2.88-.84-4.6C320.17,230.37,321,229.33,321.72,228.24Z" style="fill:#251004"/><path d="M298.74,113.44c1.29-1.64,3.24-2.08,5.05-2.77a73.6,73.6,0,0,0,14.94-7.89c1.95-1.31,3.71-3.14,6.41-2.73,5.77.56,9.09,3.72,10.67,10.33,1.54,6.42-.21,12.15-3.89,17.42l-2.58,2.65c-8.21,5.75-16.66,4.13-25.18.84C299,126.38,295.07,121.05,298.74,113.44Z" style="fill:#301405"/><path d="M441.4,98.73c6.14,4.88,12.65,9.25,20.08,11.84,3.54,1.23,5.49,3,5.32,6.77,2.71,5.13-.72,8.31-3.71,11.64-9,5.61-14.84,6-20.38,1.25-6.13-.12-9.18-4.21-11.69-9a3.88,3.88,0,0,1-1.37-2.73,27.9,27.9,0,0,1-.41-6.26C430.82,103.67,434.37,99.73,441.4,98.73Z" style="fill:#2d1306"/><path d="M442.71,130.23c7.13,2.8,13.71,1.05,20.08-2.44,2.73.31,4.67,1.54,5.18,4.44-9.12,9.26-25.3,9-31.47-.9C438.4,129.88,440.71,130.72,442.71,130.23Z" style="fill:#84adad"/><path d="M299.79,112.44a15.67,15.67,0,0,0,4.65,17.68c-2.12,3-4.88,3-7.92,1.74-4.36-3.15-7-7.56-8.91-12.44-.72-1.87-.92-3.09-.44-3.94.57-1,1.93-1.3,3.85-1.73a30.09,30.09,0,0,1,3.89-.5A47.51,47.51,0,0,0,299.79,112.44Z" style="fill:#f3ecd6"/><path d="M327.91,132.5a22.93,22.93,0,0,1,1.29-2c.86-1.22,1.4-1.76,2-2.53a18.6,18.6,0,0,0,2-3.71,21.38,21.38,0,0,0,1.28-13.73c-1.34-4.09-4.46-7.61-9.33-10.45l-3.07.51c.88-.89,2.17-2.22,3.67-3.91,2.39-2.69,3.22-3.93,4.58-4a4,4,0,0,1,3,1.88,26.35,26.35,0,0,1,5.55,13.35,28.48,28.48,0,0,1-2.33,13.1A30.37,30.37,0,0,1,327.91,132.5Z" style="fill:#ede7d1"/><path d="M468,132.23c-1.52-1.73-4-2.32-5.19-4.44a18.26,18.26,0,0,0,4-10.45,8.9,8.9,0,0,0-.55-2.45,8.65,8.65,0,0,0-1.74-2.83,27.28,27.28,0,0,0,4.89,1.24c4.58.73,6.58.41,8.32,1.47,1.52.93,1,2.78.49,4.24A23.05,23.05,0,0,1,468,132.23Z" style="fill:#f4edd4"/><path d="M296.52,131.86l7.92-1.73a23.06,23.06,0,0,0,5.94,2c3.88.75,7.05.33,12-.39,1.75-.25,4.12-.64,6.93-1.29-3.82,6.6-10.6,7.45-17,7.54C306.64,138.07,300.63,136.9,296.52,131.86Z" style="fill:#90bdc7"/><path d="M441.4,98.73c-5.76,2.68-10,6.54-10.84,13.27a16,16,0,0,0-.39,3.36,16.39,16.39,0,0,0,.42,3.35c.61,2.53,4.84,7.48,12.12,11.52L437,132.06a29.17,29.17,0,0,1-7.25-9.81c-6-13.42,1.1-26,3-28.08s3.16-1.77,4.73.18C438.7,95.88,440.08,97.28,441.4,98.73Z" style="fill:#f0ebd2"/><path d="M442.5,105.47a4.68,4.68,0,0,1,4.6,5.24c-.23,2.66-2.11,4.2-5,4s-5-2.38-4.63-5.14A4.59,4.59,0,0,1,442.5,105.47Z" style="fill:#efe6d9"/><path d="M329.84,110a4.47,4.47,0,0,1-4.37,4.7,4.65,4.65,0,1,1-1-9.24A5,5,0,0,1,329.84,110Z" style="fill:#f0eadd"/><rect y="378.43" width="800" height="71.57" style="fill:#d6a950"/><path d="M459.25,378.44c-1.25-8.2-2.52-16.37-2.66-24.73-.08-5.21,2-8.58,6.15-11.23,6.67-4.24,14.15-6.09,21.8-7.12,17.53-2.38,35-2.41,52.3,2.06A51.29,51.29,0,0,1,547,341.27c3.45,2.3,7.44,4,7.4,9.32,0,2.27,2.28,3.16,4.37,2.93,14-1.52,21.33,10.63,17.24,22.69-.34,1-.6,2-.89,3-5.11,10.31-14.36,15-24.66,18.44-4.65,1.54-9.92,2.17-12.78,7-1.34,5.14-5.69,7.64-9.83,9.42-15.9,6.86-31.81,6.89-47.19-1.8-2.59-1.46-5.17-3.28-5.79-6.64C467.34,397.94,463.12,388.29,459.25,378.44ZM553.66,363l-8,23.06c13.11-2.24,21.59-8.24,21.42-13.39-.09-2.91-3-5.71-3.35-6.09A13.55,13.55,0,0,0,553.66,363Z" style="fill:#e2cbac"/><path d="M474.84,405.7c13,13,28.85,13,45.35,9.93,7.19-1.36,12.39-6.06,17.46-10.91,2.46,1.47,5.32,2.24,7.45,4.27,3.76,3.59,3.54,7.08-1.09,9.41a59.24,59.24,0,0,1-20,5.52c-13.86,1.66-27.72,1.67-41.46-1-5.29-1-10.68-2.07-15.22-5.44-4.23-3.13-4.39-5.92,0-8.82C469.58,407.22,472,405.72,474.84,405.7Z" style="fill:#b88b3d"/><path d="M548.61,352.85a19.25,19.25,0,0,1-9.3,5.46,124.92,124.92,0,0,1-66.1.32c-4-1.05-8.28-2.34-10.38-6.66.22-3.85,3.34-4.79,6.11-5.84a88,88,0,0,1,25.18-5.48c14.23-1,28.41-.64,42.3,3.2a32.35,32.35,0,0,1,9.6,4C547.72,349,549.69,350.18,548.61,352.85Z" style="fill:#7e4427"/><path d="M548.61,352.85c-.91-3.5-4.15-4.21-6.8-5.41-7.7-3.48-16-4.63-24.3-5.23-14.87-1.06-29.7-.48-44.13,3.94-3.91,1.19-7.89,2.32-10.55,5.82-1.63-2.14-.25-3.58,1.1-5.12,4.69-5.36,11.38-6.23,17.67-7.4a126.5,126.5,0,0,1,57.89,2.42,20.74,20.74,0,0,1,7.59,3.93C549.31,347.62,550.69,349.94,548.61,352.85Z" style="fill:#c9aa88"/></g></g></svg>