<svg xmlns="http://www.w3.org/2000/svg" viewBox="0 0 800 450"><g id="Capa_2" data-name="Capa 2"><g id="DiseñosMascotas"><rect width="800" height="450" style="fill:#75c4c3"/><path d="M800,431.6V450H0V344.07c148.49-15.83,211.16-22.59,223.74-24l8-.93c11.31-1.35,22.61-2.84,33.92-4.17,13.52-1.59,27.16-2.48,40.55-4.8a70,70,0,0,1,34.49,2.73c22.57,7.34,45.81,12.62,68.11,20.75,7.8,2.84,30.15,9.05,74.85,21.46C533.54,368.92,647.61,397.73,800,431.6Z" style="fill:#589ea0"/><path d="M231.48,387.29c-3.21-2.84-6.37-5.73-8.38-9.63-3.67-7.09-2.69-14.71,2.61-19.94,3.55,2.54,5.38,6.41,7.73,9.87a21,21,0,0,0,3.26,8.25c3.72,5.77,8.73,9.19,16.07,8.12,5.51-.81,10.63-2.75,15.76-4.77,2.68-.84,5.25-2,7.88-3a19.06,19.06,0,0,1,3.07-1,55.7,55.7,0,0,1,10.5-3.62,82.89,82.89,0,0,0,10.86-4.15c2.19-1,6.12-.81,6.2-3.29.09-2.81-3.82-2.5-6.05-3.26-6.55-2.26-13.31-3.87-19.85-6.21-4.2-1.72-8.29-3.59-10.57-7.89,1.17-2.21,3.08-1.48,4.71-1q22.82,7,45.77,13.48c3.53,1,6.24,3.35,8.82,5.9,9.1,9,17.95,18.23,27.52,26.76,4.83,4.31,10.05,6.29,16.34,5,14.77-2.92,28.91-7.35,40-18.29,6.74-6.66,6.76-14.88.27-21.76-6.08-6.45-13.76-10.49-22-13.25-16.71-5.61-33.79-9.54-51.58-9.46a53.43,53.43,0,0,1-9.73-1.31c-2.18-1.46-4.74-2.58-5.3-5.59,21.12.36,42,2.26,62.44,8.1,12.37,3.54,24.24,8.13,34.29,16.39,8,6.6,13.2,15.8,7,27.49,0,2.52-1.75,4-3.28,5.56a53.53,53.53,0,0,1-12.34,9.33c-16.53,9.16-34.52,13.46-53,16a251.34,251.34,0,0,1-77.67-1.58c-15-2.64-29.54-6.86-42.93-14.38C236.78,392.23,233,391.14,231.48,387.29Z" style="fill:#d2d8da"/><path d="M231.48,387.29l8,5.46c15,11.12,31.9,17.66,50.21,20.93A199.81,199.81,0,0,0,332.79,417c20.46-.81,40.67-3.29,59.69-11.57a106.66,106.66,0,0,0,21.43-12.73c5.5-4,11.2-7.78,15.21-13.46,5.52,8.47,2.38,19.44-6,25.92-10.63,8.19-22.72,12.72-35.46,16-23.08,5.92-46.64,7.5-70.28,6.18-20.46-1.14-40.68-4.46-59.9-12.19-8.67-3.48-16.61-8.12-22.67-15.34C231.83,396.32,229.66,392.24,231.48,387.29Z" style="fill:#417f7e"/><path d="M325.39,327.29c2.62.61,3.51,3.26,5.49,4.62,9,8.18,8.25,14.81-2.85,19.55-9.38,4-19.34,4-29.22,1.68-4.58-1.09-9.24-1.92-13.58-4-4.78-2.26-5.89-4.77-3.72-9.53.67-1.49,1.51-2.9,2.29-4.33,1.16-2.6,3.61-3.79,5.78-5.29,4.89-5.32,11.41-6.45,18.13-7,5.79-.5,11,2.19,16.61,3C324.73,326,325,326.83,325.39,327.29Z" style="fill:#eae6dc"/><path d="M271,346.65c3.3,2.57,6.4,5.45,10.5,6.78,4.94,3.06,10.59,4.52,15.79,7,4.53,2.12,5.44,4,4.25,8.2-3.68,1.41-7.17,3.33-11.1,4-19.67,1.13-34.05-8.41-45.87-22.92-3.08-3.79-4-8.61-4.52-13.35-.21-1.84-.18-3.95,2-5,4.73-3,8.37-.08,12,2.34,1.7,1.13,3,2.83,5.1,3.37s3.51,2,5.18,3.11C266.56,342.37,269.6,343.68,271,346.65Z" style="fill:#eb9912"/><path d="M242.09,331.38c-2.23,7.49,2.44,18,9.49,24.46,11.13,10.16,24.13,15.36,38.89,16.81l-10.7,3.53c-6.49-2-12.35-5.84-19.49-6.11-4.24-.16-8-2.81-12.24-3.61a1.7,1.7,0,0,1-1.34-2c.41-1.3,1.66-.9,2.67-.82a13.37,13.37,0,0,0,1.55,0c-.44,0-.89,0-1.33,0-.63,0-1.42-.3-1.34-.89.73-5.22-3.92-7.65-5.84-11.47-1.09-1.83-2.44-3.58-2-5.92a63.15,63.15,0,0,1-1.62-7.82C238.59,334.93,238.35,332,242.09,331.38Z" style="fill:#a15708"/><path d="M232.62,367.52c-2.71-3-5.37-6-6.9-9.8-2.51-7.63-.41-9.74,8.32-8.33a1,1,0,0,1,.21,1.22,1.65,1.65,0,0,1-.62.61c-5.33,2.32-5.53,2.9-2.41,8.07,2.46,4.07,6.31,6.66,10.27,8.95A57.82,57.82,0,0,0,273,375.85c1.46-.05,3.34-.92,4.05,1.38l-8,3.08c-12.77,3-23.27-2.55-33.51-9A6.57,6.57,0,0,1,232.62,367.52Z" style="fill:#91521b"/><path d="M263.87,341c-1.83-1-3.88-1.68-4.68-3.88A218.5,218.5,0,0,1,289.58,330l-4.65,5.64C278.21,338.6,271.4,341.22,263.87,341Z" style="fill:#cdd9d8"/><path d="M240.42,345.3q1.61,2.71,3.2,5.43c-2.82,2.44-5.19,2.25-9.41-.79a.74.74,0,0,0-.17-.55A17.94,17.94,0,0,1,240.42,345.3Z" style="fill:#ded4c0"/><path d="M263.87,341c6.91-2.21,13.81-4.47,21.07-5.31-4.6,10.42-2.5,14.22,9.41,15.6,3.41.4,6.55,1.69,10.15,1.67,8.08-.05,16.08.47,23.72-3,8-3.67,8.84-5.73,4.92-13.23-.81-1.55-1.51-3.16-2.26-4.75,21.28.72,42.31,3.14,62.39,10.68,9.51,3.57,18.62,8,24.61,16.84,3.61,5.32,2.86,13.68-1.36,18.61-6.51,7.62-15.22,11.77-24.21,15.36a81.87,81.87,0,0,1-19.74,5.3,17.94,17.94,0,0,1-14.84-4.52c-10.23-9.1-19.83-18.85-29.42-28.6a20.23,20.23,0,0,0-9-5.45q-22.44-6.51-44.85-13.12c-1.12-.33-2.2-1-3.42-.36A21.62,21.62,0,0,1,263.87,341Z" style="fill:#a4a6a9"/><path d="M348.37,402.33a201.15,201.15,0,0,1-69.3-3.72c-4.91-1.1-9.85-2.14-14.51-4.13-3-2.42-1.59-4.39.82-5.91a10.81,10.81,0,0,1,5.91-1.63c1.93.75,1.92,3.21,3.65,4.17,1,.58,2.3,1.26,3.2.29,1.19-1.31-.3-2-1.15-2.67s-2.24-1-1.73-2.6c3.31-2.19,6.52-4.64,10.81-4.44,1.64,1.76,2.07,5.65,6.11,3.49-.65-1.63-4.4-2-1.89-4.73a7.7,7.7,0,0,1,6.21-1.76c2.35,1.06,3.74,4.54,7.25,2.88.46-2.36-3.48-2-2.64-4.5,6.48-4.14,13.09-7.75,21.2-5.08a11.36,11.36,0,0,1,5.38,3.06c5.88,6.95,13.08,12.56,19.25,19.2C349,396.5,351.37,399,348.37,402.33Z" style="fill:#a75629"/><path d="M413.91,392.73c-9,9.82-20.63,14.93-33,18.6-20.73,6.17-42.05,8.15-63.55,7-22.08-1.15-43.82-4.39-63.71-15-5.23-2.8-10.55-5.58-14.18-10.59A163.28,163.28,0,0,0,279,406.22a211.34,211.34,0,0,0,35.71,4.3c20.38.72,40.69-.08,60.69-4.48C388.71,403.11,401.71,399.07,413.91,392.73Z" style="fill:#a4aaae"/><path d="M234.21,349.94c3.21-.61,6.12,2.4,9.41.79q3,3.84,6,7.69a10.32,10.32,0,0,1,1.23,1.81c.64,1.35-3.22,1-1.16,2.72,1,.83,2.56-.06,3.86-.3,1-.18,1.7.34,1.63,1.79-2.53.13-5.12-1.1-7.93.11,1.69,2.09,4,1.19,5.86,1.75,8.4,2.58,17.06,4.28,25.31,7.46,1.55.6,1.82,1.08,1.38,2.42l-2.72,1.06a68.87,68.87,0,0,1-23.94-2.42A52.22,52.22,0,0,1,232,363c-2.5-2.35-3.72-5.72-4.76-9-.67-2.07.19-3.44,2.67-3.39C231.35,350.64,232.89,350.92,234.21,349.94Z" style="fill:#d07316"/><path d="M271.72,387.54a13.92,13.92,0,0,1-4.53,1.61c-3,.56-4.58,2.16-2.63,5.33-2.06-.48-4.24-1-4.35-3.63-.1-2.27,1.87-2.94,3.49-3.52q25.59-9.12,51.22-18.08c4.85-1.7,8.9-.31,12.48,3.39,7.46,7.7,15.15,15.17,22.65,22.82,3.34,3.41,2.8,5.32-1.68,6.87.76-2.9-.22-5.23-2.34-7.21q-7.44-6.94-14.85-13.92A18.94,18.94,0,0,1,329,379c-4.78-6.29-10.53-8.1-17.89-5.43-3.35,1.21-6.61,2.64-9.91,4a5.07,5.07,0,0,1-4.6,1.68l-6.23,2.06c-1.41.64-2.73,1.77-4.43.78l-10.58,4.66A3.15,3.15,0,0,1,271.72,387.54Z" style="fill:#b2a59e"/><path d="M232.62,367.52c10.71,8.31,22.67,13.05,36.39,12.79a65.85,65.85,0,0,1-18.67,5.36C242.42,386.63,232.28,376.46,232.62,367.52Z" style="fill:#a8a9ab"/><path d="M301.57,368.6c.25-4.29-2.45-6.05-6-7.53-4.93-2.07-10.22-3.58-14.08-7.64,8.07,2.42,16.15,4.79,24.19,7.3,1.77.55,4.16,1.08,4,3.47-.1,2.09-2.39,2.36-4,3C304.39,367.72,303,368.14,301.57,368.6Z" style="fill:#aca59d"/><path d="M280.13,362.16c-3.62-.55-6.71-2.43-10-3.45-5.07-1.58-8-6.48-13.22-7.57-.73-.16-2.08-1.3-1.4-1.78,2.82-1.95-.08-2.55-.72-3.5-.85-1.25-2-2.29-2.6-3.89a5.71,5.71,0,0,0,1.36.83c2.21.66,2.25,5.49,6.4,3.05.79-.46,4.27,2.12,5.35,4C268.79,355.82,274.42,358.91,280.13,362.16Z" style="fill:#c1740f"/><path d="M340.67,364c.47-3.75-.1-6.86-2.89-10-2.53-2.85-.81-5.92,2.49-7.61A43.19,43.19,0,0,1,367.12,342a91.71,91.71,0,0,1,17.32,4c3.55,1.3,6.34,3.27,7.21,7.21,1.69,7.39-2,12.8-9.64,12.93a86.05,86.05,0,0,0-23.17,3.24C352.34,371.31,345.5,370,340.67,364Z" style="fill:#f2f6f7"/><path d="M357.54,379.59c4.32-5.51,10.32-5.88,16.71-5.93,7.9-.07,14.75-3.39,20.24-9,3.45-3.51,7.24-5.32,11.94-4.12,3.06.79,2.91-1.4,3.4-3.53l5.31,4.55c-.7,1.69-3.2,1.34-3.37,3.37-2.46,8.07-7.77,13.58-15.37,17-9.3,4.13-18.71,7.78-29.23,6.78C361.08,388.14,357.16,384.56,357.54,379.59Z" style="fill:#b4461f"/><path d="M357.54,379.59c2.39,6.13,4.75,7.45,11.59,7.77,11,.53,20.53-3.73,29.94-8.4,5.21-2.59,8.54-7.17,10.9-12.45.33-.72,0-2.49,1.8-1.53,2.24,4.17,1.11,8.2-1.88,11.08-11.62,11.2-25.47,17.13-41.86,16.15a10.11,10.11,0,0,1-7.93-4.4c-1.21-1.72-2-3.67-4.8-2.55-1.52.59-.68-1.12-1.05-1.66-1.29-1.86.69-3.53.16-5.3C355.76,378,356.55,379,357.54,379.59Z" style="fill:#91321a"/><path d="M340.67,364c7.58,5.18,15.6,6,24,2.26,4.71-2.08,9.65-1.22,14.5-1.31,8.64-.15,12.13-3.37,12.48-11.76,3.49,6.09,2.24,10-4,12.83a17.51,17.51,0,0,1-8.66,1.6,42.91,42.91,0,0,0-17.85,2.71,19.85,19.85,0,0,1-16.74-1.75C342.57,367.61,340.73,366.51,340.67,364Z" style="fill:#dfdcd4"/><path d="M271.72,387.54a3,3,0,0,1,3.68-.87c2.14,1.12,5.62.88,5.11,4.74-.24,1.82-1.74,2.3-3.31,2.07C273.82,393,271.33,391.56,271.72,387.54Z" style="fill:#753111"/><path d="M296.64,379.17c1-1.91,2.78-1.92,4.6-1.68a5.81,5.81,0,0,0,1.46.83c1.82.34,3.92.93,3.42,3.07-.55,2.37-2.91,2.65-5.05,2.07S297,381.72,296.64,379.17Z" style="fill:#7e3313"/><path d="M317,387.31c-2.27,0-4.14-.33-4-2.78.19-3.07,2.72-2.6,4.72-2.6,1.68,0,4.3-.58,4.25,1.87C321.87,386.77,318.93,386.91,317,387.31Z" style="fill:#7b2f11"/><path d="M286,382a4.13,4.13,0,0,1,4.43-.78c-.63,2.2,1.13,1.48,2.08,1.64,1.29.22,2.31.76,2.29,2.18,0,1.66-1.29,2-2.71,2.25C287.39,388,286.17,387,286,382Z" style="fill:#813311"/><path d="M314.31,400.75c-2.51,0-4.93-.37-5.52-3.26-.36-1.75,1.29-2.39,2.62-2.05,2.36.62,5.9-.37,6.49,3.13C318.25,400.65,316,400.72,314.31,400.75Z" style="fill:#7f320e"/><path d="M338.85,399.83c-2.31,0-4.26-.8-4-2.53.38-2.87,3.37-2.93,5.55-3.3a2.37,2.37,0,0,1,2.7,2.76C342.72,399.33,340.33,399.41,338.85,399.83Z" style="fill:#792c0d"/><path d="M328.71,393.53c1.4.18,3.63,0,3,1.69a6.86,6.86,0,0,1-5.54,4.55c-1.27.14-2.61-.18-2.41-1.79C324.08,395.05,326,393.71,328.71,393.53Z" style="fill:#81320e"/><path d="M298.69,398.09c-1.86-.1-4.3.28-4.41-2.37-.14-3.18,2.62-1.93,4.25-2.08,1.82-.16,4.31-.54,4.25,2.29C302.72,398.39,300.39,398,298.69,398.09Z" style="fill:#7b2f0f"/><path d="M304.89,386.37c2,0,4.44,0,4.5,2.12.07,2.56-2.46,2.47-4.41,2.42-1.78-.05-4.18,0-4.28-2.21C300.57,385.83,303.3,386.61,304.89,386.37Z" style="fill:#792c0a"/><path d="M315.91,374.75c1.59.15,3.81-.2,3.64,2.06-.14,2-2.13,2.51-4,2.49-1.73,0-3.44-.3-3.46-2.42C312,374,314.41,375,315.91,374.75Z" style="fill:#7b3010"/><path d="M364.37,358.87a16.16,16.16,0,0,1-9.88-2.13c-3.32-2.11-3.67-4.83-1.18-7.87,5.3-6.46,16.15-6.9,21.87-.89,3.36,3.53,2.5,7.71-2,9.57A19.7,19.7,0,0,1,364.37,358.87Z" style="fill:#e5c262"/><path d="M363,356.93h-.45c-5.89,0-8.43-1.41-8.58-4.73s4-6.33,8.72-6.69a3.28,3.28,0,0,1,3.63,2.59c1,3,2.92,4,5.82,3.19,1.26-.34,2.46-.58,2.95.91.57,1.78-.66,2.8-2,3.46a9.83,9.83,0,0,1-3,.77c-2.34.29-4.7.48-7.05.7Z" style="fill:#f9bd2f"/><path d="M394.19,206.76a1.5,1.5,0,0,0,0-3,1.5,1.5,0,0,0,0,3Z"/><path d="M664.35,387.93c0,2.54-.07,5.07-.09,7.6,0,3.87-.68,4.36-4.6,3.42-10.9-2.62-21.8-5.27-32.71-7.85-13.09-3.1-26.19-6.14-39.29-9.22a9.07,9.07,0,0,1-1.38-.56c0-1.49,1.06-2.38,1.88-3.37,10.56-12.72,16.83-27.37,19.72-43.56a8.26,8.26,0,0,0,.27-2.71c-.14-.94-.44-1.82-1.54-2a2,2,0,0,0-2.21,1.26,12.37,12.37,0,0,0-.94,3.82,91.6,91.6,0,0,1-20.7,43.42,7.74,7.74,0,0,1-2,1.84c-6.74-.83-13.08-3.26-19.61-4.92-9.76-2.48-19.64-4.53-29.14-8-.3-2.11,1.27-3.33,2.36-4.71,9.88-12.47,16.57-26.35,18.78-42.23,1-6.83,1.43-13.68.33-20.56a10.85,10.85,0,0,0-.26-1.8c-.4-1.22-1-2.39-2.5-2.09-1.37.26-1.61,1.5-1.48,2.64.27,2.31.25,4.66.54,7,1,7.38-.8,14.49-2.06,21.64-.16.92-.3,2.13-1.78,2a2.6,2.6,0,0,1-.85-1.57c-2.69-15.07-7.9-29.5-11.46-44.35-2.09-8.76-4.41-17.46-6.29-26.27-1.08-5.07-2.88-9.91-4.28-14.88-.67-2.36-1.82-2.75-4-1.76a123.41,123.41,0,0,1-28.56,9.21,175.07,175.07,0,0,1-29,2.82,8.32,8.32,0,0,1-4.45-.68c-1.59-1.18-1.16-2.89-1.13-4.48.15-7.48.12-7.52-7.28-8.17A143.33,143.33,0,0,1,412.25,231a68.65,68.65,0,0,1-9.09-4.2,5.22,5.22,0,0,1-2.83-2.62,85.64,85.64,0,0,1-27.26-39.59c-1.13-4.92-2.41-11.75-3.49-19.94a128.13,128.13,0,0,1-1.31-17.85c.1-12.87,2.45-25.15,9.34-36.29,5.89-9.55,14.48-15.63,24.75-19.69,6.52-2.58,13.29-4.37,19.91-6.61,2.21-.75,4.4-1.55,6.61-2.31,9.13-3.12,14.43-9.36,17.5-18.61a32.72,32.72,0,0,1,21.3-21.45c7.93-2.68,15.63-1.51,23.1,1.72a6.19,6.19,0,0,0,5.48.17c11.23-5.22,23.23-7.09,35.44-7.4,8.51-.21,16.94,1.2,25.26,3.11,17.73,4.07,34.17,11,48.36,22.49,10.84,8.77,19.11,19.79,25.37,32.26a119.63,119.63,0,0,1,11.52,39.77c1.36,11.25.35,22.42-1.4,33.56-2.48,15.85-8.16,30.68-14.49,45.3-4.32,9.95-4.25,20.41-3.11,30.8,1.69,15.39,8,29.44,14,43.51,8.26,19.28,16.33,38.64,21.12,59.15A216.42,216.42,0,0,1,664.35,387.93Z" style="fill:#769863"/><path d="M393.87,185.15c-3.63-.63-6.16,1.54-8.8,3.43a26.13,26.13,0,0,1-7.44,4.95c-3.28,1.35-4.36-.12-4.46-3.13.07-1.74,1.28-2.8,2.33-4a20.68,20.68,0,0,1,4.59-3,133.72,133.72,0,0,1,32.2-8.25,119.86,119.86,0,0,1,37.52,1.3c21.32,4.06,39.8,13.25,53.54,30.62,1.15,1.45,2.23,3,3.29,4.49s1.28,3.05-.28,4.4c-1.81,1.55-3.43.95-4.87-.57-.85-.9-1.64-1.86-2.4-2.83-13.81-17.77-32.59-26.63-54.31-30.06C427.64,179.79,410.68,181.28,393.87,185.15Z" style="fill:#1f1005"/><path d="M419.49,201.61c-1.7,3.53-3.39,7.07-5.11,10.59-2.86,5.9-7.79,9.3-13.8,11.41-1,1.6-2.68,1.62-4.28,1.68a9.35,9.35,0,0,0-8.34,5,87.15,87.15,0,0,1-4.53,7.46c-.77,1.05-1.39,2.24-2.75,2.67a2.5,2.5,0,0,1-1.77-.39,23.82,23.82,0,0,0-5.35-3.38c-1-.45-2.11-.83-2.27-2.18,1.79-3.37,3.47-6.81,5.4-10.09,2.45-4.15,3.05-8.07.39-12.48-3.46-5.75-3.44-11.86-.73-18a8,8,0,0,0,1-4.38c1.44-2.36,2.89-4.71,5.43-6.1,2.75-1.72,3.95-5,6.66-6.72,1.93-.06,2.92,1.33,4,2.61,3,2.91,1.1,5.45-.59,8a41,41,0,0,0-3,5.06c-.66,1.76-1.94,4.06.08,5.12s2.75-1.63,3.84-2.93a61.58,61.58,0,0,1,3.71-5.26c2.24-3.61,2.94-3.94,6.27-3,1,.48,2,.94,2.35,2.11,1.27.75,1.34,1.76.63,2.93.38,2.44-1.44,4-2.38,5.9a24,24,0,0,0-2.57,4.44c-.36.83-.76,1.74,0,2.54a2.65,2.65,0,0,0,2.57.47,4.73,4.73,0,0,0,2.94-2,29.21,29.21,0,0,0,2.73-4c1.18-1.77,1.61-4.15,4-5,1.55-1.75,6.74-1.67,8.09.14.44.59-.11,1.12-.18,1.69C422.44,198.12,421.29,200,419.49,201.61Z" style="fill:#b1b8bb"/><path d="M371.29,234.47c2.76,1.51,5.93,2.33,8.06,4.89-1.53,2.61-3.2,5.13-4.06,8.09-.65,2.26-1.37,4.43-.53,6.81a2.8,2.8,0,0,1-1.26,3.43,16.9,16.9,0,0,0-5.66,7.36,6.32,6.32,0,0,1-4,3.85c-3.25.88-5.25,3.32-7,5.9-2.17,3.18-2.93,3.5-6.44,1.87-2.11-1-4.08-2.24-6.1-3.38-1.34-.76-2.84-1.47-4.23-.24s-1.24,3.07-.64,4.77c.48,1.37,1.67,2.28,2.3,3.55-.07,1.75-.69,3-2.67,3.17-3.54-3.78-4.27-8.63-4.83-13.41-1.26-10.83,1.7-20.37,9.31-28.38S360.39,231.77,371.29,234.47Z" style="fill:#749761"/><path d="M339,284.54l2.31-3.14c.48-3.75,2.41-5,5.46-3.34,3.22,1.74,6.35,3.58,10,4.43,2,.48,2.35,2,1.66,3.81a76.05,76.05,0,0,1-3.52,7.75,15.58,15.58,0,0,0-1.88,5.11c-3.15,4.65-4.74,10.22-8.47,14.54-2.51,3.8-4.76,7.76-10,8.64-3.82.64-7.1.07-9.62-2.94s-2.11-6.38-1.22-9.81c.17-.69.45-1.34.68-2C328.46,299.38,334.79,292.63,339,284.54Z" style="fill:#b0b8be"/><path d="M457.23,250.91c15.88.21,31.52-1.48,46.75-6.14a112.39,112.39,0,0,0,16.07-6.42c2-1,2.89-.78,3.68,1.59,3.64,10.86,5.81,22.08,8.62,33.15,3.63,14.3,7.65,28.5,11.5,42.74,1.16,4.29,2.58,8.53,2.29,13.08,1,1.11.45,2.33.13,3.45-3.38,11.86-9.61,22.17-17.35,31.65a3.09,3.09,0,0,1-2.26,1.35c-6.24-.9-12.15-3.05-18.19-4.67q-27.41-7.4-54.77-14.88c-6.53-1.78-13-3.65-19.57-5.48-1.14-.32-2.08-.81-2.15-2.18-1.43-2.28-.31-4.56.15-6.76a207.59,207.59,0,0,1,6.39-22.82c3.86-11.63,7.47-23.35,12.1-34.71a15.4,15.4,0,0,0,.32-1.8c2.3-5,3.13-10.43,4-15.84C455.2,254.35,454.46,251.79,457.23,250.91Z" style="fill:#b9c874"/><path d="M451.65,272.38c-.93,5.3-3.25,10.16-4.91,15.22-4.79,14.58-10.12,29-13.48,44-.49,2.16-.85,4.35-1.27,6.54-.72,1.19-1.68,1.12-2.89.78-14.68-4.13-29.37-8.2-43.82-13.11-1.92-.65-3.42-2.22-5.54-2.3a18.94,18.94,0,0,1-6-3.42,229.15,229.15,0,0,1-19.62-18.16,6.79,6.79,0,0,1-1.77-2.79c-.94-1.13-.13-2.1.32-3.07,1.62-3.48,3.24-7,4.95-10.42.65-1.31.62-2.07-1-2.23a19,19,0,0,1-9.4-4c-2.53-1.88-4.08-1.47-5.33,1.24a4.23,4.23,0,0,1-.56.72,6.46,6.46,0,0,1-3.23-7.85c1-2.32,3.18-3.07,5.84-1.72s5.16,2.78,7.65,4.32c1.93,1.18,3,.65,4.11-1.21,1.85-3,4-5.84,7.68-6.92.46,1.23-.49,1.87-1.15,2.58a20.16,20.16,0,0,0-2.75,3.24c-1,1.6-2.89,3.37-1.55,5.15,1.45,1.94,3.08,3.91,6.47,3.42,6.17-.9,6.22-.59,7.27-7,.17-1,.3-2.32,1.43-2.45,3.67-.41,7.09-2.77,11-1.41,4.58,3,8.95,6.26,14,8.47,10.07,4.39,20.23,4.61,30.59,1.42A120.64,120.64,0,0,0,448,273.24C449.11,272.67,450.21,271.7,451.65,272.38Z" style="fill:#648454"/><path d="M526.66,365.36c7.36-9.39,14.2-19.08,17.78-30.66.59-1.92,1.14-3.86,1.7-5.79,2.26-9.67,3.68-19.4,2-29.33-.33-2-.58-4,1.44-5.14,2.23-1.29,4.57.47,5,3.59A84.26,84.26,0,0,1,551.19,334c-3.87,12.51-10.85,23.22-19.16,33.16C530.18,366.7,528.18,366.77,526.66,365.36Z" style="fill:#50713f"/><path d="M580.77,380c0-2.59,2.26-3.76,3.57-5.44a89.12,89.12,0,0,0,18.45-42.68c.32-2.19,1.36-4,4-3.58s2.84,2.64,2.49,4.7c-2.92,17.09-9.37,32.61-20.56,46a26.39,26.39,0,0,1-2.43,2.29A18.69,18.69,0,0,1,580.77,380Z" style="fill:#507240"/><path d="M384.13,155c2.69-2.23,5.51-1.54,8.28-.26a105,105,0,0,1,17.44,10.43c8.15,5.86,17.38,9.45,26.72,12.87,5.37,2,6.32,3.5,5.75,8.41-1.42,2.92-4.08,3.93-7,4-15.4.53-29.47-3.36-41.52-13.28a33.41,33.41,0,0,1-9.91-14.69C383,160.09,382.22,157.48,384.13,155Z" style="fill:#efa416"/><path d="M625.26,108c0,3.92-1.55,6.55-5.08,7.81-3.71,1.33-8.55-.35-11.5-4.19-3.32-4.3-5.2-9.06-4.14-14.65,1.17-6.14,6.88-8.6,12-5.77C622.59,94.59,625.42,100.11,625.26,108Z" style="fill:#7f6a40"/><path d="M637.47,142.44a18.65,18.65,0,0,1-5,12.31,7.9,7.9,0,0,1-8.88,2.1c-3.12-1.07-4-4.11-4.38-7.1-.88-6.12.19-11.76,5-16,5-4.42,9.93-3.18,12.26,2.75A13.64,13.64,0,0,1,637.47,142.44Z" style="fill:#7f6b40"/><path d="M384.13,155c-.45,9.54,4.6,16.47,11.38,22.07,11.34,9.36,24.84,12.62,39.34,12.4,2.89,0,5.19-1.5,7.48-3-.26,3.46-2.78,5-5.56,5.91a24.48,24.48,0,0,1-14.58.4c-5.36-1.58-11-2.07-16.16-4.39a4.78,4.78,0,0,1-2.58-1.34,3.7,3.7,0,0,0-2.42-1c-2.73-.17-4.55-1.77-6-3.89a8.26,8.26,0,0,0-2.3-2.3l-3.33-3.14c-3.63-4.26-6.9-8.72-8-14.39C380.87,159.35,381.25,156.73,384.13,155Z" style="fill:#a56b0c"/><path d="M631.94,345.24c-1-5.16,5-8.25,9.27-5.92,4.6,2.55,7.65,6.28,7.8,11.8.13,4.93-3.77,7.67-8.5,6.05A12.25,12.25,0,0,1,631.94,345.24Z" style="fill:#7d6b41"/><path d="M538.16,43.39h1.52c3.85.07,6.2,1.53,6.9,4.28.84,3.27-.59,6.28-3.91,8.08a13.11,13.11,0,0,1-11.71.72c-4.41-1.81-5.11-7.09-1.44-10.14C532.25,44.07,534.22,43.39,538.16,43.39Z" style="fill:#806c45"/><path d="M625.88,291.38c0,5-5.07,7.4-10,4.65a14.32,14.32,0,0,1-6.72-7.95,5.43,5.43,0,0,1,1.11-5.94,5.69,5.69,0,0,1,5.82-1.64C622.08,282.05,625.87,286.25,625.88,291.38Z" style="fill:#7e6c42"/><path d="M437.2,128.33a4.45,4.45,0,0,1-3.44,4.78,14.88,14.88,0,0,0-9,6.79,2.25,2.25,0,0,1-2.51,1.35c-1.13-.28-1.51-1.2-1.62-2.3-.5-4.94,3.66-12.69,8-14.9S437.26,123.85,437.2,128.33Z" style="fill:#2a1507"/><path d="M618,258.25a9.83,9.83,0,0,1-4,8.36c-3.87,2.78-7.21,1.37-8.27-3.31a9.63,9.63,0,0,1,4.94-10.38C614.84,250.9,618,253.15,618,258.25Z" style="fill:#7c6c40"/><path d="M393.77,130.32a16.55,16.55,0,0,1-.47,5.28,2,2,0,0,1-1.95,1.59,1.75,1.75,0,0,1-1.7-1.47,16.82,16.82,0,0,0-6.3-9.32,4.83,4.83,0,0,1-.43-7,5,5,0,0,1,6.87.08C393.22,122.59,393.68,126.8,393.77,130.32Z" style="fill:#1c1103"/><path d="M621.56,183.28c-.11,3.86-3.91,8.07-7.28,8.05-2.5,0-4.84-2.78-4.77-5.64.11-4.68,3.26-8.43,7-8.37C619.63,177.37,621.66,179.78,621.56,183.28Z" style="fill:#7c6c40"/><path d="M513.83,62.28c3.34,0,5.42,1.84,5.45,4.79,0,3.54-4,6.84-8.35,6.77-3.33,0-5.68-2-5.66-4.61C505.3,65.58,509.38,62.28,513.83,62.28Z" style="fill:#7d6f44"/><path d="M507,54.39c-2.6-.08-4.77-1.92-4.77-4.07,0-3.06,4.29-6.42,8.05-6.3,2.79.08,4.14,1.42,4.11,4.07C514.37,51.79,511.18,54.51,507,54.39Z" style="fill:#776f44"/><path d="M380.48,240c2.42,3.2,5.9,5.55,7.58,9.35,1,2.19,2.95,4.39,1.73,6.77s-4.15,1.3-6.37,1.54c-1.15.11-2.68-.6-3.32.71s.7,2.18,1.29,3.19c1.95,3.36,3.88,6.71,1.88,10.76a8.86,8.86,0,0,0-5.28.62,5.15,5.15,0,0,1-3.46.68c-.92-.21-2.25.05-1.87,1.22.72,2.19-1,3.85-.79,5.89.24,2.4-1.52,2.8-3.35,2.88a16.5,16.5,0,0,1-2.39-.32c-1.75-.21-3.39.6-5.06.68-1.83.1-1.1-2.75-3.14-3.25s-2.09-2.29-1.26-4.21c1.48-3.45,4.14-5.89,6.7-8.46a5,5,0,0,0,3.41-3.09c1.44-3.35,3-6.62,6.59-8.33.59-.29,1.11-.87.73-1.45-2.42-3.74-.06-7.05,1-10.34.73-2.14,1.24-4.84,4.19-5.45Z" style="fill:#7c7953"/><path d="M403.37,196.78c1.93,2.46,4.71,2.32,7.41,2.41-.92,1.43-1.77,2.92-2.77,4.3a5.58,5.58,0,0,1-5.2,2.51c-2.28-.2-3.37-1.62-2.49-3.71A56,56,0,0,1,403.37,196.78Z" style="fill:#728f65"/><path d="M398.06,190c-1.21-2.63-4.12-1.87-6.06-3a8.51,8.51,0,0,1,1.11-2.09c1.8-1.88,1.19-3.49-.38-5.06,2.06.39,3.07,2.2,4.42,3.45,1.87,1.74,4.63,1.82,6.3,3.77C400.27,185.54,399.36,188.15,398.06,190Z" style="fill:#769863"/><path d="M388.93,192c-.22,1.8,1.27,1.76,2.34,2.12s2.12.64,3.18,1c-1.16,2-2,5.1-5.12,3.8-3-1.23-1.15-4-.9-6.15C388.45,192.43,388.75,192.2,388.93,192Z" style="fill:#778f6f"/><path d="M411.26,171.23c-1.56,1.16-2.84-.46-4.24.44a71.49,71.49,0,0,0,15,8.22c-3.3.82-6.21-.44-9-1.64a71.22,71.22,0,0,1-13.31-7.75c-.87-.63-2.06-1.34-1.33-2.66s2-1,3-.62C404.64,168.45,407.83,169.82,411.26,171.23Z" style="fill:#bb6a01"/><path d="M524.13,113.43c-3.11-1.69-2.49-5.21-3.81-7.78-.73-10.28,4.45-17.39,12.67-17.36a19.49,19.49,0,0,1,16.86,29c-4.87,4.24-10,2.69-14.87.25A51.57,51.57,0,0,0,524.13,113.43Z" style="fill:#2d1006"/><path d="M548.92,116.55c5.66-12.75-1.18-25.06-14.93-26.93a8.8,8.8,0,0,0-6.89,2c-4.5,3.57-6.57,8.33-6.78,14Q516,91.24,529.93,80.46c2.83,2.31,5.59,4.79,8.57,7,6.89,5,14.26,9.17,22.71,10.84,3.3.65,4.1,2.4,3.55,5.22-1.27,6.39-3.23,12.42-9.39,16C552.73,119.57,549.49,121.05,548.92,116.55Z" style="fill:#e9e7d6"/><path d="M548.92,116.55c.42,1.35,1.5,1.62,2.73,1.69s2.76-.09,3.72,1.18c.32,3.26-1.62,5-4.36,5.79-8.15,2.26-22.56-1.32-26.88-11.78,3.38-2.56,6.25-.42,8.93,1.25,3.55,2.22,7.14,3.73,11.43,3.54A8.17,8.17,0,0,0,548.92,116.55Z" style="fill:#80bad5"/><path d="M547.27,102.41c-.08,2.28-2.15,4.51-4.18,4.51a4.5,4.5,0,0,1-4.16-4.42,4.17,4.17,0,1,1,8.34-.09Z" style="fill:#e4d9ca"/></g></g></svg>