<svg xmlns="http://www.w3.org/2000/svg" viewBox="0 0 104.48 104.48"><defs><style>.cls-1{fill:#260b01;}</style></defs><g id="Capa_2" data-name="Capa 2"><g id="START4"><g id="Start4-2" data-name="Start4"><path class="cls-1" d="M12.21,54.83a6.4,6.4,0,0,1-6.07-3.71A6.57,6.57,0,0,1,6.77,44,11.27,11.27,0,0,1,8,42.65Q25.43,25.22,42.86,7.8C45.55,5.11,48.11,4.59,51.14,6a6.61,6.61,0,0,1,2.52,10.1,13.84,13.84,0,0,1-1.36,1.51Q35,34.92,17.74,52.22A7.42,7.42,0,0,1,12.21,54.83Z"/><path class="cls-1" d="M57.23,99.33c-3.56-.29-5.77-1.39-6.91-3.91a6.46,6.46,0,0,1,1-7.42c1.91-2.11,4-4.08,6-6.1Q72.23,66.93,87.11,52a6.89,6.89,0,0,1,7.45-1.92A6.29,6.29,0,0,1,99,55.39c.43,2.65-.71,4.71-2.55,6.55q-16,15.9-31.88,31.85a34.81,34.81,0,0,1-3.64,3.55A24.77,24.77,0,0,1,57.23,99.33Z"/><path class="cls-1" d="M71.61,62.55c-3.08,3.08-6.24,6.25-9.31,9.31L32.7,42.26,42,33Z"/><path class="cls-1" d="M36.84,7.13c-.81,1.51-1.32,3.31-2.46,4.48-7.5,7.69-15.12,15.27-22.75,22.82A6.79,6.79,0,1,1,2,24.82Q13.36,13.36,24.82,2A6.47,6.47,0,0,1,32.34.62C35,1.7,36.42,4,36.84,7.13Z"/><path class="cls-1" d="M74.47,104.48a6.38,6.38,0,0,1-5.77-4A6.52,6.52,0,0,1,70,93c2.63-2.75,5.36-5.4,8-8.08q7.13-7.12,14.26-14.25c3.2-3.19,7.5-3.4,10.28-.54s2.51,7-.63,10.15Q91.08,91.14,80.21,102A7.6,7.6,0,0,1,74.47,104.48Z"/></g></g></g></svg>