<svg xmlns="http://www.w3.org/2000/svg" viewBox="0 0 27.42 29.55"><defs><style>.cls-1{fill:#f7962c;}.cls-2{fill:#fe871d;}.cls-3{fill:#7dd44d;}.cls-4{fill:#70c33f;}.cls-5{fill:#d77805;}.cls-6{fill:#7ed34e;}.cls-7{fill:#fea85b;}</style></defs><g id="Capa_2" data-name="Capa 2"><g id="START11"><g id="Fruta"><path class="cls-1" d="M.16,19.92c-.84-6,1.58-11.62,8.55-13.19a19.13,19.13,0,0,1,2.92-.38c.19,0,.41,0,.42-.28a7.88,7.88,0,0,1,1.52.18.56.56,0,0,1,.2.52A3.25,3.25,0,0,0,14.83,9a7.19,7.19,0,0,0,2.28,1.62,11.55,11.55,0,0,0,4.25,1.3,1.15,1.15,0,0,1,.47.23,3.74,3.74,0,0,1,.6,1.72,14.42,14.42,0,0,1,0,5.36,9,9,0,0,1-5.79,6.89A14.36,14.36,0,0,1,6,26.1,8.7,8.7,0,0,1,.3,19.91c0-.08,0,0,0-.06S.21,19.91.16,19.92Z"/><path class="cls-2" d="M.16,19.92l0-.45a.67.67,0,0,1,.25.43,9.06,9.06,0,0,0,7.06,6.5,13.48,13.48,0,0,0,11.24-1.7,8.28,8.28,0,0,0,3.53-5.78,13.37,13.37,0,0,0-.51-6.78,3.48,3.48,0,0,1,2.34-.06,13.32,13.32,0,0,1,.66,9.86,9.64,9.64,0,0,1-6.22,6.5,16,16,0,0,1-12.13-.17A9.85,9.85,0,0,1,.16,19.92Z"/><path class="cls-3" d="M17,10.71a6.77,6.77,0,0,1-2.75-2.13,3.09,3.09,0,0,1-.69-2.25c-.06-.1-.06-.19.06-.25a3.92,3.92,0,0,1,3.47-2A11.27,11.27,0,0,1,26.3,7a2.69,2.69,0,0,1,1,2.87,1.09,1.09,0,0,1-.83-.07c-3.9-1-7.8-2.05-11.7-3.1a1.09,1.09,0,0,0-.68-.06A6.54,6.54,0,0,0,15.55,9a11.57,11.57,0,0,0,1.18,1.14C16.9,10.28,17.14,10.41,17,10.71Z"/><path class="cls-4" d="M17,10.71,15.68,9.4a8.23,8.23,0,0,1-1.77-2.59c-.05-.13-.21-.27-.07-.41s.29,0,.44,0l8.41,2.24,4.62,1.25,0,.13a7.38,7.38,0,0,1-5.92,2A9.61,9.61,0,0,1,17,10.71Z"/><path class="cls-5" d="M13.65,6.08l-.06.25c-.51-.1-1.1.24-1.54-.26a14.44,14.44,0,0,0-2-4A.85.85,0,0,1,10.31.74c1.37-1.11,1.7-1,2.37.62A13.62,13.62,0,0,1,13.65,6.08Z"/><path class="cls-6" d="M21.36,12a9.21,9.21,0,0,0,5.35-1.67,4.51,4.51,0,0,1,.57-.31,2.86,2.86,0,0,1-2,1.71c-.38.14-.79.23-1.18.35l-2.34.06Z"/><path class="cls-7" d="M8.06,9.48c0,.3-.22.41-.44.49a7.19,7.19,0,0,0-4.43,4.85c-.09.31-.29.53-.62.44a.5.5,0,0,1-.38-.71,8.28,8.28,0,0,1,5-5.47C7.67,8.88,8.05,9.08,8.06,9.48Z"/><path class="cls-7" d="M2.79,17.4c0,.24,0,.48,0,.72a.45.45,0,0,1-.42.43.43.43,0,0,1-.47-.44c0-.43,0-.87,0-1.3s.13-.55.43-.56.48.24.49.56,0,.39,0,.59Z"/></g></g></g></svg>