<svg xmlns="http://www.w3.org/2000/svg" viewBox="0 0 26.31 32.77"><defs><style>.cls-1{fill:#fde35a;}.cls-2{fill:#fde87d;}.cls-3{fill:#e09974;}.cls-4{fill:#80d161;}.cls-5{fill:#96d97b;}.cls-6{fill:#eeecee;}.cls-7{fill:#aa9ea9;}</style></defs><g id="Capa_2" data-name="Capa 2"><g id="START11"><g id="Fruta"><path class="cls-1" d="M16.45,12.91a8.68,8.68,0,0,1,.7,1.9c-.32.29-.73.22-1.1.28a8.63,8.63,0,0,0-7.36,7.26,8.52,8.52,0,0,0,3,8.2c.32.28.81.4.91.91a6.07,6.07,0,0,1-6.4.63A9.11,9.11,0,0,1,2,27.9,16.23,16.23,0,0,1,0,21a16.73,16.73,0,0,1,1.74-8.86A9.23,9.23,0,0,1,7.69,7,2.3,2.3,0,0,1,9.4,6.92a1.45,1.45,0,0,1,.28,1c0,.31-.28.47-.49.65a12.63,12.63,0,0,0-4.31,7.78A17.41,17.41,0,0,0,6,26.9a13.62,13.62,0,0,0,2.56,3.71,11.1,11.1,0,0,1,7.08-17.82A.81.81,0,0,1,16.45,12.91Z"/><path class="cls-2" d="M12.63,31.46a8.88,8.88,0,0,1-3.84-5,8.77,8.77,0,0,1,2.37-9.19,8.65,8.65,0,0,1,6-2.47,9,9,0,0,1,2.37,17.68,8.8,8.8,0,0,1-6.6-.9A1.51,1.51,0,0,0,12.63,31.46Z"/><path class="cls-2" d="M16.45,12.91a10.08,10.08,0,0,0-5.95,2.34,10.45,10.45,0,0,0-3.91,6.51A10.69,10.69,0,0,0,9,30.8c.07.09.23.15.15.34a8,8,0,0,1-2.51-2.82,16,16,0,0,1-2.18-7.57A17.18,17.18,0,0,1,6,12.47,10.63,10.63,0,0,1,9.3,8.29,3.44,3.44,0,0,0,9.57,8a.55.55,0,0,1,.31,0c1.1.14,1.27,0,1.28-1.13s0-2.21,0-3.31c0-.27-.11-.61.27-.76l0,4.14c0,.29,0,.52.32.68A10.12,10.12,0,0,1,16.45,12.91Z"/><path class="cls-3" d="M11.44,2.81a27.75,27.75,0,0,0-.07,3.29q0,.51,0,1c0,.43.05.91-.43,1.09A1.26,1.26,0,0,1,9.57,8a3.08,3.08,0,0,1-.15-1,.78.78,0,0,1-.19-.65A5.87,5.87,0,0,1,9.42,3.9c-.29-1.59.5-2.65,1.64-3.6.43-.37.71-.43,1.12,0,.8.8.82.89,0,1.68C12,2.24,11.7,2.53,11.44,2.81Z"/><path class="cls-4" d="M6.09,6.89A3.06,3.06,0,0,1,3.42,4c0-.44,0-.89,0-1.33a.69.69,0,0,1,.78-.79l2.55,0a6.27,6.27,0,0,1-.07,1.5,3.23,3.23,0,0,0,1.59,3,.62.62,0,0,1,.41.54C7.8,6.91,7,7,6.09,6.89Z"/><path class="cls-5" d="M6.09,6.89H8.72c-2.25-1.16-2.6-2.9-2-5a3.3,3.3,0,0,1,2.68,2V7L7.69,7A7.78,7.78,0,0,1,6.09,6.89Z"/><path class="cls-6" d="M24.3,23.77a6.88,6.88,0,0,1-6.95,7,7,7,0,1,1,7-7Z"/><path class="cls-7" d="M22.51,23.76a1.22,1.22,0,0,1-1.15,1.29,1.34,1.34,0,0,1-1.29-1.26,1.36,1.36,0,0,1,1.23-1.26A1.22,1.22,0,0,1,22.51,23.76Z"/><path class="cls-7" d="M18.54,19.85a1.22,1.22,0,0,1-1.21,1.22,1.25,1.25,0,0,1,0-2.5A1.21,1.21,0,0,1,18.54,19.85Z"/><path class="cls-7" d="M14.57,23.8A1.21,1.21,0,0,1,13.37,25a1.26,1.26,0,0,1,0-2.51A1.23,1.23,0,0,1,14.57,23.8Z"/><path class="cls-7" d="M18.54,27.73A1.21,1.21,0,0,1,17.31,29a1.26,1.26,0,0,1,0-2.51A1.23,1.23,0,0,1,18.54,27.73Z"/><path class="cls-7" d="M20.16,19.8A1.1,1.1,0,0,1,21.35,21a1.21,1.21,0,0,1-1.19,1.23A1.27,1.27,0,0,1,18.92,21,1.17,1.17,0,0,1,20.16,19.8Z"/><path class="cls-7" d="M15.73,26.61a1.09,1.09,0,0,1-1.21,1.17,1.2,1.2,0,0,1-1.23-1.19,1.35,1.35,0,0,1,1.21-1.25A1.21,1.21,0,0,1,15.73,26.61Z"/><path class="cls-7" d="M15.73,21a1.22,1.22,0,0,1-1.21,1.22,1.33,1.33,0,0,1-1.23-1.3,1.2,1.2,0,0,1,1.27-1.13A1.09,1.09,0,0,1,15.73,21Z"/><path class="cls-7" d="M21.35,26.59a1.22,1.22,0,0,1-2.43,0,1.27,1.27,0,0,1,1.25-1.26A1.22,1.22,0,0,1,21.35,26.59Z"/></g></g></g></svg>