<svg xmlns="http://www.w3.org/2000/svg" viewBox="0 0 20.49 36.96"><defs><style>.cls-1{fill:#92d7e3;}.cls-2{fill:#f0f0f3;}.cls-3{fill:#7acfde;}.cls-4{fill:#c7e973;}.cls-5{fill:#faf3c5;}.cls-6{fill:#c5c0c7;}.cls-7{fill:#fef8e1;}</style></defs><g id="Capa_2" data-name="Capa 2"><g id="START11"><g id="Bebidas"><path class="cls-1" d="M2.31,32.62a5,5,0,0,1-.25-1.83c-.16-2.12-.22-4.25-.34-6.38S1.43,20,1.28,17.75c.21-.5.67-.38,1.05-.38,2.3,0,4.6,0,6.9,0H15a2.78,2.78,0,0,1,1.07.12c.28.15.29.42.28.68-.19,2.78-.29,5.57-.52,8.35a7.72,7.72,0,0,1-6.56,6.78,20.94,20.94,0,0,1-5.81-.23A2.22,2.22,0,0,0,2.87,33C2.57,33,2.44,32.83,2.31,32.62Z"/><path class="cls-2" d="M16.17,17.63l-14.36,0c-.18,0-.39,0-.53.14C.11,17.34,0,17.18,0,15.87V4C0,2.62.31,2.31,1.68,2.31H3.62c.07,0,.17,0,.19.06a7.18,7.18,0,0,1,.85,3,2.35,2.35,0,0,1-.6.49A1.46,1.46,0,0,0,3.41,7c0,1.23-.07,2.47,0,3.7,0,.75,0,1.5,0,2.25a1.72,1.72,0,0,0,1.79,1.35c1,.06,1.92,0,2.88,0h6.68a4,4,0,0,0,1.14-.11A1.63,1.63,0,0,0,17.1,12.8c.16-.92-.07-1.82,0-2.73s0-1.77,0-2.66a1.63,1.63,0,0,0-1.83-1.82c-2.18,0-4.36,0-6.54,0a3.14,3.14,0,0,1-1.14-.11A.69.69,0,0,1,7.19,5c-.2-.74-.36-1.48-.5-2.22a.44.44,0,0,1,.12-.46H19.15c1,0,1.34.39,1.34,1.35V15.92c0,1.22-.14,1.42-1.27,1.84A6.55,6.55,0,0,1,16.17,17.63Z"/><path class="cls-3" d="M16.17,17.63a11.57,11.57,0,0,1,3,.13c-.21,3.48-.41,7-.62,10.45-.07,1.29-.17,2.58-.27,3.87a4.12,4.12,0,0,1-.15.55,2.48,2.48,0,0,1-1.42,1.14,13.43,13.43,0,0,1-4.83,1,20.9,20.9,0,0,1-6.73-.53,8.78,8.78,0,0,1-1.81-.69c-.29-.15-.64-.26-.65-.69.54-.35,1.06,0,1.58.08a17,17,0,0,0,5.7-.07,7.43,7.43,0,0,0,5.58-6.64c.14-2.51.37-5,.42-7.52A10.58,10.58,0,0,1,16.17,17.63Z"/><path class="cls-2" d="M2.74,32.91A8.6,8.6,0,0,0,7.1,34.45a21.1,21.1,0,0,0,8.07-.36,7.89,7.89,0,0,0,3-1.46v.64c0,1.65-.27,2.1-1.83,2.67a17.88,17.88,0,0,1-8.18.9,15.41,15.41,0,0,1-3.56-.72A14.09,14.09,0,0,1,3,35.34c-.73-.36-.55-1.11-.68-1.71a4.86,4.86,0,0,1,0-1Z"/><path class="cls-4" d="M4.6,5.35a26.91,26.91,0,0,0-1-3,4.13,4.13,0,0,1-.11-.85A1.59,1.59,0,0,1,4.88,0,1.54,1.54,0,0,1,6.51,1.13c.12.39.2.79.3,1.18.24,1,.47,2,.7,3,.46.51.41,1.2.59,1.81.13.43.2.88.3,1.32a7.1,7.1,0,0,1,.35,2.09,4.21,4.21,0,0,1-2.37.62,6,6,0,0,1-.79-2c-.34-1-.58-2-.93-3A.92.92,0,0,1,4.6,5.35Z"/><path class="cls-5" d="M17.32,10.12c-.07.86.14,1.7,0,2.57a1.88,1.88,0,0,1-1.87,1.88c-3.48,0-7,0-10.45,0A1.81,1.81,0,0,1,3.18,13a1.48,1.48,0,0,1,1.1-.24h7.86c1.47,0,2-.58,2.06-2.06,0-.7-.1-1.39,0-2.08a2.11,2.11,0,0,1,3,1A1.29,1.29,0,0,0,17.32,10.12Z"/><path class="cls-6" d="M17.32,10.12a2.69,2.69,0,0,0-3-1.59,4,4,0,0,1-3.56.61C9.9,8.87,9,8.87,8.23,8.52L7.51,5.35h7.78a1.8,1.8,0,0,1,2,2C17.33,8.29,17.32,9.21,17.32,10.12Z"/><path class="cls-7" d="M8.23,8.52a4.42,4.42,0,0,1,2,.25,3.93,3.93,0,0,0,3.32-.06,3.83,3.83,0,0,1,.76-.18,9.93,9.93,0,0,1,.14,2.72A1.8,1.8,0,0,1,12.61,13H3.18a7.84,7.84,0,0,1,.13-2.32A1.85,1.85,0,0,1,5.76,9.09l.62,2c-.13.33-.46.29-.72.4s-.32.14-.28.35.21.26.39.26a3.75,3.75,0,0,0,1.4-.27,3.8,3.8,0,0,1,3.13,0,3.46,3.46,0,0,0,1.19.24c.23,0,.47,0,.52-.26s-.19-.37-.41-.39c-.86-.11-1.63-.57-2.5-.63a.47.47,0,0,1-.44-.31Z"/><path class="cls-6" d="M5.76,9.09a2.35,2.35,0,0,0-2.45,1.59C3,10.4,3.18,10,3.17,9.73c0-.74,0-1.48,0-2.22A1.88,1.88,0,0,1,4.6,5.35C5,6.6,5.37,7.85,5.76,9.09Z"/><path class="cls-5" d="M8.66,10.54c1,.24,2,.51,3.05.7.41.08.69.27.63.62a.65.65,0,0,1-.82.52,8.94,8.94,0,0,1-1.72-.46,2.79,2.79,0,0,0-2.23,0,8,8,0,0,1-1.73.43c-.37.05-.71-.07-.76-.47s.21-.62.6-.63a1.67,1.67,0,0,0,.7-.16Z"/></g></g></g></svg>