<svg xmlns="http://www.w3.org/2000/svg" viewBox="0 0 35.78 28.47"><defs><style>.cls-1{fill:#f4f2f1;}.cls-2{fill:#eae1de;}.cls-3{fill:#d1c4c1;}.cls-4{fill:#4dc2fe;}.cls-5{fill:#2e89e5;}.cls-6{fill:#ad774e;}</style></defs><g id="Capa_2" data-name="Capa 2"><g id="START11"><g id="Bebidas"><path class="cls-1" d="M0,15.6c.38-.28.81-.12,1.21-.13.9,0,1.81,0,2.74,0-.07-.31-.14-.55-.18-.8A2.27,2.27,0,0,1,6.31,12c.88.06,1.76,0,2.79,0-.44-.39-.94-.45-1.2-.85a2.52,2.52,0,0,1-.32-2.56A2.4,2.4,0,0,1,9.86,7.23c.55,0,1.11,0,1.67,0,.36,0,.48-.12.5-.48A7.44,7.44,0,0,1,14,2.3c.31-.38.51-.22.58.2a6.18,6.18,0,0,0,1,2.42,5.06,5.06,0,0,0,2.64,2c-.1,1,0,2-.07,3a20.42,20.42,0,0,1,0,2.07,18.54,18.54,0,0,1-.1,3.57.44.44,0,0,1-.2.18,2.09,2.09,0,0,1-.89.12H1.07A1.43,1.43,0,0,1,0,15.6Z"/><path class="cls-2" d="M28.24,28.32c-.22.21-.49.13-.73.13q-9.5,0-19,0a2.39,2.39,0,0,1-2.68-2.59,23.3,23.3,0,0,0-1-4.81,1.11,1.11,0,0,1,.91-.24H17a1.47,1.47,0,0,1,.94.2,1.4,1.4,0,0,1,.24,1c0,1.68,0,3.35,0,5,0,1,0,1,1,1h8C27.5,28.08,27.92,28,28.24,28.32Z"/><path class="cls-3" d="M28.24,28.32c-3.19,0-6.38,0-9.57,0-.59,0-.8-.13-.79-.77,0-2.16,0-4.32,0-6.49L18,21a1.31,1.31,0,0,1,.75-.16H30a1,1,0,0,1,.84.24,27.75,27.75,0,0,0-1,5.35A2,2,0,0,1,28.24,28.32Z"/><path class="cls-2" d="M17.9,9.88q0-1.17,0-2.34c0-.23-.1-.53.27-.6a6.94,6.94,0,0,0,2.52.28.69.69,0,0,1,.44-.2,29.57,29.57,0,0,1,3.88,0c.19.24.46.15.7.16,1.8,0,2.67.88,2.66,2.65a1.22,1.22,0,0,1-.92.22c-.95,0-1.9,0-2.84,0-.68,0-.74.13-.77.85,0,.56.17.83.75.8s1,0,1.46,0c.23,0,.46-.07.65.13a13,13,0,0,0,3.11.12,2.24,2.24,0,0,1,1.44.57c1,.81.84,1.82.58,2.93h3.22c.24,0,.52-.1.72.14a1.24,1.24,0,0,1-.93.23h-16a1.14,1.14,0,0,1-.92-.24V12c.55-.37,1.17-.18,1.76-.21.86,0,1.21-.54.9-1.35-.09-.25-.29-.28-.49-.29-.44,0-.88,0-1.32,0A1.16,1.16,0,0,1,17.9,9.88Z"/><path class="cls-4" d="M17.89,21.07l-13,0L3.51,17.69c.25-.25.56-.19.86-.19q6.36,0,12.71,0a1.34,1.34,0,0,1,.81.14c.45.78.17,1.63.23,2.45a1.06,1.06,0,0,1-.22.92Z"/><path class="cls-5" d="M17.9,21V17.7a1.11,1.11,0,0,1,.91-.24q6.29,0,12.56,0a1.15,1.15,0,0,1,.91.23l-1.41,3.36H18.73Z"/><path class="cls-3" d="M32.29,17.69H3.49c.2-.49.66-.36,1-.36,3.06,0,6.12,0,9.18,0,1.07,0,2.14,0,3.21,0,.51,0,.78-.18.76-.73a1.27,1.27,0,0,1,.23-1H35.77c0,.51,0,1,0,1.53s-.15.56-.56.56C34.24,17.68,33.27,17.69,32.29,17.69Z"/><path class="cls-2" d="M17.89,15.6c0,.42,0,.84,0,1.26s-.13.72-.7.71c-3.23,0-6.46,0-9.7,0H4.22c-.25,0-.51-.07-.73.13-1,0-1.95,0-2.93,0-.43,0-.58-.14-.56-.56s0-1,0-1.54Z"/><path class="cls-6" d="M25,7.06a.69.69,0,0,1-.58.17H20.69c.45-1.82.88-3.65,1.34-5.47a2.1,2.1,0,1,1,4.06,1C25.74,4.19,25.37,5.62,25,7.06Z"/><path class="cls-3" d="M26.7,11.84a13.65,13.65,0,0,1-2.56.13c-.38,0-.51-.13-.53-.52-.07-1.58-.08-1.58,1.49-1.58h3.27A2.12,2.12,0,0,1,26.7,11.84Z"/><path class="cls-3" d="M17.9,9.88h2.44c.36,0,.47.13.49.49.1,1.61.11,1.61-1.46,1.61H17.9Z"/></g></g></g></svg>