<svg xmlns="http://www.w3.org/2000/svg" viewBox="0 0 88.1 76.96"><defs><style>.cls-1{fill:#fcfcfc;}</style></defs><g id="Capa_2" data-name="Capa 2"><g id="START10"><g id="Start10-2" data-name="Start10"><path class="cls-1" d="M48.89,63.82c-2.36-2.86-4.63-5.5-6.74-8.25a3.6,3.6,0,0,1-.77-2.69c.6-2-.24-3.51-.86-5.21a20.88,20.88,0,0,1-1-4c-.28-1.85,0-3.63,1.78-4.67a4.68,4.68,0,0,1,5.49.15,13.86,13.86,0,0,1,3,3c1.05,1.5,2.16,1.83,3.79.79,0-4.79,0-9.65,0-14.51,0-1.42-.87-1.82-2.15-1.82q-16.66,0-33.33,0c-1.5,0-2.2.57-2.19,2.13,0,8.36-.06,16.72.05,25.08A13.62,13.62,0,0,0,28.36,67.35a103,103,0,0,0,13,0A11.65,11.65,0,0,0,48.89,63.82Zm-42.35,7C6,75.33,7.35,76.93,11.67,77H82.76c4.44,0,5.83-1.65,5.16-6.16ZM58.88,58.18c.19,1.61.57,4.33.83,7.05A2.11,2.11,0,0,0,62,67.39C69.54,68,76,65.52,81.63,60.58c2.7-2.39,2.64-2.56.86-5.73-2.75-4.88-6-9.3-10.93-12.26a3.68,3.68,0,0,0-3.83-.34C66.19,43,64.5,43.4,63,44.16A4.43,4.43,0,0,0,61,46C59.35,49.5,59,53.26,58.88,58.18ZM85,52c2.8-4.34,3.4-9.37,2.91-14.6a1.86,1.86,0,0,0-1.38-1.21c-2.79.16-5.57.47-8.34.82a2.09,2.09,0,0,0-1.36.86,29.58,29.58,0,0,0-1.36,2.93ZM56.39,48c-3.57-1.64-3.57-1.64-7,.73-.38.26-.77.51-1.12.79-4.74,3.85-5.25,2.55-.84,8a16.73,16.73,0,0,0,8.28,5.68ZM12.72,35.18a16.38,16.38,0,0,0,0-2.22,1.47,1.47,0,0,0-.64-1A7.8,7.8,0,0,0,1.29,36.3,23.26,23.26,0,0,0,1,50.66C2.63,56,7.53,58,12.85,55.64l-.18-2.92c-1,.2-1.76.4-2.55.5-3.43.45-5.2-.48-6.11-3.51a21.55,21.55,0,0,1,0-12c.62-2.23,2.05-3.17,4.36-3.09C9.76,34.65,11.1,35,12.72,35.18ZM38.28,9.44c-.74-1.66-1.37-3.1-2-4.52a29.63,29.63,0,0,0-1.59-3.31C34.28,1,33.62.14,33,.08A1.37,1.37,0,0,0,31.6,1.94a14.68,14.68,0,0,0,1.79,4.34c1.6,2.33,1.62,3.9,0,6.21a14.67,14.67,0,0,0-1.8,4.15A1.55,1.55,0,0,0,33,18.79c1.12.13,1.49-.69,1.78-1.67a23.72,23.72,0,0,1,1.37-3.05Zm9.44,0C47,7.78,46.3,6.3,45.63,4.83a25.68,25.68,0,0,0-1.56-3.31A7.88,7.88,0,0,0,42.36,0C41.9.57,41,1.24,41.08,1.68a13.33,13.33,0,0,0,1.68,4.54c1.71,2.51,1.73,3.88,0,6.33A14.55,14.55,0,0,0,41,16.9a1.36,1.36,0,0,0,1.43,1.84c.6-.07,1.23-.92,1.62-1.56.57-.95.93-2,1.41-3C46.2,12.64,46.93,11.13,47.72,9.47Zm-18.87,0L26.7,4.74a27.13,27.13,0,0,0-1.49-3.18A8.26,8.26,0,0,0,23.55,0c-.47.61-1.44,1.33-1.33,1.8A13.39,13.39,0,0,0,24,6.31c1.63,2.4,1.63,3.81,0,6.21A13,13,0,0,0,22.22,17c-.11.47.87,1.19,1.36,1.79a8.84,8.84,0,0,0,1.63-1.6,28.82,28.82,0,0,0,1.51-3.17ZM85.39,33.05c-.71-1.9-1.23-3.51-1.94-5-.24-.52-1.07-1.23-1.4-1.13a2.39,2.39,0,0,0-1.45,1.45,50.33,50.33,0,0,0-.51,5.13ZM44.09,48.72l4.37-3.24a30.56,30.56,0,0,0-3.07-3.41,3.25,3.25,0,0,0-2.33-.34c-.24,0-.52,1.21-.4,1.78C43,45.17,43.54,46.78,44.09,48.72Z"/><path class="cls-1" d="M48.89,63.82a11.65,11.65,0,0,1-7.5,3.5,103,103,0,0,1-13,0A13.62,13.62,0,0,1,15.9,53.9c-.11-8.36,0-16.72-.05-25.08,0-1.56.69-2.13,2.19-2.13q16.67,0,33.33,0c1.28,0,2.15.4,2.15,1.82,0,4.86,0,9.72,0,14.51-1.63,1-2.74.71-3.79-.79a13.86,13.86,0,0,0-3-3A4.68,4.68,0,0,0,41.27,39c-1.76,1-2.06,2.82-1.78,4.67a20.88,20.88,0,0,0,1,4c.62,1.7,1.46,3.24.86,5.21a3.6,3.6,0,0,0,.77,2.69C44.26,58.32,46.53,61,48.89,63.82Z"/><path class="cls-1" d="M6.54,70.8H87.92c.67,4.51-.72,6.15-5.16,6.16H11.67C7.35,76.93,6,75.33,6.54,70.8Z"/><path class="cls-1" d="M58.88,58.18C59,53.26,59.35,49.5,61,46a4.43,4.43,0,0,1,2-1.87c1.53-.76,3.22-1.17,4.76-1.91a3.68,3.68,0,0,1,3.83.34c4.92,3,8.18,7.38,10.93,12.26,1.78,3.17,1.84,3.34-.86,5.73C76,65.52,69.54,68,62,67.39a2.11,2.11,0,0,1-2.27-2.16C59.45,62.51,59.07,59.79,58.88,58.18Z"/><path class="cls-1" d="M85,52l-9.53-11.2a29.58,29.58,0,0,1,1.36-2.93A2.09,2.09,0,0,1,78.23,37c2.77-.35,5.55-.66,8.34-.82A1.86,1.86,0,0,1,88,37.42C88.44,42.65,87.84,47.68,85,52Z"/><path class="cls-1" d="M56.39,48,55.74,63.2a16.73,16.73,0,0,1-8.28-5.68c-4.41-5.48-3.9-4.18.84-8,.35-.28.74-.53,1.12-.79C52.82,46.33,52.82,46.33,56.39,48Z"/><path class="cls-1" d="M12.72,35.18c-1.62-.23-3-.53-4.31-.58-2.31-.08-3.74.86-4.36,3.09a21.55,21.55,0,0,0,0,12c.91,3,2.68,4,6.11,3.51.79-.1,1.56-.3,2.55-.5l.18,2.92C7.53,58,2.63,56,1,50.66A23.26,23.26,0,0,1,1.29,36.3,7.8,7.8,0,0,1,12.05,32a1.47,1.47,0,0,1,.64,1A16.38,16.38,0,0,1,12.72,35.18Z"/><path class="cls-1" d="M38.28,9.44l-2.16,4.63a23.72,23.72,0,0,0-1.37,3.05c-.29,1-.66,1.8-1.78,1.67a1.55,1.55,0,0,1-1.35-2.15,14.67,14.67,0,0,1,1.8-4.15c1.59-2.31,1.57-3.88,0-6.21A14.68,14.68,0,0,1,31.6,1.94,1.37,1.37,0,0,1,33,.08c.61.06,1.27.89,1.66,1.53a29.63,29.63,0,0,1,1.59,3.31C36.91,6.34,37.54,7.78,38.28,9.44Z"/><path class="cls-1" d="M47.72,9.47c-.79,1.66-1.52,3.17-2.22,4.68-.48,1-.84,2.08-1.41,3-.39.64-1,1.49-1.62,1.56A1.36,1.36,0,0,1,41,16.9a14.55,14.55,0,0,1,1.75-4.35c1.7-2.45,1.68-3.82,0-6.33a13.33,13.33,0,0,1-1.68-4.54C41,1.24,41.9.57,42.36,0a7.88,7.88,0,0,1,1.71,1.52,25.68,25.68,0,0,1,1.56,3.31C46.3,6.3,47,7.78,47.72,9.47Z"/><path class="cls-1" d="M28.85,9.47l-2.13,4.58a28.82,28.82,0,0,1-1.51,3.17,8.84,8.84,0,0,1-1.63,1.6c-.49-.6-1.47-1.32-1.36-1.79A13,13,0,0,1,24,12.52c1.64-2.4,1.64-3.81,0-6.21A13.39,13.39,0,0,1,22.22,1.8c-.11-.47.86-1.19,1.33-1.8a8.26,8.26,0,0,1,1.66,1.56A27.13,27.13,0,0,1,26.7,4.74Z"/><path class="cls-1" d="M85.39,33.05l-5.3.41a50.33,50.33,0,0,1,.51-5.13,2.39,2.39,0,0,1,1.45-1.45c.33-.1,1.16.61,1.4,1.13C84.16,29.54,84.68,31.15,85.39,33.05Z"/><path class="cls-1" d="M44.09,48.72c-.55-1.94-1.09-3.55-1.43-5.21-.12-.57.16-1.75.4-1.78a3.25,3.25,0,0,1,2.33.34,30.56,30.56,0,0,1,3.07,3.41Z"/></g></g></g></svg>