<svg xmlns="http://www.w3.org/2000/svg" viewBox="0 0 75.35 75.32"><defs><style>.cls-1{fill:#fcfcfc;}</style></defs><g id="Capa_2" data-name="Capa 2"><g id="START10"><g id="Start10-2" data-name="Start10"><path class="cls-1" d="M53.28,36.49c0,3.14,0,6.28,0,9.41a4.51,4.51,0,0,0,.14,1.74c.7,1.44,0,2.36-.92,3.33a20,20,0,0,1-31.87-3.1,5.54,5.54,0,0,1-.73-2.61c-.09-3.18-.07-6.37,0-9.55a2.21,2.21,0,0,1,.84-1.6c3.9-2.41,5.92-5.9,5.67-10.41-.13-2.35.82-3.36,2.77-4.23a20.09,20.09,0,0,1,23.34,4.94,3.3,3.3,0,0,1,.72,1.94C53.32,29.73,53.28,33.11,53.28,36.49Z"/><path class="cls-1" d="M66.51,48.71c-2.15,0-4.11,0-6.07,0s-2.75-.79-2.75-2.77c0-7.2-.13-14.41,0-21.61C58,13.78,63.34,6.14,71.86.44a2.17,2.17,0,0,1,3.48,1.81c0,.39,0,.79,0,1.18V69.72c0,3.55-1.6,5.58-4.39,5.6s-4.45-2-4.45-5.54V48.71Z"/><path class="cls-1" d="M4.43,17.59H8.84V16c0-4.41,0-8.82,0-13.23C8.84,1.06,9.65.05,11,0s2.25,1,2.26,2.82V17.58h4.4V16q0-6.61,0-13.23c0-1.75.78-2.75,2.14-2.79s2.27,1,2.27,2.79q0,10.52,0,21c0,4.31-2.72,7.1-7,7.2Q11,31.15,7,31A6.71,6.71,0,0,1,0,23.93C0,16.87,0,9.81,0,2.75,0,1,.85,0,2.2,0s2.22,1,2.23,2.7C4.44,7.62,4.43,12.52,4.43,17.59Z"/><path class="cls-1" d="M20,54.46c1,.87,1.85,1.62,2.72,2.3a24.4,24.4,0,0,0,33.13-2.9c.82-.9,1.45-1.45,2.8-1a13.61,13.61,0,0,0,3.5.31c0,2.22,0,4.41,0,6.6,0,.36-.39.76-.68,1.06a33.27,33.27,0,0,1-40.17,5.72,2.22,2.22,0,0,1-1.37-2.28c.09-2.74,0-5.49,0-8.24C19.87,55.6,19.92,55.13,20,54.46Z"/><path class="cls-1" d="M6.71,35.52h8.67c0,.49.09.95.09,1.42q0,16.55,0,33.08c0,2-.48,3.8-2.44,4.81a4.34,4.34,0,0,1-6.32-3.31,10.13,10.13,0,0,1-.09-1.46q0-16.62,0-33.23C6.63,36.44,6.67,36.06,6.71,35.52Z"/><path class="cls-1" d="M26.49,15.81c0-3,0-5.91.05-8.79,0-.34.57-.84,1-1A32.91,32.91,0,0,1,53,8.17c1.26.63,2.45,1.41,3.63,2.09-1,3-2,5.91-2.93,8.87C45.39,12.66,36.33,11.51,26.49,15.81Z"/></g></g></g></svg>