<svg xmlns="http://www.w3.org/2000/svg" viewBox="0 0 86.68 74.34"><g id="Capa_2" data-name="Capa 2"><g id="START10"><g id="Start10-2" data-name="Start10"><path d="M0,48.86v-5H86.68v5c-1.25,0-2.48,0-3.7,0-1-.05-1.48.26-1.64,1.37A27.8,27.8,0,0,1,59.77,73.6a24.37,24.37,0,0,1-5,.62c-7.58.07-15.16.25-22.72,0C18.73,73.73,8.25,64.63,5.54,51.62a6,6,0,0,1-.19-1.17c0-1.22-.5-1.72-1.75-1.61S1.25,48.86,0,48.86Z" style="fill:#fcfcfc"/><path d="M8,38.58C10.79,33.5,10.17,27.75,13.41,23c2.86,1.43,5.65,2.77,8.37,4.22a1.73,1.73,0,0,0,2.47-.4c1.59-1.76,3.39-3.33,5-5.09a2.93,2.93,0,0,0,.62-2.17c-.57-3.21-1.31-6.39-2-9.57,6.5-1.77,12.64-5,19.58-3.4,3.44.8,6.85,1.78,10.24,2.76a16.35,16.35,0,0,1,3.09,1.37C63.48,12.25,72.48,21.15,73.83,24A43.88,43.88,0,0,1,76,30.17c.7,2.31,1.29,4.65,1.89,7A8.49,8.49,0,0,1,78,38.58ZM61,23.39A7.4,7.4,0,0,0,53,15.8c-4,.25-7.35,3.85-6.84,7.6,1,0,2,0,3,0a2,2,0,0,0,2.22-1.24c.89-1.84,3.3-1.7,4.4.07.28.46.75,1.05,1.19,1.1A34.63,34.63,0,0,0,61,23.39ZM40.64,33.56A7.46,7.46,0,0,0,32.94,26a7.32,7.32,0,0,0-7.18,7.6,26.81,26.81,0,0,0,3.47,0c.57-.08,1.09-.63,1.62-1,.77-.5,1.54-1.43,2.28-1.39s1.6.94,2.38,1.5c.36.26.66.83,1,.86C37.86,33.63,39.2,33.56,40.64,33.56Z" style="fill:#fcfcfc"/><path d="M5.18,13.23,20.45,0c1.27,5.83,2.34,11.4,3.72,16.89a3.51,3.51,0,0,1-1.5,4.27,1.43,1.43,0,0,1-1.17.2C16.11,18.71,10.74,16,5.18,13.23Z" style="fill:#fcfcfc"/><path d="M66.23,0,81.5,13.22c-2.17,1.1-4.15,2.12-6.16,3.08a1.18,1.18,0,0,1-1-.1C73,15,71.66,13.76,70.37,12.52c-1.54-1.48-3-3.06-4.64-4.42a1.84,1.84,0,0,1-.79-2.25C65.45,4,65.77,2.16,66.23,0Z" style="fill:#fcfcfc"/></g></g></g></svg>