<svg xmlns="http://www.w3.org/2000/svg" viewBox="0 0 45.1 39.54"><g id="Capa_2" data-name="Capa 2"><g id="PERFIL"><path d="M33.19,17.11c-2.73,3.24-7.26,3.81-10.6.06-3.6,4-8.13,2.95-10.66-.13a7.51,7.51,0,0,1-.59.75A6.43,6.43,0,0,1,4,19.18c-2.45-1.12-4.32-4-4-6.52A48.42,48.42,0,0,1,1.31,7.27c.39-1.6.78-3.19,1.19-4.79A2.9,2.9,0,0,1,5.65,0H39.51a2.89,2.89,0,0,1,3.16,2.47c.75,3,1.48,6,2.23,9a6.77,6.77,0,0,1-5.1,8.17A6.54,6.54,0,0,1,33.19,17.11Z" style="fill:#fcfcfc"/><path d="M28.26,28.26H17V39.49c-.37,0-.66,0-.94,0h-10c-2.16,0-3.27-1.09-3.27-3.24,0-4.58,0-9.17,0-13.75v-.72c.82.21,1.57.45,2.34.6a8.66,8.66,0,0,0,6.19-1.1,1.08,1.08,0,0,1,1.26,0,9.3,9.3,0,0,0,9.41,0,1,1,0,0,1,1.11,0,9.44,9.44,0,0,0,9.5,0,1.12,1.12,0,0,1,.92-.09,9.22,9.22,0,0,0,8.46.66,1.14,1.14,0,0,1,.3,0c0,.18,0,.35,0,.52,0,4.73,0,9.46,0,14.19a2.73,2.73,0,0,1-2.62,3c-3.79.06-7.58,0-11.46,0Z" style="fill:#fcfcfc"/></g></g></svg>