<svg xmlns="http://www.w3.org/2000/svg" xmlns:xlink="http://www.w3.org/1999/xlink" viewBox="0 0 131.47 131.52"><defs><style>.cls-1{fill:none;}.cls-2{clip-path:url(#clip-path);}.cls-3{fill:#a8d09c;}.cls-4{fill:#729960;}.cls-5{fill:#bccc74;}.cls-6{fill:#88a862;}.cls-7{fill:#1b0b03;}.cls-8{fill:#efeedc;}.cls-9{fill:#efefde;}.cls-10{fill:#836a42;}.cls-11{fill:#496a37;}.cls-12{fill:#496c39;}.cls-13{fill:#7d663d;}.cls-14{fill:#7e6d43;}.cls-15{fill:#7d683f;}.cls-16{fill:#80784f;}.cls-17{fill:#7d7749;}.cls-18{fill:#7f6e42;}.cls-19{fill:#81784c;}.cls-20{fill:#7e7a4d;}.cls-21{fill:#7a7246;}.cls-22{fill:#7b7145;}.cls-23{fill:#7a7547;}.cls-24{fill:#776a3e;}.cls-25{fill:#797245;}.cls-26{fill:#1f0c04;}.cls-27{fill:#1e0d04;}.cls-28{fill:#260c01;}.cls-29{fill:#270c02;}.cls-30{fill:#ebe2d8;}.cls-31{fill:#efe5d8;}</style><clipPath id="clip-path" transform="translate(0.21 0.45)"><rect id="SVGID" class="cls-1" width="130.62" height="130.62" rx="12.21"/></clipPath></defs><g id="Capa_2" data-name="Capa 2"><g id="TIENDA"><g id="Mascotas"><g class="cls-2"><path class="cls-3" d="M23.24,131c-7.43,0-14.85,0-22.27.06-1.09,0-1.17-.68-1.17-1.39,0-1.84.15-3.68.15-5.52Q0,95.62,0,67.07,0,49.46,0,31.85c0-2.51-.17-5-.16-7.54,0-7.77.14-15.53.14-23.3C-.07-.25.38-.45,1.5-.45q35,0,70,0h57.89c1.79,0,1.8,0,1.8,1.84q0,64,0,128.06c0,1.21-.3,1.6-1.57,1.59C122.45,131,115.21,131,108,131a2.18,2.18,0,0,1-.44-1.25c-1-6.33-3.63-12-6.61-17.59-2.5-4.68-5.43-9.15-7-14.26a42.5,42.5,0,0,1-1.78-14.63,7.94,7.94,0,0,1,2.61-5.58,21,21,0,0,0,5.6-19.78A60.91,60.91,0,0,0,97.2,48.3a23.25,23.25,0,0,1-1.77-9.47,19.31,19.31,0,0,0-2-8.73c-2.09-4.59-7-6.14-11.48-4.35a3.67,3.67,0,0,1-3.31-.09,28.44,28.44,0,0,0-12.63-3,29.3,29.3,0,0,0-13.32,3,3.9,3.9,0,0,1-3.46.17c-4.71-1.86-9-.22-11.41,4.25a18.67,18.67,0,0,0-2,9.13,22.84,22.84,0,0,1-1.69,9.07,65.8,65.8,0,0,0-2.87,8.57c-2.14,8.35-.06,15.6,6,21.62,1.74,1.72,1.89,3.74,2,5.8a38.5,38.5,0,0,1-4.55,20c-2.78,5.14-5.79,10.16-8,15.6a39.61,39.61,0,0,0-2.78,9.27A3.37,3.37,0,0,1,23.24,131Z" transform="translate(0.21 0.45)"/><path class="cls-4" d="M23.24,131A36.81,36.81,0,0,1,26,120.38c2.31-5.77,5.53-11.07,8.43-16.55A37.13,37.13,0,0,0,38.66,89.5a45.53,45.53,0,0,0-.06-7.92,3.39,3.39,0,0,0-1.16-2.33,23.08,23.08,0,0,1-7.07-12.71,23.83,23.83,0,0,1,1-11.79c.84-2.65,1.8-5.26,2.81-7.85a20.16,20.16,0,0,0,1.19-7.66,19.47,19.47,0,0,1,1.72-8.63c2.58-5.45,7.1-7.25,12.68-5a2.42,2.42,0,0,0,2.25-.09,30.33,30.33,0,0,1,27.36.07,2,2,0,0,0,2,0,9.48,9.48,0,0,1,9.82,1,6.77,6.77,0,0,1,1.84,2.12,16,16,0,0,1,2.69,9.05c-.22,4.74,1.18,9,2.83,13.3,1.51,3.9,2.76,7.88,2.65,12.13a21.86,21.86,0,0,1-6,14.72,11.08,11.08,0,0,1-1.24,1.23,3.87,3.87,0,0,0-1.39,3.14,39.59,39.59,0,0,0,2,16.42A61.93,61.93,0,0,0,99,107.85c3.49,6.33,7.09,12.63,8.55,19.84A11.54,11.54,0,0,1,108,131H91.77a1,1,0,0,1-.58-.85,46.91,46.91,0,0,0-3-10.31,2.73,2.73,0,0,1-.27-1.44,1.63,1.63,0,0,1,1.12-.67,5.83,5.83,0,0,0,3.83-4.18c.15-.45.41-1.13-.15-1.32s-.69.55-.81,1A4.43,4.43,0,0,1,88,116.75a8.82,8.82,0,0,1-4.27-1c-1.8-.7-2.31-.52-3.09,1.27a5.83,5.83,0,0,1-.88,2c-1,.4-2-.19-2.93-.17a2.38,2.38,0,0,1-.73-.27c-1.06-.89-2.29-1.52-3.36-2.39a8.7,8.7,0,0,1,3.66-6.34c1.72-1.31,2.25-1.34,7.23-1.18.22-.26,0-.51,0-.76a64,64,0,0,1-2.19-14.62c0-1.25-.26-2.5-.25-3.76s-.13-1.31-1.22-.8A33.89,33.89,0,0,1,66,91.41a36.18,36.18,0,0,1-14.48-2.64c-1.33-.55-1.44-.47-1.45,1a69.5,69.5,0,0,1-2.36,18c-.29,1,.11,1,.9.89,4.38-.54,7.14.81,9.12,4.38a6.09,6.09,0,0,1,.82,3.22c-.16.63-.75.71-1.21,1a6.2,6.2,0,0,0-2,1.55c-.23.28-.28.76-.8.73a1.08,1.08,0,0,0-1.29-.42,1.92,1.92,0,0,1-1.77-.39c-.46-.77-.76-1.62-1.2-2.4a1.49,1.49,0,0,0-2.13-.74c-.82.35-1.64.73-2.5,1a4.69,4.69,0,0,1-6.18-3c-.18-.47-.13-1.45-.91-1.15-.62.23-.2,1,0,1.57a5.25,5.25,0,0,0,4.86,3.78c.43,0,.91,0,1.23.38-1.83,1.34-2.24,3.46-2.89,5.42a29.37,29.37,0,0,0-1.45,6,1.71,1.71,0,0,1-.82,1.47Z" transform="translate(0.21 0.45)"/><path class="cls-5" d="M39.44,131c.75-2.44,1-5,1.85-7.41.59-1.56,1.21-3.09,1.74-4.66.28-.85,1.1-.44,1.55-.82,1.22-.84,2.71-1.06,4-1.69.51-.25.81.18,1,.61a13.67,13.67,0,0,0,1,2.15c.59.84.92,1.82,1.5,2.66.46.66.86.63,1.33,0s.53-1.68,1.08-2.39c.3-.22.12-.72.53-.87.86,0,1.17.71,1.64,1.22.27.28.49.75,1,.61s.5-.69.53-1.13c.07-.94-.06-1.89.1-2.83A9.08,9.08,0,0,0,56,111.27c-2.14-2.47-4.79-2.78-7.72-2.23-1.52.28-1.49.34-1-1.2A65.9,65.9,0,0,0,49.44,94.9c.17-2.06.24-4.12.25-6.18,0-.81.07-1.13,1.05-.69a35.71,35.71,0,0,0,15.58,3c4.85-.13,9.66-.76,14.07-3,1.08-.56,1.15-.12,1.16.81a73.67,73.67,0,0,0,2.39,18.86c.14.51.3,1,.52,1.74a12.71,12.71,0,0,0-3.89-.56c-2.56-.11-4.34,1.13-5.81,3a10,10,0,0,0-1.85,4.55c.34.46.06,1,0,1.42a6,6,0,0,0,.21,2c.34,1,.55,1,1.23.24s.8-1.53,1.77-1.69a.45.45,0,0,1,.49.21c.58.83.3,1.92.83,2.77.24.37.35.89.85.95s.77-.51,1-.92c.41-.74.75-1.51,1.19-2.23.62-.81.61-2.09,1.6-2.54s1.92.47,2.88.74,2.16.16,3,1A59.54,59.54,0,0,1,91.77,131c-6.43,0-12.86,0-19.29,0Z" transform="translate(0.21 0.45)"/><path class="cls-6" d="M44.81,70.28c1.25-.5,1.45-1.47,1.37-2.7A22.76,22.76,0,0,1,49.4,54.2a19.74,19.74,0,0,1,8.82-8,18.54,18.54,0,0,1,7-1.52,17.4,17.4,0,0,1,12.11,4.22c4.3,3.56,6.51,8.23,7.59,13.52a17.83,17.83,0,0,1,.33,6,2.09,2.09,0,0,0,.88,2.18c-.35,1.46-1.57,2.14-2.7,2.83a25,25,0,0,1-6.32,2.65,44.62,44.62,0,0,1-12.29,1.34,42,42,0,0,1-12-1.72,18.06,18.06,0,0,1-7-3.73C45.4,71.55,44.71,71.15,44.81,70.28Z" transform="translate(0.21 0.45)"/><path class="cls-7" d="M44.81,70.28A14,14,0,0,0,51.91,75c9.63,3,19.26,3.1,28.78-.53a12.29,12.29,0,0,0,5.46-3.81,10.84,10.84,0,0,0,2.38-3.05c.27-.5.59-.95,1.27-.61s.64.9.34,1.48a17.18,17.18,0,0,1-9,7.82c-6.37,2.7-13.07,3-19.85,2.54A34.73,34.73,0,0,1,49.48,76a17,17,0,0,1-8-6.94,4,4,0,0,1-.38-.71c-.16-.53-.27-1.09.33-1.43s1,.15,1.28.6A8.78,8.78,0,0,0,44.81,70.28Z" transform="translate(0.21 0.45)"/><path class="cls-8" d="M93.14,42.92a7.47,7.47,0,0,1-7.46,7.33,7.74,7.74,0,0,1-7.6-7.72,7.53,7.53,0,0,1,7.53-7.4A7.43,7.43,0,0,1,93.14,42.92Z" transform="translate(0.21 0.45)"/><path class="cls-9" d="M38.07,42.64a7.54,7.54,0,0,1,15.08,0,7.71,7.71,0,0,1-7.84,7.57A7.64,7.64,0,0,1,38.07,42.64Z" transform="translate(0.21 0.45)"/><path class="cls-10" d="M31.6,121a2.07,2.07,0,0,1-2.38-1.82,5,5,0,0,1,2.34-4.89,2.31,2.31,0,0,1,3.27,1.32C35.71,117.49,33.73,121.46,31.6,121Z" transform="translate(0.21 0.45)"/><path class="cls-11" d="M88,118.33A14.5,14.5,0,0,1,83,117c-.72-.38-1-.2-1.26.5a5.13,5.13,0,0,1-1,2,.8.8,0,0,1-1.07-.56,11.35,11.35,0,0,1,1.15-3,1.62,1.62,0,0,1,2.44-.76,23.21,23.21,0,0,0,3,1.13,4.08,4.08,0,0,0,5.22-2.76c.08-.26.09-.53.17-.79.18-.55.29-1.25,1.1-1.07s.75,1,.6,1.55C92.6,115.94,91,117.89,88,118.33Z" transform="translate(0.21 0.45)"/><path class="cls-12" d="M50.47,119.42c-.69-.53-.78-1.38-1.07-2.12s-.5-.81-1.15-.42a9.68,9.68,0,0,1-3.67,1.24c-4-.17-5.88-1.58-6.67-4.9-.17-.73-.08-1.33.63-1.55s.84.47,1,1c1.34,4.28,4.28,4.43,7.23,3.08,2.75-1.26,2.89-1.67,4.53,1.86a5.68,5.68,0,0,1,.28,1C51.56,119.35,51.24,119.69,50.47,119.42Z" transform="translate(0.21 0.45)"/><path class="cls-13" d="M59.83,30.87c-1.32,0-2.87-1.34-2.82-2.39a2.43,2.43,0,0,1,2.21-2.17c1.39.06,2.92,1.53,2.86,2.74A2.1,2.1,0,0,1,59.83,30.87Z" transform="translate(0.21 0.45)"/><path class="cls-14" d="M89.35,100.92c0-1.08.51-1.52,1.57-1.49a2.94,2.94,0,0,1,2.73,2.77,1.53,1.53,0,0,1-1.77,1.55A3,3,0,0,1,89.35,100.92Z" transform="translate(0.21 0.45)"/><path class="cls-15" d="M65.86,36a1.59,1.59,0,0,1-1.58-1.55,2.35,2.35,0,0,1,2.32-2.15c.89.11,1.84.41,1.9,1.53S67.17,36,65.86,36Z" transform="translate(0.21 0.45)"/><path class="cls-16" d="M79.66,118.87l1.07.56c-.47.91-.9,1.85-1.41,2.74s-1.16,1-1.78,0a5.73,5.73,0,0,1-.88-3.59C77.71,118.17,78.65,118.91,79.66,118.87Z" transform="translate(0.21 0.45)"/><path class="cls-17" d="M50.47,119.42a1.33,1.33,0,0,0,1.11-.82c.64,0,1.26.41,1.94,0,.86-.48,1.09,0,1,.8a4.67,4.67,0,0,1-1.05,3c-.44.64-1,.78-1.43,0C51.55,121.38,51,120.4,50.47,119.42Z" transform="translate(0.21 0.45)"/><path class="cls-18" d="M91.68,93c-.18,1.68-1.06,2.74-2,2.66s-1.52-1-1.37-2.36c.13-1.12,1.07-2.08,2-1.92S91.55,92.34,91.68,93Z" transform="translate(0.21 0.45)"/><path class="cls-19" d="M76.17,118.39c-.57.74-1.14,1.48-1.73,2.21s-1.08.79-1.47-.22a5.68,5.68,0,0,1-.06-3.94C74.5,116.26,75.14,117.65,76.17,118.39Z" transform="translate(0.21 0.45)"/><path class="cls-20" d="M65.26,27.09c-1.05.15-1.62-.48-1.76-1.47-.11-.7,1.29-1.73,2.13-1.78a1.49,1.49,0,0,1,1.82,1.47C67.52,26.22,66.43,27.09,65.26,27.09Z" transform="translate(0.21 0.45)"/><path class="cls-21" d="M58.32,116.44a7.15,7.15,0,0,1,.14,3.67,1,1,0,0,1-.71.89c-.48.12-.75-.23-1-.54a9.48,9.48,0,0,0-1.68-1.89A5.58,5.58,0,0,1,58.32,116.44Z" transform="translate(0.21 0.45)"/><path class="cls-22" d="M39.69,92.94c0-1,.87-2.15,1.65-2.12S42.92,92,42.81,93.1a1.82,1.82,0,0,1-1.61,1.7C40.37,94.91,39.68,94,39.69,92.94Z" transform="translate(0.21 0.45)"/><path class="cls-23" d="M29.7,127.09a2,2,0,0,1-1.89,2c-1,0-1.37-.5-1.35-1.42s1.11-2.38,1.91-2.26A1.4,1.4,0,0,1,29.7,127.09Z" transform="translate(0.21 0.45)"/><path class="cls-24" d="M71.49,28.44a1.31,1.31,0,0,1-1.24-1.31,2,2,0,0,1,2-1.93,1.43,1.43,0,0,1,1.59,1.32C74,27.31,72.72,28.45,71.49,28.44Z" transform="translate(0.21 0.45)"/><path class="cls-25" d="M36.72,124.32A1.68,1.68,0,0,1,35,126.17a1.18,1.18,0,0,1-1.28-1.37c0-1.18.59-1.88,1.58-1.88A1.21,1.21,0,0,1,36.72,124.32Z" transform="translate(0.21 0.45)"/><path class="cls-26" d="M72.07,60.14c.36-1.43.62-3.11,2.33-4a1.54,1.54,0,0,1,2.29.61,1.45,1.45,0,0,1-.86,2.09,4.19,4.19,0,0,0-2.29,1.93c-.18.39-.44.91-1,.76S72.07,60.81,72.07,60.14Z" transform="translate(0.21 0.45)"/><path class="cls-27" d="M59.17,60.34c0,.59.08,1.14-.49,1.28s-.76-.38-1-.77a3.89,3.89,0,0,0-2-1.85c-1.21-.56-1.59-1.62-1-2.47a1.77,1.77,0,0,1,2.63-.06A5.35,5.35,0,0,1,59.17,60.34Z" transform="translate(0.21 0.45)"/><path class="cls-28" d="M89.69,42.61A5.14,5.14,0,0,1,84.52,48a5,5,0,0,1-5.11-5.1,5.19,5.19,0,0,1,5.24-5.31A5.06,5.06,0,0,1,89.69,42.61Z" transform="translate(0.21 0.45)"/><path class="cls-29" d="M51.86,42.83a5,5,0,0,1-5.27,5.22,5.35,5.35,0,0,1-5.06-5.13,5.26,5.26,0,0,1,5.24-5.35A5.06,5.06,0,0,1,51.86,42.83Z" transform="translate(0.21 0.45)"/><path class="cls-30" d="M86.47,39.41c.85.21,1.53.64,1.47,1.61a1.34,1.34,0,0,1-1.51,1.38A1.43,1.43,0,0,1,85,40.75C85.07,39.91,85.63,39.49,86.47,39.41Z" transform="translate(0.21 0.45)"/><path class="cls-31" d="M50,41c-.12.82-.47,1.48-1.42,1.44a1.32,1.32,0,0,1-1.35-1.52,1.3,1.3,0,0,1,1.35-1.39C49.46,39.48,49.91,40,50,41Z" transform="translate(0.21 0.45)"/></g></g></g></g></svg>