<svg xmlns="http://www.w3.org/2000/svg" xmlns:xlink="http://www.w3.org/1999/xlink" viewBox="0 0 131.39 131.48"><defs><style>.cls-1{fill:none;}.cls-2{clip-path:url(#clip-path);}.cls-3{fill:#69819f;}.cls-4{fill:#d6d1cd;}.cls-5{fill:#a4a4b0;}.cls-6{fill:#a4a5b0;}.cls-7{fill:#efede4;}.cls-8{fill:#f0eee4;}.cls-9{fill:#180704;}.cls-10{fill:#d6d2ca;}.cls-11{fill:#d8d3ca;}.cls-12{fill:#260a01;}.cls-13{fill:#240902;}.cls-14{fill:#f2eee5;}.cls-15{fill:#f5f0e9;}</style><clipPath id="clip-path" transform="translate(0.77 0.86)"><rect id="SVGID" class="cls-1" width="130.62" height="130.62" rx="12.21"/></clipPath></defs><g id="Capa_2" data-name="Capa 2"><g id="TIENDA"><g id="Mascotas"><g class="cls-2"><path class="cls-3" d="M22.52,130.56c-7.38,0-14.75,0-22.13.05-1.2,0-1.13-.64-1.13-1.44q0-22.39,0-44.8,0-42,0-83.93C-.77-.91-.16-.85.77-.85h104c8.1,0,16.19,0,24.29,0,1.15,0,1.51.23,1.51,1.47q0,64.17,0,128.33c0,1.24-.22,1.69-1.59,1.68-7.24-.09-14.48-.06-21.73-.07-.63-.26-.58-.83-.65-1.36a106.05,106.05,0,0,0-5.37-22.78A90.18,90.18,0,0,0,96.39,95,2.23,2.23,0,0,1,96,93.49a2.35,2.35,0,0,1,.79-1.07,31,31,0,0,0,9.46-17.09A34.3,34.3,0,0,0,102,54.17a5.13,5.13,0,0,1-.65-3.22c.68-5.8,1.14-11.62.12-17.45a17.93,17.93,0,0,0-1.52-5,3.08,3.08,0,0,0-3.61-1.94,14,14,0,0,0-4.81,1.7A43.26,43.26,0,0,0,82,35.44a1.66,1.66,0,0,1-2,.38,41.88,41.88,0,0,0-10.23-2.36A44.39,44.39,0,0,0,52.23,35c-.56.17-1.12.33-1.66.55a2.77,2.77,0,0,1-3.2-.64,52.41,52.41,0,0,0-7.56-5.85,20.41,20.41,0,0,0-5.42-2.36c-2.33-.64-3.82.11-4.78,2.31a25.72,25.72,0,0,0-1.56,7.09,57.63,57.63,0,0,0,.47,14.37,5.85,5.85,0,0,1-.67,3.64,32,32,0,0,0-3.89,11,31.89,31.89,0,0,0-.14,10.72,31.6,31.6,0,0,0,8.47,15.83c.62.63,1.43,1.13,1.7,2-.63,1.82-1.63,3.48-2.43,5.23a102.56,102.56,0,0,0-5.72,16.5,103.67,103.67,0,0,0-2.67,13.86C23.11,129.82,23.08,130.33,22.52,130.56Z" transform="translate(0.77 0.86)"/><path class="cls-4" d="M33.84,93.62A32,32,0,0,1,23.78,77.24c-.09-.39-.11-.79-.17-1.19a.54.54,0,0,1,0-.73c.3-.23.46.11.6.32a4.44,4.44,0,0,1,.37.72c1.75,4.06,5.1,5.67,9.25,5.8C41.28,82.39,46.9,79,51,72.89a8.23,8.23,0,0,1,.53-.78c1.23-1.16,2.73-2,3.58-3.58a8.83,8.83,0,0,0,.31-8.25c-.17-.37-.43-.7-.32-1.14a16.77,16.77,0,0,0,.79-3,20,20,0,0,1,3.57-6.75c3-3.66,7.19-3.87,10.51-.55a17.76,17.76,0,0,1,4.2,7.6c.26.85.46,1.73.69,2.6a3,3,0,0,1-.49,1.66c-1.73,3.69,0,8.86,3.37,10.58a2,2,0,0,1,1,.82,3.85,3.85,0,0,0,1,2c4.6,6,10.55,8.92,18.16,7.82a9,9,0,0,0,7.6-6.05c.12-.34.21-.74.58-.86s.57.09.34.49A30,30,0,0,1,96.25,93.35a5.61,5.61,0,0,1-2.55,2.48,44.88,44.88,0,0,1-13.08,6.24c-1.57.43-1.63.54-.88,2,4,7.93,6,16.43,6.88,25.2,0,.43.22.89-.11,1.3H43.31c-.31-2,.36-3.82.61-5.72a65.38,65.38,0,0,1,6.19-20.71c.78-1.55.71-1.56-1-2.1a43,43,0,0,1-14.53-7.51A2.34,2.34,0,0,1,33.84,93.62Z" transform="translate(0.77 0.86)"/><path class="cls-5" d="M33.84,93.62C36.06,95,38,96.75,40.3,97.94a55.05,55.05,0,0,0,9.55,3.91c1.47.43,1.57.6.84,2a61.27,61.27,0,0,0-5,13.68c-.93,4-1.49,8-2,12a2.55,2.55,0,0,1-.29,1H22.52a50.13,50.13,0,0,0,1-6.32,117.44,117.44,0,0,1,3.6-14.69,91.54,91.54,0,0,1,5.52-13.82C33,95,33.45,94.32,33.84,93.62Z" transform="translate(0.77 0.86)"/><path class="cls-5" d="M86.51,130.58c-.53-2.85-.74-5.74-1.3-8.59a66.28,66.28,0,0,0-6-18.15c-.82-1.56-.79-1.56.88-2a42,42,0,0,0,16.15-8.47,1.87,1.87,0,0,0,.35,1.27,90.53,90.53,0,0,1,7.21,18.5A88.45,88.45,0,0,1,107,129.66a4.28,4.28,0,0,0,.26.89Z" transform="translate(0.77 0.86)"/><path class="cls-6" d="M51.66,72.3c-4.1,7.87-13.95,12.12-21.74,9.51a9.57,9.57,0,0,1-6-6c-.05-.12.07-.4-.24-.32,0,0-.05.07-.05.11s0,.27,0,.4c-.85-2.16-.59-4.42-.49-6.63A34.15,34.15,0,0,1,24,62.91a23.26,23.26,0,0,1,2.75-7.27c1.57-2.42,1.52-4.93,1.18-7.6a45.63,45.63,0,0,1-.31-10.58A34.59,34.59,0,0,1,29,29.69c1.16-3.39,3.22-4.27,6.58-3a32.81,32.81,0,0,1,10.69,6.83c.56.51,1.2.94,1.73,1.48a1.64,1.64,0,0,0,1.94.44,43.88,43.88,0,0,1,17.3-2.54A42.61,42.61,0,0,1,80,35.43,1.53,1.53,0,0,0,81.94,35c4-3.73,8.21-7.25,13.68-8.7,2.48-.65,3.8.06,4.86,2.34a23.59,23.59,0,0,1,1.91,9,64.46,64.46,0,0,1-.75,14.08,3.18,3.18,0,0,0,.65,2.14A34.88,34.88,0,0,1,106.81,69a40,40,0,0,1-.06,5.48c0,.36.07.74-.27,1-.08-.39-.35-.5-.44-.1-1.44,6.31-8.72,8-14.47,6.8a19.62,19.62,0,0,1-12.8-9c-.11-.17-1-.57-.08-.94.55-.22,1,.06,1.56.19a9,9,0,0,0,10.16-4.26,8.91,8.91,0,0,0-1.55-10.76,8.73,8.73,0,0,0-12.22,0c-.6.62-1,1.49-2,1.7-.85-1.49-.9-3.24-1.63-4.78a17.64,17.64,0,0,0-3.49-5.36c-2.82-2.77-6.24-2.91-9-.14a17.33,17.33,0,0,0-4.78,9.69c0,.3.17.85-.51.53-.58-.13-.82-.67-1.19-1-2.57-2.56-5.54-3.86-9.17-2.76a8.73,8.73,0,0,0-6.44,7.39c-.64,3.73,2.1,8.24,5.79,9.51a9.08,9.08,0,0,0,6.21.13C50.82,72.1,51.26,71.89,51.66,72.3Z" transform="translate(0.77 0.86)"/><path class="cls-7" d="M51.66,72.3A17.45,17.45,0,0,1,49,73c-3.46.35-6.58-.5-8.77-3.34-2.37-3.07-3-6.48-1.19-10.09a8.8,8.8,0,0,1,8.27-5.07,9.07,9.07,0,0,1,8,4.51,10.47,10.47,0,0,1,1.38,5.5,8.55,8.55,0,0,1-3.74,6.9Z" transform="translate(0.77 0.86)"/><path class="cls-8" d="M74.65,59.08a10.15,10.15,0,0,1,6.75-4.44A9.21,9.21,0,0,1,91.88,63c.36,7.38-6.35,12.1-13.19,9.29a8.89,8.89,0,0,1-4.32-12.43A5.4,5.4,0,0,0,74.65,59.08Z" transform="translate(0.77 0.86)"/><path class="cls-9" d="M65.06,79.55c-3.13,2.78-5.9,3.26-8.85,1.59A4.83,4.83,0,0,1,54.1,78.6c-.2-.53-.43-1.2.32-1.52s1.1.19,1.37.75c.9,1.91,2.5,2.45,4.45,2.31a3.81,3.81,0,0,0,3.43-2.62c.36-1.13.34-2-.91-2.71a5.3,5.3,0,0,1-2-2c-.47-.78-.33-1.46.6-1.67a16.85,16.85,0,0,1,7.07,0c1.05.21,1.22,1,.58,1.84a8.25,8.25,0,0,1-2.25,2.12,1.51,1.51,0,0,0-.72,1.83,3.77,3.77,0,0,0,3.37,3.2,4.22,4.22,0,0,0,4.62-2c.32-.61.58-1.42,1.43-.94s.44,1.27.12,1.91C73.73,82.9,67.64,83,65.06,79.55Z" transform="translate(0.77 0.86)"/><path class="cls-10" d="M98.65,40.55a35.55,35.55,0,0,1-.46,6c-.13.9-.4,1-1,.35a44.53,44.53,0,0,0-5.55-5.08,37.33,37.33,0,0,0-4.7-3.09c-1-.51-1.3-.88-.28-1.87a26.67,26.67,0,0,1,7.64-5.16c1.82-.84,2.91-.35,3.49,1.55A23.6,23.6,0,0,1,98.65,40.55Z" transform="translate(0.77 0.86)"/><path class="cls-11" d="M31.43,40.18A19.78,19.78,0,0,1,32,33.77c.57-1.91,1.4-3.2,3.94-2a31.84,31.84,0,0,1,7.8,5.41c.32.3.91.57,0,1.06a43.77,43.77,0,0,0-10.36,7.85c-.37.38-.67,1.15-1.34.89s-.26-1-.38-1.47A27.59,27.59,0,0,1,31.43,40.18Z" transform="translate(0.77 0.86)"/><path class="cls-12" d="M54.59,64a6.16,6.16,0,1,1-6.15-6.35A6.22,6.22,0,0,1,54.59,64Z" transform="translate(0.77 0.86)"/><path class="cls-13" d="M75.35,63.91a6.28,6.28,0,0,1,6-6.23,6.29,6.29,0,0,1,.14,12.58A6.26,6.26,0,0,1,75.35,63.91Z" transform="translate(0.77 0.86)"/><path class="cls-14" d="M51,59.84a1.82,1.82,0,0,1,1.75,2c-.11,1.11-.94,1.48-1.89,1.56a1.7,1.7,0,0,1-1.74-1.83A1.79,1.79,0,0,1,51,59.84Z" transform="translate(0.77 0.86)"/><path class="cls-15" d="M83.81,63.41a1.69,1.69,0,0,1-1.68-1.87,1.78,1.78,0,0,1,3.55,0A1.82,1.82,0,0,1,83.81,63.41Z" transform="translate(0.77 0.86)"/></g></g></g></g></svg>