<svg xmlns="http://www.w3.org/2000/svg" xmlns:xlink="http://www.w3.org/1999/xlink" viewBox="0 0 131.22 131.22"><defs><style>.cls-1{fill:none;}.cls-2{clip-path:url(#clip-path);}.cls-3{fill:#a09b33;}.cls-4{fill:#270c01;}.cls-5{fill:#efe8e0;}.cls-6{fill:#f0ece2;}.cls-7{fill:#edebdf;}.cls-8{fill:#1f0b04;}</style><clipPath id="clip-path" transform="translate(0.58 0.07)"><rect id="SVGID" class="cls-1" width="130.62" height="130.62" rx="12.21"/></clipPath></defs><g id="Capa_2" data-name="Capa 2"><g id="TIENDA"><g id="Mascotas"><g class="cls-2"><rect class="cls-3" width="131.22" height="131.22"/><path class="cls-4" d="M25.86,103.65a25.44,25.44,0,0,0,1.19-4.17,22.29,22.29,0,0,0,.29-5.65c-.36-5.75.07-21,2.39-27.39.86-2.37.89-5,1.91-7.34a2.3,2.3,0,0,0,.19-1.5,2.49,2.49,0,0,0-.94-1.29,17.69,17.69,0,0,1-3.56-3.77c-2-3-1.4-4.85,2.09-5.81A19.85,19.85,0,0,1,35,46.14a2,2,0,0,0,1.54-.37,33.45,33.45,0,0,1,15.34-8.33,12,12,0,0,1-3.81-2.84c-.51-.6-1.22-1.23-.85-2.05s1.23-.72,2-.75a30.36,30.36,0,0,1,7.94,1c1.27.28,1.88.32,1.75-1.33-.15-1.95.65-2.39,2.59-1.91,3.4.85,6.21,2.81,9,4.81a9.28,9.28,0,0,0,4.12,1.84C79.64,37,84,39.46,88.3,42a29.92,29.92,0,0,1,5.55,3.69,2.34,2.34,0,0,0,1.84.41,15.61,15.61,0,0,1,6.13.89c2.42.86,3,2.36,1.8,4.62a14.1,14.1,0,0,1-3.62,4.1,3,3,0,0,0-1.25,1.72,3.38,3.38,0,0,0,.64,2.45c1.11,1.86,1.16,4.18,1.78,6.25,1.77,5.88,2.06,14.58,2.38,24.11,0,1.06,0,2.06,0,2.06,0,.24,0,.52,0,.92a54.11,54.11,0,0,0,2.09,14.59c1.08,3.78,1.72,4.09,5.06,11.61,2.19,4.94,3.78,9,4.76,11.61l-9,0q-9.48,0-19,0a3.39,3.39,0,0,1-.85-2,35.13,35.13,0,0,0-3.09-9.29,31.77,31.77,0,0,1-3-16.33,20.82,20.82,0,0,1,3.3-9.76,32.51,32.51,0,0,0,4-8.89c2.08-7.42-3.81-14-10.92-14.09-6.69-.09-13.38-.12-20.07-.21a22.69,22.69,0,0,0-4.88.47A11.75,11.75,0,0,0,43.39,87a45.21,45.21,0,0,0,3.21,6.37c4.06,6.74,4.4,13.85,2.28,21.23a40.32,40.32,0,0,1-2.28,6,34.21,34.21,0,0,0-2.83,8.9,2.19,2.19,0,0,1-.55,1.37l-28.38-.68c.87-2.62,2.32-6.71,4.47-11.61C21,114.58,23.53,110.19,25.86,103.65Z" transform="translate(0.58 0.07)"/><path class="cls-5" d="M43.08,130.79c.05-.2.14-.53.25-.94a98.93,98.93,0,0,1,3.2-10.12c3-6.88,4.37-14,2-21.38-1-3-2.86-5.62-4.25-8.45A20.68,20.68,0,0,1,42,83c-.46-4.19,1.46-7.35,4.51-10a12.5,12.5,0,0,1,8.18-3c7.83-.07,15.66-.24,23.49.21A11.32,11.32,0,0,1,88.48,83.8a26.85,26.85,0,0,1-4,9.49c-3.83,5.81-4.24,12.1-3,18.69a27.52,27.52,0,0,0,2.24,6.89A45.75,45.75,0,0,1,87.47,131Z" transform="translate(0.58 0.07)"/><path class="cls-6" d="M48.51,62.47a6.75,6.75,0,0,1-.7,3.24,1.38,1.38,0,0,1-1.24.9,1.24,1.24,0,0,1-1.21-.91,8.25,8.25,0,0,1-.17-6.59c.28-.63.66-1.14,1.38-1.15s1.07.54,1.36,1.15A7.39,7.39,0,0,1,48.51,62.47Z" transform="translate(0.58 0.07)"/><path class="cls-7" d="M87.14,61.64a9.38,9.38,0,0,1-.73,4c-.2.51-.47,1-1.14,1a1.3,1.3,0,0,1-1.3-.81,7.84,7.84,0,0,1-.11-6.85c.63-1.31,1.68-1.28,2.47,0A6.17,6.17,0,0,1,87.14,61.64Z" transform="translate(0.58 0.07)"/><path class="cls-8" d="M45.46,82.67C44,82.26,43.68,81,43.55,79.8a4.19,4.19,0,0,1,1.93-4.24,5.43,5.43,0,0,1,5.61,0,9.84,9.84,0,0,0-3.16,1.24c-.81.65-.85,1.22.21,1.57,4.54,1.49,9.67,2.09,15-.32a11.79,11.79,0,0,1-3.71-2.18c-1.22-1.26-1.11-2.33.44-3.2a10.07,10.07,0,0,1,4.15-1,13.53,13.53,0,0,1,6.28.79c2.17.86,2.35,2.23.61,3.77a14.85,14.85,0,0,1-3.23,1.81,19.07,19.07,0,0,0,15,.21c.75-.28.71-.72.17-1.22a5.39,5.39,0,0,0-3.11-1.27c1.62-1.48,5-1.2,6.27.48,1.72,2.34,1.37,5-.88,6.43-.28-.62,0-1.26-.08-1.88,0-1-.36-1.16-1.28-.69a20.51,20.51,0,0,1-10.28,2.44A12.92,12.92,0,0,1,66,80.17c-.38-.28-.68-.64-1.27-.19-4.81,3.63-10,3-15.27,1.26a16,16,0,0,1-2.57-1.15c-1-.52-1.32-.26-1.36.79C45.52,81.45,45.78,82,45.46,82.67Z" transform="translate(0.58 0.07)"/></g></g></g></g></svg>