<svg xmlns="http://www.w3.org/2000/svg" viewBox="0 0 286 286"><g id="Capa_2" data-name="Capa 2"><g id="ADOPTAR2"><rect width="286" height="286" rx="28.31" style="fill:#a09b33"/><path d="M57.62,226.06a53.15,53.15,0,0,0,2.6-9.09,48.21,48.21,0,0,0,.64-12.32c-.8-12.54.15-45.88,5.2-59.7,1.88-5.17,2-10.93,4.16-16a5.14,5.14,0,0,0,.43-3.27,5.52,5.52,0,0,0-2.07-2.82,38.89,38.89,0,0,1-7.76-8.23c-4.43-6.61-3-10.56,4.56-12.65a43.2,43.2,0,0,1,12.2-1.29c1.18,0,2.35.1,3.35-.81,9.48-8.59,20.11-15.13,33.43-18.14a26.51,26.51,0,0,1-8.3-6.2c-1.12-1.31-2.65-2.69-1.86-4.47.73-1.6,2.68-1.57,4.32-1.64,5.89-.26,11.63.88,17.31,2.14,2.77.61,4.09.69,3.81-2.89-.32-4.25,1.43-5.22,5.65-4.17,7.41,1.85,13.53,6.12,19.56,10.48a20.15,20.15,0,0,0,9,4c11,1.66,20.49,7.13,29.88,12.69,4.18,2.47,8.52,4.69,12.11,8.05,1.16,1.09,2.61.94,4,.88a34.75,34.75,0,0,1,13.37,1.94c5.26,1.89,6.53,5.16,3.92,10.09-1.92,3.61-4.84,6.36-7.9,8.92-1.57,1.32-2.39,2.26-2.72,3.74-.51,2.33.83,4.42,1.39,5.35,2.42,4.06,2.53,9.1,3.89,13.63,3.86,12.82,4.49,31.76,5.19,52.55.08,2.29,0,4.49,0,4.49,0,.53,0,1.12,0,2-.27,7.51,1.36,20.72,4.55,31.79,2.36,8.24,3.76,8.92,11,25.31,4.77,10.76,8.25,19.64,10.38,25.3l-19.7-.11q-20.65-.08-41.31-.05a7.48,7.48,0,0,1-1.85-4.41,77.12,77.12,0,0,0-6.73-20.26,69,69,0,0,1-6.57-35.59A45.43,45.43,0,0,1,184,204.06a70.1,70.1,0,0,0,8.81-19.38c4.53-16.15-8.31-30.48-23.8-30.7-14.58-.21-29.17-.26-43.75-.45a49.07,49.07,0,0,0-10.63,1c-16.24,3.39-24.93,19.82-18.75,35.18a99.17,99.17,0,0,0,7,13.88c8.83,14.69,9.58,30.19,5,46.27a91,91,0,0,1-5,13,74.49,74.49,0,0,0-6.18,19.41,4.68,4.68,0,0,1-1.2,3L33.61,283.8c1.9-5.71,5-14.64,9.74-25.3C47.13,249.88,52.56,240.3,57.62,226.06Z" style="fill:#270c01"/><path d="M95.16,285.21c.11-.44.3-1.16.54-2a214.93,214.93,0,0,1,7-22.05c6.65-15,9.52-30.47,4.28-46.59-2.14-6.6-6.21-12.27-9.25-18.44-2.35-4.77-4.34-9.62-4.92-14.93-1-9.15,3.17-16,9.82-21.69a27.2,27.2,0,0,1,17.83-6.58c17.07-.17,34.15-.52,51.21.45,14.77.84,25.36,15,22.46,29.46a58.16,58.16,0,0,1-8.76,20.69c-8.35,12.66-9.25,26.37-6.65,40.73a59.58,59.58,0,0,0,4.89,15,99.93,99.93,0,0,1,8.32,26.35Z" style="fill:#efe8e0"/><path d="M107,136.3a14.85,14.85,0,0,1-1.52,7.06,3,3,0,0,1-2.7,2,2.75,2.75,0,0,1-2.66-2c-1.88-4.73-2.45-9.51-.35-14.36.6-1.38,1.43-2.49,3-2.51s2.33,1.18,3,2.52A16.05,16.05,0,0,1,107,136.3Z" style="fill:#f0ece2"/><path d="M191.2,134.51a20.68,20.68,0,0,1-1.6,8.6c-.44,1.12-1,2.15-2.48,2.2a2.83,2.83,0,0,1-2.83-1.78c-2.2-4.92-2.63-10-.25-14.91,1.39-2.86,3.67-2.8,5.4-.12A13.73,13.73,0,0,1,191.2,134.51Z" style="fill:#edebdf"/><path d="M100.34,180.34c-3.24-.91-3.87-3.71-4.15-6.27-.41-3.74.87-7.22,4.2-9.23,3.7-2.24,7.69-2.17,12.23.09-2.72.94-5.06,1.24-6.89,2.71s-1.85,2.67.47,3.43c9.88,3.24,21.07,4.55,32.64-.69-2.92-1.36-5.85-2.47-8.08-4.77-2.67-2.74-2.42-5.07,1-7,2.79-1.57,5.91-1.92,9-2.2a29.36,29.36,0,0,1,13.69,1.72c4.73,1.87,5.11,4.85,1.33,8.22-2,1.75-4.41,2.57-7,3.94,11.15,5,21.95,4.47,32.8.44,1.64-.6,1.54-1.56.37-2.63a11.74,11.74,0,0,0-6.79-2.78c3.55-3.23,11-2.61,13.67,1,3.75,5.11,3,10.9-1.91,14-.62-1.35-.1-2.74-.17-4.09-.11-2.15-.78-2.53-2.79-1.51-7,3.56-14.42,5.68-22.42,5.33-6-.26-11.52-1.6-16.36-5.26-.83-.62-1.48-1.39-2.76-.42-10.49,7.91-21.81,6.63-33.29,2.76a36.64,36.64,0,0,1-5.61-2.51c-2.09-1.13-2.87-.56-3,1.71C100.48,177.67,101,179,100.34,180.34Z" style="fill:#1f0b04"/></g></g></svg>