<svg xmlns="http://www.w3.org/2000/svg" xmlns:xlink="http://www.w3.org/1999/xlink" viewBox="0 0 131.44 131.33"><defs><style>.cls-1{fill:none;}.cls-2{clip-path:url(#clip-path);}.cls-3{fill:#cbac81;}.cls-4{fill:#e7bc79;}.cls-5{fill:#c28d4f;}.cls-6{fill:#c28c4e;}.cls-7{fill:#efece3;}.cls-8{fill:#220602;}.cls-9{fill:#1f0602;}.cls-10{fill:#260b01;}.cls-11{fill:#140403;}.cls-12{fill:#f2decf;}.cls-13{fill:#f4e1d1;}</style><clipPath id="clip-path" transform="translate(0.21 0.35)"><rect id="SVGID" class="cls-1" width="130.62" height="130.62" rx="12.21"/></clipPath></defs><g id="Capa_2" data-name="Capa 2"><g id="TIENDA"><g id="Mascotas"><g class="cls-2"><path class="cls-3" d="M18.11,130.91.83,131c-.74,0-.89-.34-.9-1,0-2.92-.21-5.84-.11-8.74.13-3.87.07-7.73,0-11.59-.08-4.67.12-9.35.11-14,0-5-.24-10-.1-14.93.18-6.48.06-13,.1-19.43C0,54.44,0,47.61-.09,40.78c-.08-4.35,0-8.71-.06-13.06C-.29,18.78-.08,9.83-.06.89c0-1,.37-1.2,1.26-1.19,3.82,0,7.64,0,11.45,0,7.51,0,15,.09,22.52,0,5.53-.08,11.06.06,16.58,0q14.37,0,28.73,0h48.16c2.58,0,2.59,0,2.59,2.52q0,62.9,0,125.8c0,2.94,0,2.94-3,2.94l-16.47-.05c.93-.76.76-1.69.56-2.73a48,48,0,0,0-3.15-10.72c-.73-1.6-1.68-3.07-2.51-4.61-.43-.82-.65-1.47.61-1.78,1.08-.26,1.4-1.2,1.39-2.21a13.49,13.49,0,0,0-1.68-6.05c-1.39-2.73-3-5.34-4.43-8a29,29,0,0,1-3.5-11c-.06-.71-.23-1.45.44-2,1,0,1.28.88,1.78,1.45a7.81,7.81,0,0,0,2.87,2.17c1.86.77,2.82.22,3.16-1.75.25-1.46.4-2.92.74-4.37a15.47,15.47,0,0,1,3.22-6c2.29-2.93,4.85-5.67,6.38-9.14a18.21,18.21,0,0,0,1.85-9,12.88,12.88,0,0,0-3.86-7.68c-2.1-2.28-4.42-4.33-6.64-6.49-1.94-1.88-3.63-4-5.42-6a32.61,32.61,0,0,0-5.42-5.21,13.16,13.16,0,0,0-6.47-2.47A9.05,9.05,0,0,1,90.26,27a71.58,71.58,0,0,0-6.47-3.6,41,41,0,0,0-12.47-3.23,47.39,47.39,0,0,0-13,.18,39.13,39.13,0,0,0-16.61,6.31,2.86,2.86,0,0,1-1,.49,13.85,13.85,0,0,0-9.44,4.05,60.92,60.92,0,0,0-6.2,6.74c-2.67,3.3-6.08,5.86-9,8.94a22.82,22.82,0,0,0-3,3.82,11.6,11.6,0,0,0-1,9.61,29.67,29.67,0,0,0,6.69,11.58,17.81,17.81,0,0,1,5.08,11.59c.07,1.88,1.3,2.58,3.07,2a6.61,6.61,0,0,0,2.89-2.12c.59-.68.88-1.82,2.11-1.76a4.72,4.72,0,0,1,.16,2.78,37.47,37.47,0,0,1-5.38,14,37,37,0,0,0-3.94,8.39c-.72,2.45-.45,3.2,1.71,4.5.68.41.49.88.19,1.36-.66,1-1.18,2.12-1.74,3.19a32.52,32.52,0,0,0-3.61,10.52c-.17,1.16-.45,2.29-.67,3.44C18.59,130.2,18.61,130.69,18.11,130.91Z" transform="translate(0.21 0.35)"/><path class="cls-4" d="M40.53,27C45.8,23,51.85,21,58.31,20a44,44,0,0,1,9.24-.49c7.5.37,14.69,1.94,21.11,6.1.6.38,1.19.78,1.79,1.17A4.52,4.52,0,0,1,92,28.07a33,33,0,0,1,6.19,19.47,77,77,0,0,1-1,10.73,45.94,45.94,0,0,0,.09,15.95,24.8,24.8,0,0,0,2.12,6.1c.23.47.63.92.26,1.5-.58,2.12.06,4.16.58,6.16,1.15,4.43,3.58,8.27,5.79,12.21,1.53,2.72,3.08,5.44,3.07,8.71,0,1.76-.68,2.51-2.5,2.71a10.23,10.23,0,0,0,1.28,2.56,35,35,0,0,1,4.46,12.12,15.51,15.51,0,0,0,.58,2.74c.45,1.19,0,1.69-1.1,1.89q-12.25,0-24.53.05-33.77,0-67.53,0c-.54,0-1.08,0-1.61-.05.82-4.47,1.43-9,3.47-13.16a38.19,38.19,0,0,1,3.21-5.89c-.4-.58-1.08-.31-1.57-.69-1.4-1.1-1.25-2.52-.94-3.92a25.63,25.63,0,0,1,3-7c2.5-4.43,5.11-8.8,6.12-13.89a18.48,18.48,0,0,0,.45-4.8c-.37-.61,0-1.13.27-1.64,2.55-5.65,2.94-11.58,2.41-17.67-.17-2-.51-4-.82-6a45.35,45.35,0,0,1-.3-14A33,33,0,0,1,39,28.4C39.35,27.81,39.72,27.17,40.53,27Z" transform="translate(0.21 0.35)"/><path class="cls-5" d="M99.62,81.82a46.33,46.33,0,0,1-2.08-4.93,38.44,38.44,0,0,1-1.27-13.67c.36-5.94,1.92-11.76,1.48-17.77a32.48,32.48,0,0,0-4.56-14.71,24.67,24.67,0,0,0-2.74-4,16,16,0,0,1,10.69,5c1.9,1.9,3.58,4,5.33,6.05,2.62,3.07,5.75,5.63,8.56,8.52a26.55,26.55,0,0,1,3.19,4,11.64,11.64,0,0,1,1.43,8.93,25.64,25.64,0,0,1-5.92,11.61,49.08,49.08,0,0,0-4,5.21,15.79,15.79,0,0,0-2,7.16c-.28,2.85-1.56,3.6-4.16,2.36C101.85,84.74,100.83,83.18,99.62,81.82Z" transform="translate(0.21 0.35)"/><path class="cls-6" d="M40.53,27a32,32,0,0,0-7.09,19.55c-.12,4.56.73,9,1.28,13.46.89,7.18.72,14.32-2.72,21a3,3,0,0,0-.16.51c-.63.75-1.32,1.46-1.89,2.25a6.12,6.12,0,0,1-3.82,2.31,2.29,2.29,0,0,1-2.6-2.43c0-5.3-2.81-9.17-6.08-12.9a24.52,24.52,0,0,1-6.3-13.83c-.31-3.09,1-5.86,3-8.27a53.83,53.83,0,0,1,6.42-6.48A74.35,74.35,0,0,0,27.19,35a30.56,30.56,0,0,1,7.26-6.54,16.83,16.83,0,0,1,5.22-1.65A.82.82,0,0,1,40.53,27Z" transform="translate(0.21 0.35)"/><path class="cls-7" d="M65.48,55.07a26.53,26.53,0,0,1,18.15,6c4.84,3.88,7.68,8.92,7,15.33-.39,3.84-2.46,6.87-5.39,9.34-4.19,3.52-9.21,4.87-14.48,5.55a39.69,39.69,0,0,1-13.66-.56c-4.65-1-9.11-2.6-12.52-6.08a14.17,14.17,0,0,1-2.73-16.29C45,61.86,50.38,58.28,57,56.15A25.37,25.37,0,0,1,65.48,55.07Z" transform="translate(0.21 0.35)"/><path class="cls-8" d="M54.05,49.49a4.15,4.15,0,0,1-4.12,4.24,4.31,4.31,0,0,1-4.45-4.25,4.38,4.38,0,0,1,4.45-4.55C52.3,44.94,54,46.86,54.05,49.49Z" transform="translate(0.21 0.35)"/><path class="cls-9" d="M77.18,49.2a4.24,4.24,0,0,1,4.14-4.27,4.38,4.38,0,0,1,4.43,4.32,4.27,4.27,0,0,1-4.27,4.43A4.13,4.13,0,0,1,77.18,49.2Z" transform="translate(0.21 0.35)"/><path class="cls-10" d="M64.24,75.91c-3-1.22-5.59-2.83-7-5.93a3.9,3.9,0,0,1,1.87-5.54,9.57,9.57,0,0,1,3.76-.94,26.78,26.78,0,0,1,7,.22,8.52,8.52,0,0,1,2.53.87c2.51,1.41,2.81,4,.78,6.62-1.13-.37-1.61.39-1.83,1.23a1.55,1.55,0,0,1-1.67,1.36c-.36,0-.78,0-1,.35C67.7,76,66,76.06,64.24,75.91Z" transform="translate(0.21 0.35)"/><path class="cls-11" d="M64.24,75.91c1-.68,2.41.13,3.38-.83.15-.14.52-.24.51-.35-.12-1.65,1.11-1.19,2-1.28.37,0,.89-.14.77-.52-.28-.92.48-1.28.81-1.84.48-.81,1-.7,1.47.12a10.89,10.89,0,0,1-5.25,4.17A1.4,1.4,0,0,0,67,77a5.33,5.33,0,0,0,2,3.84c3.47,2.9,8.71,3.39,12,1.18a8.5,8.5,0,0,0,3.71-5.85c.17-.94.4-1.74,1.55-1.53s1.15,1.19,1,2.12c-1.09,6.35-6.75,10.2-13.38,9.08a12.34,12.34,0,0,1-7.67-4.12c-.51-.61-.7-.32-1.09.09a13.25,13.25,0,0,1-15,3.11c-3.66-1.65-5.5-4.75-6.13-8.62-.13-.76.08-1.5,1-1.61a1.17,1.17,0,0,1,1.46,1c1.23,7.28,8,9.16,13.7,6.54C62.85,81.06,64.58,79.15,64.24,75.91Z" transform="translate(0.21 0.35)"/><path class="cls-12" d="M50.65,46.37c.9.12,1.48.51,1.39,1.39a1.35,1.35,0,0,1-1.42,1.32,1.27,1.27,0,0,1-1.24-1.57A1.15,1.15,0,0,1,50.65,46.37Z" transform="translate(0.21 0.35)"/><path class="cls-13" d="M81.82,47.32c0,1.17-.44,1.73-1.25,1.75a1.27,1.27,0,0,1-1.41-1.3,1.24,1.24,0,0,1,1.36-1.33C81.31,46.45,81.8,46.79,81.82,47.32Z" transform="translate(0.21 0.35)"/></g></g></g></g></svg>