<svg xmlns="http://www.w3.org/2000/svg" viewBox="0 0 800.01 450"><g id="Capa_2" data-name="Capa 2"><g id="DiseñosMascotas"><rect width="800.01" height="357" style="fill:#f76b5e"/><path d="M800,357v93H0V353.5Z" style="fill:#da9b33"/><path d="M402.31,360.72c14.92,1.85,29.6,4.61,42.92,12.08,6.16,3.46,10.53,8.08,9.11,15.94a3.67,3.67,0,0,1-.84,2.54c-5.56,6.46-13.13,9.7-20.85,12.43-14.88,5.26-30.39,7.45-46,9-18.79,1.82-37.63,1.34-56.41.82a211.73,211.73,0,0,1-58.12-9.39,76.89,76.89,0,0,1-20.9-10.53c-1.37-.87-2.25-2-1.92-3.74-.82-4.13-.88-7,.16-9.39,1.26-2.9,3.48-4.65,7.33-6.89,11.18-6.49,23.12-9.6,33.77-11.24,1.49-.23,2.71-.39,3.45-.49a13.67,13.67,0,0,0,.5,3.06,14.69,14.69,0,0,0,.77,2.08c.81,1.74,2.92,5.77,5.87,11-1,1.85-3,2.32-4.6,3.28-2.11,1.24-4.57,2.53-4.52,5.27,0,3,2.73,4.27,5.11,5.39a34.81,34.81,0,0,0,5.89,2.14c12,3.26,24.1,5.67,36.59,5.59,15.5-.1,31.05.76,46.43-2.1,6.7-1.25,13.37-2.63,19.51-5.7,2.27-1.13,5.16-2.26,5.07-5.38s-2.82-4.14-5.1-5.45c-3.28-1.9-7.49-2-10.11-5.14A25.76,25.76,0,0,1,402.31,360.72Z" style="fill:#ecf0f1"/><path d="M453.31,390l1-1.23c7.79,7.2,5.06,15-3.16,20-11.54,7.06-24.3,10.93-37.5,13.52-25,4.92-50.35,6.24-75.77,5.22-25.59-1-50.84-4.43-74.94-13.73a45.9,45.9,0,0,1-10.79-6.2c-7.28-5.4-8.06-10-2.93-17.71l2.16,2.26c7.35,7.95,17,12.18,26.86,15.57,18.77,6.42,38.26,8.74,58,9.89a289.41,289.41,0,0,0,63.5-3.37c16.77-2.73,33-7.5,47.21-17.34A22.66,22.66,0,0,0,453.31,390Z" style="fill:#b77f2d"/><path d="M300.81,377.34a37.49,37.49,0,0,1-3.21-5,39.08,39.08,0,0,1-3.08-7.39,59.09,59.09,0,0,0,11.57,9.21,58.22,58.22,0,0,0,24,8.27c12,1.25,23.86-.44,35.4-4.05,1.89,4.81,3.39,9.77,5.3,14.58-6.34,4.56-13.93,4.53-21.05,4.66-16.44.31-31.7-4-44.74-14.6C303.11,381.51,301.16,380,300.81,377.34Z" style="fill:#ce5e26"/><path d="M370.77,392.12c-3-1.44-6-9.11-5.26-13.7,8-3.82,16.07-7.43,22-14.36,5.22-6.09,8.84-12.82,8.42-21.15l1-3.2c1.17-1,1.82-1.48,1.95-1.37s-.18.69-.9,1.73a27,27,0,0,1,3.71,16.3,40.41,40.41,0,0,1-.42,4.31,41.31,41.31,0,0,1-5.33,14.79c-2.47,7.51-15.73,17.46-23.31,17.48A2.45,2.45,0,0,1,370.77,392.12Z" style="fill:#c2392b"/><path d="M398.62,339.89l-3.21.88c-1.12-3-2-6-.3-9,3.18-1.1,3.74,1.52,4.77,3.41S400.85,338.78,398.62,339.89Z" style="fill:#592c14"/><path d="M370.77,392.12c10.75-2,18.29-8.78,25.13-16.66,4.16,1.69,8.53,3,12.44,5.16,6.48,3.55,6.53,7.73.33,11.59-6.61,4.13-14.17,5.65-21.68,7-17.73,3.19-35.68,2.69-53.54,2a125.43,125.43,0,0,1-37.08-7.47,12.12,12.12,0,0,1-2.24-1.31c-6.26-3.94-6.43-7.63-.3-11.8,2.11-1.44,4.64-2.24,7-3.33C321.27,395.8,344.72,400.09,370.77,392.12Z" style="fill:#b6bbbf"/><path d="M453.31,390c-2.09,8.1-9.44,10.87-15.56,14.38-11,6.29-23.38,9-35.66,11.39a252.47,252.47,0,0,1-51.41,4.19c-24.2-.4-48.32-2.2-71.52-10.05-7.93-2.68-15.72-5.72-22.28-11.1-2.23-1.83-4.94-3.39-5.47-6.67,17,11.41,36.47,14.82,56.15,17.63,22,3.13,44.14,2.95,66.2,1.92,24.14-1.14,48.24-3.59,70.37-14.91C447.63,395,450.24,392.21,453.31,390Z" style="fill:#b4b3ae"/><path d="M546.94,355.68c-33.44,2.23-66.93,1-100.39,1-7.29,0-14.63-.81-22-.87-5.32,0-10.49,1.59-15.84,1.13-2.23-.2-4.52.15-6.52-1.19-3.9-3.73-2.36-9.08-4-13.47-.26-3.57,1.59-7.95-3.73-9.57a7.48,7.48,0,0,1-2-1.33c-17.53-16.56-37-17.82-56.71-3.66-2.32,1.67-4.5,3.51-6.8,5.19-1.57,1.14-3.05,2.91-5.4,1.65-.18-6.46-.28-12.92,1-19.31-2.69-4.2-.8-8.37.35-12.41,1.06-3.73,1.58-7-1.32-10.27-2.34-2.62-2.34-6-1.81-9.33A50.7,50.7,0,0,1,327,267.59c2.74-5.2,5-5.68,9.46-1.65a162,162,0,0,1,13.61,14.11c13.77,16.07,30.48,27.91,51.13,33.17,21.21,5.41,41.34,2.68,59.58-10.12-11.5,4.69-23.07,8.92-35.71,9.91-10.39.82-20.57.11-30.11-3.73-14.11-5.68-27.06-13.55-37.93-24.38-8.83-8.8-17.71-17.54-27.06-25.8-2.19-1.94-4.76-3.14-7.17-4.64a22.09,22.09,0,0,1-4.63-4c-2.48-2.68-4.41-5.95-2.75-9.39,1.77-3.68,5.54-2.52,8.77-2,.56.09,1.12.45,1.66,0-3.05-1.92-7.25-1.73-9.54-5.13-1.28-3.18-.41-5.78,2.12-7.93,4.11-2,8.27-1.29,12.46-.27-2.54-1.91-6.85-1.05-8.13-5,2.89-5.25,7.24-3.4,11-1.74,6.44,2.88,11.14,8,15.23,13.65,2.26,3.12,4.25,6.42,6.49,9.56a16.45,16.45,0,0,0,7.46,6c2.53,1,3.86.26,4.35-2.32a10.06,10.06,0,0,1,2.48-4.81c2.26-1.28,4.36-.32,6.41.57,2.62,1.13,5.26,2.22,7.86,3.4,19.26,8.77,36.84,5.5,53.14-7.28.64-.51,1.48-.69,2.12-1.2-26.46,19.75-52.14,12-70-2-2.18-4-2.22-8.62-3.38-12.91-2.8-10.4-7.22-19.41-18.34-23.36-2.57-.91-5.39-2.33-4.65-6.09,2.48-1.64,4.8-.41,6.91.69,4,2.07,7.75,1.71,11.8.29a44.06,44.06,0,0,0,21.87-16.09c7-9.82,7.21-20.72,2.34-31.43-8.63-19-24.75-28-44.34-32-10.62-2.14-21.1-.87-31.49,1.78-2.15.55-4.35,1.35-6.49-.09-1.4-1.8-1.09-3.89-.82-5.88,2.31-17.57,6.83-34.38,17.37-49,3.82-5.31,8.12-10.2,14.32-12.93,16.89-10.2,35.43-13.38,54.76-12.08A126.12,126.12,0,0,1,436.3,47.68c1.81.87,3.87,1.49,4.85,3.53a5.12,5.12,0,0,1-2.79,2.27c-5.27,2.32-6.42,6.44-5.11,11.63,2.14,8.51,4.8,16.82,5.53,25.72,1.14,13.86-1.88,27.26-3.37,40.83-1.63,14.77.12,28.93,7,42.31a42.66,42.66,0,0,0,12.38,14.23c6.94,5.33,12.17,3.86,15-4.37A49.26,49.26,0,0,1,484,162c1.79-1.56,3.45-3.66,6.36-2.71,1.22,4.52,2.61,9,3.63,13.57a94.54,94.54,0,0,0,13.94,31.79c3.28,4.94,6.66,9.81,9.13,15.24.33.74.74,1.45,1.07,2.2,3.27,7.2,1.68,10.6-6.5,13.11C535.88,271.76,545,312.69,546.94,355.68Z" style="fill:#e9b979"/><path d="M490.34,159.32c-8.8,7-16,15-18.79,26.35-2.31,9.42-9.48,9.6-15.54,6.18a37.33,37.33,0,0,1-13.76-13.63c-8.85-14.95-11.24-31.16-8.75-48.28,1.52-10.45,3.42-21,3.55-31.46.1-8.2-.64-16.67-3.58-24.64A74.5,74.5,0,0,1,430.9,65c-2-8.59,1.52-13.32,10.25-13.83,14.62.52,25.24,8.29,34,19.11,6.55,8.1,13.48,15.72,21.91,21.91a54.33,54.33,0,0,1,10,9.89c9,11.18,6.77,28.69-.86,39.43a75.83,75.83,0,0,1-8.79,10.16C494.93,154.14,492.19,156.32,490.34,159.32Z" style="fill:#c48c50"/><path d="M303.74,115.08c6.47-1.76,12.89-3.5,19.67-4.1,21.2-1.88,39.64,4.22,54.57,19.18,7.53,7.53,12.75,16.73,13.16,28.14.48,13.44-5.77,23-16.1,30.45-4.66,3.37-10,5.52-15.37,7.44-3.31,1.17-6.25,1.19-9.35-.62-2.26-1.32-4.57-2.73-7.28-3.07q-.71-.1-1.41-.24c-11.82-2.11-26.34-7.81-41.58-21.9,22.42,14.4,42.9,17.29,48.87,13.69s7.88-6.43,7.88-6.43c1.6-1.85,3-3.86,4.41-5.86,1.84-2.6,4.19-3.84,7.94-2.34-4.17-5-6.41-10.23-6-14.38.75-.1,6.24-.71,10,3.13,4.44,4.58,3.44,12.47-.06,15.77-2.32,2.18-4.42,1.09-8.65,2.42-8.85,2.79-8.79,10.46-14.9,12.87-10,4-25.78-10.48-32.42-23.42-1.33-2.57-5.44-10.59-2.33-14.71,1.49-2,3.25-1.21,8.31-3.91a28,28,0,0,0,9.54-8.49c3.56-5.11,2-10.28-3.94-12.07a43.8,43.8,0,0,0-21.17-1.5c-7.08,1.37-9.27,6.26-6,12.75,2,4,5.39,6.56,8.65,9.36a14.45,14.45,0,0,1,3.32,4.54A15.92,15.92,0,0,1,314.6,155c1,2.54.87,3.5.45,3.87-1.33,1.19-5.54-3.2-12.12-4.48a21.15,21.15,0,0,0-9.3.37c-.83-1.17-2.05-1.63-2.66-1.3s-1,2,0,3.51c-1.61-1-2.48-.94-3-.7-1.13.54-.73,2.34-2.12,3.36a5.71,5.71,0,0,1-3.37,1c-4-12.79-4.81-25.09,5.44-35.72a12,12,0,0,0,1.06-1.48C292.58,118.35,297,114.6,303.74,115.08Z" style="fill:#f0ede3"/><path d="M317.23,234.19c3.76,1,7.64,1.52,11,3.68,1.49,1,3.83,1.9,2.89,4-.78,1.73-2.87.6-4.41.17-2.54-.72-5-1.88-7.74-1.66-2.09.16-2.87,1.06-2.46,3.2a11.75,11.75,0,0,0,6.37,8.57c8.61,4.27,14.92,11.29,21.83,17.59,7.85,7.15,14.51,15.61,23.24,21.78,10.86,7.67,21.85,15.42,35.2,18a78.94,78.94,0,0,0,22.42,1.34c13.36-1.22,25.38-5.79,37.26-11.33a14.78,14.78,0,0,1,2.27-.92c.33-.09.74.16,1.51.34-.63,3.3-3.32,5-5.59,6.68-10.36,7.48-22.09,11.26-34.81,12.12a79.7,79.7,0,0,1-43.75-9.3c-13.8-7.38-26.05-16.68-35.83-29.2-4.33-5.55-9.91-10.14-15.31-15.56-3.87,7-6.54,13.52-7.79,20.58-.63,3.62-.05,7.06,3.39,9.16,2.26,1.38,2.2,3.06,1.43,5.19a66.9,66.9,0,0,0-3.81,16.64c-4.54-1.8-9.6-1.91-13.94-4.4-1.12-.64-2.38-.15-3.57.21-5.23,1.56-9.15-.63-12.44-4.47-3-3.56-6.13-7.1-9-10.77-1.06-1.34-2-2.54-3.81-2.78-6-13.23-6.22-26.8-2.22-40.56,1-3.33,2.29-6.54,2.72-10,.36-2.9-.83-3.76-3.53-2.87-1.94.63-3.76,1.64-5.82,1.88-1.48.16-2.93,0-3.78-1.38s-.29-2.78.51-4c1.75-2.69,4.6-4,7.22-5.52,1.23-.72,2.64-1.58,1.85-3.33-.71-1.58-2.28-1.54-3.72-1.32a47.62,47.62,0,0,0-4.69,1.39c-1.8.46-3.76,1-5-1s-.29-4,1.19-5.53c3.3-3.47,7.67-4.43,12.2-5,3.9.41,6.23,3,7.57,6.25,4.3,10.47,5.93,21.05.28,31.63-2,2.54-.39,3.84,1.6,5.35,9,6.79,19.14,8.57,30,7.2,2.62-.33,5.72-.85,6.4-3.79.62-2.66-2.61-3.18-4.14-4.64-.73-.7-1.56-1.3-2.27-2-5.76-5.1-8-11.3-5.83-18.84C313.43,235,314.7,233.45,317.23,234.19Z" style="fill:#ca9355"/><path d="M282.5,160.68l4.79-4.71c1.17-2.72,3.45-2.48,5.76-2.17,9.49-2.07,14.62.17,17.61,11,2.18,7.93,11,13.22,19.16,16.9,3.35,1.51,6.82,2.75,10.05,4.54a3.38,3.38,0,0,1,1.51,3.25c.38,7.62.08,8.27-7.41,10.73-6.6,2.17-13,4.68-18.41,9.16a7.11,7.11,0,0,0-2.82,3.76c-6.74,6.87-10,7-17,.72-2.9-2.64-5.89-5-9.81-6-1.54-.39-3.22-.93-3.36-3-.47-.67,3.19-1,.15-1.89a112.89,112.89,0,0,1-12-4.36c-2.47-1-5.65-2.17-3.85-6.12,2.12-9.66,4.39-19.21,11-27.09C279.35,163.7,281.19,162.46,282.5,160.68Z" style="fill:#f8ad0f"/><path d="M282.85,204.84c7.23.79,12.52,4.82,17.09,10.14,2,2.32,4.51,2.92,6.85.67,1.65-1.6,3.91-2,5.55-3.51,5.49-3.92,11-3,16.57-.2,2.12,2.41.85,4.58-1.27,5.48-7.43,3.16-10.91,9.12-12.71,16.5a7.51,7.51,0,0,1-1.35,2.73c0,1.63.1,3.27,0,4.89-.4,5.6,2.63,9.61,6.11,13.43-.27,2.85-2.33,4.2-4.64,5.08-9.21,3.51-18.26,2.67-27.08-1.42a6.26,6.26,0,0,1-3.92-5c4.64-7.6,4.88-15.65,2.46-24a51.82,51.82,0,0,0-1.64-5.83c-1.35-3.22-3-6.26-7.11-6.65-8.36-3.07-15.33-.64-21.46,5.33a5.85,5.85,0,0,1-4.26,2c-4.21,4.18-8.61,8.1-14.31,10.15-4.22,1.53-5.37.77-6.31-4.11,9.28-2.7,14.82-10.25,21.38-16.45a39.92,39.92,0,0,1,22.77-10.83C278.15,202.89,280.87,202.26,282.85,204.84Z" style="fill:#db7226"/><path d="M252,224.47a34,34,0,0,1,10.08-8.75c5.56-3.19,10.81-3.28,15.64,1.4-2.59,1.11-5.2,2.18-7.77,3.32a8.5,8.5,0,0,0-3.69,3.13,2,2,0,0,0-.2,2.28c.53.85,1.39.61,2.16.28,2.61-1.13,5-2.74,8-2.95,2.74-.2,4.72.32,5.42,3.5.64,2.84.39,4.51-2.88,5.4a15.61,15.61,0,0,0-7.66,4.89c-.65.76-1.54,1.59-.73,2.62s1.86.42,2.8,0c2.44-1,4.81-2.27,7.32-3.08,3.64-1.19,5,0,4.42,3.84a36.51,36.51,0,0,1-2.07,8.9c-5.12,12-4.63,24.2-1.73,36.57.54,2.33,1.6,4.67.6,7.16-2.29.26-3.77-.84-5.17-2.57a71.83,71.83,0,0,0-10-9.92,26.63,26.63,0,0,1-6.32-8.19c-7.14-13.68-11.09-28-8.35-43.58A29,29,0,0,0,252,224.47Z" style="fill:#f0cc99"/><path d="M303.74,115.08a117.18,117.18,0,0,0-14.74,8.4c-.39-11.47.29-22.77,3.6-33.9a72,72,0,0,1,14.28-26.09A53.83,53.83,0,0,1,321,51.14a25.57,25.57,0,0,1,13.38-3.53,67,67,0,0,1-4.49,5c-11.07,10.17-17.27,23.06-21.17,37.32A234.32,234.32,0,0,0,303.74,115.08Z" style="fill:#c68951"/><path d="M282.85,204.84c-12.17-.11-22.63,3.81-30.93,13-2.31,2.55-5,4.78-7.16,7.45-3.53,4.33-7.84,6.2-13.35,5.26.14-9.36,4.11-17.15,9.93-24.17,5.22-6.29,11.62-10.56,19.86-11.86a34,34,0,0,0,5.72-2c.38,3.34,3,4,5.61,4.78,5,1.52,10,3.06,14.35,6.23C285.71,205.37,284.09,204.44,282.85,204.84Z" style="fill:#fcc436"/><path d="M329.46,213.55c-5.56-2.29-11.38-1.36-17.12-1.41-2-.35-1.84-1.44-.59-2.36,5.2-3.84,10.06-8.26,16.63-9.84a63.19,63.19,0,0,0,6.37-2.09c5.63-1.94,5.63-1.95,5.83-8.16a.8.8,0,0,1,1.1.23A4.12,4.12,0,0,0,343,192.5a6.49,6.49,0,0,0,4.59,3.71c11.22,3,16.33,11.64,19.51,21.71a60.82,60.82,0,0,1,3,16.2c1.93,2.48,2.14,4.94-.05,7.39-.27,1.64.16,3.44-1.09,4.87-2.86,2.74-5.65,1.36-8.29-.3-3.35-2.09-5.6-5.27-7.68-8.52-5.2-8.15-11.37-15.3-19.92-20.12A7.77,7.77,0,0,1,329.46,213.55Z" style="fill:#f9c433"/><path d="M370.13,241.51q0-3.69.05-7.39c4,2.06,7.92,4.13,11.9,6.16,20.89,10.64,40.12,7.29,58.07-6.87.8-.63,1.47-1.44,2.32-2a1.89,1.89,0,0,1,1.65-.1,1.45,1.45,0,0,1,.28,2.16,19.93,19.93,0,0,1-2.77,3.24,59.22,59.22,0,0,1-33.77,15.72c-5.33.62-10.53-.81-15.63-2.16a90,90,0,0,1-15.9-6.27C374.32,243,372.44,241.74,370.13,241.51Z" style="fill:#c58e51"/><path d="M329.46,213.55c9.41,3.73,16.58,10.15,22.29,18.4,2.43,3.52,4.53,7.28,7.54,10.4,2.7,2.79,5.7,4.6,9.75,4-1.58,5.17-2.69,5.77-7.14,4a18.7,18.7,0,0,1-8.58-7.47c-4.16-6.24-7.8-12.91-13.79-17.71-4-3.19-7.88-6.57-13.56-5.75a3.79,3.79,0,0,0-2.67,1.23c-.48,2.45-.74,5-3.62,6-2.22,2-2.49,4.7-2.44,7.47l-3.66,2.46c-.2-9.31,4.16-15.78,12.37-19.84A8.14,8.14,0,0,0,329.46,213.55Z" style="fill:#c28137"/><path d="M319.68,226.72c1.39-1.9,1.06-4.84,3.62-6,1.73,1.71,4.19,1.35,6.24,2.22,3.49,1.46,4.47,2.1,7.35,6.55C330.68,227.9,325.3,226.16,319.68,226.72Z" style="fill:#ca9355"/><path d="M312.12,154.48a13.14,13.14,0,0,0,7.43,9c1.72.85,2.95,1.84,3.33,3.9.82,4.45,4,6.79,8,8.28,7.31,1.67,9.52,4.82,8.41,12-4-1.44-8-2.82-12-4.35-3.46-1.33-6.66-3.12-8.61-6.45a7.59,7.59,0,0,0-3.53-3.22c-6.12-2.76-8.17-8.08-8.9-14.21-.59-4.91-.57-5-5.46-5-2.84,0-5.69.08-8.53.12a.72.72,0,0,1,.3-1.11C299.13,152.47,305.76,151.05,312.12,154.48Z" style="fill:#fdcc4e"/><path d="M284,253.58c8.49,6.56,18,7.57,28.16,5.26,2.91-.65,5.11-2.35,7.48-3.87l6.71,4.12c2.28,1.4,2.28,3,.68,5a11.51,11.51,0,0,1-7.79,4.3c-12.12,1.46-23.46-.4-33.15-8.47C284.21,258.33,281.38,256.8,284,253.58Z" style="fill:#b73927"/><path d="M382.26,99c2,.38,3.39,1.55,3.3,3.63a3,3,0,0,1-3.66,3,3.2,3.2,0,0,1-2.95-3.83A3,3,0,0,1,382.26,99Z" style="fill:#d6c1ae"/><path d="M373,106.36l-2.8.83c-2.32.66-3.8-.58-4.73-2.42-1.13-2.23.36-3.68,2-4.9a5.42,5.42,0,0,1,2.08-1c7.22-1.58,13-6.1,19.22-9.59a11.13,11.13,0,0,1,6.66-1.72c1.68.16,3.1.66,3.43,2.53a2.66,2.66,0,0,1-.08,1.36,3.69,3.69,0,0,1-1.88,1.87c-1.49.89-3.41,1.75-5.31,2.75-.41.22-1.11.6-1.14,1.16a1.17,1.17,0,0,0,.41.83c-2.1,3.08-5.83,3.88-8.56,6.09a21.11,21.11,0,0,1-5.22,2.62C375.7,107.06,374.31,107.41,373,106.36Z" style="fill:#c2894e"/><path d="M373,106.36l1.64-.84s.92-.47,1.78-.87c2-.92,4.17-1.8,4.84-2.05l9.33-5.5a11.57,11.57,0,0,1,3.88,6.72c.8,5-2,10.94-7.08,12.41-6.19,1.79-11.67-.74-13.75-6.44A19.41,19.41,0,0,1,373,106.36Z" style="fill:#220702"/><path d="M315.12,95.6a2.73,2.73,0,0,0,1.28-2c0-.68-.58-1.09-1.28-1.72-2-1.79-3.56-3.18-3.52-4.66a3.74,3.74,0,0,1,1.14-2.3c1.92-2.13,4.67-1.56,8,1.58,4,3.69,7.19,8.23,12.42,10.49,1.58.69,3,2,2.67,4.12s-2.23,2.38-4,2.73c-.16,0-.38.14-.7.19a4.16,4.16,0,0,1-1.63,0c-2.12-.73-4.33-1.59-6.6-2.57-.95-.41-1.87-.82-2.76-1.24A6,6,0,0,1,317.09,98C317.17,96.63,315.86,96.34,315.12,95.6Z" style="fill:#c28c52"/><path d="M315.52,94.78c.23-.39.48-.75.48-.75a6,6,0,0,1,.51-.56,76.35,76.35,0,0,1,8.27,6.13c1.75,1.48,3.33,3,4.75,4.4l-.34.47c-4,5.29-8.79,6.71-12.88,3.86C312.52,105.69,313.13,98.8,315.52,94.78Z" style="fill:#220702"/><path d="M313.19,151.14c-2.89-2-5.88-3.87-8.64-6a19.28,19.28,0,0,1-6.3-8.33c-2.41-6.3.1-11.35,6.69-13a43.89,43.89,0,0,1,16.9-.4c3.07.44,6.23.52,9,2.23,4.44,2.71,5.67,6,3.86,10.94s-5.53,8.45-10.11,11c-2.57,1.39-5.26,2.57-7.89,3.84C315.48,152.52,314.23,153.64,313.19,151.14Z" style="fill:#220702"/><path d="M351.05,178.85c-2.4-3.6-2.42-5.36-3.86-7.39-2-2.79-4.94-3.63-10-5.07A66.24,66.24,0,0,0,322.33,164a9.35,9.35,0,0,1-2.36-.34c-3.87-1.09-6.67-4.67-6.12-5.61.13-.23.37-.11.95-.46a5.54,5.54,0,0,0,1.71-1.67,5,5,0,0,0,1.88,2.09,4.62,4.62,0,0,0,1.94.62c6.56.73,19.43,2.17,23.63,4.07a3,3,0,0,0,2.42.25c.56-.28.93-1,1.24-2.16,1.23-4.81,3.63-8.91,9.21-11.14-.27,2.78-1.83,4.39-2.54,6.31-2.52,6.79-2.57,13.42,1,19.88,1,1.72,1.92,3.42,2.87,5.13.48.85,1.15,1.78.34,2.67-1.05,1.17-2.11.32-3.13-.24-.34-.19-.69-.36-1-.53A29.69,29.69,0,0,1,351.05,178.85Z" style="fill:#220702"/><path d="M316.89,158l-3,0a18.24,18.24,0,0,1-.66-6.93c1.16.45,2.31.93,3.54.19C316.78,153.56,316.84,155.8,316.89,158Z" style="fill:#220702"/><path d="M380.86,102.77a3,3,0,0,1,2,2.93,2.76,2.76,0,0,1-1.14,1.59,3.26,3.26,0,0,1-1.8.63,3.37,3.37,0,0,1-3.31-2.7,2,2,0,0,1,.07-.73l2.13-.9Z" style="fill:#f2dac7"/><path d="M321.14,97.93c.63,2.13-.29,3.33-2.33,3.77a1.84,1.84,0,0,1-2.07-.66c-1.14-1.75-.69-3.26.85-4.54a2.9,2.9,0,0,1,2.21.09A2.86,2.86,0,0,1,321.14,97.93Z" style="fill:#e1c6b2"/><path d="M295.23,367a15.89,15.89,0,0,1-1.29-7.16,11.89,11.89,0,0,1,1.43-5.46c1.09-1.93,2.48-2.93,4.5-4.38a30,30,0,0,1,7.44-3.79c1.53-.57,2.83-1,3.77-1.21l.08,0c1.16-.63,3.12-1.74,5.43-3.31a62.31,62.31,0,0,0,6.87-5.43c9.25-8.34,16-14.39,24-17.93,2.94-1.29,13.41-5.51,25.72-2.61a37.71,37.71,0,0,1,13.32,6.17c7,5,9.44,12.56,10.83,20.6.62,13.87-6.95,23.09-17.61,30.33a59.19,59.19,0,0,1-14.4,7.09c-15.73,5.51-31.6,6.51-47.69,1.67-7-2.1-12.92-6-18.48-10.54-.33-.26-.9-2.23-2.74-3.42A6.84,6.84,0,0,0,295.23,367Z" style="fill:#f9af15"/><path d="M362.83,320.78c3.48.23,8.37-.77,8.62,4.18.24,4.78-5,3.5-7.73,3.89-4.29.6-8.5,1.43-12.72,2.34-1.83.39-4,.52-4.95-1.72-.83-2,.88-3.27,2.19-4.29A20.48,20.48,0,0,1,362.83,320.78Z" style="fill:#fcd462"/><path d="M342.37,334.63c-.32,2.46-2.16,3.42-4.29,3.71-1.91.26-2.9-1.07-2.83-2.87a3.92,3.92,0,0,1,3.87-4.07C341.21,331.23,342.28,332.47,342.37,334.63Z" style="fill:#fcd254"/></g></g></svg>