<svg xmlns="http://www.w3.org/2000/svg" viewBox="0 0 800 450.21"><g id="Capa_2" data-name="Capa 2"><g id="DiseñosMascotas"><rect width="800" height="353" style="fill:#203d62"/><path d="M525.05,263.33a54.17,54.17,0,0,1,9.87,21.46c1.09,5.1,2.15,10.81-4.88,13.28-1.66.58-1.46,2-.76,3.29,1.38,2.51,2.8,5,4.2,7.5-3.91,2.55-7.35.07-10.7-1.28-5.14-2.08-10-2.76-15.5-.95-6.59,2.17-8,1.32-10.13-5.31-1.06-3.32-3.68-3.75-6.11-4.35a371.13,371.13,0,0,0-49.34-8.28c-20.43-2.22-40.93-1.07-61.4-1.47-13-.26-25.74,1.69-38.59,2.77-9.36.8-11.29-2.2-7.37-10.9.92-2,2-4,3-6a171.57,171.57,0,0,0,10.79-19.57c5.78-2.26,9.34,1.34,12.44,5.15,7.76,9.55,17.91,12.52,29.67,11.45a25.26,25.26,0,0,0,11.17-4c2.93-1.83,4.49-4.17,3.85-7.73-.7-3.9-3.49-4.76-6.87-4.8-3.34-1.08-5.44-3.8-7.79-6.12-3.2-3.16-6.35-3.6-10.06-.81-2.44,1.84-4.8,4.08-8.24,4a46.64,46.64,0,0,1-22.85-4.7,7.34,7.34,0,0,1-2.73-3.63c-6.25-14.48-14-18.14-29.31-13.81-1.51.42-2.93.95-4.52.6a2.53,2.53,0,0,1-.62-.31,3.13,3.13,0,0,1-.94-1.12c-1.11-2.2-.58-5.7-.58-5.7.43-2.86,1.49-5.68,1.17-8.57a5.75,5.75,0,0,1,.43-2.62c12-22.83,9.51-46.93,6.14-71.06-2.2-15.73-3.2-31.39.66-47a96.35,96.35,0,0,1,12.62-28.55c1.83-2.89,4-5.37,7.42-6.32,6.27-3.77,12.15-8.21,19-11,34.33-14.05,68.74-14.09,103.19-.52,7.08,2.78,13.42,6.9,19.55,11.33,3.76,1.29,6.31,3.91,8.41,7.21,8.82,13.83,13.21,29,14.16,45.28.84,14.3-1.3,28.37-3.14,42.47A122.49,122.49,0,0,0,502.39,195c.79,3.6,1.45,7,6.55,7.94,4.28.75,3.58,5.63-1.38,10.22a7.4,7.4,0,0,0-6.57,3.73c-6.56,10.34-8,21.07-2.37,32.25,1.9,3.77,4.06,7.42,6.22,11,5.75,9.64,8.09,19.64,3.86,30.57-.73,1.87-2.37,4.28.44,5.9s5.05,0,6.84-2.22a30.19,30.19,0,0,0,6.82-19.74C522.79,270.81,521.58,266.55,525.05,263.33Z" style="fill:#e6b978"/><path d="M506.62,212.64a56.3,56.3,0,0,1-2.57-5.3c-.5-1.18-.85-2.1-1.13-2.88-1.54-4.14-3-8.07-3.1-8.79C497,181,496,166.3,498,151.32c1.64-12.06,3.44-24.13,3.19-36.45-.46-21.44-6.54-40.64-20.3-57.25,11.22-.72,20.15,4.39,28.35,11.23a44.38,44.38,0,0,1,5.2,5.15c12.17,14.19,25.47,27.27,38.95,40.17,13,12.45,14.69,27.17,9.06,43.46-3.63,10.51-10.36,19-17.4,27.39-2.72,3.22-5.39,6.5-7.85,9.93-4.55,6.34-6,13.72-6.77,21.32-.89,8.27-5.49,10.53-12.92,6.75-3.59-1.82-5.81-5.34-9.13-7.48Z" style="fill:#c38b4e"/><path d="M339.18,57.82c-10.48,13.42-17.4,28.47-19.58,45.36a104.72,104.72,0,0,0,0,26.65c1.42,11.21,2.74,22.41,3.81,33.67a103.32,103.32,0,0,1-1.52,27.68,58.06,58.06,0,0,1-5,15.14c-1.14,2.4-2.74,4.62-3,7.39-.88,1-1.57,2.25-3.23,1.83-13.79-16.79-28.11-33.42-19.37-57.91-5.27,7-9.11,14.39-10.18,23.05-.09.68-1.46,2.26-1.25,4.37a6.83,6.83,0,0,0,2.13,4.1c-1.17-1-17.4-15.71-23.18-29.65a56,56,0,0,1-3.54-12.83c-2-11.55,2.15-21.42,9.6-30a82.53,82.53,0,0,1,8.37-8.56c12.31-10.62,22.95-22.83,34-34.69,6.74-7.26,14.69-12.82,24.59-15.11A17.21,17.21,0,0,1,339.18,57.82Z" style="fill:#c38b4e"/><path d="M506.62,212.64c-.45,3-.95,6.07.68,8.93a101.36,101.36,0,0,0,13.14,33c1.74,2.79,3.08,5.83,4.61,8.75,0,4.23-.17,8.46,0,12.67.41,8.6-3.47,15.47-8.61,21.78-2.61,3.22-8.92,3-11.78-.13-1.09-1.18-.84-2.4-.13-3.66,6.5-11.5,4.93-22.47-2.06-33.17-2.06-3.15-3.78-6.53-5.62-9.82-7.43-13.32-4.36-27.28,4.59-39.22C503.62,208.91,505.18,210.64,506.62,212.64Z" style="fill:#eccba1"/><path d="M279.05,180.81c.27-3.65,3.84-17.48,12.77-27.11.72-.77,1.44-1.72,2.8-1.39,1.14,2.33-.33,4.34-1,6.33-5.14,14.72-2.22,27.94,7.14,40,.66.86,1.73,2.18,3.26,4.35a86.49,86.49,0,0,1,6.27,10.42,12.35,12.35,0,0,1,1.66,2.1c3.9,6.22.85,13.89.67,14.31-3.61,8.28-13.62,10.27-14.94,10.52a91.7,91.7,0,0,0-8-27.84c-3.22-6.67-9.07-12.38-10.48-22.89A39.91,39.91,0,0,1,279.05,180.81Z" style="fill:#d8b28b"/><path d="M288.49,298.14a9,9,0,0,0-.18,1c-2.64,3.83-6.52,4.35-10.72,4-2.09.33-3.88,1.82-6.12,1.62,0-.76.11-1.53.16-2.29s.1-1.51.2-2.27l.84-7.25c1.3-20.88,10.16-38.17,25-52.63,4.12-2.9,7.25-7.47,13-7.67,4,1.19,3.24,4.27,2.65,7.1-.88,4.24-3.26,7.8-5.92,11.1-9.85,12.23-17.43,25.33-16.66,41.8A7.23,7.23,0,0,1,288.49,298.14Z" style="fill:#f5e4d1"/><path d="M309.78,233.89,305,240.44l-13.16-1.36c-4-.92-6.87-1.47-8.85-1.81-.2,0-1.31-.34-2.79-.74-2.71-.74-5.11-2.08-4.82-5.33a4.3,4.3,0,0,1,.79-2.23c1.29-1.76,3.91-2,4.95-2.13,3.89-.34,15.94.6,31.88,2.63a1.59,1.59,0,0,1,.84.33,1.79,1.79,0,0,1,.51,1.8C313.8,234.28,311,232.48,309.78,233.89Z" style="fill:#b9bac1"/><path d="M391.49,239.51c-15.67-2.52-30.09-7.91-41.42-19.45-14.23-14.5-15.4-33.8-4.57-50.82,9.74-15.29,24.18-24.66,41.53-29.4,25.72-7,50-3.86,71.69,12.1,11.57,8.48,20.37,19.23,22.62,34.13,2.38,15.78-3.23,28.64-15.25,38.35-13.24,10.69-29.07,15.18-45.89,16-7.78.37-15.58,0-23.38,0C395.19,239.3,393.16,240.4,391.49,239.51Z" style="fill:#efebe1"/><path d="M398.05,252.6c4.39-1.24,6.32-.65,8.33,2.55s1.43,8.38-1.27,11c-3.94,3.87-8.94,5.68-14.26,6.41-8.36,1.14-16.2-.75-23.65-4.63a17.31,17.31,0,0,1-7.34-6.52c-2.53-4.45-6.29-6.63-11.07-7.54a11.27,11.27,0,0,1-1.51-11.39c3.66,1.42,6.87,2.49,9.48,3.29,5.44,1.68,10.16,2.77,12.26,2.09a2.44,2.44,0,0,1,1.33-.12,4,4,0,0,1,2.38,2.18c-.08.3-.17.6-.26.9-4.35,5.44-3.54,8.34,2.84,10.4,6.66,2.15,13.5,1.47,20.27,1.17,2.25-.1,4.87-1.25,5.73-3.83.63-1.88-1.4-2.45-2.54-3.39Z" style="fill:#b7b0a8"/><path d="M365.34,133.46A12.39,12.39,0,0,1,353,120.64a12.57,12.57,0,0,1,13-12.23c6.91.18,11.67,5.48,11.44,12.76S372.11,133.55,365.34,133.46Z" style="fill:#270a03"/><path d="M443.22,121.45c-.07-7.7,4.83-13,12-13,6.89,0,12.05,5.22,12.09,12.3s-5,12.52-11.8,12.72A11.71,11.71,0,0,1,443.22,121.45Z" style="fill:#290a02"/><path d="M348.72,250.12c0,1.6,0,2.92.07,3.77-1.06,7.29-4.75,13.27-9.35,18.8a19.16,19.16,0,0,0-2.57,3.76,15.31,15.31,0,0,0-.95,2.42,71.26,71.26,0,0,0-2.09,10.05l-6.22.51a122.26,122.26,0,0,1,6.55-17.77c1.38-3,2.81-5.8,4.26-8.39A24.56,24.56,0,0,0,342.31,250c0-2.55-.3-4.67-3.76-2.86-1.8.94-3.89,1.71-5.26-.64-1.17-2-.14-3.83,1-5.58.89-1.41,3.34-2.8,2-4.43-1.83-2.18-4-.06-6,.78-.82.35.22-.05-.58.33-2.5,1.18-5.16,4.13-7.76,1.42s.34-5.26,1.73-7.74a12.4,12.4,0,0,1-5,1.21,12.18,12.18,0,0,1-4.8-.86,5.35,5.35,0,0,1-1.21-1.78,4.94,4.94,0,0,1-.33-1.07,28.39,28.39,0,0,1,17.24-4.09,25.32,25.32,0,0,1,7.32,1.94,19.76,19.76,0,0,1,9,7.1,18.1,18.1,0,0,1,2.76,7.72C348.85,243.4,348.65,244.38,348.72,250.12Z" style="fill:#c18e58"/><path d="M398.05,252.6l1,1.29c2.84,3.43.81,5.79-2,7.58-5,3.24-20.81.91-25.48-3.52a7.82,7.82,0,0,1-.36-5.95,8.83,8.83,0,0,1,1.29-2l.17-.05c2.79-2.13,5.53-4.33,8.38-6.38,3.33-2.39,5.9-2.38,8.85.39S395.94,249.17,398.05,252.6Z" style="fill:#ecd381"/><path d="M391.49,239.51c1.87-.22,3.74-.41,5.33,1C395,240.53,393.07,240.94,391.49,239.51Z" style="fill:#ecd381"/><path d="M313.54,231.69c4.95-.89,9.52-3.9,15.37-2.6-1.49,3-5,3.88-6.1,6.81-.31.84-.78,1.66,0,2.43s1.61.37,2.35-.18c1.59-1.2,3.11-2.52,4.78-3.61,5.24-3.4,7.35-2.87,11.35,2.79-1.91,2.1-4.87,3.06-6.47,5.54-.75,1.15-1.5,2.46-.31,3.57s1.95-.22,2.81-.82c1.88-1.3,3.15-4.63,5.92-3.13,2.46,1.33,1.27,4.43,1.41,6.76A25.21,25.21,0,0,1,340,264.92c-1.34,2-2.54,4.14-3.8,6.21-2.82,4.73-5.69,9.45-6.55,15a4.06,4.06,0,0,1-3.79,3.84c-12.61,2-24.92,5.44-37.38,8.17.2-6-.45-11.91.7-17.88,2.26-11.74,8.71-21.16,15.9-30.23,3.2-4,6-8.2,6.74-13.47.26-1.85-.6-2.37-2.05-2.67C310.62,232.44,312.45,232.7,313.54,231.69Z" style="fill:#f0d9b6"/><path d="M292.49,316.81l-8.06-7a29.1,29.1,0,0,0-6.84-6.63c3.43-1.71,6.88-3.39,10.72-4,1.39,3,.88,6.56,2.61,9.49a17.66,17.66,0,0,0,4.4,7.89Z" style="fill:#c49075"/><path d="M410,211.63c-5.89,6-12.92,10.58-21.45,12.3-13.49,2.72-25.22-.33-34.2-11.25a25,25,0,0,1-5.89-15.3c-.07-2,.57-3.56,2.82-3.77,1.89-.18,3.62.2,4.3,2.28.42,1.26.59,2.6,1,3.87,3.1,9.81,9.57,16,19.86,17.35,9.5,1.24,18.09-1.24,25.21-8a13.07,13.07,0,0,0,4.2-6.67c.94-4.22.19-5.92-3.77-7.91-6.32-3.18-11.63-7.4-14.86-13.85-4.14-8.26-1.57-15.11,7.22-17.95a51.53,51.53,0,0,1,32.18-.1c8.61,2.76,11.08,9.3,7,17.39a30.35,30.35,0,0,1-14,13.77c-5,2.44-5.92,5-4.1,10.07a13,13,0,0,0,3.24,5c8,7.77,17.7,10.16,28.32,7.64,9.53-2.26,15.13-8.85,17.26-18.38.14-.65.24-1.31.41-2,.66-2.41,2.46-3,4.65-2.72,2.64.33,3,2.15,2.74,4.4a29.07,29.07,0,0,1-10.46,19.5c-12.76,10.6-33.46,9.77-46.7-1.87C413.47,214.23,412.43,212.4,410,211.63Z" style="fill:#260901"/><path d="M372.56,250v1.21a5.63,5.63,0,0,0,.05,5.43c2.05,3.14,5.47,3.5,8.65,3.86a72.62,72.62,0,0,0,11.14.19c5.06-.21,5.8-1.1,6.67-6.79,3,.22,5.29,1.76,5.31,4.81,0,2.77-2.37,4.13-4.86,4.72-9.24,2.18-18.44,2.05-27.41-1.24-2.8-1-5-3-4.83-6.45S369.25,250.48,372.56,250Z" style="fill:#b99956"/><path d="M368.14,112.56c2.23.42,3.67,1.56,3.64,4a3.81,3.81,0,0,1-4.39,3.82c-2.44-.35-3.36-2-3.23-4.24C364.29,113.74,365.91,112.72,368.14,112.56Z" style="fill:#e5c9b6"/><path d="M452.51,120.47a4,4,0,0,1-3.82-4.41,3.64,3.64,0,0,1,4.05-3.44,3.75,3.75,0,0,1,3.87,3.69A4,4,0,0,1,452.51,120.47Z" style="fill:#d5b9a9"/><path d="M0,352.74,800,353v97.21H0Z" style="fill:#102a4d"/><path d="M280.1,381.31c-5.8-8.89-11-18.06-14.7-28.09-1.57-4.3-6.27-4.18-9.7-5.82-4-3.15-9.18-4.36-13.13-7.72-4.42-3.77-7.07-8.1-5.85-14.12a2.32,2.32,0,0,1,2.05.89c3.07,4,7.18,6.44,11.91,8.07,4.31,1.49,8.6,3.07,13,4.38a29.15,29.15,0,0,1,9.08,4.2c13.5,10,29.06,15.14,45.13,19,20.77,5,41.84,7.52,63.21,8.57a404.18,404.18,0,0,0,76.42-3.85,228,228,0,0,0,27.66-5.9c2.88-.78,5.81-2,8.93-1,1.38,1.85.35,3.5-.54,5.06-10.47,18.31-25.31,31.59-44.94,39.62a155.49,155.49,0,0,1-50,11.16c-32.56,2-63.88-2.79-94.07-15.07a68.27,68.27,0,0,1-15.25-8.62C285.84,388.86,281.65,386.2,280.1,381.31Z" style="fill:#9b582b"/><path d="M280.1,381.31a55.28,55.28,0,0,0,9.34,10c13.83,11.12,28.85,20.19,45.75,25.8a166.78,166.78,0,0,0,30.57,6.71c11.57,1.56,23.19,2.92,34.83,2.54,24.59-.82,49.07-2.84,72.05-12.77,13.58-5.88,26.4-13,36.61-24.11,2.27-2.47,4.09-5.79,8-6.43.95,1.19,0,2-.63,2.77-1.88,2.18-3.7,4.43-5.71,6.49-5,5.1-5,5.07.72,9.09,6.44,4.51,8.63,9.1,6,14.44-1.8,3.68-5,6.36-8.79,8.32-14.58,7.61-30.39,11-46.41,13.72-28.11,4.76-56.48,5.44-84.83,4.34a310.89,310.89,0,0,1-42.83-4.56,229.25,229.25,0,0,1-32.56-8.12c-7-2.35-13.95-5.35-19-11.17-4.31-5-4.07-8.88.55-13.58a30.42,30.42,0,0,1,3.34-3.09c6-4.5,6.05-4.47.62-9.91-1.94-1.93-3.94-3.82-5.78-5.84C280.73,384.68,279.09,383.47,280.1,381.31Z" style="fill:#0a1c39"/><path d="M517.2,383c-20.45,24.25-47.37,36.21-78,41.21a232.52,232.52,0,0,1-44,3.34c-28.12-.79-55.72-4.55-81-18-9.12-4.85-17.93-10.26-24.77-18.27l14.64,8.18c6.52,3.92,13,8.06,20.12,10.66,12.49,4.56,25,8.82,38.32,11,15.74,2.63,31.47,2.69,47.23,2.28a223.67,223.67,0,0,0,29-2.54,116.13,116.13,0,0,0,20.65-5.24c7.6-2.67,15.35-5.08,22.4-9.5,5-3.11,10.05-6,15-9.18,8.94-5.66,14.89-13.76,20.92-21.92a56.6,56.6,0,0,0,9.57-18.56,14.8,14.8,0,0,1,6.17-8.26,57.23,57.23,0,0,1,12.35-6.82c5-1.87,9.24-4.58,12-9.31.64-1.1,1.21-2.6,3-2.11-.1,4.63-2.38,8-6.15,10.47a98.62,98.62,0,0,1-15.33,7.8c-3.74,1.62-7,3.57-7.24,8.24C527.54,365.56,523.46,374.92,517.2,383Z" style="fill:#7e4b32"/><path d="M516.66,393.18a14.2,14.2,0,0,1-6.21,3.16C511.57,393,513.67,393.09,516.66,393.18Z" style="fill:#102a4d"/><path d="M237.51,326.52c2.81-11,10.77-15.74,21.2-17.53,8.83-1.52,17.18-4.06,25.05-8.76,7.4-4.42,7.74-3.86,13,1.44-1,1.76-3,1.95-4.57,2.68-6,2.7-11.51,6-15.62,11.23-3.54,4.53-4,9.65-1.45,13.72,5.81,8.23,14.39,12.56,23.42,15.89,18.79,6.94,38.4,10.37,58.26,12.5a396.41,396.41,0,0,0,55.55,1.76c27.85-.94,55.5-3.73,82.21-12.42a98.62,98.62,0,0,0,17.93-7.86,28.75,28.75,0,0,0,10.57-9.83c2.86-4.42,2.73-8.69-.68-13-6.63-8.4-15.9-12.49-25.83-15.42-1.34-.4-2.7.06-4.05.36s-3.25.94-4.08-.79c-.91-1.9.47-3.09,2.06-4l2.7-5.82,11.3,3.66a50.92,50.92,0,0,1,14.06,6.21c6.21,3.85,13,5.48,20,6.78,5.81,1.08,11.67,2.27,16.35,6.33,3.3,2.87,5.79,6.21,6,10.81s-2.88,7.44-6.37,9.72c-5.94,3.9-12.87,5.44-19.43,7.84a40.18,40.18,0,0,0-9.3,4.74,112.76,112.76,0,0,1-26,13.12c-1.8.67-3.68,1.69-5.66.4-17,4.46-34.05,8.36-51.61,10.07-17.23,1.68-34.49,3-51.75,2.44-26.21-.8-52.26-3.26-77.7-10.29-14.86-4.11-29.1-9.19-41.73-18.48-6.38-4.69-14.77-5.3-22.05-8.32C244.47,333.75,239.63,331.91,237.51,326.52Z" style="fill:#c47a47"/><path d="M494.14,360.32a129.82,129.82,0,0,0,33.74-16.6c6-4.11,13.56-5.07,20.3-7.78,5.65-2.27,10.59-5.3,12.75-11.44,1.33,1.84.18,3.68,0,5.52-3.53,8.76-11.62,11.68-19.32,15.14-7,3.16-12.07,7.69-14.33,15.76-2.16,7.67-7.34,14-12.36,20.36-3.18,4-5.83,8.58-10.06,11.43-6.87,4.61-12.13,11.66-20.87,13.53-2,.44-3.53,3-5.57,3.75-8.23,3.07-16.34,6.37-24.77,9-16.53,5.23-33.51,5.48-50.4,6.37a185.24,185.24,0,0,1-34.91-1.56,161.63,161.63,0,0,1-24.11-5.34c-12.57-3.75-24.72-8.09-35.88-15a11.27,11.27,0,0,1-4.25-4c7.4,1.65,14.34,4.74,21.55,7,10,3.15,20.33,4.89,30.58,6.47a193.83,193.83,0,0,0,31.22,1.95c22.42-.2,44.38-3.69,64.83-13.35,15.5-7.31,28.3-18.05,37.2-33C491.07,365.86,493.49,363.58,494.14,360.32Z" style="fill:#8a4926"/><path d="M493.21,290.71a9.33,9.33,0,0,1-3,5.58c-1.88,1.7-4,1-6.05.52-21.28-5.44-42.95-7.77-64.85-9.15-21.34-1.34-36.77-1.9-67.7,2.58-15.31,2.21-18.79,4-54.85,11.43-16.77,3.44-23.56,4.63-23.86,3.66-.44-1.48,14.47-7.14,16.41-7.89,53.43-20.64,116.16-19.28,116.16-19.28,2.74.15,7,.39,12.8.76,42.82,2.81,58.49,6.73,71.91,10.75C491.22,290,492.21,290.36,493.21,290.71Z" style="fill:#c47a47"/><path d="M524.49,329c-.73,4.76-4.51,7.12-8,9.45-10.86,7.35-23.2,11.17-35.79,14.2-18.62,4.49-37.55,6.55-56.66,7.77-13.85.89-27.68,1-41.48.57-28.6-.92-56.85-4.41-84-14A64.26,64.26,0,0,1,277,334.43a8.82,8.82,0,0,1-3.21-5.37c-1.23-2-.09-3.59,1.1-4.92,7.37-8.2,16.91-12.68,27.3-15.65A2.34,2.34,0,0,1,304,309l2.07-1a4.45,4.45,0,0,1,2.53-1.84c11.51-3.45,23.11-6.48,35.2-7.07a3.35,3.35,0,0,1,2.84,2.61c.61,3.55,3.11,4,6.05,4.07,5.73.07,11.46.06,17.15-1.5-.31-2.65-4.22-3.34-3.4-6,.54-1.79,2.9-1.89,4.63-2.43,12.84.07,25.64-2.35,38.5-.73,2.13.77,1.65,1.95.68,3.47-2.05,3.24-5,5.67-7.52,8.46s-2.32,3.67,1.25,4.49c6.57,1.51,12.81,4.8,19.86,3.93,5.35-.21,10.5-1.49,15.64-2.78,3.9-1,4.6-2.48,3.44-6.35-.26-.87-.66-1.69-1-2.54-1.86-4.76-1.57-5.27,3.45-6.26,8.54.82,17.15,1.19,25.32,4.2,2.16,3.21-.83,3.84-2.6,4.76-5.76,3-11.61,5.77-17.3,8.89-1.87,1-3.68,2.08-4.63,4.12-.17.38-.37.76-.57,1.13-1.91,3.05-1.72,5.74,1.39,7.92A122.15,122.15,0,0,0,467,335.57c7.07,2.78,13.66-.39,20.34-1.79,2-.43,4-1.39,6.05-1.79,7.15-1.38,9.28-5.7,6.26-12.52-1.19-2.7-3.42-5.12-2.33-8.45,1.36-1.54,3.07-1.17,4.63-.61A52,52,0,0,1,522.3,323C523.84,324.6,525.61,326.32,524.49,329Z" style="fill:#dabd71"/><path d="M344.39,300.2c-13.06,1.24-25.64,4.87-38.37,7.8L304,309q-3.58-3.65-7.16-7.28c2.72-.74,6.69-1.8,11.49-3,15.1-3.9,32.83-8.09,42.27-9.91,24.26-4.69,45.88-3.74,58-3.31,26.2.92,52.25,3.25,77.68,10.19a38,38,0,0,0,4,.69c.06.3.12.6.19.91-.33,1.08-2.16,1.83-1.18,3.1.78,1,2,.1,2.91-.38,2.38-1.3,4.56-.71,7,.14,9.14,3.22,17.68,7.28,24.15,14.85,4,4.71,4.62,10.32,1.2,14.07-1.9-5.34-6.32-8.26-10.73-11.18a45.88,45.88,0,0,0-16-7c-3.5.58-5.52-1.66-7.41-4a13.21,13.21,0,0,0-15.44-3.93c-1.27.54-2.51,1.1-3.78,0a191.22,191.22,0,0,0-26.3-4c-6.26,1.49-9.36-4.25-14.14-6.16-4.79-2.31-9.26-1.53-13.66,1.19-1.85,1.13-3.48,3-6,2.48-13.79-.13-27.56.45-41.33,1.05-3.49.58-6.63.37-9.74-1.94-4.2-3.13-6.06-2.65-9.8,1C348.48,298.17,347.48,300.86,344.39,300.2Z" style="fill:#925026"/><path d="M304,309c-7.84,2.86-15.64,5.82-22.4,10.88-3.28,2.45-6.47,5.05-7.72,9.23-2.47-2.72-2.61-8.25.17-12.28a36.46,36.46,0,0,1,22.79-15.11C299.35,303.93,302,306.05,304,309Z" style="fill:#925228"/><path d="M471.12,302.9c.45-.06,1.1.05,1.32-.2,4.6-5.31,9.71-1.85,14.67-.92a3.7,3.7,0,0,1,2.93,1.94c1.36,3.76,4.62,5.29,7.71,7.08a20.41,20.41,0,0,0,3.1,7.49c2.37,3.41,1.84,7.26.87,10.95-1.12,4.23-5.21,3.54-8.24,4.4-5,1.42-10.09,2.56-15.13,3.85-4,1-8,1.84-11.71-.95a13.19,13.19,0,0,1-6.39-7.71c-1.62-4.53-5.06-6.1-9.89-5.55-2.67.31-4.79-.38-5.61-3.27-.26-3.05,1.95-4.16,4.15-5.28,6.7-3.44,13.2-7.26,20.19-10.12A8.75,8.75,0,0,0,471.12,302.9Z" style="fill:#f8bf20"/><path d="M411,296.44c3.15-2.37,6.39-4.66,10.16-5.9a11.13,11.13,0,0,1,10,1.07c8.1,7.8,4.27,20.88-7.27,24.83a8,8,0,0,1-5.7.37c-5.35-1.52-10.77-2.78-16.13-4.24-4.07-1.12-4.43-2.42-1.58-5.37C403.94,303.59,407.47,300,411,296.44Z" style="fill:#f4e28d"/><path d="M363.07,352.06c-13.27.26-24.09-3.38-32.5-13.09-2-2.36-4.14-4.73-7.63-5.45-2.43-.5-1.6-2.46-.57-3.9,2.19-3.07,6.47-3.42,10.55-.37,8,6,16.91,10.62,26.54,11,7.1.31,12.5,3.66,18.7,5.49,1.1.33,2.74.7,2.8,2,.09,1.74-1.81,1.83-3,2.23A38.38,38.38,0,0,1,363.07,352.06Z" style="fill:#f9e2c4"/><path d="M317.78,321.64c-3,.21-6,.35-9.06.68-1.24.13-2.5.49-3.28-.76-.92-1.49.13-2.61,1.1-3.57,11.76-11.56,23-13.78,36.48-4.15a57.18,57.18,0,0,0,11.72,6.88c5.41,2.18,10.76,3.07,16.21.1,1.94-1.05,4.74-1.87,5.52.56.65,2,1.47,5.25-3.15,6.12-10.86,2-21.13.44-31.1-3.68-5.31-2.2-10.41-3.75-16.26-2.12-2.53.71-5.43.12-8.16.12Z" style="fill:#f9e2be"/><path d="M416.52,348.39a51.48,51.48,0,0,0,4.55-7.28c5.56-9.51,18.52-7.59,24.15-1.84,2.66,2.7,7.22,4.77,5.1,10,0,1.88-1.32,2.59-2.75,3.19-9,3.79-18.33,3.59-27.61,1.27C417.71,353.19,414.62,352.12,416.52,348.39Z" style="fill:#c88648"/><path d="M418.21,327.2c-4.13,3.3-8.33,6.13-14,6.34-3.22.12-6.16,2.26-8,4.76-4,5.27-8.82,5-14.14,3.2-1.93-.67-4.94-.39-5.44-2.58-.57-2.54,2.2-3.71,4.1-4.81,10.56-6.11,20.64-13.61,33.91-12.19C417,322.84,419.59,323.68,418.21,327.2Z" style="fill:#f9e2c3"/><path d="M344.39,300.2c2.56-.33,3-2.86,4.37-4.36,4.41-4.75,7.15-5.33,12.13-1.4a13.29,13.29,0,0,0,8.76,3.05l-2.8,1,6.47,6c-3.94,2.48-8.32,1.83-12.35,2.63a21.52,21.52,0,0,1-4.1.09C347.7,307.28,347.7,307.28,344.39,300.2Z" style="fill:#f58d2e"/><path d="M399.58,319.26c-6.24,2.79-12,2.82-16.69-.26-6.74-4.46-13.74-3.92-21-3.37-1.11.08-2.61,1.19-3.15-.48-.43-1.31,1-2.21,2-2.74,5.94-3.24,12.17-4.41,18.87-2.67C386.6,311.57,392.34,315.83,399.58,319.26Z" style="fill:#f9e0ba"/><path d="M423.87,316.44c6.12-4.15,10.81-9,10-17.28-.28-2.84-1.74-5.07-2.74-7.54a6.12,6.12,0,0,1,3.94,1.92,15.55,15.55,0,0,0,9.74,5.39c-2.28,0-3.79,0-2.25,3.19,4.65,9.64,4.19,10.29-6.39,12.73C432.12,315.78,428.12,317,423.87,316.44Z" style="fill:#c49552"/><path d="M442.79,331.67c19.21,11.51,50.93,9.68,64.41,0a9.09,9.09,0,0,1-6.47,7.23c-16.72,5-33.48,7.64-50.07-.63A34.59,34.59,0,0,1,442.79,331.67Z" style="fill:#efdd99"/><path d="M444.75,320c2.23,1.45,4,3,7.27,1.29,3.62-1.9,5.74,1.95,7.67,4.21,2.81,3.31,3.86,7.82,6.95,11-7.34-1.53-14.58-3.36-21-7.48-1.32-2.93-2.53-5.86-.87-9.08Z" style="fill:#d1981c"/><path d="M299.44,329.19c3.59-2.55,7.62-2.56,11.7-1.82s5.91,3.74,6.34,7.34c.4,3.34-2.83,3.23-5,4-2.47.88-4.87,1.62-7.43.48C299.74,336.27,298.33,333.73,299.44,329.19Z" style="fill:#efbb60"/><path d="M416.52,348.39c-.41,2.44,1.32,3.31,3.11,3.73,10.53,2.49,20.94,3.36,30.68-2.82,3,1.05.84,2.29-.06,3a17.26,17.26,0,0,1-8.27,3.47,58.83,58.83,0,0,1-22.13-.21,7.49,7.49,0,0,1-5.5-3.7C413.45,350.13,412.6,347.56,416.52,348.39Z" style="fill:#f7da9a"/><path d="M418.21,327.2c-.32-2.36-2.09-3.73-3.6-5.28,9.74-.07,19.59.7,28.83-3.93-3.62,4.7-8.06,7.35-14,7.6C425.67,325.75,421.55,324,418.21,327.2Z" style="fill:#f0dc9d"/><path d="M319.22,348.4c-1-.19-2.61-.41-4.2-.82-2-.52-3.31-1.79-2.62-4,.75-2.38,2.93-2.15,4.55-1.49,2.18.89,4,2.66,6.5,2.92a1.5,1.5,0,0,1,1.21,1.69c-.1.89-.86,1.23-1.59,1.35C322,348.26,321,348.27,319.22,348.4Z" style="fill:#768030"/><path d="M299.44,329.19c.19,4.27,3.3,6.91,5.58,10a18.75,18.75,0,0,1-2.25,0c-2.66-.32-6.52,1.23-7.46-2.18C294.47,334,296.69,331.1,299.44,329.19Z" style="fill:#c18841"/><path d="M387.84,307.25c-1.76-.11-4.11.34-4.21-2.24-.09-2.12,2-2.31,3.67-2.64l.44-.1c2.06-.4,4.18-1.21,6,.52a1.61,1.61,0,0,1,.1,2.1C392.45,307.17,390.16,307.26,387.84,307.25Z" style="fill:#7a8331"/><path d="M289.77,324.54c2.17-.07,4.2,0,4.1,2.28-.13,2.86-2.81,2.94-4.82,3-1.8,0-4.87.3-4.69-2.14C284.57,324.78,287.77,324.8,289.77,324.54Z" style="fill:#7b8231"/><path d="M367.92,337.49c-1.58-.23-4.14.42-4.07-1.72.11-3,3.13-3.47,5.45-3.44,1.73,0,4.9.31,4.58,2.46C373.48,337.55,370.26,337.29,367.92,337.49Z" style="fill:#777a2a"/><path d="M467.62,349.43c-1.87-.42-5,.61-5-2.29.07-2.21,3-2.53,5.13-2.46s5,.09,4.95,2.6C472.65,350,469.58,349.12,467.62,349.43Z" style="fill:#767a2a"/><path d="M398.32,352.89a35,35,0,0,1-4.1,0c-1-.12-2.87.64-2.67-1.36.14-1.49,1.71-1.45,2.94-1.44,2.57,0,5.14.4,7.68-.49a2.18,2.18,0,0,1,3.08,1.8c.35,2.41-1.69,1.53-2.83,1.65a40,40,0,0,1-4.1,0Z" style="fill:#7c7d2f"/><path d="M454,304.38c1.66.33,3.88.14,4.13,2.49.14,1.23-1.33.92-2.12.67-1.58-.52-4.06.81-4.65-1.57C451,304.23,452.85,304.57,454,304.38Z" style="fill:#7c7929"/><path d="M444.77,320l.87,9.08C442.34,326.32,441.93,323.31,444.77,320Z" style="fill:#f8bf20"/><path d="M315.54,318.91c8.54-8.57,18.53-8.4,29.19,1.44C339.14,318,334.8,315.44,330,316S320.59,317.84,315.54,318.91Z" style="fill:#d3b18b"/></g></g></svg>