<svg xmlns="http://www.w3.org/2000/svg" viewBox="0 0 800 450"><g id="Capa_2" data-name="Capa 2"><g id="DiseñosMascotas"><rect width="800" height="379.16" style="fill:#f0c96f"/><rect y="378.43" width="800" height="71.57" style="fill:#d6a950"/><path d="M279.94,378.82l-31.75,0c1.81-1.47,3.24-2.89,3.55-5.62,1.38-12,5.22-23.46,9.58-34.72a117.14,117.14,0,0,1,7.3-14.56c1.22-2.19,1.91-3.92-.85-5.87-4.06-2.87-4.9-6.8-3.58-11.86,2.06-7.86,5.85-14.82,9.85-21.69,6.58-11.29,13-22.61,15.66-35.6.74-3.59,1.6-7.23-.67-10.65-.86-2.53.55-4.56,1.55-6.62,7.59-15.61,9-32,7.45-49.11-1.39-15.13-4.59-30.08-4.17-45.42.5-18.12,5.59-34.54,16-49.36A15.74,15.74,0,0,1,316,82.51c4.78-2.21,8.79-5.71,13.55-8a136.42,136.42,0,0,1,42.31-12.18,118.41,118.41,0,0,1,20.92-.86c16.83.81,33.06,4.4,48.25,12a23.7,23.7,0,0,1,2.84,2c3,1.14,3.61,6.38,8.2,4.7l3.52,1.17c1.32,1.38.73,2.9.31,4.4-1.11,3.86-1.45,7.23,3.59,8.76,2,.61,2.71,2.91,2.61,4.88-.37,7.54-.62,15.15-2.84,22.41-1.28,4.21-3.89,7.41-9.17,5.32-2.44-1-3.14.36-3.36,2.45-.39,3.76.11,7.16,4.14,8.71s8.19,3.22,11.68-1.21c2.25-2.87,4.25-6.83,8.8-5s4.9,6.3,4.63,10.44c-.25,3.95,1.84,7.63.93,11.58a5.15,5.15,0,0,1-.82,1.66c-4,4.25-9.61,4-14.24,3.17A54.63,54.63,0,0,1,442,151.31a5.23,5.23,0,0,1-.63-2.59c.27-2.12.82-4.26-.42-6.29a11.45,11.45,0,0,0-5.21-6.05c-7.33-3.92-13.75-.37-14.51,7.87-.31,3.34,1.38,6.48.6,9.8l8.11,2.79a7.36,7.36,0,0,1,6.74-1.4,8,8,0,0,0,9.25.92,7.58,7.58,0,0,1,6.69-.21c3,1.25,3.48,3.23,1.81,5.47-2.63,3.53-4.46,7.82-8.89,9.78s-4,4.41-1.09,7.63c5.36,6,8.15,6.44,13.46,1.47,1.91-1.79,3.61-4.89,6.72-3.28,2.9,1.5,2.75,4.94,2.94,7.81a7.57,7.57,0,0,1-4,7.28c-5.12,3-3.59,7.62-2.92,11.95s2.59,7.14,7.47,7.45a9.69,9.69,0,0,1,7.36,4.24,12.48,12.48,0,0,1,1.69,7.21c-2.58,6.32-5,7.26-11.08,4.4-4.52-2.11-6.18-1.24-7,3.72a36.57,36.57,0,0,0-.26,4.06c-.55,9.81-8.29,15.7-18.33,13.95-1.39-3,.76-4.91,2.55-6.46,18.06-15.66,12-43.19-1.23-57.57-24-26.13-69.3-28.2-95.66-12.3a67.46,67.46,0,0,0-22.9,22.2C312.81,212,318,235.4,334,246.76c7.45,5.26,15.93,8.12,24,11.91,1.72,2.91-.65,4.58-2.06,6.44a50.12,50.12,0,0,1-4.57,5.89c-5.53,4.23-9.27,10.05-13.56,15.39-9.24,5.3-8.74,13.4-6.33,22.05-.11,4.11-3.11,6.05-6.08,7.88-6.76,4.15-13.31,8.61-19.9,13-3.09,2.07-5.82,4.45-6.69,8.33a15,15,0,0,1-3.94,3.41,21.36,21.36,0,0,0-9,14.25C284.38,363.22,284.16,371.57,279.94,378.82Z" style="fill:#e6b976"/><path d="M475.51,155.12a4.42,4.42,0,0,0,0-1.09c.62-22.18-3.26-43.24-15.39-62.26-1.36-2.12-3.14-4-3.6-6.61-.54-3.1.89-3.91,3.67-2.83,9.26,1.13,17,5.51,23.82,11.56,8.2,7.27,15.1,15.78,22.32,24a103.32,103.32,0,0,0,7.51,7.3c4.86,4.52,9.56,9.2,14.24,13.92C541.91,153,543,166.7,535.71,184.69c-4,9.72-10.68,17.64-17.44,25.47a69.31,69.31,0,0,0-9.72,14.53C506,229.74,506,235.26,505,240.58c-1.25,6.66-5.56,9-11.7,5.92a23,23,0,0,1-8.54-7c-7-3.36-8.17-9.93-9.17-16.61L474.21,216c-2.9-2.94-3.85-6.69-4.18-10.59-1.29-15.19.42-30.21,3-45.16A9.78,9.78,0,0,1,475.51,155.12Z" style="fill:#c28a4d"/><path d="M316,82.51c-2.26,3.41-4.53,6.81-6.77,10.23-8.51,13.08-12.55,27.49-13.1,43-.43,12.34,1.53,24.42,3.11,36.58,2.09,16.07,3,32.18-1.8,48-1.95,6.37-4.41,12.49-8.4,17.89L283.87,243a26.17,26.17,0,0,1-2.55,2.4c-7.3,5.18-14.14,2.35-14.17-6.48-.06-12.08-5.88-21.08-13.37-29.57-7.62-8.65-14.79-17.6-18.65-28.71-5.23-15-3.79-28.67,8.21-40.19,6.46-6.21,12.56-12.78,19.51-18.5,4.37-3.59,7.48-8.43,11.21-12.66,7-7.9,13.94-15.79,23.12-21.3A36.21,36.21,0,0,1,316,82.51Z" style="fill:#c28a4d"/><path d="M509.46,335.55c-6.38,0-12.77-.19-19.13.16-5,.28-9.9,1.57-14.95.9-1.31-3-3.83-4.81-6.38-6.61-7.45-5.25-14.74-10.77-22.84-15a7.47,7.47,0,0,1-3.42-3.06c-.95-5.61-1.49-11.36-5.76-15.75-1.58-6.21-4.67-11.91-6.06-18.2-.74-3.33-3.29-5.14-6.3-6.35s-6-1.79-8.59-3.54c-2.22-1.91-5-2.68-7.57-4-1.54-.81-4-1.05-3.27-3.84a6.33,6.33,0,0,1,4.21-1.64c8.6-.86,16.36-4.07,23.78-8.33,2.07-1.19,4.16-3.05,6.89-1.5,4.54-.92,9.08-1.68,13.07-4.44,2.49-1.73,3.81-3.68,3.63-6.72-.12-2.13,0-4.27,0-6.4a9.11,9.11,0,0,1,2.09-5.91c2-2.43,4.07-2.75,6.58-1,.47.33.84.81,1.29,1.17,4.5,3.65,6.34,3.12,8.88-2.52,1.42,1.43,1.83,3.35,2.54,5.14a43.37,43.37,0,0,0,6.63,11.47c-2,.4-2.1,1.88-2.24,3.51-.52,5.79,1.86,10.95,3.5,16.24,2,6.5,5.49,12.3,9.42,17.81,1.45,1.66.67,3.38-.14,4.86-4,7.37-2.3,14.08,2.95,19.76,7,7.55,8.74,16.07,6.54,25.77Z" style="fill:#e7b876"/><path d="M460.21,82.33c-1.41.26-3.75-.08-2.17,2.51s3.76,5,5.34,7.65c10.83,18.38,14.8,38.31,13.1,59.45a7,7,0,0,1-1,2.09c-.36-4.83-1.6-9.56-1.37-14.47a9.54,9.54,0,0,0-1.09-3.9c-1.48-3.39-4.49-3.69-6.73-.76-.11.16-.18.35-.29.51-5.14,7.56-6.84,8.15-15.32,5.38-4.79-1.56-6.67-4.45-6.1-9.61a5.84,5.84,0,0,0-.14-2.85c-.64-1.66-.51-3.05,1.25-3.94s3.12-1.15,4.87.07c3.81,2.64,4.42,2.47,6.09-1.56,1.4-3.35,3.48-6.64,1.65-10.57-.62-1.34,0-2.69.67-3.89a13.4,13.4,0,0,0,1.26-6.8c0-5.1,0-5.17-4.91-6.35a3.89,3.89,0,0,1-2.46-1.4,4.34,4.34,0,0,1-.33-3.28c.42-2-1.5-6.4-11.56-17.17q8.46,4,17,7.88Z" style="fill:#e7b876"/><path d="M504.79,327.47c-1-.65-1.79-1.4-1.56-2.81s.2-2.7.39-4c.88-6.24-1.37-11.34-5.58-15.81a47.45,47.45,0,0,1-3.19-4.11c-5.11-6.88-5.37-13.85-.48-21a13.48,13.48,0,0,0,1.07-2.65c1.8-.62,2.86-3.69,4.71-2.73,2.36,1.22.66,3.74.33,5.74-.88,5.38-.44,10.39,3.7,14.56a62.42,62.42,0,0,1,4.29,5.48C515.74,309.19,514.51,321.21,504.79,327.47Z" style="fill:#f0cfa2"/><path d="M566.89,377.79c-4.76,11.5-14.6,16.53-25.62,20-4.48,1.42-8.81,3.06-11.81,7-.66,4.3-4.36,5.82-7.41,7.72-10.51,6.56-36.27,8.7-49-2-1.92-1.61-4.29-2.86-4.52-5.78a64.66,64.66,0,0,1-13-22c-1.06-2.91-2.74-3.84-5.64-3.83-2.45,0-5.1.81-7.33-1,.33-.49.69-1.16,1.23-1.18,6.66-.26,7.55-4,6.24-9.6-.64-2.79-.18-5.81-.16-8.72.1-11.06,4.4-16.73,15.14-19.79,2.8-.8,5.67-1.33,8.08-3.12a6.5,6.5,0,0,1,3.05-.49c7.92-.95,15.81-2,23.82-1.8,3.4.1,6.57.56,9.48,2.36,7.47,1.09,15,1.62,22.24,4.12,6.25,2.17,11.73,5.21,14.4,11.75.82,2,2.32,2.76,4.54,2.95,14.24,1.2,19.18,8,16.33,22.26A11.11,11.11,0,0,0,566.89,377.79Zm-17.58-13.52q-4.18,10.2-8.38,20.39c12.24-3.48,20.05-9.49,19.61-14.58-.19-2.21-2.06-5.77-5.42-6.71A7.89,7.89,0,0,0,549.31,364.27Z" style="fill:#e3c8aa"/><path d="M279.94,378.82c-.44-4.5,1-8.76,1.74-13.11.82-5.12,2.58-10,3-15.27s5.25-8.27,9.24-11.28a31.55,31.55,0,0,1,4.61-2.43c14.07-11.45,28.07-23.05,47.2-24.93a9.85,9.85,0,0,1,2.92.05c1.94.38,4.15.76,4.84,2.78.79,2.32-1.47,3.29-2.9,4.55-1,.85-2.34,1.31-2.78,2.86,2.89-.88,5.32-2.64,8.16-3.38,4.37-1.12,7.88.62,9.42,4.66s-.72,6.17-4.05,7.74a12.73,12.73,0,0,0-4.66,3.12c3.1-.77,6-3.64,8.73-.95,2.95,2.94,1.45,6.61.25,9.91-2.14,5.86-6.22,10.38-10.84,14.33a192.25,192.25,0,0,0-18.94,18.27,13.43,13.43,0,0,1-4.86,3.14Z" style="fill:#f2dbb7"/><path d="M473.23,336.62a6.27,6.27,0,0,1-6,3.73c-4.76.07-8.42,2.89-11.74,5.79a9.82,9.82,0,0,0-3.44,8.28c.42,6.74-.78,13.57,1.23,20.22.67,2.19-.12,3.25-2.53,3.18-2.71-.09-5.42,0-8.14.07l-1-.13c-.2,0-.46,0-.57-.1-10-10-21.59-18.43-30.26-29.78a17.13,17.13,0,0,1-3.73-9.09c-.41-5.42,1.78-7.17,6.93-5.54a22.92,22.92,0,0,0,3.19,1.11c-1.2-1.93-2.92-2.54-4.52-3.17-3.45-1.35-5.87-3.13-4.27-7.41s5-6.19,9.13-5.28c3.07.68,5.63,2.6,8.77,3.78-.91-2.1-2.87-2.6-4.26-3.76s-3.33-1.89-2.62-4c.61-1.81,2.45-2.41,4.23-2.72,4.74-.83,9.3.37,13.79,1.58,13.34,3.6,23.85,12.11,34.55,20.25A2.88,2.88,0,0,1,473.23,336.62Z" style="fill:#f1dbb6"/><path d="M435.64,377.79c-1.59,1.6-3.63,1.15-5.52,1.15q-43.17,0-86.32,0c-1.9,0-3.94.42-5.51-1.18-1.16-2.94.73-4.88,2.45-6.63,7.32-7.47,16.39-13,22.92-21.38a2,2,0,0,1,2.18-.3c12.91,9.78,27.75,10.18,42.18,1.11a3.33,3.33,0,0,1,3.69,1c7.12,7.31,15.31,13.5,22.05,21.21C435,374.15,436.57,375.53,435.64,377.79Z" style="fill:#e5b776"/><path d="M435.64,377.79a115.8,115.8,0,0,0-18.1-17.86c-3.42-2.63-5.88-6.06-8.69-9.21-2.44-.28-3.18-2.23-4-4.08-1.3-3.66-3-7.16-4-11-.37-3.2.89-6.22,1-9.38,4.55-13.45,14-19.59,28-18.33,2.32.21,4.6.81,7,.68a10.86,10.86,0,0,1,7.3,3.51c8,2.89,14.44,8.35,21.41,12.92,2.93,1.91,5.74,4,8.49,6.16,1.74,1.36,3.31,3,1.45,5.37h-2.15c-7.26-4.91-14.11-10.4-21.58-15A64.77,64.77,0,0,0,431,313.68c-3.86-.84-7.07-.35-11.09,1.34a79,79,0,0,1,7.52,4.61c1.57,1.2,4.19,2.8,2.56,5.13-1.82,2.58-3.79,0-5.49-1a40.55,40.55,0,0,0-7.35-3.57c-3.75-1.18-8.49,2.81-7.91,6.68.22,1.53,1.62,1.41,2.68,1.76,3.39,1.11,6.5,2.66,8.79,5.52.63.78,1.17,1.69.63,2.66-.73,1.32-1.95,1-3.07.59-3.06-1.1-5.55-3.62-9.19-3.79-1.41,4.75.31,8.64,2.57,12.33,3.2,5.23,7.82,9.15,12.34,13.19,6.38,5.7,13.24,11,17.57,18.61C439.59,379.86,437.61,378.68,435.64,377.79Z" style="fill:#c18b51"/><path d="M365.3,349.68c-4.09,7.53-11.08,12.18-17.42,17.45-3.73,3.1-7.43,6.16-9.59,10.65-2.24,1.45-4.74,1.23-7.22,1.1A119.53,119.53,0,0,1,351,358.37a92,92,0,0,0,8.38-8.14,22.34,22.34,0,0,0,5.38-9.61c.59-2.25,1.84-5.09,0-6.64-2.09-1.79-4.15.91-6.19,1.8-1.82.8-4.06,3.32-5.58,1s1.47-3.65,3-4.92a17.6,17.6,0,0,1,5-2.89c2.46-.86,4.43-1.51,3.05-4.81-1.52-3.59-3.33-4.88-6.52-4.07a37.37,37.37,0,0,0-8,3.5c-1,.54-2,1.17-3,1.76a1.81,1.81,0,0,1-2.16-.18,1.93,1.93,0,0,1-.42-2.62c1.15-2.12,3.07-3.46,4.95-4.88,1.2-.9,3.14-.63,3.9-2.74-5.35-2.75-10.61-.76-15.75.35-7,1.52-13.09,5-18.87,9.06-4.62,3.26-9.19,6.58-13.83,9.81-1.74,1.22-3.44,2.61-5.77,2.54-.93-1.4-1.39-2.77,0-4.17a30,30,0,0,1,4.86-4.13c7.49-4.81,14.92-9.73,22.42-14.53,2-1.28,4-2.42,4.31-5.09,2.58-1.53,4.21,2.27,6.71,1.19,7.19-2,14.35-2.54,21.45.37,4.32,2.63,8.8,5.1,11.55,9.63a19.11,19.11,0,0,1,1.88,5.09c1.3,2.6,1.12,5.42,1.27,8.2C372,339.48,371.76,346.05,365.3,349.68Z" style="fill:#c18a50"/><path d="M468.52,404.7c6.54,5,13.12,10,21.71,10.68,13.44,1.05,26.54.5,37.31-9.31a17.59,17.59,0,0,1,1.92-1.32,13.53,13.53,0,0,1,2.86.43c3.81,1.42,7.76,5.43,7.08,7.73-1,3.35-3.74,5.12-7,6.31a66.42,66.42,0,0,1-23.9,4.32c-6.22-.08-12.45-.12-18.67,0-7.1.16-13.85-1.54-20.56-3.51a20,20,0,0,1-7.23-3.66c-4-3.35-3.85-6.54.62-9.21A16.2,16.2,0,0,1,468.52,404.7Z" style="fill:#b6863b"/><path d="M440.07,248.77c-5.6,2.7-10.64,6.46-16.58,8.56s-11.83,4-18.24,3.32c-2.43,1.46-4.91.71-7.37.11A81.58,81.58,0,0,0,378.74,259c-6.84-1-13.65-.31-20.46.51-5.72.09-10.56-2.76-15.4-5.11-10-4.82-18.76-11.07-23.36-21.87-6.55-15.36-5-29.87,5.12-42.94,14.94-19.24,35-28.39,59.34-28.77,12.26-.2,24.13,1.28,35.38,6.28,14.5,6.45,26.37,16.12,33.37,30.54,6.25,12.85,6.08,26-1.32,38.64C448.49,241.23,443.71,244.46,440.07,248.77Z" style="fill:#f0e9e0"/><path d="M475.51,155.12a58.29,58.29,0,0,1-.79,8.11c-1.78,13.12-3.47,26.28-2.63,39.56.28,4.44,1.39,8.83,2.12,13.24-2.94-1.4-5.63-3.25-9.32-2.51-2.37.47-3.86-1.65-4.73-3.68A30.71,30.71,0,0,1,458,195c.16-2,1.49-2.85,3.22-3.67a8.41,8.41,0,0,0,3.3-12.63c-1-1.44-2.14-.44-2.86.42-1.75,2.06-3.07,4.4-5.6,5.83-3.83,2.16-5.69,2.41-8.95-.38a65.19,65.19,0,0,1-6.9-7.1c-1.71-2-1.08-4,.64-5.71a10.63,10.63,0,0,1,4.59-2.49c2-.6,3.67-1.72,4-3.8s1.74-3.24,3.36-4.44c2-1.5,1.64-2.65-.72-3.68a4.33,4.33,0,0,0-4.86.62,9.38,9.38,0,0,1-6.61,1.85c-2.32-.16-3.59-1.29-3.84-3.59.29-3.54,2.2-5.58,5.7-6.15,4,1.68,8.18,3.09,12,5.1,5.06,2.65,10.43,1.21,15.63,1.85C472.27,157.26,473.46,155,475.51,155.12Z" style="fill:#e7b876"/><path d="M358.28,259.46c4-3.52,8.78-3.8,13.72-3.3,2.12.22,4.21.65,6.32,1,12.28,5.71,25.46,7.63,38.71,9.32a31.93,31.93,0,0,0,7,2.68c5.1,1.52,9.08,4.25,9.41,10.4a17.9,17.9,0,0,0,2.64,7.66,14.15,14.15,0,0,1,1.94,8.37c-1.56,1.87-3.65,1.84-5.81,1.63-4.93-5.71-8.4-12.79-14.66-17.2-12.27-8.64-25.06-15.14-41-10.07-9.73,3.09-19.24,5.91-26.41,13.87-5.75,6.38-10.19,13.22-11.56,21.83-.36,2.29-.64,4.66-2.47,6.41-3.14,1-3.76-2.5-5.91-3.24-.44-1.47-.87-2.94-1.33-4.4-2.39-7.76-1.81-14.2,8.48-19.33a35.34,35.34,0,0,0,12.7-15C352.42,266.23,355.44,262.92,358.28,259.46Z" style="fill:#f6c44f"/><path d="M442.5,150.05a12.7,12.7,0,0,1-2.12,3.34,12.56,12.56,0,0,1-3.58,2.81,11.71,11.71,0,0,1-7,1.4,18.67,18.67,0,0,1-3.77-1.16,17.92,17.92,0,0,1-4.22-2.58c-1.24-1.93-2.53-3.77-2.81-6.23-.81-6.94,2-12.06,7.85-14a12.15,12.15,0,0,1,7-.27,13.14,13.14,0,0,1,8.12,6.83,13.4,13.4,0,0,1,1,7.79A13.8,13.8,0,0,1,442.5,150.05Z" style="fill:#270902"/><path d="M350,270.05c-.58,8.48-4,12.51-12.7,15A45.59,45.59,0,0,1,350,270.05Z" style="fill:#be893e"/><path d="M540.07,354.37c-3,4.16-7.66,5.37-12.14,6.37-20.88,4.61-41.72,4.68-62.41-1.36-3.08-.9-5.81-2.24-7.63-5-.26-4.24,3-5.57,5.95-7,8.08-3.78,16.9-4.62,25.54-5.53A104.42,104.42,0,0,1,527,344.74C532.31,346.14,538.92,346.85,540.07,354.37Z" style="fill:#7f4327"/><path d="M540.07,354.37c-4.17-5.27-10.19-6.89-16.34-8.26-11.16-2.49-22.51-2.76-33.8-2A87.61,87.61,0,0,0,467,348.34c-3.54,1.23-6.93,2.71-9.1,6-1.89-2.05-1.11-3.87.43-5.67a16.27,16.27,0,0,1,7.4-4.53,101.45,101.45,0,0,1,46-4.23,153,153,0,0,1,16.64,2.7,32.67,32.67,0,0,1,9.23,3.56C541.27,348.4,541.59,349.61,540.07,354.37Z" style="fill:#cda483"/><path d="M484.1,290.24c.33,1,.76,1.6.65,2.08-1.69,7.36,1.74,13.1,5.63,18.83,4.95,7.3,3.54,13-4.18,18-1.61-.83-.46-2-.32-3,.68-4.65-.11-8.85-3.2-12.56a37.58,37.58,0,0,1-4-5.7C475,301.36,477,294.83,484.1,290.24Z" style="fill:#efcea6"/><path d="M417,266.47a3.64,3.64,0,0,1-3.18,1.13c-11.64-.92-23.33-1.69-33.49-8.43a13.9,13.9,0,0,1-2-2,56.12,56.12,0,0,1,26.93,3.5C409.19,262.56,413.51,263.69,417,266.47Z" style="fill:#b5803a"/><path d="M433.16,296.78c.77-3.84,3.3-.59,4.87-1.2a12.6,12.6,0,0,1,6,11.9c-.08,1.56,0,3.12,0,4.68-2.72.24-4.89-1.13-7.12-2.36C433.2,306.17,432.12,301.78,433.16,296.78Z" style="fill:#a9702e"/><path d="M433.16,296.78a41.49,41.49,0,0,1,3.75,13c-1.91,1.88-4,.68-6,.35-9.11-1.45-16.95.75-23.05,8-2.29,2.73-3.25,6.17-5,9.17-1.44,3.31-4.65,4.57-7.41,6.31-4.43,2.8-9,5.43-13.29,9.54,1.86-.41,3.17-.92,4.54-.78a7.17,7.17,0,0,1,4.42,2.49c3,3,6.25,3.31,9.89,1.09,1.73-1.06,3.69-2.63,5.39.16q1.28,2.28,2.53,4.56c-.21,2.23-1.74,3.29-3.57,4.19a39.19,39.19,0,0,1-23.19,3.84c-3.41-.48-6.94-.9-10.16-2.39-3-1.4-6-2.86-6.63-6.68,2.9-5.14,5.35-10.43,5.92-16.4a20.8,20.8,0,0,1,13.09-10.84c8.84-2.71,15.86-6.59,17.37-16.62.93-1.22,2.49-1.78,3.88-3.94-3.88.55-6.67,3.07-10,2.64-4.45-.26-8.84,1-13.3.41-3.56-.46-6.89-1.23-8.45-5-.7-3.87,2.19-5.47,4.67-7.32,3.52-2.62,7.73-4.32,11.43-8.49-13.27,5.26-24.84,11.26-35,20.62,3.08,0,5.94-2.23,7.85,1.18,0,3.11.81,6.79-4.37,6.29-7.38-3.28-14.8-1.57-22.21-.14-.3-14.71,7.16-25.38,17.8-34.46a34.67,34.67,0,0,1,16.11-7.7,49.37,49.37,0,0,0,10-3.22,15.61,15.61,0,0,1,10.23-.74c8.18,1.9,15.87,5.25,23.83,7.78a3.39,3.39,0,0,1,1.44.9C421.78,281.68,429.45,287.66,433.16,296.78Z" style="fill:#efd4a0"/><path d="M406.32,346.16c-1.37-.78-2.38-.34-3.59.64-5.61,4.49-8.66,4.19-13.62-1.26a5.15,5.15,0,0,0-2.83-1.82c2.32-5.26,9.12-9,15.25-8.41C405,338.09,404.45,342.67,406.32,346.16Z" style="fill:#e7ba7a"/><path d="M401.53,335.31c-5.42,2.19-10.67,4.69-15.25,8.41-2.79.62-5.18,2.79-8.36,2.34,2.59-5.55,13.61-13.8,24.86-18.71C404,330.27,403,332.83,401.53,335.31Z" style="fill:#9a6027"/><path d="M374.54,297.89c.86,4.15,4.08,4.79,7.51,4.9,5,.15,10.08.14,15.12.2,0,2.43-1.93,3.27-3.62,4.12a105.48,105.48,0,0,0-19.28,12c-1.5,1.22-3.2,2.32-5.34,1.36-3.64-2.63-6.68-6-10.62-8.28,3.54-1.36,2.47-4.89,3.48-7.44C364.52,299.64,369.17,298.09,374.54,297.89Z" style="fill:#eab871"/><path d="M368.93,320.47c3.44-1.57,5.92-4.42,8.88-6.62,6-4.47,13.09-6.92,19.36-10.86,2.86-.26,4.53-3,7.28-3.5,1.62-.27,3.63-1.2,4.35,1.32a3.18,3.18,0,0,1-2.14,4.19c-1.27.49-2.55.95-3.83,1.42-7.85,7.31-16.21,13.89-26.22,18.05-2.12.87-4.18,2.34-6.58.73A8.4,8.4,0,0,1,368.93,320.47Z" style="fill:#9b5e24"/><path d="M370,325.2c8.63-3.79,17.3-7.43,24.35-14.08a17,17,0,0,1,8.45-4.7c-1.29,1.88-1.05,4.06-1.34,6.16-.5,3.62-1.74,6.8-5.91,7.7-9.35,2-17.09,7.05-24.36,13A24.32,24.32,0,0,0,370,325.2Z" style="fill:#e9ba77"/><path d="M348.16,140.53a3.84,3.84,0,0,1-3.63,3.88,3.76,3.76,0,0,1-4.06-4c.12-2.4,1.61-3.52,3.85-3.48A3.55,3.55,0,0,1,348.16,140.53Z" style="fill:#e1c4b8"/><path d="M432.22,140.7a3.81,3.81,0,0,1-7.61-.41c.25-2.3,1.79-3.35,3.95-3.45A3.63,3.63,0,0,1,432.22,140.7Z" style="fill:#e2c7b8"/><path d="M374.54,297.89l-12.75,6.86-10.07,3.41c-1-2,.29-3.08,1.24-4.17,4-4.61,9.06-7.91,14.2-11.05,7.47-4.57,15.64-7.78,23.45-11.7.72-.36,1.46-.64,2.13,0a2,2,0,0,1,.25,2.66,24.23,24.23,0,0,1-6.47,5.8C382.54,292.43,378.19,294.65,374.54,297.89Z" style="fill:#995c23"/><path d="M414.75,298.29c-1.38-.12-2.33-.48-2.37-1.62-.07-1.77,1.21-2.22,2.67-2.19a1.57,1.57,0,0,1,1.73,1.79A2.27,2.27,0,0,1,414.75,298.29Z" style="fill:#996b32"/><path d="M335.3,135.72a29.37,29.37,0,0,0-5.47-4.44,13.51,13.51,0,0,1-3.51-3c-2.08-2.55-1.05-4.81,2.25-5.25,2.47-.33,4.45.69,6.47,2,6.66,4.29,13.45,8.37,20.1,12.68,2.32,1.5,4.57,2.75,7.41,3,2.57.2,4.39,1.73,4.38,4.51a3.85,3.85,0,0,1-.46,1.89c-1,1.77-3,2.34-4.13,2.61a10.21,10.21,0,0,1-6.25-.53,7.33,7.33,0,0,1-3.47,0A7.15,7.15,0,0,1,350,147.8a52.3,52.3,0,0,0-6.6-4.11c-.75-.65-1.51-1.33-2.27-2C339,139.66,337,137.67,335.3,135.72Z" style="fill:#c28b50"/><path d="M352,146.42a12.16,12.16,0,0,1,1.42.84,31,31,0,0,1,2.71,1.91,14.89,14.89,0,0,1-5.7,8.63,14.38,14.38,0,0,1-6.08,2.41,12.71,12.71,0,0,1-13.19-6.34,14,14,0,0,1,1.07-15.17c.26-.32.58-.66.58-.66a20.45,20.45,0,0,1,2.53-2.32c1.15.64,2.32,1.31,3.5,2,2.14,1.27,4.17,2.56,6.08,3.84,0,3.51.78,4.67,1.58,5C347.88,147.24,349.68,145.45,352,146.42Z" style="fill:#330e03"/><path d="M437.84,135.27a14.85,14.85,0,0,1,5.64,8.66,13.27,13.27,0,0,1,0,5.2c-1,5.13-3.61,9-8.71,10.51-5.26,1.61-9.89.18-13.68-3.75a34.74,34.74,0,0,1-2.73-3.71L416.2,149l5.19-3.16c5.75,2.12,5.76,2.11,6.4-3.88a10,10,0,0,1,5.38-6.06A9.16,9.16,0,0,1,437.84,135.27Z" style="fill:#330e02"/><path d="M421.78,147.32c-.28-.39-.56-.77-.83-1.16L416.2,149l-.31.06c-1.92.38-3,.66-3.35.73-1.82.37-4.51-.87-5.77-2.88-.1-.17-1.47-2.37-.57-3.76a2.76,2.76,0,0,1,2.09-1.14c9.25-1.14,15.41-7.83,22.8-12.27,3.16-1.9,6.16-4.06,9.56-5.55s5.81-1.27,6.58.9a3.93,3.93,0,0,1,.16,2.52c-.45,1.5-1.91,2.28-3.12,3a42.19,42.19,0,0,0-6.4,4.52l-5,3.24-5,3.19a7.22,7.22,0,0,1-6.13,5.8Z" style="fill:#c18a4d"/><path d="M386.9,184.78A46,46,0,0,1,402,186.33c9.45,2.67,12.56,10.66,7.34,19A33.51,33.51,0,0,1,396,217.24c-1.67.87-4.09,1.14-4.59,3.23a26.18,26.18,0,0,0-.07,9.26c.2,1.58,1.67,1.24,2.79,1.28,4.27.14,8.54.19,12.8.45a46.11,46.11,0,0,1,12.49,2.71,15.2,15.2,0,0,1,4.08,2.16,2.94,2.94,0,0,1,.58,4.19c-.83,1.28-2,1.46-3.53.85-10.93-4.37-22.37-4.53-33.86-3.79-10.1.65-20,2.55-29.9,4.66-1.75.37-4.39,2.28-5.21-1.24-.71-3.05,1.47-4,3.91-4.69A165.26,165.26,0,0,1,379,232c4.23-.52,4.22-.61,4.21-5,0-1.16-.16-2.34-.06-3.49.25-2.76-1-4.25-3.55-5.22-5-1.9-9-5.22-12.69-9.07a20.37,20.37,0,0,1-4-6.35c-3-7.38-.65-12.93,6.91-15.79A42.56,42.56,0,0,1,386.9,184.78Z" style="fill:#270901"/><path d="M352,146.42a5.22,5.22,0,0,1-4.43,3.71,4.72,4.72,0,0,1-2.62-.82,4.78,4.78,0,0,1-1.83-2.41,5.17,5.17,0,0,1,1.8-5.33q1.92,1.17,4,2.58C349.93,144.91,351,145.67,352,146.42Z" style="fill:#efded0"/><path d="M421,146.16c.9-.72,1.89-1.46,3-2.2a45.67,45.67,0,0,1,4-2.44,5,5,0,0,1,2.22,5.1,4.63,4.63,0,0,1-1.73,2.45,4.91,4.91,0,0,1-3.07,1A5.25,5.25,0,0,1,421,146.16Z" style="fill:#eddccd"/></g></g></svg>