<svg xmlns="http://www.w3.org/2000/svg" viewBox="0 0 137.03 135.68"><defs><style>.cls-1{fill:#3d8dab;}.cls-2{fill:#90d2ed;}.cls-3{fill:#65b4d2;}.cls-4{fill:#64b2d1;}.cls-5{fill:#92d0e9;}.cls-6{fill:#8fd0eb;}.cls-7{fill:#87cbe7;}.cls-8{fill:#87cce7;}.cls-9{fill:#8dceea;}.cls-10{fill:#438dac;}.cls-11{fill:#438ead;}.cls-12{fill:#4990ad;}</style></defs><g id="Capa_2" data-name="Capa 2"><g id="TIENDA"><g id="Marcos"><path class="cls-1" d="M132.2,86.05A18,18,0,0,0,134.48,91c3.12,4.94,3.47,10.1.37,15.07-3.71,6-3.74,11.62.2,17.44,2.24,3.32,2.13,7.17,1.8,11-.09.95-.64,1.09-1.47,1a17.82,17.82,0,0,1-7.1-2.4c-6.06-3.69-12.11-3.69-18.24-.07a16.86,16.86,0,0,1-18.14,0c-6.21-3.65-12.21-3.65-18.41.07a16.4,16.4,0,0,1-17.73,0c-5.95-3.51-11.84-3.82-17.86-.28-6.44,3.8-12.84,3.71-19.26-.16-5.14-3.11-10.47-3.11-15.85-.57-.74.35-1.46.74-2.29,1.16-1.14-4.16,0-7.66,2.21-10.91a13.85,13.85,0,0,0,2.23-9.19,13.59,13.59,0,0,0-2.4-6.19C-.91,101.54-.82,96.1,2.69,90.8a15,15,0,0,0,2.4-7.27c.83-.74,1.72-.34,2.58-.1,1.28.36,2.48.94,3.73,1.41a10.47,10.47,0,0,0,7,.45,4.41,4.41,0,0,1,3.08-.19c.67.84.35,1.72.12,2.6a20.06,20.06,0,0,1-2.27,4.71,13.19,13.19,0,0,0,0,14c2.35,4.06,6,6.88,9.91,9.14,2,1.16,4.72,1.17,7.19.81a30.38,30.38,0,0,0,3.66-.58,34.37,34.37,0,0,1-9.81.12c-.55-.07-1.52.12-1.17-1a4.49,4.49,0,0,1,2.64-.48c2,0,3.92-.07,5.88,0a12.45,12.45,0,0,0,6.86-1.47,15,15,0,0,1,7.32-1.59,18.29,18.29,0,0,1,9.22,3c5,3.11,10.21,2.9,15.23-.09,3-1.8,6.1-3,9.67-2.69a12.81,12.81,0,0,1,7,1.62,12.47,12.47,0,0,0,5.63,1.27c3.19.07,6.4-.47,9.55.36.78,1.25-.49,1-.91,1.07a40.4,40.4,0,0,1-9.13.18c1.8.13,3.56.5,5.4.48,4.69,0,7.76-3.06,11-5.8a16.1,16.1,0,0,0,5.16-8.47c1-3.87-.41-7.31-2.31-10.58a11.25,11.25,0,0,1-2-5.25c.2-2.46.64-3,3-3.53a10.43,10.43,0,0,1,5.57,0A70.22,70.22,0,0,1,132.2,86.05Z"/><path class="cls-2" d="M.08,35.19a13.74,13.74,0,0,1,2.35-7.27c3.4-5.21,3.51-10.38.17-15.72C.65,9.08-.51,5.7.26,1.84.58.17,1.38.16,2.58.42A18.58,18.58,0,0,1,8.09,2.93,15.16,15.16,0,0,0,24.74,3c6.12-3.66,12.05-3.8,18.17-.11,5.73,3.46,11.47,3.38,17.21-.18C65.51-.68,71.21-1,76.58,2.38,83.14,6.46,89.3,6,95.71,2.22a14.17,14.17,0,0,1,15.31,0C117.78,6.4,124.3,6.39,130.85,2A9,9,0,0,1,133.9.66c2.49-.57,2.88-.28,3,2.33a15.08,15.08,0,0,1-2.55,9.33c-3.34,5.16-3.15,10.27.09,15.33,2.17,3.39,3.12,7,2.1,10.93a4.1,4.1,0,0,0-2.93-1.71,19.11,19.11,0,0,1-5.11-1.76c-2.38-1-4.48-.1-6.62.78-1,.44-.42,2.15-1.79,2.31-.85-.86-.68-2-.62-3,.21-3.56-1.19-6.55-3.26-9.29a22.39,22.39,0,0,0-7.35-6.16,12.87,12.87,0,0,0-12.3-.08c-1.38.67-2.71,1.45-4.11,2.08a15.69,15.69,0,0,1-13.78-.07c-.95-.44-1.87-.94-2.78-1.47a13.6,13.6,0,0,0-14.35-.13A21.66,21.66,0,0,1,54.42,23c-3.92.6-7.76.33-11.13-1.89-8-5.26-14.68-3-20.88,3.17C19.65,27,17.52,30.2,17.33,34.32a2.65,2.65,0,0,1-.85,1.87c-2.13,1-3.92-.11-5.69-1S7.14,33.49,5,33.78a10.61,10.61,0,0,0-3,.89A2.84,2.84,0,0,1,.08,35.19Z"/><path class="cls-3" d="M.08,35.19c3.18-2.39,6.52-3,10.14-1,1.9,1,3.83,2.08,6.13,1.82,1.92,5.2,5.92,9.6,5.76,15.63a17.3,17.3,0,0,1-2.74,8.67c-2.82,4.65-2.62,9.26,0,13.87,1.56,2.77,3,5.54,2.7,8.86-.06.76,0,1.55-.67,2.11A14.48,14.48,0,0,1,8.69,84.5a9.64,9.64,0,0,0-3.6-1A16.28,16.28,0,0,0,2.27,74.7c-3.21-5.22-2.9-10.45.36-15.57C6,53.86,5.85,48.63,2.48,43.42.86,40.92-.32,38.28.08,35.19Z"/><path class="cls-4" d="M120.15,38.12c0-2.84,2.27-3.2,4.3-3.88a6,6,0,0,1,4.29.24c2.19.89,4.32,2,6.78,2,1.49,0,.83,1.32,1.06,2.09a15.13,15.13,0,0,1-2.39,5.32c-3,5-3.1,10,.07,15,3.54,5.58,3.64,11.16,0,16.72a14.29,14.29,0,0,0-2,10.42A10.15,10.15,0,0,1,127,84.67a12.65,12.65,0,0,0-8.66-1.24c-1.86.42-2.69,1.2-2.5,3.06-1.11-.29-.94-1.25-1-2a13.93,13.93,0,0,1,2.06-8.83c3.66-5.57,3.63-11,.08-16.65-3.16-5-2.93-10.26-.08-15.31C118,41.81,118.55,39.66,120.15,38.12Z"/><path class="cls-5" d="M35.17,127.29c-.59.29-1,.16-1.17-.09-1.07-1.27-2.07-.67-3.24-.1a7.4,7.4,0,0,1-7.57-.23c-1.84-1.16-1.83-2,.08-3.13a6.85,6.85,0,0,1,5.61-.85c2,.54,3.95,2.48,6.31-.62C34.88,124.56,34.58,126,35.17,127.29Z"/><path class="cls-6" d="M127.33,118.2a10,10,0,0,0-.15,4.57,1.35,1.35,0,0,1-1.46-.43c-.75-.91-1.39-.62-2.31-.18-2.56,1.22-5.2,1.58-7.81.07-.71-.42-1.67-.82-1.6-1.75s1-1.33,1.69-1.71a7.23,7.23,0,0,1,6.85,0c1.43.7,2.64,1.11,3.84-.29C126.52,118.28,126.87,118.31,127.33,118.2Z"/><path class="cls-7" d="M106.21,125.79c0,1.17,0,1.78,0,2.4.05.83-.16,1.32-1,.67-.67-.51-1.16-.06-1.73.15-1.59.57-3.18,1-4.8,0-1.37-.85-1.41-1.57,0-2.36a4.17,4.17,0,0,1,4-.33C103.83,126.9,104.85,127.24,106.21,125.79Z"/><path class="cls-8" d="M90.27,119.27c0,1.22,0,1.84,0,2.45s-.25,1-.7.64c-1.12-.93-1.95,0-2.9.24a11.77,11.77,0,0,1-1.62.36c-1.76.11-3.84-1-3.5-1.89.61-1.64,2.24-1.66,3.69-1.71a3.15,3.15,0,0,1,1.59.46C87.88,120.42,88.88,120.6,90.27,119.27Z"/><path class="cls-9" d="M4.42,98.2a3,3,0,0,0,3.41.36,4.75,4.75,0,0,1,4.75.43c.83.6.81,1.2,0,1.82a5.1,5.1,0,0,1-4.19.65A12.34,12.34,0,0,0,5.26,101C4.08,101,4.92,99.44,4.42,98.2Z"/><path class="cls-10" d="M10.93,16.05c0-.72,0-1.07,0-1.41-.1-1.06.19-1.64,1.18-.73s1.57.72,2.58.16a7.93,7.93,0,0,1,8.53.19c1.53,1,1.52,1.87,0,2.8a8.33,8.33,0,0,1-8.19.25c-.67-.31-1.33-1-2.11-.35C10.84,18.59,10.66,17.51,10.93,16.05Z"/><path class="cls-11" d="M125.6,10.43c-.15,2.06-.67,3.45-.08,5.12-1.85-1.93-3.4-.77-5.08-.17a7.58,7.58,0,0,1-6.85-.5c-1.87-1.17-1.88-2.06,0-3.17a7.43,7.43,0,0,1,6.65-.54C122.08,11.9,123.71,12.85,125.6,10.43Z"/><path class="cls-12" d="M27.33,11V7.67a3.1,3.1,0,0,0,3.17.17,4.37,4.37,0,0,1,4,.18c1.31.69,1.3,1.5,0,2.26a4.49,4.49,0,0,1-4,.15C29.5,10.07,28.51,9.53,27.33,11Z"/></g></g></g></svg>