<svg xmlns="http://www.w3.org/2000/svg" viewBox="0 0 130.78 131.85"><defs><style>.cls-1{fill:#d5a36c;}.cls-2{fill:#a4744b;}.cls-3{fill:#9e734b;}.cls-4{fill:#af7c4c;}.cls-5{fill:#a87648;}.cls-6{fill:#a57344;}.cls-7{fill:#a4713f;}.cls-8{fill:#a87544;}.cls-9{fill:#3e1705;}.cls-10{fill:#421905;}.cls-11{fill:#401706;}.cls-12{fill:#ab7847;}.cls-13{fill:#341306;}.cls-14{fill:#461808;}.cls-15{fill:#3c0f04;}.cls-16{fill:#431608;}.cls-17{fill:#3f1309;}.cls-18{fill:#381104;}.cls-19{fill:#40160c;}.cls-20{fill:#411708;}.cls-21{fill:#3d1408;}.cls-22{fill:#3c1409;}.cls-23{fill:#3a1107;}.cls-24{fill:#421604;}.cls-25{fill:#ac7848;}</style></defs><g id="Capa_2" data-name="Capa 2"><g id="TIENDA"><g id="Marcos"><path class="cls-1" d="M128.46,100.82c0,2.72.09,5.45,0,8.17a5.12,5.12,0,0,0,1.27,4c.59,3.61.2,7.25.22,10.88,0,1.4-1,2-2.27,1.93-1.76-.1-3.49.2-5,.2,1.51.08,3.26-.48,5,0,1.49.37,2.41,1.12,2.19,2.77a2.26,2.26,0,0,1-2.67,2.07c-8.52-.35-17-.24-25.57-.61-1.19-.06-2.38-.08-3.57-.07-10.7,0-21.41-.17-32.12,0-11.46.23-22.94.18-34.4.44-8.95.21-17.9.35-26.85.36a8.14,8.14,0,0,1-3.1-.38c-1-1.31-1.06-2.89-1.23-4.44a1.55,1.55,0,0,1,1.19-1.85c2.05-1.12,4.29-.73,6.12-.84-1.94-.32-4.23.63-6.51,0-1.48-2.09-1.31-4.41-.93-6.76,12.91,1.09,25.81.28,38.72,0-8.79.24-17.59.64-26.38.38-4.1-.12-8.25-.06-12.27-1.14.14-1.66-.43-3.57,1.89-4.36.48-.16.28-1,.31-1.57.56-13.15.31-26.31.36-39.46,0-14.13-.05-28.27-.13-42.41,0-2.93-.24-5.86-.36-8.8a3.23,3.23,0,0,1,2-.4c2.77,0,3.38.75,3.25,3.52-.36,8-.48,16.08-.22,24.12.12,3.64-.09,7.28.24,10.91,0,.25.12.58-.08.59.3-.49.1-1.16.07-1.75-.29-5.24-.54-10.5-.33-15.73.24-6.29,0-12.59.35-18.88.12-2.11.56-2.56,2.67-2.6,1.75,0,3.49-.22,5.24-.15C18.56,19,19,19.5,19,22.39q0,22.78,0,45.58,0,18.07,0,36.13c0,1.83-.31,3.63-.25,5.45,0,.69-.32,1.61.75,1.93a34.44,34.44,0,0,0,6.09-.39c5,.51,10,1.16,15.06.47,2.54-.35,5.17.18,7.66-.72a3.83,3.83,0,0,0,2.89.92c9.05-.77,18.11-.18,27.17-.36a8.57,8.57,0,0,0,4.27-.69c7.61.49,15.22.24,22.83.15,1.26,0,2.51.11,3.77,0a1.45,1.45,0,0,0,1.57-1.57c0-.91,0-1.81,0-2.72q0-41.87,0-83.72c0-1.38-.24-2.82.58-4.09a3.44,3.44,0,0,1,2.57-.6c1.57,0,2.28.69,2.26,2.31a71.85,71.85,0,0,0-.19,7.9,67.63,67.63,0,0,1,.17-7.12c.06-2.21.5-2.69,2.7-2.76,2.42-.07,3.36.55,3.45,2.62.12,2.79.35,5.58.44,8.37.24,7.34.52,14.68.56,22,0,1.94-.42,3.86-.23,5.42.54-8.36-.18-17.09-.12-25.83,0-3.29-.69-6.55-.39-9.85.12-1.37.49-2.51,2.13-2.61,1.45-.09,2.47.41,2.58,2.05,0,.76.15,1.52.16,2.3.1,18.75.62,37.51.41,56.27-.1,9.72-.28,19.44-.61,29.16.06-1.88,0-3.76.07-5.64C127.49,102,127.3,101.07,128.46,100.82Z"/><path class="cls-1" d="M.77,4.15C.72.58,1,.25,4.49.34,29,1,53.44,1,77.91.69,93.14.48,108.37,0,123.61.07c2,0,4.27-.58,5.78,1.49a4.87,4.87,0,0,1,.55,3,1.72,1.72,0,0,1-1.5,1.76,103.12,103.12,0,0,1-13.5.69,32.17,32.17,0,0,0,4.6-.08,28.74,28.74,0,0,1,4.82-.08c1.69.06,3.48-.38,5.06.67l0,.78c1.45,2.89.35,4.49-2.85,4.62-9.37.37-18.75.56-28.12.33-7.42-.18-14.83.12-22.24.11-2.06,0-4.13.47-6.17.07.1.62.65.11.89.11,6.86-.12,13.71-.56,20.56-.36,11.54.33,23.09.18,34.64.24.35,0,.7,0,1,0,2.05.16,2.64.67,2.57,2.23-.09,2.25-.78,3-2.88,3-7.13-.07-14.24-.73-21.38-.73-13.64,0-27.29.34-40.93.53-15.81.21-31.63.22-47.44.39-5,.05-10-.21-15,0C.34,17,.46,15.06,1.56,13c2-.64,4,0,6-.35.27-.07-.12-.42,0-.17s0,.19-.07.2a56.82,56.82,0,0,1-6.78-.11A19.6,19.6,0,0,1,.76,4.16,3.49,3.49,0,0,0,3.89,5.5C14,5.26,24.14,6.27,34.28,6q6.07-.15,12.15-.18c-4,0-8,.1-11.94.18-9.57.17-19.12-.78-28.69-.75C4.1,5.26,2.27,5.27.77,4.15Z"/><path class="cls-2" d="M2,18.87c.27-1.27,1.29-.83,2-.84q14.55,0,29.11,0c8.4,0,16.8.23,25.19-.1,10.35-.39,20.71,0,31-.43,7.27-.34,14.53-.25,21.8-.23,5.08,0,10.17.53,15.25.76,2.17.1,3.17-1.14,2.71-3.17-.2-.93-1-.63-1.53-.63-3.92,0-7.84,0-11.76,0-5.39,0-10.79.22-16.16-.08-9.79-.54-19.58-.21-29.36-.36a2,2,0,0,1-1-.25c2.26-.19,4.51-.42,6.77-.55,10.54-.62,21.1-.59,31.66-.41,6.65.12,13.26-.59,19.9-.45,1.31,0,1.77-.47,1.67-1.71-.05-.7,0-1.4,0-2.1,1,.33,1.29,1.12,1.29,2.12a40.23,40.23,0,0,1-.4,7.11c-.12.74-.11,1.73-1,1.86-1.22.17-1,.95-1,1.69.33,19.64.79,39.29.53,58.94q-.15,10.38-.33,20.76c-.71,1.46-.26,3-.34,4.54-.1,1.74-.05,3.5-.07,5.25,0,.42,0,.93-.57,1s-.6-.48-.62-.9,0-1.12,0-1.68c.55-21.91.54-43.82.3-65.72-.08-7.41-.33-14.83-.31-22.24,0-1.19-.26-1.78-1.62-1.8s-1.84.51-1.77,1.86c.6,10.13.48,20.28.4,30.42,0,2.69-.61,5.34-.82,8,0-.69,0-1.37,0-2.05.26-6.79-.33-13.56-.5-20.34-.14-5.44-.79-10.86-.73-16.32,0-1.18-.42-1.59-1.59-1.58-3.93.05-3.41-.16-3.6,3a45.14,45.14,0,0,1-.75,7.84c0-2.85-.14-5.72,0-8.57.13-2.1-.46-3-2.64-2.67a11.74,11.74,0,0,1-1.68.07,2.78,2.78,0,0,1-1.93.67c-.42,0-.84,0-1.26,0-19.74-.25-39.46.5-59.2.53-8.59,0-17.2.26-25.81.32-2.83,0-2.93.1-2.93,3q0,34.75,0,69.51c0,5.33,0,10.65,0,16,0,1.11.1,2.26-.76,3.17-1.08.58-1.75.47-1.68-1,.13-2.85.38-5.71.38-8.57,0-26.81,0-53.61.05-80.42,0-2.07-.63-2.68-2.61-2.51a52.43,52.43,0,0,1-5.88,0c-1.15,0-1.68.36-1.62,1.56s0,2.38,0,3.57C8.42,35.92,7.62,47,7.89,58.15a1.48,1.48,0,0,1-.3,1c-.17-2.27-.37-4.55-.51-6.83-.55-8.8-.43-17.61-.42-26.42A30.57,30.57,0,0,1,7,21.49c.18-1.28,0-2.23-1.77-1.84A4,4,0,0,1,2.4,19.3C2.27,19.16,2.14,19,2,18.87Z"/><path class="cls-3" d="M1.62,130.61c.64-.62,1.45-.37,2.2-.38,7.69,0,15.4.24,23.08-.11,11-.51,22.09,0,33.12-.42,13.43-.57,26.85-.35,40.27-.18,6.91.08,13.83,0,20.74.32,2,.09,4,.45,6,.36,1,0,2.11.12,2.26-1.47s-.5-1.87-1.85-2.07c-1.82-.27-3.63-.13-5.44-.25-.8,0-1.69.2-2.45-.7,2.67-.18,5.21-.48,7.74-.49,1.53,0,2.12-.41,2-2-.11-2.72,0-5.45,0-8.18,0-.68-.21-1.41.32-2a1.5,1.5,0,0,1,.86,1.54c.08,4,.54,8-.17,11.92-.16.93.28,1.85.22,2.84-.12,1.77-.8,2.36-2.62,2.32-11.55-.26-23.1-.43-34.66-.58-24.51-.3-49,.31-73.52.59-5.32.06-10.64.27-16,.19C3,131.81,1.77,132.1,1.62,130.61Z"/><path class="cls-4" d="M.33,115.9c2.7-.86,5.39.11,8.07.19,2.21.06,4.45.24,6.68.25,7.83,0,15.66,0,23.49,0a3.77,3.77,0,0,1,1.66.26,17.22,17.22,0,0,1-2.82.51c-8.85.18-17.68,1.24-26.56.88a85.39,85.39,0,0,0-9.19-.4c-.7,0-1.25-.13-1.4-.92C.29,116.44.31,116.17.33,115.9Z"/><path class="cls-5" d="M129.42,7.56a95.25,95.25,0,0,1-15.1-.71c4.13-.33,8.26-.86,12.39-.94,2.16,0,2.93-.64,2.62-2.73-.08-.52-.37-1.1.06-1.62C131.12,3,131.14,6.59,129.42,7.56Z"/><path class="cls-6" d="M1.19,123.46c2.92-.9,5.88-.15,8.81-.37l.05.61-8.47.62Z"/><path class="cls-7" d="M.71,12.58c2.37-1,4.72-.26,7.7.1-2.67.56-4.72,1.11-6.85.33C1.22,13,.86,13,.71,12.58Z"/><path class="cls-8" d="M14.14,79.41A17.88,17.88,0,0,1,14.59,82c.17,5.44.35,10.88.41,16.32.05,4.12-.57,8.22-.38,12.34,0,.71.05,1.46-1,1.48-1.2,0-1.11-.85-1.07-1.61.37-5.76.78-11.52,1.11-17.29.13-2.23.1-4.47.12-6.71s0-4.71,0-7.07Z"/><path class="cls-9" d="M87.15,124.57a29.42,29.42,0,0,1,1.24-3.52,2,2,0,0,1,2.44-1.13,8.61,8.61,0,0,1,3.87,2.37,1.63,1.63,0,0,1-.89,2.86A9.42,9.42,0,0,0,90,126.71a1.47,1.47,0,0,1-1.93.09A2.24,2.24,0,0,1,87.15,124.57Z"/><path class="cls-10" d="M111.68,124.86a2.17,2.17,0,0,1-1.18,2.25c-.83.4-1.49-.1-2-.68a7.62,7.62,0,0,0-3.07-1.7,1.87,1.87,0,0,1-1.37-1.66,2.14,2.14,0,0,1,1.21-2,1.08,1.08,0,0,1,.19-.08C109.8,118.61,111.68,119.79,111.68,124.86Z"/><path class="cls-11" d="M122.12,102c0,1.93-1.31,2.73-2.71,1.88a10.24,10.24,0,0,0-3.84-1.48c-1.67-.26-2.13-1.86-.91-3.11a8.54,8.54,0,0,1,4.23-2.11,1.5,1.5,0,0,1,1.75.85C121.25,99.4,121.71,100.86,122.12,102Z"/><path class="cls-12" d="M58.7,120.32c-7.39,1.12-14.81.46-22.22.35A78.77,78.77,0,0,1,58.7,120.32Z"/><path class="cls-13" d="M92,116.56c0,1.38-.16,2.27-1.26,2.26-1.31,0-1.46-1.17-1.49-2.13s.2-1.87,1.29-1.82A1.56,1.56,0,0,1,92,116.56Z"/><path class="cls-14" d="M124.18,94.85c-.19,1.25-.75,2.23-2,2.38A1.13,1.13,0,0,1,121,95.85c.19-1.13.76-2.11,2.1-2.18C123.9,93.63,124.15,94.2,124.18,94.85Z"/><path class="cls-15" d="M120.23,93.66c0,1.1-.22,2.13-1.43,2.21s-1.3-.82-1.3-1.71.29-2,1.46-2.14S120.1,92.93,120.23,93.66Z"/><path class="cls-16" d="M115.08,118.56c-.35,1.15-.93,2-2.28,2a1,1,0,0,1-1-1.23,2.24,2.24,0,0,1,2.22-2.09C114.73,117.26,115,117.86,115.08,118.56Z"/><path class="cls-17" d="M86.47,116.29c1.41.25,1.78,1.31,2,2.41a.94.94,0,0,1-1.11,1.14,2.16,2.16,0,0,1-1.93-2.09A1.28,1.28,0,0,1,86.47,116.29Z"/><path class="cls-18" d="M108.67,116.7a1.73,1.73,0,0,1,1.65-1.73c.82,0,1.06.77,1,1.52-.08,1.09-.41,2.15-1.68,2.21C108.82,118.74,108.6,118,108.67,116.7Z"/><path class="cls-19" d="M84.73,120.24a2,2,0,0,1,2,1.88c.11.7-.19,1.32-1,1.3-1.17,0-1.72-.87-2-1.87A1,1,0,0,1,84.73,120.24Z"/><path class="cls-20" d="M116.6,95.8c-.17.78-.26,1.69-1.28,1.6S114,96.47,114,95.58s.23-1.67,1.16-1.68C116.32,93.88,116.39,95,116.6,95.8Z"/><path class="cls-21" d="M124.55,97.82c.84.08,1.22.5,1.06,1.25a2,2,0,0,1-2,1.74c-.74,0-1.12-.51-1-1.25A2.07,2.07,0,0,1,124.55,97.82Z"/><path class="cls-22" d="M95.48,118.82c-.18.87-.43,1.8-1.5,1.65-.88-.12-1.14-1-1-1.8s.42-1.78,1.51-1.65S95.45,118,95.48,118.82Z"/><path class="cls-23" d="M107.22,118c0,.82-.21,1.69-1.18,1.65s-1.18-.85-1.14-1.69.3-1.82,1.33-1.76S107.15,117.22,107.22,118Z"/><path class="cls-24" d="M115.59,122.79a1.88,1.88,0,0,1-1.93,1.7c-.68,0-1.25-.35-1.14-1.12a1.81,1.81,0,0,1,1.82-1.63C115,121.69,115.56,121.9,115.59,122.79Z"/><path class="cls-25" d="M.77,4.15c8.51.41,17,.53,25.53,1,6.93.36,13.84.11,20.76.33a4.15,4.15,0,0,1,2.17.25c-.24.7-.73.53-1.1.53-9.51,0-19,1-28.51.36C14,6.23,8.44,6.34,2.85,6.29,1.19,6.28.51,5.8.76,4.16Z"/></g></g></g></svg>