<svg xmlns="http://www.w3.org/2000/svg" viewBox="0 0 135.93 133.32"><defs><style>.cls-1{fill:#91a83d;}.cls-2{fill:#91a840;}.cls-3{fill:#90a73d;}.cls-4{fill:#668732;}.cls-5{fill:#658733;}.cls-6{fill:#638434;}.cls-7{fill:#648631;}.cls-8{fill:#658632;}.cls-9{fill:#658732;}.cls-10{fill:#648531;}.cls-11{fill:#638531;}.cls-12{fill:#755230;}.cls-13{fill:#5a7031;}.cls-14{fill:#785434;}.cls-15{fill:#785633;}.cls-16{fill:#92a942;}.cls-17{fill:#90a742;}.cls-18{fill:#90a743;}.cls-19{fill:#91a743;}.cls-20{fill:#795535;}.cls-21{fill:#775334;}.cls-22{fill:#657e22;}.cls-23{fill:#5f7e22;}.cls-24{fill:#617f21;}.cls-25{fill:#5c7134;}.cls-26{fill:#745532;}.cls-27{fill:#607c21;}.cls-28{fill:#92a742;}.cls-29{fill:#6b802a;}.cls-30{fill:#6a8427;}.cls-31{fill:#91a73f;}.cls-32{fill:#95aa44;}.cls-33{fill:#65801e;}.cls-34{fill:#647d24;}.cls-35{fill:#92a741;}.cls-36{fill:#698227;}.cls-37{fill:#688022;}.cls-38{fill:#90a642;}.cls-39{fill:#6b8327;}</style></defs><g id="Capa_2" data-name="Capa 2"><g id="TIENDA"><g id="Marcos"><path class="cls-1" d="M129.11,128.42a1.33,1.33,0,0,1-1.2.83c-7.35-1.65-13.81-4.75-18.09-11.3a3.1,3.1,0,0,0-2.95-1.57,4.59,4.59,0,0,1-2.65-.4,1,1,0,0,1-.42-.87c.92-1.21,2.25-.69,3.41-.81.92-.53.13-1.1,0-1.6a35.09,35.09,0,0,1-1.84-11.9c.19-3.33,1.18-4.11,4.39-3.23a30.25,30.25,0,0,1,10.85,5.23c8,6.4,10.52,14.88,9.33,24.75a1.27,1.27,0,0,1-.78.82,9.84,9.84,0,0,1-2.59-3.25c-3.62-5.75-8-10.93-12-16.37a13.85,13.85,0,0,0-1.06-1.53C118.79,114.2,123.38,121.73,129.11,128.42Z"/><path class="cls-2" d="M6,5.67a1.35,1.35,0,0,1,.72-.91A1.86,1.86,0,0,1,8,5.81c4,6.41,8.79,12.26,13.19,18.39a6.93,6.93,0,0,0,1.11,1.5C17.37,19.23,13.54,12.62,8.79,6.64c-.46-.58-1.23-1.2-.76-2s1.43-.46,2.11-.26c6.44,1.89,12.32,4.65,16,10.69a3.08,3.08,0,0,0,2.81,1.83c.58,0,1.3,0,1.53.79-.23,1.16-2.16.17-2.06,1.54A16.65,16.65,0,0,0,29.28,22,33.88,33.88,0,0,1,30.52,32.8c-.17,3-1.08,3.53-3.92,2.88a28,28,0,0,1-6.27-2.35,6.4,6.4,0,0,0-2.54-.94c-.95-.2-1.28-1.08-1.85-1.7C7.45,24.4,4.77,15.81,6,5.67Z"/><path class="cls-3" d="M6.7,128.42a1.22,1.22,0,0,1-.72-.84c-1-7.19.17-13.87,4.61-19.8,1.42-1.89,3.45-3.27,4.52-5.46a12.4,12.4,0,0,0,3.42-1.45,34.61,34.61,0,0,1,8.08-3.34c2.63-.77,3.59-.12,3.9,2.64a27,27,0,0,0,.21,2.7c-.35,4-.8,8-2.7,11.72-3.56,7.68-9.84,12-17.75,14.19-.9.25-1.89.71-2.76-.15-.25-.74.28-1.18.66-1.65,5.17-6.23,9.32-13.19,14.25-19.59-5.21,6.82-10.31,13.72-15.22,20.76A.8.8,0,0,1,6.7,128.42Z"/><path class="cls-4" d="M30.41,17.53c-2.85.47-4.16-1.14-5.61-3.39-2.39-3.71-6.17-6-10.24-7.61A17.34,17.34,0,0,0,8.12,4.74,232.66,232.66,0,0,1,23,26.79c-5.8-7.07-11.65-14.1-16.27-22C14.25-.38,25.38-2,33.39,3.05c1.23.78,2.27,1.87,3.72,2.28A25.49,25.49,0,0,1,40,7.1c1,1.41,2.18,2.7,3.07,4.2.51.87.73,1.83-.28,2.36-2.32,1.21-2.42,3.33-2.6,5.5-.06.82.24,1.89-1,2.14-.91-1.32-1.26-3-2.4-4.15-1.35-.19-2.53.53-3.82.66C32.08,17.89,31.19,18.24,30.41,17.53Z"/><path class="cls-5" d="M7.68,128.37c1.05.48,2-.06,2.94-.35,7.44-2.21,13.4-6.26,16.77-13.52l.58.14c1.48.32,3-.09,4.5.3a1.9,1.9,0,0,1,.49.3c1,1,2.72.24,3.69,1.41,1.7,1.35,3.85,1.86,5.69,2.95.85.5,1,.85.43,1.74C34.45,133.14,21,136.92,7.3,129a3.29,3.29,0,0,1-.6-.58.46.46,0,0,0,.25-.08A.48.48,0,0,1,7.68,128.37Z"/><path class="cls-6" d="M104.33,115.75c3.26-.47,5.37.65,7.33,3.58,3.36,5,8.92,7.19,14.51,9,.66.21,1.4.19,1.74.95A24.33,24.33,0,0,1,99.63,128c-.61-.46-1.12-1.09-2-.87a9.55,9.55,0,0,0-2.12-1.78A34.65,34.65,0,0,1,93.07,122c-.56-.91-.77-1.94.17-2.63a20.88,20.88,0,0,1,10.33-3.93A1.5,1.5,0,0,1,104.33,115.75Z"/><path class="cls-7" d="M94.7,15.78c-.24-.57.2-1.45-.41-1.76-2.57-1.3-.84-2.53.06-3.63,6.54-8,14.68-12,25.2-9.77a10.22,10.22,0,0,1,1.17.42c1.53,1.15,1.72,2.86,1.92,4.57-.2,1.06-1.1,1.42-1.91,1.75a22.84,22.84,0,0,0-10.52,9.17,7.22,7.22,0,0,1-1.77,1.76,1.63,1.63,0,0,1-1.17.31,11,11,0,0,0-3.77-.52c-2.28-.55-4.37-1.94-6.87-1.53A1.83,1.83,0,0,1,94.7,15.78Z"/><path class="cls-8" d="M122.42,5.7,120.72,1c8.71,1.44,12.59,7.63,14.51,15.32,2.29,9.21-1.2,16.82-7.46,23.44-.7.73-1.23.7-1.83-.11-.9-1.24-1.85-2.45-2.78-3.67-.28-.38-.44-.92-1.09-.74-.73-.9-.8-2.11-1.45-3a4.12,4.12,0,0,1-.46-1.48,3.7,3.7,0,0,1,1.46-3.1c6.47-5.92,7.95-13.45,7-21.74-.21-.45-.65-.46-1.06-.52a5.84,5.84,0,0,0-3,.4C123.85,6,123.11,6.35,122.42,5.7Z"/><path class="cls-9" d="M15.24,102.38a2.72,2.72,0,0,1-1.12,2.55,23.54,23.54,0,0,0-7.41,12.83c-.59,2.52-.26,5.11-.35,7.66,0,.75.33,1.54-.38,2.16-6.65-8.79-8.08-18.07-2.63-28,.16-.31.27-.64.41-1A10.47,10.47,0,0,1,5,95.2c1-.08,1.38-1,2-1.65,1.63-1.66,2.65-1.65,4.07.15a34.06,34.06,0,0,1,4.06,6.76C15.44,101.06,15.83,101.72,15.24,102.38Z"/><path class="cls-10" d="M6,5.67c.91,1.41.4,3,.36,4.46A24.22,24.22,0,0,0,9.57,22.87a27.16,27.16,0,0,0,6.93,7.6,18.6,18.6,0,0,1-1.29,1.77c-1.43,2.12-2.79,4.28-4.31,6.33-1.75,2.37-1.81,2.33-3.76.21C-1.92,28.92-2.36,16,6,5.67Z"/><path class="cls-11" d="M129.93,127.55c-.82-1.14-.41-2.44-.35-3.64a26.54,26.54,0,0,0-3-13.26,21,21,0,0,0-5.25-6.37,12.79,12.79,0,0,1-1.08-1.24,1.18,1.18,0,0,1-.06-1.2,32.54,32.54,0,0,1,5.14-8.54c1.21-1.36,2-1.32,3.26.1a9.11,9.11,0,0,0,2.31,2.07c.68.93.77,2.16,1.51,3.06,0,1.48,1,2.61,1.51,3.88C137.9,111.65,135.69,119.87,129.93,127.55Z"/><path class="cls-12" d="M15.21,32.24c-.4-1.19.32-1.58,1.29-1.77l1.18,1.67c1,.47,1.24,1.47,1.48,2.4a35.13,35.13,0,0,1,1.4,10.09,24.62,24.62,0,0,0,.08,4.46,43.08,43.08,0,0,1-8.07,19.77c-1.21,1.62-2.36,3.3-3.52,5a4.73,4.73,0,0,0-1,1.82c-.17.4-.23.83-.39,1.23A31.9,31.9,0,0,0,5.63,93a2.48,2.48,0,0,1-.39,2.17,4.51,4.51,0,0,1-1.48,3.48C.27,87.47,2.37,77.31,9.22,68c.95-1.29,1.86-2.61,2.79-3.92.08-.34-.1-.69,0-1A6,6,0,0,1,12.76,62a6.55,6.55,0,0,0,.84-1.67,43.6,43.6,0,0,0,2.56-7c.38-1.56,0-2.23-1.66-2.08-2,0-4.09.37-5.48-1.6-.33-.47-1.18-1.08,0-1.59a27.34,27.34,0,0,0,7.06.15c1.23-.2,1.6-.72,1.61-1.91A38.39,38.39,0,0,0,15.21,32.24Z"/><path class="cls-13" d="M94.7,15.78l2.1.42c.85.88.5,2.08.83,3.11a26.15,26.15,0,0,1,.71,2.77c1.06,11.84,4.16,22.93,12,32.17A23.14,23.14,0,0,0,121,61.08c1.19.67,2.61.67,3.8,1.35a22.27,22.27,0,0,0,8.49-.36c.81-.15,2-.74,2.28.58s-.79,1.72-1.88,1.91a20.61,20.61,0,0,1-6.82.51,7.19,7.19,0,0,1-3.3.58c-2.89-.86-5.84-1.57-8.47-3.14-.8-.49-1.68-.84-2.45-1.38-7.77-5.57-11.91-13.55-14.77-22.36A81.85,81.85,0,0,1,94.6,23c-.16-.84-.64-1.7.05-2.52C95.13,18.9,94.37,17.33,94.7,15.78Z"/><path class="cls-14" d="M95.89,125.42c1,.12,2.17.14,1.73,1.73a32.17,32.17,0,0,1-29.07-3.59c-4.6-3-9.26-5.74-14.66-7-1.17.28-2.35-.42-3.53,0a1.77,1.77,0,0,1-.82.16c-.57-.37-.55-1.44-1.54-1.32a44.7,44.7,0,0,0-11.35,1.19c-1.13-.15-2.25-.32-3.38-.45-.68-.08-.48-.48-.36-.87.27-.77,1-1,1.63-1.16,4.87-1.35,9.76-2.5,14.87-1.72,9.62,1,17.39,6.23,25.25,11.22.21.62.71.29,1.1.32a3.36,3.36,0,0,1,.82.3c.84.39,1.76.53,2.62.84a31,31,0,0,0,14.49,0A2.37,2.37,0,0,1,95.89,125.42Z"/><path class="cls-15" d="M94.65,20.45l.44,2.24c-.93,1.38-2.35.85-3.61.95-1.58-.21-3.17.08-4.74-.11a26.92,26.92,0,0,1-13.42-4,60.59,60.59,0,0,1-8.95-6.82A19.71,19.71,0,0,0,62,11a5.79,5.79,0,0,1-.54-.31,6.24,6.24,0,0,1-.72-.55,7.58,7.58,0,0,0-2.07-1.22A26,26,0,0,0,41.17,7.05,2,2,0,0,1,39.55,7c-1.37.31-1.87-.71-2.44-1.62,7.46-3.15,14.83-2.75,22.11.58a37.93,37.93,0,0,1,8.36,5.51c3.44,2.83,6.82,5.76,11.1,7.32a10.79,10.79,0,0,1,3.33.63,2.69,2.69,0,0,1,.84.23,3.16,3.16,0,0,1,.44.38A28.07,28.07,0,0,0,94.65,20.45Z"/><path class="cls-16" d="M9,48.07a2.79,2.79,0,0,0,2.71,2.52c1,.12,2.06.07,3.09.09-.71,1.59-1.77.88-2.61.7C14.42,54,14.46,57.29,14,60.72c0,.74-.55,1.14-.87,1.69-1.09.53-1.32-.49-1.64-1C9.74,58.44,8,55.52,6.7,53.12,8,56.3,10.62,59.49,12.26,63.24c0,.31.08.64-.25.84-.25-.59-.81-.69-1.33-.88-6.32-2.36-9.43-6.92-9.2-13.55,0-.73.05-1.37-.58-1.86a2.8,2.8,0,0,1,1.28-2.17C4.67,45.86,6.66,47.52,9,48.07Z"/><path class="cls-17" d="M48,115.46c1.13-.45,1.23.64,1.71,1.16,2.32,3.06,4,6.51,5.63,9.15-1.4-2.82-3.6-6-5.21-9.56,1.36-1,2.53,0,3.76.37-.09.85.72.89,1.16,1.21,4.94,3.53,6.29,8.43,5.49,14.18-.18,1.26-.78,1.54-2,1.24a13.5,13.5,0,0,1-9.87-15.55C48.82,116.78,49.31,115.87,48,115.46Z"/><path class="cls-18" d="M83.29,20l-.42,0C81.71,19.31,81.82,18,81.4,17,80.12,14,78.57,11,77.84,9c.85,2.24,2.44,5.42,3.62,8.77.25.71.76,1.35.53,2.18a8.86,8.86,0,0,1-3.31-1.17c.31-.9-.6-1-1-1.31-4.8-3.82-5.28-9.39-4-14.68.36-1.46,1-1.67,2.42-1.08A13.66,13.66,0,0,1,84,17.36C83.8,18.24,83.53,19.1,83.29,20Z"/><path class="cls-19" d="M122,55.69c1,1.12.76.08.86-.46,1.15-6.1,5-10.18,10.76-11.51,1.4-.33,1.79,0,2,1.37a13.26,13.26,0,0,1-11.59,15.2c-.29-.66.25-1,.55-1.46,2-2.82,3.87-5.71,5.5-7.95-1.43,2.23-3.63,4.74-5.36,7.59-.38.64-.78,1.4-1.78,1C122.11,58.37,121.12,57.26,122,55.69Z"/><path class="cls-20" d="M123.68,65.36a4.36,4.36,0,0,1,3.19-.28c-.4,1.16.6,1.78,1.08,2.55,5.65,9.18,7.7,19,4.93,29.53-.12.47-.33.92-.49,1.37-1.6-.4-1.53-1.73-1.63-3a1.86,1.86,0,0,1-.32-1.79c1.27-6.54,0-12.8-2.11-19a11.54,11.54,0,0,0-.44-1.16,14.42,14.42,0,0,0-.93-1.5c-1-1.67-1.84-3.45-2.95-5.07C123.66,66.59,123.3,66,123.68,65.36Z"/><path class="cls-21" d="M122,55.69c0,1.41.83,2.53,1.24,3.79a1.22,1.22,0,0,1,.47.89c0,.89,1,1.2,1.07,2.06-1.33.4-2.47-.25-3.66-.63a36,36,0,0,1-2.24-25.95c.38-1.37.59-2.91,2-3.75a3.55,3.55,0,0,1,1.14,3.18A37,37,0,0,0,122,55.69Z"/><path class="cls-22" d="M123.73,60.37a.93.93,0,0,1-.47-.89l7.12-9.68a1.65,1.65,0,0,1,1.33-1,74.8,74.8,0,0,1-7.64,11.45A.59.59,0,0,1,123.73,60.37Z"/><path class="cls-23" d="M129.11,128.42c-2-.52-2.75-2.35-3.78-3.75a207.59,207.59,0,0,1-12.7-18.61c6,7.1,12,14.14,16.52,22.31Z"/><path class="cls-24" d="M7.68,128.37l-.74,0c.78-2.43,2.52-4.28,3.92-6.32,3.7-5.4,7.78-10.52,11.82-15.67.17-.21.3-.48,1-.29C18.48,113.69,13.66,121.43,7.68,128.37Z"/><path class="cls-25" d="M19.93,44.63c.42,2.58.45,2.63,2.85,1.28,6.9-3.9,10.5-10.2,12.64-17.53,1.17-4,1.47-8.09,2-12.16.36,1.79,2.06,3.12,1.79,5.13-1.19,8.58-3.39,16.75-10,22.93-2.57,2.39-5.37,4.45-8.94,5.12C19.54,47.86,19.94,46.23,19.93,44.63Z"/><path class="cls-14" d="M27.47,115c1.81.13,3.67-.54,5.44.33C31.1,115.14,29.25,115.73,27.47,115Z"/><path class="cls-3" d="M120.65,31c-.48-.87-1-.84-1.81-.29a35,35,0,0,1-10.52,4.6c-1.63.42-2.18,0-2.23-1.6-.16-5.08.12-10.08,2.33-14.78.17-.36.72-.91-.29-1,1.62-1.07,2.37-2.87,3.49-4.33a22.41,22.41,0,0,1,8.84-6.75,19.31,19.31,0,0,0,2-1.15c1.37-.35,2.76-.66,4.12-1,.68-.2,1.21-.25,1.35.63.22.56-.17.94-.46,1.29-5.13,6.19-9.33,13-13.2,18.45,3.41-5.3,8.39-11.14,12.6-17.53a5.45,5.45,0,0,1,1.88-2.19,1.29,1.29,0,0,1,.79,1.14c.46,8.08-.78,15.58-7.15,21.37C121.41,28.67,120.48,29.52,120.65,31Z"/><path class="cls-26" d="M107.32,18.39A29,29,0,0,1,98,22a4.3,4.3,0,0,1-.82-2.35c2-1.05,3.89-2.15,6.25-1.82C104.83,17.33,106.19,17.09,107.32,18.39Z"/><path class="cls-27" d="M128.71,5.3c-1.89,3.68-4.47,6.91-6.87,10.26s-4.79,6.52-7.22,9.75a4.24,4.24,0,0,1-2.21,1.74c5.06-7.75,9.68-15.17,15.48-21.77C128.16,5.2,128.45,4.85,128.71,5.3Z"/><path class="cls-28" d="M9,74.16A13.64,13.64,0,0,1,22.49,87.33c0,1.32-.43,1.67-1.69,1.62-7.14-.27-13-5.9-13.19-11.92,0-.24-.22-.47-.33-.71a.77.77,0,0,1,.41-.85c2.91,1.36,4.77,4,7.19,5.93.64.51,1.17,1.15,1.77,1.72a70.52,70.52,0,0,1-6.8-7C9.4,75.53,8.59,75.11,9,74.16Z"/><path class="cls-29" d="M9,74.16c2.81,3.55,6.07,6.69,9.16,10l-.48.49L7.69,75.47a1.52,1.52,0,0,1,.82-1.7Z"/><path class="cls-30" d="M12.26,63.24A50.87,50.87,0,0,1,5,50.59a11.43,11.43,0,0,1,3,3.86c1.43,2.36,2.75,4.81,4.09,7.23a1.2,1.2,0,0,0,.93.73Z"/><path class="cls-31" d="M115.27,62c-.61,1.29-.14,2.69-.4,4-.69,3.59-4.21,7.28-7.75,8-1.4.28-1.29-.77-1.4-1.51a10.19,10.19,0,0,1,6.08-11c.43-.2.83-.47,1.24-.71Z"/><path class="cls-32" d="M74.91,124.17c.63-5.92,3.57-10.08,9.25-12.17a24.7,24.7,0,0,1,4.7-.8c1.87-.12,2.37.61,2,2.29-.14.61-.24,1.22-.36,1.83A13.18,13.18,0,0,1,79.68,125c-.41.08-.85.08-1.07.54a4.56,4.56,0,0,1-2.35-.87c.16-1.21,1.28-1.58,2-2.21,2.42-2,4.57-4.28,6.46-5.61-2.79,1.83-5.39,5.2-9,7.3C75.46,124.18,75.22,124.63,74.91,124.17Z"/><path class="cls-33" d="M75.74,124.11a60.32,60.32,0,0,1,10.69-8.81,58.4,58.4,0,0,1-10.17,9.33C76.08,124.46,75.91,124.28,75.74,124.11Z"/><path class="cls-34" d="M50.13,116.21A21,21,0,0,1,54,122.32a54.51,54.51,0,0,1,2.62,5.77c-2.37-3.8-5.47-7.14-6.93-11.47Z"/><path class="cls-19" d="M61.91,10.34C61,15.09,59,19.05,54.21,21.09a16.82,16.82,0,0,1-7.4,1c-1,0-1.25-.62-1.2-1.54A12.63,12.63,0,0,1,55.79,9.46c1.19-.19,2.5.11,3.53-.8A2.63,2.63,0,0,1,61,9.91c-2.94,2.43-6.2,4.43-8.7,6.55,2.77-1.8,5.64-4.42,9.1-6.18Z"/><path class="cls-35" d="M91.31,23c-1,.18-1.27.63-1.15,1.71A9.74,9.74,0,0,1,82,35.37c-1.2.21-1.6-.06-1.63-1.32-.14-5.07,1.93-8.28,6.84-10.41,0-.58-.69-.32-.9-.66Z"/><path class="cls-36" d="M82,19.91A66.07,66.07,0,0,1,76.85,6.42c2.21,4.42,4.8,8.66,6,13.52Z"/><path class="cls-37" d="M61.43,10.28c-1.19,1.7-3.1,2.5-4.69,3.69a48,48,0,0,1-6.4,4c3.39-2.92,6.36-6.39,10.7-8.06Z"/><path class="cls-38" d="M128.64,74.3c-.4,1.68-.73,3.38-1.21,5-1.37,4.63-7.07,8.64-11.89,8.49-.83,0-1.06-.3-1.16-1.06-1-7.08,5.43-14.38,12.64-14.25.66.95-.2,1.39-.68,1.9-2.4,2.61-4.7,5.31-6.54,7.54,2-2.27,4.42-5.07,6.87-7.82.4-.45.78-1,1.56-.84A1.09,1.09,0,0,1,128.64,74.3Z"/><path class="cls-39" d="M128.23,73.29c-2.74,2.47-4.63,5.71-7.4,8.15A10.72,10.72,0,0,1,119,83.15a28.81,28.81,0,0,1,4.71-6.72c1.1-1.31,2.76-2.15,3.32-3.92l.5-.4Z"/></g></g></g></svg>