<svg xmlns="http://www.w3.org/2000/svg" viewBox="0 0 130.94 130.12"><defs><style>.cls-1{fill:#6a5c55;}.cls-2{fill:#8c8d89;}.cls-3{fill:#6c6c6e;}.cls-4{fill:#927a62;}.cls-5{fill:#a9a9a9;}.cls-6{fill:#68635f;}.cls-7{fill:#6a5f59;}.cls-8{fill:#adadad;}.cls-9{fill:#937c64;}.cls-10{fill:#8f7962;}.cls-11{fill:#6a5e56;}.cls-12{fill:#8c8c88;}.cls-13{fill:#8f7a62;}.cls-14{fill:#73746e;}.cls-15{fill:#806651;}.cls-16{fill:#927c67;}.cls-17{fill:#757670;}.cls-18{fill:#90908f;}.cls-19{fill:#826954;}.cls-20{fill:#979796;}.cls-21{fill:#929291;}.cls-22{fill:#aaa;}</style></defs><g id="Capa_2" data-name="Capa 2"><g id="TIENDA"><g id="Marcos"><path class="cls-1" d="M122.91,110.55c3.74,1.62,6.09,4.35,6.6,8.46a6.76,6.76,0,0,1-3.26,7,12,12,0,0,1-4.08,1.6,43,43,0,0,1-15.43.32c-3.94-.62-7.57-1.92-10.23-5.12-1.41-1-1-2.55-1.06-4a8.1,8.1,0,0,1,2.77-4.79,14.25,14.25,0,0,1,4.32-2.73,14.36,14.36,0,0,0,2.49-1.77c1.86.36,3.57-.34,5.32-.7a8,8,0,0,1,2.28-.2c2.2.19,4.34-.8,6.59-.15A6.37,6.37,0,0,1,122.91,110.55Z"/><path class="cls-2" d="M123,42.47c.42.56,1.31.18,1.68.83,2.62,2.39,3.25,5.67,3.08,8.85-.42,7.88-1,15.79-3.47,23.39a11.28,11.28,0,0,1-3,5c-2.79,2.6-5.91,2.72-8.87.32-.39-.31-.79-.58-1.19-.87-1.52-1.81-1.37-4.12-1.42-6.19a59.67,59.67,0,0,1,5.72-27.56A8.8,8.8,0,0,1,117,44.18c.37-.41,1.44-.54.65-1.47A7.23,7.23,0,0,1,123,42.47Z"/><path class="cls-3" d="M27.59,124.36a8.58,8.58,0,0,1-4.06,2.87,22.16,22.16,0,0,1-12,1.11C2,126.48,2,118.21,5.46,112.6a17.25,17.25,0,0,1,3.59-3.8c1.3-2.5,3.59-3.29,6.17-3.49a30.66,30.66,0,0,1,3.32,0c3.39.35,5.51,2.63,7.57,5a20.93,20.93,0,0,1,2.05,4,12.84,12.84,0,0,1,1.3,5.12C29.37,121.27,29.25,123.11,27.59,124.36Z"/><path class="cls-4" d="M27.59,124.36c.45-1.68,1.42-3.22,1.29-5,1.75-1.91,3.3-4,5.84-4.69-.37-.05-1.18.44-1.3-.65.13-.17.27-.38.47-.41,4.82-.57,9.35-2.82,14.32-2.56a48.92,48.92,0,0,1,14.59,2c1.75.55,3.7.91,4.56,2.91.3,3.82-2.37,5.45-5.21,6.79a37.46,37.46,0,0,1-13,3c-5.63.48-11.27,1.23-16.92.19a16.45,16.45,0,0,1-3.85-1Z"/><path class="cls-5" d="M4,69.85A33.36,33.36,0,0,1,.71,48.61a10.94,10.94,0,0,1,5.4-7.38c.36-.22.75-.37.86-.83,1.7-1.11,3.44-1.52,5.27-.31,2,2.95,2.2,6.43,2.81,9.77a41.44,41.44,0,0,1,.61,9.38,15.1,15.1,0,0,1-3.44,9.26A6.17,6.17,0,0,1,4,69.85Z"/><path class="cls-6" d="M46.05,8.36c5.29-4.07,11-5.91,17.53-3.27a9.07,9.07,0,0,1,4.81,4.13C70,11,70.16,13.14,69.76,15.38A7.8,7.8,0,0,1,63,20.9c-5,.74-10.17.94-15.12-.7-2.73-.9-5.17-2.29-5.35-5.69C42.63,11.85,43.13,9.41,46.05,8.36Z"/><path class="cls-7" d="M123,42.47c-1.8.68-3.69.29-5.54.48-1,.64-1.74.14-2.49-.39a6.44,6.44,0,0,1-2.76-3.83c-1.07-5-1.39-10.09.6-15a7.18,7.18,0,0,1,2.09-3.08c2.52-2.26,4.62-2.4,6.49-.45a16.26,16.26,0,0,1,9.45,13.3c.33,2.63-1.38,4.56-3.23,6.24A23.41,23.41,0,0,1,123,42.47Z"/><path class="cls-8" d="M68.75,9.21C69.56,3.66,73.51.69,78.82.15A32,32,0,0,1,98.28,4.74,6.75,6.75,0,0,1,99.45,5.9a3.63,3.63,0,0,1-.9,3.1,11.56,11.56,0,0,1-6,4.31,41.46,41.46,0,0,1-13,2.06,16.89,16.89,0,0,1-7.61-2.1C70.3,12.42,68.89,11.28,68.75,9.21Z"/><path class="cls-9" d="M122.91,110.55c-2.68-1.26-5.39-2.18-8.43-1.32a7.27,7.27,0,0,1-2.08,0c.83-.9.85-1.67.42-3a18.55,18.55,0,0,1,2-16.56,5.67,5.67,0,0,1,2.4-2c1.68,0,3.33-.72,5-.26,5.3,3.52,7.76,8.56,7.85,14.82.06,4.08-1.93,6.51-5.9,7.45C123.68,109.83,122.77,109.43,122.91,110.55Z"/><path class="cls-8" d="M18.77,105.91c-3.62-.3-7,.22-9.72,2.89-.14-1-.87-.41-1.3-.41a6.9,6.9,0,0,1-7-6.82C.55,97.76,1.11,94.19,4,91.35c1.1-1.07,2.53-1.41,3.76-2.17,1.72-1,3.32,0,5,.29,1,.39,1.9.85,2.84,1.29a9.74,9.74,0,0,1,5,5.14C22.3,99.85,21,103.1,17,105,17.74,105.1,18.67,104.72,18.77,105.91Z"/><path class="cls-10" d="M12,40.39c-1.68-1-3.37.36-5,0-3.14-1.16-5.72-2.9-5.64-6.66.09-4.21,1.14-8,5.37-10.15.68-.33,1.76-.16,1.94-1.28,2.2-.84,4.32.17,6.48.27,3.67,2.74,5.57,6.59,6.55,10.91,1.11,4.89-1.39,7.88-6.39,7.92C14.11,41.33,12.82,41.65,12,40.39Z"/><path class="cls-11" d="M12.91,90,7.8,89.18A14.92,14.92,0,0,1,3,87.28c-3.56-2.34-4-6.51-.83-9.41a11.52,11.52,0,0,1,6.06-3.11c2.2-1.08,4.59-.87,6.93-1,3.84.46,7.74,4.42,8.05,8.2C23.6,87.33,18.27,91.48,12.91,90Z"/><path class="cls-12" d="M2,12.25a12.36,12.36,0,0,1,9.81-8.69c5.09-1,10.12-1,14.6,2.23,1.31,6.13-.95,9.59-7.13,11A35.42,35.42,0,0,1,9.55,17.9a8.66,8.66,0,0,1-6-2.56A3.89,3.89,0,0,1,2,12.25Z"/><path class="cls-13" d="M101.53,8c5.38-6.44,15.58-7.43,22-2.13,1.11,4.31-.45,7.14-4.67,8.88-5.43,2.25-11,2.39-16.67,1.39a9.38,9.38,0,0,0-2.69-.36,1.15,1.15,0,0,1-.92-.95C98.35,12,98.84,9.51,101.53,8Z"/><path class="cls-14" d="M122.22,87.45c-1.54.38-3,1.14-4.69.39a2,2,0,0,1-1.77-.24c-2.44-1.23-4.67-5.26-4.22-7.63.3-.4.6-.24.85,0,3.78,4,8.68,1.29,10.55-2.8s2.36-8.26,3-12.51c.5-3.57,1-7.16,1.19-10.75.2-3.35-.12-6.68-2.1-9.6-.2-.29-.74-.54-.33-1.05,4.23,2.11,5.13,6.17,5.86,10.25,1.1,6.17-.25,12.22-1.05,18.29a37.08,37.08,0,0,1-2.24,10A10.38,10.38,0,0,1,122.22,87.45Z"/><path class="cls-15" d="M28.36,124.92c1.73-.79,3.36.25,5,.42a65.05,65.05,0,0,0,10.63,0A81.85,81.85,0,0,0,55.81,124c3.49-.72,6.82-1.7,9.64-4.22,1.3-1.17.74-2.78,1.77-3.83,2.28,0,3,1.71,3.63,3.41.08,1.05-.57,1.94-.59,3-.15.75.29,1.67-.58,2.23a16,16,0,0,1-7.49,3.56A83.12,83.12,0,0,1,38,130a16.09,16.09,0,0,1-6.09-1.45A6,6,0,0,1,28.36,124.92Z"/><path class="cls-16" d="M46.05,8.36a7.6,7.6,0,0,0-2.95,6c-1.26,2.15-3.37,2.54-5.56,2.45a10.94,10.94,0,0,1-7.49-3.13c-.31-2.3-1.43-4.36-2-6.58,1.49-3.46,4.3-5.32,7.78-6.32,5.63-1.63,9.57,1.17,10,7C45.78,8,46,8.19,46.05,8.36Z"/><path class="cls-17" d="M28,7.13a7.79,7.79,0,0,1,2.14,6.42c.84,1,.49,2.11,0,3.16a8.2,8.2,0,0,1-3.72,3.84,22.18,22.18,0,0,1-8.28,2.74,3.73,3.73,0,0,1-3.2-.55c-2.17.53-4.26-.17-6.38-.43C2.88,20.77.44,17.05,2,12.25c2.71,5,6.12,5.44,11.91,4.83,1.92-.2,3.81-.73,5.72-1.07,4.84-.86,7.07-3.92,6.34-8.73-.09-.59-.11-1.11.44-1.49A3.81,3.81,0,0,1,28,7.13Z"/><path class="cls-18" d="M15.46,74.34c-2.44,0-4.82.79-7.28.42C6.7,73.2,4.76,72,4,69.85c.81-.57,1.34.36,2.09.39,3.7.2,6.1-1.52,7.73-5.47a21.42,21.42,0,0,0,1.12-10.32A50.66,50.66,0,0,0,12,40.39c1.1.63,2.34.25,3.49.5-.08,1.18,1,1.8,1.35,2.77a43.63,43.63,0,0,1,2.48,22.22,13.68,13.68,0,0,1-3,6.41A3.48,3.48,0,0,0,15.46,74.34Z"/><path class="cls-19" d="M99.44,15.57c.12-.73.51-.87,1.2-.65a27.26,27.26,0,0,0,18-.76c3.24-1.21,4.81-3.76,4.42-7.42a.92.92,0,0,1,.42-.89,22.5,22.5,0,0,1,1.78,1.41c4.56,4.38,3.4,9.67-2.54,11.84-.5.18-1.61-.17-1.35,1.06a4.69,4.69,0,0,0-6.09.83,25,25,0,0,1-11-.57A8.94,8.94,0,0,1,100,17.61C99.49,17,98.88,16.44,99.44,15.57Z"/><path class="cls-20" d="M101.53,8C100,10,98.77,12.05,99,14.7a5.21,5.21,0,0,1-2,1.75,31.62,31.62,0,0,1-20.75,2.41c-2.65-.61-4.74-2.26-7-3.64.5-2.12-.42-4-.88-6a.87.87,0,0,0,.36,0c2.18,4.1,6.18,5.09,10.22,5.44a34.25,34.25,0,0,0,14-2.17A10.32,10.32,0,0,0,99.45,5.9C100.35,6.38,100.53,7.59,101.53,8Z"/><path class="cls-21" d="M69.68,124.52l0-2.22c.78-.24,1.33.27,1.92.61A14.85,14.85,0,0,0,79.82,125c3.19-.17,6.43-.2,9.47-1.5,2.4-1,3.93-2.62,4.06-5.34a2,2,0,0,1,.77-1.85c1.67-.14,1.37,1.46,2,2.25a10.53,10.53,0,0,0,.41,4.25c-.52,4.21-3.8,5.51-7.15,6.34a28.59,28.59,0,0,1-11.87.43A10.83,10.83,0,0,1,69.68,124.52Z"/><path class="cls-22" d="M70.47,119.35c3.73-2.69,7.39-5.51,12-6.54.22,0,.37-.39.56-.59,4.2-.75,8,1,11.86,2l-1.73.26,1.25,1.88c-1,1.31-.11,3-.92,4.41-1.59,2.84-4.36,3.87-7.12,4.26-4,.55-8,1.26-12-.18a14.8,14.8,0,0,1-4.73-2.58C69.42,121.17,70.32,120.36,70.47,119.35Z"/></g></g></g></svg>