<svg xmlns="http://www.w3.org/2000/svg" viewBox="0 0 119.91 129.57"><defs><style>.cls-1{fill:#744821;}.cls-2{fill:#be8d60;}.cls-3{fill:#be8f62;}.cls-4{fill:#ba8a5b;}.cls-5{fill:#ba8b5e;}.cls-6{fill:#be8d5f;}.cls-7{fill:#be8c5c;}.cls-8{fill:#c29160;}.cls-9{fill:#b8875a;}.cls-10{fill:#c09161;}.cls-11{fill:#c08f5e;}.cls-12{fill:#be8c5d;}.cls-13{fill:#bd8b5d;}.cls-14{fill:#b88656;}.cls-15{fill:#bd8c5b;}.cls-16{fill:#b98957;}.cls-17{fill:#bc8d5e;}.cls-18{fill:#ba8959;}.cls-19{fill:#ba8a59;}.cls-20{fill:#bf8d5f;}.cls-21{fill:#be8f60;}.cls-22{fill:#bc8b5d;}.cls-23{fill:#bd8b5f;}.cls-24{fill:#b9895a;}.cls-25{fill:#bd8c5c;}.cls-26{fill:#bc895a;}.cls-27{fill:#be8b5d;}.cls-28{fill:#ba895b;}.cls-29{fill:#bd8d5c;}.cls-30{fill:#bc8a5b;}.cls-31{fill:#bb8a5c;}.cls-32{fill:#bb895b;}.cls-33{fill:#bf8e5d;}.cls-34{fill:#bc8b5c;}.cls-35{fill:#be8c5e;}.cls-36{fill:#b98759;}.cls-37{fill:#c19064;}.cls-38{fill:#bf8d60;}.cls-39{fill:#bb895d;}.cls-40{fill:#bd8d60;}.cls-41{fill:#bc8c5d;}.cls-42{fill:#bc8b5e;}.cls-43{fill:#bb8c5c;}.cls-44{fill:#bc895c;}.cls-45{fill:#c18f61;}.cls-46{fill:#c39565;}.cls-47{fill:#ba885a;}.cls-48{fill:#be8e5d;}.cls-49{fill:#bb885a;}.cls-50{fill:#bd8a5c;}.cls-51{fill:#bd8a5e;}.cls-52{fill:#ba895a;}.cls-53{fill:#b68454;}.cls-54{fill:#bd8c5e;}.cls-55{fill:#b8885d;}.cls-56{fill:#c4976a;}.cls-57{fill:#bc8b5b;}.cls-58{fill:#bc8a5e;}.cls-59{fill:#c49565;}.cls-60{fill:#bd8f60;}.cls-61{fill:#bd8c60;}.cls-62{fill:#bb895a;}.cls-63{fill:#bd8d5e;}.cls-64{fill:#c29261;}.cls-65{fill:#bb8b5b;}.cls-66{fill:#bf8e60;}.cls-67{fill:#bd8c5d;}.cls-68{fill:#bf8d5e;}.cls-69{fill:#b98756;}.cls-70{fill:#c29062;}.cls-71{fill:#b98758;}.cls-72{fill:#c08e5e;}.cls-73{fill:#b48255;}.cls-74{fill:#bf8e5f;}.cls-75{fill:#bb8a5a;}.cls-76{fill:#be8e60;}.cls-77{fill:#ba8759;}.cls-78{fill:#bd8d5d;}.cls-79{fill:#bf8f5d;}.cls-80{fill:#c09063;}.cls-81{fill:#c08f5c;}.cls-82{fill:#c29365;}.cls-83{fill:#bb895c;}.cls-84{fill:#c28f62;}.cls-85{fill:#bd8b5e;}.cls-86{fill:#c3966b;}.cls-87{fill:#bc956b;}.cls-88{fill:#bd8d64;}.cls-89{fill:#e1c1a5;}.cls-90{fill:#d0a988;}.cls-91{fill:#e2bf9e;}.cls-92{fill:#d6ac87;}.cls-93{fill:#ba8d65;}.cls-94{fill:#caa180;}</style></defs><g id="Capa_2" data-name="Capa 2"><g id="TIENDA"><g id="Marcos"><path class="cls-1" d="M13.89,5.46c2.35,1,4.92-1.21,7.27.47,2.22-1.62,4.72-.26,7-.36s5-.78,7.45.13a2.16,2.16,0,0,0,1.78-.09,4,4,0,0,1,3.07-.05,4.22,4.22,0,0,0,4.35-1.1,39.08,39.08,0,0,0,2.79-2.82A3.92,3.92,0,0,1,50.15.25c3.12-.08,6.28-.17,9,1.88.39.31.8.8,1.26.45,1.63-1.23,3.71-1.17,5.46-2A4.49,4.49,0,0,1,70.07.51,17.26,17.26,0,0,1,75.24,4.3a3.47,3.47,0,0,0,4.15,1.24.47.47,0,0,1,.2-.06c2.57,0,5.15-.07,7.71.09a4.47,4.47,0,0,0,2.38,0,3.27,3.27,0,0,1,2.67,0,3,3,0,0,0,2.57,0,3.33,3.33,0,0,1,2.66,0c.76.32,1.48,0,2.18,0,3.28.22,6.53-.55,9.89,1a25.34,25.34,0,0,1,6.48,4.63c1.72,1.55,2.2,3.84,2.72,5.75a23.92,23.92,0,0,1,.68,8.56c-.21,2,0,4.14,0,6.22,0,1.15.37,2.35-.11,3.47a2.09,2.09,0,0,0,.07,1.78c.15.39.41.93.27,1.2-1.27,2.35-.1,4.83-.21,7.2-.11,2.11-.7,4.44.11,6.61.09.26.28.62.18.8-1.32,2.27.31,4.72-.53,7.13-.51,1.47,0,3.47.2,5,.36,2.36-.27,4.57,0,6.88a51,51,0,0,1,.13,6.67,48.84,48.84,0,0,0,0,7.84,22.31,22.31,0,0,1-.23,5.27c-.24,2.54.64,5,0,7.55-.38,1.64.07,3.58.08,5.4a37.38,37.38,0,0,1-.81,7.21c-.61,3.27-2.86,5.66-5.18,7.83-2.65,2.48-6.2,3.13-9.55,4.13a1.16,1.16,0,0,1-.62.1c-2.67-.86-5.38.26-8.16-.26-1.92-.35-4.16.1-6.28,0-1.3-.08-8,.08-9.16,0-1.59-.06-3.14,0-4.42,1.45-1.8,2-3.74,4.21-6.57,4.49a12.1,12.1,0,0,1-6.49-.81c-2.88-1.53-5.28-.31-7.74.41-3.47,1-8.69-.81-10.29-4.16-.47-1-1.07-.92-1.87-1.18-2.58-.83-5.27-.19-7.74-.11s-4.89-.1-7.29,0c-2.59.08-5.33.72-7.93-.21a1.93,1.93,0,0,0-1.4,0,3.35,3.35,0,0,1-1.82.32c-3-.92-6.1-1.18-8.78-3.41a21.75,21.75,0,0,1-5.17-5.79C.57,111.46.41,108.18.23,104.77c-.11-2.21.47-4.41-.06-6.61a2.52,2.52,0,0,1-.09-1.45c1-2.32.14-4.78.26-7.12.1-2,.64-4.35-.18-6.47a1.49,1.49,0,0,1-.09-1c1.06-2.37.17-4.89.24-7.26A49.5,49.5,0,0,0,.24,68.4a67.06,67.06,0,0,1-.12-7c0-2.69,0-5.39.09-8.06.08-2.42-.59-4.91.25-7.3.37-1-.54-1.84-.4-2.84.47-3.44,0-6.91.1-10.33.21-4.51-.36-9,.32-13.51a18.68,18.68,0,0,1,4.21-9c2-2.53,5.05-2.79,7.33-4.52C12.46,5.51,13.22,5.59,13.89,5.46Zm94.72,108.15a9,9,0,0,0,3.31-6.38V21.37a8,8,0,0,0-.37-2.4,8.24,8.24,0,0,0-2-3.31,8.59,8.59,0,0,0-5.71-2.36l-26.36-.12c-.67.75-1.65,1.8-2.93,3A22.61,22.61,0,0,1,72,18.39C69.07,20.21,66.49,17,61.16,17S53.4,20.05,50,18.33a16,16,0,0,1-2.44-1.62,17.9,17.9,0,0,1-3.37-3.53L16.3,13.3a8.59,8.59,0,0,0-5.71,2.36,8.24,8.24,0,0,0-2,3.31,8,8,0,0,0-.37,2.4v85.86a8.07,8.07,0,0,0,2.37,5.71,9.37,9.37,0,0,0,5.71,2.36c4.31.52,14.52.61,28-.09A10.5,10.5,0,0,1,50,111.06c3.82-.92,5.31,1.7,10.53,1.75,5,.06,6.3-2.3,10.21-1.46a11.69,11.69,0,0,1,6.2,4h26.9A8.43,8.43,0,0,0,108.61,113.61Z"/><path class="cls-2" d="M63.26,10.46c1.5.38,3.24.21,4.73,1.28-.76,1.42-1.86.18-2.78.39,1.66,1.65,3.23,3.32,5.84,3.76a3.7,3.7,0,0,1-4,1.32c-1.51-.26-2.26-1.52-2.88-2.81A14.08,14.08,0,0,1,63.26,10.46Z"/><path class="cls-3" d="M86.32,117.08c3.7-.62,5.31,2.1,7.12,4.49.61.81.11,1.12-.6,1.3a2.86,2.86,0,0,1-.83,0c-1.9-.08-5.53-3.8-5.7-5.84Z"/><path class="cls-4" d="M28.67,6.23a2.45,2.45,0,0,1,2.47.86C32,8,32.81,9,33.57,9.94c.39.51,1.41.86,1,1.61s-1.39.43-2.12.38c-1-.06-5.14-3.9-5.2-4.81C27.19,5.81,28.31,6.39,28.67,6.23Z"/><path class="cls-5" d="M95.44,12a3.41,3.41,0,0,1-2.86-1.11c-.74-.82-1.45-1.67-2.17-2.52-.43-.51-1.25-1-.85-1.72.49-.85,1.57-.63,2.28-.36,2.19.82,3.54,2.69,4.67,4.57C97.11,11.83,95.86,11.83,95.44,12Z"/><path class="cls-6" d="M114,11.27a13.51,13.51,0,0,1-1.35,4.55c-.37,1-.93.88-1.46.07a4.2,4.2,0,0,1-.59-2.38c0-1.32,0-2.63-.11-3.95,0-.51-.52-1.11.1-1.5.46-.28.93.16,1.34.38C113.17,9.06,114.2,9.85,114,11.27Z"/><path class="cls-7" d="M25.82,117.13a2.34,2.34,0,0,1,.38-.09c3.76-.45,5,2.67,6.79,4.91.55.68,0,1-.67,1a3.73,3.73,0,0,1-1.82-.23C28.39,121.34,26.51,119.71,25.82,117.13Z"/><path class="cls-8" d="M30.84,117.07c4-.79,5.32,2.62,7.45,4.76.52.52.1.94-.47,1a3.94,3.94,0,0,1-1.85-.11,9.5,9.5,0,0,1-5.14-5.65Z"/><path class="cls-9" d="M96.12,6.16A2.59,2.59,0,0,1,98.7,7c.77.9,1.57,1.78,2.28,2.72.39.51,1.17,1.05.58,1.79a1.74,1.74,0,0,1-2,.26,9.7,9.7,0,0,1-4.67-4.33C94.12,6.2,95.69,6.29,96.12,6.16Z"/><path class="cls-10" d="M91.75,117.05c3.83-.49,5.11,2.74,7.11,4.89.41.44.1.83-.37.89a5.47,5.47,0,0,1-1.85,0c-2.09-.44-4.82-3.68-4.89-5.75Z"/><path class="cls-11" d="M103.58,117.11a6.53,6.53,0,0,1,2.43.94c.81.54,1.69,1,2.54,1.44.63.35,1.86.17,1.84,1s-1.19,1-2,1.2c-2.07.54-5.6-1.26-6.29-3.39C101.65,116.87,103.08,117.42,103.58,117.11Z"/><path class="cls-12" d="M18.4,6.16a2.9,2.9,0,0,1,2.94,1.19c.63.74,1.28,1.46,1.85,2.24.46.62,1.54,1.24.88,2s-1.68.31-2.53-.05c-2.05-.86-3.14-2.77-4.3-4.41C16.32,5.85,18.07,6.38,18.4,6.16Z"/><path class="cls-13" d="M1.34,64.12c-.64-2-.42-3.53,1.11-4.72A19.89,19.89,0,0,1,4,58c.84-.5,1.37-1.79,2.52-1.4.75.26.28,3.12-.72,4C4.44,61.8,3,62.85,1.34,64.12Z"/><path class="cls-14" d="M13.58,6.48c1.8,0,5.44,2.93,5.73,4.52.15.86-.51.9-1,.89a5.24,5.24,0,0,1-3-1.36c-.94-.72-1.93-1.39-2.85-2.13C12,8.08,11.17,8,11.34,7.3s1-.69,1.58-.78C13.19,6.48,13.48,6.49,13.58,6.48Z"/><path class="cls-15" d="M35.89,117.08c3.88-.62,5.42,2.47,7.47,4.73.48.54.14.89-.44,1a3.29,3.29,0,0,1-.83.08c-1.84,0-6-3.89-6.21-5.84Z"/><path class="cls-16" d="M85.39,12a3.41,3.41,0,0,1-2.83-1.11c-.88-1-1.74-2-2.53-3.07-.3-.4-1-.82-.59-1.41s1-.26,1.57-.27A3.1,3.1,0,0,1,83.4,7.28c.94,1,1.87,2.08,2.77,3.15.28.34.91.61.56,1.2S85.87,12,85.39,12Z"/><path class="cls-17" d="M26.43,122.91a3.44,3.44,0,0,1-2.56-1.2c-.83-.93-1.65-1.88-2.42-2.85-.36-.45-1.17-.82-.8-1.51.28-.53,1-.22,1.55-.27a3.26,3.26,0,0,1,3,1.48c.68.87,1.44,1.69,2.11,2.57.28.36.86.72.59,1.22S27,122.9,26.43,122.91Z"/><path class="cls-18" d="M7.78,117.66c.13-1,.23-1.88.36-2.77.08-.59-.05-1.38.79-1.49.62-.08,1,.52,1.21,1,1,2,1.1,4.28,1.69,6.42.22.82-.48.88-1.07.63A4.17,4.17,0,0,1,7.78,117.66Z"/><path class="cls-19" d="M96.54,117.72a3,3,0,0,1,3.9.34c1.23,1.12,2.38,2.35,3.59,3.49.85.8.53,1.16-.42,1.31a3.8,3.8,0,0,1-3.16-.76A18.91,18.91,0,0,1,96.54,117.72Z"/><path class="cls-4" d="M81.88,123a3.76,3.76,0,0,1-3.19-1.57c-.49-.59-1-1.19-1.42-1.81s-1.49-1.06-.85-1.88a2,2,0,0,1,2.68-.21,13,13,0,0,1,4.07,4.43C84.06,123.36,82.23,122.57,81.88,123Z"/><path class="cls-20" d="M119,23.58c.11,1.71-.86,2.64-1.87,3.53a15.89,15.89,0,0,1-1.65,1.29c-.64.43-1.28,1.56-2,.88a2.22,2.22,0,0,1,0-2.58A14.57,14.57,0,0,1,118,22.42C119,21.72,118.86,23.12,119,23.58Z"/><path class="cls-21" d="M118,110.78c-.69,4-4.07,5.9-7.58,4.52-.73-.29-.54-.67-.26-1.11a3.37,3.37,0,0,1,2.07-1.65A35.52,35.52,0,0,0,118,110.78Z"/><path class="cls-22" d="M113.18,62.46c0-1.55,3.78-6,5.07-6.05.58,0,.66.36.71.79a3.55,3.55,0,0,1-1,3.24c-1,.92-2.1,1.8-3.18,2.68-.35.29-.64.9-1.17.69S113.36,62.81,113.18,62.46Z"/><path class="cls-23" d="M6.82,67.58A3,3,0,0,1,5.6,70.27c-.77.71-1.49,1.47-2.31,2.11-.61.47-1.31,1.55-2,1s-.42-1.72,0-2.55c1-2.11,3-3.33,4.74-4.54C6.94,65.64,6.6,67.21,6.82,67.58Z"/><path class="cls-24" d="M90.23,12c-1.33,0-5.66-3.79-5.79-5-.06-.58.34-.73.77-.75,1-.07,2.05-.18,2.91.72a29.23,29.23,0,0,1,3,3.45c.27.39.77.73.42,1.27S90.7,11.93,90.23,12Z"/><path class="cls-25" d="M67.65,124.39c2.16-1.77,5.64-.88,7.32-4.16.67,2.22.53,3.81-1,5C72.24,126.72,70.05,126.39,67.65,124.39Z"/><path class="cls-26" d="M113.26,43a3,3,0,0,1,1.12-3c1-.8,1.9-1.63,2.87-2.42.35-.29.65-.89,1.2-.56s.48.82.54,1.31a3.22,3.22,0,0,1-1.33,2.91c-.91.75-1.86,1.45-2.82,2.14-.42.3-.71,1.08-1.34.7S113.27,43.08,113.26,43Z"/><path class="cls-27" d="M119,62.6a3.43,3.43,0,0,1-1.37,3.09c-.74.63-1.48,1.27-2.25,1.86-.58.44-1.15,1.41-1.89.85-.57-.42-.41-1.49-.15-2.19.87-2.3,3-3.45,4.91-4.63C119.12,61,118.7,62.37,119,62.6Z"/><path class="cls-28" d="M109.9,11.44c-.33.8.49,2.16-.65,2.32-.85.12-1.59-1-1.93-2a18.92,18.92,0,0,0-2.1-4.54c-.62-.89-.14-1,.66-1.08a3.63,3.63,0,0,1,3.75,3A18.76,18.76,0,0,1,109.9,11.44Z"/><path class="cls-29" d="M33.65,6.16a3.07,3.07,0,0,1,2.54,1C37,8.06,37.86,9,38.65,10c.36.45,1.2.82.74,1.53s-1.39.6-2.1.34C35,11,33.65,9.06,32.52,7.09,31.88,6,33.23,6.34,33.65,6.16Z"/><path class="cls-30" d="M119,72.65A2.93,2.93,0,0,1,117.89,75c-.87.79-1.78,1.56-2.7,2.3-.51.41-1,1.23-1.73.76-.51-.33-.28-1.17-.24-1.78.08-1,4-5,5-5C118.8,71.25,119,71.57,119,72.65Z"/><path class="cls-31" d="M1,57.33a2.73,2.73,0,0,1,1.11-2.5c.85-.72,1.68-1.46,2.56-2.13.57-.42,1-1.55,1.83-.94a2,2,0,0,1,.13,2.52A13.83,13.83,0,0,1,1.7,58.7C.71,59.3,1.26,57.71,1,57.33Z"/><path class="cls-32" d="M118.6,18.86c0,1.76-3.14,5.48-4.62,5.68-.75.1-.78-.44-.76-.93a4.42,4.42,0,0,1,1.1-2.85c.75-.81,1.37-1.75,2.12-2.56.45-.48.57-1.59,1.37-1.33S118.48,18.26,118.6,18.86Z"/><path class="cls-30" d="M113.45,49.36c-.44-2.69,2.5-7.12,4.73-7.44.58-.09.73.27.78.72a3.51,3.51,0,0,1-1,3.07A24.93,24.93,0,0,1,113.45,49.36Z"/><path class="cls-33" d="M41.36,117.07c3.54-.24,5.24,2.41,7.2,4.61.59.67.3,1.15-.56,1.26a4.66,4.66,0,0,1-.83,0c-1.94-.07-5.71-3.88-5.84-5.9Z"/><path class="cls-34" d="M1.39,39.68c-.57-1.89-.7-3.41,1-4.63,1.06-.79,2.06-1.66,3.09-2.5.31-.25.58-.69,1.06-.43s.36.71.39,1.12A3.27,3.27,0,0,1,5.69,36C4.33,37.21,3,38.36,1.39,39.68Z"/><path class="cls-35" d="M119,77.54a3.34,3.34,0,0,1-1.41,2.84c-.86.71-1.76,1.37-2.66,2-.43.31-.79,1.08-1.35.77s-.43-1.25-.36-1.91c.12-1.26,3.74-5,5-5.1S118.67,77.22,119,77.54Z"/><path class="cls-36" d="M113.52,73.82c-.56-2-.39-3.56,1.16-4.74a20.36,20.36,0,0,1,1.91-1.61c.7-.38,1.28-1.84,2.18-.89.73.76.33,2-.33,2.9C117.13,71.19,115.28,72.3,113.52,73.82Z"/><path class="cls-37" d="M1.86,111.66c0-1.77,3-5.79,4.17-6.18.61-.19.72.17.76.62A4.93,4.93,0,0,1,6,109.27c-.57.87-1,1.81-1.66,2.64-.46.61-.45,2-1.36,1.74S1.87,112.19,1.86,111.66Z"/><path class="cls-28" d="M113.22,52.47a2.93,2.93,0,0,1,1.1-2.61c.89-.67,1.67-1.48,2.55-2.15.52-.39,1-1.26,1.73-.86s.43,1.4.31,2.12c-.16,1.09-4,4.77-5,4.83S113.44,52.9,113.22,52.47Z"/><path class="cls-38" d="M6.8,38.58a3,3,0,0,1-1.19,2.54c-1.05.9-2.15,1.74-3.25,2.59-.3.23-.58.72-1,.43S1,43.4,1,43a3.17,3.17,0,0,1,1.1-2.78c1-.79,1.86-1.67,2.81-2.48.38-.33.7-1,1.34-.66S6.79,38,6.8,38.58Z"/><path class="cls-39" d="M113.47,34.61a4,4,0,0,1,1.59-4.95,18,18,0,0,1,1.64-1.27c.63-.37,1.06-1.72,2-.87s.45,1.89-.12,2.7A15.87,15.87,0,0,1,113.47,34.61Z"/><path class="cls-40" d="M27.93,12a3.42,3.42,0,0,1-2.78-1.38C24.5,9.78,23.88,9,23.26,8.1c-.35-.48-1.13-.89-.67-1.58a1.56,1.56,0,0,1,1.93-.33c2.27.91,3.57,2.91,4.68,4.89C29.75,12.06,28.44,11.84,27.93,12Z"/><path class="cls-41" d="M83.31,117a2.48,2.48,0,0,1,1.73,1c1,1.1,1.92,2.21,2.88,3.31.27.31.76.58.62,1s-.74.56-1.24.58a3.29,3.29,0,0,1-2.64-1.07c-.92-1-1.8-2-2.64-3-.36-.44-1.22-.75-.75-1.51C81.59,116.92,82.29,117.11,83.31,117Z"/><path class="cls-42" d="M6.78,47.85a3.44,3.44,0,0,1-1.32,3.07,23,23,0,0,1-2.07,1.74c-.67.46-1.36,1.76-2.15,1s-.35-2.1.36-2.9a39.25,39.25,0,0,1,3.63-3.43c.32-.29.7-.83,1.25-.43A1,1,0,0,1,6.78,47.85Z"/><path class="cls-43" d="M111.06,116.22c1,0,1.94,0,2.91,0,.38,0,.93-.22,1.06.33.06.26-.19.64-.38.9-1.71,2.37-6.62,2.33-8.23-.09-.51-.77.16-1.06.69-1.09,1.31-.08,2.63,0,4,0Z"/><path class="cls-44" d="M6.85,72.71a3.27,3.27,0,0,1-1.14,2.38C4.62,76.06,3.52,77,2.41,78c-.29.25-.55.73-1,.46s-.31-.72-.37-1.13C.67,75,2.69,74.14,3.93,72.83a10.22,10.22,0,0,1,1.3-1c.32-.24.63-.61,1.1-.37S6.8,72.22,6.85,72.71Z"/><path class="cls-45" d="M113.16,101.61a3.34,3.34,0,0,1,1.27-2.84,25.06,25.06,0,0,1,2.36-2c.55-.38,1-1.53,1.84-.76a2.08,2.08,0,0,1,.08,2.54,14.15,14.15,0,0,1-4.6,4.14C113.12,103.32,113.3,102.05,113.16,101.61Z"/><path class="cls-46" d="M6.91,118.62c-3.48-2.47-3.51-6.28-.46-8.57.89-.67,1.12-.08,1.23.61a8.75,8.75,0,0,1-.27,3.73A11,11,0,0,0,6.91,118.62Z"/><path class="cls-10" d="M16.51,122.87c-2.8,0-5.19-3.24-4.59-6,.22-1,.92-.84,1.42-.5,2.08,1.43,2.94,3.82,4.18,5.86C18,123,16.76,122.63,16.51,122.87Z"/><path class="cls-27" d="M6.82,43.29a2.57,2.57,0,0,1-.93,2.32c-1,.91-2.1,1.81-3.17,2.7-.41.33-.79,1-1.34.79S1,48,1,47.42c.06-1.33,3.86-5.35,5.11-5.4C7.23,42,6.67,42.9,6.82,43.29Z"/><path class="cls-34" d="M1.61,93.32a3.27,3.27,0,0,1,.85-4.49c.89-.78,1.77-1.57,2.69-2.31.39-.3.7-1.06,1.36-.58.5.36.33,1,.32,1.57a3.78,3.78,0,0,1-1.58,2.82C4.1,91.33,2.9,92.26,1.61,93.32Z"/><path class="cls-47" d="M113.45,58.86a3.85,3.85,0,0,1,1.39-4.62c.65-.52,1.27-1.1,2-1.56s1.15-1.66,2-.82c.64.64.32,1.72-.13,2.57C118.11,55.51,115.47,57.76,113.45,58.86Z"/><path class="cls-48" d="M1.7,108.49c-1-1.84-.85-3.35.55-4.65.91-.86,1.89-1.64,2.85-2.44.42-.35.85-.9,1.45-.5.43.3.26.89.25,1.37a3,3,0,0,1-1.07,2.19A30.68,30.68,0,0,0,1.7,108.49Z"/><path class="cls-49" d="M113.22,91.37a3.39,3.39,0,0,1,1.32-2.7,24.67,24.67,0,0,1,2.27-1.84c.58-.39,1.12-1.45,1.88-.79s.45,1.62.07,2.37a10.56,10.56,0,0,1-4.56,4.2C113.11,93.24,113.52,91.72,113.22,91.37Z"/><path class="cls-13" d="M113.19,96.62a3.25,3.25,0,0,1,1.19-2.83c.9-.77,1.79-1.55,2.72-2.27.4-.31.71-1.07,1.36-.64a1.66,1.66,0,0,1,.5,1.72c-.14,1.12-4,5.21-5.09,5.31S113.41,97,113.19,96.62Z"/><path class="cls-50" d="M6.83,97.23a4.25,4.25,0,0,1-1.65,3,13,13,0,0,1-2,1.54c-.65.33-1.14,1.71-2,.83-.66-.7-.37-1.86.18-2.74A13.81,13.81,0,0,1,5.6,96.12C6.79,95.29,6.72,96.46,6.83,97.23Z"/><path class="cls-51" d="M1,81.66c.06-1.22,3.64-5.09,4.79-5.27.66-.11.87.29,1,.82a2.89,2.89,0,0,1-.83,2.68c-1,.91-2,1.75-3,2.6-.41.35-.8,1-1.38.77S1,82.21,1,81.66Z"/><path class="cls-52" d="M99.28,6.48c3.61-.76,6.59,1.39,7,4.65.08.7-.18.9-.76.88a3,3,0,0,1-2.23-1C102,9.6,100.71,8.12,99.28,6.48Z"/><path class="cls-53" d="M38.83,6.13c1.59,0,4.69,2.78,4.87,4.21a1.42,1.42,0,0,1-.55,1.48,1.44,1.44,0,0,1-1.57-.19,13.21,13.21,0,0,1-4.12-4.37C36.48,5.74,38.36,6.43,38.83,6.13Z"/><path class="cls-54" d="M6.8,28.73c0,1.34-3.58,5.33-4.95,5.62-.78.17-.77-.39-.83-.85a3.34,3.34,0,0,1,1-3c1-.93,2.11-1.81,3.19-2.68.31-.25.67-.6,1.11-.37S6.78,28.25,6.8,28.73Z"/><path class="cls-55" d="M112.75,18.66c.25-2.3,1.45-4.23,2.07-6.36.27-.93.8-.56,1.15,0,1,1.47,1.46,3,.36,4.64a22.7,22.7,0,0,1-1.94,2.43c-.34.38-.63,1.12-1.28.79S112.89,19.12,112.75,18.66Z"/><path class="cls-56" d="M21.61,123c-2.59-.11-3.7-1.94-4.78-3.72-.36-.59-1.4-1.27-.74-1.92s1.77-.33,2.54.15a14.31,14.31,0,0,1,4,4.44C23.31,122.88,22.07,122.8,21.61,123Z"/><path class="cls-36" d="M113.19,37.93a3.12,3.12,0,0,1,1.29-2.87c.85-.61,1.56-1.42,2.45-2,.56-.35,1-1.59,1.81-.82a2.09,2.09,0,0,1,0,2.56A13.08,13.08,0,0,1,114,39C112.69,39.78,113.68,38.06,113.19,37.93Z"/><path class="cls-57" d="M6.78,23.56A3.36,3.36,0,0,1,5.7,26.38a32.88,32.88,0,0,1-2.54,2.16C2.6,29,2.05,30,1.29,29.42s-.39-1.59,0-2.36c.93-2.09,2.9-3.16,4.66-4.35C6.87,22.06,6.62,23.28,6.78,23.56Z"/><path class="cls-35" d="M6.79,62.91A3.27,3.27,0,0,1,5.46,65.7c-.9.76-1.81,1.52-2.74,2.23-.41.31-.83.92-1.43.54C.85,68.18,1,67.58,1,67.11c0-1.38,3.66-5.38,5-5.45C7.05,61.61,6.7,62.46,6.79,62.91Z"/><path class="cls-13" d="M6.82,92.3a3.07,3.07,0,0,1-1.21,2.53c-.9.76-1.81,1.5-2.76,2.2-.48.34-.87,1.22-1.49.86S1,96.51,1,95.8c.11-.92,3.86-4.58,4.77-4.68C6.87,91,6.72,91.87,6.82,92.3Z"/><path class="cls-57" d="M67.54,122.22c-2.85.53-4.5-.41-5.35-3a3.48,3.48,0,0,1-.21-.59c-.13-.92-1.2-2.32-.44-2.6,1.23-.46,2.58.54,3.24,1.73A32.62,32.62,0,0,0,67.54,122.22Z"/><path class="cls-58" d="M119,82.23c0,1.66-1,2.54-2,3.42a17.43,17.43,0,0,1-1.79,1.42c-.51.36-.91,1.32-1.7.65a1.68,1.68,0,0,1-.21-2c.92-2.14,2.81-3.43,4.65-4.61C119,80.53,118.86,81.78,119,82.23Z"/><path class="cls-59" d="M52.08,123.38a2.16,2.16,0,0,1-1.88-.95c-.93-1.13-1.83-2.29-2.71-3.46-.28-.36-.82-.77-.39-1.24.21-.23.78-.21,1.18-.17a6,6,0,0,1,5.07,4.68C53.61,123.39,53,123.37,52.08,123.38Z"/><path class="cls-15" d="M1.51,24.85C.58,22,1,21.05,4,19.55c1-.49,2.27-1.91,3.07-.8S6.36,21,5.5,21.85a17.57,17.57,0,0,1-2.13,1.69C2.77,24,2.15,24.4,1.51,24.85Z"/><path class="cls-7" d="M67.59,13c2.4-1.44,5.68-.47,7.6-3.2a4,4,0,0,1-2,4.77C71.34,15.46,69.29,14.9,67.59,13Z"/><path class="cls-60" d="M51.91,112.38A5.13,5.13,0,0,1,56.56,117c0,.88-.61.75-1.16.54a8.43,8.43,0,0,1-2.68-1.91,21.18,21.18,0,0,0-2-1.44c-.5-.36-1.71.28-1.56-.79.11-.75,1.14-.89,1.9-1A8.11,8.11,0,0,1,51.91,112.38Z"/><path class="cls-61" d="M1,86.74A3,3,0,0,1,2.1,84.32a29.1,29.1,0,0,1,2.55-2.16c.56-.39,1.16-1.46,1.87-.79a2,2,0,0,1,0,2.54,14.79,14.79,0,0,1-2,2.12,21,21,0,0,1-1.81,1.42c-.36.27-.62.92-1.17.61S1.05,87.23,1,86.74Z"/><path class="cls-62" d="M48.07,2.65c3.3-3.42,6.09-2.11,8.25,3.5C53.15,6,51.53,2.54,48.07,2.65Z"/><path class="cls-63" d="M119.05,102c0,1.72-3.54,5.36-5.14,5.35-.9,0-.69-.73-.68-1.23,0-1.34,3.65-5.24,4.94-5.35C119.2,100.65,119,101.46,119.05,102Z"/><path class="cls-64" d="M72.47,114.61a3.69,3.69,0,0,1,2.34,3.71,4,4,0,0,1-2.26,3.5,1.91,1.91,0,0,1-2.15.12c-.56-.5-.06-1.32.31-1.86A9.56,9.56,0,0,0,72.47,114.61Z"/><path class="cls-65" d="M118.48,105.65a5,5,0,0,1-5.23,5.88c-.36,0-.72,0-.84-.44a1.72,1.72,0,0,1,.5-1.53A26.89,26.89,0,0,1,118.48,105.65Z"/><path class="cls-66" d="M1.64,20.24c-.26-2-.17-3.4,1.16-4.37A6.51,6.51,0,0,1,8,15.05c.95.18.55,1,0,1.41A11.66,11.66,0,0,1,5.72,17.8,11.24,11.24,0,0,0,1.64,20.24Z"/><path class="cls-42" d="M6.43,10.18c1.53-2.1,3.14-2.56,5-1.57A6.85,6.85,0,0,1,13.29,9.9c.53.58,1.92.81,1.54,1.66s-1.79.59-2.67.4C10.27,11.57,8.59,10.45,6.43,10.18Z"/><path class="cls-67" d="M52.27,5.7c-2.39.81-5.12.56-7.15,2.45a3.44,3.44,0,0,1,1.66-4.32,4.26,4.26,0,0,1,5.47,1.88Z"/><path class="cls-68" d="M72.54,2.89c1.89,1.41,3,2.65,2.88,4.59a3.74,3.74,0,0,1-2.55,3.25c-.56.25-1.25.73-1.74.24S71,9.55,71.39,9.1C72.79,7.4,73.1,5.52,72.54,2.89Z"/><path class="cls-69" d="M61.45,118.83c0,1.21-.66,1.24-1.42,1-1.23-.39-4-4.73-3.83-6,.09-.61.57-.58.95-.48A3.8,3.8,0,0,1,60,115.3C60.52,116.5,61,117.73,61.45,118.83Z"/><path class="cls-70" d="M53.57,17c-2.12.53-3.83.39-5-1.08s-.83-3.14-.11-4.73c.38-.85.84-.81,1.29,0A6.15,6.15,0,0,1,50.61,13,5.92,5.92,0,0,0,53.57,17Z"/><path class="cls-71" d="M3.21,14.59a4.34,4.34,0,0,1,7.43-2.14c.26.26.51.52.28.89A1.66,1.66,0,0,1,9.47,14C7.46,14.13,5.44,13.87,3.21,14.59Z"/><path class="cls-72" d="M71.42,127.3c-3,2.22-5.7,1.75-7.23-1.16-.28-.52-.8-1.12-.11-1.68a1.34,1.34,0,0,1,1.74.1A16.34,16.34,0,0,0,71.42,127.3Z"/><path class="cls-73" d="M76.23,7.93c.15-.52-.32-1.32.38-1.65s1.16.31,1.57.75c1,1.13,2,2.3,3,3.46.26.31.59.64.33,1.1s-.71.38-1.11.39A4.11,4.11,0,0,1,76.23,7.93Z"/><path class="cls-74" d="M44.66,11.09a4.06,4.06,0,0,1,3.82-3.67c1.39.11.93,1.17.51,1.63a6,6,0,0,0-1.92,4.65c.07.94-.53.8-1,.31A3.71,3.71,0,0,1,44.66,11.09Z"/><path class="cls-75" d="M59.32,14.31c-2.36-.49-5.2-3.76-5.27-5.87,0-.82.54-.7,1-.66a3.28,3.28,0,0,1,2.44,1.48A11.44,11.44,0,0,1,59.32,14.31Z"/><path class="cls-76" d="M66.63,1.44c1.8-.48,3.48-.81,4.62.87s1,3.5,0,5.48C69.15,6,69.28,2.72,66.63,1.44Z"/><path class="cls-2" d="M64.89,10.24c-1.3-.28-2.58-.44-3.12-1.84-.39-1-.81-2.05-1.17-3.1-.17-.48-.69-1.14-.06-1.47.36-.19,1.09.11,1.54.38,2,1.18,2.36,3.49,3.38,5.34C65.77,10.11,65.29,10.24,64.89,10.24Z"/><path class="cls-77" d="M59,10.1c3.73.35,4,3.41,5.07,5.7.38.78-.31.78-.79.72a3.55,3.55,0,0,1-3.11-2.45C59.79,12.82,59.46,11.55,59,10.1Z"/><path class="cls-78" d="M71.22,116.39c0,.18,0,.6-.08,1s-.12,1-.72,1.12-.67-.41-.91-.72c-1.08-1.41-1.56-3.21-3-4.41-.69-.56-.06-.89.58-1C69.6,111.9,71.26,113.41,71.22,116.39Z"/><path class="cls-79" d="M70.22,9.78A1.53,1.53,0,0,1,68.09,11C67,10.61,64.75,7.35,64.7,6.18c0-.55.22-.74.73-.74C66.68,5.45,70.16,8.59,70.22,9.78Z"/><path class="cls-12" d="M56.26,1.56a4.65,4.65,0,0,1,3.51,3.65c.22.82,1.32,2,.2,2.47s-2.18-.39-2.73-1.61S56.1,3.7,55.51,2.52C55.12,1.74,55.49,1.53,56.26,1.56Z"/><path class="cls-80" d="M56.24,127.66a4.23,4.23,0,0,1-2.55-.81c-.72-.5-2-1.09-1.57-1.85s1.75-1,2.78-.67,2.07.74,3.12,1.1c.49.16,1.23.07,1.21.83s-.67.85-1.18,1A15.28,15.28,0,0,1,56.24,127.66Z"/><path class="cls-7" d="M54,128.17c-2.84,1.08-4.93.3-5.73-2-.28-.81-.73-1.85.41-2.35a1.62,1.62,0,0,1,2.21,1A6.67,6.67,0,0,0,54,128.17Z"/><path class="cls-66" d="M55.65,123.56c1.74-1.52,5.45-1.82,7-.66,1.18.91.22,1.43-.53,1.76C59.79,125.69,57.81,124.65,55.65,123.56Z"/><path class="cls-81" d="M51.59,7.11c1,.09,3.41,4,3,4.86-.07.16-.27.37-.42.38a3.82,3.82,0,0,1-3.25-1.48,2.55,2.55,0,0,1-.5-3A1.15,1.15,0,0,1,51.59,7.11Z"/><path class="cls-41" d="M55.26,16.24A6.05,6.05,0,0,1,53.7,16c-1.21-.51-2.39-1.5-2.05-2.75.29-1.06,1.54,0,2.37,0a2.78,2.78,0,0,1,2.09.78c.59.54,2,.6,1.79,1.43C57.6,16.6,56.24,16,55.26,16.24Z"/><path class="cls-82" d="M50.75,117.39a8.5,8.5,0,0,0-4.56-.37c-.31.08-.77.09-.82-.38a1.12,1.12,0,0,1,.32-.7c1.46-1.79,5-1.76,6.54,0,.22.27.53.55.22.88A2.21,2.21,0,0,1,50.75,117.39Z"/><path class="cls-83" d="M61.7,3c2.51-1.72,5.3-1.14,6.6,1.3.43.82,0,1.09-.66.91C65.61,4.67,63.41,4.53,61.7,3Z"/><path class="cls-13" d="M66.25,116.68c-1.78.09-2.82-1.46-4.37-1.88-.56-.15-.15-.66.18-.93,1.48-1.22,5,0,5.4,1.91C67.66,116.82,66.76,116.55,66.25,116.68Z"/><path class="cls-84" d="M65.8,117.71c2.92.09,3.93,1.06,3.64,3.33,0,.33,0,.74-.38.88s-.64-.18-.87-.42A7.93,7.93,0,0,1,65.8,117.71Z"/><path class="cls-85" d="M53,119.12a22.64,22.64,0,0,1,2.55.76c1.86.81,1.81,1,.24,2.32-.91.75-1.38.72-1.76-.38C53.77,121,53.46,120.28,53,119.12Z"/><path class="cls-86" d="M64.28,128a3,3,0,0,1-2.22-.19c-.61-.21-1.58-.21-1.61-1.07s1-.8,1.58-1.08c.95-.48,1.19.29,1.5.92C63.74,127,64,127.4,64.28,128Z"/><path class="cls-87" d="M44.68,123.64c2.33-.13,2.76,1,2.44,2.87A4.44,4.44,0,0,1,44.68,123.64Z"/><path class="cls-88" d="M76.25,120.28c.89.12,1,.82,1.42,1.26.25.29.68.58.4,1s-.7.35-1.11.32-.71-.35-.71-.82S76.25,120.91,76.25,120.28Z"/><path class="cls-89" d="M55.63,118.69c1.47-.28,2.48.49,3.87,1.73-1.88-.13-3-.57-3.85-1.76Z"/><path class="cls-90" d="M58.64,8.53A3.38,3.38,0,0,1,62,10.06,5.28,5.28,0,0,1,58.64,8.53Z"/><path class="cls-91" d="M55.65,118.66c-1.26.59-2.15-.61-3.29-.64,1.36-1,2.33-.24,3.27.67Z"/><path class="cls-92" d="M52.25,5.71A3,3,0,0,1,54.84,7c-1.31-.24-2.51.64-2.57-1.29Z"/><path class="cls-93" d="M60,121a2.56,2.56,0,0,1,3.06.94C61.89,121.7,60.91,121.75,60,121Z"/><path class="cls-94" d="M65.66,123.58c.9-.35,1.47-.73,2.32-.43A1.49,1.49,0,0,1,65.66,123.58Z"/></g></g></g></svg>