<svg xmlns="http://www.w3.org/2000/svg" viewBox="0 0 127.79 128.05"><defs><style>.cls-1{fill:#95ab40;}.cls-2{fill:#849f3f;}.cls-3{fill:#86a040;}.cls-4{fill:#8ea742;}.cls-5{fill:#94aa41;}.cls-6{fill:#88a13f;}.cls-7{fill:#95ac40;}.cls-8{fill:#94aa40;}.cls-9{fill:#86a03f;}.cls-10{fill:#94a942;}.cls-11{fill:#86a041;}.cls-12{fill:#859e42;}.cls-13{fill:#829b42;}.cls-14{fill:#8fa644;}.cls-15{fill:#93a948;}</style></defs><g id="Capa_2" data-name="Capa 2"><g id="TIENDA"><g id="Marcos"><path class="cls-1" d="M4.68,64.73A104.78,104.78,0,0,0,3.46,46.26c-.41-2.48.2-3.25,2.67-3.35a14.56,14.56,0,0,1,5.42.28c1.16.39,1.54.93,1.3,2.32A104.06,104.06,0,0,0,13,82.59c.28,1.47-.13,2.41-1.58,2.6a20.22,20.22,0,0,1-6.26-.07,1.87,1.87,0,0,1-1.75-2.34c.3-3.19.76-6.37,1-9.57S4.55,67.07,4.68,64.73Z"/><path class="cls-2" d="M116.89,63.69c-.35-5.89-.49-11.89-1.62-17.79-.31-1.58.06-2.63,1.77-2.87a18.42,18.42,0,0,1,6.24.09c1.31.27,1.7,1,1.47,2.26a107.5,107.5,0,0,0-1.57,21.86,80.58,80.58,0,0,0,1.51,14.53c.5,2.46.21,3-2.24,3.39a14.84,14.84,0,0,1-5.82-.19c-1.25-.3-1.7-1-1.45-2.06,1.09-4.93,1.18-10,1.49-15C116.76,66.57,116.82,65.17,116.89,63.69Z"/><path class="cls-3" d="M8.91,41.54a19.79,19.79,0,0,0-3.55.25c-1.64.42-2.09-.29-2-1.69.32-3.61.82-7.2,1-10.83a137.1,137.1,0,0,0,0-17c-.22-3.2-.48-6.39-1-9.56-.25-1.57.4-2.29,2-2.52a17.45,17.45,0,0,1,6.24.14A1.54,1.54,0,0,1,13,2.48a112.82,112.82,0,0,0-1.53,25.88c.14,3.54.79,7.06,1.28,10.58.39,2.71.44,2.71-2.34,2.68H8.91Z"/><path class="cls-4" d="M21.35,123.13a121,121,0,0,0-18.53,1.45c-1.59.24-2.1-.3-2.41-1.74a14.19,14.19,0,0,1,.09-6.22c.2-.9.52-1.56,1.67-1.37,8.45,1.41,17,1.4,25.47,1.09A119.85,119.85,0,0,0,40.31,115c1.68-.24,1.87.49,1.64,1.7a16,16,0,0,0,0,6.43c.3,1.35-.41,1.77-1.67,1.57A122.51,122.51,0,0,0,21.35,123.13Z"/><path class="cls-5" d="M116.88,107.39c-.36-6.52-.46-12.94-1.8-19.24-.37-1.77.31-2.13,1.81-2,2.07.16,4.11.55,6.23.08,1.63-.36,1.83.83,1.6,2.11a94.7,94.7,0,0,0-1.49,22.29c.26,4.78.07,9.64,1.44,14.31.49,1.68-.2,2.44-1.81,2.83a15.53,15.53,0,0,1-6-.07c-1.51-.22-1.87-1.08-1.61-2.52A151.2,151.2,0,0,0,116.88,107.39Z"/><path class="cls-6" d="M64.29,123.15a96.71,96.71,0,0,0-19,1.61c-1.24.23-2,0-2.19-1.44a17.79,17.79,0,0,1,.09-6.86c.27-1.13.87-1.38,2-1.21,12.36,1.88,24.73,2.24,37.07-.09,1.87-.35,2.37.06,2.32,2,0,2.13-.32,4.28.33,6.44.33,1.12-1,1.33-1.91,1.22-2.21-.26-4.42-.55-6.63-.89A70.33,70.33,0,0,0,64.29,123.15Z"/><path class="cls-7" d="M119.12,0h1c4.66,0,5,.37,4.25,4.8A105.71,105.71,0,0,0,123.91,34a57.58,57.58,0,0,0,.86,6c.24,1.11-.1,1.82-1.38,1.66a22.47,22.47,0,0,0-6.85,0c-1.35.24-1.54-.71-1.36-1.7a155,155,0,0,0,1.45-15.81c.32-4.51-.27-8.92-.41-13.37a64,64,0,0,0-1-7.87c-.26-1.65.36-2.54,2-2.73C118,.05,118.85,0,119.12,0Z"/><path class="cls-5" d="M84.54,8.52c-.18,1.32.56,3.26-.42,4.1s-2.75-.2-4.18-.36a124.83,124.83,0,0,0-34.64.53c-1.42.24-1.86-.14-2.11-1.45a17.17,17.17,0,0,1,0-6.43c.23-1.16.83-1.73,2.05-1.5A99.69,99.69,0,0,0,62.08,4.89,99.53,99.53,0,0,0,78.16,4c1.38-.21,2.77-.36,4.14-.6,1.66-.29,2.36.36,2.26,2C84.49,6.43,84.54,7.42,84.54,8.52Z"/><path class="cls-8" d="M115.16,119c0,.35,0,.7,0,1-.2,3.36-.2,3.25-3.57,3.14a110.81,110.81,0,0,0-23.36,1.45c-1.64.29-2.18-.11-2.1-1.74.1-2.07-.25-4.14,0-6.24.13-1.35.22-2,1.92-1.66,7.37,1.33,14.84,1.5,22.29,1.77a12.1,12.1,0,0,0,2.09-.11C115.25,116.27,115.25,116.25,115.16,119Z"/><path class="cls-9" d="M4.66,106.4a97.05,97.05,0,0,0-1.2-17.11C3,86.51,3.38,86.23,6.23,86.5a13.66,13.66,0,0,0,4.59-.2c2-.47,2.53.09,2.15,2-1.62,8.07-1.78,16.23-1.58,24.41.07,2.53.1,2.53-2.58,2.45-4.2-.12-4.19-.12-4.15-4.35C4.68,109.34,4.66,107.87,4.66,106.4Z"/><path class="cls-10" d="M86.14,8c0-4.68,0-4.8,4.55-4.2a128.76,128.76,0,0,0,21.94.83c1.44,0,2.11.21,2.24,1.85s.83,3.33.15,4.52c-.84,1.48-2.76.31-4.16.3a134.88,134.88,0,0,0-23,1.44c-1.39.22-1.79-.09-1.74-1.38C86.17,10.25,86.14,9.13,86.14,8Z"/><path class="cls-11" d="M41.64,8.46c-.36,1.25.87,3.37-.54,4.19-1.05.61-2.93-.26-4.45-.4-7.5-.7-15-1.43-22.53-.55-1.09.13-1.58-.27-1.46-1.39.16-1.52.3-3,.47-4.56.12-1,.87-1.15,1.7-1.09a44.34,44.34,0,0,0,5,.33C25.88,4.71,32,4.75,38,3.69c3.74-.66,3.73-.72,3.69,3C41.63,7.21,41.64,7.7,41.64,8.46Z"/><path class="cls-12" d="M7.88,128.05c-1.06-.12-2.24-.19-3.39-.43-.56-.11-1.31-.28-1.22-1.16a1.26,1.26,0,0,1,1.34-1.26c2.14-.19,4.27-.48,6.4-.77a1.54,1.54,0,0,1,2,1.5c.19,1.2-.51,1.65-1.52,1.78C10.33,127.86,9.16,127.93,7.88,128.05Z"/><path class="cls-13" d="M.05,7.86A9.23,9.23,0,0,1,.46,4.4c.22-.56.49-1,1.17-1a1.08,1.08,0,0,1,1.16,1c.24,2.42.45,4.84.6,7.27.07,1.16-1,.95-1.67,1.16s-1.15-.26-1.25-1A14.29,14.29,0,0,1,.05,7.86Z"/><path class="cls-14" d="M127.71,119.67a10.09,10.09,0,0,1-.36,4.12c-.22.56-.51,1-1.19.91s-.83-.61-.9-1.21c-.27-2.13-.53-4.25-.83-6.37-.17-1.24.41-1.8,1.57-2s1.61.62,1.69,1.6S127.71,118.7,127.71,119.67Z"/><path class="cls-15" d="M127.79,8a13.72,13.72,0,0,1-.32,3.31,1.62,1.62,0,0,1-2,1.31c-1.12-.1-1.1-.9-1-1.68.21-2.06.45-4.13.71-6.19.1-.73.4-1.36,1.29-1.36s.85.73,1,1.3A10.92,10.92,0,0,1,127.79,8Z"/></g></g></g></svg>