<svg xmlns="http://www.w3.org/2000/svg" xmlns:xlink="http://www.w3.org/1999/xlink" viewBox="0 0 134.03 134.05"><defs><style>.cls-1{fill:none;}.cls-2{clip-path:url(#clip-path);}.cls-3{fill:#ccdaa2;}.cls-4{fill:#688648;}.cls-5{fill:#698649;}.cls-6{fill:#6f8c4d;}.cls-7{fill:#6b884a;}.cls-8{fill:#708e4b;}.cls-9{fill:#cbd7a2;}.cls-10{fill:#6d8a4a;}.cls-11{fill:#e08673;}.cls-12{fill:#fbd571;}.cls-13{fill:#e38578;}.cls-14{fill:#f2995c;}.cls-15{fill:#de8775;}.cls-16{fill:#fdfefc;}.cls-17{fill:#d1a2af;}.cls-18{fill:#b2c2a3;}.cls-19{fill:#869c54;}.cls-20{fill:#859b53;}.cls-21{fill:#849a52;}.cls-22{fill:#718e4d;}.cls-23{fill:#f8d36e;}.cls-24{fill:#889e54;}.cls-25{fill:#e2ebcc;}.cls-26{fill:#8fa15b;}.cls-27{fill:#f4c067;}.cls-28{fill:#d88d6f;}.cls-29{fill:#f9fef8;}.cls-30{fill:#fdd87b;}.cls-31{fill:#fdfdf6;}.cls-32{fill:#fbfbf8;}.cls-33{fill:#f8cb75;}.cls-34{fill:#f7cd76;}.cls-35{fill:#f6f9e6;}.cls-36{fill:#eff2d7;}.cls-37{fill:#f9c871;}</style><clipPath id="clip-path" transform="translate(1.57 1.58)"><rect class="cls-1" width="130.85" height="130.85"/></clipPath></defs><g id="Capa_2" data-name="Capa 2"><g id="TIENDA"><g id="Back"><g class="cls-2"><path class="cls-3" d="M132.36,74.07c0,2.52,0,5,0,7.55q0,9.43,0,18.87a3.73,3.73,0,0,1-1.65.7,8,8,0,0,0-5.73,6,6.48,6.48,0,0,1-.17.63c-.21.53-.13,1.46-.79,1.46s-.52-.94-.7-1.47a3.67,3.67,0,0,1-.14-.64c-.61-3-.6-3,2-4.56s4.52-3.8,4.43-7.15c0-1.37-.37-1.58-1.6-.89a9.4,9.4,0,0,0-4.68,5.88c-.13.49-.07,1.29-.77,1.26s-.73-.75-.85-1.27c-.42-1.83-1-3.58-1.64-5.35a1.9,1.9,0,0,1,.65-2.33,7.09,7.09,0,0,0,2.38-3.84c1.09-3,1.75-6.11.78-9.32-.31-1-.66-2.1-1.89-2.22a2.75,2.75,0,0,0-2.71,1.77,8,8,0,0,0-.42.89c-.75,2-.74,1.95-2.18.3a7.18,7.18,0,0,0-2.07-1.85,1.81,1.81,0,0,0-2.86,1.5,12.66,12.66,0,0,0,0,3c.15,1.2-.4,1.34-1.34.93a7.34,7.34,0,0,0-1.68-.66,2.7,2.7,0,0,0-2.73.7,2.58,2.58,0,0,0-.23,2.93A10,10,0,0,0,109,90.62a15.28,15.28,0,0,0,4.54,2.59,7.1,7.1,0,0,0,4.44.86,1.57,1.57,0,0,1,1.85,1.22,81.1,81.1,0,0,1,2.33,8.37c.1.47.23,1.1-.31,1.32s-.86-.36-1.14-.72a8.79,8.79,0,0,0-7-3.67c-.53,0-1.17-.14-1.5.41s.06,1.07.36,1.51a9.11,9.11,0,0,0,7.45,4.43,6,6,0,0,1,1.79.15,1.43,1.43,0,0,1,1,1.81c-.21.89-.93.55-1.48.43a8.41,8.41,0,0,0-6.45,1.1.82.82,0,0,1-.49,0,10.58,10.58,0,0,1-2.21-4.33,17.24,17.24,0,0,1-2.6,4.43,13.53,13.53,0,0,0-2.73,4.81c-.75.41-1.68.43-2.34,1a1.75,1.75,0,0,1-1.41-.19c-.88-.71-.52-1.33.2-1.83s1.34-.73,2-1.16a1.91,1.91,0,0,0,.93-2.25,10.73,10.73,0,0,0-3.77,4.55c-.3.62-.36,1.39-1,1.81-.56-.12-.77-.59-.91-1-.89-3-1.94-5.85-3-8.74a1.29,1.29,0,0,1,0-.8c.43-.42.93-.19,1.41-.18a3.79,3.79,0,0,0,3.58-2.18c.57-1.41-.19-2.41-1.13-3.33-1.27-1.25-1.28-1.27,0-2.55a4.64,4.64,0,0,0,1.08-1.82,2.48,2.48,0,0,0-.62-2.59,2.23,2.23,0,0,0-2.43-.52,4.79,4.79,0,0,0-1.19.56c-1.68,1-1.68,1-2.36-.87,0-.1-.06-.21-.1-.31-.57-1.42-1.79-2.33-2.8-2.09a2.82,2.82,0,0,0-1.83,3,4.89,4.89,0,0,0,0,.66c.23,2.25.23,2.25-1.9,1.86A2.69,2.69,0,0,0,86,98a2.64,2.64,0,0,0,1.51,3,4.23,4.23,0,0,0,1.24.42c1.16.26,1.64.82.92,2a3.5,3.5,0,0,0-.56,1.7c-.07,1.26,0,2.47,1.41,3A3,3,0,0,0,94.12,107c.27-.36.42-.77.67-1.14s.62-.79,1.21-.44a74.29,74.29,0,0,1,4.38,12.09,1.74,1.74,0,0,1,0,1.27c-.67.57-.85-.16-1.09-.47a11.32,11.32,0,0,0-7.72-4.13c-.36-.05-.8-.24-1,.19s.08.63.24.91a13.54,13.54,0,0,0,6.37,5.89A3.75,3.75,0,0,1,99,122.3a2.85,2.85,0,0,1,0,1.45c-.26,2-.26,2-2.32,2A7.82,7.82,0,0,0,89,131a2.83,2.83,0,0,1-.71,1.45H72.18a3.78,3.78,0,0,1,1.9-5.26c5.7-2.51,8.45-7.06,9-13.1.14-1.42-.75-.91-1.35-.67-4.47,1.78-7.07,5.18-8.37,9.71-.17.6,0,1.35-.8,1.77a4.35,4.35,0,0,1-.8-2.93,51.57,51.57,0,0,0-.56-5.56,1.82,1.82,0,0,1,1.09-2.14,5.46,5.46,0,0,0,2.14-2,7.91,7.91,0,0,0-.21-8.66c-.43-.59-.82-.66-1.34-.2-.83.74-1.36.36-1.78-.47a4.64,4.64,0,0,0-.25-.42c-1.16-1.79-1.82-1.77-2.79.18-.54,1.1-1,1.93-2.4,1.06-.79-.47-.94.47-1.13,1-1.14,3.25-.16,6,2.06,8.45a5.81,5.81,0,0,0,2.69,1.53,2.25,2.25,0,0,1,1.61,2.06,82.89,82.89,0,0,1,.67,12.79c0,.11,0,.22,0,.33-.13.68-.09,1.66-.89,1.74s-.6-.91-.77-1.44c-1.64-5-5.1-8.19-9.87-10.15-1.08-.44-1.21-.09-1,.92a17.69,17.69,0,0,0,5.79,9.9c.47.41,1.18.69,1.1,1.52l-16.8,0a2.43,2.43,0,0,1-.7-1.45,50,50,0,0,1-.76-9,2.24,2.24,0,0,1,1.87-2.45c3.44-1,6.35-2.65,7.91-6.1a16.42,16.42,0,0,0,1.16-4.72,2.76,2.76,0,0,1-1.42.59,11.29,11.29,0,0,0-7.69,5.89c-.3.56-.57,1.52-1.23,1.34s-.56-1.2-.48-1.89c.31-2.61.45-5.23.88-7.82a4.79,4.79,0,0,1,.6-2c.52-.52,1.21-.41,1.86-.47a10.09,10.09,0,0,0,8.19-6.73c.27-1,.68-2.22-.2-2.94s-2.08-.36-3.13.07a9.7,9.7,0,0,0-2.31,1.54c-.25.2-.55.44-.89.23s-.26-.59-.18-.9a7.33,7.33,0,0,0,.3-3.25c-.23-1.16-.65-2.31-2-2.53s-1.91.84-2.43,1.83a25.09,25.09,0,0,0-1,3c-.27.72-.68.84-1.15.18a12.77,12.77,0,0,0-2.22-2.42,2.26,2.26,0,0,0-2.45-.49c-.89.38-1,1.23-1,2.08-.18,3.68,2.76,8.33,6.18,9.75.59.25,1.29.35,1.56,1.09,0,2.41-1.11,9.71-1.7,10.9-.93-.63-1.16-1.68-1.6-2.55A10.06,10.06,0,0,0,39.07,108c-1.79-.6-2.06-.34-1.8,1.47.68,4.58,3.36,7.52,7.54,9.13a3.28,3.28,0,0,1,2.41,3.29,91,91,0,0,0,.74,9.47,1.54,1.54,0,0,1-.16,1.11l-5.58,0c-.23-.58.1-1.06.31-1.55a9.72,9.72,0,0,0-10.08-13.69c-1.84.19-2.23-.19-2.16-2.05a6.69,6.69,0,0,1,.39-1.92,28.46,28.46,0,0,0,1.24-6.26A2.2,2.2,0,0,1,33,105a5,5,0,0,0,2.06-2.47,6.93,6.93,0,0,0,1.78-5.28c-.19-1.53-.63-1.86-2.1-1.43-1,.29-1.28-.34-1.56-1-.44-1-.93-.94-1.72-.29a7.16,7.16,0,0,0-2.61,6.7,3.42,3.42,0,0,0,2,3.77,1.46,1.46,0,0,1,.83,1.77c-.23,1.52-.48,3-.84,4.53-.11.46-.13,1.07-.77,1.11s-.74-.57-1-1c-1.73-3.23-4.14-5.69-7.79-6.58a14.31,14.31,0,0,0-8.41.51c-.52.19-1.13.74-1.66.2s-.16-1.15,0-1.72c.52-2,.95-2.55,3.05-2a7,7,0,0,0,7.38-2.48c.88-1,.71-1.46-.57-1.8a7.43,7.43,0,0,0-6.24,1.25c-.32.21-.59.5-.91.7s-.65.52-1,.19-.18-.61-.1-.93a34.45,34.45,0,0,1,1.59-5.18c.5-1.25.67-2.67,1.7-3.68.78-.12.83.59,1.1,1,1.15,1.76,2.8,2.38,4.32,1.62s1.83-2.51,1-4.48c0-.1-.1-.19-.14-.29-.18-.44-.63-.88-.21-1.35s.82-.12,1.24,0c.22,0,.43.1.65.12A3.25,3.25,0,0,0,27.62,84a3.19,3.19,0,0,0-2.79-3.47c-.82-.17-1.93.46-2.42-.42-.4-.72.38-1.54.53-2.34a2.88,2.88,0,0,0-1.62-3.4,3.11,3.11,0,0,0-3.69,1.41c-.51.77-.32,2-1.28,2.37s-1.51-.9-2.35-1.26a3.21,3.21,0,0,0-3.84,1,3.07,3.07,0,0,0,.68,3.86,7.83,7.83,0,0,0,.81.57c.89.59.86,1.17,0,1.77a5.49,5.49,0,0,0-1.25,1c-.74,1-1.29,2-.69,3.18a3.33,3.33,0,0,0,3,1.92c.79,0,1.53-.69,2.33-.1.13,1.23-.68,2.17-1,3.24-.5,1.46-1,2.91-1.44,4.38-.13.44-.23,1.09-.85,1s-.57-.62-.67-1a7.75,7.75,0,0,0-4.21-5.2c-.51-.27-1.12-.76-1.67-.34s-.2,1.13-.09,1.7A8.36,8.36,0,0,0,9.16,99.6c2.44,1.5,2.5,1.79,1.66,4.54-.26.84-.52,1.68-.85,2.49-.18.44-.29,1.06-.88,1.05s-.78-.58-.9-1.06A11.56,11.56,0,0,0,4.39,101a7.92,7.92,0,0,0-3.47-1.8c-1.1-.28-1.71,0-1.67,1.25,0,.5,0,1,0,1.48q0,14.09,0,28.15c0,.8.18,1.67-.47,2.35-.46-.31-.32-.78-.32-1.2q0-16.69,0-33.4c0-8.29,0-16.57,0-24.85,0-9.1,0-18.21.05-27.31q0-16.2,0-32.42V.72c0-2.28,0-2.28,2.22-2.28H130.33c2.21,0,2.08-.2,2.08,2q0,24.93,0,49.86c0,.6,0,1.21,0,1.81a5.08,5.08,0,0,1-.82,1.23c-2.7,2.27-3.33,5.26-3,8.6.05.45.36,1.1-.26,1.29s-.82-.43-1.06-.84q-2-3.42-4.06-6.76a1.58,1.58,0,0,1,.23-2.21,14.14,14.14,0,0,0,1.8-2.34c1.92-2.9,1.64-5.89.38-8.93-.41-1-.94-.69-1.46-.1a10.15,10.15,0,0,0-2.81,7.64c0,.27.06.54.09.81.07.54.3,1.25-.28,1.49s-.88-.49-1.19-.9c-1.5-1.95-2.92-4-4.52-5.84-.41-.48-.93-1-.87-1.7.37-.38.82-.21,1.24-.19a1.58,1.58,0,0,0,1.77-.9c.33-.82-.13-1.46-.63-2.08s-1.67-.52-1.61-1.44,1.12-1,1.63-1.51,1-1.12.67-1.9-1.1-.79-1.83-.8a3.55,3.55,0,0,0-2,.73c-.83.54-1.34.41-1.29-.71a4.53,4.53,0,0,0-.1-1.47c-.2-.74-.56-1.34-1.4-1.41A1.35,1.35,0,0,0,109.48,33c-.11,2.12-.65,3.16-2.94,1.86-.56-.32-1.27.23-1.63.83a1.45,1.45,0,0,0,.34,1.8,3.74,3.74,0,0,0,.79.58c1.41.94,1.41,1,0,1.94a2.32,2.32,0,0,0-1.26,1.63,1.46,1.46,0,0,0,1.71,1.67,3.11,3.11,0,0,0,.79-.23c1.71-.67,1.69-.67,2,1.08.17.93.44,1.92,1.58,2.05s1.67-.65,2-1.6a1.67,1.67,0,0,1,.45-.86c.54-.05.77.36,1,.71,1.58,2.1,3.19,4.18,4.72,6.32a3.27,3.27,0,0,1,.35.56c.15.35.38.74,0,1.05s-.64.1-.93-.06a12.81,12.81,0,0,0-3-1,10.07,10.07,0,0,0-5.94.74c-1.33.47-1.41,1.07-.3,2a9.83,9.83,0,0,0,10.19,1.62c.41-.15.8-.35,1.2-.54a1.3,1.3,0,0,1,1.84.47,58.24,58.24,0,0,1,3.88,6.49c.17.35.37.75.06,1.07s-.82.15-1.21-.05a17.72,17.72,0,0,0-3.57-1.23,9.23,9.23,0,0,0-5.32.5c-1,.34-1,.88-.39,1.58a9.08,9.08,0,0,0,8.18,3.31,10.31,10.31,0,0,0,3-.76,1.58,1.58,0,0,1,2.22.78C130.53,69.52,131.94,71.58,132.36,74.07Z" transform="translate(1.57 1.58)"/><path class="cls-4" d="M16.29,90a59.57,59.57,0,0,0-3.21,9.64,9.15,9.15,0,0,1,4.6-2.57,8.91,8.91,0,0,1,4.83.38c.57.18.7.43.38.94a7.74,7.74,0,0,1-6.38,4,7.1,7.1,0,0,1-4-.69,15.42,15.42,0,0,0-1.23,3.84,14.87,14.87,0,0,1,11-.91c3.8,1.24,6.14,4,7.81,7.77a28.37,28.37,0,0,0,1-4.19c.05-.21,0-.44.05-.65.09-.59.42-1.17.23-1.78s-.95-.39-1.39-.71a3.43,3.43,0,0,1-1.46-3.87c.94-.69,1.52.11,2,.62,1,1.06,1.86,1.79,3.23.55a1.08,1.08,0,0,1,1.61.09,3,3,0,0,1-2.07,2.85,1.26,1.26,0,0,0-.87,1.21,28.07,28.07,0,0,1-1.39,7.2,5.08,5.08,0,0,0-.26,1.44c0,1.71-.05,1.62,1.62,1.5a10.7,10.7,0,0,1,9.83,4.49c2.34,3.12,2.35,6.57.69,10.05-.19.39-.42.77-.63,1.15-.38,0-.76.06-1.14.06H-.42c-.27,0-.54,0-.81,0q0-16.37,0-32.71c0-1.24.18-1.39,1.47-1.17a10.34,10.34,0,0,1,6.85,4.67A14.87,14.87,0,0,1,9,107.54a26.5,26.5,0,0,0,2-5.76c.12-.52-.18-.8-.63-1A12.68,12.68,0,0,1,7.7,99.14c-2.51-2-3.33-4.69-3.27-7.93,4.21.93,6.61,3.32,7.35,7.77a74.53,74.53,0,0,1,3.09-9,1.09,1.09,0,0,1,.13-.62c.26-.42.6-.94,1.12-.72S16.65,89.49,16.29,90Z" transform="translate(1.57 1.58)"/><path class="cls-5" d="M100.13,118.84c0-1.67-.79-3.14-1.23-4.69A59.21,59.21,0,0,0,96.29,107a3.43,3.43,0,0,1-.45-1.56c1-.1,1.37.57,1.68,1.32,1.26,3,2.32,6.11,3.27,9.23.14.47.17,1,.64,1.28a3.06,3.06,0,0,1,1.69-1.24c.48-.12.85.29,1.31.25,2.56.48,4.13,2.31,5.65,4.19A15,15,0,0,1,112,124.2a18.79,18.79,0,0,1,1.8-3.59c.52-.73,1.08-1.15,1.78-.18.9,1.07,1.61,2.1,0,3.18a1,1,0,0,0-.14,1.35,1.06,1.06,0,0,0,1.41.5c1.37-.79,2.1-.44,2.47,1.05.14.53.51,1,1.2.86a1.12,1.12,0,0,0,.91-1.21c-.15-1.41.27-2.18,1.83-2.13a1,1,0,0,0,1.08-1,1.13,1.13,0,0,0-1-1.28c-1.51-.15-1.8-.84-1.28-2.2a1.2,1.2,0,0,0-.72-1.62c-.69-.26-1.12.17-1.45.74-.88,1.53-.88,1.53-2.38.61a8,8,0,0,1-1.16-.6.66.66,0,0,1,.18-.88,10.09,10.09,0,0,1,4.77-2.5,12,12,0,0,1-5.68-3.29c-.45-.47-1-.91-.93-1.66a4.84,4.84,0,0,1,3.76-1.63,9.16,9.16,0,0,1,4,.5c-.12-1.79-.12-1.85-1.63-1.81a9.49,9.49,0,0,1-8.5-4.39c-.5-.71-1.23-1.53-.82-2.37s1.49-.48,2.27-.47a8.74,8.74,0,0,1,6.85,3.33c.38.45.74.92,1.31,1.62a28.58,28.58,0,0,0-1-4.58c-.46-1.74-1-3.45-1.54-5.18-.2-.73-.43-1.06-1.36-.89a5.94,5.94,0,0,1-4.7-1c-.85-1.18-.67-2.07.6-2.23a2.5,2.5,0,0,0,2.4-1.73,1.55,1.55,0,0,1,2.47-.67c.88.56,1.4.36,2.12-.27,1.15-1,1.71-.89,2.62.33a6,6,0,0,1-2.42,4.12c-.67.52-.89.89-.57,1.74a36.1,36.1,0,0,1,1.76,6,6.63,6.63,0,0,0,.46,1,9.92,9.92,0,0,1,3.45-6.52A9.38,9.38,0,0,1,129,93.67c.81-.31,1-.12,1.13.77.67,4.53-2.64,7.75-5.65,9.06-1.42.61-1.46.65-1.15,2.15.24,1.12.5,2.24.78,3.42.14-.61.27-1.22.41-1.82a8.46,8.46,0,0,1,7.87-6.76c0,3.61.05,7.23.05,10.84q0,10,0,19.9c0,1.19,0,1.22-1.13,1.22l-43,0a7.78,7.78,0,0,1,6.19-6.91,6.27,6.27,0,0,1,3.22-.1c.62.2.94-.1.88-.75a16.42,16.42,0,0,1,.26-2.43A3.22,3.22,0,0,1,100.13,118.84Z" transform="translate(1.57 1.58)"/><path class="cls-6" d="M114.55,43.53c2.26,2.65,4.38,5.42,6.58,8.27-1-4.58.49-8.21,3.94-11.17a9.36,9.36,0,0,1,.87,10.07A12.43,12.43,0,0,1,123.47,54a.73.73,0,0,0-.17,1.11c.87,1.32,1.68,2.68,2.5,4s1.55,2.62,2.43,3.95c-.76-4.49.26-8.28,4.15-10.95.05,3.7.18,7.41-.06,11.11a2.17,2.17,0,0,1-.86,1.34c-1.27.79-1.21,1.72-.51,2.87a13.56,13.56,0,0,1,1.44,3.42,18.33,18.33,0,0,1,0,3.23c-1-2-2-4.1-3.09-6.13-.75-1.46-.78-1.46-2.3-.86a9.8,9.8,0,0,1-12-3.71,7,7,0,0,1-.3-.65c4-2.17,7.79-1.64,11.55.53-.21-1.37-2.66-5.63-4.62-8a11.81,11.81,0,0,1-5,1.64,9.67,9.67,0,0,1-8.36-3.28c-.69-.78-.63-1,.32-1.43,3.5-1.63,7-2,10.49.1a2.35,2.35,0,0,0,.53.1c-2-3-4.2-5.67-6.19-8.47-.49-.34-.87-1-.31-1.27S114.35,42.72,114.55,43.53Z" transform="translate(1.57 1.58)"/><path class="cls-7" d="M66,132.38a26.31,26.31,0,0,1-4.46-4.55,19.76,19.76,0,0,1-3.14-8.2,1.54,1.54,0,0,1,0-.47,16.38,16.38,0,0,1,12.31,12.35,2.6,2.6,0,0,0,.41-1.56c0-2.25.13-4.5,0-6.74s-.17-4.26-.53-6.37c-.17-1-.42-1.62-1.5-1.81a4.48,4.48,0,0,1-2.87-1.77c-.2-1,.55-1,1.1-1a2.13,2.13,0,0,0,1.94-.92,1.32,1.32,0,0,1,2.24-.1,1.3,1.3,0,0,0,1.71.31c.7-.28,1.55-.53,1.65.72a4.64,4.64,0,0,1-2.54,2.44c-.4.16-.85.31-.72.91.6,2.89.57,5.85,1,8.81,1.29-6.2,4.74-10.4,11.09-12.19-.3,6.24-2.28,11.34-7.89,14.48a3.9,3.9,0,0,1-1,.51c-2.2.39-2.54,2-2.54,3.81,0,.44,0,.88,0,1.32A58.86,58.86,0,0,1,66,132.38Z" transform="translate(1.57 1.58)"/><path class="cls-8" d="M49.44,104.82a101.73,101.73,0,0,0-1.17,11.51c2.14-4.54,5.55-7.24,10.73-7.77-.14,3.63-1.31,6.67-4.16,8.94a15,15,0,0,1-5.93,2.69c-.6.15-.83.38-.82,1a47.94,47.94,0,0,0,.52,7.85c.19,1.13.36,2.26.54,3.39l-1.35,0a13,13,0,0,1-.57-3.54,49.45,49.45,0,0,1-.45-6.54c0-.22,0-.44,0-.66a2.47,2.47,0,0,0-2-2.67c-3.78-1.39-6.57-3.87-7.61-7.94a12.18,12.18,0,0,1-.52-3.06c0-.91.19-1.12,1.06-.92a11,11,0,0,1,7.54,5.29c.53.94,1,1.93,1.42,3,.48-3.55.8-7.1,1.48-10.59A.82.82,0,0,1,49.44,104.82Z" transform="translate(1.57 1.58)"/><path class="cls-9" d="M132.39,70.84c-1-1.43-1.59-3.08-2.46-4.57a.78.78,0,0,1,.18-1.14c.76-.62,1.48-1.28,2.21-1.92C132.48,65.75,132.4,68.3,132.39,70.84Z" transform="translate(1.57 1.58)"/><path class="cls-10" d="M12.13,51.45a4.88,4.88,0,0,0,1.59-1,11.09,11.09,0,0,1,12.22-.61c1,.57,1,.69.23,1.57a11.06,11.06,0,0,1-14.42,2.23c-.39-.25-.73-.49-1.12,0-1.72,2.3-3.45,4.6-5.12,7a11.06,11.06,0,0,1,7.22-2.06,13.13,13.13,0,0,1,6.69,2.45c.52.35.43.67,0,1a11.12,11.12,0,0,1-7.23,3.47A11.52,11.52,0,0,1,4.68,63.4c-.94-.67-1-.69-1.72.19-1,1.28-2,2.61-3,3.9a4.41,4.41,0,0,1-1.07,1.29A2.75,2.75,0,0,1-.53,66,18.69,18.69,0,0,0,2,62.64,7.11,7.11,0,0,1-.65,60.47a3.23,3.23,0,0,1-.63-1.82c0-3.78,0-7.57.05-11.35,0-.09.09-.17.14-.26C2.7,49.61,5,53.92,3.12,61.31,4.51,59.55,5.71,58,6.9,56.52c.54-.69,1-1.43,1.56-2.11s.51-1.06-.17-1.62A12.26,12.26,0,0,1,4.63,48c-1.56-3.81-.95-7.34,1.25-10.85A11.68,11.68,0,0,1,10.6,43.6a15.51,15.51,0,0,1-.18,7.94c1-1.79,2.24-3.39,3.24-5.15A2.08,2.08,0,0,0,13.88,45a11.35,11.35,0,0,1,6.44-11.83c2.4-1,2-1.08,2.42,1.38A10.84,10.84,0,0,1,16.38,45.9a4.34,4.34,0,0,0-2.13,1.92C13.64,49,13,50.06,12.13,51.45Z" transform="translate(1.57 1.58)"/><path class="cls-11" d="M16.29,90c-.08-.39.12-.83-.21-1.2-.67.12-.73.87-1.21,1.17a3.64,3.64,0,0,1-3.88.29c-2.42-1.22-2.67-4-.56-5.85a21.09,21.09,0,0,1,1.82-1.29C11,82.3,9.51,81.69,9.33,80a3.1,3.1,0,0,1,.53-2.51,3.57,3.57,0,0,1,3.36-1.32,5.56,5.56,0,0,1,3,2.08c.26-.8.42-1.36.62-1.9a3.67,3.67,0,0,1,3.59-2.58,3.13,3.13,0,0,1,3,3c.06,1.19-.57,2.19-.87,3.27.74,0,1.45,0,2.15,0a3.64,3.64,0,0,1,3.35,3.06c.37,2.7-2.51,4.17-4.41,3.73-.26-.06-.52-.16-.78-.23s-.41-.19-.67,0a9.83,9.83,0,0,1,.94,1.86c.6,2,0,3.76-1.62,4.47a3.76,3.76,0,0,1-4.74-1.84C16.62,90.79,16.68,90.3,16.29,90Z" transform="translate(1.57 1.58)"/><path class="cls-12" d="M97.52,106.73l-1.68-1.32c-.64,0-.72.57-.92,1-.83,1.84-1.67,2.36-3.68,2.29a2.54,2.54,0,0,1-2.6-2.39,4.48,4.48,0,0,1,.61-3.15c.19-.26.34-.55.51-.83a1.51,1.51,0,0,0-1.32-.55,2.91,2.91,0,0,1-1.76-.79c-1.35-1.17-1.68-2.38-1-3.59A3.23,3.23,0,0,1,89.55,96c.4.12.72.51,1.21.33.34-.5,0-.94-.07-1.41-.17-1.37-.3-2.73.87-3.82a2.1,2.1,0,0,1,3.2-.12,3.69,3.69,0,0,1,1.49,2.46,7.09,7.09,0,0,0,.43,1.35,7.91,7.91,0,0,1,2.49-1.64,2.57,2.57,0,0,1,3,.69,2.78,2.78,0,0,1,.6,3.17,4.27,4.27,0,0,1-1.64,2.16c-.73.4-.56.74,0,1.18a4.71,4.71,0,0,1,1.55,1.68,2.77,2.77,0,0,1-.14,3.09,4.1,4.1,0,0,1-3.76,1.9A9.33,9.33,0,0,1,97.52,106.73Z" transform="translate(1.57 1.58)"/><path class="cls-13" d="M123.48,89c-1.27-.93-1.6-.92-2.6.15a5.71,5.71,0,0,0-.62.76c-.23.33-.48.41-.8.12-.16-.15-.31-.31-.47-.45-1.34-1.1-2.4-.78-2.63.92-.13,1-.48,1.22-1.34,1.09a1.71,1.71,0,0,0-.32,0c-1.66,0-1.87.33-1.43,2A14,14,0,0,1,106,88c-1.15-1.72-1.17-3.32-.23-4.41s3.09-1.15,4.42-.33a2.54,2.54,0,0,0,1.4.58,13.55,13.55,0,0,1-.24-3.59,2.34,2.34,0,0,1,1.24-2.33,2.6,2.6,0,0,1,2.78.46,9.89,9.89,0,0,1,2.78,3.33,7.47,7.47,0,0,1,1-3.07,3.23,3.23,0,0,1,1.1-1.19c1.68-1.06,3.08-.65,3.82,1.19a10,10,0,0,1,.74,4.82C124.6,85.31,124.5,87.25,123.48,89Z" transform="translate(1.57 1.58)"/><path class="cls-14" d="M49.44,104.82l-1.28-.08a1.11,1.11,0,0,0-.7-.38c-4.55-1.13-7.31-7-7.21-10.52a2.45,2.45,0,0,1,1.11-2.4,2.61,2.61,0,0,1,2.92.43A9.42,9.42,0,0,1,47,95.13c.27-1,.49-1.84.69-2.66a6,6,0,0,1,1.1-2.18,2.24,2.24,0,0,1,3.92.17,5.81,5.81,0,0,1,.56,4.28c-.08.48-.27.94-.48,1.67a20.12,20.12,0,0,1,2.7-2,6.32,6.32,0,0,1,3-.59c1.2.06,1.43.3,1.53,1.45a6.37,6.37,0,0,1-.76,3.64,11.22,11.22,0,0,1-6.9,5.67A26.24,26.24,0,0,1,49.44,104.82Z" transform="translate(1.57 1.58)"/><path class="cls-15" d="M114.55,43.53c-.46-.24-.75-.75-1.34-.81-.28.43.2.75.16,1.14a2.73,2.73,0,0,1-1.25,2.53,1.89,1.89,0,0,1-2.89-.81,4.59,4.59,0,0,1-.31-2.81c-.66.31-1.25.65-1.87.88a2,2,0,0,1-2.57-.8,2.2,2.2,0,0,1,.68-2.78,16.91,16.91,0,0,1,1.77-1c-.57-.31-1.07-.54-1.53-.82a2.19,2.19,0,0,1-1.06-2.65,2.33,2.33,0,0,1,3-1c.5.21,1,.5,1.6.84a4.79,4.79,0,0,1,.08-2.5c.44-1.1,1.06-1.66,2-1.61a2.07,2.07,0,0,1,1.9,1.75,15.9,15.9,0,0,1,.09,2.68,3.83,3.83,0,0,1,3.47-1.48,1.72,1.72,0,0,1,1.41,2.82c-.54.88-1.5,1.24-2.46,1.88.47.23.84.39,1.18.58a2.7,2.7,0,0,1,1.43,1.7,1.83,1.83,0,0,1-1.84,2.54A9.82,9.82,0,0,1,114.55,43.53Z" transform="translate(1.57 1.58)"/><path class="cls-16" d="M46.37,54.81c.49.5,1.13.6,1.6.95.75.56,1.51,1.11,1.54,2.19a1.69,1.69,0,0,1-2.23,1.79,7.25,7.25,0,0,1-2.88-1.87,10.16,10.16,0,0,1,.14,2.1,2.57,2.57,0,0,1-.24,1.12,2.27,2.27,0,0,1-2.17,1.44,2.11,2.11,0,0,1-1.55-2.09c0-.82,0-1.64,0-2.49-.65,0-1,.43-1.49.66A3.48,3.48,0,0,1,37,59a1.69,1.69,0,0,1-1.34-2.65,3.51,3.51,0,0,1,2-1.58c.35-.11.79,0,1-.46-.12-.36-.49-.38-.75-.55a10.68,10.68,0,0,1-1-.6,2.39,2.39,0,0,1-.74-3.07,2.37,2.37,0,0,1,3-.28,22.59,22.59,0,0,1,2.07,1.64,3.93,3.93,0,0,1,.09-3.26,1.88,1.88,0,0,1,2.16-1.36,2.12,2.12,0,0,1,1.62,1.85,5.3,5.3,0,0,1-.31,2.65c.67-.36,1.14-.63,1.64-.88a2.71,2.71,0,0,1,2.81.09,1.6,1.6,0,0,1,.38,2.53C48.86,54.13,47.62,54.41,46.37,54.81Z" transform="translate(1.57 1.58)"/><path class="cls-16" d="M84.17,23.2c1-.84,1.94-1.56,3.29-1.45a1.66,1.66,0,0,1,1.61.88,1.8,1.8,0,0,1-.18,1.87,5.51,5.51,0,0,1-2.34,1.75l-.74.32,1.64.56a3.43,3.43,0,0,1,1.36.89c.82.89,1,1.56.45,2.35a2.08,2.08,0,0,1-2.45.82,5.86,5.86,0,0,1-2.42-1.58,1.53,1.53,0,0,0,.1,1.32,3,3,0,0,1-.15,2.24,1.59,1.59,0,0,1-1.44,1.14,1.78,1.78,0,0,1-1.78-.94,5,5,0,0,1-.34-3,4.52,4.52,0,0,1,.2-.72c-.53.07-.75.47-1,.74a3.75,3.75,0,0,1-1.67,1c-1.15.29-2,.11-2.35-.54a2.7,2.7,0,0,1,.58-2.88,12.86,12.86,0,0,1,2.36-1.36,4.21,4.21,0,0,1-2.81-1.4,2.13,2.13,0,0,1-.46-2.26c.39-.74,1.08-.81,1.83-.81,1.1,0,1.9.7,2.95,1.26,0-.87,0-1.57,0-2.26A2.75,2.75,0,0,1,80.56,20a1.76,1.76,0,0,1,3.36.15A4.28,4.28,0,0,1,84.17,23.2Z" transform="translate(1.57 1.58)"/><path class="cls-17" d="M74.82,112.32a1,1,0,0,0-1.36-.5l-1.32.65c-.47-.13-.56-.62-.86-.91-.76-.72-1.25-.71-1.88.09a2.14,2.14,0,0,0-.32.57c-.22.56-.53.67-1.14.51s-1.44-.5-1.76.53a10.28,10.28,0,0,1-2.35-4.4,9,9,0,0,1,.77-5.39c.25-.63.68-.84,1.25-.29a2.12,2.12,0,0,0,1.21.71,16.75,16.75,0,0,1,1.41-2.63c.76-1,1-1,1.9-.16a10.2,10.2,0,0,1,1.6,2.46c.75-.22,1-1,1.73-1.31a6.48,6.48,0,0,1,1.88,3.16,7.85,7.85,0,0,1-.19,6.35A1.28,1.28,0,0,1,74.82,112.32Z" transform="translate(1.57 1.58)"/><path class="cls-18" d="M115.28,120.56l-.5-.61a16.65,16.65,0,0,0-2.62,5.07c-.63-.06-.52-.57-.62-.88a12.74,12.74,0,0,0-6.74-7.59,1.74,1.74,0,0,1-.37-.3c.4-1.21,1.42-.92,2.3-1,1.28-.42,1.54-.38,4.33.67a10.06,10.06,0,0,1,1.75-4.6c.37-.5.66-1.18,1.5-1h.32a12.72,12.72,0,0,0,7,4.7c-.08.58-.56.5-.87.67-1.56.84-3.35,1.33-4.5,2.83A6.41,6.41,0,0,1,115.28,120.56Z" transform="translate(1.57 1.58)"/><path class="cls-19" d="M70.07,70.42c1.87,6-2.35,12.15-8.17,13.44C59.69,78.45,63.51,71,70.07,70.42Z" transform="translate(1.57 1.58)"/><path class="cls-20" d="M49.13,26.84c0,.22,0,.44,0,.66-.1,1.69-.65,1.65-1.83,1.3A11.13,11.13,0,0,1,39,17.59c0-1,.17-1.18,1-1a11.85,11.85,0,0,1,7.55,4.85A9.29,9.29,0,0,1,49.13,26.84Z" transform="translate(1.57 1.58)"/><path class="cls-21" d="M89.32,67.87a8.33,8.33,0,0,1,3.75-6.77A12.14,12.14,0,0,1,99.71,59c1.09-.06,1.12,0,.9,1.09a13.2,13.2,0,0,1-4.22,7.43,10.16,10.16,0,0,1-6.2,2.26.73.73,0,0,1-.86-.77C89.3,68.64,89.32,68.26,89.32,67.87Z" transform="translate(1.57 1.58)"/><path class="cls-22" d="M4.1,75.15a10,10,0,0,1-4.64-.94c-.47-.2-.72-.44-.71-1,0-.27,0-.54,0-.82,0-2.76-.05-2.78,2.62-3.65,3.72-1.22,7.12-.36,10.31,1.67.77.49.76.69.12,1.4A9.39,9.39,0,0,1,4.1,75.15Z" transform="translate(1.57 1.58)"/><path class="cls-23" d="M35.3,102.5c-1.41,0-1.41,0-3.1,1.51-1.29-.85-1.91-2.66-3.73-2.77a13.41,13.41,0,0,1,.09-3.1c.41-2.12,2-3.32,3.43-4.65.48-.45.91-.22,1.16.33s.53,1.19.78,1.77c.56.23.79-.29,1.17-.45.82-.33,1.24-.26,1.67.42C38,97.39,37.16,101.18,35.3,102.5Z" transform="translate(1.57 1.58)"/><path class="cls-24" d="M100.13,118.84a17.26,17.26,0,0,0-1.32,3.39,14.19,14.19,0,0,1-7.87-5.82c-.49-.77-.86-1.62-1.3-2.45C92.94,113,97.54,115.18,100.13,118.84Z" transform="translate(1.57 1.58)"/><path class="cls-25" d="M114.31,110.34a8,8,0,0,0-2.61,4.39c-.16.51-.28,1-.44,1.65-1.53-.41-3-1.11-4.53-1.1a3.65,3.65,0,0,1,.84-2.73,40,40,0,0,0,4.58-7.1Z" transform="translate(1.57 1.58)"/><path class="cls-26" d="M103.12,116a3,3,0,0,1-1.69,1.24,11,11,0,0,1,5-6.93c.57,2,.38,2.53-1.21,3.45-.61.35-1.26.64-1.88,1S102.51,115.46,103.12,116Z" transform="translate(1.57 1.58)"/><path class="cls-27" d="M11.7,121.39c0,.67,0,1.15,0,1.64,0,1.09-.62,1.75-1.5,1.8a1.9,1.9,0,0,1-1.88-1.7c-.08-.47.12-1-.19-1.41-1.93.72-3.16.56-3.65-.47s0-2,1.79-3.08c0-.5-.52-.78-.7-1.22a2,2,0,0,1,.34-2.4,2.1,2.1,0,0,1,2.45.12,10.85,10.85,0,0,1,1.13,1.2c.32-.47.59-1,.94-1.37a1.7,1.7,0,0,1,2.15-.67,2,2,0,0,1,1,2.22,6,6,0,0,1-.82,1.69,13.5,13.5,0,0,1,1.52.52,1.83,1.83,0,0,1,1.23,1.92,2.35,2.35,0,0,1-2.24,1.59A12.58,12.58,0,0,1,11.7,121.39Z" transform="translate(1.57 1.58)"/><path class="cls-28" d="M32.9,126.58c.65,2,.56,2.53-.49,3s-1.37.17-2.35-1.33c-1.5,1-2.22,1.12-2.88.48s-.56-1.41.51-3c-.69-.76-2-1.33-1.17-2.74.44-.7,1.22-.71,2.71-.08.3-.52.26-1.16.64-1.64a1.39,1.39,0,0,1,1.36-.73c.57.09.8.54,1,1a1.58,1.58,0,0,1,.13.8c-.13,1.06.51,1.18,1.3,1.1a1.27,1.27,0,0,1,1.25,1.89,2,2,0,0,1-1.38,1.08Z" transform="translate(1.57 1.58)"/><path class="cls-29" d="M115.28,120.56a1.93,1.93,0,0,1,1-2,3,3,0,0,1,2.48,1.28c.5-.25.34-.7.45-1a1.71,1.71,0,1,1,3.32.78c-.07.57-.49,1-.68,1.56.94.16,1.94-.11,2.61.74a1.64,1.64,0,0,1,.4,1.21c-.11,1.1-1,1.53-3.08,1.48,0,.51.12,1,.13,1.55a1.72,1.72,0,0,1-1.31,1.83c-.8.18-1.46-.26-1.82-1.27a11.58,11.58,0,0,1-.33-1.48,14.76,14.76,0,0,1-1.44.71,1.77,1.77,0,0,1-2.15-.68,1.68,1.68,0,0,1,.42-2.08,10.74,10.74,0,0,1,1.22-.9C116.09,121.68,115.45,121.28,115.28,120.56Z" transform="translate(1.57 1.58)"/><path class="cls-30" d="M20.21,83.16a2,2,0,1,1-4,0,2,2,0,1,1,4,0Z" transform="translate(1.57 1.58)"/><path class="cls-31" d="M93.24,99.9a1.45,1.45,0,0,1,1.61-1.44,1.39,1.39,0,0,1,1.32,1.37,1.58,1.58,0,0,1-1.62,1.64A1.46,1.46,0,0,1,93.24,99.9Z" transform="translate(1.57 1.58)"/><path class="cls-32" d="M111.22,37.25a1.86,1.86,0,0,1,1.71,1.67,1.76,1.76,0,0,1-1.76,1.57,1.64,1.64,0,0,1-1.55-1.76A1.46,1.46,0,0,1,111.22,37.25Z" transform="translate(1.57 1.58)"/><path class="cls-33" d="M44.59,54.62a1.68,1.68,0,0,1-2,1.79,1.62,1.62,0,0,1-1.73-1.9,1.93,1.93,0,0,1,1.74-2A2,2,0,0,1,44.59,54.62Z" transform="translate(1.57 1.58)"/><path class="cls-34" d="M82.53,24.7a1.66,1.66,0,0,1,1.85,1.81,1.73,1.73,0,0,1-1.94,1.9A1.92,1.92,0,0,1,80.5,26.6,1.94,1.94,0,0,1,82.53,24.7Z" transform="translate(1.57 1.58)"/><path class="cls-35" d="M9.61,117.69a1.37,1.37,0,0,1,1.32,1.17,1.28,1.28,0,0,1-1.16,1.3A1.22,1.22,0,0,1,8.66,119,1.19,1.19,0,0,1,9.61,117.69Z" transform="translate(1.57 1.58)"/><path class="cls-36" d="M30.38,124c.43,0,1.18.72,1.22,1.19s-.54,1.17-1,1.12a1.25,1.25,0,0,1-1.08-1.08A1.21,1.21,0,0,1,30.38,124Z" transform="translate(1.57 1.58)"/><path class="cls-37" d="M121.21,122.61a1.56,1.56,0,0,1-1.56,1.53,1.63,1.63,0,1,1,0-3.25A1.65,1.65,0,0,1,121.21,122.61Z" transform="translate(1.57 1.58)"/></g></g></g></g></svg>