<svg xmlns="http://www.w3.org/2000/svg" xmlns:xlink="http://www.w3.org/1999/xlink" viewBox="0 0 134.12 134.03"><defs><style>.cls-1{fill:none;}.cls-2{clip-path:url(#clip-path);}.cls-3{fill:#fefffe;}.cls-4{fill:#addbf2;}.cls-5{fill:#fefefd;}.cls-6{fill:#fbc178;}.cls-7{fill:#efc264;}.cls-8{fill:#f2c166;}.cls-9{fill:#f1bb64;}.cls-10{fill:#eebf5f;}.cls-11{fill:#f2b95b;}.cls-12{fill:#eec46c;}.cls-13{fill:#efc25c;}</style><clipPath id="clip-path" transform="translate(1.63 0.73)"><rect class="cls-1" width="130.85" height="130.85"/></clipPath></defs><g id="Capa_2" data-name="Capa 2"><g id="TIENDA"><g id="Back"><g class="cls-2"><rect class="cls-3" x="0.16" y="37.4" width="133.97" height="95.96"/><path class="cls-4" d="M47.6,123.26c-.29-1.29-.46-2.54-.85-3.72-1.53-4.6-4.55-7.7-9.37-8.73a11.6,11.6,0,0,0-7.69.71c-1,.5-1,.45-1.39-.67-2.23-6.56-6.87-10.56-13.58-11.68A15.46,15.46,0,0,0,.44,103.74c-.57.58-1.11,1.19-1.67,1.81-.55-.48-.37-.94-.37-1.34q0-19.67,0-39.33c0-.33,0-.66,0-1a.66.66,0,0,1,.73-.7H.62l46.23,0a6.08,6.08,0,0,0,1.95-.1c0-3.28-3.26-5.91-6.73-5.47-1.36.18-1.36.17-1.86-1.13a7.09,7.09,0,0,0-5.28-4.72,7.31,7.31,0,0,0-6.31,1.38c-.53-.14-.63-.56-.81-.88-1.39-2.53-5.44-4-8-2.86-.72.33-1,.13-1.34-.59A11,11,0,0,0,2.06,44,9.32,9.32,0,0,0-.81,46.68c-.13.22-.29.48-.67.41a2.82,2.82,0,0,1-.12-1.41q0-22.3,0-44.6c0-.33,0-.66,0-1A.71.71,0,0,1-.81-.72H130.3c2.19,0,2-.12,2,2.06q0,26.25,0,52.5a2.67,2.67,0,0,1-1.45,2.64,8.1,8.1,0,0,0-3.43,4.07c-.3.77-.59.89-1.31.56a7.15,7.15,0,0,0-6.05,0,8.23,8.23,0,0,0-4.86,6.39c0,.21-.06.42-.1.7-1.49,0-3-.26-4.36.35a6.84,6.84,0,0,0-4,4.3c-.3.92-.08,1.17.89,1.23.39,0,.77,0,1.15,0l21.88,0c1.6,0,1.62,0,1.62,1.65v55.95c0,1.3,0,1.3-1.27,1.35-.38,0-.76,0-1.15,0H74.32c-2.19,0-4.37,0-6.56.23-1.93.16-1.67.27-2.25-1.56A14.06,14.06,0,0,0,64,128.41a12.92,12.92,0,0,0-8.59-5.84,12.32,12.32,0,0,0-6.34.24Z" transform="translate(1.63 0.73)"/><path class="cls-3" d="M113.26,30.4a8.08,8.08,0,0,1,1.31,3.16c.2,1,.22,1,1.28.82A5.3,5.3,0,0,1,122,38.23a7.07,7.07,0,0,1,.13,1.3c0,.63-.27.91-.89.89-.32,0-.65,0-1,0H66.83c-2.14,0-2.41-.47-1.35-2.34,1.44-2.55,4.82-4.69,7.54-3.67.86.33,1.16-.27,1.38-1a6.71,6.71,0,0,1,3.48-4,6.84,6.84,0,0,1,5.72-.09l.85.35a24.81,24.81,0,0,1,1.7-3.87c2.1-3.16,6.92-5.4,11.29-3.42a4.44,4.44,0,0,0,.62.19,6.09,6.09,0,0,1,4.53,3.54c.69,1.29,1.32,1.71,2.78,1.25a7.59,7.59,0,0,1,6.81,1.4C112.71,29.23,113.26,29.64,113.26,30.4Z" transform="translate(1.63 0.73)"/><path class="cls-3" d="M64.79,101.05c.5-2.72,2.33-4.32,4.76-4.33.32,0,.65,0,1,0,.71.06,1-.27,1.31-.93,1.62-3.81,5.21-5,8.89-3.08.6.32.81.25,1.12-.3A4.91,4.91,0,0,1,87.71,90c.86.2,1.14,0,1.51-.71a9.62,9.62,0,0,1,5.65-4.69,9.09,9.09,0,0,1,10.53,4.87,12.89,12.89,0,0,1,.88,3.14c.14.88.46.91,1.21.64A5.82,5.82,0,0,1,115,97a10.81,10.81,0,0,1,.18,3.26.65.65,0,0,1-.69.73l-1.15,0H64.79Z" transform="translate(1.63 0.73)"/><path class="cls-5" d="M15.72,17.08a8.32,8.32,0,0,1,2.86-5.25,6.16,6.16,0,0,1,8.47.12,7.3,7.3,0,0,1,1.62,1.84,1,1,0,0,0,1.2.6c1.68-.6,2.86.23,3.91,1.35a1.19,1.19,0,0,0,1.54.36c2.84-1.06,5.42.08,6.35,2.61.26.72.45,1,1.37.81a3.4,3.4,0,0,1,3.65,2.39c.2.72,0,1-.75,1.07-.32,0-.65,0-1,0H11.1c-.22,0-.44,0-.66,0C9.31,23,9,22.66,9,21.52a4.94,4.94,0,0,1,4.33-4.77A5.1,5.1,0,0,1,15.72,17.08Z" transform="translate(1.63 0.73)"/><path class="cls-6" d="M113.26,30.4c-.65-.49-1.15-1.15-1.85-1.59a7.67,7.67,0,0,0-7.19-.61c-.65.25-1,.18-1.25-.49a10.08,10.08,0,0,0-4.91-5c.79-3.9,3-6.54,6.94-7.39s7.15.72,9.48,4a8.36,8.36,0,0,1-.22,9.81C113.92,29.55,113.73,30.08,113.26,30.4Z" transform="translate(1.63 0.73)"/><path class="cls-7" d="M107.35,11.87c0,.16,0,.33,0,.49,0,.46.11,1.1-.64,1.07-.56,0-.62-.53-.64-1s0-1,0-1.47.09-.79.59-.81.7.4.71.87C107.36,11.32,107.35,11.6,107.35,11.87Z" transform="translate(1.63 0.73)"/><path class="cls-8" d="M102,14.11c0,.38-.1.55-.33.65a.59.59,0,0,1-.62-.07,6.56,6.56,0,0,1-1.4-2.19.43.43,0,0,1,.2-.56.52.52,0,0,1,.45,0A6.51,6.51,0,0,1,102,14.11Z" transform="translate(1.63 0.73)"/><path class="cls-9" d="M119.12,23.32c.49.12,1.33-.27,1.37.64s-.79.64-1.33.68a5.22,5.22,0,0,1-1,0c-.36,0-.63-.19-.65-.58a.59.59,0,0,1,.58-.65C118.44,23.34,118.76,23.34,119.12,23.32Z" transform="translate(1.63 0.73)"/><path class="cls-10" d="M118.76,17.33c0,.57-.46.83-.88,1.05s-1,1.05-1.5.41.39-1,.86-1.4a3.09,3.09,0,0,1,.81-.52C118.4,16.75,118.66,17,118.76,17.33Z" transform="translate(1.63 0.73)"/><path class="cls-11" d="M97.69,18.5A.55.55,0,0,1,97,19a2.91,2.91,0,0,1-1.69-1,.66.66,0,0,1-.11-.76.52.52,0,0,1,.72-.16c.49.24,1,.5,1.44.78A.63.63,0,0,1,97.69,18.5Z" transform="translate(1.63 0.73)"/><path class="cls-12" d="M116.41,29.09a3.58,3.58,0,0,1,2.09,1.43c.08.3,0,.56-.38.58a3.46,3.46,0,0,1-2.1-1.4A.48.48,0,0,1,116.41,29.09Z" transform="translate(1.63 0.73)"/><path class="cls-13" d="M111.89,14.12a6.18,6.18,0,0,1,1.25-2,.35.35,0,0,1,.45-.1.44.44,0,0,1,.29.52,5.17,5.17,0,0,1-1.27,2.07.55.55,0,0,1-.44.1C111.92,14.69,111.88,14.45,111.89,14.12Z" transform="translate(1.63 0.73)"/></g></g></g></g></svg>