<svg xmlns="http://www.w3.org/2000/svg" xmlns:xlink="http://www.w3.org/1999/xlink" viewBox="0 0 133.99 134.09"><defs><style>.cls-1{fill:none;}.cls-2{clip-path:url(#clip-path);}.cls-3{fill:#f3e3c9;}.cls-4{fill:#cda376;}.cls-5{fill:#cca274;}.cls-6{fill:#cba173;}.cls-7{fill:#cca174;}.cls-8{fill:#caa173;}.cls-9{fill:#cca275;}.cls-10{fill:#cba375;}.cls-11{fill:#755944;}.cls-12{fill:#73533d;}.cls-13{fill:#c9a277;}.cls-14{fill:#7a5944;}.cls-15{fill:#7c573e;}.cls-16{fill:#9d7555;}.cls-17{fill:#a17856;}.cls-18{fill:#795237;}.cls-19{fill:#72513d;}.cls-20{fill:#755139;}.cls-21{fill:#7d563e;}.cls-22{fill:#9a7a62;}.cls-23{fill:#cda275;}.cls-24{fill:#cda274;}.cls-25{fill:#cda378;}.cls-26{fill:#cca072;}.cls-27{fill:#a57f5b;}.cls-28{fill:#76563f;}.cls-29{fill:#765641;}.cls-30{fill:#775640;}.cls-31{fill:#755641;}.cls-32{fill:#765740;}.cls-33{fill:#7a5a42;}.cls-34{fill:#75553e;}.cls-35{fill:#795942;}.cls-36{fill:#9f7957;}.cls-37{fill:#ac8561;}.cls-38{fill:#785239;}.cls-39{fill:#815b42;}.cls-40{fill:#7c573d;}.cls-41{fill:#7d593e;}.cls-42{fill:#7d5a40;}.cls-43{fill:#79563d;}.cls-44{fill:#aa825e;}.cls-45{fill:#7c583f;}.cls-46{fill:#7a563d;}.cls-47{fill:#7c5940;}.cls-48{fill:#7f573d;}.cls-49{fill:#7d5942;}.cls-50{fill:#7a553b;}.cls-51{fill:#7a573f;}.cls-52{fill:#7b573d;}.cls-53{fill:#78573f;}.cls-54{fill:#79553c;}.cls-55{fill:#7f5a41;}.cls-56{fill:#79573e;}.cls-57{fill:#9f7753;}.cls-58{fill:#7b553d;}.cls-59{fill:#78553b;}.cls-60{fill:#79533b;}.cls-61{fill:#7c573f;}.cls-62{fill:#78563e;}.cls-63{fill:#7b573e;}.cls-64{fill:#825c42;}.cls-65{fill:#7b583e;}.cls-66{fill:#7b583f;}.cls-67{fill:#78543e;}.cls-68{fill:#7e5941;}.cls-69{fill:#9c7454;}.cls-70{fill:#76533b;}.cls-71{fill:#7a563f;}.cls-72{fill:#7e5940;}.cls-73{fill:#7b563d;}.cls-74{fill:#ab825b;}.cls-75{fill:#7e593f;}.cls-76{fill:#ac8460;}</style><clipPath id="clip-path" transform="translate(1.54 1.13)"><rect class="cls-1" width="130.85" height="130.85"/></clipPath></defs><g id="Capa_2" data-name="Capa 2"><g id="TIENDA"><g id="Back"><g class="cls-2"><path class="cls-3" d="M101.47,132.9l-18.45,0c-.59-.56-.14-1.9-1.33-2s-1.55,1-2.06,1.76a1.67,1.67,0,0,1-.23.23h-2c-2.17-1.9-2.17-1.9-5.22,0l-1.75,0c0-.85.54-1.67.18-2.55s-.76-1.63-1.75-1.3-.84,1.21-.6,2.07c.19.67,1,1,.89,1.83h-27c-.44,0-.87,0-1.31,0a4.83,4.83,0,0,1-.84-2.09,2.92,2.92,0,0,0-2.69-2.24c-1.18.07-2,.95-2.24,2.58a2,2,0,0,1-1.41,1.78l-27.38,0c-.35-.52,0-1.07,0-1.6s-.11-1.13-.75-1.31-1,.21-1.41.63c-.59.64-.47,1.57-.94,2.25l-1.39.07a10.63,10.63,0,0,0-3.24-1.59c0-5.75-.05-11.5-.06-17.25,0-1.86,0-3.72.06-5.58a1.84,1.84,0,0,1,2.53-.07,3.78,3.78,0,0,0,1,.54,2.71,2.71,0,0,0,3.22-1.3,2.1,2.1,0,0,0-.87-2.84,2.42,2.42,0,0,1-1.19-2.42A2.46,2.46,0,0,0-.26,100c-.4.14-.75.46-1.23.34q0-11.34,0-22.68c0-3.56,0-7.12.06-10.68,1-.66,2-.09,3,.14a1.82,1.82,0,0,0,2.08-.47A1.75,1.75,0,0,0,3.7,64.5c-1.39-1.82-2.51-4-5.19-4.32q0-13.22,0-26.43c.61-.35,1.17,0,1.73.15,1.42.44,2.79,1,4.2,1.47,1.57.51,2.9,1,3.24,3a2.3,2.3,0,0,0,2.91,1.52c1.23-.24,1.84-1.07,1.74-2.56a2.14,2.14,0,0,1,.67-2c1.22-1,1.42-2.25.72-3.3a2.41,2.41,0,0,0-3.23-.74c-1.75,1.22-3.31.68-5,.06a52.05,52.05,0,0,1-7-2.71q0-11.92,0-23.85c0-1.6,0-3.19,0-4.78,0-.78.32-1.11,1.08-1,.22,0,.44,0,.66,0H33.91c.5,0,1,0,1.48.06.62,1.82.52,2.2-1,3.25a2.4,2.4,0,0,0-1.06,3,2,2,0,0,0,2.62,1.42c2.75-1.11,4.57.55,6.57,1.82.87.56,1.73,1.15,2.63,1.67,1.45.83,2.71,1.66,2.7,3.72a2.4,2.4,0,0,0,2.67,2.33c1.29-.09,2-.81,2.16-2.42a2.65,2.65,0,0,1,1.28-2.14,2.1,2.1,0,0,0,1-2.81,2.25,2.25,0,0,0-2.8-1.47c-2.35.91-4-.3-5.76-1.38-1.45-.9-2.88-1.8-4.33-2.69a3.39,3.39,0,0,1-1.47-4.34h28c.44.43.57,1.06,1,1.51s.86.93,1.54.68.64-.83.63-1.39a1.45,1.45,0,0,1,.1-.8c1.91-.09,3.81-.07,5.71,0a2.55,2.55,0,0,0,2.55-.05H105c.7,0,1.41,0,2.12.05-.61,2.35-2.12,3.51-4.41,3.39a2.71,2.71,0,0,0-3,2c-.23,1.27.58,2.37,2.19,2.71a2,2,0,0,1,1.54,1.5c.61,1.53,1.76,2.22,3,1.89a2.5,2.5,0,0,0,1.74-3.26,3.3,3.3,0,0,1,1.13-3.76C110.77,2,111.72,0,113.59-1l17.27-.05c1.53,0,1.54,0,1.55,1.56V19.7q0,4.28,0,8.56c-.89.27-1-.49-1.18-1a5.23,5.23,0,0,0-.74-1.45,2.51,2.51,0,0,0-2.85-.64,2,2,0,0,0-1.32,2.22,2.76,2.76,0,0,1-.77,2.65,2.22,2.22,0,0,0-.34,3.22c.86,1.11,1.94,1.27,3.33.49,2.09-1.17,2.53-1.17,3.89,0V59.85a15.69,15.69,0,0,0-3.94,4.34,2.12,2.12,0,0,0-.17,2.59c.63.84,1.52.67,2.4.47.57-.13,1.12-.51,1.74-.17q0,16.45,0,32.91a3.89,3.89,0,0,0-.67,1.83c-.11,1.91-1.32,2.75-2.87,3.36a63.62,63.62,0,0,0-5.78,2.74,3.31,3.31,0,0,1-3.12.15c-1.62-.72-2.85-.42-3.51.63s-.43,2.37,1,3.54a2,2,0,0,1,.65,1.73c0,1.67.58,2.46,1.83,2.66a2.37,2.37,0,0,0,2.91-2,4,4,0,0,1,2.86-3.2c1.72-.71,3.29-1.73,5-2.38.54-.2,1.08-.61,1.7-.19q0,10.61,0,21.2c0,.33-.05.65-.07,1-.56.83-1.59,1.11-2.22,1.86l-1.76-.07c-.51-.58-.52-1.43-1.08-2s-1-1-1.7-.59-.63.95-.47,1.58c.08.36.3.71,0,1.09l-17.13,0c.48-1.86,1.24-2.54,3-2.67a9.61,9.61,0,0,0,1.31-.09,2.15,2.15,0,0,0,1.87-2.16,2,2,0,0,0-1.58-2.35,2.77,2.77,0,0,1-2.33-1.94,2.28,2.28,0,0,0-2.87-1.27,2.35,2.35,0,0,0-1.62,2.86c.58,1.73,0,2.93-1.13,4.14A24.6,24.6,0,0,1,101.47,132.9Z" transform="translate(1.54 1.13)"/><path class="cls-4" d="M40.58-1.08c.12.92.25,1.84.35,2.76a1.1,1.1,0,0,0,.68.84l7.56,4.63a1.28,1.28,0,0,0,1.52,0,3.37,3.37,0,0,1,2.22-.4,3,3,0,0,1,2.71,2.45A2.41,2.41,0,0,1,54.25,12a1.84,1.84,0,0,0-1.15,2,2.52,2.52,0,0,1-2.24,2.62,3.08,3.08,0,0,1-3.16-1.56,3.2,3.2,0,0,1-.47-2.2c.18-.71-.14-1-.65-1.3-2.5-1.57-5-3.15-7.47-4.76a1.44,1.44,0,0,0-1.68-.06,3.79,3.79,0,0,1-2.22.39,2.7,2.7,0,0,1-2.49-2A2.62,2.62,0,0,1,34,2,1.91,1.91,0,0,0,35.32-.37,3,3,0,0,1,35.39-1,42.8,42.8,0,0,1,40.58-1.08Z" transform="translate(1.54 1.13)"/><path class="cls-5" d="M132.39,108.85a39.28,39.28,0,0,0-5.39,2.39,12,12,0,0,1-1.77.86,2.42,2.42,0,0,0-1.89,2.27c-.32,2-1.38,2.75-3.1,2.75a2.46,2.46,0,0,1-2.68-2.79c0-.9.1-1.53-.91-2.07-1.21-.64-1.41-2.39-.71-3.66a2.6,2.6,0,0,1,3.52-1.21c1.68,1.08,2.93.45,4.36-.29,2-1,4-1.95,6.08-2.89a1.73,1.73,0,0,0,1.22-1.71,2.8,2.8,0,0,1,1.27-2.51Z" transform="translate(1.54 1.13)"/><path class="cls-6" d="M-1.49,28.58c1.41,0,2.6.74,3.89,1.15,1.77.57,3.52,1.17,5.25,1.84a1.4,1.4,0,0,0,1.76-.29,3.14,3.14,0,0,1,2.91-.76,2.6,2.6,0,0,1,2.21,1.95,2.51,2.51,0,0,1-1,3c-.62.39-1,.69-.75,1.53a2.55,2.55,0,0,1-2,3.37c-1.8.33-3.62-.64-3.73-2.3-.08-1.3-.74-1.63-1.73-2-2.28-.76-4.54-1.59-6.8-2.38C-1.48,32-1.48,30.3-1.49,28.58Z" transform="translate(1.54 1.13)"/><path class="cls-7" d="M113.59-1c-1.58,1.88-3.14,3.78-4.77,5.62a1.51,1.51,0,0,0-.36,1.85c.79,1.94.06,3.74-1.63,4.36A2.76,2.76,0,0,1,103.15,9c-.31-.95-.6-1.58-1.82-1.63S99.1,5.82,99.17,4.53a3,3,0,0,1,2.52-2.64,2.79,2.79,0,0,1,1.62.1c.77.39,1.21,0,1.69-.52A24,24,0,0,0,107.1-1C109.26-1.15,111.43-1.14,113.59-1Z" transform="translate(1.54 1.13)"/><path class="cls-8" d="M101.47,132.9c.24-1.15,1.35-1.67,1.9-2.61a8.34,8.34,0,0,1,1.53-1.92,2.06,2.06,0,0,0,.52-2.61,2.92,2.92,0,0,1,1.22-3.54,2.84,2.84,0,0,1,4.22,1.63,1.33,1.33,0,0,0,1.4,1.18,2.62,2.62,0,0,1,2.37,3.14,2.43,2.43,0,0,1-2.74,2.4c-2.06-.3-3,.84-3.88,2.29Z" transform="translate(1.54 1.13)"/><path class="cls-9" d="M132.38,33.77a6.62,6.62,0,0,1-1.1-.31,1.84,1.84,0,0,0-2.19.43c-1.5,1.25-2.94,1.15-4.09-.06a2.76,2.76,0,0,1,.36-4.29,1.16,1.16,0,0,0,.51-1.45,2.72,2.72,0,0,1,1.84-3.5,3,3,0,0,1,3.77,2.26c.18.52,0,1.29.88,1.41A46,46,0,0,1,132.38,33.77Z" transform="translate(1.54 1.13)"/><path class="cls-10" d="M-1.49,100.34a2.92,2.92,0,0,1,4.57.11,2.75,2.75,0,0,1,.55,2.61c-.17.56-.06.81.49,1a1.56,1.56,0,0,1,.55.35c1.38,1.07,1.71,2.41.93,3.71a3.08,3.08,0,0,1-4,1.18c-.05,0-.12,0-.15-.06a2.73,2.73,0,0,0-2.92-.71C-1.48,105.77-1.48,103.06-1.49,100.34Z" transform="translate(1.54 1.13)"/><path class="cls-11" d="M-1.49,60.18c.91-.72,1.72-.16,2.35.36a18.55,18.55,0,0,1,3.3,3.82,2.13,2.13,0,0,1,0,2.46,2.06,2.06,0,0,1-2.47.78A16.41,16.41,0,0,0-1.47,67C-1.48,64.71-1.48,62.45-1.49,60.18Z" transform="translate(1.54 1.13)"/><path class="cls-12" d="M132.41,67.08c-.73.23-1.45.48-2.19.69a2,2,0,0,1-2.35-.68,2.37,2.37,0,0,1-.15-2.5,15,15,0,0,1,1.58-2.29c.33-.44.63-.9,1-1.31a2.69,2.69,0,0,1,2.08-1.14Z" transform="translate(1.54 1.13)"/><path class="cls-13" d="M33.69,132.89c.38-.59,1-.93,1-1.88a2.81,2.81,0,0,1,2.47-2.94,3.19,3.19,0,0,1,3.07,2,8.57,8.57,0,0,1,.64,2.83C38.48,133,36.08,132.94,33.69,132.89Z" transform="translate(1.54 1.13)"/><path class="cls-14" d="M69.2,132.9a3.28,3.28,0,0,1-1.49-2.75,1.62,1.62,0,0,1,1-1.73,1.64,1.64,0,0,1,1.73.63,2.75,2.75,0,0,1,.06,3.8Z" transform="translate(1.54 1.13)"/><path class="cls-15" d="M3.16,132.83a2.92,2.92,0,0,1,1.09-3.05,1.54,1.54,0,0,1,1.67-.26A1.5,1.5,0,0,1,6.75,131a4.19,4.19,0,0,1-.44,1.88A10.73,10.73,0,0,1,3.16,132.83Z" transform="translate(1.54 1.13)"/><path class="cls-16" d="M125.14,132.91a7.28,7.28,0,0,1-.55-1.34,1.62,1.62,0,0,1,.7-1.84,1.56,1.56,0,0,1,1.92.35,3.44,3.44,0,0,1,1.14,2.74A17.21,17.21,0,0,1,125.14,132.91Z" transform="translate(1.54 1.13)"/><path class="cls-17" d="M71.83-1.07c.53,1.5.4,2.27-.46,2.68s-1.9-.17-2.51-1.45a1.85,1.85,0,0,1-.28-1.23Z" transform="translate(1.54 1.13)"/><path class="cls-18" d="M79.4,132.9a2.24,2.24,0,0,1,1.2-2.13,1.45,1.45,0,0,1,2.49,1.15,6.2,6.2,0,0,1-.07,1Z" transform="translate(1.54 1.13)"/><path class="cls-19" d="M72.23,132.87a2.4,2.4,0,0,1,.92-1.12c1.65-1.37,3.37-.9,4.3,1.15A50.5,50.5,0,0,1,72.23,132.87Z" transform="translate(1.54 1.13)"/><path class="cls-20" d="M-1.47,131.31c.64-.6,1.22-.07,1.77.17a2.33,2.33,0,0,1,1.47,1.42c-.55,0-1.09,0-1.64,0C-1.38,132.93-1.38,132.93-1.47,131.31Z" transform="translate(1.54 1.13)"/><path class="cls-21" d="M130.11,132.89c.28-1.17,1.2-1.57,2.22-1.86a4.07,4.07,0,0,1,0,.49c0,1.39,0,1.4-1.45,1.4Z" transform="translate(1.54 1.13)"/><path class="cls-22" d="M80.09-1.09c-1,.94-1.47,1-2.55.05Z" transform="translate(1.54 1.13)"/><path class="cls-5" d="M28.1,78.36A2.73,2.73,0,0,1,27.69,80a1.21,1.21,0,0,0,.18,1.49c1.69,2.29,3.34,4.6,5,6.9a1.63,1.63,0,0,0,1.89.79,3.09,3.09,0,0,1,3.51,2.68A2.84,2.84,0,0,1,35.5,95a1.18,1.18,0,0,0-1.3.87c-.72,1.8-2.19,2.48-3.62,1.87A3.1,3.1,0,0,1,29,93.52a1.77,1.77,0,0,0-.21-2.21c-1.73-2.33-3.48-4.64-5.17-7A1.27,1.27,0,0,0,22,83.73,2.92,2.92,0,1,1,21,78a1.65,1.65,0,0,0,1.54-1.14A2.66,2.66,0,0,1,25.46,75,3.17,3.17,0,0,1,28.1,78.36Z" transform="translate(1.54 1.13)"/><path class="cls-23" d="M45,70.2c-.38-.2-.66.1-1,.12A2.92,2.92,0,0,1,41,68.13a3,3,0,0,1,1.55-3.31,2.84,2.84,0,0,1,1.58-.39c1.08.18,1.54-.42,1.95-1.3,1.14-2.43,2.34-4.83,3.57-7.21a2.07,2.07,0,0,0,0-2.42,2.57,2.57,0,0,1-.27-2.66A2.82,2.82,0,0,1,51.84,49a2.78,2.78,0,0,1,2.7,1.54,1.29,1.29,0,0,0,1.59.86,2.86,2.86,0,0,1,2.95,2.85c-.11,1.8-1,3-2.79,2.93a2.19,2.19,0,0,0-2.35,1.53c-1.12,2.32-2.31,4.6-3.55,6.86A1.88,1.88,0,0,0,50.5,68a2.69,2.69,0,0,1,0,3.37,2.93,2.93,0,0,1-3,1.26,2.4,2.4,0,0,1-1.87-1.18A12.61,12.61,0,0,1,45,70.2Z" transform="translate(1.54 1.13)"/><path class="cls-4" d="M88.72,89.15a3,3,0,0,1-3-2.54,1.5,1.5,0,0,0-1.26-1.26c-3-.76-6-1.53-9-2.35-.64-.18-.88.13-1.21.51a3.15,3.15,0,0,1-2.91,1.18,3,3,0,0,1-1.74-4.93,1.49,1.49,0,0,0,.47-1.8,2.69,2.69,0,0,1,1.23-3.24,2.57,2.57,0,0,1,3.29.45,3,3,0,0,1,1.12,1.77c.1.89.69,1.07,1.31,1.22,2.9.73,5.82,1.39,8.72,2.15a1.14,1.14,0,0,0,1.41-.41,4.15,4.15,0,0,1,.69-.7,2.76,2.76,0,0,1,3.73.14A2.69,2.69,0,0,1,92,83.16a2,2,0,0,0-.54,2.36A2.7,2.7,0,0,1,88.72,89.15Z" transform="translate(1.54 1.13)"/><path class="cls-24" d="M82.68,25.67c-.18.49-.09.93.63,1.4a2.51,2.51,0,0,1,.93,3.69c-.85,1.36-2.88,2.09-4.13,1.11s-2.43-.65-3.7,0c-2.07,1-4.17,1.93-6.28,2.84a2.12,2.12,0,0,0-1.62,2.13,2.94,2.94,0,0,1-2.61,2.58,3.07,3.07,0,0,1-3.08-2,1,1,0,0,0-.07-.15c-.38-.8.37-1.71,0-2.36s-1.12-1-1.45-1.71a2.49,2.49,0,0,1,.45-2.89,2.54,2.54,0,0,1,2.93-.92c.21.08.49.07.61.21,1.16,1.27,2.3.61,3.51.06,2.34-1.06,4.71-2.06,7.09-3a1.25,1.25,0,0,0,.94-1.33A3.11,3.11,0,0,1,78,22.68a2.71,2.71,0,0,1,3.22-.27A3,3,0,0,1,82.68,25.67Z" transform="translate(1.54 1.13)"/><path class="cls-25" d="M102.06,56.51c.59-.28,1.29.68,1.93,0,.43-.49.82-1,1.22-1.54,1.61-2.06,3.21-4.14,4.85-6.19a1.44,1.44,0,0,0,.12-1.78,2.7,2.7,0,0,1,.4-3.32,2.76,2.76,0,0,1,4.7.8,2,2,0,0,0,1.7,1.36,2.91,2.91,0,0,1,2.23,3.49,3,3,0,0,1-3.52,2.22,1.55,1.55,0,0,0-2,.77c-1.7,2.27-3.48,4.49-5.3,6.66a1.69,1.69,0,0,0-.32,2,3.07,3.07,0,0,1-2.38,4.44,2.76,2.76,0,0,1-3-2c-.23-.6-.28-1.19-1.22-1.27a2.59,2.59,0,0,1-2.65-2.88A3.13,3.13,0,0,1,102.06,56.51Z" transform="translate(1.54 1.13)"/><path class="cls-26" d="M48.18,119.66c.23-.54.16-1-.57-1.46a2.83,2.83,0,0,1-.68-3.93,2.9,2.9,0,0,1,3.94-.79c1.22,1,2.16.69,3.37.15,2.29-1,4.64-1.94,7-2.86a1.53,1.53,0,0,0,1.15-1.52,2.94,2.94,0,0,1,2.66-3,2.68,2.68,0,0,1,3.16,3.16,1.77,1.77,0,0,0,.82,2.12,2.59,2.59,0,0,1,.59,3.38A2.94,2.94,0,0,1,66,116.31a1.69,1.69,0,0,1-.59-.28c-1.07-1.07-2.18-.79-3.39-.22-2.23,1-4.49,2-6.75,3A1.66,1.66,0,0,0,54,120.28,2.83,2.83,0,0,1,51.29,123C49.19,123.13,48,121.91,48.18,119.66Z" transform="translate(1.54 1.13)"/><path class="cls-27" d="M28.82,60.51a3.64,3.64,0,0,0-2.91.67,4.09,4.09,0,0,1-1.18.55A2.22,2.22,0,0,1,22,59.1a16.58,16.58,0,0,1,2.47-5,2.09,2.09,0,0,1,2.92-.61,18.38,18.38,0,0,1,4.22,3,2.25,2.25,0,0,1-1.75,3.93Z" transform="translate(1.54 1.13)"/><path class="cls-28" d="M20.51,14.87a2.08,2.08,0,0,1-1.13,1.77,2.49,2.49,0,0,1-1.57.38,4.2,4.2,0,0,0-3.47,1.07,2.61,2.61,0,0,1-.85.5,2.23,2.23,0,0,1-3.1-2.52,16,16,0,0,1,1.82-4.72,2.26,2.26,0,0,1,3.23-1,20.84,20.84,0,0,1,3.94,2.33A2.54,2.54,0,0,1,20.51,14.87Z" transform="translate(1.54 1.13)"/><path class="cls-29" d="M83,59.74a3.16,3.16,0,0,0-2.41.6,4.47,4.47,0,0,1-1,.5c-1.88.71-3.4-.41-3-2.4A11.33,11.33,0,0,1,79,53.34a2.19,2.19,0,0,1,2.84-.54,14.21,14.21,0,0,1,4.07,3c1.32,1.42.66,3.29-1.23,3.82A6.75,6.75,0,0,1,83,59.74Z" transform="translate(1.54 1.13)"/><path class="cls-30" d="M104.34,24.84A2.69,2.69,0,0,1,107,26.57a30.26,30.26,0,0,1,1.35,3.85,2.32,2.32,0,0,1-.82,2.65,2.37,2.37,0,0,1-2.76,0,9,9,0,0,1-1.21-.84,3.34,3.34,0,0,0-2-.72,7.38,7.38,0,0,1-.82,0,2.35,2.35,0,0,1-2.32-1.73,2.3,2.3,0,0,1,1.17-2.64c1.11-.69,2.26-1.32,3.38-2A2.89,2.89,0,0,1,104.34,24.84Z" transform="translate(1.54 1.13)"/><path class="cls-31" d="M18.78,121.32a14.55,14.55,0,0,1,2-4.83A2.4,2.4,0,0,1,24,115.7a22.4,22.4,0,0,1,4,2.49,2.37,2.37,0,0,1-1.3,4.17,4,4,0,0,1-1,0,3.75,3.75,0,0,0-2.91.84,3.76,3.76,0,0,1-.85.49C20.16,124.55,18.72,123.61,18.78,121.32Z" transform="translate(1.54 1.13)"/><path class="cls-32" d="M93.3,113.67a3,3,0,0,0-2.49.58,3.61,3.61,0,0,1-2.16.62,2,2,0,0,1-2-2.12,3.21,3.21,0,0,1,.39-1.57,34.85,34.85,0,0,1,1.83-3.28,2.74,2.74,0,0,1,4.34-.75c.87.65,1.7,1.37,2.53,2.08,1.09.93,1.5,2,1.06,3a2.66,2.66,0,0,1-2.7,1.47C93.82,113.72,93.54,113.68,93.3,113.67Z" transform="translate(1.54 1.13)"/><path class="cls-33" d="M116.69,91.44a3.41,3.41,0,0,1-1.82-.53,3.75,3.75,0,0,0-2.7-.37,3.77,3.77,0,0,1-1.46,0c-1.93-.33-2.74-2.16-1.51-3.67a15,15,0,0,1,4-3.35,2.51,2.51,0,0,1,3.33.86,27.49,27.49,0,0,1,2.18,3.65C119.63,90,118.67,91.52,116.69,91.44Z" transform="translate(1.54 1.13)"/><path class="cls-34" d="M52.67,98.09a14.18,14.18,0,0,1-1.48,0,2.16,2.16,0,0,1-1.73-3.46,11.5,11.5,0,0,1,4.32-3.69,2.66,2.66,0,0,1,3.28,1.18,35,35,0,0,1,2,3.41,2.33,2.33,0,0,1-.31,2.89A2.36,2.36,0,0,1,56,98.8C54.85,98.39,53.78,97.74,52.67,98.09Z" transform="translate(1.54 1.13)"/><path class="cls-35" d="M41.69,36.47c0,1.54-1,2.59-2.34,2.19a12.76,12.76,0,0,0-5.73-.45,2.09,2.09,0,0,1-2-3.18,10,10,0,0,1,4.26-4.18,2.24,2.24,0,0,1,2.83.61,22.41,22.41,0,0,1,2.74,4.06A2.78,2.78,0,0,1,41.69,36.47Z" transform="translate(1.54 1.13)"/><path class="cls-36" d="M78.34,8.21a3.74,3.74,0,0,1-1.89-.48,4.63,4.63,0,0,0-3-.47,2.29,2.29,0,0,1-2.71-1A2.64,2.64,0,0,1,71.44,3,26.41,26.41,0,0,1,74.29.6,2.49,2.49,0,0,1,77.94,1a15.88,15.88,0,0,1,2.58,4.34C81.12,6.9,80.17,8.18,78.34,8.21Z" transform="translate(1.54 1.13)"/><path class="cls-37" d="M25.87,49.64l.08-.43c.21-1.39,1-2.33,1.93-2.24a2.51,2.51,0,0,1,1.77,2.46,2.35,2.35,0,0,1,0,.65c-.23,1.27-1.05,2.11-2,2A2.25,2.25,0,0,1,25.87,49.64Z" transform="translate(1.54 1.13)"/><path class="cls-38" d="M83.82,48.69a3.55,3.55,0,0,1-.58,1.86,1.56,1.56,0,0,1-2.78-.12,3.36,3.36,0,0,1,0-3.14A1.56,1.56,0,0,1,82,46.23a1.74,1.74,0,0,1,1.61,1.19A6.49,6.49,0,0,1,83.82,48.69Z" transform="translate(1.54 1.13)"/><path class="cls-39" d="M16.91,6.42c0,1.46-.75,2.47-1.81,2.46s-1.83-1-1.83-2.47S14,3.88,15,3.84,16.91,4.93,16.91,6.42Z" transform="translate(1.54 1.13)"/><path class="cls-40" d="M3.46,127.24a2.74,2.74,0,0,1-.91,2.35,1.63,1.63,0,0,1-2.76-.92,3.3,3.3,0,0,1,.74-2.9,1.51,1.51,0,0,1,1.55-.67,1.79,1.79,0,0,1,1.3,1.34A4.26,4.26,0,0,1,3.46,127.24Z" transform="translate(1.54 1.13)"/><path class="cls-41" d="M119.88,80.09a3.08,3.08,0,0,1-1.57,2.47,1.36,1.36,0,0,1-2-.61,3.09,3.09,0,0,1,1.49-4C118.9,77.57,119.92,78.49,119.88,80.09Z" transform="translate(1.54 1.13)"/><path class="cls-42" d="M114.63,80a2,2,0,0,1-1.44,2.11c-.78.15-1.47-.38-2-1.4a3.57,3.57,0,0,1-.19-2.23,1.66,1.66,0,0,1,1.24-1.37,1.57,1.57,0,0,1,1.67.76A3.4,3.4,0,0,1,114.63,80Z" transform="translate(1.54 1.13)"/><path class="cls-43" d="M60,87.35a3.09,3.09,0,0,1-1,2.35,1.63,1.63,0,0,1-1.93.43,1.79,1.79,0,0,1-1-1.9,4.08,4.08,0,0,1,.59-1.68,2,2,0,0,1,2.16-1.1A1.7,1.7,0,0,1,60,87.35Z" transform="translate(1.54 1.13)"/><path class="cls-44" d="M24.8,51.31A1.43,1.43,0,0,1,24,52.8a1.7,1.7,0,0,1-2-.27,3.51,3.51,0,0,1-1.19-2.74,1.51,1.51,0,0,1,.85-1.46,1.68,1.68,0,0,1,1.84.27A3.74,3.74,0,0,1,24.8,51.31Z" transform="translate(1.54 1.13)"/><path class="cls-45" d="M36.71,27.06a2.92,2.92,0,0,1-.35,1.77,1.49,1.49,0,0,1-2.37.26,3.22,3.22,0,0,1-.71-3.45,1.59,1.59,0,0,1,1.29-1.1,1.65,1.65,0,0,1,1.62.88A2.69,2.69,0,0,1,36.71,27.06Z" transform="translate(1.54 1.13)"/><path class="cls-46" d="M80.42,127.67a3.12,3.12,0,0,1-1.18,2.41,1.45,1.45,0,0,1-2.51-.8,3.12,3.12,0,0,1,.5-2.65,1.78,1.78,0,0,1,2.06-.95A1.92,1.92,0,0,1,80.42,127.67Z" transform="translate(1.54 1.13)"/><path class="cls-47" d="M89.58,104.14A2,2,0,0,1,88.52,106a1.71,1.71,0,0,1-1.91-.59,3,3,0,0,1-.94-2.68,1.51,1.51,0,0,1,2.52-1.12A3.41,3.41,0,0,1,89.58,104.14Z" transform="translate(1.54 1.13)"/><path class="cls-48" d="M3.45,56.28a2.42,2.42,0,0,1-1.28,2.45A1.51,1.51,0,0,1,.36,58.5,2.83,2.83,0,0,1,0,55.6c.45-1.09,1.22-1.68,2-1.54S3.45,55,3.45,56.28Z" transform="translate(1.54 1.13)"/><path class="cls-49" d="M25.46,111.69c0,.22,0,.44-.05.65a2.12,2.12,0,0,1-1.68,1.77,1.89,1.89,0,0,1-1.8-1.59,3.22,3.22,0,0,1,.21-2.38A1.53,1.53,0,0,1,25,110,2.75,2.75,0,0,1,25.46,111.69Z" transform="translate(1.54 1.13)"/><path class="cls-50" d="M94.3,102.32a3.23,3.23,0,0,1-.47,2.11,1.55,1.55,0,0,1-1.51.79A1.59,1.59,0,0,1,91,104.1a4,4,0,0,1,.09-2.88A1.68,1.68,0,0,1,92.72,100a1.87,1.87,0,0,1,1.51,1.54A3.63,3.63,0,0,1,94.3,102.32Z" transform="translate(1.54 1.13)"/><path class="cls-51" d="M75.19,127.63a4.37,4.37,0,0,1-.1,1,1.73,1.73,0,0,1-1.36,1.28,1.59,1.59,0,0,1-1.54-.74,3.27,3.27,0,0,1-.27-3.41,1.47,1.47,0,0,1,2.46-.35A2.92,2.92,0,0,1,75.19,127.63Z" transform="translate(1.54 1.13)"/><path class="cls-52" d="M12.28,8.5a1.74,1.74,0,0,1-.82,1.66c-.61.42-1.16.12-1.67-.18A3.16,3.16,0,0,1,8.32,6.92,1.46,1.46,0,0,1,10.5,5.78,3.19,3.19,0,0,1,12.28,8.5Z" transform="translate(1.54 1.13)"/><path class="cls-53" d="M41.87,27.18a3.05,3.05,0,0,1-1.25,2.41,1.48,1.48,0,0,1-2.37-.77,3,3,0,0,1,.43-2.8,1.67,1.67,0,0,1,1.93-.87A1.91,1.91,0,0,1,41.87,27.18Z" transform="translate(1.54 1.13)"/><path class="cls-54" d="M131.35,57.29a2,2,0,0,1-1.18,1.81,1.67,1.67,0,0,1-1.86-.71,3,3,0,0,1-.67-2.89,1.48,1.48,0,0,1,2.34-.86A3.27,3.27,0,0,1,131.35,57.29Z" transform="translate(1.54 1.13)"/><path class="cls-55" d="M102.45,21.29a3.09,3.09,0,0,1,.6-2,1.47,1.47,0,0,1,2.47-.11,3,3,0,0,1-.54,4.09,1.27,1.27,0,0,1-1.88-.19A2.5,2.5,0,0,1,102.45,21.29Z" transform="translate(1.54 1.13)"/><path class="cls-56" d="M111,22.14a2.89,2.89,0,0,1-2.6,2.88A1.27,1.27,0,0,1,107,24a3.17,3.17,0,0,1,2-3.53A1.61,1.61,0,0,1,111,22.14Z" transform="translate(1.54 1.13)"/><path class="cls-57" d="M131.5,127.93c0,1.2-.48,2-1.25,2.17a2.16,2.16,0,0,1-2-1.14,3,3,0,0,1-.39-2.35,1.53,1.53,0,0,1,2.63-.85A2.53,2.53,0,0,1,131.5,127.93Z" transform="translate(1.54 1.13)"/><path class="cls-58" d="M79,50.64a1.72,1.72,0,0,1-.92,1.54,1.54,1.54,0,0,1-1.68-.28,3.21,3.21,0,0,1-1.26-3,1.42,1.42,0,0,1,2.17-1.13A3.38,3.38,0,0,1,79,50.64Z" transform="translate(1.54 1.13)"/><path class="cls-59" d="M54.89,87.43a6.12,6.12,0,0,1-.15,1,1.68,1.68,0,0,1-1.39,1.23c-.62.1-1-.32-1.35-.78a3.31,3.31,0,0,1-.43-3A1.45,1.45,0,0,1,53,84.71a1.71,1.71,0,0,1,1.57,1A4.84,4.84,0,0,1,54.89,87.43Z" transform="translate(1.54 1.13)"/><path class="cls-60" d="M20.62,113.77a1.53,1.53,0,0,1-.82,1.57A1.61,1.61,0,0,1,18,115a3,3,0,0,1-1.15-2.9,1.41,1.41,0,0,1,2.06-1.15A3,3,0,0,1,20.62,113.77Z" transform="translate(1.54 1.13)"/><path class="cls-61" d="M42.65,33.81a1.51,1.51,0,0,1-1.71-1.36,2.87,2.87,0,0,1,2.24-3,1.46,1.46,0,0,1,1.68,1.36A2.75,2.75,0,0,1,42.65,33.81Z" transform="translate(1.54 1.13)"/><path class="cls-62" d="M29.79,114a2.71,2.71,0,0,1-.82,2.09,1.5,1.5,0,0,1-2.48-.39,3.07,3.07,0,0,1,.85-3.56,1.46,1.46,0,0,1,2.27.74A5,5,0,0,1,29.79,114Z" transform="translate(1.54 1.13)"/><path class="cls-15" d="M8.61,14.64a2.88,2.88,0,0,1-2.44-2.33,1.43,1.43,0,0,1,1.89-1.69,2.94,2.94,0,0,1,2.17,2A1.47,1.47,0,0,1,8.61,14.64Z" transform="translate(1.54 1.13)"/><path class="cls-46" d="M18.6,118.13c0,1.06-.42,1.58-1.39,1.62a2.69,2.69,0,0,1-2.64-2.59,1.36,1.36,0,0,1,1.29-1.57A2.9,2.9,0,0,1,18.6,118.13Z" transform="translate(1.54 1.13)"/><path class="cls-47" d="M83,107.53c0-1.07.46-1.64,1.37-1.65a3,3,0,0,1,2.57,2.76,1.45,1.45,0,0,1-1.53,1.54A2.68,2.68,0,0,1,83,107.53Z" transform="translate(1.54 1.13)"/><path class="cls-63" d="M47.45,89.88c0-.83.2-1.5,1-1.75a1.63,1.63,0,0,1,1.84.74,2.65,2.65,0,0,1,.56,2.86,1.41,1.41,0,0,1-2.38.54A2.68,2.68,0,0,1,47.45,89.88Z" transform="translate(1.54 1.13)"/><path class="cls-64" d="M21.2,8.33a2.52,2.52,0,0,1-1.28,2.59,1.27,1.27,0,0,1-1.62-.36A2.36,2.36,0,0,1,17.84,8c.41-1.06,1.21-1.67,2-1.51A1.82,1.82,0,0,1,21.2,8.33Z" transform="translate(1.54 1.13)"/><path class="cls-65" d="M122.53,84.18a2.88,2.88,0,0,1-1.74,2.37,1.48,1.48,0,0,1-2.19-1.32,3.09,3.09,0,0,1,2.16-2.76C121.86,82.26,122.54,82.85,122.53,84.18Z" transform="translate(1.54 1.13)"/><path class="cls-66" d="M125.75,58.57a3,3,0,0,1,2.62,2.8,1.53,1.53,0,0,1-1.94,1.44,2.9,2.9,0,0,1-1.9-3.22A1.28,1.28,0,0,1,125.75,58.57Z" transform="translate(1.54 1.13)"/><path class="cls-67" d="M101.5,23.65a2,2,0,0,1-.34,1.24,1.38,1.38,0,0,1-2.22.28,3.09,3.09,0,0,1-.48-3.6,1.21,1.21,0,0,1,1.81-.4A2.64,2.64,0,0,1,101.5,23.65Z" transform="translate(1.54 1.13)"/><path class="cls-54" d="M84.28,51.84a2.5,2.5,0,0,1,.78-2,1.49,1.49,0,0,1,2.57.65,3.13,3.13,0,0,1-.1,2.07,2,2,0,0,1-2,1.36C84.73,53.8,84.28,53.08,84.28,51.84Z" transform="translate(1.54 1.13)"/><path class="cls-68" d="M110.68,83.17a1.49,1.49,0,0,1-.86,1.61,1.6,1.6,0,0,1-1.9-.5,2.89,2.89,0,0,1-.54-3.17,1.17,1.17,0,0,1,1.45-.71A2.86,2.86,0,0,1,110.68,83.17Z" transform="translate(1.54 1.13)"/><path class="cls-69" d="M81.73,3.55a1.46,1.46,0,0,1-1.59-1.48A2.87,2.87,0,0,1,82.57-.62,1.44,1.44,0,0,1,84,1,2.59,2.59,0,0,1,81.73,3.55Z" transform="translate(1.54 1.13)"/><path class="cls-70" d="M61.39,90a1.3,1.3,0,0,1,1.42,1.26,2.75,2.75,0,0,1-2.12,2.91A1.32,1.32,0,0,1,59,92.93,2.62,2.62,0,0,1,61.39,90Z" transform="translate(1.54 1.13)"/><path class="cls-71" d="M76.52,54.92c0,1.38-.9,2-2.16,1.48A2.92,2.92,0,0,1,72.58,54a1.39,1.39,0,0,1,1.88-1.54A2.72,2.72,0,0,1,76.52,54.92Z" transform="translate(1.54 1.13)"/><path class="cls-62" d="M33,30.91a1.54,1.54,0,0,1-.9,1.68c-.8.37-1.35-.13-1.85-.62a2.86,2.86,0,0,1-.84-2.37,1.39,1.39,0,0,1,2.34-1.09A2.86,2.86,0,0,1,33,30.91Z" transform="translate(1.54 1.13)"/><path class="cls-72" d="M111.32,25.49c1,0,1.42.4,1.43,1.37a2.71,2.71,0,0,1-2.43,2.64A1.48,1.48,0,0,1,108.74,28,2.73,2.73,0,0,1,111.32,25.49Z" transform="translate(1.54 1.13)"/><path class="cls-73" d="M98.26,105.13a2.57,2.57,0,0,1-1.18,2.49,1.24,1.24,0,0,1-1.92-.5,2.88,2.88,0,0,1,.9-3.61,1.32,1.32,0,0,1,2,.49A2.73,2.73,0,0,1,98.26,105.13Z" transform="translate(1.54 1.13)"/><path class="cls-74" d="M33.39,52.23a2.38,2.38,0,0,1-1.18,2.34,1.34,1.34,0,0,1-2.11-.73,2.9,2.9,0,0,1,.33-2.52c.6-.83,1.24-1.16,1.9-.92A1.57,1.57,0,0,1,33.39,52.23Z" transform="translate(1.54 1.13)"/><path class="cls-75" d="M3.16,60.62a2.48,2.48,0,0,1,2.1-2.52c1-.05,1.52.53,1.53,1.66a2.69,2.69,0,0,1-2.15,2.68A1.66,1.66,0,0,1,3.16,60.62Z" transform="translate(1.54 1.13)"/><path class="cls-76" d="M22.18,55.69A1.27,1.27,0,0,1,20.44,57a2.9,2.9,0,0,1-2.16-2.42,1.38,1.38,0,0,1,2-1.53A3,3,0,0,1,22.18,55.69Z" transform="translate(1.54 1.13)"/></g></g></g></g></svg>