<svg xmlns="http://www.w3.org/2000/svg" xmlns:xlink="http://www.w3.org/1999/xlink" viewBox="0 0 134.03 133.78"><defs><style>.cls-1{fill:none;}.cls-2{clip-path:url(#clip-path);}.cls-3{fill:#fefffe;}.cls-4{fill:#fbe3b1;}.cls-5{fill:#9fd5db;}.cls-6{fill:#7dc7d4;}.cls-7{fill:#7d9a4f;}.cls-8{fill:#7c994f;}.cls-9{fill:#eecc96;}.cls-10{fill:#e4f7f5;}.cls-11{fill:#b18556;}.cls-12{fill:#b18558;}.cls-13{fill:#f7e0aa;}.cls-14{fill:#618345;}.cls-15{fill:#ede4a8;}.cls-16{fill:#678946;}.cls-17{fill:#6b8748;}.cls-18{fill:#678747;}.cls-19{fill:#658546;}.cls-20{fill:#826041;}.cls-21{fill:#866341;}.cls-22{fill:#e0f9fa;}.cls-23{fill:#dff9fa;}.cls-24{fill:#dcf8f8;}.cls-25{fill:#9ed7de;}.cls-26{fill:#698648;}.cls-27{fill:#f6e4ae;}.cls-28{fill:#846443;}.cls-29{fill:#f3e9ae;}.cls-30{fill:#668347;}.cls-31{fill:#f8e5b0;}.cls-32{fill:#826341;}.cls-33{fill:#f0e4a7;}.cls-34{fill:#e1e8b8;}.cls-35{fill:#fbe2af;}.cls-36{fill:#f4e5ae;}.cls-37{fill:#f9e2b0;}.cls-38{fill:#af885a;}.cls-39{fill:#ae8558;}</style><clipPath id="clip-path" transform="translate(1.76 1.06)"><rect class="cls-1" width="130.85" height="130.85"/></clipPath></defs><g id="Capa_2" data-name="Capa 2"><g id="TIENDA"><g id="Back"><g class="cls-2"><rect class="cls-3" x="117.73" y="18.43" width="16.22" height="13.15"/><path class="cls-4" d="M132.19,36.85V58.27a4.16,4.16,0,0,1-1.33.95,16.07,16.07,0,0,0-7.93,9.25c-.18.48-.13,1.26-.82,1.25s-.77-.72-1-1.2a14.55,14.55,0,0,0-11.22-8.42,13.5,13.5,0,0,0-8,1c1.91.94,3.31,2.7,5.71,2.15.66-.16,1.26.14.82,1-.33.64,0,1,.47,1.37,1.1.72,2.17,1.47,3.3,2.16a3.08,3.08,0,0,0,2.38.18c.66-.14,1.18,0,.73.85a.91.91,0,0,0,.24,1.29c.36.32.39.65-.15.85a35.74,35.74,0,0,0-6.7-.48c-5.09.15-10.82,4.06-12.62,8.72,1.32-.23,2.59-.53,3.87-.77,1.09-.21,1.61-1.08,2.23-1.84.25-.29.51-.66.93-.59s.44.57.44.94c0,.72.42.83,1,.7,2-.46,4.11-.22,5.57-2.26.76-1.06,1,0,1.11.77a1.71,1.71,0,0,1-.84,1.92,15.67,15.67,0,0,0-7.26,11.57,2.45,2.45,0,0,1-2.35,2.42,12.25,12.25,0,0,0-6.62,3c1.49.4,2.81,1,4.13-.11.31-.25.63-.28,1,.17a4.65,4.65,0,0,0,4.45,1.34c.44-.12.93-.7,1.33-.17s.05,1-.26,1.52a24,24,0,0,1-2.83,1.28c-3.78,2.06-5.4,5.41-5.84,9.71,1.29-1,2.68-1.57,3-3.25.07-.4.33-.73.83-.47s.83.64,1.33.21c.77-.68,1.74-1.13,2.23-2.14.24-.5-.09-1.74,1.08-1.25s.84,1.31.38,2.21c-2.11,4.09-1.28,8,.72,12.21.66-1.52,1.1-2.77.64-4.16-.22-.7-.31-1.2.7-1.42.82-.17,1.59-2.38,1.13-3.28s-.85-1.63.64-1.92c.57-.11.38-1.16,1.11-1.3a4.46,4.46,0,0,0,3.85-.32,7.35,7.35,0,0,1,2.23,3.36,87.26,87.26,0,0,1,6.88,23.51c.1.62.4,1.28-.11,1.88H14.4c-1.87,0-3.73,0-5.6,0a1.92,1.92,0,0,1-.33-1.7C9.82,122.37,12,114,16.06,106.31a3,3,0,0,1,1.06-1.42c1.29.26,2.54.89,3.89.27.72.26.75,1.33,1.7,1.4.41,0,.32.51.19.81-.55,1.31.16,2.46.44,3.67.1.38.28.77.73.77,1.14,0,1.16.51.72,1.34-.67,1.23.1,2.32.28,3.58.84-.24,1-.9,1.28-1.45a11.41,11.41,0,0,0-.17-10.44,2.43,2.43,0,0,1-.47-1.37c.12-.5.35-1,.88-1.07.71-.06.49.7.71,1.07A9.9,9.9,0,0,0,30,106c.09.07.23.16.3.11,1.91-1.35,1.7.66,2.28,1.43a7.45,7.45,0,0,0,2.4,2.09,8.21,8.21,0,0,0-.55-2.89c-1.24-4-3.64-6.9-7.93-7.87a1.7,1.7,0,0,1-1-.47c.09-1.76.09-1.76,1.48-1.16,1.13.49,3.92-.08,4.61-1.06a.7.7,0,0,1,1.08-.26c1.22.66,2.43.38,4-.1A10.76,10.76,0,0,0,30.29,93c-2.38-.14-2.31-.57-2.64-2.43-.84-4.68-2.76-8.76-7.17-11.21a1.77,1.77,0,0,1-1-1.25A3.07,3.07,0,0,1,19.66,77c.27-.79.84-.81,1.17-.2,1.3,2.39,3.75,1.61,5.7,2.15.65.19.83-.27.85-.86,0-.91.65-1,1-.4C30,80,32.66,79.59,35,80.31c-2.07-4.86-7.93-8.63-13.42-8.8a29.45,29.45,0,0,0-5.7.56c-.36-.08-1-.17-.7-.6.48-.73.23-1.13-.21-1.71s.09-1,.61-.77c2.81,1,4.45-1.25,6.54-2.23.66-.31.6-.79.18-1.34-.63-.84-.19-1.37.66-1.09,2.57.83,3.9-1.07,5.9-2.32a12.77,12.77,0,0,0-7.26-.94A15.29,15.29,0,0,0,9.48,69.65c-.21.42-.26,1.08-.86,1.06s-.59-.59-.73-1A17.15,17.15,0,0,0-.74,60a2.46,2.46,0,0,1-.89-.71c0-2.94-.06-5.89-.07-8.84s0-5.79,0-8.68a.35.35,0,0,1,.48.09C-1,43.37,0,44,1.37,44.41a20.64,20.64,0,0,0,13.7-.47c3.11-1.21,6.09-2.74,9.23-3.91,6.1-2.28,12.23-2.1,18.41-.42,3.87,1.06,7.56,2.61,11.3,4A28.09,28.09,0,0,0,63.71,46c4.85.05,9.22-1.69,13.61-3.41,2-.8,4.07-1.65,6.05-2.59,6.18-2.93,12.49-2.93,18.88-.8,2.34.78,4.71,1.44,7.08,2.13a17.46,17.46,0,0,0,13.8-1.67,32.86,32.86,0,0,1,7-2.79C130.81,36.65,131.51,36.34,132.19,36.85Z" transform="translate(1.76 1.06)"/><path class="cls-5" d="M-1.7,36.84q0-18,0-36C-1.7.24-2-.46-1.39-1A3.28,3.28,0,0,1-.91,1.36c0,4.17,0,8.34,0,12.5,0,1.94.18,2.12,2,2.54a23.84,23.84,0,0,0,10-.15,59.64,59.64,0,0,1,10.55-1.61A48.52,48.52,0,0,1,33,16a54.55,54.55,0,0,0,13.72,1.24,25.24,25.24,0,0,0,8.64-1.87,32,32,0,0,1,16.14-1.85,14.73,14.73,0,0,0,5.68-.64A105.82,105.82,0,0,1,88.7,10.09c6.24-1,12.35-.19,18.41,1.3,2.76.69,5.53,1.38,8.34,1.87,4.67.82,9.28.26,13.89-.5.94-.15,1.92-.62,2.86.06,0,3,0,6,0,9,0,1.19-.22,1.38-1.36,1.1a9.64,9.64,0,0,0-7.65,1.54,20.08,20.08,0,0,1-6.1,2.66,9.6,9.6,0,0,0,3.72-.6c1.74-.48,3.33-1.37,5.12-1.71a15.29,15.29,0,0,1,5.68.16c.61.11.59.55.59,1,0,1.2,0,2.41,0,3.61a3.3,3.3,0,0,1-2,.7A12.08,12.08,0,0,0,124,33a15.07,15.07,0,0,1-13.53,3.3,14.09,14.09,0,0,1-6.28-3.11c-3.91-3.47-8.36-4-13.22-2.89a30.91,30.91,0,0,0-8,2.92,40.9,40.9,0,0,1-15.39,4.94c-4.32.44-8.5-.43-12.7-1.15-6.32-1.09-12.47-3-18.8-4a20.75,20.75,0,0,0-10.47,1.33c-1.6.56-3.15,1.28-4.69,2A31.43,31.43,0,0,1,.63,38.15C-.27,38-1.25,37.84-1.7,36.84Z" transform="translate(1.76 1.06)"/><path class="cls-6" d="M132.2,12.82c-1.83.26-3.67.5-5.49.81a34.8,34.8,0,0,1-10.09.26,88.11,88.11,0,0,1-10.23-2.17,48.24,48.24,0,0,0-14.93-1.49A47,47,0,0,0,82,12.07a62.24,62.24,0,0,1-7.59,2,10.43,10.43,0,0,1-3,0,30.62,30.62,0,0,0-15.92,1.79,23.58,23.58,0,0,1-9.41,1.89c-.87,0-1.75,0-2.63,0a45.35,45.35,0,0,1-10.05-1.14,46.15,46.15,0,0,0-7.41-1.2c-.86,0-1.7-.29-2.59-.32a38.63,38.63,0,0,0-9.88,1.14,60.33,60.33,0,0,1-6.76,1.13,21.3,21.3,0,0,1-7.59-.94.73.73,0,0,1-.62-.81c0-.39,0-.77,0-1.16V-1C-.73-1-.08-1,.58-1q64.8,0,129.61,0c2.23,0,2.05-.18,2,2C132.23,4.92,132.21,8.87,132.2,12.82Z" transform="translate(1.76 1.06)"/><path class="cls-7" d="M19.64,78c.08.43.43.62.77.8,4.23,2.17,6.25,5.94,7.41,10.31a9.63,9.63,0,0,1,.38,2.25c0,.85.32,1.14,1.16,1.13a11.49,11.49,0,0,1,7.61,3c.16.14.29.31.44.47a4.83,4.83,0,0,1-5.28.06c-.58.3.26.78-.16,1.11a2.27,2.27,0,0,1-1.24.33,15.44,15.44,0,0,0-2.26.37,1.71,1.71,0,0,1-2.35-.92c-.27.54-.1,1.09-.46,1.47a15.64,15.64,0,0,1-4.79.78c1.77,1.22,3.94,2,5,4.19.05.59.5,1,.73,1.46a11.71,11.71,0,0,1-1.09,12.57.82.82,0,0,1-.59.37A28.38,28.38,0,0,1,24,114c-.19-.75.62-1.11.85-1.7-.11-.07-.21-.18-.26-.16-1.24.43-1.24.43-1.57-.66-.21-.68-.4-1.36-.61-2-.28-.93-.45-1.83.45-2.49-.2-.37-.4-.23-.57-.13-.58.33-.93.23-1-.49a1.42,1.42,0,0,0-.33-1.07c-1.14-1.55-.95-3.46-1.44-5.19a14.54,14.54,0,0,0-2.26-4.48,3.84,3.84,0,0,1-.9-1.7A2.43,2.43,0,0,0,15.79,92c-1-1.35-2.27-2.69-1.88-4.62.06-.31-.07-.37-.23-.5a5.81,5.81,0,0,1-1.76-3.25,3.23,3.23,0,0,0-1.43-3.56c-.87-.66-1.2-2.1-2.29-2.21S6.56,79,5.64,79.49A18.87,18.87,0,0,0,2.51,81.6a16.54,16.54,0,0,1-1.73.88c-1.62.71-2.26.28-2.33-1.55a2,2,0,0,0-.11-1V78c.25-.64,0-1.33.18-2,1.5-.8,3.08-.41,4.62-.25a24.94,24.94,0,0,0,3.73.14C5.25,73.41,2.68,72.33.53,70.75c-.18-.69-1.22-1.27-.05-2.3-1.54.3-2.2-.3-2.14-1.64l0-7.5A16.07,16.07,0,0,1,7,66.78a17,17,0,0,1,1.62,3.83,15.94,15.94,0,0,1,21-8.78A37.66,37.66,0,0,1,25.21,65c-.28.21-.62.09-.94,0a7.62,7.62,0,0,0-2.11-.45c.14.79,1,.92,1.27,1.56A8.75,8.75,0,0,1,20.82,68c-.36.25-.77.42-1.12.68-1.3,1-2.67,1.46-4.24.64a1.45,1.45,0,0,0-.49,0c.26.71,1.15.7,1.38,1.37-.15.49-.72.5-1,.83s.19.23.32.32c-.14.85-.92.83-1.48,1.07a11.34,11.34,0,0,0-4.67,3.29c2.12.22,4.14,0,6.1.46C17,77,18.49,77,19.64,78Z" transform="translate(1.76 1.06)"/><path class="cls-8" d="M115.44,70.82c0-.82-1.08-.59-1.24-1.29.13-.57.85-.63,1.06-1.13,0-.12-.06-.26-.15-.2-1.51.91-2.76.41-4-.56s-2.62-1.59-3.78-2.57c.12-.65.86-.71,1.09-1.32-.28-.35-.68-.21-1-.09a3.12,3.12,0,0,1-3.07-.56,41.85,41.85,0,0,1-3.51-2.28,17,17,0,0,1,12.55-.22c4.2,1.63,7,4.79,8.74,9.07,1.68-5.46,4.77-9.43,10.09-11.4q0,4.26,0,8.51c-.82.74-1.75.37-2.57.28-.28-.1-.18.33-.15.11,0,0,0,0,.09,0,1.17.15,1.35.73.7,1.65-.22.31-.55.54-.64.93-1.79,1.48-3.93,2.55-5.34,4.75,2,.25,3.85.07,5.69.14.75,0,1.56-.17,2.21.41a43.93,43.93,0,0,1,0,5.85c-.33,1.1-1,1.11-1.89.64-.7-.39-1.35-.87-2-1.29-1.59-1.13-3.4-2-4.78-3.38-.49-.51-.93-.46-1.36.08a14.12,14.12,0,0,1-2,2.11c-1.24,1-1.76,2.11-.88,3.61-.59,1.28-1.76,2.37-2.09,3.61a30.37,30.37,0,0,1-1.58,4,3.41,3.41,0,0,1-.94,1.32c-.28.23-.27.25.27.48.15.58-.29.91-.59,1.26-1.34,1.53-2,3.44-3,5.16a1.08,1.08,0,0,1-.5.12c-1.75-.22-3.45-.9-5.27-.55a.89.89,0,0,1-.85-.37l.28-1.72a2.53,2.53,0,0,1-3,.86c-1-.25-2.06-.22-3-.56-.3-.43.38-.78.11-1.24-.09,0-.23,0-.27,0a2.36,2.36,0,0,1-2.9.79,16.05,16.05,0,0,0-2.39-.48c-.08-.54.35-.67.63-.89a14.23,14.23,0,0,1,6.88-2.88c1.53-.22,1.5-.26,1.74-1.75a17.19,17.19,0,0,1,5.27-10.48A14.66,14.66,0,0,1,111,77.27c-.1-.33-.63-.56-.21-1,2.18-.18,4.24-1,6.41-1.18,1.24-.13,2.49-.07,4.07-.27a14.2,14.2,0,0,0-4.32-3C116.36,71.64,115.59,71.65,115.44,70.82Z" transform="translate(1.76 1.06)"/><path class="cls-9" d="M132.19,36.85a29.41,29.41,0,0,0-8.9,3.22A17.81,17.81,0,0,1,110,41.94c-3.82-.94-7.48-2.42-11.33-3.25a22.69,22.69,0,0,0-14.41,1.39Q79.19,42.35,74,44.36a30.93,30.93,0,0,1-7.42,2,21,21,0,0,1-8.75-.85c-3.29-1-6.45-2.41-9.67-3.62a46,46,0,0,0-11.37-3,27.57,27.57,0,0,0-14.25,2.29c-2.6,1.15-5.17,2.36-7.82,3.38a17.52,17.52,0,0,1-6.07,1.23A22,22,0,0,1,.13,44.45c-1.78-.68-1.49-.36-1.53-2.17,0-.16,0-.33,0-.49.49-.44,1-.26,1.56-.12,5.63,1.5,11,.57,16.1-2,1.87-.92,3.74-1.84,5.56-2.85,6.61-3.65,13.31-3.29,20.16-.74,3.75,1.39,7.45,2.92,11.26,4.16A26.58,26.58,0,0,0,71.11,40c3.86-1.41,7.61-3.12,11.51-4.41,7.92-2.64,15.76-2,23.53.73a23.3,23.3,0,0,0,7.54,1.45,16.17,16.17,0,0,0,7.15-1.62,29.51,29.51,0,0,1,8.53-2.87c1-.13,2-.39,2.83.34C132.2,34.68,132.19,35.76,132.19,36.85Z" transform="translate(1.76 1.06)"/><path class="cls-10" d="M132.2,33.59c-3.85-.21-7.34,1.08-10.69,2.74A17.58,17.58,0,0,1,112,38.18a23.82,23.82,0,0,1-5-1.11,49.53,49.53,0,0,0-8.88-2.3,28.92,28.92,0,0,0-7.33-.33,54.2,54.2,0,0,0-6.92,1.23c-3.13.83-6,2.28-9,3.41A44.82,44.82,0,0,1,65.28,42a23.72,23.72,0,0,1-8.8-.35,83.58,83.58,0,0,1-11-3.71,47.13,47.13,0,0,0-11.16-3.24,18.36,18.36,0,0,0-8.86,1.12,85.47,85.47,0,0,0-7.85,3.75,29.21,29.21,0,0,1-8,3A20.74,20.74,0,0,1-.29,42a3.1,3.1,0,0,0-1.12-.22h-.32l0-4.95c1.36.93,3,1,4.53,1.29a30.13,30.13,0,0,0,5.54.4A29.45,29.45,0,0,0,20.9,35.75a38.77,38.77,0,0,1,9.9-3.33,15.91,15.91,0,0,1,4.41-.07c4.12.53,8.11,1.66,12.14,2.59,4.19,1,8.4,1.86,12.65,2.52a33.15,33.15,0,0,0,17.49-2.2c2.5-1,4.81-2.37,7.27-3.45a26.84,26.84,0,0,1,10.6-2.51,12.47,12.47,0,0,1,8.57,3.11,15.47,15.47,0,0,0,12.5,3.73,10.36,10.36,0,0,0,4.44-1.6c1.15-.74,2.29-1.49,3.37-2.34a13.8,13.8,0,0,1,8-2.6C132.21,30.93,132.2,32.26,132.2,33.59Z" transform="translate(1.76 1.06)"/><path class="cls-11" d="M17.37,105a55.72,55.72,0,0,0-5.56,13A92.19,92.19,0,0,0,8.9,131c-.08.54-.07,1.09-.1,1.63l-9,.06c-1.41,0-1.43,0-1.43-1.46q0-9.66,0-19.33c0-.33,0-.66,0-1A68.53,68.53,0,0,1,.77,93.79a4.61,4.61,0,0,1,1.17-2.65,14.46,14.46,0,0,1,4.38,2c.18,1.69-.5,3.27-.6,4.93-.23.79-.94,1.15-1.53,1.6a7.31,7.31,0,0,0-2.41,3c1.1.69,2.32-.89,3.33.25.55,1.87,0,3.73-.2,5.55-.38,3.94-.15,7.88-.25,11.82a34,34,0,0,1-.19,5,39.63,39.63,0,0,1,2.25-7.13,61.81,61.81,0,0,1,6.17-12.13,7.51,7.51,0,0,1,2.2-2.62C17,103.21,17.48,103.5,17.37,105Z" transform="translate(1.76 1.06)"/><path class="cls-12" d="M122.64,132.67c-.58-3.38-1.11-6.78-2-10.11a73.4,73.4,0,0,0-6.7-17.89c-.13-.23-.2-.52-.5-.62.18-1.4.45-1.55,2.64-1.47a20.39,20.39,0,0,1,3.78,5.51,76.37,76.37,0,0,1,6,13.84,6.59,6.59,0,0,1,.41,2.56c-.09-3.2.21-6.32.25-9.46.06-4.39-.42-8.73-.78-13.08.88-1.27,2.1-.18,3.23-.48,0-.77-.64-1.15-1.06-1.66-.88-1.07-2.16-1.78-2.83-3.06a31.14,31.14,0,0,1-.42-4.52,8.23,8.23,0,0,1,4.15-2.42c1.3,1.49,1.29,3.44,1.79,5.2a49.32,49.32,0,0,1,1.56,9.36q0,12,0,24c0,1.1,0,2.2,0,3.29,0,.81-.29,1-1.06,1C128.34,132.68,125.49,132.68,122.64,132.67Z" transform="translate(1.76 1.06)"/><path class="cls-4" d="M2.16,91.11A45.66,45.66,0,0,0-.07,99.63c-.51,2.45-.83,4.94-1.25,7.41-.22,1.29.1,2.63-.34,3.9a36.22,36.22,0,0,1,0-4.42q0-12.78,0-25.56c0-.33.05-.66.08-1,.36.62,0,1.39.5,2s.65.73,1.32.41a5.91,5.91,0,0,1,2.34-1c.73.67,1.49,1.33,2.22,2,.28,1-.26,1.78-.58,2.62-.58,1.57-1,3.19-1.61,4.76A.81.81,0,0,1,2.16,91.11Z" transform="translate(1.76 1.06)"/><path class="cls-13" d="M132.18,104.37c-.72-2.51-1-5.11-1.61-7.65a49.53,49.53,0,0,0-1.92-6.89l-.21-.14a52.45,52.45,0,0,1-2.59-7.31c.72-.89,1.78-1.42,2.48-2.34.84,0,1.38.63,1.93,1.09.81.66,1.33.44,1.89-.24,0,1.42.07,2.84.07,4.27Q132.21,94.76,132.18,104.37Z" transform="translate(1.76 1.06)"/><path class="cls-14" d="M132.18,75h-9a19.17,19.17,0,0,1,6.45-5.57c.67-.83,1.41-1.49,2.59-1C132.24,70.68,132.3,72.86,132.18,75Z" transform="translate(1.76 1.06)"/><path class="cls-14" d="M.57,70.5a29.13,29.13,0,0,1,4.76,3,18.29,18.29,0,0,1,2.58,2.93c-3.27,0-6.29-.64-9.33-.43-.37-2,.09-4-.25-6a.69.69,0,0,0,0-.25C-.63,69.17,0,69.7.57,70.5Z" transform="translate(1.76 1.06)"/><path class="cls-4" d="M.57,70.5a4.51,4.51,0,0,0-2.2-.65,12.88,12.88,0,0,1,0-3c.4,1.32.4,1.31,1.71,1.34a3,3,0,0,1,1.29.09c-.13.7-1,.39-1.26,1S1.23,69.78.57,70.5Z" transform="translate(1.76 1.06)"/><path class="cls-15" d="M132.18,68.5a8.28,8.28,0,0,0-2.59,1c-.17-.07-.29-.22-.16-.36.33-.36.7-.68,1.08-1-.24-.63-.95-.57-1.36-1.15l3-.14C132.18,67.36,132.18,67.93,132.18,68.5Z" transform="translate(1.76 1.06)"/><path class="cls-4" d="M-1.67,70.1a19.32,19.32,0,0,1,.18,4c0,.64.05,1.29.07,1.93-.18.65.11,1.34-.24,2C-1.79,75.37-1.8,72.74-1.67,70.1Z" transform="translate(1.76 1.06)"/><path class="cls-16" d="M19.64,78l-4.11-1A25.53,25.53,0,0,0,10,76.69a2,2,0,0,1-1.34-.2,11.85,11.85,0,0,1,5.55-4.08,3.89,3.89,0,0,0,1.49-.61c8.55-2.32,15.76.89,20.18,9l-5.34-1a2.4,2.4,0,0,1-1.72-1.12,2.8,2.8,0,0,0-1.09-1.18c0,.67.32,1.26,0,2l-5.86-.9c-.5-.08-.68-.49-.91-.86s-.37-1-.88-1.33C19.68,76.92,20.17,77.61,19.64,78Z" transform="translate(1.76 1.06)"/><path class="cls-17" d="M104.54,97.74a3.16,3.16,0,0,0,1,0c1.88-.58,3.58.18,5.32.68a11,11,0,0,1-1,6c-.22.11-.26.32-.32.53-.34,1.32-.34,1.32-1.78,1.1,1.82,1.77.44,3.46,0,5.15-.1.43-.44.37-.75.11a7.32,7.32,0,0,0-.72-.4c.23,1.16,1,2.1.47,3.24-.39.93-.46,2-.92,3-2.48-3-3.94-9.9-.81-14.17-.32-.37-.62-.74-1.18-1.41.43,1.85-.46,2.66-1.55,3.38-.59.39-1.12.86-1.64,1.27-.69,0-.55-.83-1.08-.93a.17.17,0,0,0-.2.19A2.55,2.55,0,0,1,98,107.92c-.78.49-1.52,1-2.34,1.61C95.71,103.32,99.22,98.82,104.54,97.74Z" transform="translate(1.76 1.06)"/><path class="cls-18" d="M115.44,70.82a17.91,17.91,0,0,1,5.38,3,4.16,4.16,0,0,1,1.08,1.14c-.18.59-.63.46-1,.44a30.23,30.23,0,0,0-6.64.66c-.65.12-1.25.36-1.88.52s-1.18.33-1.65-.25c0-.36.18-.75-.09-1.09-.09.07-.23.11-.26.2-.54,1.76-2,2.11-3.54,2.31-.92.11-1.82.35-2.73.52-1.15.21-1.3.08-1.1-1a1.39,1.39,0,0,0,.08-.93,4.49,4.49,0,0,0-1.31,1.52,2.35,2.35,0,0,1-1.58,1c-1.65.32-3.3.69-5.15,1.09a16.29,16.29,0,0,1,4.11-5.77C104,69.93,109.45,69.15,115.44,70.82Z" transform="translate(1.76 1.06)"/><path class="cls-19" d="M25.9,103.35a24.64,24.64,0,0,0-5.63-4c1.86-1.09,3.65-.9,5.39-1A9.88,9.88,0,0,1,33.18,103a13.73,13.73,0,0,1,2.31,7.64c-1.67-1.53-3.87-2.21-3.82-4.74-.59-.08-.52.39-.65.61-.27.44-.54.5-.92.17-.91-.78-1.83-1.55-2.72-2.36-.7-.66-.68-.69-.67-1.85Z" transform="translate(1.76 1.06)"/><path class="cls-20" d="M109.79,104.45a33.11,33.11,0,0,1,1-6l.32,0a10,10,0,0,1,5.86,2c.21,1,.24,1.9-1,2.32a2,2,0,0,1-1.21.32c-.79-.09-1.17.34-1.36,1C112.22,105.35,111.31,105.45,109.79,104.45Z" transform="translate(1.76 1.06)"/><path class="cls-21" d="M17.37,105a1,1,0,0,0-.87-1.16,9.86,9.86,0,0,0-1.44-.1,1.72,1.72,0,0,1-1.43-2.44A8.52,8.52,0,0,1,20,99.74c.32,1.84.65,3.67,1,5.51C19.25,106.35,18.85,106.32,17.37,105Z" transform="translate(1.76 1.06)"/><path class="cls-22" d="M102,21.92c-1.3-.22-2.49-.71-3.78-.93a18.74,18.74,0,0,0-13.87,3c-.55.36-1.1.71-1.64,1.08-3,2-6.15,3.09-9.74,2.2a27.79,27.79,0,0,0-8.22-1.06,9,9,0,0,1,3.76-.88c1.8,0,3.62-.1,5.41,0a14.49,14.49,0,0,0,9.23-2.77,17.71,17.71,0,0,1,6.55-2.9,18.36,18.36,0,0,1,11.77,1.65C101.7,21.46,102,21.52,102,21.92Z" transform="translate(1.76 1.06)"/><path class="cls-23" d="M35.8,26.21C34.57,26,33.33,26,32.09,26c-3.43-.2-6.57.85-9.67,2.1-2.39,1-4.63,2.22-7,3.32a14.36,14.36,0,0,1-6.64,1.48,18.25,18.25,0,0,1-6.66-1.5A2.7,2.7,0,0,1,.71,30.05a6.79,6.79,0,0,1,3,0c5.06,1.22,9.84.24,14.51-1.7a55.35,55.35,0,0,1,8-2.84A15.24,15.24,0,0,1,35.8,26.21Z" transform="translate(1.76 1.06)"/><path class="cls-24" d="M56.24,32.39a7,7,0,0,1-7.68-1.53C49.48,30.67,55,31.76,56.24,32.39Z" transform="translate(1.76 1.06)"/><path class="cls-25" d="M45.17,10.46A12.06,12.06,0,0,1,35.36,13a55.3,55.3,0,0,1-5.85-1.55,19.92,19.92,0,0,0-9.4-.11c-1.15.23-2.29.53-3.48.69a14.45,14.45,0,0,1,5-2.11A37.89,37.89,0,0,1,26,9.24a15,15,0,0,1,4.36.53c1.55.31,3.06.8,4.61,1.09a19.34,19.34,0,0,0,9.7-.49A.42.42,0,0,1,45.17,10.46Z" transform="translate(1.76 1.06)"/><path class="cls-26" d="M20,99.74a21.8,21.8,0,0,0-6.09,1.64c-.85.21-1.76.84-2.5-.11-.28-.36-.31,0-.38,0-1,1-2.46,1.06-3.73,1.49-.41.13-1,.28-1.22-.11-.49-.86-.77.17-1.15,0-1.28.1-2.47.88-3.91.5.77-2.4,2.72-3.7,4.47-5.15.85-1.65,2.58-1.53,4-2A10.13,10.13,0,0,1,11,96a8.24,8.24,0,0,1-4.81-2.87,21.73,21.73,0,0,1-3.31-1.27c-.38-.18-.64-.36-.71-.78a1.22,1.22,0,0,1,.1-.24,5.41,5.41,0,0,1,3.79-1.14c1.24,0,2.48,0,3.72,0a8.49,8.49,0,0,1,6.91,4,1.6,1.6,0,0,0,.44,1A21.54,21.54,0,0,1,20,99.74Z" transform="translate(1.76 1.06)"/><path class="cls-27" d="M16.68,93.71c-1-.64-1.72-1.63-2.77-2.23a8,8,0,0,0-3.77-1.35A6.43,6.43,0,0,0,7.87,90c-1.11.07-1.54-.43-1.31-1.45a20,20,0,0,1,1.36-4.85c1.39-.21,2.8.13,4.18-.18.36.31.37.78.55,1.17.75,1.67.73,1.68,2.21,2.37-1,.72-1,.73-.44,1.82.26.54.53,1.08.81,1.61.7,1.36.71,1.36,2,1.93C17.17,92.92,16.52,93.14,16.68,93.71Z" transform="translate(1.76 1.06)"/><path class="cls-28" d="M12.1,83.56a3,3,0,0,1-3.94.09C7,83.13,5.68,84,4.51,83.3a2.24,2.24,0,0,1-2-1.92c.41-.93,1.34-1.26,2.12-1.74a14.79,14.79,0,0,0,2.78-2c.71-.72.94-.74,1.55.08a19.19,19.19,0,0,0,2.54,2.78A2.29,2.29,0,0,1,12.1,83.56Z" transform="translate(1.76 1.06)"/><path class="cls-29" d="M23,88.53a7.47,7.47,0,0,0,2.25,4.54,30.15,30.15,0,0,0-4,2.48,12.6,12.6,0,0,0-1.47-7.23c.86.16,1.08.72,1.46,1.07.73.66.76.67,1.32-.18C22.76,89,22.89,88.75,23,88.53Z" transform="translate(1.76 1.06)"/><path class="cls-30" d="M116.78,100.42c-.77-.72-1.83-.61-2.72-1s-1.94-.7-2.91-1a12.81,12.81,0,0,1,3.42-6,2.48,2.48,0,0,0,.19-.26c-.12-.74.43-1.08.91-1.4a11.37,11.37,0,0,1,6.82-2.32c2.15,0,4.34-.1,6.15,1.41h0a6.94,6.94,0,0,1-2.63,1.7c-.37.19-.81.27-1.06.66a3.31,3.31,0,0,0-1.48,1,7.1,7.1,0,0,1-4.33,1.92c2.25-.06,4.49,0,6.16,1.82a17,17,0,0,1,4.6,4.93c-1.4.6-2.64-.36-3.89-.11-.78-.54-1.55.13-2.33,0a11.29,11.29,0,0,0-1.6-.25c-1,0-1.85-1.18-2.58-1A3.2,3.2,0,0,1,116.78,100.42Z" transform="translate(1.76 1.06)"/><path class="cls-31" d="M122.33,88.81a11,11,0,0,0-7.57,3.33,1.24,1.24,0,0,1-1.12-.16c1.51-1.2,2-3,2.91-4.62.38-.67-.35-.82-.41-1.35a3.87,3.87,0,0,0,2-2.35c.18-.4.18-1,.86-1,1.27.46,2.57-.24,3.84.1a12.92,12.92,0,0,1,1.22,3.4C124.67,88.34,124.5,88.58,122.33,88.81Z" transform="translate(1.76 1.06)"/><path class="cls-32" d="M122.66,82.69c-1.22.55-2.44,1.09-3.63-.07-1.28-1.42-1.27-1.79,0-3.1a24.57,24.57,0,0,0,3.11-3.34c.24-.36.6-.56.94-.18,1.44,1.6,3.35,2.56,5.08,3.77a1.06,1.06,0,0,1,.18.27c-.14,1.41-1.29,1.78-2.32,2.28S123.74,82.27,122.66,82.69Z" transform="translate(1.76 1.06)"/><path class="cls-33" d="M105.6,92.43c.81-1.58,2.2-2.76,1.86-4.66.71.16.55.93,1.19,1.08.82-.47,1.28-1.37,2-2a14,14,0,0,0-1.26,7.83A19.2,19.2,0,0,0,105.6,92.43Z" transform="translate(1.76 1.06)"/><path class="cls-34" d="M113.55,82c.7.72,1,1.2,0,1.8A3,3,0,0,1,113.55,82Z" transform="translate(1.76 1.06)"/><path class="cls-35" d="M4.92,102.74l.79-1.3c.19,1,.62,1.41,1.53,1A11.78,11.78,0,0,1,9,101.92,3.06,3.06,0,0,0,11.35,100c0,1.23.46,1.42,1.15,1.36.46,0,.94-.4,1.4,0-.36,1.14.55,1.66,1.16,2.32A69.58,69.58,0,0,0,4.55,126.06l-.35,0v-4.45c0-3.12-.09-6.24,0-9.35S4.68,105.9,4.92,102.74Z" transform="translate(1.76 1.06)"/><path class="cls-36" d="M6.18,93.16a3.69,3.69,0,0,1,1.34-.55c.08.59-.58.65-.63,1.26,1.63.69,3.1,1.91,5.15,1.86-.16.83-.83.67-1.37.68a9.19,9.19,0,0,0-5.19,1.68C5.25,96.38,5.84,94.79,6.18,93.16Z" transform="translate(1.76 1.06)"/><path class="cls-37" d="M116.78,100.42a2.16,2.16,0,0,1,1.44,0c.86.25,1.23-.06,1.13-1.43,1.27,2.57,3.4,2,5.14,2.41.26.06.29,0,.67-.85.46.25.59.75.86,1.13a61.46,61.46,0,0,1,.89,8.45c.06,2.41,0,4.82,0,7.22.07,2.58-.42,5.12-.36,7.71-.44-.13-.44-.52-.52-.8a68.77,68.77,0,0,0-9.56-20.72c-.18-.27-.31-.58-.46-.86A2.51,2.51,0,0,0,116.78,100.42Z" transform="translate(1.76 1.06)"/><path class="cls-36" d="M125.31,96.88a8.89,8.89,0,0,0-5.47-1.42c-1.07.15-1.37-.43-1.68-1.3,2.14,1.15,3.62-.41,5.24-1.23.79-.4-.44-.8-.22-1.39.64.09,1.1.73,1.78.65.17,1.32.34,2.65.52,4A.7.7,0,0,1,125.31,96.88Z" transform="translate(1.76 1.06)"/><path class="cls-38" d="M4.51,83.3A7.64,7.64,0,0,0,6.23,83c.72-.13,1.53-.29,1.93.64-.4,1.67-.82,3.33-1.21,5-.25,1.07-.16,1.15,1,1.22.74,0,1.52-.2,2.21.25-.43,0-.87.06-1.3,0a20.59,20.59,0,0,0-6.58.7A27.84,27.84,0,0,1,4,85.3C4.2,84.65,4.73,84.07,4.51,83.3Z" transform="translate(1.76 1.06)"/><path class="cls-39" d="M122.66,82.69c.22-.62.71-.71,1.3-.75a7,7,0,0,1,2.05.38,45.49,45.49,0,0,1,2.63,7.51,19,19,0,0,0-6.31-1c1.83-.45,1.84-.45,1.34-2.41C123.35,85.16,123,83.92,122.66,82.69Z" transform="translate(1.76 1.06)"/></g></g></g></g></svg>