<svg xmlns="http://www.w3.org/2000/svg" xmlns:xlink="http://www.w3.org/1999/xlink" viewBox="0 0 134 134.08"><defs><style>.cls-1{fill:none;}.cls-2{clip-path:url(#clip-path);}.cls-3{fill:#dbcde1;}.cls-4{fill:#f9d4c3;}.cls-5{fill:#bfdfd0;}.cls-6{fill:#dbccdf;}.cls-7{fill:#f9cfc1;}.cls-8{fill:#dbcde0;}.cls-9{fill:#deeef5;}.cls-10{fill:#bfdce4;}.cls-11{fill:#fae7c7;}.cls-12{fill:#f7cec5;}.cls-13{fill:#deede8;}.cls-14{fill:#fbe8c7;}.cls-15{fill:#ddebf3;}.cls-16{fill:#ddefe9;}.cls-17{fill:#f8d1c2;}.cls-18{fill:#bfdce3;}.cls-19{fill:#dfeee9;}.cls-20{fill:#bedbe3;}.cls-21{fill:#f8e7c8;}</style><clipPath id="clip-path" transform="translate(1.41 1.67)"><rect class="cls-1" width="130.85" height="130.85"/></clipPath></defs><g id="Capa_2" data-name="Capa 2"><g id="TIENDA"><g id="Back"><g class="cls-2"><path class="cls-3" d="M-1.38,33.64q0-16.69,0-33.38c0-.52-.21-1.12.33-1.53A8.49,8.49,0,0,1,.76.14C5.39,4.79,10,9.42,14.67,14.08c1.46,1.47,2.68,3.18,4.25,4.55,8.31,8.36,16.68,16.67,25,25,.54.54,1.41,1,1.16,2a43.31,43.31,0,0,0-4.81,7.43A24.07,24.07,0,0,0,38,62.45c0,1.78.17,2,2,2,7.61,0,15.22,0,22.83,0,.83,0,1.79-.27,2.37.68-.71.85-1.7.61-2.59.62-7.33,0-14.66,0-22,0-1.48,0-2.55.28-3,1.78-.55.17-.72-.27-.76-.61-.19-1.44-1.2-1.47-2.3-1.47-5.68,0-11.36,0-17,0a5.4,5.4,0,0,1-2.58-.31c-.72-.63-.55-1.49-.58-2.29-.46-10.5-.33-21-.34-31.51,0-2.86,0-2.83-2.68-1.81-3.49,1.31-6.91,2.78-10.44,4C.12,33.69-.6,34.13-1.38,33.64Z" transform="translate(1.41 1.67)"/><path class="cls-4" d="M99-1.25c1.8.09,3.59-.26,5.39-.31a13.79,13.79,0,0,1,3.26.21c1.29.28,2.6-.16,3.91-.19a89.15,89.15,0,0,1,10.34.05c2.59.24,5.12-.35,7.67-.08.38,0,.77,0,1.15,0,1.66.11,1.83.29,1.83,2q0,12.83,0,25.65a7.34,7.34,0,0,1-1.4,1.79l-8,8a5.53,5.53,0,0,1-1.92,1.5,23.32,23.32,0,0,1-17.44-3.41,23.24,23.24,0,0,1-10.5-16.17c-.07-.38-.17-.75-.25-1.12a16.62,16.62,0,0,1,.09-5A25.1,25.1,0,0,1,97.12,1,7.86,7.86,0,0,1,99-1.25Z" transform="translate(1.41 1.67)"/><path class="cls-5" d="M-1.37,98.16l0-10.85a17.63,17.63,0,0,1,8-5.77A22.63,22.63,0,0,1,36.29,94.11C39.56,103,37.88,111,32,118.26a74.57,74.57,0,0,1-5.73,5.37c-.48.37-.88.84-1.55.8a6.37,6.37,0,0,1-2.85-2.4c-2.65-3.15-5.69-5.91-8.57-8.83-4.34-4.4-8.73-8.76-13.11-13.12A8.52,8.52,0,0,1-1.37,98.16Z" transform="translate(1.41 1.67)"/><path class="cls-6" d="M24.64,124.18a13.58,13.58,0,0,0,3.45-2.67c1.2-1,2.16-2.33,3.45-3.27a4.89,4.89,0,0,1,2.86-.53H63.59A19.64,19.64,0,0,0,67,117.5c6.35-.17,12.69-.09,19,0,3.88,0,7.76-.07,11.65-.06a5.68,5.68,0,0,1,2.42.27c.64.43.53,1,.36,1.63a22.91,22.91,0,0,0-.31,12,1.2,1.2,0,0,1-.19,1.09H32.53c-2.63-1.81-4.56-4.36-6.87-6.51C25.18,125.44,24.47,125.05,24.64,124.18Z" transform="translate(1.41 1.67)"/><path class="cls-5" d="M93.71,11.56c-.59,1.74-.18,3.53-.28,5.29.89,6.11.4,12.25.48,18.38a2.23,2.23,0,0,1-.39,1.41,2.93,2.93,0,0,1-2,.48q-12.22,0-24.46,0a4.41,4.41,0,0,1-1.61-.21,1.09,1.09,0,0,1-.5-.4,2.13,2.13,0,0,1-.29-1.1c0-5.36-.16-10.72.08-16.07a2.1,2.1,0,0,1,.32-.77C70.91,12.08,77.25,6,83.4-.2a10,10,0,0,1,1.44-1.07l8.89,0c.07.09.18.18.17.27-.24,3.48.8,7-.14,10.45A3.32,3.32,0,0,0,93.71,11.56Z" transform="translate(1.41 1.67)"/><path class="cls-7" d="M100,132.41a26.9,26.9,0,0,1-1-6.61,26.36,26.36,0,0,1,1-6.44,4.2,4.2,0,0,0,.33-1.44c0-1.52.94-2.62,1.61-3.84.54-1,1.2-2,1.82-2.91a23.33,23.33,0,0,1,12.88-7.9,24.39,24.39,0,0,1,14.66,1.82,3.73,3.73,0,0,1,1.27,1q0,12.4,0,24.8c0,1.52,0,1.54-1.57,1.54Z" transform="translate(1.41 1.67)"/><path class="cls-8" d="M121.37,36.94a15.1,15.1,0,0,0,2.37-2.22c2.54-2.52,5.07-5.06,7.61-7.59a4.42,4.42,0,0,1,1.22-1.06q0,19.59,0,39.17a1.5,1.5,0,0,1-1.09.24c-3.67-.14-7.35,0-11-.07a9.13,9.13,0,0,0-4,.58,5.89,5.89,0,0,0-3-.58c-6.32,0-12.65.12-19-.07a1.75,1.75,0,0,1-.53-.18.6.6,0,0,1-.31-.4c.08-.72.67-1.1,1.12-1.55q12.35-12.37,24.71-24.74A14.81,14.81,0,0,1,121.37,36.94Z" transform="translate(1.41 1.67)"/><path class="cls-9" d="M35.84,94.21a16.23,16.23,0,0,0-3-5.24,21.77,21.77,0,0,0-13.19-8.25,22.36,22.36,0,0,0-18,4.11,34.59,34.59,0,0,1-3,2.48q0-11.19,0-22.39a2.78,2.78,0,0,1,2-.53q6.06,0,12.1,0a2.73,2.73,0,0,1,2,.51H35c.44,0,.88,0,1.32,0,.63,0,.84.32.87.91s-.2,1.22.3,1.72A2.67,2.67,0,0,1,37.82,70a8.11,8.11,0,0,0-.5,3.38c0,5.85,0,11.7,0,17.56a7.28,7.28,0,0,1-.17,2.28C37,93.79,36.8,94.55,35.84,94.21Z" transform="translate(1.41 1.67)"/><path class="cls-10" d="M116.48,65.91a1.56,1.56,0,0,1,1.6-1c4.19,0,8.38,0,12.57,0a12.12,12.12,0,0,1,1.91.34q0,20.42,0,40.84a54.84,54.84,0,0,0-5.83-2.12,27,27,0,0,0-10.26-.22,2.82,2.82,0,0,1-.56-2.17q0-16.75,0-33.51A2.63,2.63,0,0,1,116.48,65.91Z" transform="translate(1.41 1.67)"/><path class="cls-11" d="M24.64,124.18c1.31,1.67,3,3,4.4,4.57a46.28,46.28,0,0,1,3.49,3.65H.17c-1.54,0-1.55,0-1.55-1.71q0-16.27,0-32.54A5.11,5.11,0,0,1,0,99.36q10,10,20,20c1.2,1.19,2.15,2.63,3.44,3.74A6,6,0,0,0,24.64,124.18Z" transform="translate(1.41 1.67)"/><path class="cls-12" d="M65.43,18.48l-.32.34a3,3,0,0,1-2.17.53H33.45a4.83,4.83,0,0,1-1.93-.26c-1-.77-.27-1.49.12-2.14,2.66-4.47,5.42-8.88,8.2-13.27a41.47,41.47,0,0,1,3.24-4.93c7.45,0,14.9-.28,22.34,0A2.51,2.51,0,0,1,66,.58c0,5.29,0,10.58,0,15.88A3.59,3.59,0,0,1,65.43,18.48Z" transform="translate(1.41 1.67)"/><path class="cls-13" d="M43.08-1.25C42.58.59,41.3,2,40.35,3.57c-2.93,4.85-5.94,9.66-8.91,14.48a3.68,3.68,0,0,0-.23.44,1.3,1.3,0,0,1-1,.45,102.29,102.29,0,0,1-11.48-.12,15.53,15.53,0,0,1-3.07-3.15,11.43,11.43,0,0,0-1.11-1.2Q7.34,7.27.15.08A5.14,5.14,0,0,1-1-1.27Z" transform="translate(1.41 1.67)"/><path class="cls-14" d="M14.74,64.9l-16.11,0q0-15.64,0-31.28C2,32.7,5.2,31.3,8.45,30c1.58-.61,3.14-1.25,4.73-1.84.89-.33,1.19-.11,1.25.83,0,.38,0,.77,0,1.15,0,7.67,0,15.34,0,23,0,1.33.44,2.61.32,3.91C14.49,59.7,14.88,62.3,14.74,64.9Z" transform="translate(1.41 1.67)"/><path class="cls-15" d="M65.43,18.48q0-9.87,0-19.74H84.84A4.77,4.77,0,0,1,83.66.08c-4.51,4.54-9,9.06-13.56,13.6-1.18,1.21-2.28,2.5-3.44,3.73A4.08,4.08,0,0,1,65.43,18.48Z" transform="translate(1.41 1.67)"/><path class="cls-16" d="M93.71,11.56a2,2,0,0,1-.23-1.86,16.8,16.8,0,0,0,0-5.79,14.24,14.24,0,0,1,.24-5.16H99c-.8,1.29-1.63,2.56-2.4,3.87A20.54,20.54,0,0,0,93.71,11.56Z" transform="translate(1.41 1.67)"/><path class="cls-17" d="M37.48,69.84c0-.76,0-1.52,0-2.29.11-2.46-.43-2.32,2.45-2.32,7.83,0,15.66,0,23.5,0,.57,0,1.22.24,1.69-.32l.25-.21a5.11,5.11,0,0,1,2.42-.3q11.66,0,23.32,0a3.7,3.7,0,0,1,2.67.52h0c.77,1.85,0,3.64-.18,5.45a30,30,0,0,1-7.85,14.42C80.53,89.9,74.35,93,66.87,93.35a27.41,27.41,0,0,1-17.52-5A29.54,29.54,0,0,1,37.88,72.57,8.72,8.72,0,0,1,37.48,69.84Z" transform="translate(1.41 1.67)"/><path class="cls-11" d="M18.7,18.82c.49-.53,1.13-.31,1.7-.32,3.61,0,7.21,0,10.81,0,.54.57,1.24.32,1.86.32q16,0,32,0V36.61a5,5,0,0,1-2.8.69,25.22,25.22,0,0,0-15.65,7c-.45.43-.83,1.05-1.63.88a4.44,4.44,0,0,1-1.11-1L19.66,19.93C19.32,19.58,19,19.19,18.7,18.82Z" transform="translate(1.41 1.67)"/><path class="cls-18" d="M45,45.17a40.89,40.89,0,0,1,5.74-4.6A24.65,24.65,0,0,1,62,36.92a15.18,15.18,0,0,1,3.08-.31h0a3,3,0,0,1,.54,2.17q0,12,0,24a3,3,0,0,1-.53,2.18H39.3c-.22,0-.44,0-.66,0-1.12-.06-1.12-.07-1.18-1.27A20,20,0,0,1,38.3,57a27.45,27.45,0,0,1,6.46-11.44A2.63,2.63,0,0,0,45,45.17Z" transform="translate(1.41 1.67)"/><path class="cls-19" d="M121.37,36.94a4,4,0,0,1-1,1.12L94.85,63.63a3.8,3.8,0,0,1-1.11,1,2.36,2.36,0,0,1-.52-1.84c0-8.29,0-16.57,0-24.86a3.55,3.55,0,0,1,.2-1.29q0-9.87,0-19.75c.52,1.7.77,3.47,1.4,5.15a23.87,23.87,0,0,0,4.94,8,22.73,22.73,0,0,0,13.79,7.15A21.4,21.4,0,0,0,121.37,36.94Z" transform="translate(1.41 1.67)"/><path class="cls-13" d="M37.48,69.84c.48.45.43,1.11.57,1.67a28.67,28.67,0,0,0,5.84,11.25,29.68,29.68,0,0,0,8,6.69,24.09,24.09,0,0,0,8.4,3.1,27.58,27.58,0,0,0,22.25-5.47,28.65,28.65,0,0,0,9.52-13.29c.39-1.08.69-2.18,1-3.28.92.18.78,1,.79,1.55q.06,8.93,0,17.86a3.46,3.46,0,0,1-1.1,2.47c-1.11,1.13-2.22,2.26-3.36,3.35-5.73,5.65-11.54,11.2-17,17.14a27.8,27.8,0,0,1-5.36,5,3.23,3.23,0,0,1-1.91.33H31.54c.84-1.4,1.89-2.66,2.74-4.07a22.47,22.47,0,0,0,3.15-13.48,20.07,20.07,0,0,0-1.59-6.48c.84-.17.92-.84,1-1.5s0-1.21,0-1.81c0-6.08,0-12.17,0-18.25A5,5,0,0,1,37.48,69.84Z" transform="translate(1.41 1.67)"/><path class="cls-20" d="M67.08,117.91a3.62,3.62,0,0,1,.27-.41c6.8-7.25,13.88-14.23,20.91-21.26a3.39,3.39,0,0,1,.53-.38c.59.08.93.54,1.31.92q6.48,6.47,12.93,12.94c.44.44,1.08.81.94,1.6a7.74,7.74,0,0,1-1.38,2.35c-.85,1.37-1.52,2.83-2.26,4.25-3.83,0-7.66,0-11.49,0-3.65,0-7.29,0-10.93,0S70.69,117.91,67.08,117.91Z" transform="translate(1.41 1.67)"/><path class="cls-21" d="M93.41,36.6c.56.55.31,1.24.31,1.87q0,13.06,0,26.12v.32H65.11q0-14.16,0-28.31Z" transform="translate(1.41 1.67)"/><path class="cls-21" d="M104,111.32c-.4-.44-.78-.9-1.21-1.33Q96.39,103.59,90,97.2a5.91,5.91,0,0,1-1.2-1.34A40.63,40.63,0,0,1,92.55,92a2.63,2.63,0,0,0,.88-2c0-6,0-12,0-18.07,0-.48.14-1-.33-1.38l.66-5.6h21.11c.72,0,1.64-.26,1.63,1v37.83a22.14,22.14,0,0,0-11.41,6.61A12.71,12.71,0,0,1,104,111.32Z" transform="translate(1.41 1.67)"/></g></g></g></g></svg>