<svg xmlns="http://www.w3.org/2000/svg" xmlns:xlink="http://www.w3.org/1999/xlink" viewBox="0 0 134.04 134.38"><defs><style>.cls-1{fill:none;}.cls-2{clip-path:url(#clip-path);}.cls-3{fill:#fefffe;}.cls-4{fill:#c8dfec;}.cls-5{fill:#e0edf5;}.cls-6{fill:#f3f8fc;}.cls-7{fill:#e2eff7;}.cls-8{fill:#745b48;}.cls-9{fill:#725744;}.cls-10{fill:#e2eff6;}.cls-11{fill:#9bb6c8;}.cls-12{fill:#c4dce9;}.cls-13{fill:#c3deea;}.cls-14{fill:#c6deea;}.cls-15{fill:#c6dce7;}.cls-16{fill:#c2dae3;}.cls-17{fill:#98b7ca;}.cls-18{fill:#f6f9f9;}.cls-19{fill:#f4fafb;}.cls-20{fill:#f8faf9;}.cls-21{fill:#f4fafa;}.cls-22{fill:#99b4c3;}.cls-23{fill:#f7faf9;}.cls-24{fill:#f5f9f8;}.cls-25{fill:#f7fbfb;}.cls-26{fill:#f6fbfa;}.cls-27{fill:#c4dfed;}.cls-28{fill:#cfe4ee;}.cls-29{fill:#f9faf9;}.cls-30{fill:#cfe4f0;}</style><clipPath id="clip-path" transform="translate(1.55 1.61)"><rect class="cls-1" width="130.85" height="130.85"/></clipPath></defs><g id="Capa_2" data-name="Capa 2"><g id="TIENDA"><g id="Back"><g class="cls-2"><rect class="cls-3" y="13.17" width="133.96" height="121.21"/><path class="cls-4" d="M-1.49,37.34c0-.93-.05-1.85-.05-2.77V.84c0-.44,0-.88,0-1.32a.7.7,0,0,1,.82-.79C2.66-1.13,6-2,9.42-1.34A13.67,13.67,0,0,0,12-1.59q59.3,0,118.59,0h1a.71.71,0,0,1,.81.8c0,.38,0,.77,0,1.15q0,18.27,0,36.53a3,3,0,0,1-1.06,2.59c-1,.86-1.91,1.81-2.86,2.71-.6-.46-.39-1.08-.31-1.67.19-1.35.48-2.69.7-4a51.44,51.44,0,0,0-1,6.77,8,8,0,0,1-2.19,5c-.69.78-1.29,1.64-2,2.44-.27.34-.57.78-1,.67s-.77-.78-.81-1.3c-.14-2-.28-4-.44-6.06-.19-2.35-.27-4.7-.57-7-.43-3.31,1.94-8,4.86-9.56,1.07-.56,2.07-1.24,3.15-1.77-.74.38-1.48.79-2.24,1.12-.49.21-1,.6-1.52.13s-.28-1-.05-1.55c.77-1.76,1.39-3.57,2.15-5.24-.38.62-.56,1.43-1,2.1-.3.45-.63,1-1.26.87s-.65-.66-.77-1.16c-.28-1.11-.36-2.26-.66-3.26a8.93,8.93,0,0,0,.49,2.38c1.38,3.43-.36,6.14-1.9,8.91-.25.45-.52,1.15-1.16,1s-.74-.89-.79-1.51c-.19-2.62-.52-5.23-.64-7.85a65.84,65.84,0,0,1-.28-6.61c0,2.17.21,4.79.12,7.42a4.21,4.21,0,0,1-.17,1.62c-.26.6-.6.55-1,.1.25-3.34-2.4-5.23-3.83-7.73,0,0-.09,0-.09.07a.38.38,0,0,0,0,.17,43.83,43.83,0,0,0,4.09,8.91,5.1,5.1,0,0,1,.78,3.9,52,52,0,0,0-.17,6.72c0,.71,0,1.43,0,2.14s.24,1.63-.57,1.87-1.14-.68-1.6-1.19c-1.72-1.91-2.84-4.29-4.68-6.11A3.49,3.49,0,0,1,110.93,30c-.06-1.58.09-3.16.1-4.38a11.68,11.68,0,0,1-.23,2.33c-.1.51.06,1.26-.57,1.41s-1-.57-1.31-1c-.6-.85-1.18-1.72-1.7-2.62a12.09,12.09,0,0,0-1-1.48c1.16,2.52,2.88,4.73,3.9,7.32-.26,1.35-1.09,1.07-2,.68a15.88,15.88,0,0,0-4-1.67s-.09.06-.11.1a.33.33,0,0,0,0,.17c2,2,4.64,3.07,7,4.56a8,8,0,0,1,2.73,2.54c1.53,2.53,3.15,5,4.67,7.54a3.42,3.42,0,0,1,.66,1.83c-.2,2.29,0,4.58-.11,6.87,0,.57.16,1.35-.56,1.55s-.9-.5-1.21-.93a4.69,4.69,0,0,0-1.59-1.63,8.09,8.09,0,0,1-3.74-4.16,27.44,27.44,0,0,0-3.65-5.19,7.32,7.32,0,0,1-1.52-2.11,51.32,51.32,0,0,0,3.3,6.43c.22.43.65.93.25,1.34s-1,.06-1.48-.26c-1.85-1.36-3.81-2.56-5.54-4.1,2.18,2,4.36,3.91,6.7,5.67.64.49,1.34,1,1.29,2-.28.82-1,.76-1.63.79-1.14,0-2.29,0-3.44,0-.3,0-.84-.21-.8.46a26.8,26.8,0,0,0,6.91,1.21,6.14,6.14,0,0,1,4.35,2.5c2.3,2.72,2.68,5.66,2.25,9s-.07,6.89-.17,10.34c0,.73.29,1.69-.82,2-1-2-1-1.92-3.35-1.79-4.86.27-9.64,1.15-14.46,1.64-.58-.2-.65-.72-.64-1.21a35.48,35.48,0,0,0-.36-4.25,7.07,7.07,0,0,1,1.48-5.06,22,22,0,0,1,5.2-5.39c-.65.3-1,1.41-1.88.88s.09-1.17,0-1.65a12.29,12.29,0,0,1-3.21,5.4c-.8.88-1.21.75-1.55-.38a5,5,0,0,1,.26-4c1.39-2.46,2.4-5.16,4.5-7.12-.36.19-.59.87-1.17.56s-.2-.88-.21-1.34c0-.69.48-1.29.35-1.94a15.66,15.66,0,0,1-2.54,7c-.24.35-.44.87-.93.83s-.61-.61-.67-1c-.46-2.87-.68-5.76-.86-8.65A3.3,3.3,0,0,1,98.25,50c1.23-2.61,2.69-5.1,3.78-7.94-.4.67-.47,1.34-.81,1.88-.15.23-.25.53-.58.51s-.41-.31-.46-.58A13.69,13.69,0,0,1,99.73,42c.47,1.7.89,3.69-.47,5.55-.37.5-.6,1.4-1.36,1.19s-.69-1.06-.75-1.71c-.2-2.35.17-4.7,0-6.81a26.82,26.82,0,0,1-.05,3.19c-.07.53-.12,1.27-.69,1.39s-.81-.62-1-1.08c-.3-.65-.59-1.3-.88-2-.09-.2-.28.11-.1,0,0,0,.06,0,.11.1.63,1.4,1.26,2.8,2,4.13a5.51,5.51,0,0,1,.73,2.83c0,2.09,0,4.17-.05,6.25,0,.43-.06.93-.58,1.08s-.81-.25-1.06-.6c-1.36-2-2.76-4-4-6-.68-1.19-.25-2.48-.38-3.72,0-.07,0,0,0,.14-.07.64.29,1.64-.36,1.8-.88.21-1-.94-1.5-1.54.89,1.48,1.86,2.83,2.58,4.32.21.43.6.92.11,1.33s-.82,0-1.19-.25a24.3,24.3,0,0,1-2.64-1.66,9.38,9.38,0,0,0,2.33,1.48c3,1.2,4.48,3.82,5.84,6.41,1.13,2.15.56,4.63.36,6.95-.08,1-.93.81-1.48.32-1.79-1.62-3.59-3.24-4.57-5.54a25.53,25.53,0,0,0-1.69-3.29,21.89,21.89,0,0,1,1.73,3.5c.19.5.61,1.06.11,1.52S90,61.16,89.52,61a3.65,3.65,0,0,1-.49-.17c.65.26,1.4.61,2.14,1,.54.27,1.25.66,1,1.3s-1.08.56-1.71.46c-.79-.12-1.57-.28-2.36-.36,1.35.18,2.68.52,4,.69,1.8.23,4.5,2.83,4.67,4.63.36,3.56-.31,7.09-.4,10.65,0,.15-.14.29-.25.42A15.37,15.37,0,0,1,89.61,81,217.48,217.48,0,0,1,61,75.25C52.08,73,43.11,71,34,69.5c-1.32-.22-2.78,0-3.9-1-.4-.58,0-1,.27-1.49s.76-1,1.05-1.47A5,5,0,0,1,36.22,63c1.2,0,2.32-.46,3.53-.44-1.34,0-2.63.45-4,.45-.6,0-1.31.14-1.53-.6s.37-1.1.85-1.47c1.55-1.21,3.3-2.13,4.77-3.16a9.55,9.55,0,0,1-1.21.77c-.62.35-1.34,1.11-2,.38s0-1.33.35-1.94c.65-1.14,1.28-2.29,1.88-3.46-1,1.86-2.21,3.61-3.18,5.49s-2.71,3.29-4,5c-.36.48-.82,1.09-1.45.92s-.61-1-.55-1.55c.17-1.76-.68-3.51-.2-5.23a18.57,18.57,0,0,1,6.18-9.44,26.21,26.21,0,0,1,3.5-2.11c-.87.42-1.66,1-2.53,1.4-.39.18-.8.55-1.2.16s-.11-.84.08-1.21c1-2,2.2-3.91,3.13-5.72-.45.68-.87,1.63-1.4,2.51-.17.29-.43.55-.79.46s-.44-.46-.44-.79a12.62,12.62,0,0,0-.25-2.27c.83,3-.07,5.6-1.76,8-.87,1.26-1.75,2.51-2.6,3.79-.31.46-.58,1.29-1.28,1s-.44-1-.46-1.63c-.06-2.14.1-4.28-.15-6.4a1.59,1.59,0,0,1,.74-1.18,57.63,57.63,0,0,1-6,4.36c-.4.26-.9.66-1.33.28s0-.91.19-1.33A38.43,38.43,0,0,0,25.9,42.7c-1.38,2.3-2.6,4.88-4.57,7a14.76,14.76,0,0,1-3.52,2.88,1.91,1.91,0,0,0-1.11,1.52,1.82,1.82,0,0,1-.49,1c-.37.41-.77.87-1.37.71s-.64-.82-.66-1.35c-.09-2.5.09-5-.11-7.51.11-1.5,1.14-2.57,1.85-3.77,1.1-1.89,2.35-3.68,3.48-5.55a6.66,6.66,0,0,1,2.37-2.2L27.38,32c.45-.27,1-.44,1.2-1-1.27-.55-2.09.53-3.11.85s-2,.92-2.47-.67c.95-2.51,2.52-4.69,3.89-7.3-1.09,1.78-2.09,3.29-3.15,4.75-.28.39-.64.88-1.2.65s-.42-.73-.45-1.17c-.08-1.3.22-2.6,0-3.52.15,1.78-.34,3.92-.24,6.09,0,.51.07,1.14-.62,1.35.22-.06-.29.09-.15-.08s-.1-.22-.14-.14a32.76,32.76,0,0,1-4.78,6.57c-.15.16-.28.33-.44.49s-.57.78-1,.63-.49-.79-.52-1.27A10.25,10.25,0,0,0,14,35.5a71.59,71.59,0,0,1-.08-7.89,5.93,5.93,0,0,1,.85-2.46q1.74-3.54,3.65-7c-.92,1.72-1.84,3.44-2.89,5.09-.28.44-.57,1.05-1.25.81s-.68-.82-.71-1.37c-.12-2.85.19-5.69.11-8.14,0,3.46-.23,7.31-.56,11.16-.13,1.47-.39,2.93-.42,4.42a.83.83,0,0,1-.42.83c-.45.18-.73-.18-.94-.48A19.51,19.51,0,0,1,8.51,25.1c-.45-1.46.4-2.89.6-4.35a19.21,19.21,0,0,0,.24-1.95,13,13,0,0,1-.74,3.79c-.1.37-.32.77-.72.83s-.82-.31-1-.71a17.89,17.89,0,0,1-1.14-2.57c.48,1.58,1.58,3.36,2.33,5.29.2.53.67,1.18.08,1.66s-1,0-1.54-.26c-1-.49-2-1.14-2.95-1.69,1.25.78,2.52,1.53,3.83,2.2a5.37,5.37,0,0,1,2.85,3.25,1.49,1.49,0,0,0,.19.45C13,34.33,12.2,38,11.9,41.65c-.24,2.78-.41,5.57-.81,8.34-.08.52,0,1.23-.61,1.39s-.94-.44-1.3-.85a7.7,7.7,0,0,0-.63-.76,12,12,0,0,1-3.68-9,17.62,17.62,0,0,0-.74-4.35,50.35,50.35,0,0,1,.94,6.23,1.11,1.11,0,0,1-.41,1.18c-.52.33-1,0-1.32-.34A18.74,18.74,0,0,1-1.49,37.34Z" transform="translate(1.55 1.61)"/><path class="cls-5" d="M21.77,132.73A34,34,0,0,1,27.06,129a61.35,61.35,0,0,1,16.78-6.41,69,69,0,0,1,9.8-1.7c3-.31,6-.46,9-.67,6.08-.41,12.18-.83,18.07-2.58,4.19-1.24,8.33-2.63,12.4-4.21a107.58,107.58,0,0,1,13.5-4.54A86.59,86.59,0,0,1,116.84,107a92.57,92.57,0,0,1,11.76-.61,19.83,19.83,0,0,1,2.77.27c.89.13,1,.53,1,1.29,0,2.14,0,4.28,0,6.42q0,7.89,0,15.79c0,.33,0,.66,0,1,0,1.4-.45,1.84-1.8,1.52a21.66,21.66,0,0,0-3.58-.27c-1.77-.14-3.47.51-5.23.33a9.46,9.46,0,0,1-2.11-.22,2.69,2.69,0,0,0-1.46-.06,16.33,16.33,0,0,1-4.57.27H21.77Z" transform="translate(1.55 1.61)"/><path class="cls-6" d="M89.62,80.71a36.33,36.33,0,0,0,6.62-1.35,3.53,3.53,0,0,1,3.55-.66c2.93-.46,5.85-1,8.81-1.32,2.53-.29,5.07-.4,7.61-.59,1.58-.12,1.75-.16,1.7,1.68a4.76,4.76,0,0,0,.06.65c.07.08.18.16.2.26a45.26,45.26,0,0,1,.07,10.34c0,.21-.2.38-.34.55-7,1.62-14,3.33-21,4.83C94,95.72,91,95.91,88,96.25c-3.55.4-7.1.16-10.64.26a67.56,67.56,0,0,1-7.65-.59,83.8,83.8,0,0,1-13-2.4c-3.65-.89-7.33-1.7-10.89-2.93.41-1.2,1.54-.89,2.35-1,5.93-.76,11.79-1.9,17.65-3.06C73,85.13,80,83.22,87.05,81.24A13.33,13.33,0,0,1,89.62,80.71Z" transform="translate(1.55 1.61)"/><path class="cls-7" d="M89.62,80.71c-1,.91-2.3.93-3.48,1.28-3.4,1-6.81,1.94-10.25,2.78q-5.55,1.37-11.15,2.49c-4.1.83-8.21,1.63-12.35,2.25-1.88.28-3.77.55-5.66.75-.33,0-.66,0-.88.33-2.56-.36-5.07-1-7.64-1.41a60.23,60.23,0,0,0-6.41-.89A2.89,2.89,0,0,1,30.72,88c-.9-1.43-.75-3.1-.76-4.62,0-4.33-.45-8.64-.41-13,0-.76-.11-1.56.55-2.16,1.42.86,3.07.67,4.61.92,4.14.69,8.26,1.43,12.35,2.35,3.77.84,7.56,1.66,11.31,2.61,4.22,1.07,8.45,2.16,12.71,3.11s8.6,1.92,13,2.55a42.28,42.28,0,0,0,5,.65A.73.73,0,0,1,89.62,80.71Z" transform="translate(1.55 1.61)"/><path class="cls-8" d="M117.9,90.27a37.44,37.44,0,0,1,0-5.08c0-2,0-4,.08-6.07a3,3,0,0,0,.19-1.45c.13-4.82.22-9.64.4-14.45a4.75,4.75,0,0,0-1-3.34A12.55,12.55,0,0,1,116,57.74a3.72,3.72,0,0,0-3.6-2,50.64,50.64,0,0,1-6.81-1,1.52,1.52,0,0,1-1-.45.17.17,0,0,1,0-.14.58.58,0,0,1,.12-.1c.89-.63,1.8,0,2.7-.05,1.35-.06,2.71.07,4.06-.07.12-.69-.36-1.09-.47-1.61a13.19,13.19,0,0,0-2.48-2.11c-1.94-1.52-3.74-3.19-5.55-4.86a2.35,2.35,0,0,1-.92-1.48c2.79,2,5.26,3.95,8,5.55-1.32-3-3.34-5.7-4-9,1.07.84,1.4,2.17,2.27,3.13a35.38,35.38,0,0,1,3.21,4.91c1.59,3.22,4.1,5.63,6.84,8.28.73-3.31,0-6.47.45-9.55a22.09,22.09,0,0,0-2.18-3.81c-1.1-1.81-2.27-3.59-3.35-5.41a5.86,5.86,0,0,0-2.21-2.1c-2.41-1.39-4.76-2.86-7.12-4.33-.23-.15-1.05-.33-.25-.87,1.55,0,2.6,1.18,3.89,1.79,1.07.51,2.08,1.15,3.28,1.74-.29-.92-1.11-1.53-1-2.48-1.56-2.9-3.39-5.67-4.52-8.8,1.28.72,1.71,2.06,2.49,3.13a27.86,27.86,0,0,0,2.38,3.42c.17-2.15.33-4,.48-5.88.63,0,.49.41.5.68,0,1.92.08,3.84.1,5.76a3.87,3.87,0,0,0,.86,2.74c1.41,1.41,2.19,3.24,3.26,4.88s2.11,3.13,3,4.42c.4-4.09,0-8.37.29-12.65a5.22,5.22,0,0,0-.9-3.87,48.8,48.8,0,0,1-3.72-7.66,2,2,0,0,1-.19-1.58c.45-.16.55.23.68.49a48.77,48.77,0,0,0,3.48,6.39.74.74,0,0,1,.1.62c0,.23.16.39.56.56V13.18c.78.05.65.53.67.87.25,3.71.43,7.44.74,11.15a42.51,42.51,0,0,0,.63,5.91c1.36-2,2.13-4.07,3.19-6a2.13,2.13,0,0,0,0-1.45c-.29-1.61-.58-3.23-.84-4.85a3.37,3.37,0,0,1,.11-1.77c.79,2.07.9,4.07,1.63,6.12,1.35-1.52,1.83-3.42,3-4.88-.55,3-2,5.59-3,8.73l5.35-2.54a1.55,1.55,0,0,1-.8,1.2,32.32,32.32,0,0,1-4.29,2.42,3.75,3.75,0,0,0-2,2.06c-.54,1.26-1.09,2.52-1.7,3.74a4.17,4.17,0,0,0-.28,2.25q.52,7,1.09,14.09c0,.33.09.64.18,1.3,1.23-1.58,2.21-3,3.35-4.28a6.54,6.54,0,0,0,1.58-4.34,34.54,34.54,0,0,1,1.35-7.26.57.57,0,0,1,.48-.49c.25.38.07.78,0,1.17a50,50,0,0,0-.8,5.84c0,.47-.25.94.08,1.48l3.75-3.35c.34,2-1.61,2.6-2.1,4.11a4.25,4.25,0,0,0,2-.23,1.58,1.58,0,0,1,.16,1.3,2.11,2.11,0,0,1-1.46.66,4,4,0,0,0-3.27,2.13,55.28,55.28,0,0,0-3.87,6.83,7.9,7.9,0,0,0-.48,3.69,26.13,26.13,0,0,0,.12,4.24,1.2,1.2,0,0,1-.09.84,46.6,46.6,0,0,1,4.08-3.56c.91-.6.94-1.66,1.41-2.49A31.65,31.65,0,0,1,131,53.63c.3-.44.46-1,1.1-1.13.53.24.29.64.16,1-.43,1.11-.9,2.21-1.33,3.32a3.63,3.63,0,0,0-.48,1.51c.76-.16,1.2-.82,1.91-.86A2.55,2.55,0,0,1,132.4,59a3.58,3.58,0,0,1-1.15,1.14,34,34,0,0,0-5.93,5.58c-2,2.22-2,4.77-1.84,7.45-.09,4.9.3,9.8.4,14.7a8.06,8.06,0,0,0,0,1c.09.63-.19.85-.8.91A36.32,36.32,0,0,0,117.9,90.27Z" transform="translate(1.55 1.61)"/><path class="cls-9" d="M21.19,32c.46-.52.25-1.16.28-1.74.14-2.29.26-4.59.51-6.89.63,1.87.45,3.84.57,5.76.6.13.66-.38.84-.64,1.09-1.58,2.13-3.19,3.22-4.77.25-.37.38-.93,1.17-.9-1.28,3-3.14,5.66-4.54,8.54a5.75,5.75,0,0,1-1,2.62c1.57-.77,3.09-1.53,4.56-2.4a3.29,3.29,0,0,1,2.3-.68c.4.2.25.41,0,.57a24.1,24.1,0,0,1-3.21,2A18,18,0,0,0,17,42.14c-.83,1.59-1.93,3-2.67,4.67.26,2.46.06,4.92.12,7.38a4.48,4.48,0,0,0,.43,2.41,76.36,76.36,0,0,0,6.34-7.13A82.05,82.05,0,0,0,25.87,42c.47,1.14.47,1.21-.08,2.14-1,1.68-2,3.36-2.86,5.15a68,68,0,0,0,7.74-5.24c.14,1-.69,1.24-1,1.81-.34,1-1.21,1.37-1.9,2-2.16,1.94-4.69,3.47-6.86,5.95a26,26,0,0,0,5.24.1c.53,0,1.07-.27,1.58.11a.51.51,0,0,1,0,.48c-1.09,1-2.54,1-3.86,1.3a5.4,5.4,0,0,0-1.49.2,5.52,5.52,0,0,1-1.62.13,3.13,3.13,0,0,0-2.92,1.44,22.77,22.77,0,0,0-2.74,4.06,69.18,69.18,0,0,0,0,10.18c.13,2.25.28,4.49.21,6.73s.33,4.38.35,6.57a4.39,4.39,0,0,1-.49,2.54c-1.78.46-3.64.29-5.43.64C9.18,88.4,9,88,9,87.43s0-1,0-1.45a26.26,26.26,0,0,1-.14-7.19c.34-3.67.19-7.33.22-11-1-2.45-3-4.14-4.91-5.8C2.85,60.85,1.35,59.85,0,58.71a3.41,3.41,0,0,1-1.18-1.32,3.37,3.37,0,0,1-.28-1.63c.61-.58,1,0,1.38.3.61.45,1.21.91,2,1.43C1.58,56.21,1,55.23.61,54.15.45,53.69.3,53.09.8,52.82s.84.28,1.13.65a19.3,19.3,0,0,1,1.46,2.91c.84,3.28,3.63,4.84,6.16,7.15,0-3,.06-5.64-.06-8.29a37.5,37.5,0,0,0-5-8.06,3,3,0,0,0-2-1C1.37,46,.13,46-.89,45.24c-.63-.09-.62-.56-.61-1,1.44-.92,2.81.21,4.05.14a16.61,16.61,0,0,1-3.73-5.12,4.88,4.88,0,0,1-.31-1.89A5.86,5.86,0,0,1,.33,39.62,18.18,18.18,0,0,0,4,43.55c.12.11.28.19.58,0,.13-2.9-.9-5.79-.89-8.77.42,0,.53.23.58.44A48.94,48.94,0,0,1,5.64,44a4.15,4.15,0,0,0,1,2.67c1.26,1.5,2.42,3.08,3.82,4.9.16-1.26.31-2.2.4-3.15q.52-6.3,1-12.61a2.77,2.77,0,0,0-.36-1.74l-.07-.14A30.41,30.41,0,0,0,9,29c-1.08-1.43-3.05-1.87-4.52-2.92a5.29,5.29,0,0,1-1.91-1.71,10.27,10.27,0,0,1,2.72,1.28l3.06,1.61c-1.15-3.18-2.75-5.82-3.17-8.88,1,1.56,1.48,3.38,2.65,5.12,1-1.95.93-4,1.73-6.17a5.79,5.79,0,0,1,.05,2.89c-.18,1.3-.44,2.59-.72,3.87a1.69,1.69,0,0,0,.05,1.27c1,1.82,1.95,3.65,3.08,5.45.74-5.87,1.16-11.73,1.53-17.6l.5,0V24a10.62,10.62,0,0,0,2.64-3.49c.72-1.19,1.39-2.42,2.1-3.68.46.47.12.8,0,1.09-1.25,2.62-2.5,5.24-3.79,7.84a5.54,5.54,0,0,0-.67,2.67c.05,2.41,0,4.82,0,7.24,0,2.21.4,4.41.31,6.49,1.75-3,3.9-5.95,5.73-9.12A3.34,3.34,0,0,1,21.19,32Z" transform="translate(1.55 1.61)"/><path class="cls-10" d="M9.38,67.08a1.27,1.27,0,0,1,.39,1.19C9.58,74,9.4,79.66,9.2,85.36A2.83,2.83,0,0,1,9,86c-.6.46-.33,1.11-.36,1.68s-.21.86-.84,1c-2.83.54-5.67,1-8.45,1.83-.68.19-.92-.1-.92-.72,0-.22,0-.44,0-.66q0-10.27,0-20.56c.66-.84,1.64-.76,2.56-.87A47.48,47.48,0,0,1,9.38,67.08Z" transform="translate(1.55 1.61)"/><path class="cls-7" d="M15.27,87.63c-.29-8.16-.64-16.32-.77-24.49,0-.76-.16-1.55.48-2.17.73.17.47.76.46,1.19,0,.93,0,1.86,0,2.77-.13,1.41.55,2,1.86,2.06a37,37,0,0,1,6.64.59c1.93,1.63,3.35,3.53,3.37,6.21,0,4.25-.53,8.48-.36,12.73a1.83,1.83,0,0,1-.39,1.38,4.14,4.14,0,0,0-1-.24Z" transform="translate(1.55 1.61)"/><path class="cls-11" d="M26.51,87.9a77.87,77.87,0,0,1,.17-9.66c.19-1.9.07-3.83.07-5.74a1.52,1.52,0,0,0-.21-.78,24.19,24.19,0,0,0-2.72-3.86c-1.68-1.47-2.94-3.36-4.74-4.72-.49-.37-1.07-1.14-.54-1.69s1.14.21,1.67.53a4.71,4.71,0,0,1,.75.68c.26-.17,0-.36,0-.52-.05-.54-.31-1.27.32-1.45s.85.58,1,1.07a20.26,20.26,0,0,0,3.84,6.29c1.17-3.32.17-6.26-1.74-9a24.49,24.49,0,0,1-2-3.41,1.87,1.87,0,0,1,1.37-.21,2.77,2.77,0,0,1,1.82,1.47,9.6,9.6,0,0,0,1.3,2c.18-1.57.07-3.1.83-4.45V54c-.81-2.19,0-4.38,0-6.57l1.92-1.6a2.71,2.71,0,0,1,.33,1.74v6.08c.12,0,.27,0,.3,0A65.58,65.58,0,0,0,35,46.53a5.45,5.45,0,0,0,.66-2.83,24.75,24.75,0,0,1,.09-3.44,13,13,0,0,1,.6,4c1.22-1.46,1.69-3.08,3.14-4.44-1.08,3.08-2.75,5.49-4.11,8.32,1.9-.72,3.28-2,5.25-2.65a4.77,4.77,0,0,1-2,1.84c-3.37,1.5-5.54,4.16-7.24,7.3-.62,1.14-1.56,2.13-1.56,3.54a4.74,4.74,0,0,0-.09,1,35.67,35.67,0,0,1,.29,5.77c4.31-3.52,6.39-8.4,9.36-12.61-.41,2.38-2,4.27-2.95,6.71,1.92-.37,3-1.66,4.49-2.16.32.46-.12.58-.34.73C39,58.67,37.39,59.8,35.76,60.9a3.22,3.22,0,0,0-1.4,1.54c2.21.51,4.28-.42,6.39-.24a7.47,7.47,0,0,1-3.63,1,13.82,13.82,0,0,1-3.08.39,1,1,0,0,0-1,.52,41.16,41.16,0,0,0-3,4.09c-.07,2.83.13,5.66.22,8.48.11,3.76.27,7.51.41,11.26h0a2.21,2.21,0,0,1-1.64,0Z" transform="translate(1.55 1.61)"/><path class="cls-12" d="M123.48,73.18a26,26,0,0,1-.3-4.9,1.27,1.27,0,0,1,.32-.9c2.41-3.06,4.85-6.1,8.31-8.08a6.45,6.45,0,0,1,.59-.29q0,8,0,15.94c0,1.47,0,1.48-1.45,1.48H125.2c-1.32,0-1.33,0-1.35-1.41a25.52,25.52,0,0,0-.22-3.79Z" transform="translate(1.55 1.61)"/><path class="cls-13" d="M3,56.37c-.78-1.08-1-2.53-2-3.48-.16.83-.13.82.62,2.66a12.18,12.18,0,0,1,1.07,2.87A16.21,16.21,0,0,1-.28,56.48c-.38-.28-.65-.76-1.23-.72,0-3,0-6.1,0-9.15a1.37,1.37,0,0,1,.66-1.37c1.44.22,2.89.43,4.33.67a2.25,2.25,0,0,1,1.44,1,43.26,43.26,0,0,1,5,8.16c-.21,1.74,0,3.49-.11,5.23,0,.5.28,1.16-.36,1.47s-1.16-.06-1.68-.38A11.68,11.68,0,0,1,3,56.37Z" transform="translate(1.55 1.61)"/><path class="cls-14" d="M132.08,52.5c-1.17,1.74-2,3.66-3,5.49-1,1.35-2.47,2.08-3.78,3-1.56,1.1-1.81,1-2.11-.47-.18.73.87,1.78-.09,2.81a43.91,43.91,0,0,1-.29-7.16,1.36,1.36,0,0,1,.19-.61,50.37,50.37,0,0,1,4.85-8.31,3.06,3.06,0,0,1,2.71-1.49,9.11,9.11,0,0,0,1.78-.26c0,1.81,0,3.61,0,5.42A3.71,3.71,0,0,1,132.08,52.5Z" transform="translate(1.55 1.61)"/><path class="cls-15" d="M9.38,67.08c-.44.72-1.16.44-1.77.46a73.42,73.42,0,0,0-9.13,1c0-3.18,0-6.36,0-9.54a2.58,2.58,0,0,1,.32-1.59c3.45,2.53,7,5,9.68,8.38A4.06,4.06,0,0,1,9.38,67.08Z" transform="translate(1.55 1.61)"/><path class="cls-16" d="M-1.18,39.23C.21,41,1.61,42.77,3.12,44.67,1.4,44.8,0,44-1.5,44.21c0-1.2,0-2.39,0-3.59A2.27,2.27,0,0,1-1.18,39.23Z" transform="translate(1.55 1.61)"/><path class="cls-7" d="M29.07,88l1.64,0A1.17,1.17,0,0,1,29.07,88Z" transform="translate(1.55 1.61)"/><path class="cls-17" d="M99.79,78.7l-3.55.66c-.27-3.24.29-6.44.32-9.67a4.16,4.16,0,0,0-1.18-3.1l-1.24-1.31a3.06,3.06,0,0,0-2.32-1,18.87,18.87,0,0,1-4-.78,1,1,0,0,1-.93-.73c1.76-.32,3.36.79,5.35.44-1.41-1.5-3.36-1.78-4.95-3.1,1.42,0,2.3.83,3.53,1-.51-2.16-1.83-4-2.43-6.07a7.75,7.75,0,0,1,2,3,18.65,18.65,0,0,0,5,6.63,1.16,1.16,0,0,0,.91.48,3.6,3.6,0,0,0,.2-2c0-4.61,0-4.58-2.44-8.34a9.8,9.8,0,0,0-3.56-3c-.89-.54-1.76-1.11-2.64-1.66A1.93,1.93,0,0,1,87,48.78l5.26,3.15c-1.13-2.6-2.67-4.56-3.31-7l1.9,2.71c.36-1.29-.16-2.52.4-3.56l.4,0c0,1.06,0,2.13,0,3.19A3.52,3.52,0,0,0,92,49.22c1.38,2.29,2.88,4.49,4.4,6.64.59-.11.45-.51.46-.8,0-.44,0-.88,0-1.32a17.58,17.58,0,0,0-2.19-11,3.34,3.34,0,0,1-.52-1.89,34.71,34.71,0,0,1,2.22,3.87c.87-2.09.27-4.18.64-6.29.67.47.51,1.06.51,1.57q0,3.12,0,6.25A4.66,4.66,0,0,0,98,48.57c1.25-1.66,2.28-3.28,1.64-5.49a8.89,8.89,0,0,1-.25-2.69c.72,1.16.7,2.53,1.23,3.82.92-.7.67-2.12,1.88-3a33.6,33.6,0,0,1-1.57,4.39c-.74,1.47-1.42,3-2.22,4.41a4.3,4.3,0,0,0-.46,3c.35,1.88.32,3.8.56,5.69A16.28,16.28,0,0,0,99.27,61c2.37-2.58,2.73-6,3.91-9,.25,1.59-.53,3-.46,4.67.87-.31,1.22-1.29,2.28-1.63a4.64,4.64,0,0,1-1.14,1.52,44.23,44.23,0,0,0-4.34,7.32,3.63,3.63,0,0,0-.3,2.24c.08.63.25,1.25.42,2a18.39,18.39,0,0,0,4.43-7,8.84,8.84,0,0,1-.19,2.78c1.18-.43,1.79-1.54,3-1.75a11.94,11.94,0,0,1-2.62,2.69c-2.08,1.55-3.31,3.78-4.59,5.91-.58,1-.3,2.4-.08,3.56A24.26,24.26,0,0,1,99.79,78.7Z" transform="translate(1.55 1.61)"/><path class="cls-18" d="M118.87,47.14c.21,3.43,0,6.85,0,10.52-4.82-3.95-7.89-8.9-10.54-14.16.35-.29.48,0,.61.24,1.43,2.39,3.36,4.46,4.39,7.1a1.81,1.81,0,0,0,.92.91,7.53,7.53,0,0,1,3.88,3.78c.64-.29.41-.73.41-1.07,0-1.92,0-3.84,0-5.76C118.6,48.18,118.42,47.6,118.87,47.14Z" transform="translate(1.55 1.61)"/><path class="cls-19" d="M21.19,32a10.14,10.14,0,0,1-1.31,2.61c-1.77,2.8-3.57,5.58-5.65,8.36,0-1.2,0-2.39,0-3.59s.06-2.5.09-3.75c.46.58.21,1.26.25,1.89s0,1.16,0,2.06A54.08,54.08,0,0,0,21,31.3C21.26,31.46,21.11,31.77,21.19,32Z" transform="translate(1.55 1.61)"/><path class="cls-20" d="M118.84,29.37V43.1a68.27,68.27,0,0,1-6.58-10.38c.39-.43.53,0,.71.22,1.58,2.15,3.15,4.31,4.73,6.47a7.29,7.29,0,0,0,.53.58c.58-.21.34-.66.35-1,0-2.68,0-5.36,0-8C118.6,30.42,118.44,29.85,118.84,29.37Z" transform="translate(1.55 1.61)"/><path class="cls-21" d="M21.19,49.47a13.82,13.82,0,0,1-3,4.23c-1.23,1.28-2.44,2.58-3.78,4a2.72,2.72,0,0,1-.2-1.42c0-2.67,0-5.34-.05-8a3.41,3.41,0,0,1,.14-1.45c.45.46.27,1,.27,1.56,0,1.92,0,3.83,0,5.75a2,2,0,0,0,.3,1.51c.58-.58,1.8-.61,1.23-1.94-.14-.32.15-.51.34-.67a9,9,0,0,1,1.18-.88,7.73,7.73,0,0,0,3.16-2.76C20.88,49.23,21.08,49.32,21.19,49.47Z" transform="translate(1.55 1.61)"/><path class="cls-22" d="M29.5,33.3a14.27,14.27,0,0,1,.22,4c0,1.24,0,2.48.17,3.76,1.28-1.19,1.65-2.87,2.71-4.4A4.88,4.88,0,0,1,32,39.08c-.56,1.36-1.13,2.72-1.72,4.07-.24.54-.49,1.1-1.19,1.21C28.8,43.56,29.13,34.17,29.5,33.3Z" transform="translate(1.55 1.61)"/><path class="cls-23" d="M110,31.67A8.89,8.89,0,0,1,111.46,35l-7.7-4.33c-.36-.59-.36-.59-.07-.6a5.46,5.46,0,0,1,2.47.7c.89.41,1.77.83,2.61,1.32C109.38,32.4,109.65,32.05,110,31.67Z" transform="translate(1.55 1.61)"/><path class="cls-24" d="M29.08,30.9l-7.3,3.74a10.42,10.42,0,0,1,1.46-3.28c.29.41.57.76,1.19.49A12.33,12.33,0,0,0,26.35,31a3.83,3.83,0,0,1,2.49-.63C29.28,30.37,29.18,30.64,29.08,30.9Z" transform="translate(1.55 1.61)"/><path class="cls-25" d="M111,52.26a5.82,5.82,0,0,1,1.7,2.09,36.48,36.48,0,0,1-8-.36c-.37-.87.24-.91.8-.92,1.45,0,2.91,0,4.36,0C110.48,53.07,111,53,111,52.26Z" transform="translate(1.55 1.61)"/><path class="cls-26" d="M118.29,23.76a27.74,27.74,0,0,1-3.61-6.21c-.19-.44-.25-1-.65-1.29-.22-.26-.13-.4.17-.36.55.07.81.51,1.08.92,1,1.45,1.91,2.91,2.89,4.36A2.24,2.24,0,0,1,118.29,23.76Z" transform="translate(1.55 1.61)"/><path class="cls-25" d="M123.14,63.33V60.07c.51.35.22.93.55,1.36a2.28,2.28,0,0,0,.59-.2c1.46-1.19,3.26-1.93,4.56-3.34,0,0,.18.07.28.1a1.83,1.83,0,0,0-.32,1,1.27,1.27,0,0,1-.56,1.13c-1.72,1.24-3.21,2.75-4.83,4.08C123,64,123.13,63.64,123.14,63.33Z" transform="translate(1.55 1.61)"/><path class="cls-27" d="M22.44,55.61a1.15,1.15,0,0,1,.77.56c1.05,2,2.35,3.92,3.36,6a3.79,3.79,0,0,1,.48,2.52,29.85,29.85,0,0,0-.31,4.55,23.46,23.46,0,0,1-5.38-8.39c-.32,1,.42,1.88.3,3-1-.81-1.73-1.91-3.05-2.35a3.55,3.55,0,0,0,1.74,2.32,12.81,12.81,0,0,1,3.47,4.07c-2.63-.32-5.29-.17-7.92-.61-.77-.12-1-.43-1-1.15,0-1.71,0-3.42.06-5.13.86-1.46,2-2.74,2.94-4.13A2.42,2.42,0,0,1,20,55.72C20.8,55.7,21.62,55.65,22.44,55.61Z" transform="translate(1.55 1.61)"/><path class="cls-28" d="M27.8,47.46A6.05,6.05,0,0,1,28,50.93a5.64,5.64,0,0,0,0,2.52c.05.15-.15.38-.23.58a29.41,29.41,0,0,1-6.56.32c-.82,0-.94-.29-.44-1A20.64,20.64,0,0,1,24.53,50C25.58,49.07,26.71,48.29,27.8,47.46Z" transform="translate(1.55 1.61)"/><path class="cls-29" d="M3,56.37c.31-.3.52-.07.61.18.78,2.47,3,3.45,4.89,4.78.73.52,1.09.27,1.11-.62,0-1.36,0-2.72,0-4.08,0-.53-.17-1.1.24-1.57.33,3,0,6,.08,9.39C7.22,61.8,3.77,60.29,3,56.37Z" transform="translate(1.55 1.61)"/><path class="cls-30" d="M27.76,54.4c0,1.79-.49,3.54-.5,5.39a5.88,5.88,0,0,1-1.64-2.13,6,6,0,0,0-1.81-2.26A33.59,33.59,0,0,0,27.76,54.4Z" transform="translate(1.55 1.61)"/></g></g></g></g></svg>