<svg xmlns="http://www.w3.org/2000/svg" xmlns:xlink="http://www.w3.org/1999/xlink" viewBox="0 0 91.13 76.17"><defs><style>.cls-1{fill:none;}.cls-2{clip-path:url(#clip-path);}.cls-3{fill:#88501f;}.cls-4{fill:#b1763b;}.cls-5{fill:#b0743a;}.cls-6{fill:#b1763c;}.cls-7{fill:#b1783d;}.cls-8{fill:#b2773b;}.cls-9{fill:#b2763b;}.cls-10{fill:#b2763a;}.cls-11{fill:#b1763a;}.cls-12{fill:#b17539;}</style><clipPath id="clip-path" transform="translate(-4.32 -3.94)"><path class="cls-1" d="M2.52,74.9c-1.35-4.49-6.43-23.29,3.35-43C18.86,5.65,46.78.5,49.75,0c2.76.19,27,2.32,41.16,24,15.48,23.69,4.81,49.12,4,51L92,74.65a138.11,138.11,0,0,0-83.32.4Z"/></clipPath></defs><g id="Capa_2" data-name="Capa 2"><g id="TIENDA"><g id="Gorros"><g class="cls-2"><path class="cls-3" d="M8.81,50.06c.6-.78.41-1.75.66-2.62.69,0,.89,1.05,1.77.73,1.5-.54,3.14-.6,4.56-1.37.42-.23.42-.71.48-1.13A64.33,64.33,0,0,1,26.15,19,44.41,44.41,0,0,1,38.43,6.89c.53-.36,1.15-.59,1.36-1.27a26.11,26.11,0,0,1,6.65-1.35,13.55,13.55,0,0,1,3.05-.11c.67.86-.13,1.39-.49,1.93a63.79,63.79,0,0,0-4.72,8.32,63.31,63.31,0,0,0-5,17.41,95.2,95.2,0,0,0-1.22,10c-.06,1.2.29,1.48,1.54,1.44a195.21,195.21,0,0,1,20.24.06c1.84.13,2.23-.1,2-1.81C61,33.23,59.83,25,56.79,17.2a51.87,51.87,0,0,0-5.9-10.92,8.16,8.16,0,0,1-1.08-1.76A.59.59,0,0,1,49.68,4c3.33.32,6.73.21,9.89,1.59,2.37,1.7,4.73,3.39,7,5.28A45.8,45.8,0,0,1,77.44,25.49c3.07,6,4.7,12.53,6,19.12a3.17,3.17,0,0,0,2.51,2.83c1.59.48,3.35.69,4.67,1.89h0a.68.68,0,0,1-.16,1C89.3,51,89.48,52,89.69,53a39.26,39.26,0,0,1-.21,15.83,2.86,2.86,0,0,0,.71,3c1.19,1.16.92,2.44-.5,3.28a6.68,6.68,0,0,0-1,.71A57.88,57.88,0,0,1,75,78.71,223.25,223.25,0,0,1,27.79,79,74.12,74.12,0,0,1,12,76.1a5.17,5.17,0,0,1-.82-.48c-2.4-1.26-2.6-2.05-.95-4.09a1.9,1.9,0,0,0,.33-1.78,43.28,43.28,0,0,1-.35-17.23c.11-.59.4-1.28-.76-1.24C8.73,51.3,8.45,50.76,8.81,50.06Z" transform="translate(-4.32 -3.94)"/><path class="cls-4" d="M90.58,49.33c-2.21-.36-4.22-1.41-6.38-1.95a1.32,1.32,0,0,1-1-1.24c-1.32-7.26-3-14.42-6.43-21a45.38,45.38,0,0,0-15.94-18c-.51-.32-1.58-.38-1.25-1.49A33,33,0,0,1,76,15.55c8.68,9.27,12.87,20.6,14.6,33A5.21,5.21,0,0,1,90.58,49.33Z" transform="translate(-4.32 -3.94)"/><path class="cls-5" d="M39.79,5.62c.46.32,1.06.49.07,1A40.22,40.22,0,0,0,27.6,17.82C22.85,24.18,20,31.39,18.08,39a31.52,31.52,0,0,0-1.32,7.34,1.07,1.07,0,0,1-.93,1.11c-1.74.46-3.47,1-5.22,1.41-1.37.34-.52-1.15-1.14-1.45a53.33,53.33,0,0,1,2.84-12.36c2.9-8.28,7.11-15.79,13.75-21.7A33.94,33.94,0,0,1,39.79,5.62Z" transform="translate(-4.32 -3.94)"/><path class="cls-6" d="M8.81,50.06c.15.52.13,1.32,1,.55a.75.75,0,0,1,1-.11,1,1,0,0,1,.13,1,35.94,35.94,0,0,0-.9,10.39,36.54,36.54,0,0,0,1.13,8.13A1.44,1.44,0,0,1,10.59,72c-1.47.94-1.46,1.68-.17,2.84.51.45,1.24.64,1.56,1.31-.61-.17-1.23-.3-1.84-.5C6.1,74.27,4.5,72.25,4.39,68c-.1-3.56-.08-7.13,0-10.69A7.74,7.74,0,0,1,8.81,50.06Z" transform="translate(-4.32 -3.94)"/><path class="cls-7" d="M88.64,75.82a1.25,1.25,0,0,1,.6-.89c1.74-1.38,1.79-2.26,0-3.32-.8-.46-.7-.85-.55-1.49a39.87,39.87,0,0,0,.27-18.37c-.21-.94-.32-1.54.93-1.51.51,0,.65-.48.74-.91a4.48,4.48,0,0,0,.75.81c3.22,2,4.24,5,4.11,8.58-.1,3.19,0,6.38-.07,9.57C95.23,72.63,93,75.05,88.64,75.82Z" transform="translate(-4.32 -3.94)"/><path class="cls-8" d="M49.68,4V4.3h0l-3.24,0A6.37,6.37,0,0,1,49.68,4Z" transform="translate(-4.32 -3.94)"/><path class="cls-8" d="M49.68,4.3a1.08,1.08,0,0,1,.91.56A56,56,0,0,1,58.67,21c2,6.58,2.87,13.34,3.75,20.1.34,2.66-.05,3.14-2.42,2.78a55.6,55.6,0,0,0-8.75-.25c-4.24,0-8.5-.33-12.73.27-.59.08-1.25.2-1.17-.93A113.85,113.85,0,0,1,40.1,24.77,55.43,55.43,0,0,1,49.68,4.3Z" transform="translate(-4.32 -3.94)"/><path class="cls-9" d="M81.62,45.51c.11,1-.21,1.26-1.28,1.05C76,45.72,71.59,45,67.21,44.26c-1-.18-2.28.4-3.08-.34s-.29-2-.4-3.06a139.5,139.5,0,0,0-2.56-16.13A56.28,56.28,0,0,0,53.1,6c-.17-.26-.56-.49-.35-.81s.69-.24,1-.07c3.8,2,7.71,3.78,10.92,6.72a45.24,45.24,0,0,1,9.59,11.83A67.85,67.85,0,0,1,81.62,45.51Z" transform="translate(-4.32 -3.94)"/><path class="cls-9" d="M47.32,4.87c-1,1.57-1.92,3.12-2.83,4.7a59.67,59.67,0,0,0-6.31,17.1,82.77,82.77,0,0,0-1.94,13.66c0,1-.22,1.89-.3,2.84,0,.63-.32,1-1,1A122.52,122.52,0,0,0,19.6,46.5c-1.06.19-1.32-.07-1.24-1A38.71,38.71,0,0,1,19.79,38C22.06,30,25.32,22.56,30.7,16.2a38.6,38.6,0,0,1,9.26-8A38.47,38.47,0,0,1,47.32,4.87Z" transform="translate(-4.32 -3.94)"/><path class="cls-10" d="M55.41,56.15c.28,2.61-.47,5.45-.3,8.32,0,.89-.36,1.19-1.24,1.2a68.6,68.6,0,0,0-8.11.13.68.68,0,0,1-.84-.72c-.24-4.21-1-8.4-.45-12.66.28-2.09.31-4.21.67-6.31a1.26,1.26,0,0,1,1.49-1.23q3.34,0,6.69,0c1,0,1.4.33,1.51,1.36A75.76,75.76,0,0,1,55.41,56.15Z" transform="translate(-4.32 -3.94)"/><path class="cls-10" d="M66.6,56.41a49.42,49.42,0,0,1-.53,9c-.18,1.24-.78,1.29-1.73,1.14A38.12,38.12,0,0,0,58,66c-1.24,0-1.79-.4-1.65-1.66a89.57,89.57,0,0,0,.35-9.69,56.67,56.67,0,0,0-.61-8.54c-.1-.73-.07-1.19,1-1.07a57.39,57.39,0,0,0,6.8.46c1.43,0,1.88.68,2,1.86C66.33,50.48,66.92,53.62,66.6,56.41Z" transform="translate(-4.32 -3.94)"/><path class="cls-11" d="M40.45,45.19c3.09,0,3,0,2.87,2.72a93.36,93.36,0,0,0,0,16.21c.15,1.51-.44,1.86-1.87,1.87-2.06,0-4.11.35-6.16.54-.73.07-1.51.3-1.6-.91-.24-3.32-.89-6.63-.6-10,.26-3,.63-6.1.95-9.15.07-.74.52-1,1.19-1C37.08,45.41,38.93,45.29,40.45,45.19Z" transform="translate(-4.32 -3.94)"/><path class="cls-12" d="M78.12,58.85c-.38,2.78-.37,5.55-1,8.25a1.17,1.17,0,0,1-1.63,1,46.86,46.86,0,0,0-7-1.2c-1.34-.16-.94-1.18-.83-1.83a51.5,51.5,0,0,0,.59-9.52,53.64,53.64,0,0,0-.85-8.21c-.17-1.05-.21-1.5,1.21-1.32,2.32.28,4.61.67,6.92,1a1.4,1.4,0,0,1,1.34,1.29,40.28,40.28,0,0,1,.94,7.08C77.8,56.59,78,57.74,78.12,58.85Z" transform="translate(-4.32 -3.94)"/><path class="cls-10" d="M21.87,58.33a49.39,49.39,0,0,1,1.23-10,1.36,1.36,0,0,1,1.35-1.24c2.3-.32,4.59-.75,6.88-1.16,1-.17,1.55-.16,1.28,1.16a46.25,46.25,0,0,0-.24,18.27c.21,1,0,1.5-1.24,1.6a66.66,66.66,0,0,0-6.9,1c-1,.2-1.25-.13-1.43-1.06A52.58,52.58,0,0,1,21.87,58.33Z" transform="translate(-4.32 -3.94)"/><path class="cls-12" d="M21.5,48.73a46.18,46.18,0,0,0-.92,10.43,43.26,43.26,0,0,0,.83,8c.16.77.12,1.22-.7,1.44-2.35.63-4.7,1.26-7,1.94-.69.2-1,0-1.09-.67-.24-1.46-.61-2.91-.77-4.37-.46-4.38-.69-8.76.54-13.07a10.44,10.44,0,0,0,.29-1.56,1.74,1.74,0,0,1,1.22-1.52,56.35,56.35,0,0,1,6.8-1.58C21.4,47.65,21.61,48.07,21.5,48.73Z" transform="translate(-4.32 -3.94)"/><path class="cls-12" d="M88.33,59.89a48.25,48.25,0,0,1-.89,9.36c-.25,1.34-.76,1.6-2.06,1.14-1.94-.7-4-1.17-6-1.7a1.12,1.12,0,0,1-.93-1.51,49.67,49.67,0,0,0,.26-16.59c0-.1,0-.21,0-.31,0-.92-1.17-2-.3-2.63.68-.51,1.77.36,2.7.54,1.4.27,2.75.81,4.16,1a2.28,2.28,0,0,1,2,2.07A34.36,34.36,0,0,1,88.33,59.89Z" transform="translate(-4.32 -3.94)"/></g></g></g></g></svg>