<svg xmlns="http://www.w3.org/2000/svg" viewBox="0 0 63.97 97.72"><defs><style>.cls-1{fill:#ecdec1;}.cls-2{fill:#cfb88d;}.cls-3{fill:#cfb88e;}.cls-4{fill:#ceb78c;}.cls-5{fill:#ceb78f;}.cls-6{fill:#ccb68c;}.cls-7{fill:#d0ba90;}.cls-8{fill:#ceb88f;}.cls-9{fill:#d0b88d;}.cls-10{fill:#d0b68a;}.cls-11{fill:#d0b88b;}.cls-12{fill:#d0b98c;}</style></defs><g id="Capa_2" data-name="Capa 2"><g id="TIENDA"><g id="Gorros"><path class="cls-1" d="M63.63,87.8c.73,2,.35,3.13-1.85,4.42a31.89,31.89,0,0,1-11.87,3.86c-1.1.15-2.2.31-3.28.54a6.77,6.77,0,0,1-3.13.13c-.09-.76.64-.9,1-1.3a3.91,3.91,0,0,0,1-4.09A3.65,3.65,0,0,0,42,89.28a3.48,3.48,0,0,0-.61,6.87c.7.18,1.52,0,2.1.6a5.19,5.19,0,0,1-2.89.57c-5,.21-10,.76-15,.05-.42-.06-.82-.19-1.23-.29-.52-.35-.45-.91-.52-1.42a3.4,3.4,0,0,0-3.17-3.34A3.74,3.74,0,0,0,17,95.21a3.67,3.67,0,0,1-.32,1.22A54,54,0,0,1,3.25,92.75C.8,91.69-.54,90,.21,88.34s1.25-3.26,1.91-4.87q2.61-6.39,5.29-12.75C9,67,10.48,63.28,12.11,59.6c.78-1.78,1.19-3.74,2.34-5.36.71-.2,1.19.36,1.77.56A3.57,3.57,0,0,0,21,52.53a3.34,3.34,0,0,0-2.25-4.4c-.53-.2-1.19-.2-1.39-.89.55-2.89,2.13-5.38,3.13-8.09.35-.94.33-2.15,1.37-2.77.56-.24,1,.09,1.54.2a3.57,3.57,0,0,0,4.23-2.22A3.34,3.34,0,0,0,25.85,30c-.45-.24-1-.32-1.2-.94,1-2.52,1.88-5.05,2.84-7.56a3.32,3.32,0,0,0,.36-1.37c0-1.1.93-1.45,1.66-1.9.5-.31.9,0,1.15.51A8.08,8.08,0,0,1,31,19.76c.19.47.47.88,1,.88s.73-.37.95-.75c.39-.67.21-1.8,1.08-2s1.19.91,1.86,1.31c.49.3,1.12.37,1.49.87-1.11.53-1.08,1.33-.61,2.32.38.79.65,1.64,1,2.47-.87.79-2,1.33-2.31,2.67A3.45,3.45,0,0,0,39.08,32c.52,0,1-.14,1.57-.12,1.84,4.29,3.48,8.67,5.43,12.91C47.16,47.16,48,49.62,48.93,52c-.52.36-1.16.45-1.65.91a3.47,3.47,0,0,0-.64,4.82,3.32,3.32,0,0,0,4.87.65l6.22,15.06c.9,2.19,1.77,4.4,2.68,6.59a2.86,2.86,0,0,1,.33,1.37c-.25.54-.8.65-1.27.89a3.6,3.6,0,0,0-2.26,3.53A3.64,3.64,0,0,0,59.65,89a3,3,0,0,0,3.71-1A.69.69,0,0,1,63.63,87.8Z"/><path class="cls-2" d="M37.41,20.06c-1.56.2-2.37-.87-3.32-2.19a20,20,0,0,1-.57,2.21c-.28.7-.76,1.34-1.64,1.24A1.71,1.71,0,0,1,30.46,20c-.52-1.63-.5-1.63-1.87-.48-.24.2-.5.38-.74.58-2.08-.2-2.14-.36-1.32-3.86-1.33.05-3,1.22-3.86-.36s1.28-2,1.72-3.32c-1.25-.21-2.91-.11-2.9-1.9s1.84-1.35,3-1.92c-.27-.71-1-1-1.45-1.58a1.34,1.34,0,0,1-.37-1.58,1.32,1.32,0,0,1,1.55-.81c.72.12,1.43.33,2.25.53.21-1.32-1.6-2.92.36-3.81,1.55-.7,2.13,1,3.16,1.74.2-.66.36-1.3.6-1.9S31.23-.08,32.14,0s1.19.83,1.4,1.55c.17.55.05,1.18.5,1.71,1.1-.69,1.76-2.72,3.41-1.74,1.37.83.53,2.28,0,3.59.92,0,1.67-.47,2.5-.4.63,0,1.16.16,1.45.76A1.26,1.26,0,0,1,41,7.06a11.08,11.08,0,0,0-1.58,1.56c1.46.33,3.16.43,3.24,2s-1.61,1.69-2.85,2c-.06.75.58,1,.95,1.39.52.57,1,1.16.69,2s-1.24.57-1.94.66-1.3-.34-2.11-.45C37.79,17.53,38.71,18.84,37.41,20.06Z"/><path class="cls-3" d="M17.31,47.24c1.57.41,3.22.67,4,2.46A4.26,4.26,0,0,1,20,54.81a4.16,4.16,0,0,1-5-.18l-.51-.39A33.87,33.87,0,0,1,17.31,47.24Z"/><path class="cls-4" d="M63.63,87.8c-.47,2-3.31,2.63-5.12,1.11-1.15-1-2.14-2.11-1.8-3.79a4.51,4.51,0,0,1,4-3.69C62.12,83.37,62.64,85.69,63.63,87.8Z"/><path class="cls-5" d="M24.65,29c3.4.92,3.93,2.51,3.59,4.62-.53,3.28-3.62,4.53-6.43,2.73A48.12,48.12,0,0,1,24.65,29Z"/><path class="cls-6" d="M16.67,96.43c-.73-1.51.19-2.54,1.1-3.5A3.58,3.58,0,0,1,22,92.08,3.5,3.5,0,0,1,24.33,95c.07.68,0,1.38,0,2.06-2.14.43-4.2-.39-6.3-.46C17.6,96.6,17.14,96.49,16.67,96.43Z"/><path class="cls-7" d="M51.51,58.41a2.35,2.35,0,0,1-3.4,1.12,4.23,4.23,0,0,1-2.71-3.61c-.14-1.85,1-2.9,2.21-4,.44-.4.89-.17,1.32.07Z"/><path class="cls-8" d="M40.65,31.9c-1.62,1.31-4.38.6-5.46-1.46s0-5.82,2.57-5.59Q39.21,28.38,40.65,31.9Z"/><path class="cls-9" d="M28.81,64A3.92,3.92,0,0,1,33,60,3.84,3.84,0,0,1,36.93,64c0,2.19-1.9,4.34-3.85,4.32A4.52,4.52,0,0,1,28.81,64Z"/><path class="cls-10" d="M38.69,46.14a4.2,4.2,0,0,1-4.06,4.26,4.47,4.47,0,0,1-4.18-4,4.52,4.52,0,0,1,4.05-4.19A4.24,4.24,0,0,1,38.69,46.14Z"/><path class="cls-2" d="M15.57,73.45c-2.61,0-4-1.32-4-3.81a4,4,0,0,1,4-4.2,4.11,4.11,0,0,1,4,4.1C19.58,72,18.1,73.44,15.57,73.45Z"/><path class="cls-11" d="M47.27,71.81a3.94,3.94,0,0,1,4.21,3.81A4.23,4.23,0,0,1,47,79.81a4.31,4.31,0,0,1-3.84-4A4.11,4.11,0,0,1,47.27,71.81Z"/><path class="cls-12" d="M24.31,81.21a4.08,4.08,0,0,1,4-3.92,4.14,4.14,0,0,1-.11,8.28C26.4,85.6,23.91,83.67,24.31,81.21Z"/><path class="cls-2" d="M43.5,96.75a5.08,5.08,0,0,1-4.16-1.13,4.15,4.15,0,0,1-.62-5.08,4.25,4.25,0,0,1,5.39-1.32A3.64,3.64,0,0,1,46,93.87a4.46,4.46,0,0,1-2.53,2.88Z"/><path class="cls-12" d="M7.29,81.72a3.71,3.71,0,0,1,4,4,4.07,4.07,0,0,1-4.12,4,4,4,0,0,1-3.89-4.14C3.23,83.12,4.73,81.71,7.29,81.72Z"/></g></g></g></svg>