<svg xmlns="http://www.w3.org/2000/svg" viewBox="0 0 124.47 69.14"><defs><style>.cls-1{fill:#8b8f3b;}.cls-2{fill:#61692e;}.cls-3{fill:#626c2f;}.cls-4{fill:#bd9f71;}</style></defs><g id="Capa_2" data-name="Capa 2"><g id="TIENDA"><g id="Gorros"><path class="cls-1" d="M.33,51.56c-.71-3.23-.39-6.21,2.12-8.66A29.47,29.47,0,0,1,12.18,37a61.58,61.58,0,0,1,11.57-3.53c1.44-.28,1.86-1.05,2.18-2.27a105.71,105.71,0,0,1,7-19.79c1.78-3.64,3.88-7.11,7.25-9.56A8.45,8.45,0,0,1,47.75.33c2.57,2.58,4.86,5.44,7.87,7.58,3.93,2.8,7.6,3.21,11.75.91a28.15,28.15,0,0,0,8-6.76A18.85,18.85,0,0,0,77,.32,8.69,8.69,0,0,1,85.79,3c3.47,3.49,5.65,7.79,7.55,12.26a127,127,0,0,1,5.49,16.45,2,2,0,0,0,1.74,1.67c6.86,1.58,13.58,3.58,19.43,7.69,2.94,2.07,5,4.63,4.35,8.55s-3.68,5.58-6.58,7.27c-6,3.45-12.53,5.3-19.21,6.73a159.58,159.58,0,0,1-25.78,3.26c-5.75.28-11.5.4-17.23.18-13.11-.49-26.12-1.85-38.7-5.9C11.72,59.45,6.7,57.53,2.63,53.78A7.42,7.42,0,0,1,.74,51.44C.41,50.69.56,51.8.33,51.56Z"/><path class="cls-2" d="M.33,51.56.41,50.2c2.52,4.09,6.37,6.27,10.53,8.08,7.15,3.12,14.68,4.77,22.33,6,6.39,1.08,12.82,1.5,19.27,1.94a165.57,165.57,0,0,0,17.68.16A154.48,154.48,0,0,0,93.1,64.07a103.77,103.77,0,0,0,18.56-4.91,31.1,31.1,0,0,0,9.51-5.33,11.06,11.06,0,0,0,3.18-4.26c.39,2.37-.85,4.12-2.35,5.67-3.42,3.52-7.79,5.47-12.32,7.1-9.68,3.5-19.77,5.07-30,6a184.57,184.57,0,0,1-47.42-1.6c-8-1.34-15.87-3.14-23.16-6.86-2.94-1.5-5.77-3.21-7.71-6A5.38,5.38,0,0,1,.33,51.56Z"/><path class="cls-2" d="M77,.32c.33,1.08-.74,1.37-1.2,1.93a25.2,25.2,0,0,1-10.46,8c-3.42,1.29-6.49.33-9.33-1.5-3.33-2.13-5.78-5.24-8.54-8-.38-.38.19-.3.33-.42a78.25,78.25,0,0,1,8.76,2.79,17.36,17.36,0,0,0,11.83-.06A69.5,69.5,0,0,1,77,.32Z"/><path class="cls-3" d="M85.39,50.86a82.09,82.09,0,0,1-9.85,1.58,106.56,106.56,0,0,1-16.85.65,108.81,108.81,0,0,1-19.52-2.3,73.24,73.24,0,0,1-13.21-4c-2.59-1.1-3.24-2.28-2.71-5a36.59,36.59,0,0,1,.92-4.35c.22-.7.53-.94,1.25-.65,1.13.46,2.28.85,3.42,1.28a82.22,82.22,0,0,0,20.34,4.86,108,108,0,0,0,16.17.9A132.13,132.13,0,0,0,82.54,42a2.44,2.44,0,0,1,1.84.2c.15.16,0-.1.13.09A10.49,10.49,0,0,1,85.39,50.86Z"/><path class="cls-4" d="M85.39,50.86a32.13,32.13,0,0,0-1-8.62,1.23,1.23,0,0,1,.81-1.84A16.41,16.41,0,0,1,90.38,39a1.93,1.93,0,0,1,2,1c.66.3.81.93,1,1.54a23,23,0,0,1,.81,4.35,1.69,1.69,0,0,1-.55,1.72A2.72,2.72,0,0,1,91.16,50C89.24,50.33,87.39,51,85.39,50.86Z"/><path class="cls-3" d="M93.59,47.64C93.78,45,93,42.52,92.35,40c0-.52.42-.73.81-.89,2-.81,4-1.59,6-2.43.73-.3,1.1-.12,1.26.62.39,1.87.81,3.72,1.16,5.59a2.77,2.77,0,0,1-1.75,3.22c-1.62.77-3.28,1.47-4.92,2.21C94.19,48.69,93.61,48.72,93.59,47.64Z"/></g></g></g></svg>