<svg xmlns="http://www.w3.org/2000/svg" viewBox="0 0 127.09 68.13"><defs><style>.cls-1{fill:#5680ad;}.cls-2{fill:#5680af;}.cls-3{fill:#f9c84b;}.cls-4{fill:#f9c84f;}.cls-5{fill:#747c7a;}.cls-6{fill:#cca551;}.cls-7{fill:#f9c84a;}.cls-8{fill:#fac84b;}.cls-9{fill:#fac94d;}.cls-10{fill:#fac94e;}.cls-11{fill:#d7a436;}</style></defs><g id="Capa_2" data-name="Capa 2"><g id="TIENDA"><g id="Gorros"><path class="cls-1" d="M103.84,39.12C111.76,43.75,119,49.35,126.22,55c1.31,1,1.12,2.53-.42,3.55a21.3,21.3,0,0,1-4.19,2,99.88,99.88,0,0,1-20.71,5A250.3,250.3,0,0,1,57.31,68a235.16,235.16,0,0,1-39-3.88A86.48,86.48,0,0,1,3.5,59.77l-.29-.13C2,58.92.25,58.58,0,56.82s1.48-2.27,2.54-3.14A200.24,200.24,0,0,1,20.64,40.59c.8-.52,1.63-1,2.44-1.49,1.43-.63,2.85-.11,4.19.21,2.32.56,4.66,1,7,1.4a2.53,2.53,0,0,1,2.31,2.57,8.47,8.47,0,0,0,.67,2.45,4.11,4.11,0,0,0,2.64,2.56c1.83.63,2,1.42.87,3s-2.26,2.67-3.22,4.14c-.3.46-.86.92-.47,1.56s.91.51,1.44.49a26.25,26.25,0,0,1,3.32.3,3.77,3.77,0,0,1,3.52,2.53c.48,1.24,1.21,2.36,1.69,3.6A1.59,1.59,0,0,0,48.41,65c.75.06,1-.52,1.25-1,3.34-6.57,7.4-12.73,11.18-19.05a5.06,5.06,0,0,0,.4-.68,2.41,2.41,0,0,1,2.23-1.76,2.63,2.63,0,0,1,2.33,1.7c1.59,3.13,3.51,6.06,5.36,9C73.22,56.52,75,60,76.89,63.32a4.75,4.75,0,0,0,.82,1.17c.9.82,1.55.74,2.18-.3a16.61,16.61,0,0,0,1.73-4.1,2.88,2.88,0,0,1,2.91-2.27c1.34,0,2.63-.34,4-.4s1.76-.81,1-2c-1-1.6-2.44-2.94-3.57-4.48-.83-1.13-.69-2,.55-2.35,2.78-.74,3.71-2.87,4.09-5.31a2.61,2.61,0,0,1,2.51-2.52c2.76-.5,5.5-1.13,8.26-1.64A11.17,11.17,0,0,1,103.84,39.12Z"/><path class="cls-2" d="M26.28,28.44c2.42-11.13,8-20,18.8-24.53a45.28,45.28,0,0,1,37.45.29C91.65,8.27,97,15.61,99.7,25c.33,1.13,1.11,2.2.75,3.49-.8.81-1.89.83-2.9,1a24.84,24.84,0,0,0-4.54.82c-2.37.42-2.94,0-3.08-2.45a10.14,10.14,0,0,0-.3-2.05A4.69,4.69,0,0,0,84,22.16a30.62,30.62,0,0,0-10.35,4.46,36.6,36.6,0,0,0-4.27,3.07,3.43,3.43,0,0,1-3.23.87,10.76,10.76,0,0,0-4.59,0A5.32,5.32,0,0,1,57,29.23a33.89,33.89,0,0,0-13.19-6.89c-3.62-.9-6,.73-6.65,4.42-.11.63-.11,1.27-.19,1.91-.19,1.53-.87,2-2.38,1.77A14.7,14.7,0,0,0,31,29.93C29.38,29.46,27.6,29.66,26.28,28.44Z"/><path class="cls-3" d="M26.28,28.44l4.78,1.07c1.57.2,3.08.71,4.67.76a1.23,1.23,0,0,1,1.13.74c.78,1.65,1.46,3.33,1,5.21-.24,1.09-.35,2.2-.67,3.27-.25.86-.62,1.61-1.73,1.51-3.55-.44-7-1.32-10.53-2a.83.83,0,0,1-.66-.61c-.47-2.37.41-4.57.87-6.82A23.81,23.81,0,0,1,26.28,28.44Z"/><path class="cls-4" d="M97.44,29.2a9.5,9.5,0,0,1,3-.7c1.77,2.53,1.82,5.54,2.35,8.41a4.55,4.55,0,0,1-.27,1.54c0,.81-.79.71-1.18.77-3.34.5-6.58,1.51-9.95,1.85A1.34,1.34,0,0,1,90,40c-.77-2.66-1.49-5.31-.3-8.07.39-.9.78-1.48,1.88-1.61C93.55,30.11,95.46,29.49,97.44,29.2Z"/><path class="cls-5" d="M91.36,40.72a90.22,90.22,0,0,0,11.17-2.27l1.31.67c-3.68.72-7.35,1.5-11,2.13a1.77,1.77,0,0,0-1.75,1.8c-.4,2.8-1.36,5.25-4.59,6-1,.22-.91.86-.34,1.53,1.09,1.3,2.21,2.58,3.24,3.92.56.72,1.38,1.38.91,2.53s-1.43.87-2.3.93c-1.21.09-2.43.16-3.63.34a2.48,2.48,0,0,0-2.27,1.93,17.1,17.1,0,0,1-1.84,4.39c-.74,1.25-1.67,1.35-2.73.36a9.45,9.45,0,0,1-1.83-2.78C72.9,56.54,69.41,51.35,66.2,46a9.8,9.8,0,0,0-1.31-2.34c-1.12-1.07-2.31-1.06-3,.28-2.78,5.24-6.29,10-9.07,15.29-.9,1.71-1.86,3.41-2.8,5.11s-2.33,1.66-3.27,0a10.81,10.81,0,0,1-1.28-2.71c-.68-3-2.91-3.61-5.49-3.75h-.48c-1.14,0-2.6.36-3.07-1-.36-1,.79-1.85,1.37-2.67.89-1.25,1.9-2.42,2.91-3.58.79-.91.46-1.48-.52-1.74-2.84-.76-3.7-2.95-4-5.5-.18-1.31-.61-2-2.09-2.26-3.68-.52-7.27-1.59-11-2l1.24-.7a107.82,107.82,0,0,0,11.25,2.3c1.07,0,1.41.75,1.57,1.66a8.31,8.31,0,0,0,.61,2.79,4.89,4.89,0,0,0,3.66,2.77c1.75.29,2,1.11,1,2.56-1.17,1.64-2.58,3.11-3.79,4.73-.27.37-.79.74-.52,1.24s.76.32,1.17.31c1.18,0,2.33.28,3.5.29a3,3,0,0,1,3,2.18c.48,1.19,1,2.36,1.51,3.53.22.47.4,1.09,1,1.14s.86-.56,1.12-1c1.35-2.29,2.61-4.63,4-6.93Q57,49.68,60.81,43.49c1.55-2.51,4-2.43,5.48.16C70,50.16,74.2,56.39,77.74,63c.25.45.43,1.11,1.07,1s.59-.7.8-1.12c.64-1.29,1-2.68,1.63-4A2.83,2.83,0,0,1,84,57.11c1.33,0,2.63-.36,4-.36,1.08,0,1.18-.48.56-1.27-.89-1.13-1.78-2.26-2.72-3.35a12.7,12.7,0,0,1-1.42-1.92c-.76-1.35-.5-1.92,1-2.28,3.23-.78,4.25-2,4.59-5.37C90,41.61,90.08,40.71,91.36,40.72Z"/><path class="cls-6" d="M91.36,40.72c-.87.29-.94,1-1,1.76a6,6,0,0,1-2.26,5,3.26,3.26,0,0,1-2.19.81c-.58,0-1.36,0-1.6.49s.29,1.09.65,1.54c1.36,1.7,2.73,3.38,4.11,5.06.33.41.84.76.52,1.37s-.8.43-1.27.47c-1.54.1-3.07.25-4.61.31a2,2,0,0,0-2,1.33c-.64,1.63-1.31,3.25-2,4.86-.21.49-.39,1.14-.94,1.21s-1-.59-1.23-1.07c-1.24-2.17-2.42-4.37-3.65-6.54-2.69-4.76-5.89-9.21-8.44-14a2.35,2.35,0,0,0-4.11,0c-4,6.58-8,13.16-11.7,19.91-.35.64-.68,1.51-1.49,1.49s-1-1-1.33-1.63c-.6-1.3-1.14-2.63-1.71-4a2.35,2.35,0,0,0-2.39-1.66c-1.53,0-3.06-.25-4.6-.3-1.15,0-1.38-.65-.64-1.56,1.46-1.81,3-3.6,4.44-5.41,1-1.19.78-1.66-.74-1.91a5.18,5.18,0,0,1-4.53-5c-.11-1,.06-2.17-1.19-2.69.42-.08.88-.15,1-.64.73-3,1.52-5.94-.11-8.9-.31-.57-.74-.62-1.27-.73-1.38-.31-2.84-.21-4.13-.92a9.77,9.77,0,0,1,3.6.48c1.19.23,1.89,0,1.81-1.4A7.67,7.67,0,0,1,36.54,27c.74-4.91,3.84-6.55,9.06-4.74a37.16,37.16,0,0,1,12.24,7,4,4,0,0,0,3.58.73,11.4,11.4,0,0,1,4.9.08,2.62,2.62,0,0,0,2.6-.66,41.43,41.43,0,0,1,13-7.33c3.11-1.1,5.46-.71,7.27,1.41a7,7,0,0,1,1.32,4.64c.05,2,.3,2.14,2.3,1.81,1.56-.25,3-1,4.68-.75-1.85.8-3.88.86-5.8,1.4a1.92,1.92,0,0,0-1.35,1.25c-1.42,2.85-.3,5.57.2,8.32C90.58,40.65,91,40.6,91.36,40.72Z"/><path class="cls-7" d="M41.9,47.35c-3.81-.6-3.93-3-3.92-6.46a9,9,0,0,1,.36-3c.83-2.44,0-4.8-.44-7.18a9.44,9.44,0,0,1,.25-4.86c.76-2.4,2.76-3.32,5.65-2.62,4.37,1.05,8.06,3.43,11.67,6,1,.66,1.81,1.46,2.71,2.19A1.55,1.55,0,0,1,58.51,33a11.78,11.78,0,0,0,0,5.69,2.57,2.57,0,0,1-1.22,2.86A38.85,38.85,0,0,1,45.79,47.1,9.16,9.16,0,0,1,41.9,47.35Z"/><path class="cls-8" d="M69,31.07c4.18-3.4,8.61-6.33,13.89-7.77,3.42-.94,5.6.28,6.17,3.7A10.36,10.36,0,0,1,89,30.64a4.8,4.8,0,0,1-.18.77c-1,2.87-.61,5.67.18,8.53a7.39,7.39,0,0,1-.55,5.13c-.82,1.75-2.36,2.14-4.13,2a3.54,3.54,0,0,1-2.92.13,44,44,0,0,1-11.71-5.62A2.34,2.34,0,0,1,68.54,39a15.77,15.77,0,0,0-.08-6.16C68.33,32.19,68.25,31.48,69,31.07Z"/><path class="cls-9" d="M60.73,42.25,48.33,62.94c-1.2-1.18-1.47-2.8-2-4.22a3.3,3.3,0,0,0-3.73-2.44,5.62,5.62,0,0,1-3.38-.46c1.33-2.42,3.72-4,4.93-6.53a2.29,2.29,0,0,1,1.69-1.74,48.39,48.39,0,0,0,11.79-5.79C59,40.88,59.78,41.06,60.73,42.25Z"/><path class="cls-9" d="M82.79,49.27a45.92,45.92,0,0,0,4.46,5.57c.72.8.64,1.14-.46,1.19-.42,0-.86.3-1.24.23-3.78-.69-5,1.88-6,4.69-.15.4-.25.82-.41,1.21s-.18.69-.57.64c-.19,0-.39-.32-.5-.54-3.48-6.8-7.77-13.13-11.64-19.71a1.52,1.52,0,0,1,2.16-1.34,5.21,5.21,0,0,1,1.08.66,46.62,46.62,0,0,0,10.9,5.48C81.55,47.7,82.77,47.83,82.79,49.27Z"/><path class="cls-10" d="M60.11,31.71c2.09-.84,4.24-.32,6.37-.31,1.2.25,1.54,1.19,1.74,2.21a14.09,14.09,0,0,1,0,5.22,2.33,2.33,0,0,1-3,2.17H62c-1.54.43-2.81-.14-3.17-1.67a14.06,14.06,0,0,1,0-6.29A1.7,1.7,0,0,1,60.11,31.71Z"/><path class="cls-11" d="M60.11,31.71c-1.6,2.43-1,5.09-.73,7.67C59.55,40.7,60.9,40.82,62,41c-.14.72-.82.88-1.28,1.25a2.61,2.61,0,0,0-3.33.17,37.78,37.78,0,0,1-11.19,5.46c-.89.25-1.35,1-2.07,1.41-.3-1.16-1.26-1.56-2.24-1.94A35.19,35.19,0,0,0,56.75,41.3c1-.64,1.59-1.19,1.16-2.54-.78-2.45,0-4.92.27-7.37A3.29,3.29,0,0,1,60.11,31.71Z"/><path class="cls-11" d="M65.22,41c2.25-.69,2.41-1,2.58-3.34.08-1.11,0-2.2,0-3.3a4.43,4.43,0,0,0-1.33-3c.78-.63,1.71-.2,2.56-.33a1.5,1.5,0,0,0-.24,1A15,15,0,0,1,69,39.48a1.21,1.21,0,0,0,.59,1.46,47.12,47.12,0,0,0,11.19,5.5,10.12,10.12,0,0,0,3.56.63,4.36,4.36,0,0,0-1.57,2.2A3.1,3.1,0,0,0,80.88,48a45.25,45.25,0,0,1-12.16-6.17c-1.1-.81-1.63.13-2.25.77C65.89,42.16,65.31,41.78,65.22,41Z"/></g></g></g></svg>