<svg xmlns="http://www.w3.org/2000/svg" viewBox="0 0 16.65 46.06"><g id="Capa_2" data-name="Capa 2"><g id="TIENDA"><path d="M11.7,8.05c.59,3.29,1.15,6.48,1.72,9.66,1.06,6,2.11,12,3.19,18A2.49,2.49,0,0,1,16,37.91c-2,2.38-3.9,4.78-5.87,7.16a2.18,2.18,0,0,1-3.61,0c-2-2.41-4-4.86-6-7.29a2.45,2.45,0,0,1-.51-2.11Q2.45,22.28,4.81,8.84c.12-.66.35-.82,1-.81C7.73,8.07,9.67,8.05,11.7,8.05Z" style="fill:#260b01"/><path d="M1.55,0H15.09c-.2.4-.35.73-.51,1.06-.78,1.51-1.58,3-2.34,4.54a1,1,0,0,1-1,.64c-1.92,0-3.83,0-5.75,0-.28,0-.72-.12-.83-.32C3.59,4,2.61,2.05,1.55,0Z" style="fill:#260b01"/></g></g></svg>