<svg xmlns="http://www.w3.org/2000/svg" viewBox="0 0 47.14 44.19"><g id="Capa_2" data-name="Capa 2"><g id="TIENDA"><path d="M23.58,44.19H5.81C2.21,44.18,0,42,0,38.42V5.75A5.36,5.36,0,0,1,5.75,0H41.37a5.35,5.35,0,0,1,5.76,5.73q0,16.38,0,32.76a5.34,5.34,0,0,1-5.7,5.7Zm.36-5c5.36,0,10.73,0,16.1,0,1.48,0,2-.82,1.23-2Q38.45,33.11,35.52,29a2,2,0,0,0-3.12-.26c-.62.55-1.18,1.17-1.76,1.76-1.68,1.68-2.86,1.61-4.3-.28l-8-10.52c-.17-.22-.33-.44-.52-.65a1.42,1.42,0,0,0-2.54.28c-.12.19-.21.38-.31.57L6.56,36.51a5.65,5.65,0,0,0-.37.84A1.32,1.32,0,0,0,7.37,39.2a8.09,8.09,0,0,0,1.1,0Zm1.41-26.11a5.13,5.13,0,1,0,5.09-5.18A5.12,5.12,0,0,0,25.35,13.12Z" style="fill:#260b01"/></g></g></svg>