<svg xmlns="http://www.w3.org/2000/svg" viewBox="0 0 55.99 38.5"><g id="Capa_2" data-name="Capa 2"><g id="TIENDA"><path d="M12.93,19.4a48.06,48.06,0,0,1,10.35,1.21c1.23.23,2.47.45,3.71.6a17.21,17.21,0,0,0,5.2-.49,56.31,56.31,0,0,1,9.23-1.27,61,61,0,0,1,9.26.62c1.13.16,2.27.34,3.38.61a2.24,2.24,0,0,1,1.79,3.1,1.51,1.51,0,0,1-.64.9c-1.15.56-1.34,1.56-1.43,2.68a33.11,33.11,0,0,1-.42,4.23A7.69,7.69,0,0,1,48,37.44a21.88,21.88,0,0,1-8.84,1,11.44,11.44,0,0,1-4.48-1.09,7.82,7.82,0,0,1-4.39-6.25c-.2-1.27-.28-2.57-.46-3.84a5.28,5.28,0,0,0-.46-1.39A1.44,1.44,0,0,0,28,25a1.33,1.33,0,0,0-1.38.87,14.94,14.94,0,0,0-.7,3A14.34,14.34,0,0,1,25,33.54,7.62,7.62,0,0,1,20,37.84a19,19,0,0,1-7,.58,16,16,0,0,1-5.92-1.36,7.83,7.83,0,0,1-4.63-6.37c-.16-1.12-.17-2.25-.23-3.38A2.8,2.8,0,0,0,.79,24.68c-1.08-.59-1-2.74,0-3.46a3.8,3.8,0,0,1,1.54-.64c2.12-.34,4.24-.64,6.38-.88C10.13,19.54,11.53,19.5,12.93,19.4ZM42,22.06c-1.1.07-2.7.14-4.3.27a10.73,10.73,0,0,0-1.66.3,3.65,3.65,0,0,0-3.16,3.54,17.24,17.24,0,0,0,0,3.59,6.34,6.34,0,0,0,5.35,5.83,16,16,0,0,0,8.41-.52,5.77,5.77,0,0,0,4.18-5,36.12,36.12,0,0,0,.18-4,3.07,3.07,0,0,0-2.62-3.44A26.2,26.2,0,0,0,42,22.06Zm-28.55-.13v.25a30.81,30.81,0,0,0-3.33,0A17.86,17.86,0,0,0,6.69,23,2.3,2.3,0,0,0,5,25.14,38.14,38.14,0,0,0,5.12,30,5.65,5.65,0,0,0,9.05,35a15.55,15.55,0,0,0,9,.52,6.18,6.18,0,0,0,4.87-5,12.33,12.33,0,0,0,.17-4.24C22.87,24.16,22,23,19.87,22.65S15.61,22.16,13.48,21.93Z" style="fill:#260b01"/><path d="M1.3,19.24c.09-.14.18-.3.28-.45Q7,10.66,12.34,2.54A12,12,0,0,1,13.4,1.16,3.26,3.26,0,0,1,17.12.22a5.23,5.23,0,0,1,2.3,1.51,23.19,23.19,0,0,1,3.76,5.46,3.61,3.61,0,0,1,.33,1.63,1.7,1.7,0,0,1-1.36,1.64,1.75,1.75,0,0,1-1.91-1c-.47-.89-.84-1.81-1.31-2.7A11.55,11.55,0,0,0,17.82,5c-1.15-1.49-2.5-1.48-3.62,0-2,2.7-3.89,5.41-5.83,8.12-1.19,1.67-2.4,3.34-3.58,5a1.16,1.16,0,0,1-.83.53C3.09,18.85,2.22,19.06,1.3,19.24Z" style="fill:#260b01"/><path d="M54.69,19.23c-.95-.18-1.9-.34-2.82-.57a1.28,1.28,0,0,1-.65-.5Q46.65,11.8,42.08,5.42a6.63,6.63,0,0,0-.76-.92,1.69,1.69,0,0,0-2.57-.06,11.9,11.9,0,0,0-1.59,2.19,21.77,21.77,0,0,0-1,2.07c-.12.24-.23.5-.36.73a1.78,1.78,0,0,1-2,1,1.82,1.82,0,0,1-1.32-1.95,3.29,3.29,0,0,1,.28-1.16A21.42,21.42,0,0,1,37.16,1.2,4.09,4.09,0,0,1,41,.12,3.66,3.66,0,0,1,43.1,1.75c.74,1,1.44,2.11,2.14,3.17q4.59,6.91,9.16,13.84Z" style="fill:#260b01"/><path d="M42,22.06a26.2,26.2,0,0,1,6.41.56,3.07,3.07,0,0,1,2.62,3.44,36.12,36.12,0,0,1-.18,4,5.77,5.77,0,0,1-4.18,5,16,16,0,0,1-8.41.52,6.34,6.34,0,0,1-5.35-5.83,17.24,17.24,0,0,1,0-3.59,3.65,3.65,0,0,1,3.16-3.54,10.73,10.73,0,0,1,1.66-.3C39.33,22.2,40.93,22.13,42,22.06Z" style="fill:#260b01"/><path d="M13.48,21.93c2.13.23,4.28.35,6.39.72s3,1.51,3.25,3.62A12.33,12.33,0,0,1,23,30.51a6.18,6.18,0,0,1-4.87,5,15.55,15.55,0,0,1-9-.52A5.65,5.65,0,0,1,5.12,30,38.14,38.14,0,0,1,5,25.14,2.3,2.3,0,0,1,6.69,23a17.86,17.86,0,0,1,3.45-.75,30.81,30.81,0,0,1,3.33,0Z" style="fill:#260b01"/></g></g></svg>