<svg xmlns="http://www.w3.org/2000/svg" viewBox="0 0 42.55 33.64"><g id="Capa_2" data-name="Capa 2"><g id="TIENDA"><path d="M6.22,21.46c.25-2.51.41-4.91.76-7.28A13.8,13.8,0,0,1,15.4,3.25a48.62,48.62,0,0,1,5.79-1.8A5.7,5.7,0,0,0,22.87.68a2.65,2.65,0,0,1,3.94.44,1.61,1.61,0,0,0,.85.43C35.6,3.27,40.46,8.14,42.1,16a41.76,41.76,0,0,1,.45,7.52c0,1.11-.84,1.72-2,1.62a26.91,26.91,0,0,1-7.16-1.56,55.85,55.85,0,0,0-17.34-3.48A25.87,25.87,0,0,0,6.22,21.46Z" style="fill:#260b01"/><path d="M1.06,27.81A10.91,10.91,0,0,1,9.19,22.1a42.08,42.08,0,0,1,13.67.25,57.15,57.15,0,0,1,11.5,3c.29.11.57.25,1,.42-2.19,2.49-4.15,5.09-7,6.69a9.13,9.13,0,0,1-7.8.51c-1.9-.7-3.69-1.68-5.53-2.53-2.07-1-4.1-2-6.22-2.85a10.32,10.32,0,0,0-6.83,0C1.63,27.68,1.36,27.74,1.06,27.81Z" style="fill:#260b01"/><path d="M6.94,28.58C5.74,30,4.69,31.34,3.1,32.06A2.23,2.23,0,0,1,0,30.41c0-.22.07-.64.22-.71A11.41,11.41,0,0,1,6.94,28.58Z" style="fill:#260b01"/></g></g></svg>