<svg xmlns="http://www.w3.org/2000/svg" viewBox="0 0 42.55 42.57"><g id="Capa_2" data-name="Capa 2"><g id="TIENDA"><path d="M2.28,20.66C.43,19.7-.3,18.44.11,16.9a2.84,2.84,0,0,1,1.72-2c.44-.19.61-.46.49-.87a1.5,1.5,0,0,0-.49-.86,3.08,3.08,0,0,1,0-5.62,1,1,0,0,0,.43-.78,1.2,1.2,0,0,0-.45-.87A3.18,3.18,0,0,1,0,2.63,3.12,3.12,0,0,1,2.62.05,3.17,3.17,0,0,1,5.87,1.86a1.22,1.22,0,0,0,.87.45,1,1,0,0,0,.78-.43A3.06,3.06,0,0,1,10.32,0a3,3,0,0,1,2.86,1.88,1,1,0,0,0,.73.4A1.07,1.07,0,0,0,14.75,2a3.1,3.1,0,0,1,5.86.3,1.34,1.34,0,0,0,1.76-.79,3,3,0,0,1,5.13,0c.16.25.27.53.43.83H29.2L29,2.11A10.57,10.57,0,0,1,31,.32a3,3,0,0,1,4,1.51,1.38,1.38,0,0,0,.84.5c.4.11.67,0,.88-.49A3,3,0,0,1,40,.06,3.1,3.1,0,0,1,42.5,2.58a3,3,0,0,1-1.77,3.25c-.83.37-.39,1-.5,1.46a10.17,10.17,0,0,1,1.22.76,3,3,0,0,1-.61,5,1,1,0,0,0-.64,1c0,.53.24.68.64.88a2.91,2.91,0,0,1,1.69,2.61,2.66,2.66,0,0,1-1.45,2.65,1.31,1.31,0,0,0-.81,1.73q2.79,1.45,2.17,3.75a2.89,2.89,0,0,1-1.71,2c-.44.18-.62.45-.5.86s.24.73.49.86a3.09,3.09,0,0,1,0,5.63,1,1,0,0,0-.44.77,1.22,1.22,0,0,0,.45.88,3.18,3.18,0,0,1,1.81,3.25,3.1,3.1,0,0,1-2.57,2.58,3.17,3.17,0,0,1-3.26-1.79,1.55,1.55,0,0,0-.87-.49c-.42-.12-.66.09-.85.51a2.86,2.86,0,0,1-2.73,1.79,3,3,0,0,1-2.82-1.8,1.15,1.15,0,0,0-.77-.48,1,1,0,0,0-.84.33,3.1,3.1,0,0,1-5.86-.3,1.34,1.34,0,0,0-1.76.79,3,3,0,0,1-5.13,0c-.15-.25-.27-.52-.42-.82H13.37c-.93,1.8-2.13,2.55-3.61,2.22a3.24,3.24,0,0,1-2.22-1.75,1.37,1.37,0,0,0-.84-.49c-.4-.11-.67,0-.88.49a3,3,0,0,1-3.24,1.78A3.13,3.13,0,0,1,.05,40a3,3,0,0,1,1.77-3.24c.44-.21.61-.47.5-.87A1.47,1.47,0,0,0,1.83,35,3,3,0,0,1,0,32.2,2.82,2.82,0,0,1,1.8,29.47c.5-.21.52-.51.55-.95a.76.76,0,0,0-.56-.84A2.88,2.88,0,0,1,0,25a2.61,2.61,0,0,1,1.45-2.64A1.3,1.3,0,0,0,2.28,20.66Zm33.45.63V8.1c0-1.09-.17-1.26-1.21-1.26H8c-1,0-1.21.17-1.21,1.25q0,13.2,0,26.39c0,1.11.15,1.26,1.29,1.26h26.3c1.16,0,1.31-.15,1.31-1.34Z" style="fill:#260b01"/></g></g></svg>