<svg xmlns="http://www.w3.org/2000/svg" viewBox="0 0 46.91 41"><g id="Capa_2" data-name="Capa 2"><g id="TIENDA"><path d="M21.75,16.64a11.21,11.21,0,0,1,9.37,5C33,24.34,34.77,27.16,36.51,30a7.14,7.14,0,0,1-.59,8.37,7,7,0,0,1-8.1,2.13,15.28,15.28,0,0,0-12.17,0A7.19,7.19,0,0,1,6.9,30.13c1.8-2.94,3.62-5.87,5.59-8.69A11.17,11.17,0,0,1,21.75,16.64Z" style="fill:#260b01"/><path d="M25.15,7.83a8.18,8.18,0,0,1-1.54,5A6.36,6.36,0,0,1,13,12.86,8.67,8.67,0,0,1,13,2.77a6.36,6.36,0,0,1,10.61.17A8.13,8.13,0,0,1,25.15,7.83Z" style="fill:#260b01"/><path d="M38.83,10.34c-.18,3.11-1.44,5.58-4.34,7a5.68,5.68,0,0,1-7.64-2.59A7.84,7.84,0,0,1,30.44,4.23a6,6,0,0,1,8.39,5.28C38.85,9.79,38.83,10.06,38.83,10.34Z" style="fill:#260b01"/><path d="M0,15.55c0-3.1,1.47-5.34,3.65-6.16a5.92,5.92,0,0,1,6.46,1.83,7.14,7.14,0,0,1,1.74,6.55,5.31,5.31,0,0,1-3.94,4.28,5.72,5.72,0,0,1-5.76-1.74A7,7,0,0,1,0,15.55Z" style="fill:#260b01"/><path d="M41.31,15.67a5.39,5.39,0,0,1,5.55,4.89,7.34,7.34,0,0,1-5.73,7.82,5.42,5.42,0,0,1-6.62-5.27A7.26,7.26,0,0,1,41.31,15.67Z" style="fill:#260b01"/></g></g></svg>