<svg xmlns="http://www.w3.org/2000/svg" xmlns:xlink="http://www.w3.org/1999/xlink" viewBox="0 0 800 450"><defs><clipPath id="clip-path"><path d="M368.71,234.82a24.33,24.33,0,0,1,3.64,1.73,22.91,22.91,0,0,1,9.17,9.45c2,4.17,1,6.26,2,7,2.5,1.92,14.84-7.31,54.19-50.33a41.89,41.89,0,0,0-9.29-19.23,41.28,41.28,0,0,0-12.52-9.8l-19-9.42-31.74,24.51Q366.93,211.78,368.71,234.82Z" style="fill:none"/></clipPath></defs><g id="Capa_2" data-name="Capa 2"><g id="DiseñosMascotas"><rect width="800" height="450" style="fill:#75c4c3"/><path d="M335.68,296c-4.44-10.35-7.86-20.89-6.46-32.42,1.56-12.84,8-22.29,19.43-28.26,8.23-4.32,16.26-3,24,1.55,6,2,8.44,6.83,10.14,12.33a24,24,0,0,1-1.38,16.64,5.44,5.44,0,0,0,.89,6c10.47,12.37,23.12,21.11,39.6,22.74,12.66,1.25,23.35-3.34,31.79-12.93a27.32,27.32,0,0,1,2.69-3.09c1.38-1.15,2.93-2.36,4.76-1.31s1.79,3.18.75,4.66c-2.18,3.08.37,5.62.58,8.41,0,6.92-2,13.49-3.48,20.16-2.92,13.36-6.65,26.54-8.63,40.11a13.66,13.66,0,0,1-3,7.5c-6.16,2.16-12.21-.42-18.31-.58a56.34,56.34,0,0,1-9.73-1.57c-4.77-1.87-9.82-1.2-14.75-1.62a7.52,7.52,0,0,1-1.89-.23c-3.75-1.58-7.74-1.32-11.65-1.31a20.56,20.56,0,0,1-12.11-4,100.74,100.74,0,0,1-26.12-26.12c-2-2.95-5.15-4.89-6.75-8.13-1.24-3.3.19-6.11,1.63-8.93,3.09-6.07,6.6-11.93,9.79-18.56-7-.94-13.29-2-16.79,5.81C339.87,294.61,338.45,296.71,335.68,296Z" style="fill:#270b00"/><path d="M671.79,398.88c0,6.84,0,6.82-6.76,5.4-10.7-2.26-21.41-4.48-32.11-6.73-1.76-2.23-1.8-4.35.39-6.33a6.59,6.59,0,0,1,6.25.42c6.52,3.46,13.91,4.25,20.71,6.88,4.7,1.82,6.22.59,5.7-4.52-.88-8.83-3.92-17.22-5.79-25.85-2.3-10.56-4-21.25-7-31.68-2.27-7.93-4.69-15.83-6.75-23.81-2.54-9.87-5.18-19.77-6.73-29.85-1.38-9-3.73-17.67-6-26.41-2.77-10.5-2.79-21.43-4.2-32.14-2-15.39-3.08-30.9-4.05-46.38-1-16.57-5.9-32.3-9.1-48.4-.71-3.57-3.37-6.19-4.88-9.4-4.28-9-7.11-18.72-11.78-27.61-1.57-3-.95-6-.16-9.19,2-8-6.74-16.6-14.61-14.32a12.54,12.54,0,0,1-11.17-2c-2.94-2-6.29-3.38-9.13-5.39C549.33,50.75,531.41,50.31,514,48.11A84.6,84.6,0,0,1,493.4,43c-6.9-2.71-14.49-3.37-21.23-6.74-1.8-.9-3.31-.36-3.5,2.29-.45,6.29-5,8.74-10.35,9.43-4.16.54-6.38,2.15-7.26,6.26-.76,3.62-3.16,6.24-6.37,8.14-14.87,8.81-26.74,20.3-34,36.36-3.32,7.3-8.36,13.72-13.5,20.55a16.29,16.29,0,0,0,8.45,1.63c15.86-1.93,30.69,3.89,46,5.81,2.25.28,4.3,1.16,5,3.54.63,2.16-1.14,2.59-2.68,3.05-7.93-.47-15.63-2.22-23.29-4.15-3.57-1.66-7.39-1.34-11.16-1.41-10.14.13-20.4-1.62-30.36,2.13,5,.48,10.1.59,14.86,2.49,3.38,1.35,6.66,2.94,7.28,7s-2.09,6.48-5.06,8.65c-6.49,4.75-6.69,7.77-6.18,9,.72,1.72,4.83.73,11.32,1,8,.35,14.49,2.42,20.45,4.32,7.33,2.35,12.57,5,16.77,3.41a17.87,17.87,0,0,0,4.86-3.34c2.23-2,2.94-3.8-.63-5.09a9.72,9.72,0,0,1-3.64-1.91c-2.19-2.12-2.41-4.46.67-5.51A19.49,19.49,0,0,1,467.38,152c4.89,3.19,8,7.52,7.68,13.72-.13,2.19-.36,4.52-2.66,5.54s-3.61-.92-4.73-2.48c-.9-1.25-2.05-2-2.6-1.83-1.22.44,1,6.08,0,9.17-1.31,4.25-9.74,7.52-36,6.32-1.8-.12-3.6,0-5.39-.25a10.3,10.3,0,0,1-2.59-.41c-2.05-1-4.32-.91-6.48-1.34a9.45,9.45,0,0,1-1.58-.43,86.66,86.66,0,0,1-9.06-3.4c-3.08-1-5.51-3.47-8.6-4.39-1.18,1.65.15,2.83.09,4.12l29.62,17.19a3.06,3.06,0,0,0-.16,2.8,3,3,0,0,0,1.77,1.5,172.33,172.33,0,0,1-22.93-9c-4.66-2.22-9-4.53-12.89-6.83-5.06-3.8-15.83-13-19.14-27.78a39.85,39.85,0,0,1-.57-13.68c1.21-9.69,7.54-16.65,15.52-21.21,7.73-4.41,12.11-10.83,15.62-18.45C407.8,89.06,414.13,77.68,424.1,69c6.46-5.63,13.91-10,21.72-14.18-1.31-1.22-2.25-2.13-3.24-3-1.91-1.7-4.33-3.32-3.37-6.31s3.91-3.93,6.65-4c3.71-.05,7.39-1.1,11.14,0,4,1.16,6.12.08,4.59-4.64-1.39-4.29-.43-6.41,4.85-6.63,7-.29,13.33,1.63,19.47,4.13,12.76,5.18,26.22,6.61,39.65,8.25,18.89,2.3,36.48,8,51.72,19.72a6.89,6.89,0,0,0,6.33,1.53c15.64-3.14,24.94,5.94,21.19,21.29-1.26,5.19.35,8.43,2.75,12.32,11.31,18.35,16.67,38.89,20.87,59.71,3.8,18.91,4.31,38.21,5.84,57.4,2.48,31,8.66,61.35,16.72,91.37s16.76,60.17,20,91.37A4.83,4.83,0,0,0,671.79,398.88Z" style="fill:#280d01"/><path d="M454,131.91c1.53-2.36,1.09-3.37-2-3.47A64.29,64.29,0,0,1,441.62,127c-11.77-2.34-23.39-5.83-35.74-4-3.72.54-7.75-.77-11.6-1.49-2.72-.5-2-2-.38-3.09,7.63-5.2,11.35-13.44,15.25-21.11,6.08-12,13.69-22.2,24.83-29.85,3.52-2.41,6.46-5.48,10.64-7.14a8.41,8.41,0,0,0,5-8c0-5.05,3.14-6.61,7.31-6,4.48.65,6.74-2.41,9.56-4.64,1-.81.8-1.89.42-3.18-1.5-5.13-.8-5.62,4.31-4.63,4.38.84,7.76,3.85,12,4.85,14.8,3.5,29.38,7.67,44.65,9.37,12.62,1.41,25.69,2.4,36.51,11.24,3.22,2.64,7.69,4.34,11.38,6.88,3.12,2.15,6.43,2.59,9.91.39,3.68-2.32,6.78-1.31,9,2.34A14.44,14.44,0,0,0,598.82,73c2.72,2,5,5.42,3.45,8.11-4.63,7.78,0,13.89,3.35,19.57s3.63,12.49,7.38,18.15c8.1,12.2,7.81,27,11.62,40.56,3.56,12.62,2.68,25.25,3.89,37.86,1.15,12.06,2.72,24.08,3.78,36.15,1.28,14.46,5.85,28.26,8.21,42.39,1.77,10.58,5.8,20.7,6.13,31.62.16,5.31,3.47,10.25,4.93,15.57,5.2,18.84,9.09,37.93,12.93,57.07.93,4.62,3,9.19,3.71,14,1,6.88-1.8,9-8.25,6.67-8.62-3.15-17.33-6.05-26-9.05-2.83-5.69-1.93-11.9-2.3-17.87a182.26,182.26,0,0,0-3.31-25.49c2.26,12.14,4.06,27.69.71,43.38-.47,2.2-.13,5.66-4.3,4.61q-39.91-7.78-79.81-15.58c-1.91-.37-4.05-.63-4-3.39-1.18-2.9.2-5.47,1.34-7.9,18.17-38.64,17.69-78.92,10.33-119.71-3.47-19.25-9-37.87-19.18-54.88-13.77-22.94-32.35-40.4-56.73-51.58-5.73-2.63-11.43-5.29-17.4-7.36C457.22,135.15,454.49,135,454,131.91Z" style="fill:#280d01"/><path d="M455.34,132.41c1.21.46,6.38,2.48,12.41,4.94,0,0,2.63,1.07,4.83,2,41.23,17.37,66.07,48.77,77.68,91.3a243.84,243.84,0,0,1,6.31,100.52c-2.38,16.29-9.18,31.17-15.62,46.15-1.58,2.36-3.45,2.62-6.35,2.14-5.91-1-11.61-4.21-17.89-2.17-2.28,2-4.49.53-6.56-.32-11.64-4.77-23.76-8-35.92-11-3.62-.91-7.26-2-11-1.93a18,18,0,0,1-12.83-4.91c-1.12-1-2.36-1.14-3.51-1.74q7.05-34,14.09-68a160.63,160.63,0,0,1,1.78-22.68A115.24,115.24,0,0,0,459.91,221c-2.58-9.58-9.68-15.52-18.87-18.9-3.88-1.43-8-2.15-12-3.31a27.07,27.07,0,0,1-4.53-2c-11.83-5.61-17.73-8.44-21.66-11.25a54.89,54.89,0,0,1-14-14.9l5.91-2.23c7.2.16,13.26.72,17.8,1.26,15.42,1.85,23.13,2.78,32,6.81,5.67,2.58,10.15,5.63,11.68,4.13,1.21-1.19-.05-4.64-1.42-6.84-1.65-2.64-5-6-19.36-8.9-14.66-3-22-4.5-27.22-3.81-1.57.21-5.52.84-7.94-1.42a5.8,5.8,0,0,1-1.74-5.45c.42-1.51,2-2.58,5-4.65,2.84-1.91,3.15-1.65,4.17-2.71,1.67-1.73,3.09-4.75,2.44-7.4-.8-3.24-4.37-4.87-7.64-6-6.09-2.12-12.52-1-19.34-1.88,5.41-6.17,12.47-5.18,18.86-5.69,5.46-.43,11,.13,16.5.25q3.12.19,6.47.55,2.94.31,5.67.71C444.62,128.85,451.85,131.08,455.34,132.41Z" style="fill:#edeee8"/><path d="M624.75,396.28c4.45-4,3.14-9.72,3.62-14.61,1.3-13.32-.56-26.56-2.68-39.72a6.27,6.27,0,0,1,.54-4.93c7.13,18.16,8.16,36.28,7.72,54.63-1.57,1.75-.8,3.92-1,5.91C630.15,397.4,627.26,398.05,624.75,396.28Z" style="fill:#593c32"/><path d="M355.46,266.48c5.73-.65,10,2.41,14.2,5.6,1.43,1.09,2.59,2.54.88,4.44s-3.22,1.58-4.84-.27C362.62,272.76,359.66,269.11,355.46,266.48Z" style="fill:#5b3c31"/><path d="M378.25,262.66c-2.85-5.82-9-7.09-15-11.23,6.79-.77,11.27,1,15.09,4.31C380.55,257.66,380.31,258.66,378.25,262.66Z" style="fill:#4f3b31"/><path d="M378.31,149.67c-2.89-2.49-3.73-11.59-1.24-13.95,1-1,2.46-1.67,3.76-.78,4.16,2.84,8.25,1.53,12.39.11a4.18,4.18,0,0,1,1.73-.29c2.58.32,5.74-1.1,7.4,2.12,1.75,3.37-.61,5.51-2.59,7.7q-5.68,6.27-11.41,12.52A11.27,11.27,0,0,1,378.31,149.67Z" style="fill:#280d01"/><path d="M378.31,149.67l10,7.43c.07,1,.19,2,.19,2.93,0,1.81-.16,3.85-2.09,4.48-2.26.74-3-1.52-3.7-3C380.94,157.72,378.28,154.18,378.31,149.67Z" style="fill:#ece6e4"/><path d="M430.74,127.35l-12.14-1.26" style="fill:#280d01"/><path d="M470.12,112.05c0-.15,0-.26,0-.36.18-4.94,2.9-10.85,6.45-11.12,2.89-.22,5.24,3.37,5.61,4a11.75,11.75,0,0,1,1.44,8.27c-.67,5-4,11.66-7.36,11.32C472.64,123.75,469.92,118.41,470.12,112.05Z" style="fill:#ebe8e2"/><path d="M800,431.6V450H0V344.07c148.49-15.83,211.16-22.59,223.74-24l8-.93c11.31-1.35,22.61-2.84,33.92-4.17,13.52-1.59,27.16-2.48,40.55-4.8a70,70,0,0,1,34.49,2.73c22.57,7.34,45.81,12.62,68.11,20.75,7.8,2.84,30.15,9.05,74.85,21.46C533.54,368.92,647.61,397.73,800,431.6Z" style="fill:#589ea0"/><path d="M231.48,387.29c-3.21-2.84-6.37-5.73-8.38-9.63-3.67-7.09-2.69-14.71,2.61-19.94,3.55,2.54,5.38,6.41,7.73,9.87a21,21,0,0,0,3.26,8.25c3.72,5.77,8.73,9.19,16.07,8.12,5.51-.81,10.63-2.75,15.76-4.77,2.68-.84,5.25-2,7.88-3a19.06,19.06,0,0,1,3.07-1,55.7,55.7,0,0,1,10.5-3.62,82.89,82.89,0,0,0,10.86-4.15c2.19-1,6.12-.81,6.2-3.29.09-2.81-3.82-2.5-6.05-3.26-6.55-2.26-13.31-3.87-19.85-6.21-4.2-1.72-8.29-3.59-10.57-7.89,1.17-2.21,3.08-1.48,4.71-1q22.82,7,45.77,13.48c3.53,1,6.24,3.35,8.82,5.9,9.1,9,17.95,18.23,27.52,26.76,4.83,4.31,10.05,6.29,16.34,5,14.77-2.92,28.91-7.35,40-18.29,6.74-6.66,6.76-14.88.27-21.76-6.08-6.45-13.76-10.49-22-13.25-16.71-5.61-33.79-9.54-51.58-9.46a53.43,53.43,0,0,1-9.73-1.31c-2.18-1.46-4.74-2.58-5.3-5.59,21.12.36,42,2.26,62.44,8.1,12.37,3.54,24.24,8.13,34.29,16.39,8,6.6,13.2,15.8,7,27.49,0,2.52-1.75,4-3.28,5.56a53.53,53.53,0,0,1-12.34,9.33c-16.53,9.16-34.52,13.46-53,16a251.34,251.34,0,0,1-77.67-1.58c-15-2.64-29.54-6.86-42.93-14.38C236.78,392.23,233,391.14,231.48,387.29Z" style="fill:#d2d8da"/><path d="M231.48,387.29l8,5.46c15,11.12,31.9,17.66,50.21,20.93A199.81,199.81,0,0,0,332.79,417c20.46-.81,40.67-3.29,59.69-11.57a106.66,106.66,0,0,0,21.43-12.73c5.5-4,11.2-7.78,15.21-13.46,5.52,8.47,2.38,19.44-6,25.92-10.63,8.19-22.72,12.72-35.46,16-23.08,5.92-46.64,7.5-70.28,6.18-20.46-1.14-40.68-4.46-59.9-12.19-8.67-3.48-16.61-8.12-22.67-15.34C231.83,396.32,229.66,392.24,231.48,387.29Z" style="fill:#417f7e"/><path d="M325.39,327.29c2.62.61,3.51,3.26,5.49,4.62,9,8.18,8.25,14.81-2.85,19.55-9.38,4-19.34,4-29.22,1.68-4.58-1.09-9.24-1.92-13.58-4-4.78-2.26-5.89-4.77-3.72-9.53.67-1.49,1.51-2.9,2.29-4.33,1.16-2.6,3.61-3.79,5.78-5.29,4.89-5.32,11.41-6.45,18.13-7,5.79-.5,11,2.19,16.61,3C324.73,326,325,326.83,325.39,327.29Z" style="fill:#eae6dc"/><path d="M271,346.65c3.3,2.57,6.4,5.45,10.5,6.78,4.94,3.06,10.59,4.52,15.79,7,4.53,2.12,5.44,4,4.25,8.2-3.68,1.41-7.17,3.33-11.1,4-19.67,1.13-34.05-8.41-45.87-22.92-3.08-3.79-4-8.61-4.52-13.35-.21-1.84-.18-3.95,2-5,4.73-3,8.37-.08,12,2.34,1.7,1.13,3,2.83,5.1,3.37s3.51,2,5.18,3.11C266.56,342.37,269.6,343.68,271,346.65Z" style="fill:#eb9912"/><path d="M242.09,331.38c-2.23,7.49,2.44,18,9.49,24.46,11.13,10.16,24.13,15.36,38.89,16.81l-10.7,3.53c-6.49-2-12.35-5.84-19.49-6.11-4.24-.16-8-2.81-12.24-3.61a1.7,1.7,0,0,1-1.34-2c.41-1.3,1.66-.9,2.67-.82a13.37,13.37,0,0,0,1.55,0c-.44,0-.89,0-1.33,0-.63,0-1.42-.3-1.34-.89.73-5.22-3.92-7.65-5.84-11.47-1.09-1.83-2.44-3.58-2-5.92a63.15,63.15,0,0,1-1.62-7.82C238.59,334.93,238.35,332,242.09,331.38Z" style="fill:#a15708"/><path d="M232.62,367.52c-2.71-3-5.37-6-6.9-9.8-2.51-7.63-.41-9.74,8.32-8.33a1,1,0,0,1,.21,1.22,1.65,1.65,0,0,1-.62.61c-5.33,2.32-5.53,2.9-2.41,8.07,2.46,4.07,6.31,6.66,10.27,8.95A57.82,57.82,0,0,0,273,375.85c1.46-.05,3.34-.92,4.05,1.38l-8,3.08c-12.77,3-23.27-2.55-33.51-9A6.57,6.57,0,0,1,232.62,367.52Z" style="fill:#91521b"/><path d="M263.87,341c-1.83-1-3.88-1.68-4.68-3.88A218.5,218.5,0,0,1,289.58,330l-4.65,5.64C278.21,338.6,271.4,341.22,263.87,341Z" style="fill:#cdd9d8"/><path d="M240.42,345.3q1.61,2.71,3.2,5.43c-2.82,2.44-5.19,2.25-9.41-.79a.74.74,0,0,0-.17-.55A17.94,17.94,0,0,1,240.42,345.3Z" style="fill:#ded4c0"/><path d="M263.87,341c6.91-2.21,13.81-4.47,21.07-5.31-4.6,10.42-2.5,14.22,9.41,15.6,3.41.4,6.55,1.69,10.15,1.67,8.08-.05,16.08.47,23.72-3,8-3.67,8.84-5.73,4.92-13.23-.81-1.55-1.51-3.16-2.26-4.75,21.28.72,42.31,3.14,62.39,10.68,9.51,3.57,18.62,8,24.61,16.84,3.61,5.32,2.86,13.68-1.36,18.61-6.51,7.62-15.22,11.77-24.21,15.36a81.87,81.87,0,0,1-19.74,5.3,17.94,17.94,0,0,1-14.84-4.52c-10.23-9.1-19.83-18.85-29.42-28.6a20.23,20.23,0,0,0-9-5.45q-22.44-6.51-44.85-13.12c-1.12-.33-2.2-1-3.42-.36A21.62,21.62,0,0,1,263.87,341Z" style="fill:#a4a6a9"/><path d="M348.37,402.33a201.15,201.15,0,0,1-69.3-3.72c-4.91-1.1-9.85-2.14-14.51-4.13-3-2.42-1.59-4.39.82-5.91a10.81,10.81,0,0,1,5.91-1.63c1.93.75,1.92,3.21,3.65,4.17,1,.58,2.3,1.26,3.2.29,1.19-1.31-.3-2-1.15-2.67s-2.24-1-1.73-2.6c3.31-2.19,6.52-4.64,10.81-4.44,1.64,1.76,2.07,5.65,6.11,3.49-.65-1.63-4.4-2-1.89-4.73a7.7,7.7,0,0,1,6.21-1.76c2.35,1.06,3.74,4.54,7.25,2.88.46-2.36-3.48-2-2.64-4.5,6.48-4.14,13.09-7.75,21.2-5.08a11.36,11.36,0,0,1,5.38,3.06c5.88,6.95,13.08,12.56,19.25,19.2C349,396.5,351.37,399,348.37,402.33Z" style="fill:#a75629"/><path d="M413.91,392.73c-9,9.82-20.63,14.93-33,18.6-20.73,6.17-42.05,8.15-63.55,7-22.08-1.15-43.82-4.39-63.71-15-5.23-2.8-10.55-5.58-14.18-10.59A163.28,163.28,0,0,0,279,406.22a211.34,211.34,0,0,0,35.71,4.3c20.38.72,40.69-.08,60.69-4.48C388.71,403.11,401.71,399.07,413.91,392.73Z" style="fill:#a4aaae"/><path d="M234.21,349.94c3.21-.61,6.12,2.4,9.41.79q3,3.84,6,7.69a10.32,10.32,0,0,1,1.23,1.81c.64,1.35-3.22,1-1.16,2.72,1,.83,2.56-.06,3.86-.3,1-.18,1.7.34,1.63,1.79-2.53.13-5.12-1.1-7.93.11,1.69,2.09,4,1.19,5.86,1.75,8.4,2.58,17.06,4.28,25.31,7.46,1.55.6,1.82,1.08,1.38,2.42l-2.72,1.06a68.87,68.87,0,0,1-23.94-2.42A52.22,52.22,0,0,1,232,363c-2.5-2.35-3.72-5.72-4.76-9-.67-2.07.19-3.44,2.67-3.39C231.35,350.64,232.89,350.92,234.21,349.94Z" style="fill:#d07316"/><path d="M271.72,387.54a13.92,13.92,0,0,1-4.53,1.61c-3,.56-4.58,2.16-2.63,5.33-2.06-.48-4.24-1-4.35-3.63-.1-2.27,1.87-2.94,3.49-3.52q25.59-9.12,51.22-18.08c4.85-1.7,8.9-.31,12.48,3.39,7.46,7.7,15.15,15.17,22.65,22.82,3.34,3.41,2.8,5.32-1.68,6.87.76-2.9-.22-5.23-2.34-7.21q-7.44-6.94-14.85-13.92A18.94,18.94,0,0,1,329,379c-4.78-6.29-10.53-8.1-17.89-5.43-3.35,1.21-6.61,2.64-9.91,4a5.07,5.07,0,0,1-4.6,1.68l-6.23,2.06c-1.41.64-2.73,1.77-4.43.78l-10.58,4.66A3.15,3.15,0,0,1,271.72,387.54Z" style="fill:#b2a59e"/><path d="M232.62,367.52c10.71,8.31,22.67,13.05,36.39,12.79a65.85,65.85,0,0,1-18.67,5.36C242.42,386.63,232.28,376.46,232.62,367.52Z" style="fill:#a8a9ab"/><path d="M301.57,368.6c.25-4.29-2.45-6.05-6-7.53-4.93-2.07-10.22-3.58-14.08-7.64,8.07,2.42,16.15,4.79,24.19,7.3,1.77.55,4.16,1.08,4,3.47-.1,2.09-2.39,2.36-4,3C304.39,367.72,303,368.14,301.57,368.6Z" style="fill:#aca59d"/><path d="M280.13,362.16c-3.62-.55-6.71-2.43-10-3.45-5.07-1.58-8-6.48-13.22-7.57-.73-.16-2.08-1.3-1.4-1.78,2.82-1.95-.08-2.55-.72-3.5-.85-1.25-2-2.29-2.6-3.89a5.71,5.71,0,0,0,1.36.83c2.21.66,2.25,5.49,6.4,3.05.79-.46,4.27,2.12,5.35,4C268.79,355.82,274.42,358.91,280.13,362.16Z" style="fill:#c1740f"/><path d="M340.67,364c.47-3.75-.1-6.86-2.89-10-2.53-2.85-.81-5.92,2.49-7.61A43.19,43.19,0,0,1,367.12,342a91.71,91.71,0,0,1,17.32,4c3.55,1.3,6.34,3.27,7.21,7.21,1.69,7.39-2,12.8-9.64,12.93a86.05,86.05,0,0,0-23.17,3.24C352.34,371.31,345.5,370,340.67,364Z" style="fill:#f2f6f7"/><path d="M357.54,379.59c4.32-5.51,10.32-5.88,16.71-5.93,7.9-.07,14.75-3.39,20.24-9,3.45-3.51,7.24-5.32,11.94-4.12,3.06.79,2.91-1.4,3.4-3.53l5.31,4.55c-.7,1.69-3.2,1.34-3.37,3.37-2.46,8.07-7.77,13.58-15.37,17-9.3,4.13-18.71,7.78-29.23,6.78C361.08,388.14,357.16,384.56,357.54,379.59Z" style="fill:#b4461f"/><path d="M357.54,379.59c2.39,6.13,4.75,7.45,11.59,7.77,11,.53,20.53-3.73,29.94-8.4,5.21-2.59,8.54-7.17,10.9-12.45.33-.72,0-2.49,1.8-1.53,2.24,4.17,1.11,8.2-1.88,11.08-11.62,11.2-25.47,17.13-41.86,16.15a10.11,10.11,0,0,1-7.93-4.4c-1.21-1.72-2-3.67-4.8-2.55-1.52.59-.68-1.12-1.05-1.66-1.29-1.86.69-3.53.16-5.3C355.76,378,356.55,379,357.54,379.59Z" style="fill:#91321a"/><path d="M340.67,364c7.58,5.18,15.6,6,24,2.26,4.71-2.08,9.65-1.22,14.5-1.31,8.64-.15,12.13-3.37,12.48-11.76,3.49,6.09,2.24,10-4,12.83a17.51,17.51,0,0,1-8.66,1.6,42.91,42.91,0,0,0-17.85,2.71,19.85,19.85,0,0,1-16.74-1.75C342.57,367.61,340.73,366.51,340.67,364Z" style="fill:#dfdcd4"/><path d="M271.72,387.54a3,3,0,0,1,3.68-.87c2.14,1.12,5.62.88,5.11,4.74-.24,1.82-1.74,2.3-3.31,2.07C273.82,393,271.33,391.56,271.72,387.54Z" style="fill:#753111"/><path d="M296.64,379.17c1-1.91,2.78-1.92,4.6-1.68a5.81,5.81,0,0,0,1.46.83c1.82.34,3.92.93,3.42,3.07-.55,2.37-2.91,2.65-5.05,2.07S297,381.72,296.64,379.17Z" style="fill:#7e3313"/><path d="M317,387.31c-2.27,0-4.14-.33-4-2.78.19-3.07,2.72-2.6,4.72-2.6,1.68,0,4.3-.58,4.25,1.87C321.87,386.77,318.93,386.91,317,387.31Z" style="fill:#7b2f11"/><path d="M286,382a4.13,4.13,0,0,1,4.43-.78c-.63,2.2,1.13,1.48,2.08,1.64,1.29.22,2.31.76,2.29,2.18,0,1.66-1.29,2-2.71,2.25C287.39,388,286.17,387,286,382Z" style="fill:#813311"/><path d="M314.31,400.75c-2.51,0-4.93-.37-5.52-3.26-.36-1.75,1.29-2.39,2.62-2.05,2.36.62,5.9-.37,6.49,3.13C318.25,400.65,316,400.72,314.31,400.75Z" style="fill:#7f320e"/><path d="M338.85,399.83c-2.31,0-4.26-.8-4-2.53.38-2.87,3.37-2.93,5.55-3.3a2.37,2.37,0,0,1,2.7,2.76C342.72,399.33,340.33,399.41,338.85,399.83Z" style="fill:#792c0d"/><path d="M328.71,393.53c1.4.18,3.63,0,3,1.69a6.86,6.86,0,0,1-5.54,4.55c-1.27.14-2.61-.18-2.41-1.79C324.08,395.05,326,393.71,328.71,393.53Z" style="fill:#81320e"/><path d="M298.69,398.09c-1.86-.1-4.3.28-4.41-2.37-.14-3.18,2.62-1.93,4.25-2.08,1.82-.16,4.31-.54,4.25,2.29C302.72,398.39,300.39,398,298.69,398.09Z" style="fill:#7b2f0f"/><path d="M304.89,386.37c2,0,4.44,0,4.5,2.12.07,2.56-2.46,2.47-4.41,2.42-1.78-.05-4.18,0-4.28-2.21C300.57,385.83,303.3,386.61,304.89,386.37Z" style="fill:#792c0a"/><path d="M315.91,374.75c1.59.15,3.81-.2,3.64,2.06-.14,2-2.13,2.51-4,2.49-1.73,0-3.44-.3-3.46-2.42C312,374,314.41,375,315.91,374.75Z" style="fill:#7b3010"/><path d="M364.37,358.87a16.16,16.16,0,0,1-9.88-2.13c-3.32-2.11-3.67-4.83-1.18-7.87,5.3-6.46,16.15-6.9,21.87-.89,3.36,3.53,2.5,7.71-2,9.57A19.7,19.7,0,0,1,364.37,358.87Z" style="fill:#e5c262"/><path d="M363,356.93h-.45c-5.89,0-8.43-1.41-8.58-4.73s4-6.33,8.72-6.69a3.28,3.28,0,0,1,3.63,2.59c1,3,2.92,4,5.82,3.19,1.26-.34,2.46-.58,2.95.91.57,1.78-.66,2.8-2,3.46a9.83,9.83,0,0,1-3,.77c-2.34.29-4.7.48-7.05.7Z" style="fill:#f9bd2f"/><path d="M334.44,297.67c.36-.13,1-.18,1-.41,4-12,13.9-11.3,24.34-10.82-3.63,6.61-7.25,13-10.68,19.54-1.6,3-4.27,5.78-3.48,9.71.56,3.84-2.8,4.34-5,5.84-4.41,1.61-9,2.63-12.36-1.63s-1.44-8.47.88-12.54C331,304.17,332.7,300.9,334.44,297.67Z" style="fill:#afbbbf"/><path d="M394.19,206.76a1.5,1.5,0,0,0,0-3,1.5,1.5,0,0,0,0,3Z"/><g style="clip-path:url(#clip-path)"><path d="M345.72,279.77c1.87-2.91,3.77-5.79,5.6-8.72,9.13-14.62,18.21-29.26,27.37-43.85a8.73,8.73,0,0,0,1.05-7.19c-.62-2.37-1.7-4.62-2.32-7a50.7,50.7,0,0,1-1.69-8.39c-.47-5.28,1.78-9.74,4.79-13.9,4.82-6.69,9.59-13.41,14.4-20.11a9,9,0,0,1,1.53-1.73,3.28,3.28,0,0,1,4.05-.22c.93.73,1.14,2,.41,3.5-2.87,6.06-5.77,12.09-8.67,18.14-.84,1.76-1.7,3.53-2.53,5.3a11.53,11.53,0,0,0-.65,1.65A3.1,3.1,0,0,0,390.3,201a3.18,3.18,0,0,0,3.86-.76,16.62,16.62,0,0,0,1.84-2.54q6-9.77,12.07-19.54c.31-.51.62-1,1-1.49a2.89,2.89,0,0,1,3.84-1.05,3,3,0,0,1,1.73,3.5,14,14,0,0,1-1.16,3c-3.44,7-6.92,13.87-10.37,20.81a11.12,11.12,0,0,0-.89,2.28,2.69,2.69,0,0,0,1.11,3.13,2.73,2.73,0,0,0,3.32-.2,7.65,7.65,0,0,0,1.73-1.9q6.84-10.39,13.63-20.82a16.31,16.31,0,0,1,1.19-1.67,2.36,2.36,0,0,1,2.77-1,2.62,2.62,0,0,1,1.71,2.57,5.88,5.88,0,0,1-.45,2.26c-3.51,8.46-7.08,16.89-10.58,25.36-3.29,7.93-9.62,11.68-17.73,13-1.08.17-2.16.32-3.25.45-3.67.45-6,2.66-7.57,5.81q-11.51,22.91-23,45.83L353,302.19a11.08,11.08,0,0,1-.66,1Z" style="fill:#a8b7bb"/></g></g></g></svg>