<svg xmlns="http://www.w3.org/2000/svg" viewBox="0 0 800 450.21"><g id="Capa_2" data-name="Capa 2"><g id="DiseñosMascotas"><rect width="800" height="353" style="fill:#203d62"/><path d="M0,352.74,800,353v97.21H0Z" style="fill:#102a4d"/><path d="M583.74,352.88l-50.54,0a13.43,13.43,0,0,1,2.17-3.83c3.58-4.38,7.65-3.63,15.85-8,4.49-2.38,8.12-5.37,8.28-11,.28-1.92,1.18-3.8.17-5.76-1.47-6.69-5.81-10.74-12-13.11-4.7-1.8-9.68-2.46-14.56-3.47a40.05,40.05,0,0,1-14.25-5.65c-4.68-3.1-10.41-4.1-15-7.48a2.66,2.66,0,0,1-.27-2c1.43-2.9,4.09-4.86,5.79-7.58,7.44-11.9,6.9-23.42-1.81-34.7-3-3.85-6-7.64-8-12.14-4.22-9.58-4.13-19.15-.06-29a28.22,28.22,0,0,0-6.85,9.39c-.46,1.09-1,2.33-2.64,1.91-2.37-1.57-2.84-4.25-3.83-6.59-5.54-13.07-13.52-24.27-25.83-31.67-10.73-6.46-22.58-9.59-35.09-10.62-14.52-1.2-28.83,1-43.19,2.26a236.19,236.19,0,0,1-25.09.44c-10.49-.19-19.33,2.27-24.51,12.34a3.29,3.29,0,0,1-2.05,1.71c-1,.45-1,1.46-1.35,2.31-.32-7.89-1.09-15.79,1.33-23.56a21.28,21.28,0,0,0,.31-10.32,83.17,83.17,0,0,1,0-30.82c.74-3.73,0-6-2.76-8.24a17.14,17.14,0,0,1-6.72-14.75,7.77,7.77,0,0,1,4.13-7,21.8,21.8,0,0,1,9.84-3.34c5.08-.28,9-2.18,12-6.3S354,79,357.79,75.78c2.06-1.75,1.95-2.79-.9-3.45A37.57,37.57,0,0,1,350.48,70c-1.53-.65-3.25-1.49-3.32-3.4-.08-2.07,1.6-3.28,3.25-4a55,55,0,0,1,18.86-4.83c.91-.05,1.83,0,2.73-.13,3-.41,4.78-1.24,2.79-4.91-2.34-4.32-.91-6.54,4-6.8,6.56-.34,13.15-.22,19.34,2.27,8.79,3.53,17.86,4.34,27.25,4.24A91.93,91.93,0,0,1,470.53,63.3c13.62,7.29,13.7,7.15,29,7.21,9.55,0,13,4.35,10.91,13.58a9.82,9.82,0,0,1-1.14,3.45c-4.64,6.56-2.92,11.7,1.6,18.13C529.8,132.55,541.08,163,551,194.08a771.51,771.51,0,0,1,23.05,88c5.51,28.29,8.24,56.42,8.69,60.79C583.21,347.06,583.53,350.51,583.74,352.88Z" style="fill:#280d02"/><path d="M330.46,188.43c4.22-10.45,11.22-15.77,22.26-15.33,18.45.72,36.69-1.54,55-3a98,98,0,0,1,41.62,5.22c18,6.52,30,19,37.49,36.19,1.28,2.92,2.51,5.86,3.76,8.8a6.33,6.33,0,0,1,2.52,3.14c6.42,17.1,11.55,34.49,11.73,53a13.91,13.91,0,0,1-.12,1.82c-.32,3.71-.08,7.43-.13,11.14a4.59,4.59,0,0,1-.8,3c-.63,2.27-2.39,1.84-4,1.54-2.48-.46-4.81-1.5-7.29-2a273.44,273.44,0,0,0-55.09-10c-6.2-.53-12.42-1-18.63-1.42-2.41-.17-5,0-6.19-2.86a12.71,12.71,0,0,1-.22-5.85c1.16-8.17.53-16.27-.48-24.43A42,42,0,0,0,401,224c-1.3-1.23-2.9-.63-4.36-.63-17.56,0-34.57-2.33-50.16-11.22a35.21,35.21,0,0,1-15.05-16.6A10.88,10.88,0,0,1,330.46,188.43Z" style="fill:#eee5dc"/><path d="M280.1,381.31c-5.8-8.89-11-18.06-14.7-28.09-1.57-4.3-6.27-4.18-9.7-5.82-4-3.15-9.18-4.36-13.13-7.72-4.42-3.77-7.07-8.1-5.85-14.12a2.32,2.32,0,0,1,2.05.89c3.07,4,7.18,6.44,11.91,8.07,4.31,1.49,8.6,3.07,13,4.38a29.15,29.15,0,0,1,9.08,4.2c13.5,10,29.06,15.14,45.13,19,20.77,5,41.84,7.52,63.21,8.57a404.18,404.18,0,0,0,76.42-3.85,228,228,0,0,0,27.66-5.9c2.88-.78,5.81-2,8.93-1,1.38,1.85.35,3.5-.54,5.06-10.47,18.31-25.31,31.59-44.94,39.62a155.49,155.49,0,0,1-50,11.16c-32.56,2-63.88-2.79-94.07-15.07a68.27,68.27,0,0,1-15.25-8.62C285.84,388.86,281.65,386.2,280.1,381.31Z" style="fill:#9b582b"/><path d="M401,224c5.7,2.42,8.27,7.38,10,12.8a80.28,80.28,0,0,1,3.55,31c-.24,3.17-.67,6.34-1,9.51-.56,2.51-2.42,2.76-4.54,2.72a398.62,398.62,0,0,0-81.52,6.58,32.71,32.71,0,0,1-8.13.85,5.32,5.32,0,0,1-4.4-2.75c-5.37-8.22-9-17-8.47-27.06a5,5,0,0,1,.32-1.38,42.35,42.35,0,0,1,4.8-6.51,47.48,47.48,0,0,0,9.86-18.56,2.42,2.42,0,0,1,1-.87c5.05-3.37,10.74-2.62,16.33-2.53.2,3.57-4.17,3.18-4.9,6,3.71-2.33,7.44-5.15,12.18-2.55a13.16,13.16,0,0,1,4.49,4.62c-1.58,2.31-4.87,2.35-6.52,5.06,3-.45,5.35-3.75,8.47-1.34.36.58.71,1.16,1.06,1.75,2.38,1.87,2.29,4.77,3.08,7.31a52.22,52.22,0,0,1-2.26,8.23c-2.3,4-6.41,6.28-9.32,9.92,4.23-.24,5.46-5.83,9.91-5.38,5.47,1.06,10.94,1.9,16.46.3,2.39-.09,4.33,1.17,6.36,2.14,7.14,3.4,14.34,3,21.56.34a14.07,14.07,0,0,0,4.59-2.86c4.79-4.38,4.25-8.32-1.47-11.3-1.89-1-4.6-1.1-4.93-4,2.41.27,3.58-1,4.23-3.19,1.69-5.77,1.63-11.4-1.25-16.8C400,225.06,399.11,224.28,401,224Z" style="fill:#280d01"/><path d="M306.82,227.75c-.23-7.15-3.22-13.37-7.47-18.76-13.22-16.76-6.81-38.78,6.19-51.55.18-.18.56-.18,1.13-.34-.35,4.39-2.86,8-3.68,12.13-2,10.17.43,19.29,5.66,27.87,2,3.24,4.25,6.3,6.52,9.34a34.88,34.88,0,0,1,7.27,23.89l-.2.15a2.85,2.85,0,0,1-2.9,1.87,61.74,61.74,0,0,1-8.7-1.94C309.08,230,307.41,229.62,306.82,227.75Z" style="fill:#617490"/><path d="M307.86,256.16l-.26.94c-.54,1.41-.7,3-1.62,4.22-6.05,7.95-6.53,17.05-5.6,26.46a7.34,7.34,0,0,1-.3,4c-2.47,2.44-5,4.57-8.8,2.59-8.06-9.93-8.71-22.53-2-34.31,3.56-6.22,8.71-11.27,12.37-17.38,1-1.71,2.86-3.31,1.38-5.66,2.69-1.9,5.21-.74,7.73.4,1.88,1.41,2.16,3.17,1.14,5.22C309.83,246.93,308.89,251.56,307.86,256.16Z" style="fill:#60748f"/><path d="M397.53,246.05c1.52,1.65,3.75,1.86,5.64,2.77,7.16,3.48,7.74,9,1.44,14.06-7.05,5.68-20.83,6.36-29.35,1.44-1.18-.68-2.32-1.43-3.48-2.14-2.68,0-4.16-2-5.2-3.92-2-3.67-4.5-6.42-8.63-7.51a3.22,3.22,0,0,1-1.9-1.86c-2.34-2-1.12-5.18-2.5-7.5,3-1,5.32.88,7.52,2.13,7.83,4.45,15.16,4.09,22.29-1.35.58,4.38-3,5.23-5.75,6.81a9.4,9.4,0,0,0-2.57.92c-2.79,1.54-3,3-.58,5.19a14.39,14.39,0,0,0,4.73,2.71c6.33,2.27,12.86,1.77,19.34,1.05,2-.22,4.52-1.06,5.13-3.29.7-2.52-1.9-3.44-3.47-4.75-2-1.22-4.21-2.2-5.92-3.85-1.2-1.17-2.85-2.33-1.46-4.42Z" style="fill:#c9cccf"/><path d="M392.81,242.54c1,4.39,5.47,4.84,8.16,7.31,3.53,5.2,2.19,8.41-4,9.37A36,36,0,0,1,379.48,258c-5.81-2-6.58-5.76-2.31-10.07,2.55-1.4,5-2.87,6.19-5.76h0c2.67-.51,5.17-2.56,8.07-.81Z" style="fill:#f0db8a"/><path d="M310.49,238.6,303.07,237c-3.56-.78-7.15-1.45-10.66-2.38-2.14-.57-4.09-1.73-3.76-4.42s2.42-3.33,4.6-3.67c4.61-.72,9.07.53,13.57,1.18l12.72,3.63C318.8,236.39,314.87,239.52,310.49,238.6Z" style="fill:#c8ccce"/><path d="M291.28,294.39c3-.09,5.47-1.67,8.1-2.8,5.85-3.41,12-5.64,18.91-4.92,1,.31,2.77-.77,3,.9.23,1.36-1.38,1.84-2.49,2.22-4,1.37-8.17,2.25-12.29,3.25-3.59.86-4.85,2.76-3.34,6.24.84,3,3.24,5.39,3.08,8.71a2.23,2.23,0,0,1-2.09,1.45c-3.64-1.4-5.48-5-8.52-7.08-2.85-3.72-6.39-3.84-10-1.52-9,5.77-19.14,8-29.48,10.11-7.53,1.52-13.72,5.72-16.58,13.51-.35,1-.71,2.07-2.09,2.06l-.79-1c-.09-7.22,4.52-11.21,10.13-14.28,5.25-2.88,11.11-4,17-4.8C274.2,305.14,282.32,298.84,291.28,294.39Z" style="fill:#b98c72"/><path d="M346.05,231.3a14.57,14.57,0,0,0-11.64,4c-.85.76-1.73,2.1-3,.78s.1-2.1.71-3.1c1.59-2.58,4.91-2.89,6.68-5.19C342.08,227.12,343.85,229.64,346.05,231.3Z" style="fill:#48332d"/><path d="M352.49,239.64c-3.18,0-5.71,1.54-8.17,3.3-.69.49-1.46,1.41-2.32.54s-.54-2,.14-2.87a12.19,12.19,0,0,1,8.4-4.69C351.29,237.1,352.56,238,352.49,239.64Z" style="fill:#5b3727"/><path d="M391.47,241.35l-8.07.81C386,240.81,388.44,238.3,391.47,241.35Z" style="fill:#c9cccf"/><path d="M280.1,381.31a55.28,55.28,0,0,0,9.34,10c13.83,11.12,28.85,20.19,45.75,25.8a166.78,166.78,0,0,0,30.57,6.71c11.57,1.56,23.19,2.92,34.83,2.54,24.59-.82,49.07-2.84,72.05-12.77,13.58-5.88,26.4-13,36.61-24.11,2.27-2.47,4.09-5.79,8-6.43.95,1.19,0,2-.63,2.77-1.88,2.18-3.7,4.43-5.71,6.49-5,5.1-5,5.07.72,9.09,6.44,4.51,8.63,9.1,6,14.44-1.8,3.68-5,6.36-8.79,8.32-14.58,7.61-30.39,11-46.41,13.72-28.11,4.76-56.48,5.44-84.83,4.34a310.89,310.89,0,0,1-42.83-4.56,229.25,229.25,0,0,1-32.56-8.12c-7-2.35-13.95-5.35-19-11.17-4.31-5-4.07-8.88.55-13.58a30.42,30.42,0,0,1,3.34-3.09c6-4.5,6.05-4.47.62-9.91-1.94-1.93-3.94-3.82-5.78-5.84C280.73,384.68,279.09,383.47,280.1,381.31Z" style="fill:#0a1c39"/><path d="M517.2,383c-20.45,24.25-47.37,36.21-78,41.21a232.52,232.52,0,0,1-44,3.34c-28.12-.79-55.72-4.55-81-18-9.12-4.85-17.93-10.26-24.77-18.27l14.64,8.18c6.52,3.92,13,8.06,20.12,10.66,12.49,4.56,25,8.82,38.32,11,15.74,2.63,31.47,2.69,47.23,2.28a223.67,223.67,0,0,0,29-2.54,116.13,116.13,0,0,0,20.65-5.24c7.6-2.67,15.35-5.08,22.4-9.5,5-3.11,10.05-6,15-9.18,8.94-5.66,14.89-13.76,20.92-21.92a56.6,56.6,0,0,0,9.57-18.56,14.8,14.8,0,0,1,6.17-8.26,57.23,57.23,0,0,1,12.35-6.82c5-1.87,9.24-4.58,12-9.31.64-1.1,1.21-2.6,3-2.11-.1,4.63-2.38,8-6.15,10.47a98.62,98.62,0,0,1-15.33,7.8c-3.74,1.62-7,3.57-7.24,8.24C527.54,365.56,523.46,374.92,517.2,383Z" style="fill:#7e4b32"/><path d="M516.66,393.18a14.2,14.2,0,0,1-6.21,3.16C511.57,393,513.67,393.09,516.66,393.18Z" style="fill:#102a4d"/><path d="M237.51,326.52c2.81-11,10.77-15.74,21.2-17.53,8.83-1.52,17.18-4.06,25.05-8.76,7.4-4.42,7.74-3.86,13,1.44-1,1.76-3,1.95-4.57,2.68-6,2.7-11.51,6-15.62,11.23-3.54,4.53-4,9.65-1.45,13.72,5.81,8.23,14.39,12.56,23.42,15.89,18.79,6.94,38.4,10.37,58.26,12.5a396.41,396.41,0,0,0,55.55,1.76c27.85-.94,55.5-3.73,82.21-12.42a98.62,98.62,0,0,0,17.93-7.86,28.67,28.67,0,0,0,10.57-9.83c2.86-4.42,2.73-8.69-.68-13-6.63-8.4-15.9-12.49-25.83-15.42-1.34-.4-2.7.06-4.05.36s-3.25.94-4.08-.79c-.91-1.9.47-3.09,2.06-4,3.31-.17,6.56-.43,9.67-1.92a4.48,4.48,0,0,1,4.33-.24,50.92,50.92,0,0,1,14.06,6.21c6.21,3.85,13,5.48,20,6.78,5.81,1.08,11.67,2.27,16.35,6.33,3.3,2.87,5.78,6.21,6,10.81s-2.88,7.44-6.37,9.72c-5.94,3.9-12.87,5.44-19.43,7.84a40.18,40.18,0,0,0-9.3,4.74,112.76,112.76,0,0,1-26,13.12c-1.8.67-3.68,1.69-5.66.4-17,4.46-34.05,8.36-51.61,10.07-17.23,1.68-34.49,3-51.75,2.44-26.21-.8-52.26-3.26-77.7-10.29-14.86-4.11-29.1-9.19-41.73-18.48-6.38-4.69-14.77-5.3-22.05-8.32C244.47,333.75,239.63,331.91,237.51,326.52Z" style="fill:#c47a47"/><path d="M494.14,360.32a129.82,129.82,0,0,0,33.74-16.6c6-4.11,13.56-5.07,20.3-7.78,5.65-2.27,10.59-5.3,12.75-11.44,1.33,1.84.18,3.68,0,5.52-3.53,8.76-11.62,11.68-19.32,15.14-7,3.16-12.07,7.69-14.33,15.76-2.16,7.67-7.34,14-12.36,20.36-3.18,4-5.83,8.58-10.06,11.43-6.87,4.61-12.13,11.66-20.87,13.53-2,.44-3.53,3-5.57,3.75-8.23,3.07-16.34,6.37-24.77,9-16.53,5.23-33.51,5.48-50.4,6.37a185.24,185.24,0,0,1-34.91-1.56,161.63,161.63,0,0,1-24.11-5.34c-12.57-3.75-24.72-8.09-35.88-15a11.27,11.27,0,0,1-4.25-4c7.4,1.65,14.34,4.74,21.55,7,10,3.15,20.33,4.89,30.58,6.47a193.83,193.83,0,0,0,31.22,1.95c22.42-.2,44.38-3.69,64.83-13.35,15.5-7.31,28.3-18.05,37.2-33C491.07,365.86,493.49,363.58,494.14,360.32Z" style="fill:#8a4926"/><path d="M503.42,278c-.29-18.57-5.09-36.17-11.48-53.43-.51-1.4-.9-2.85-1.34-4.27,1.79-6.42,6.24-10.77,11.94-15.5-1.4,4.7-3.15,8.21-3.92,12.06-2.47,12.39,1.72,22.67,9.57,31.94,11.37,13.42,10.19,31.62-2.76,43.33-.3.28-.84.31-1.26.46-.29.44-.54.45-.74-.07l0-2.74A54.58,54.58,0,0,0,503.42,278Z" style="fill:#6c5348"/><path d="M437.29,150.5c-.57,2.91.18,7.7-4.64,8.52-4.58.78-5.66-3.65-7-6.93a18.18,18.18,0,0,1-.58-11.15,5.34,5.34,0,0,1,4.09-4.42c2.48-.51,4,1.18,5.15,3A20.11,20.11,0,0,1,437.29,150.5Z" style="fill:#e8e0d4"/><path d="M338.85,152.45c.49-3.18-.09-7.76,4.46-8.15,4.18-.36,4.65,4,5.6,7.15a17,17,0,0,1-.16,10.74,4.28,4.28,0,0,1-3,3.14c-1.89.4-3.17-.85-4.14-2.24C339.41,160,339.08,156.32,338.85,152.45Z" style="fill:#e7e0d3"/><path d="M503.43,292.56a2.66,2.66,0,0,0,.74.07c.11.58.23,1.16.34,1.74a26.7,26.7,0,0,0-4.61,1.79c-3,1.85-6.12,2.4-9.46,1A2,2,0,0,1,490,296a8.2,8.2,0,0,1,3.19-5.32C496.79,290.41,499.6,294.32,503.43,292.56Z" style="fill:#c59670"/><path d="M493.21,290.71a9.33,9.33,0,0,1-3,5.58c-1.88,1.7-4,1-6.05.52-21.28-5.44-42.95-7.77-64.85-9.15-22.71-1.42-45.17,0-67.7,2.58-15.6,1.74-31,4.43-45.93,9.18a11.83,11.83,0,0,1-3.59.53c-2.35-6.69-2.34-6.67,4.45-8.39a116.37,116.37,0,0,0,13.94-4.21L318.4,287c-.18-.35-.07-.55.31-.62a433.68,433.68,0,0,1,86.79-8.26c2.63,0,5.67,2.08,8-.86,1,2.3,3.06,1.53,4.76,1.62,24.3,1.36,48.45,3.73,71.91,10.75C491.22,290,492.21,290.36,493.21,290.71Z" style="fill:#c47a47"/><path d="M418.48,185c5.28-4.3,12.76-4.42,17.27-1a11.62,11.62,0,0,1,3.77,13.47c-.6,1.43-1.21,3.07-3,3s-1.13-1.94-1.36-2.93c-.82-3.5-2.34-3.37-5.09-1.77-15.59,9-31.78,11.72-48.78,4.11a3.27,3.27,0,0,0-3.78.22c-11.17,8.5-22.53,7.43-34,.54-.62-.38-1.31-.67-2-1-1.71,1.54.4,3.51-.65,5.07-4.81-3.72-6.54-11.26-3.65-15.81,2-3.07,5.16-3.35,10.07-.88-.09.28-.1.69-.29.81-1.75,1-4.59,1.35-4.45,3.92s3,3.17,5,4a27.32,27.32,0,0,0,21.33.06c.8-.33,1.87-.62,1.92-1.69.05-1.22-1.26-1.09-2-1.53-1.93-1.21-4.1-2.13-5.78-3.61-3.58-3.13-3.26-6.86,1.05-8.67a38.25,38.25,0,0,1,26.71-1.41c4.34,1.35,5,4.69,2,8.16a25.7,25.7,0,0,1-3.36,3.06c-1,.85-2.16,1.58-3.83,2.79,6.32,2.87,12.45,3.29,18.59,2.95a52.32,52.32,0,0,0,21.76-6.05c1-.52,2.68-.73,2.55-2.16-.12-1.24-1.62-1.69-2.67-2.25A12,12,0,0,0,418.48,185Z" style="fill:#240c03"/><path d="M503.42,278a28,28,0,0,1,0,11.78C503.45,285.89,503.43,282,503.42,278Z" style="fill:#c59670"/><path d="M310.49,238.6c4.56-.47,6.18-4.63,9.05-7.22l2.7-.9c-.36,6.49-3.32,11.9-7.2,16.88-2.32,3-4.78,5.87-7.18,8.8-2-5.12,1-9.31,2.66-13.71C311,241,312,239.89,310.49,238.6Z" style="fill:#745f59"/><path d="M353.15,257c.36,1.75,0,3.65,1.11,5.25-3,.56-3.48,4.16-6.15,5.13a35,35,0,0,1-3.81,1.4c-.8.19-1.95.35-2.28-.84-.23-.86.62-1.23,1.17-1.73C346.53,263.16,349.84,260.07,353.15,257Z" style="fill:#512f22"/><path d="M377.17,247.93c-2.76,6.18-2.1,7.79,4.62,9.39,4.69,1.11,9.4,1.89,14.36.66,6.23-1.55,6.72-2,4.82-8.14,2.15,1.4,4.86,2.69,4.37,5.7s-3.49,4.13-6.17,4.52c-7.82,1.15-15.65,1.54-23-2.22-2.54-1.3-5.63-2.63-5.32-6C371.17,248.24,374.72,248.69,377.17,247.93Z" style="fill:#9c9073"/><path d="M524.49,329c-.73,4.76-4.51,7.12-8,9.45-10.86,7.35-23.2,11.17-35.79,14.2-18.62,4.49-37.55,6.55-56.66,7.77-13.85.89-27.68,1-41.48.57-28.6-.92-56.85-4.41-84-14A64.26,64.26,0,0,1,277,334.43a8.82,8.82,0,0,1-3.21-5.37c-1.23-2-.09-3.59,1.1-4.92,7.37-8.2,16.91-12.68,27.3-15.65A2.34,2.34,0,0,1,304,309l2.07-1a4.45,4.45,0,0,1,2.53-1.84c11.51-3.45,23.11-6.48,35.2-7.07a3.35,3.35,0,0,1,2.84,2.61c.61,3.55,3.11,4,6.05,4.07,5.73.07,11.46.06,17.15-1.5-.31-2.65-4.22-3.34-3.4-6,.54-1.79,2.9-1.89,4.63-2.43,12.84.07,25.64-2.35,38.5-.73,2.13.77,1.65,1.95.68,3.47-2.05,3.24-5,5.67-7.52,8.46s-2.32,3.67,1.25,4.49c6.57,1.51,12.81,4.8,19.86,3.93,5.35-.21,10.5-1.49,15.64-2.78,3.9-1,4.6-2.48,3.44-6.35-.26-.87-.66-1.69-1-2.54-1.86-4.76-1.57-5.27,3.45-6.26,8.54.82,17.15,1.19,25.32,4.2,2.16,3.21-.83,3.84-2.6,4.76-5.76,3-11.61,5.77-17.3,8.89-1.87,1-3.68,2.08-4.63,4.12-.17.38-.37.76-.57,1.13-1.91,3.05-1.72,5.74,1.39,7.92A122.15,122.15,0,0,0,467,335.57c7.07,2.78,13.66-.39,20.34-1.79,2-.43,4-1.39,6.05-1.79,7.15-1.38,9.28-5.7,6.26-12.52-1.19-2.7-3.42-5.12-2.33-8.45,1.36-1.54,3.07-1.17,4.63-.61A52,52,0,0,1,522.3,323C523.84,324.6,525.61,326.32,524.49,329Z" style="fill:#dabd71"/><path d="M344.39,300.2c-13.06,1.24-25.64,4.87-38.37,7.8-1.49-2.6-3.1-5.13-3.9-8.05.32-1.8,1.86-1.68,3.13-2.09,14.77-4.71,29.9-7.33,45.3-9.14,19.3-2.28,38.6-4,58-3.31,26.2.92,52.25,3.25,77.68,10.19a38,38,0,0,0,4,.69c.06.3.12.6.19.91-.33,1.08-2.16,1.83-1.18,3.1.78,1,2,.1,2.91-.38,2.38-1.3,4.56-.71,7,.14,9.14,3.22,17.68,7.28,24.15,14.85,4,4.71,4.62,10.32,1.2,14.07-1.9-5.34-6.32-8.26-10.73-11.18a45.88,45.88,0,0,0-16-7c-3.5.58-5.52-1.66-7.41-4a13.21,13.21,0,0,0-15.44-3.93c-1.27.54-2.51,1.1-3.78,0a191.22,191.22,0,0,0-26.3-4c-6.26,1.49-9.36-4.25-14.14-6.16-4.79-2.31-9.26-1.53-13.66,1.19-1.85,1.14-3.48,3-6,2.48-13.79-.13-27.56.45-41.33,1.05-3.49.58-6.63.37-9.74-1.94-4.2-3.13-6.06-2.65-9.8,1C348.48,298.17,347.48,300.86,344.39,300.2Z" style="fill:#925026"/><path d="M304,309c-7.84,2.86-15.64,5.82-22.4,10.88-3.28,2.45-6.47,5.05-7.72,9.23-2.47-2.72-2.61-8.25.17-12.28a36.46,36.46,0,0,1,22.79-15.11C299.35,303.93,302,306.05,304,309Z" style="fill:#925228"/><path d="M471.12,302.9c.45-.06,1.1.05,1.32-.2,4.6-5.31,9.71-1.85,14.67-.92a3.7,3.7,0,0,1,2.93,1.94c1.36,3.76,4.62,5.29,7.71,7.08a20.41,20.41,0,0,0,3.1,7.49c2.37,3.41,1.84,7.26.87,10.95-1.12,4.23-5.21,3.54-8.24,4.4-5,1.42-10.09,2.56-15.13,3.85-4,1-8,1.84-11.71-.95a13.19,13.19,0,0,1-6.39-7.71c-1.62-4.53-5.06-6.1-9.89-5.55-2.67.31-4.79-.38-5.61-3.27-.26-3.05,1.95-4.16,4.15-5.28,6.7-3.44,13.2-7.26,20.19-10.12A8.75,8.75,0,0,0,471.12,302.9Z" style="fill:#f8bf20"/><path d="M411,296.44c3.15-2.37,6.39-4.66,10.16-5.9a11.13,11.13,0,0,1,10,1.07c8.1,7.8,4.27,20.88-7.27,24.83a8,8,0,0,1-5.7.37c-5.35-1.52-10.77-2.78-16.13-4.24-4.07-1.12-4.43-2.42-1.58-5.37C403.94,303.59,407.47,300,411,296.44Z" style="fill:#f4e28d"/><path d="M363.07,352.06c-13.27.26-24.09-3.38-32.5-13.09-2-2.36-4.14-4.73-7.63-5.45-2.43-.5-1.6-2.46-.57-3.9,2.19-3.07,6.47-3.42,10.55-.37,8,6,16.91,10.62,26.54,11,7.1.31,12.5,3.66,18.7,5.49,1.1.33,2.74.7,2.8,2,.09,1.74-1.81,1.83-3,2.23A38.38,38.38,0,0,1,363.07,352.06Z" style="fill:#f9e2c4"/><path d="M317.78,321.64c-3,.21-6,.35-9.06.68-1.24.13-2.5.49-3.28-.76-.92-1.49.13-2.61,1.1-3.57,11.76-11.56,23-13.78,36.48-4.15a57.18,57.18,0,0,0,11.72,6.88c5.41,2.18,10.76,3.07,16.21.1,1.94-1.05,4.74-1.87,5.52.56.65,2,1.47,5.25-3.15,6.12-10.86,2-21.13.44-31.1-3.68-5.31-2.2-10.41-3.75-16.26-2.12-2.53.71-5.43.12-8.16.12Z" style="fill:#f9e2be"/><path d="M416.52,348.39a51.48,51.48,0,0,0,4.55-7.28c5.56-9.51,18.52-7.59,24.15-1.84,2.66,2.7,7.22,4.77,5.1,10,0,1.88-1.32,2.59-2.75,3.19-9,3.79-18.33,3.59-27.61,1.27C417.71,353.19,414.62,352.12,416.52,348.39Z" style="fill:#c88648"/><path d="M418.21,327.2c-4.13,3.3-8.33,6.13-14,6.34-3.22.12-6.16,2.26-8,4.76-4,5.27-8.82,5-14.14,3.2-1.93-.67-4.94-.39-5.44-2.58-.57-2.54,2.2-3.71,4.1-4.81,10.56-6.11,20.64-13.61,33.91-12.19C417,322.84,419.59,323.68,418.21,327.2Z" style="fill:#f9e2c3"/><path d="M344.39,300.2c2.56-.33,3-2.86,4.37-4.36,4.41-4.75,7.15-5.33,12.13-1.4a13.29,13.29,0,0,0,8.76,3.05l-2.8,1,6.47,6c-3.94,2.48-8.32,1.83-12.35,2.63a21.52,21.52,0,0,1-4.1.09C347.7,307.28,347.7,307.28,344.39,300.2Z" style="fill:#f58d2e"/><path d="M399.58,319.26c-6.24,2.79-12,2.82-16.69-.26-6.74-4.46-13.74-3.92-21-3.37-1.11.08-2.61,1.19-3.15-.48-.43-1.31,1-2.21,2-2.74,5.94-3.24,12.17-4.41,18.87-2.67C386.6,311.57,392.34,315.83,399.58,319.26Z" style="fill:#f9e0ba"/><path d="M423.87,316.44c6.12-4.15,10.81-9,10-17.28-.28-2.84-1.74-5.07-2.74-7.54a6.12,6.12,0,0,1,3.94,1.92,15.55,15.55,0,0,0,9.74,5.39c-2.28,0-3.79,0-2.25,3.19,4.65,9.64,4.19,10.29-6.39,12.73C432.12,315.78,428.12,317,423.87,316.44Z" style="fill:#c49552"/><path d="M442.79,331.67c19.21,11.51,50.93,9.68,64.41,0a9.09,9.09,0,0,1-6.47,7.23c-16.72,5-33.48,7.64-50.07-.63A34.59,34.59,0,0,1,442.79,331.67Z" style="fill:#efdd99"/><path d="M444.75,320c2.23,1.45,4,3,7.27,1.29,3.62-1.9,5.74,1.95,7.67,4.21,2.81,3.31,3.86,7.82,6.95,11-7.34-1.53-14.58-3.36-21-7.48-1.32-2.93-2.53-5.86-.87-9.08Z" style="fill:#d1981c"/><path d="M299.44,329.19c3.59-2.55,7.62-2.56,11.7-1.82s5.91,3.74,6.34,7.34c.4,3.34-2.83,3.23-5,4-2.47.88-4.87,1.62-7.43.48C299.74,336.27,298.33,333.73,299.44,329.19Z" style="fill:#efbb60"/><path d="M416.52,348.39c-.41,2.44,1.32,3.31,3.11,3.73,10.53,2.49,20.94,3.36,30.68-2.82,3,1.05.84,2.29-.06,3a17.26,17.26,0,0,1-8.27,3.47,58.83,58.83,0,0,1-22.13-.21,7.49,7.49,0,0,1-5.5-3.7C413.45,350.13,412.6,347.56,416.52,348.39Z" style="fill:#f7da9a"/><path d="M418.21,327.2c-.32-2.36-2.09-3.73-3.6-5.28,9.74-.07,19.59.7,28.83-3.93-3.62,4.7-8.06,7.35-14,7.6C425.67,325.75,421.55,324,418.21,327.2Z" style="fill:#f0dc9d"/><path d="M319.22,348.4c-1-.19-2.61-.41-4.2-.82-2-.52-3.31-1.79-2.62-4,.75-2.38,2.93-2.15,4.55-1.49,2.18.89,4,2.66,6.5,2.92a1.5,1.5,0,0,1,1.21,1.69c-.1.89-.86,1.23-1.59,1.35C322,348.26,321,348.27,319.22,348.4Z" style="fill:#768030"/><path d="M299.44,329.19c.19,4.27,3.3,6.91,5.58,10a18.75,18.75,0,0,1-2.25,0c-2.66-.32-6.52,1.23-7.46-2.18C294.47,334,296.69,331.1,299.44,329.19Z" style="fill:#c18841"/><path d="M387.84,307.25c-1.76-.11-4.11.34-4.21-2.24-.09-2.12,2-2.31,3.67-2.64l.44-.1c2.06-.4,4.18-1.21,6,.52a1.61,1.61,0,0,1,.1,2.1C392.45,307.17,390.16,307.26,387.84,307.25Z" style="fill:#7a8331"/><path d="M289.77,324.54c2.17-.07,4.2,0,4.1,2.28-.13,2.86-2.81,2.94-4.82,3-1.8,0-4.87.3-4.69-2.14C284.57,324.78,287.77,324.8,289.77,324.54Z" style="fill:#7b8231"/><path d="M367.92,337.49c-1.58-.23-4.14.42-4.07-1.72.11-3,3.13-3.47,5.45-3.44,1.73,0,4.9.31,4.58,2.46C373.48,337.55,370.26,337.29,367.92,337.49Z" style="fill:#777a2a"/><path d="M467.62,349.43c-1.87-.42-5,.61-5-2.29.07-2.21,3-2.53,5.13-2.46s5,.09,4.95,2.6C472.65,350,469.58,349.12,467.62,349.43Z" style="fill:#767a2a"/><path d="M398.32,352.89a35,35,0,0,1-4.1,0c-1-.12-2.87.64-2.67-1.36.14-1.49,1.71-1.45,2.94-1.44,2.57,0,5.14.4,7.68-.49a2.18,2.18,0,0,1,3.08,1.8c.35,2.41-1.69,1.53-2.83,1.65a40,40,0,0,1-4.1,0Z" style="fill:#7c7d2f"/><path d="M454,304.38c1.66.33,3.88.14,4.13,2.49.14,1.23-1.33.92-2.12.67-1.58-.52-4.06.81-4.65-1.57C451,304.23,452.85,304.57,454,304.38Z" style="fill:#7c7929"/><path d="M444.77,320l.87,9.08C442.34,326.32,441.93,323.31,444.77,320Z" style="fill:#f8bf20"/><path d="M315.54,318.91c8.54-8.57,18.53-8.4,29.19,1.44C339.14,318,334.8,315.44,330,316S320.59,317.84,315.54,318.91Z" style="fill:#d3b18b"/></g></g></svg>