<svg xmlns="http://www.w3.org/2000/svg" viewBox="0 0 800.01 450"><g id="Capa_2" data-name="Capa 2"><g id="DiseñosMascotas"><rect width="800.01" height="357" style="fill:#f76b5e"/><path d="M800,357v93H0V353.5Z" style="fill:#da9b33"/><path d="M538.52,355.94l-6.19-.07c-59.22-.59-86.79,0-95.53.15l-7.29.17c-2.42-2.13-2.21-5.05-2.05-7.77.57-9.53,1-19.09,2.46-28.53.78-3.91,3.39-5.82,7.13-6.66,8.52-1.92,16.18-5.81,23.26-10.37-20.2,11.11-41.76,12.84-64.13,7.61-5.66-1.33-10.55-4.53-15.72-7-1.87-.9-3.59-2.2-5.84-1.93-6-2.53-10.7-7-15.37-11.35s-8.91-9.1-14.42-14.08c-1.47,9.34-3.36,17.57-4.91,25.89-1.47,7.84-1.88,15.86-4.13,23.58-1.61,1.42-3.36,2.86-5.25,4.3-.93.7-1.85,1.37-2.75,2,1.35-8.6,2.34-14.93,2.84-17.41a2.82,2.82,0,0,0-.3-2.31c-.58-.71-1.73-.78-3-.84a72.2,72.2,0,0,1-43.51-16.91c-18.43-15.17-30.33-34.27-31.22-58.9-.11-3.26.75-6.54,1.16-9.82.67-6.16,5.76-11.55,12.6-13.35,6-1.56,9.51-.38,13.06,4.33.5,2.65-1.28,3.66-3.27,4.54a36.8,36.8,0,0,0-6.15,2.88c4.52-1.72,8.95-3.36,13.64-.84,2.23,2.7,3.33,5.67,2.18,9.16-2.68,3.16-7.33,2-9.52,4.31-.07,0-1,.49-.7.38,4.51-1.81,9.06-4.73,12.65,1.46,1.09,4.86-.36,9.18-2.75,13.31-1.84,2.1-1.59,3.83.55,5.71,9.12,8,19.66,11.5,31.74,10.22,3.59-.38,5.78-3,8.11-5.3,1.5-1.51,1-2.8-.62-3.82-2.07-1.27-4.11-2.6-6.17-3.9-3.95-3.64-6.49-7.75-4.55-13.38,3.68-4.09,7.83-2.19,11.85-1-.77-.85-2.05-.81-3.13-1.14-7.8-2.36-7.95-2.53-7-10.7a4.93,4.93,0,0,1,2.55-2.79c5.34-1.37,10.36-.77,14.62,2.3-3-2.7-7.68-2.58-11-5.38,1.41-5.44,6.51-7.2,11.54-3.68a68.69,68.69,0,0,1,20.64,22.26,20.69,20.69,0,0,0,7.8,8.11c2.89,1.61,4.59.85,4.9-2.55.86-2.46.23-5.58,3.13-7.15,3.86-.36,6.41,2.41,9.42,4,15.17,8.17,30.57,8.93,46.19,1.5,7.76-3.69,8.42-5.76,8.17-14.35a156.08,156.08,0,0,0-7.12-43.16c-9.57-30-30-48.41-59.68-57-19.34-5.62-39.11-8.77-59.37-8A30.12,30.12,0,0,0,294.47,126a11.66,11.66,0,0,0-6.18,8.59c-.44,2.36-.63,4.54,2.19,5.66,1.56.62,2.17,2.19,3,3.48a6.68,6.68,0,0,0,5.57,3.38c1.77,0,3.81-.06,4.69-1.71,1-1.82-1.12-2.63-2.07-3.72-3.26-3.71-7.21-7.54-4.7-12.86s8.3-5.39,13.31-5.06c5.17.34,10.47.56,15.36,2.81,7.41,3.4,8.18,9.38,1.82,14.6a19.73,19.73,0,0,1-2.58,1.78c-1.71,1-2.67,1.15-2.63,1.4.06.48,3.84.08,8.32.29a36.23,36.23,0,0,1,9.19,1.26c2,.57,6.35,2.09,11.13,3.38.64.18,2.19.58,2.84-.15.4-.44.66-1.06.17-3.05-.86-3.42,1.47-4.3,4.33-4,6.38.7,11.54,9.09,9.26,15-.66,1.73-1.62,3.05-2.91,3.31a3.31,3.31,0,0,1-3-1.07c-.82-1-.9-2.4-.7-2.46.56-.18,6.52,10,4,13.26-2.32,2.92-9.54-2.59-30.11-7.89-2.55-.66-16.28-5.19-19.76-7.5-1.36-.9-2.56-2.7-4.53-1.06-4.11,2.5-8.48,3.82-13.33,3.05-3.18.27-4.79.29-4.82.07s1.15-.58,3.54-1.14a21.25,21.25,0,0,1-10.93-7.61c-3.58-4.86-5.43-11.91-3.32-17.73,1.26-3.46,1.37-4.63,6.64-10.5a14.89,14.89,0,0,0,3.54-7.49c1.42-8.21,4.86-15.6,9.06-22.67,1.42-2.38,2.07-4.54,1.27-7.36-1.62-5.65-1.3-11.23,3.24-15.53s10-3.92,15.15-1.65a5,5,0,0,0,2.26.47,7.53,7.53,0,0,0,4.38-1.9c1.77-1.5,7.41-4.1,22.7-8.88-2.3-.4-12.28-2.26-12.56-6a2.88,2.88,0,0,1,.77-2c6-7.82,31.31-2.39,36-.49.38.16,2.05.87,2.26.53s-.59-1-1.39-1.78c-4.38-4.18-6.65-5.2-6.71-7.1a2.76,2.76,0,0,1,.78-2c2.13-2,8.12,1,11.74,2.9a67.6,67.6,0,0,1,15.09,10.84q6.46,2.53,12.93,5.1L411.62,56s23.59,9.15,26.72,11.16l.83.52c6,3.86,6.14,4.26,7.37,4.8s1.54,1.77,9,0a14.64,14.64,0,0,1,15.1,5.16c4.23,5.16,4.25,11.48-.93,18.23-2.6,3.39-2.38,5.69-.48,9.17,12.1,22.2,18.08,46.46,21.62,71.15,5,34.59,15.75,67.4,27.71,100,4.52,12.31,14.47,38.27,19.35,74.71C538.17,353,538.39,354.79,538.52,355.94Z" style="fill:#290f02"/><path d="M295.23,367a15.89,15.89,0,0,1-1.29-7.16,11.89,11.89,0,0,1,1.43-5.46c1.09-1.93,2.48-2.93,4.5-4.38a30,30,0,0,1,7.44-3.79c1.53-.57,2.83-1,3.77-1.21l.08,0c1.16-.63,3.12-1.74,5.43-3.31a62.31,62.31,0,0,0,6.87-5.43c9.25-8.34,16-14.39,24-17.93,2.94-1.29,13.41-5.51,25.72-2.61a37.71,37.71,0,0,1,13.32,6.17c7,5,9.44,12.56,10.83,20.6.62,13.87-6.95,23.09-17.61,30.33a59.19,59.19,0,0,1-14.4,7.09c-15.73,5.51-31.6,6.51-47.69,1.67-7-2.1-12.92-6-18.48-10.54-.33-.26-.9-2.23-2.74-3.42A6.84,6.84,0,0,0,295.23,367Z" style="fill:#f9af15"/><path d="M233.61,232.85c-2.65-6.53,1.12-12,3.77-17.1,5.37-10.35,13.35-18.08,25.74-19.61a5.76,5.76,0,0,1,4-1c7.95,1,15,4.44,21.81,8.39,1.51.88,5.5,1.84,1.95,5.1-5.15.31-10.32-.65-15.46.14-2.54.39-5.16.53-7.42,2-8.2,3-13.83,9.21-19.3,15.57-2.41,2.8-4.82,5.54-8.35,6.91C238.09,234.13,235.73,235.11,233.61,232.85Z" style="fill:#fac936"/><path d="M233.61,232.85c6.09.59,10-2.83,13.56-7.15,5.49-6.68,11-13.34,19.84-15.92,3.05-1.32,5.81-.13,8.51,1.11,7.73,3.55,14,15.47,12,22.83-1.28,1-2.05.25-2.73-.8.24-3.34-.14-6.53-2.28-9.28a7.15,7.15,0,0,1-3.85-6.37c-5.72-8.06-17.47-2.88-22.33,4-1,1.39-1.72,2.95-2.57,4.43-4.21.12-5.58,4-8,6.34-3.1,3-6.81,4-10.68,4.92a3.26,3.26,0,0,1-4-2.52C230.64,232.6,232.5,233,233.61,232.85Z" style="fill:#c5642d"/><path d="M402.31,360.72c14.92,1.85,29.6,4.61,42.92,12.08,6.16,3.46,10.53,8.08,9.11,15.94a3.67,3.67,0,0,1-.84,2.54c-5.56,6.46-13.13,9.7-20.85,12.43-14.88,5.26-30.39,7.45-46,9-18.79,1.82-37.63,1.34-56.41.82a211.73,211.73,0,0,1-58.12-9.39,76.89,76.89,0,0,1-20.9-10.53c-1.37-.87-2.25-2-1.92-3.74-.82-4.13-.88-7,.16-9.39,1.26-2.9,3.48-4.65,7.33-6.89,11.18-6.49,23.12-9.6,33.77-11.24,1.49-.23,2.71-.39,3.45-.49a13.67,13.67,0,0,0,.5,3.06,14.69,14.69,0,0,0,.77,2.08c.81,1.74,2.92,5.77,5.87,11-1,1.85-3,2.32-4.6,3.28-2.11,1.24-4.57,2.53-4.52,5.27,0,3,2.73,4.27,5.11,5.39a34.81,34.81,0,0,0,5.89,2.14c12,3.26,24.1,5.67,36.59,5.59,15.5-.1,31.05.76,46.43-2.1,6.7-1.25,13.37-2.63,19.51-5.7,2.27-1.13,5.16-2.26,5.07-5.38s-2.82-4.14-5.1-5.45c-3.28-1.9-7.49-2-10.11-5.14A25.76,25.76,0,0,1,402.31,360.72Z" style="fill:#ecf0f1"/><path d="M396,336.82c-.17-.74-.38-1.52-.62-2.32q-.3-1-.6-1.83c-.22-.57-.46-1.14-.74-1.7-3.74-7.64-11.62-11.21-16.7-12.87-2.93-.88-20.51-6.16-36.42,3.58a39.19,39.19,0,0,0-6.44,4.93Q336.5,313,339,298.83q2.34-13.35,4.88-26.15c2.82,2.89,5.42,5.31,7.75,8,6.89,7.87,15.61,13.66,23.25,20.68,2.26-.15,3.87,1.31,5.64,2.34,14.16,8.25,29.34,12.15,45.77,11,2.75-.19,6.52-1.22,5.33,4-.68,12.48-2.89,24.89-2.08,37.46-4.29.05-8.66.07-13.11,0-5.73-.05-11.32-.19-16.78-.39a18.54,18.54,0,0,0-2.13-15.19c1.88-3.51,2.57-5.46,2.05-5.86S397.93,335.14,396,336.82Z" style="fill:#eeeee8"/><path d="M453.31,390l1-1.23c7.79,7.2,5.06,15-3.16,20-11.54,7.06-24.3,10.93-37.5,13.52-25,4.92-50.35,6.24-75.77,5.22-25.59-1-50.84-4.43-74.94-13.73a45.9,45.9,0,0,1-10.79-6.2c-7.28-5.4-8.06-10-2.93-17.71l2.16,2.26c7.35,7.95,17,12.18,26.86,15.57,18.77,6.42,38.26,8.74,58,9.89a289.41,289.41,0,0,0,63.5-3.37c16.77-2.73,33-7.5,47.21-17.34A22.66,22.66,0,0,0,453.31,390Z" style="fill:#b77f2d"/><path d="M300.81,377.34a37.49,37.49,0,0,1-3.21-5,39.08,39.08,0,0,1-3.08-7.39,59.09,59.09,0,0,0,11.57,9.21,58.22,58.22,0,0,0,24,8.27c12,1.25,23.86-.44,35.4-4.05,1.89,4.81,3.39,9.77,5.3,14.58-6.34,4.56-13.93,4.53-21.05,4.66-16.44.31-31.7-4-44.74-14.6C303.11,381.51,301.16,380,300.81,377.34Z" style="fill:#ce5e26"/><path d="M370.77,392.12c-3-1.44-6-9.11-5.26-13.7,8-3.82,16.07-7.43,22-14.36,5.22-6.09,8.84-12.82,8.42-21.15l1-3.2c1.17-1,1.82-1.48,1.95-1.37s-.18.69-.9,1.73a27,27,0,0,1,3.71,16.3,40.41,40.41,0,0,1-.42,4.31,41.31,41.31,0,0,1-5.33,14.79c-2.47,7.51-15.73,17.46-23.31,17.48A2.45,2.45,0,0,1,370.77,392.12Z" style="fill:#c2392b"/><path d="M298.88,155.63c6.59-3.78,12.17-5.95,14.56-5.71,2.22.23,4.8.69,4.8.69.75.14.93.2,1.59.29,1,.15,1.76.16,2.94.29,0,0,.46.05,1.51.22,3.42.54,25.45,5.3,31,10.28a24.8,24.8,0,0,0,2.75,2.06c2.5,1.74,3.24,1.89,3.87,1.74a2.7,2.7,0,0,0,1.84-1.84c.24-.85,0-1.91-1.07-3.38-3.77-5.1-10.61-7.94-10.61-7.94-5.45-2.26-9.66-4.14-17-5.56a122.77,122.77,0,0,0-17.51-2.1c3.93-2.1,8.4-3.31,11.33-6.95s2.76-6.72-1.6-8.81c-8.13-3.9-16.83-4.27-25.53-2.52-3.77.76-4.94,3.58-3.53,7.24a17.88,17.88,0,0,0,8,9.28c.84.49,1.69,1.07,1.62,1.67s-1.51,1.1-2,1.24c-6.8,1.88-8.94,5.54-12.92,4.48-5.28-1.41-6.92-9.26-7-9.78a15.55,15.55,0,0,1,10.87-17.58c8.86-2.8,17.89-2.47,26.94-1.76,18.43,1.44,36.63,4.34,53.9,11.12,26.3,10.33,43.28,29.39,51.74,56.39,4.75,15.12,6.28,30.58,6.92,46.27.19,4.67-2,7.39-5.69,9.64-18.58,11.17-36.8,9.34-54.81-1.36-1.8-1.06-3.52-2.24-5.28-3.36-2.82-1.35-2.22-4.07-2.45-6.38-.59-5.86-4.91-28.54-16.8-33.2-2.38-.94-4.2-.83-7.13-2.78a19.68,19.68,0,0,1-6.7-8,150.22,150.22,0,0,0,15-1.15,80.13,80.13,0,0,0,11.6-2,59.45,59.45,0,0,0,20-9.94c-17.11,5.82-35,7-53.11,1.6-4.61-.83-8-3.18-9.72-7.68a7.72,7.72,0,0,0-3.76-4.17,46.94,46.94,0,0,0-4.57-3.7A48.78,48.78,0,0,0,298.88,155.63Z" style="fill:#edece7"/><path d="M286.84,234.22c.37-12.07-7.72-22.05-19.83-24.44,7.78-4.5,16-3.55,24.31-2a12.08,12.08,0,0,1,8.56,5.35c2.65,4.12,5.11,3.72,8.22.92a8.36,8.36,0,0,1,2.26-1.29c5.23-2,10.45-3.2,15.58.29,2.16,2.33,1.88,4-1,5.77-3.28,2-4.68,5.9-7.78,8.24-1.51,1.14-.94,3.19-.49,4.89.16,3.22.63,6.5-1.49,9.36A13.94,13.94,0,0,0,320.41,254c1.51,2.84-.68,4.12-2.45,5.36-8.09,5.68-25,4.49-32.21-2.22-1.53-1.42-3.1-2.9-1.92-5.33a22,22,0,0,0,3.34-13.54C287.88,236.88,286,235.66,286.84,234.22Z" style="fill:#e37222"/><path d="M325.79,214.13c-5.26-2.87-10.53-1.45-15.81-.07-1.11-2.55-1.1-2.64,1.84-5.14,7.65-6.48,16.25-10.94,26.29-12.35,1-.14,2-.41,3.05-.56a14.49,14.49,0,0,1,3.22-.2,8.26,8.26,0,0,1,4.68.91c15.12,9.15,20.25,23.43,20.7,40.15a15.4,15.4,0,0,0,.69,3c-.58,2.56-1.15,5.12-1.73,7.68-2,3.1-4.65,2.5-7.26,1a18.51,18.51,0,0,1-6.39-6.7c-6.7-10.69-14.46-20.28-26.47-25.48C327.51,215.93,326.91,214.67,325.79,214.13Z" style="fill:#f9c831"/><path d="M431.59,318.74c.22-3.39-1.79-2.73-4-2.5-19.17,2-36.47-3.15-52.19-14.06-.25-.17-.35-.56-.52-.85.59-3.7,2.54-1.1,3.65-.62,7.31,3.14,14,7.5,22.1,9.06,20.95,4,40.77,1.59,59.56-8.64.46-.25.92-.51,1.38-.74,1.17-.6,2.55-2.31,3.61-.89,1.24,1.66-1,2.13-2,2.9a61.29,61.29,0,0,1-25.09,12.26C435.49,315.26,432.49,315.37,431.59,318.74Z" style="fill:#55392e"/><path d="M309.83,152.43c1,1.19,2.26,2.22,2.28,4,.07,4.44,2.62,7,6.46,8.56,1.88.76,3.41,1.85,3.83,3.91,1,4.8,4.13,7,8.74,7.56,2.67,2.89,5.52,5.61,8.1,8.6.55,2,1.61,4,.28,6.12-7.8-3.31-16.93-4.15-22.29-12-.39-.57.25-.09-.33-.38-7.46-3.6-10-10.7-12.49-17.73-.86-2.38-2.6-2.24-4.55-2.51-2.69-.38-6.11.83-7.6-2.85l4.23-.32C301.39,156.42,305.6,154.39,309.83,152.43Z" style="fill:#f8cd4d"/><path d="M283.83,251.85c.77,4,4.21,5.38,7.28,6.71,8.8,3.8,17.66,4.13,26.32-.6,1.54-.84,2.91-1.92,3-3.92a9.76,9.76,0,0,1,1.84,1c2.47,2,8.2,3.39,7.14,5.56-1.87,3.83-5.63,8-10.48,8.6-13.29,1.66-25.14-1.87-35-11.36C281.81,255.74,281.11,253.89,283.83,251.85Z" style="fill:#c33d31"/><path d="M325.79,214.13c13.13,3.64,21.26,13.29,28.56,23.88,2,2.86,3.61,6,6.31,8.26,2.41,2,5,3.25,8.06,1.29-.5,5.05-3.68,4.92-7.1,3.36-3.78-1.72-6.2-5-8.15-8.54a66.35,66.35,0,0,0-19.32-21.56c-4.87-3.57-7.25-3.18-11.45,1.63-.11,2.15-2,2.88-3.24,4.15l-2.28,2.07c-.71,1,.09,2.32-.87,3.22-2-2.61-1-4.77,1-6.77,2.44-2.42,4.75-5,7.38-7.18C326.14,216.75,326.8,215.8,325.79,214.13Z" style="fill:#b46a2e"/><path d="M383.91,109.58c-.06,6.64-2.4,11.24-5.43,10.57-5.63-1.24-4.66-6.2-4.73-10.21-.06-3.45.36-6.38,2.45-7.73a4.36,4.36,0,0,1,1.53-.61,6.16,6.16,0,0,1,4.63,1.83,5.66,5.66,0,0,1,1.4,2.85Z" style="fill:#eeeae2"/><path d="M304.77,97.35h0c4.36.27,3.89,5.49,3.55,9-.28,2.94-.44,7.4-4.35,7.14a4.3,4.3,0,0,1-1.83-.62c-2.44-1.54-2.12-7.17-2.07-8.12.2-3.68,1.34-6.08,2.29-6.66A5.07,5.07,0,0,1,304.77,97.35Z" style="fill:#eae4df"/><path d="M316.31,231.89l.87-3.22c.07,1.56.27,3.12.2,4.68-.12,2.53.67,3.91,3.5,3.82,2.66-.07,5.09,1.07,7.39,2.29,1.28.67,3.71,1.13,3,2.92-.82,2.17-2.75.29-4-.13-4-1.35-7.89-2.74-12.1-1C314.12,238,317.77,235.23,316.31,231.89Z" style="fill:#573628"/><path d="M278.63,217.27l3.85,6.37c-5.91-.88-11.2.6-16.62,5.21,1.38-5.19,4.36-7.06,7.93-8.52C275.54,219.62,278.2,220.14,278.63,217.27Z" style="fill:#5d3829"/><path d="M286.84,234.22c.84,1.3,1.82,2.6.33,4.09-4.62-4.28-8.53-1.14-12.52,1.21-.93.54-1.8,2.25-2.94.76-.88-1.16.22-2.36,1.19-3,3.56-2.48,7.23-4.76,11.87-4.32Z" style="fill:#573527"/><path d="M319.46,226.6a5,5,0,0,1,3.24-4.15c5.77.93,10.93,2.9,14.13,8.55C331.47,227.58,325.75,225.86,319.46,226.6Z" style="fill:#583a2b"/><path d="M362.83,320.78c3.48.23,8.37-.77,8.62,4.18.24,4.78-5,3.5-7.73,3.89-4.29.6-8.5,1.43-12.72,2.34-1.83.39-4,.52-4.95-1.72-.83-2,.88-3.27,2.19-4.29A20.48,20.48,0,0,1,362.83,320.78Z" style="fill:#fcd462"/><path d="M342.37,334.63c-.32,2.46-2.16,3.42-4.29,3.71-1.91.26-2.9-1.07-2.83-2.87a3.92,3.92,0,0,1,3.87-4.07C341.21,331.23,342.28,332.47,342.37,334.63Z" style="fill:#fcd254"/><path d="M292.26,155.66a18.23,18.23,0,0,0,9.56,1.05c2.4-.49,3.15.47,4.23,2.94,2.58,5.89,2.05,14.15,10.67,16.11a1.78,1.78,0,0,1,1.16,1c2.13,7.37,9.29,7.58,14.71,10a32.46,32.46,0,0,1,6.85,4.33c3.78,1.06,3.72,3.37,2,6.21-10.48,2-20.31,5.41-28.42,12.69-1.28,1.15-3.45,1.68-3.06,4.1-1.21.94-2.46,1.83-3.62,2.83-2.41,2.1-4.26,2.28-6-1-2-3.76-6.16-5.3-9.07-8.16-6.13-5.78-13.79-8.37-21.71-10.43-.82-.21-1.6-.53-2.4-.79,1-4.19,1.79-8.46,3.13-12.54C274.28,172,280,161.29,292.26,155.66Z" style="fill:#f8b011"/><path d="M398.62,339.89l-3.21.88c-1.12-3-2-6-.3-9,3.18-1.1,3.74,1.52,4.77,3.41S400.85,338.78,398.62,339.89Z" style="fill:#592c14"/><path d="M370.77,392.12c10.75-2,18.29-8.78,25.13-16.66,4.16,1.69,8.53,3,12.44,5.16,6.48,3.55,6.53,7.73.33,11.59-6.61,4.13-14.17,5.65-21.68,7-17.73,3.19-35.68,2.69-53.54,2a125.43,125.43,0,0,1-37.08-7.47,12.12,12.12,0,0,1-2.24-1.31c-6.26-3.94-6.43-7.63-.3-11.8,2.11-1.44,4.64-2.24,7-3.33C321.27,395.8,344.72,400.09,370.77,392.12Z" style="fill:#b6bbbf"/><path d="M453.31,390c-2.09,8.1-9.44,10.87-15.56,14.38-11,6.29-23.38,9-35.66,11.39a252.47,252.47,0,0,1-51.41,4.19c-24.2-.4-48.32-2.2-71.52-10.05-7.93-2.68-15.72-5.72-22.28-11.1-2.23-1.83-4.94-3.39-5.47-6.67,17,11.41,36.47,14.82,56.15,17.63,22,3.13,44.14,2.95,66.2,1.92,24.14-1.14,48.24-3.59,70.37-14.91C447.63,395,450.24,392.21,453.31,390Z" style="fill:#b4b3ae"/><path d="M333.36,178.76a34,34,0,0,1,3.91,4.06c2.47,3.06,2.69,4.45,2.75,4.9a6.78,6.78,0,0,1-.5,3.42,88.76,88.76,0,0,0,44-14.24,87,87,0,0,1-50.19,1.86Z" style="fill:#b5b5b5"/></g></g></svg>