<svg xmlns="http://www.w3.org/2000/svg" viewBox="0 0 800 450"><g id="Capa_2" data-name="Capa 2"><g id="DiseñosMascotas"><rect width="800" height="379.16" style="fill:#f0c96f"/><rect y="378.43" width="800" height="71.57" style="fill:#d6a950"/><path d="M335.25,377.51c-1.4,1.29-3.13.87-4.75.88q-52,0-103.95,0c-1.82,0-4.63,1.1-4.13-2.66,4.28-20.15,12.18-38.92,21.15-57.36,7.76-15.93,15-32.11,19.95-49.22,2.68-9.24,2.66-18.55,2.46-28-.68-31.34.47-62.49,9.49-92.85,1.72-5.79,2.49-11.85,4.85-17.49,1.45-3.48-.19-6.16-2.85-8.38-4.92-4.09-9.55-8.42-12.77-14.08-4.8-8.41-2.78-13.71,6.41-16.59A52.31,52.31,0,0,1,290,89.4a11.33,11.33,0,0,0,8.64-3.15A109.46,109.46,0,0,1,343.36,62a7.94,7.94,0,0,0,1.49-.88c-4-3-7.9-5.69-11.06-9.26-1.57-1.78-3.75-3.57-2.56-6.31s3.82-2.55,6.28-2.66c9.05-.4,17.84,1.4,26.6,3.21,3.78.78,5.24-.06,5.11-4.21-.22-6.69,2.18-8.36,8.78-6.61,9.38,2.49,17.69,7.23,25.35,13,6.57,4.92,13.45,8.41,21.67,9.8,12.43,2.09,23.49,7.92,34.13,14.4,8.27,5,17.19,9.09,24.47,15.68,1.39,1.25,3,1.18,4.7,1.12A58.48,58.48,0,0,1,509.42,92c7.81,2.63,9.94,8,5.94,15.27a45.81,45.81,0,0,1-11.27,13c-5.36,4.47-5.47,6.44-3,13a188,188,0,0,1,11.25,50.41c1.83,20.57,2.73,41.18,3,61.85.32,26.53,8.59,50.88,21.55,73.81,3.58,6.33,7.16,12.68,9.78,19.49.29.78,1.13,1.54.3,2.47-2.05.89-3.82-.2-5.68-.76a120.33,120.33,0,0,0-70.63-.16,27.58,27.58,0,0,0-5.77,2.64c-4.62,2.63-7,6.33-6.72,11.87.27,5.91.94,11.75,1.73,17.6.28,2,1.23,4.17-.65,6L444,378.32a7.59,7.59,0,0,1-3.21-2.41c-5.61-8.06-13.94-13.19-21-19.64-1.82-1.87-3.3-4-5.26-5.78-3.82-4.49-6.63-9.42-6.62-15.54.29-6.71,1.84-7.62,8.1-4.79a39.91,39.91,0,0,0,5.4,2.44c-2-2.88-4.87-4.42-8.16-5.39-1.43-.42-3-.36-4.25-1.45a3.15,3.15,0,0,1-.6-1.92c1.11-4.15,3.08-7.67,7.15-9.62a43.48,43.48,0,0,1,16,6.55,13.15,13.15,0,0,0-9.33-6.51c-1.52-.35-3.48.07-4.14-2.06,1-3.13,3.87-3.55,6.38-4.4,5.53-1.88,11-1.29,16.31.88,1.63.87,3.42,1.34,5.07,2.16,11.31,5.87,21.75,13.15,32.55,19.88-7.14-7.41-15.8-12.75-24.62-17.88-2.46-1.43-5.34-2.34-6.3-5.49,1-6.6-3.77-10.84-6.56-15.9a16.55,16.55,0,0,1-1.14-7.87,74,74,0,0,1,12.52-43.47,79.59,79.59,0,0,0,12.2-29.73c3.47-18.92-10.36-38.19-29.38-40.95a87,87,0,0,0-12.7-.92c-21.86.05-43.72.22-65.58,0-17.18-.2-29,8.4-37.77,22.11a27,27,0,0,0-3.4,20.22,83.47,83.47,0,0,0,10.75,26.93,101.29,101.29,0,0,1,11.21,24.33c1.18,4.1,2.23,8.21,2.05,12.53-.38,1.93.13,4-.64,5.85-1.16,2.07-3.39,2.94-5.07,4.44-4.08,3.66-5.72,7.9-4.16,13.38.82,2.88,2.23,5.64,2.23,8.74-.17,2.35-2,3.15-3.75,4.11a185.14,185.14,0,0,0-24.92,16.51,14.49,14.49,0,0,0-3.72,4.05c10.58-7.28,21.09-13.72,31.85-19.74,1.45-.68,2.77-1.59,4.25-2.22,6.42-2.84,12.95-4.25,19.8-1.58a9.16,9.16,0,0,1,4.48,2.95c.74,2.95-1.65,2.76-3.26,3-3.76.6-6.68,2.38-9.54,6.25,5.74-3.35,10.78-5.71,16.6-5.59,2.25.52,3.61,2.09,4.73,4,1.16,2.1,2.35,4.2,1.15,6.7-1.29,1.59-3.27,1.38-5,1.88a13.23,13.23,0,0,0-7.2,5.62c2.54-1.32,4.87-3,7.71-3.62,3.26-.71,5.78-.24,6.19,3.76.33,6.7-2.61,12.16-6.56,17.24-2.22,2.39-4.64,4.61-6.87,7-7.36,6.16-14.86,12.17-21.15,19.5A2.54,2.54,0,0,1,335.25,377.51Z" style="fill:#280d02"/><path d="M420.42,355.37c8.54,7,17.66,13.33,23.62,22.95l-105.45.07c-1.18,0-2.47.31-3.34-.88,6-8.45,14-14.83,22.18-21,2.33-.54,4.06.91,5.88,1.89,18,9.64,35.61,9.14,52.93-1.67C417.52,355.89,418.75,355,420.42,355.37Z" style="fill:#ede3d9"/><path d="M338.43,274.84c-.77-12.26-5.39-23.18-11.67-33.53-5.6-9.22-10.44-18.76-12.47-29.49A30.71,30.71,0,0,1,318,189.51c8.72-14.43,21.19-22.54,38.4-22.63,24.43-.13,48.85-.47,73.27.49,22,.87,38.35,18.51,36.68,40-.93,11.87-5.68,22.67-12.19,32.39-9,13.46-13.1,28.12-13.25,44.1-3.54,0-2.88-2.91-3.21-4.86-1.23-7.27-4.65-12.34-12.49-13.37a7.06,7.06,0,0,1-2.93-1.15c-10.84-8.09-23.55-10.16-36.52-11.37a12,12,0,0,0-5.35.62c-3,.45-6-.46-9-.63-7.07-.4-12.24,2.55-16,8.35a33.44,33.44,0,0,1-3.15,4.42c-2.65,3.68-6.37,6.42-9,10.16-.92,1.33-1.82,3.38-3.6,3C337.47,278.62,339.29,276.17,338.43,274.84Z" style="fill:#eee5dc"/><path d="M441.28,310.11c-8.17-2.62-16.1-3.08-23.38,2.53-.17,1.25-1.2,1.59-2.13,2-3.28,2.25-4.47,6-6.61,9.1a11.62,11.62,0,0,1-3.88,3.07A253.2,253.2,0,0,0,382,342.16c4.16-.13,6.66-3.55,10.25-2.69,1.25.53,1.53,1.71,2,2.83,1.63,4,4.3,5.29,7.6,3.8a6.64,6.64,0,0,0,3.31-9c-.57-1.19-1.8-2.05-1.78-3.55.91-2.3,2.4-3.55,5-2.82.93,1.26.09,2.85.75,4.17-.06,6.06,3.58,10.55,6.57,15.31.11,2.16-1.67,2.72-3.08,3.46-15.2,7.95-30.47,8.13-45.73.18-1.53-.79-3.49-1.44-3.28-3.82,3.58-5.19,6.88-10.47,6.55-17.15.84-.9,0-2.25.85-3.15a43.4,43.4,0,0,0,10.27-6.45,30.9,30.9,0,0,1,11.18-5.78c9.27-2.68,9.65-3.16,9.63-12.72,1.06-3.11,4.17-3.15,6.52-4.37.9-.47,2.38-.9,1.95-2.1-.61-1.69-2.06-.62-3.09-.27-3.38,1.16-6,4.34-10,3.86-3.76-.75-7.55-.06-11.32-.26-4.75-.25-9.31-1-13.22-4-1-2.89,1.45-3.68,3.1-4.72a164.58,164.58,0,0,0,13.68-9.75c1.26-1,2.76-1.81,3.5-4C379,284.87,366,291.68,354.48,302.42c3.7-.47,6.16-3,9.34-2.12.73.36,1.34,1,1,1.74-1.35,3.36-1.72,7.06-3.62,10.22A1.61,1.61,0,0,1,360,312c-6.35-4.74-13.26-4.57-20.4-2.34-1.42.45-2.84.86-4.26,1.29-1.74-1.81-1.05-3.95-.82-6,2.14-19.49,20-38.31,38.93-42.28,4.13-.87,8.35-1.55,11.61-4.74,1.14-1.11,3.17-1.53,4.24-.53,4,3.7,9.33,3.08,14,4.66a66.93,66.93,0,0,1,13.33,5.71c4.43,2.49,7,7.2,11.5,9.62,5.14,4,7.33,10.11,10.81,15.31a44.7,44.7,0,0,1,3.86,13C443,307.26,443.81,309.29,441.28,310.11Z" style="fill:#edd7a6"/><path d="M416.55,269.09a133.84,133.84,0,0,0-22.48-7.94c-4.79-1.26-7.68-2.33-12.47.53-6.07,3.62-14,3.2-20.32,7.18-15.61,9.81-25,23.28-26,42.08a4.92,4.92,0,0,1-3.41,1.63c-2.3-1.48.11-3.75-.9-5.44l-2.1-6.88c-2.94-9.69-.29-15.3,9.19-19.4,6.5-3.33,11.42-8,13-15.46.84-1.23,1.73-2.43,2.52-3.69,5.49-8.8,11.93-11.65,22.05-9.76,1.47.27,3,.43,4.43.64a14.23,14.23,0,0,1,6.5,1.75c7.6,3.69,15.74,5.25,24.07,6.13a34.82,34.82,0,0,1,7.91,2c1.42.45,2.73,1.38,4.34,1.08a27.15,27.15,0,0,0,3,.85c8,1.37,12.31,6.26,13.31,15.24.18,1.57-.37,3.43,1.64,4.3q.6,4,1.18,7.92c-1.4,1.25-3.22.26-4.73.9-3.34-4.83-5.51-10.45-9.93-14.54a30.16,30.16,0,0,1-4.62-4.27c-.49-.52-1.2-1.07-.81-1.91s1.41-1,2.32-1c2.08,0,3.8,1.67,6.67,1.32-2.88-3-5.7-4.07-9.22-3.44C420.05,269.18,418.34,270,416.55,269.09Z" style="fill:#f6c653"/><path d="M509.67,267.08c-.7,3-1.73,5.77-2.41,8.71-1.36,5.95.08,11.08,3.5,15.86,1,1.36,2.08,2.61,3.16,3.88,9.37,11.05,8,22.61-3.79,31.19-.85-.28-.57-1-.39-1.44,3.51-9.47.9-17.44-5.69-24.65-5.33-5.83-7.85-12.65-5.32-20.53C500.57,274.4,504.78,270.47,509.67,267.08Z" style="fill:#7f614c"/><path d="M363.56,350c15.11,9.84,30.79,10.89,47,2.88,1.72-.85,3.81-1.08,5.13-2.7a20.16,20.16,0,0,1,4.77,5.19c-18.61,14.74-43.18,15.17-63,1.1Z" style="fill:#dab980"/><path d="M372.86,296.46a31.07,31.07,0,0,0,15.51,3.64c3.37-.14,6.93-.88,10.14,1A3.13,3.13,0,0,1,396,304c-9.09,2.68-15.5,9.79-23.61,14.1-1.56.83-2.93,2.29-4.95,1.24-1-1.45-1.9-3-3.46-4-1.88-.34-3.37-1-3.09-3.36-.55-4.06,2.66-7.22,2.7-11.14A9.14,9.14,0,0,1,372.86,296.46Z" style="fill:#e6ba75"/><path d="M367.39,319.3a40.48,40.48,0,0,0,11.6-7.22c5.94-5,13-7.44,19.52-11,3-1.64,6.08-3.26,9.1-4.92,2.15-1.17,4.24-1.33,5.21,1.26s-1,3.38-3,4.08c-2.39.83-5,1.24-7,3a16.89,16.89,0,0,1-6.25,6.36c-6.5,4.28-12.75,9-20.16,11.73-2.13.78-4,2.13-6,3.11a1.5,1.5,0,0,1-1.25-.23C369.38,323.21,368.3,321.28,367.39,319.3Z" style="fill:#9d5e21"/><path d="M323.91,140.89a16.46,16.46,0,0,1,4.3-6.92,102.19,102.19,0,0,0,10,4.5q2.6,1,5,1.79a22,22,0,0,1-1,9.58,14.24,14.24,0,0,1-4.6,7.26,7.88,7.88,0,0,1-4.74,2c-3.07,0-5.23-2.38-6.15-3.4C323.24,151.78,322.39,145.82,323.91,140.89Z" style="fill:#ece5d9"/><path d="M438.73,139.92l7.65-3,7.5-3a17.53,17.53,0,0,1,4.21,9.1c.65,4.95-.86,11.41-5.33,14.22a7.72,7.72,0,0,1-4.73,1.33,8.53,8.53,0,0,1-5.33-2.93C437.63,150.53,438.56,141.44,438.73,139.92Z" style="fill:#eae5d7"/><path d="M491.7,327.85c3.16-8.87-.21-14.88-5.08-20.84-6-7.33-4.11-15.26,4.34-21.34,1,1,0,1.95-.24,2.82-2,7.36.67,13.18,5.37,18.75C501.77,314,500.31,321.8,491.7,327.85Z" style="fill:#826551"/><path d="M331,307.13c1.23,1.65.57,3.63.9,5.44-1.91,3.06-5.51,3.49-8.25,5.28-7.32,4.78-14.7,9.45-22.08,14.13-1.33.84-2.5,2.38-4.65,1.3,2.58-5.22,7.18-8.37,11.75-11.36,6.92-4.54,13.42-9.79,21.17-13C330.39,308.69,330.63,307.74,331,307.13Z" style="fill:#5c3521"/><path d="M448.35,307.24c1,2.14,3,2.79,4.89,3.82,9.37,5.22,18.47,10.84,26.12,18.5a30.8,30.8,0,0,1,2.36,2.73c.12.15-.06.53-.21,1.64C469,327.2,458,318.47,445.6,312.1,445.86,310.11,445.61,307.83,448.35,307.24Z" style="fill:#57311f"/><path d="M408.19,331.18c-1.81.24-3.12,1.39-4.46,2.48-2.58,4.76-7.56,5-12,6.3-4.11,1.29-7.51,4.56-13.47,4.54,9.34-9.65,19.89-15.49,30.85-20.74.06.57.12,1.14.19,1.71C410.34,327.65,408.86,329.34,408.19,331.18Z" style="fill:#985d23"/><path d="M448.35,307.24c-1.34,1.38-.36,4.08-2.75,4.86l-4.32-2c.63-6.24-1.91-11.76-3.91-17.4.61-5.39,3.28.08,4.73-.9,1.33,1.61,2.67,3.21,4,4.83A11.25,11.25,0,0,1,448.35,307.24Z" style="fill:#b9772e"/><path d="M415.77,314.66a3.94,3.94,0,0,1,2.13-2c5.5-.47,10.07,1.6,14.07,5.17,1.26,1.11,2.77,2.6,1.42,4.24s-2.75-.21-3.82-1c-3-2.23-6.46-3.33-9.94-4.34C418.14,316.27,416.73,316,415.77,314.66Z" style="fill:#522e1f"/><path d="M360.84,312l3.09,3.36c-5.8,1.56-11.74,2.76-16.54,6.77a1.27,1.27,0,0,1-2-.1c-.69-.91-.11-1.81.4-2.47,2.65-3.42,5.76-6.19,10.31-6.74,1.31-.16,2.75.33,3.87-.79A2.48,2.48,0,0,1,360.84,312Z" style="fill:#593322"/><path d="M408.19,331.18c.28-1.92,0-4,1.15-5.71,5.88-.24,10.48,2.25,14.06,6.74.6.75,1.57,1.78.65,2.79s-2,.12-2.86-.36c-1.85-1-3.58-2.23-5.46-3.16-5.57-2.75-6.15-2.42-6.65,3.39C408.78,333.64,408.48,332.41,408.19,331.18Z" style="fill:#583524"/><path d="M369.21,325.51a5.56,5.56,0,0,1,.71,0c1.7,1.22,2.31,2.68,1,4.56l-.79,2.8c0-2.89-1.8-3-4-2.53-3.21.66-5.64,2.7-8.25,4.46-.75.51-1.56,1.85-2.68.62s-.32-2.24.5-3.18C359.27,328.12,363.25,324.81,369.21,325.51Z" style="fill:#56331f"/><path d="M351.13,265.39c.22,8.36-4.69,14.18-13,15.46l.33-6c.38,1.23.75,2.46,1.36,4.5C342.83,273.57,346.89,269.41,351.13,265.39Z" style="fill:#be8f4b"/><path d="M384.89,194.31c-3.8-.87-9.75-2.92-13.91-8.06-1.3-1.61-3.26-4.1-2.59-6.62.45-1.64,1.92-3,4.52-4.08a45.22,45.22,0,0,1,35,.07c3.6,1.49,4,3.2,4.12,4,.74,3.94-5.84,8.41-7.19,9.33-4.72,3.2-7.56,2.92-9,6.07-.79,1.67-1.1,4.15.06,5.29.84.82,2.17.67,3.38.57,0,0,1.73,0,9.78.1,2,0,3.57.12,4.94.2,3.27.18,4.91.28,6.58.53,4.18.63,8.36,1.71,8.36,1.71,1.8.46,2.66.74,3.41.24,1.48-1,.43-3.57,2-4.77a3.79,3.79,0,0,1,4.35.25c1.5,1.25.8,3.25.84,8.2.07,6.87,1.47,9.44-.14,10.63a3.84,3.84,0,0,1-4.31-.44c-1.21-1-1-2.47-1.45-3.58-1.08-2.9-6.09-3.37-14.48-4.22C407.5,208.55,403,208,397,208c-4.12,0-6.7.18-7.48.26-1.4.15-3.39.37-5.78.68-1.48.19-2.66.36-3.74.53-5.62.89-10.87,1.88-11.4,2-8.55,1.67-4.72,1.3-12.53,2.92-3.28.68-5.61,1.09-6.7,3s-.18,3.53-1.4,4.43-3.61.46-4.77-.9c-1.56-1.83.37-3.93.32-9.36,0-4.8-1.58-6.85-.13-8.37a3.61,3.61,0,0,1,4.13-.66c1.71,1.1.74,4.09,2.42,5,.9.51,2,.08,3.08-.3,2.79-1,5.8-1.27,8.61-2.23,2.21-.75,6.89-1.44,16.26-2.81,4.69-.68,7-.94,7.89-2.71S385.66,195.64,384.89,194.31Z" style="fill:#250c03"/><path d="M409.76,230.45c-9.47,15.08-33.73,11.92-39.79-.11,6.84,2.13,13.13,4.28,20,4.32S403,232.66,409.76,230.45Z" style="fill:#b39b85"/><path d="M385.78,255.22c-1.93-.78-4-1.2-5.65-2.64a62.28,62.28,0,0,1,37.92,7.71c1.7.95,3.27,2.14,4.9,3.21-1.18,1.43-2.41,1.29-3.68.12a77,77,0,0,0-22.55-5.89C393,257.39,389.59,255.36,385.78,255.22Z" style="fill:#c4965c"/><path d="M372.86,296.46l-9.32,4.36c-3.94.7-7.18,3.81-11.41,3.68-.39-2,1-2.75,1.91-3.63,11.35-10.63,25-17.37,39.18-23.29,1-.41,2.25-1,3,0,1,1.32-.43,2.23-1.26,3C388.11,286.59,380.5,291.55,372.86,296.46Z" style="fill:#985c24"/><path d="M370.9,330.05c-.33-1.52-.65-3-1-4.56.13-2.18,2-2.47,3.46-3a88,88,0,0,0,26.11-15.7,31.13,31.13,0,0,1,3.37-2.22c2.25,8.71.08,11.91-9,13.91-6.4,1.41-11.5,5.32-16.33,9.47A8.1,8.1,0,0,1,370.9,330.05Z" style="fill:#e6bc7b"/><path d="M391.78,340c3.28-3.43,8.48-3.24,12-6.3,4.08,2.89,4.92,7.41,2.08,11.18-3,4-7.67,4.41-11.48,1.55C392,344.62,393.9,341.57,391.78,340Z" style="fill:#e4bb7a"/><path d="M416.55,269.09c4.93-2.26,9.73-3,14.39.74,1.29,1,2.55,2,1.63,3.67s-2.69,1.16-4,.42a11.68,11.68,0,0,0-6.33-1.92l5.2,6.17C422.77,276.38,420.59,271.62,416.55,269.09Z" style="fill:#fcde7c"/><path d="M420.74,292.16a3.66,3.66,0,0,1-3.85,2.58c-.84,0-1.56-.39-1.38-1.29a3.33,3.33,0,0,1,3.55-2.77C420,290.67,420.81,291,420.74,292.16Z" style="fill:#8c602c"/><path d="M385.78,255.22c4.7-1.38,9.11.92,13.66,1.31a39.07,39.07,0,0,1,19.83,7.09c-10.39-2.9-21.71-1.86-31.49-7.38C387.13,255.87,386.45,255.56,385.78,255.22Z" style="fill:#b27423"/><path d="M459.25,378.44c-1.25-8.2-2.52-16.37-2.66-24.73-.08-5.21,2-8.58,6.15-11.23,6.67-4.24,14.15-6.09,21.8-7.12,17.53-2.38,35-2.41,52.3,2.06A51.29,51.29,0,0,1,547,341.27c3.45,2.3,7.44,4,7.4,9.32,0,2.27,2.28,3.16,4.37,2.93,14-1.52,21.33,10.63,17.24,22.69-.34,1-.6,2-.89,3-5.11,10.31-14.36,15-24.66,18.44-4.65,1.54-9.92,2.17-12.78,7-1.34,5.14-5.69,7.64-9.83,9.42-15.9,6.86-31.81,6.89-47.19-1.8-2.59-1.46-5.17-3.28-5.79-6.64C467.34,397.94,463.12,388.29,459.25,378.44ZM553.66,363l-8,23.06c13.11-2.24,21.59-8.24,21.42-13.39-.09-2.91-3-5.71-3.35-6.09A13.55,13.55,0,0,0,553.66,363Z" style="fill:#e2cbac"/><path d="M474.84,405.7c13,13,28.85,13,45.35,9.93,7.19-1.36,12.39-6.06,17.46-10.91,2.46,1.47,5.32,2.24,7.45,4.27,3.76,3.59,3.54,7.08-1.09,9.41a59.24,59.24,0,0,1-20,5.52c-13.86,1.66-27.72,1.67-41.46-1-5.29-1-10.68-2.07-15.22-5.44-4.23-3.13-4.39-5.92,0-8.82C469.58,407.22,472,405.72,474.84,405.7Z" style="fill:#b88b3d"/><path d="M548.61,352.85a19.25,19.25,0,0,1-9.3,5.46,124.92,124.92,0,0,1-66.1.32c-4-1.05-8.28-2.34-10.38-6.66.22-3.85,3.34-4.79,6.11-5.84a88,88,0,0,1,25.18-5.48c14.23-1,28.41-.64,42.3,3.2a32.35,32.35,0,0,1,9.6,4C547.72,349,549.69,350.18,548.61,352.85Z" style="fill:#7e4427"/><path d="M548.61,352.85c-.91-3.5-4.15-4.21-6.8-5.41-7.7-3.48-16-4.63-24.3-5.23-14.87-1.06-29.7-.48-44.13,3.94-3.91,1.19-7.89,2.32-10.55,5.82-1.63-2.14-.25-3.58,1.1-5.12,4.69-5.36,11.38-6.23,17.67-7.4a126.5,126.5,0,0,1,57.89,2.42,20.74,20.74,0,0,1,7.59,3.93C549.31,347.62,550.69,349.94,548.61,352.85Z" style="fill:#c9aa88"/></g></g></svg>