<svg xmlns="http://www.w3.org/2000/svg" viewBox="0 0 117.42 122.53"><g id="Capa_2" data-name="Capa 2"><g id="HOME"><g id="Capa_113" data-name="Capa 113"><path d="M92.71,122.41A10.41,10.41,0,0,1,87,119.89c-.39-.31-.84-1-1.29-.23-2.24,3.92-6,2.66-9.3,2.73-5.09-.43-8.46-3.58-11.5-7.24-.51-.61-.88-1.32-1.38-1.94a45.84,45.84,0,0,1-5.71-10.78,33.63,33.63,0,0,1-1.23-3.67,26.38,26.38,0,0,1-.91-3.15c-.5-1.6-.34-3.3-.85-4.9a22.33,22.33,0,0,1-.62-6.86,16.41,16.41,0,0,1,.15-3.57c.26-1.09.57-2.17.91-3.24a14.8,14.8,0,0,1,2-4.19c3.62-5.67,9.18-8.46,15.38-10.29a35.86,35.86,0,0,1,4.81-1.05,8.38,8.38,0,0,1,4.81-.18C84.79,63.77,85,66.8,84.48,70c-.71,1.14-1.76.83-2.76.58a16.21,16.21,0,0,1-3.06-1.31c-.69-.33-1.44-.49-1.88.32s.19,1.34.8,1.74a15.87,15.87,0,0,0,9.28,2.54,17.7,17.7,0,0,0,6.41-1.71,5.59,5.59,0,0,0,1.42-.87c.55-.48,1.16-1,.72-1.81s-1.24-.51-1.88-.16A12.88,12.88,0,0,1,90,70.82c-.81.16-1.69.64-2.44-.21a3,3,0,0,1,0-2.63,1.85,1.85,0,0,1,1.53-1c3.74,0,7.13-1.34,10.54-2.63,7.56,2.2,13.68,10.18,13.78,17.94.15,12.17-3.08,23.26-10.66,32.91C100.15,118.56,97,121.36,92.71,122.41Z" style="fill:#fe4755"/><path d="M64.08,113a21.93,21.93,0,0,0,12.32,9.43c-6.85,0-13.7.07-20.55.08q-24.85,0-49.7,0c-4.35,0-6.14-1.74-6.14-6.06Q0,66.36,0,16.29c0-3.61,1.1-5.07,4.27-5.89,6-.12,12.07,0,18.1-.07,1.1,0,2,.25,2.06,1.44.19,2.51.66,5.05-.46,7.49A4.65,4.65,0,0,1,20.8,20c-2.71,0-5.42,0-8.13,0-2.52.06-2.74.3-2.85,2.73,0,.64,0,1.27,0,1.91V108.3c0,4.27,0,4.28,4.37,4.28q23.07,0,46.12,0A13.8,13.8,0,0,1,64.08,113Z" style="fill:#e7834d"/><path d="M23.71,19.19c0-2.23-.05-4.46.07-6.68.09-1.62-.58-2-2.09-2-5.81,0-11.61-.06-17.41-.1,5.69-.51,11.4-.12,17.1-.21,1.24,0,2.23,0,2.78-1.5a2.66,2.66,0,0,1,2.76-1.5c2,0,4-.06,5.95,0,1.4.06,2.1-.33,1.94-1.85A18.9,18.9,0,0,1,34.8,3a2.62,2.62,0,0,1,3-2.93c2.7,0,5.39,0,8.09.05a2.65,2.65,0,0,1,1.6,2.67c0,.78,0,1.58.11,2.36A1.28,1.28,0,0,0,49,6.41c.89,0,1.21-.54,1.34-1.35.19-1.21-.28-2.57.78-3.59.84,1,.56,2.16.43,3.19-.28,2.23.68,2.83,2.68,2.55a12.77,12.77,0,0,1,2.14,0A4.14,4.14,0,0,1,59,11.36c.06,2.13.07,4.26,0,6.39a5,5,0,0,1-2.87,4.79,7.59,7.59,0,0,1-2.59.32q-12.6,0-25.19,0a6.22,6.22,0,0,1-2.81-.39C24.16,21.82,23,21,23.71,19.19Z" style="fill:#fee45a"/><path d="M62.59,10.18c5.64,0,11.27,0,16.91,0a4.86,4.86,0,0,1,2.79.32c-.48.62-1.11,1.14-.62,2.09.9,1.76.79,3.69.79,5.6q0,15.72,0,31.43a9.14,9.14,0,0,1-.33,3.53.9.9,0,0,1-1.53.3c-1.37-1.08-3-1.9-3.75-3.66-.52-3.47-.2-7-.24-10.44-.06-5.23,0-10.47,0-15.7,0-3.45,0-3.45-3.58-3.74-2.69.18-5.38.07-8.06.06a3.94,3.94,0,0,1-2.49-.64C61.43,16.27,61.15,13.21,62.59,10.18Z" style="fill:#e7834d"/><path d="M92.71,122.41c1.52-1,3.12-1.8,4.55-2.87,7.34-5.5,11.09-13.29,13.55-21.8a53,53,0,0,0,2-13.57c.22-8.52-3.9-14.25-11-18.31-.68-.39-1.33-.83-2-1.24-.06-.83.27-1.24,1.15-1,6.86,2.41,12.62,6.08,15.25,13.32,1.79,4.91,1.21,9.9.34,14.86-1.71,9.84-5.19,18.87-12.58,25.94C100.9,120.69,97.31,122.85,92.71,122.41Z" style="fill:#fb2b3a"/><path d="M81.66,53.69q0-18.88,0-37.77a6.28,6.28,0,0,0-2.41-5.13l3-.29A4.2,4.2,0,0,1,86,15c0,15,0,30-.05,45A12,12,0,0,1,81.66,53.69Z" style="fill:#d56e41"/><path d="M86.07,60.3a18.16,18.16,0,0,0,.82-1.94c1.69-5.64,5.73-8.56,11.3-9.43,2.09-.32,4.27-1.28,6.42-.08a4.12,4.12,0,0,0-1.81,3.37c-.94,7.46-5.63,12.23-12.9,13.32a3.6,3.6,0,0,1-2.56-.24C86.39,63.77,85.31,62.27,86.07,60.3Z" style="fill:#97da7c"/><path d="M86.07,60.3q.71,2.39,1.39,4.78c.71.85,1.19,1.74.45,2.83l-.07,2.88c-1.35,1-2.61,1.17-3.64-.45a16.79,16.79,0,0,0-1.94-8.7c-2-1.89-2.92-4.64-5.22-6.25-1.37-1.35-3.4-2-4.33-3.8a2.41,2.41,0,0,1,.07-1.79c2-1.83,2.8-1.77,4.52.29l4.36,3.6L86,60A.5.5,0,0,1,86.07,60.3Z" style="fill:#62c036"/><path d="M87.91,67.91l-.45-2.83C95.93,65,102.05,59.23,102.2,51c0-1.92.78-2.35,2.41-2.12,1.32,4.81,0,9.13-2.47,13.23a16.45,16.45,0,0,1-1.14,1.5l-1.15,1C96.25,67.11,92.08,67.52,87.91,67.91Z" style="fill:#82d261"/><path d="M62.59,10.18c0,3,0,6,0,9,.11,2.22-.93,3.34-3.36,3.52-1,.08-2.09.19-2.91-.68,2.75-3.47,2.75-11.32,0-14.79C61.09,6.94,61.67,7.22,62.59,10.18Z" style="fill:#fed81d"/><path d="M51.09,1.47c0,1.1-.08,2.2,0,3.3.14,1.69-.23,2.56-2.27,2.53s-2.11-1-2.07-2.49.37-3.33-.92-4.7C47.65.3,49.81-.82,51.09,1.47Z" style="fill:#fed81f"/><path d="M56.34,22c4.76.26,5.18.07,6.27-2.84l10.44.07c.9.87.83,2,.84,3.12,0,8,0,16.06,0,24.08a7.75,7.75,0,0,1-.78,3.45l0,1.74c1.4,3.27.69,6.66.57,10a1.82,1.82,0,0,1-1.07,1.47c-5.92,1.93-11.33,4.61-14.88,10a5.43,5.43,0,0,1-3.64.81c-5,0-10,0-15,0-.94,0-2.53-.37-2.58.94-.05,1.52,1.61,1.24,2.62,1.26,4.46.1,8.92,0,13.37.06,1.16,0,2.42-.22,3.38.75l-.93,2.87a4.25,4.25,0,0,1-3.15.76c-4,0-7.93,0-11.9,0a12.08,12.08,0,0,0-1.9.07c-.6.09-1.45,0-1.53.8-.09,1,.85,1,1.5,1.2a10.39,10.39,0,0,0,2.84.22c3.65,0,7.29,0,10.94,0,1.1,0,2.25-.1,3.15.76A40.84,40.84,0,0,0,55.47,91c0,1.9-1.5,1.57-2.53,1.6-4.29.13-8.58,0-12.87.06a12,12,0,0,0-2.61.17c-.56.12-1.13.3-1.15,1s.57.86,1.13,1a12.52,12.52,0,0,0,2.37.13c4.37,0,8.74,0,13.11,0,1.18,0,2.41-.13,3.39.79l.86,2.72c-.88,1.1-2.15.88-3.31.89-4.84,0-9.68,0-14.52,0-1.09,0-2.93-.37-2.91,1.14s1.85,1,2.93,1.06c5.16.08,10.32,0,15.48,0,1.18,0,2.4-.12,3.4.74,1.82,3.6,3.26,7.4,5.84,10.59-.67.86-1.62.5-2.45.51-16.65,0-33.31,0-50,.06-2.27,0-2.8-.74-2.79-2.88Q9,66.43,8.87,22.2c0-2.45.73-3.18,3.13-3.06,3.9.18,7.81.05,11.71.05a3,3,0,0,0,3.37,2.89Z" style="fill:#f3e8d2"/><path d="M58.24,102.37c-6.76,0-13.53,0-20.29,0-1.47,0-3-.14-2.91-2s1.62-1.86,3-1.86q8.12,0,16.24,0c1,0,1.9-.1,2.85-.15C57.53,99.75,57.88,101.06,58.24,102.37Z" style="fill:#e7844e"/><path d="M55.83,77.05,38.89,77a13.47,13.47,0,0,1-1.91,0c-1.13-.16-2-.78-1.95-2s.93-1.73,2.16-1.72c3.58,0,7.16,0,10.74,0h9.79Z" style="fill:#e7844e"/><path d="M56.31,95.73c-6.13,0-12.26,0-18.38,0-1.48,0-2.94-.13-2.89-2,.05-1.63,1.46-1.83,2.83-1.83q7.77,0,15.52,0c.79,0,1.85.4,2.08-.93Z" style="fill:#e7844e"/><path d="M84.2,70.34c1.12.88,2.42.35,3.64.45,1.94-.63,4-.9,5.7-2.26a1.6,1.6,0,0,1,2.51.21,1.74,1.74,0,0,1-.41,2.7,15.56,15.56,0,0,1-10.25,3.12A16.28,16.28,0,0,1,77.32,72c-1.07-.66-2.16-1.35-1.39-2.74s1.72-1.56,3.14-.55A7.7,7.7,0,0,0,84.2,70.34Z" style="fill:#e42940"/><path d="M54.85,83.76q-7.64-.06-15.26-.14a20.9,20.9,0,0,1-2.85-.21c-1-.15-1.85-.71-1.7-1.88a1.76,1.76,0,0,1,2-1.65c2.39,0,4.77,0,7.16,0l10.73,0C54.89,81.2,54.87,82.48,54.85,83.76Z" style="fill:#e7844f"/><path d="M72.6,63.14c1-2.76.26-5.61.46-8.41.07-1,0-2,0-3.07,1.29,1.33,3.16,1.93,4.33,3.42,1,2.38,1.26,4.75-.1,7.1Z" style="fill:#e4d5bd"/><path d="M77.33,62.18c0-2.37.07-4.73.1-7.1a14.11,14.11,0,0,1,4.83,6.56A24.09,24.09,0,0,0,77.33,62.18Z" style="fill:#e6834c"/><path d="M73.13,49.92q0-15.33-.08-30.65c.8,0,1.59,0,2.38-.09,1.45-.08,2,.65,2,2q-.08,14.43-.09,28.87C75.94,49.29,74.59,48.32,73.13,49.92Z" style="fill:#e4d5bd"/><path d="M52.51,35.44c4.85,0,9.7,0,14.55,0,1.29,0,2.54.14,2.62,1.72.09,1.75-1.26,2-2.61,2q-14.79,0-29.58,0c-1.33,0-2.5-.45-2.52-1.92s1.18-1.85,2.51-1.84C42.49,35.45,47.5,35.44,52.51,35.44Z" style="fill:#e7834e"/><path d="M52.34,58c-4.85,0-9.7,0-14.55,0C36.44,58,35,57.9,35,56.2s1.46-2,2.92-2H66.76c1.39,0,3,.08,2.91,2S68,58,66.65,58Z" style="fill:#e7844e"/><path d="M45.54,42.11c2.78,0,5.56,0,8.34,0,1.2,0,2.11.46,2.2,1.67s-.88,2-2.1,2.07q-8.46.07-16.92,0A1.89,1.89,0,0,1,35,43.75c.1-1.23,1.06-1.65,2.23-1.64C40,42.13,42.76,42.11,45.54,42.11Z" style="fill:#e7844f"/><path d="M45.44,64.63c-2.62,0-5.25,0-7.87,0-1.31,0-2.57-.22-2.6-1.75s1.24-2,2.66-2h16c1.35,0,2.49.51,2.49,2s-1.19,1.83-2.55,1.81C50.84,64.6,48.14,64.63,45.44,64.63Z" style="fill:#e7844e"/><path d="M16.27,57.06c1.36.2,2.07,1.26,2.83,2.12,1,1.19,1.79,1.16,2.84,0,1.59-1.78,3.35-3.4,5-5.11.95-1,2.08-1.48,3.1-.43s.44,2.16-.51,3.11c-2.42,2.41-4.84,4.81-7.19,7.29-1.21,1.28-2.31,1.21-3.48.08s-2.37-2.34-3.56-3.52a2.07,2.07,0,0,1,1-3.53Z" style="fill:#98da7c"/><path d="M20.65,102.91a6.6,6.6,0,0,1-1.5-.79c-1.35-1.24-2.67-2.5-3.91-3.84a1.91,1.91,0,0,1,.12-3c.93-.86,1.71-.33,2.49.35,2.87,2.46,2.88,2.45,5.49-.19l3.86-3.9A1.88,1.88,0,0,1,30,91.32a1.78,1.78,0,0,1,0,2.75c-2.65,2.74-5.34,5.44-8,8.13A5.37,5.37,0,0,1,20.65,102.91Z" style="fill:#98da7c"/><path d="M30.49,35.8a2,2,0,0,1-.75,1.7q-3.63,3.78-7.25,7.58c-1.23,1.29-2.44,1.26-3.68,0s-2.27-2.24-3.39-3.36c-.91-.92-1.17-2-.21-2.94s1.86-.5,2.77.24c2.93,2.4,3,2.39,5.59-.3,1.28-1.3,2.47-2.69,3.77-4a1.79,1.79,0,0,1,3.15,1.06Z" style="fill:#98da7c"/><path d="M30.5,73.75a1.89,1.89,0,0,1-.69,1.46Q26.18,79,22.57,82.79c-1.2,1.27-2.41,1.41-3.69.12s-2.39-2.34-3.56-3.53a1.87,1.87,0,0,1-.18-2.77c.84-.9,1.85-.63,2.76.11s1.75,2.57,2.8,2.29c1.21-.31,2.13-1.78,3.13-2.8,1.23-1.24,2.38-2.56,3.63-3.77a1.59,1.59,0,0,1,2-.4A1.79,1.79,0,0,1,30.5,73.75Z" style="fill:#98da7c"/></g></g></g></svg>