<svg xmlns="http://www.w3.org/2000/svg" viewBox="0 0 117.51 117.52"><g id="Capa_2" data-name="Capa 2"><g id="HOME"><g id="Capa_113" data-name="Capa 113"><path d="M58.73,0A58.76,58.76,0,1,1,0,58.61,58.79,58.79,0,0,1,58.73,0Z" style="fill:#fe4141"/><path d="M89.37,82.3a3.2,3.2,0,0,1-.81,2c-1.38,1.43-2.73,2.9-4.22,4.21s-3.1,1.16-5-.73c-6.23-6.21-12.52-12.36-18.61-18.7-1.68-1.75-2.5-1.5-4,.08-6,6.2-12.18,12.26-18.29,18.37-2.5,2.49-3.8,2.48-6.32,0-5.28-5.23-5.28-5.23,0-10.54C37.75,71.34,43.35,65.69,49,60.12c1.07-1,1.1-1.63,0-2.7-6.37-6.28-12.67-12.63-19-19-2.53-2.53-2.54-3.82-.06-6.31,5.27-5.33,5.27-5.33,10.53-.06,5.57,5.57,11.19,11.09,16.67,16.74,1.32,1.36,2,1.15,3.2-.07,6.21-6.33,12.51-12.57,18.79-18.84,2.4-2.39,3.73-2.38,6.15,0,.87.86,1.75,1.71,2.6,2.59,2,2,2,3.5,0,5.51-6.36,6.4-12.72,12.8-19.16,19.12-1.26,1.24-1.33,1.91,0,3.19,6.39,6.26,12.68,12.63,19,18.94A4.54,4.54,0,0,1,89.37,82.3Z" style="fill:#f6f6f6"/></g></g></g></svg>