<svg xmlns="http://www.w3.org/2000/svg" viewBox="0 0 42.55 46.56"><g id="Capa_2" data-name="Capa 2"><g id="HOME"><g id="Capa_113" data-name="Capa 113"><path d="M8.47,45.7C1.77,43.49-1.69,35.91.82,29A24.09,24.09,0,0,1,6,21.18a38.34,38.34,0,0,0,2.93-3.55A13.1,13.1,0,0,0,11.52,9c0-.45,0-.9,0-1.35,0-.07.07-.14.19-.36.57.53,1.14,1,1.66,1.54a28.8,28.8,0,0,1,6.38,9.34,16,16,0,0,1,.43,10.75c-.09.31-.46.71-.08,1s.68-.05,1-.2a10.27,10.27,0,0,0,4.27-4.41c2.51,3,3.06,11.1-1.33,15.85a17.37,17.37,0,0,1-4.62,3.65c-.57.31-1.21.68-1.38-.42.17-1.07.87-1.94,1-3.06a7.92,7.92,0,0,0-2.57-6.44,10.14,10.14,0,0,1-3.2-6.61C10.7,31,8.76,33.7,9.53,37.47c.09.42.33.94-.12,1.25s-.94,0-1.36-.3a3.42,3.42,0,0,1-.62-.52c-.19-.18-.31-.45-.72-.5-1.13,2.53-.39,4.78,1,6.93C8,44.76,8.6,45.05,8.47,45.7Z" style="fill:#f2811d"/><path d="M8.47,45.7a8.86,8.86,0,0,1-2.6-4.94,6.69,6.69,0,0,1,.81-4.24c.84.84,1.34,1.88,2.75,2.17-1.37-4.68.81-8,4.12-11.21a8.85,8.85,0,0,0,2.72,6.67,14.45,14.45,0,0,1,1.12,1.34c2.28,2.77,2.75,5.7.84,8.86A3.2,3.2,0,0,1,16.34,46,11.46,11.46,0,0,1,8.47,45.7Z" style="fill:#f7d95c"/><path d="M16.34,46l1.89-1.66c.25,1,.84.43,1.2.19a20.86,20.86,0,0,0,3.63-2.7c.28-.28.51-.64,1-.71A12.18,12.18,0,0,1,16.34,46Z" style="fill:#e57b12"/><path d="M25.54,2.57A10.23,10.23,0,0,1,40,17,10.49,10.49,0,0,1,25.44,2.82.77.77,0,0,0,25.54,2.57Z" style="fill:#f6616c"/><path d="M25.54,2.57c.31.37-.07.62-.2.88A10.76,10.76,0,0,0,24.26,8.2a10.35,10.35,0,0,0,8.74,10,11,11,0,0,0,6.26-1c.22-.1.43-.41.72-.11a9.93,9.93,0,0,1-5.62,3.3l-.6.17a10.86,10.86,0,0,1-7.67-2,10.28,10.28,0,0,1-2-14.4c.17-.22.33-.44.49-.67Z" style="fill:#e93d53"/><path d="M30.84,7.35c0-.94,0-1.89,0-2.83a1.47,1.47,0,0,1,1.5-1.59,1.46,1.46,0,0,1,1.42,1.58c0,1.88,0,3.77,0,5.65a1.45,1.45,0,0,1-1.45,1.55,1.46,1.46,0,0,1-1.47-1.53C30.82,9.24,30.84,8.29,30.84,7.35Z" style="fill:#fefefe"/><path d="M32.3,17.57a1.47,1.47,0,1,1,.05-2.93,1.47,1.47,0,0,1-.05,2.93Z" style="fill:#fefcfd"/></g></g></g></svg>