<svg xmlns="http://www.w3.org/2000/svg" viewBox="0 0 137.98 114.25"><g id="Capa_2" data-name="Capa 2"><g id="HOME"><g id="Capa_115" data-name="Capa 115"><path d="M0,72.29c0-19-.06-38.07,0-57.1C.05,7.22,7.24.05,15.22,0Q60.34,0,105.46,0c8,0,15.21,7.12,15.24,15.1.07,16.34,0,32.68,0,49-3.1.23-5.86-1.37-8.88-1.58-3.59-2.35-5.86-6-8.66-9.08C97.45,47.18,91.93,40.7,86.3,34.33c-3.69-4.18-9.2-3.82-12.87.42C64.59,45,55.64,55.11,46.74,65.29a2.51,2.51,0,0,1-2,1.21c-2.82-1.84-4.56-4.73-6.84-7.1S33.51,54.47,31.35,52a8.55,8.55,0,0,0-13.11.64C13.17,59,7.53,64.87,2.26,71.06,1.69,71.73,1.12,72.5,0,72.29Z" style="fill:#d4d9dc"/><path d="M44.8,66.21Q54.86,54.83,64.94,43.45c2.74-3.09,5.42-6.23,8.15-9.33,4.21-4.79,9.81-4.73,14.14.19q11.83,13.44,23.61,26.93c.24.26.52.48.78.72.9.84,2.78,1.06,1.92,3-2.12.71-4.38.73-6.54,1.32A24.53,24.53,0,0,0,89.14,88.63c0,1.05.17,2.18-.77,3l-53.29-.11c-4.91-.17-6.85-7.42-3-11.65C35,76.64,37.76,73.19,40.8,70,42.07,68.7,42.77,66.75,44.8,66.21Z" style="fill:#256f3a"/><path d="M88.37,91.64C88.7,78.71,94.39,70,105,66.16a29.27,29.27,0,0,1,8.65-1.55c2.62-1.27,4.93-.54,7.09,1.11,9.07,3.58,15,9.81,16.86,19.63A24.74,24.74,0,0,1,96.78,108,25.94,25.94,0,0,1,88.37,91.64Z" style="fill:#4db0fe"/><path d="M44.8,66.21C41,70.63,37.33,75.13,33.43,79.44c-4.21,4.66-3.72,8.86,1.65,12.09-6.79,0-13.59.23-20.37,0C6.81,91.35.24,84.49,0,76.58c0-1.43,0-2.86,0-4.29,5.75-6.5,11.54-13,17.21-19.5,5.29-6.11,10.34-6.21,15.72-.11C36.94,57.17,40.86,61.7,44.8,66.21Z" style="fill:#5dc022"/><path d="M120.73,65.72l-7.09-1.11c-.67-.88-1.35-1.76-2-2.65a25.51,25.51,0,0,1,9.08,2.19Z" style="fill:#c7ccce"/><path d="M55,23.72a10.55,10.55,0,1,1-10.6-10.6A10.65,10.65,0,0,1,55,23.72Z" style="fill:#feb200"/><path d="M115.34,86.22c0,4.09,0,7.58,0,11.06,0,1.51-.38,2.84-2.07,2.89-1.88.06-2.28-1.34-2.26-3,0-3.48,0-7,0-10.47-1.12,0-1.48.89-2,1.4-1,1-2.22,1.38-3.33.36s-.79-2.27.22-3.3q2.82-2.88,5.68-5.72a2.05,2.05,0,0,1,3.28.05c1.83,1.84,3.65,3.69,5.49,5.52,1,1,1.51,2.19.48,3.31s-2.4.82-3.5-.29C116.83,87.59,116.31,87.13,115.34,86.22Z" style="fill:#fefefe"/></g></g></g></svg>