<svg xmlns="http://www.w3.org/2000/svg" viewBox="0 0 131.38 107.79"><g id="Capa_2" data-name="Capa 2"><g id="HOME"><g id="Capa_113" data-name="Capa 113"><path d="M.15,96.84q0-34.53,0-69.06a3.43,3.43,0,0,1,2.58-.91c11.6,0,23.2-.09,34.79,0a4.37,4.37,0,0,1,1.25.21c2.1,1.19.3,2-.39,2.62a49.76,49.76,0,0,0-9.29,11.16,42.22,42.22,0,0,0,6.2,51c1.2,1.21,2.44,2.38,3.61,3.61.63.66,1.19,1.38-.11,2a57.76,57.76,0,0,1-8.42.2q-13.29,0-26.58,0C2.52,97.63,1.18,97.91.15,96.84Z" style="fill:#828282"/><path d="M39.58,27.79H.13A9.07,9.07,0,0,1,9.31,17c1.29,0,1.44-.92,2-1.58,2.79,1.26,5.76.53,8.64.78,7.86-.19,15.72-.16,23.58,0,2.91.12,5.9-.7,8.7.74q22.83,0,45.66.07c1.68,0,2.24-.53,2.2-2.2,0-1.49-.42-3,.34-4.5,1.14.83,1,2.11,1,3.24-.08,2,.89,2.65,2.75,2.61,2.61-.06,5.23,0,7.84,0a3.68,3.68,0,0,1,2.84.78L117,17c5.23,2.14,7.38,6.23,5.71,10.88a2.48,2.48,0,0,1-.81.45c-3.21.54-6.45.25-9.67.25-6.63,0-13.26.18-19.89-.12A3.31,3.31,0,0,1,91,28.22a42.83,42.83,0,0,0-24-8.35,41.28,41.28,0,0,0-22.06,5.55c-1.41.79-2.79,1.64-4.14,2.53A1.24,1.24,0,0,1,39.58,27.79Z" style="fill:#e1e1e1"/><path d="M117,107.66q-54.12,0-108.24,0A8.83,8.83,0,0,1,.13,97.39a6.29,6.29,0,0,1,2.76-.21c12.07,0,24.14,0,36.2,0A4.19,4.19,0,0,1,40.5,97c4.15,2.35,8.23,4.85,12.9,6.13,11.75,3.23,23,2.24,33.6-4a16.47,16.47,0,0,1,9.13-2.55c7.68.19,15.37,0,23.05.07a6.64,6.64,0,0,1,3.27.39c1.94,3.44,0,8.56-3.8,10A7.75,7.75,0,0,0,117,107.66Z" style="fill:#e1e1e1"/><path d="M131.27,27.78l0,69.08a11.59,11.59,0,0,1-8.83.09,3.84,3.84,0,0,1-.72-2.66c0-16.66-.16-33.31.08-50-.14-2.46-.1-4.92,0-7.38,0-2.11-.1-4.22,0-6.33a3.63,3.63,0,0,1,.89-2.82l-.07-.11A9.76,9.76,0,0,1,131.27,27.78Z" style="fill:#5a5a5a"/><path d="M52.22,16.91l-8.61,0c-1.54-1-1.35-2.66-1.72-4.1-.7-2.81-1.13-3.25-4-3.28q-6.27-.08-12.54,0c-2.87,0-3.23.4-3.93,3.28-.36,1.47-.31,3.11-1.77,4.11-2.28,0-4.56-.06-6.84,0-1.26.06-1.67-.43-1.54-1.58.68-3.08,1.29-6.18,2.06-9.24A7.65,7.65,0,0,1,21.14,0q10.5-.08,21,0a7.63,7.63,0,0,1,7.79,6.12C50.81,9.71,51.47,13.32,52.22,16.91Z" style="fill:#5a5a5a"/><path d="M122.65,96.83l8.64,0,0,.56a10,10,0,0,1-8.72,0c-8.61,0-17.22.19-25.81-.1a17.8,17.8,0,0,0-10.2,3,38.05,38.05,0,0,1-17.85,5.32A43.92,43.92,0,0,1,47.87,102a28,28,0,0,1-7.33-4.5,2.86,2.86,0,0,1,2.58-.79c9.31.09,18.62-.2,27.92-.14,4.3-.71,8.64-.48,13-.51,2.63,0,5.27-.1,7.9,0,8.85-.12,17.71-.06,26.56-.06C119.9,96,121.39,95.85,122.65,96.83Z" style="fill:#cdcdcd"/><path d="M114.8,16.92c-4.13,0-8.27,0-12.41.06-1.42,0-2-.46-1.9-1.89.07-1.6,0-3.21-.07-4.81.35-1.31,1.3-1.66,2.53-1.65,3.08,0,6.15,0,9.22,0a2.34,2.34,0,0,1,2.68,2.66C114.85,13.17,114.82,15,114.8,16.92Z" style="fill:#fc8087"/><path d="M131.27,27.78l-8.69-.09c.79-5-1.6-8.25-5.58-10.71l5.61,0C127,17,132.12,20.47,131.27,27.78Z" style="fill:#cdcdcd"/><path d="M122.59,97.43h8.72c.73,6.35-3.92,11.09-10.27,10.28a32.34,32.34,0,0,0-4.06,0C120.94,105.39,123.34,102.28,122.59,97.43Z" style="fill:#cdcdcd"/><path d="M39.58,97.39H.13c0-.18,0-.36,0-.55l39.43,0,.17.27Z" style="fill:#cdcdcd"/><path d="M39.58,27.79l1-.16A5.12,5.12,0,0,1,42.53,27c5.7-.08,11.41-.09,17.12,0,.74,0,1.57,0,1.94,1-.52,1-1.55.93-2.42,1.13C43,32.85,32.35,45.21,31.75,61.71a31.92,31.92,0,0,0,7.77,22.2A33.11,33.11,0,0,0,57.79,95.38c1,.26,2.19.19,3.16,1.8-7.41-.14-14.4.23-21.41-.23l0-.09C27,86.68,21.15,73.41,22.79,57.35c1.21-11.93,7-21.69,16.48-29.15A1.84,1.84,0,0,0,39.58,27.79Z" style="fill:#5a5a5a"/><path d="M16.58,85.69a4.13,4.13,0,1,1,0-8.26A4.49,4.49,0,0,1,21,81.73,4.15,4.15,0,0,1,16.58,85.69Z" style="fill:#fb8086"/><path d="M38.89,84.16c-10.68-11.71-10.38-32,.59-44.42A37.61,37.61,0,0,1,61,27.63H40.59c3.4-3.25,7.67-5,12-6.37,12.79-4,24.92-2.3,36.32,4.71a5.43,5.43,0,0,1,1.9,1.66,2,2,0,0,1-1.79.79c-5.92,0-11.86.45-17.25-.46,4.87.2,9.61,2.25,14,5.23a6.79,6.79,0,0,1,2.5,2.49A40.79,40.79,0,0,0,90.42,40c3.23,6.21,3.64,12.86,3.08,19.66a3.59,3.59,0,0,1-1.27,2.94c-1.42-.46-1-1.76-1.18-2.73A26.37,26.37,0,0,0,82.19,43c-10.65-8.32-24.72-7.91-34.08,1.06a25.43,25.43,0,0,0-2.47,34,25.11,25.11,0,0,0,16.92,9.58c1,.12,2.26.14,2.72,1.45a2.63,2.63,0,0,1-2.19,1.09C54.25,91.27,46.05,89.8,38.89,84.16Z" style="fill:#cdcdcd"/><path d="M122.65,96.83l-30.82,0c.77-2.31,2.89-3.47,4.45-5.08a40,40,0,0,0,11.2-22c2.49-15.69-2.3-28.9-14-39.66-.72-.65-1.81-1.1-1.69-2.37h30.82l-.13,9.25c-4.34.44-8.69,0-13,.22-2.44.11-2.95.68-3,3.13,0,2.71.51,3.3,3.24,3.41,4.26.18,8.52-.25,12.78.19q0,20.41.1,40.83Z" style="fill:#828282"/><path d="M91.83,27.79c8.24,6.72,14.08,15,16.1,25.57,2.77,14.49-.51,27.48-10.72,38.43-1.68,1.8-3.58,3.39-5.38,5.07-5.83,0-11.66.08-17.49.15-.9,0-1.86-.28-2.72.27-.79-.08-1.2-.39-.5-1.08.5-.5,1.26-.47,1.91-.63C87.89,92,97.68,80.93,99.41,65.68c1.2-10.6-2.45-19.55-9.5-27.31a13,13,0,0,1-2.12-2.54C84,32.18,79.12,30,70.42,27.63H90.84Z" style="fill:#5a5a5a"/><path d="M19.68,16.94c.44-1.9.95-3.79,1.3-5.71a2.82,2.82,0,0,1,3.13-2.64c5,0,10,0,15.06,0a2.87,2.87,0,0,1,3.17,2.63c.38,1.92.84,3.81,1.27,5.72Z" style="fill:#98e5fb"/><path d="M87.79,35.83c7.09,5.53,11,12.92,12.24,21.7,2.88,19.85-11.58,36.56-28.16,39-.72.11-.55.41-.25.8l-26.75.16c-1.44,0-2.89,0-4.33,0l-1-.1c0-.15,0-.29,0-.44H60c-8.43-2-15.76-5.72-21.06-12.79,3.93,1.59,7.52,4,11.8,4.76,4.86.86,9.7,1.58,14.51-.22a4.87,4.87,0,0,1,3.31-1.08c10.75-.84,21-10.13,22.47-22,.12-1-.07-2.26.93-3.06A31.54,31.54,0,0,0,90,41C89.27,39.25,88,37.76,87.79,35.83Z" style="fill:#bebebe"/><path d="M122.52,44a3.88,3.88,0,0,1-2.41.7q-5.88,0-11.76,0c-1.81,0-2.67-.85-2.66-2.64v-.77c-.06-4.93-.06-4.93,5-4.93,3,0,6,0,9,0a4.46,4.46,0,0,1,2.91.7A25.28,25.28,0,0,1,122.52,44Z" style="fill:#fee077"/><path d="M45.16,78.48C34,63.64,40.17,43.16,57.83,37.53c9-2.85,17.45-1.17,24.81,5A31.35,31.35,0,0,1,86,52.09c2.22,14.12-7.29,28-21.4,30.37C57.77,83.62,51,83.05,45.16,78.48Z" style="fill:#98e5fb"/><path d="M45.16,78.48c3.1,1,5.89,2.7,9.14,3.28C70,84.55,82.91,74.36,85.24,60.34a25.89,25.89,0,0,0-2.51-16c-.27-.55-.92-1.16-.09-1.8,6.17,5.26,9,12,9.27,20C91.22,77.71,80.76,87.94,65.2,88.7,57.12,88,50.23,85,45.16,78.48Z" style="fill:#62dafa"/></g></g></g></svg>