<svg xmlns="http://www.w3.org/2000/svg" viewBox="0 0 125.26 118.17"><g id="Capa_2" data-name="Capa 2"><g id="HOME"><g id="Capa_123" data-name="Capa 123"><path d="M62.69,118.14c-14.36,0-28.71,0-43.07,0-10.36,0-17.7-6-19.39-15.73-.79-4.55.52-8.67,2.69-12.64q15.81-29,31.54-58Q40.3,21,46.12,10.3C49.68,3.7,55.17,0,62.66,0s13,3.69,16.56,10.28c14.46,26.63,28.86,53.3,43.47,79.86,6,11,.67,22.48-8,26.1a25.89,25.89,0,0,1-9.48,1.81C91.07,118.24,76.88,118.14,62.69,118.14ZM70,55.69c0-5.79,0-11.57,0-17.36,0-5-2.87-8.28-7.29-8.3s-7.37,3.21-7.37,8.21q0,17.37,0,34.74c0,5,2.95,8.32,7.28,8.35S70,78,70,73.06C70,67.27,70,61.48,70,55.69Zm0,40.42A7.32,7.32,0,0,0,55.35,96,7.32,7.32,0,0,0,70,96.11Z" transform="translate(0 0)" style="fill:#260b01"/></g></g></g></svg>