<svg xmlns="http://www.w3.org/2000/svg" viewBox="0 0 35.5 35.59"><g id="Capa_2" data-name="Capa 2"><g id="HOME"><g id="Back_Home" data-name="Back Home"><path d="M3.17,21H32.33c0,.23.05.44.05.65q0,6.43,0,12.88c0,.94-.12,1.06-1.08,1.06q-13.52,0-27,0c-1,0-1.11-.12-1.11-1.11V21Zm23.48,7.62h0c-.84,0-1.68,0-2.52,0a1.21,1.21,0,0,0-1.27,1.27c0,.82,0,1.64,0,2.45a1.24,1.24,0,0,0,1.3,1.33c1.66,0,3.32,0,5,0a1.24,1.24,0,0,0,1.33-1.37c0-.76,0-1.53,0-2.3a1.23,1.23,0,0,0-1.36-1.4C28.29,28.59,27.47,28.61,26.65,28.61Z" style="fill:#efb920"/><path d="M17.79,19.72H1.05a5.8,5.8,0,0,1-.59,0c-.46-.05-.6-.32-.31-.66,1.24-1.42,2.49-2.83,3.77-4.21a1.14,1.14,0,0,1,.75-.2q13.1,0,26.19,0a1.63,1.63,0,0,1,1.06.5C33,16.28,34,17.46,35,18.64a4,4,0,0,1,.46.87,4.16,4.16,0,0,1-.9.2Z" style="fill:#efb920"/><path d="M18.4,13.34H16c-2.28,0-4.56,0-6.84,0A1,1,0,0,1,8.41,13a14.34,14.34,0,0,1-2-8.91A6.7,6.7,0,0,1,6.67,3C7.49.31,9.64-.67,12.2.49a12.08,12.08,0,0,1,5,4.82,6.34,6.34,0,0,1,1.2,4.18C18.31,10.74,18.4,12,18.4,13.34ZM10.51,12A1.28,1.28,0,0,0,11,12c1.71-.78,3.43-1.53,5.11-2.38a1.8,1.8,0,0,0,.69-2.35,1.8,1.8,0,0,0-2.28-1c-1.71.72-3.39,1.51-5.05,2.34a1.79,1.79,0,0,0-.82,2.13A1.92,1.92,0,0,0,10.51,12ZM9.74,6.78A11,11,0,0,0,13.21,5a1.81,1.81,0,0,0,.17-2.21A1.78,1.78,0,0,0,11.26,2,23.08,23.08,0,0,0,8.44,3.3a1.81,1.81,0,0,0-.77,2.14A2,2,0,0,0,9.74,6.78Z" style="fill:#efb920"/><path d="M27.28,9.59v3.69H19.75V9.59Z" style="fill:#efb920"/><path d="M22.28,2.59h2.44a3.07,3.07,0,0,1,.05.59,3,3,0,0,0,1.6,3.1,1.61,1.61,0,0,1,.88,2h-7.5a1.56,1.56,0,0,1,.49-1.68C22.07,5.06,22.06,5.05,22.28,2.59Z" style="fill:#efb920"/><path d="M21,1.21c-.11-1,.05-1.2,1-1.2h3c1,0,1.1.15,1,1.2Z" style="fill:#efb920"/><path d="M26.65,28.61c.82,0,1.64,0,2.45,0A1.23,1.23,0,0,1,30.46,30c0,.77,0,1.54,0,2.3a1.24,1.24,0,0,1-1.33,1.37c-1.65,0-3.31,0-5,0a1.24,1.24,0,0,1-1.3-1.33c0-.81,0-1.63,0-2.45a1.21,1.21,0,0,1,1.27-1.27c.84,0,1.68,0,2.52,0ZM29.2,29.9h-5v2.44h5Z" style="fill:#efb920"/><path d="M10.31,10.8c-.12-.13-.4-.29-.43-.5a.77.77,0,0,1,.26-.68c1.53-.75,3.08-1.48,4.65-2.16a.82.82,0,0,1,.72.29.8.8,0,0,1-.15.76c-1.58.78-3.18,1.51-4.77,2.25A2.77,2.77,0,0,1,10.31,10.8Z" style="fill:#efb920"/><path d="M9.5,5.58c-.21-.18-.51-.31-.56-.51a.74.74,0,0,1,.21-.69,20.78,20.78,0,0,1,2.49-1.15.74.74,0,0,1,.64.32.71.71,0,0,1-.11.7C11.33,4.72,10.45,5.12,9.5,5.58Z" style="fill:#efb920"/></g></g></g></svg>