<svg xmlns="http://www.w3.org/2000/svg" viewBox="0 0 35.71 35.71"><g id="Capa_2" data-name="Capa 2"><g id="HOME"><g id="Back_Home" data-name="Back Home"><path d="M21.82,23.82H13.89v3.95c0,1.87,0,3.73,0,5.6a2,2,0,0,1-2.35,2.33c-3.07,0-6.13,0-9.2,0A2.06,2.06,0,0,1,0,33.35c0-6.21,0-12.41,0-18.61a2.53,2.53,0,0,1,1-2.18Q8.65,6.67,16.22.75c1.31-1,2-1,3.28,0q7.5,5.84,15,11.66a2.82,2.82,0,0,1,1.19,2.44c0,6.09,0,12.19,0,18.29,0,1.87-.68,2.54-2.56,2.54H24.26c-1.72,0-2.43-.71-2.44-2.45C21.8,30.15,21.82,27.06,21.82,23.82Z" style="fill:#efb920"/></g></g></g></svg>