<svg xmlns="http://www.w3.org/2000/svg" viewBox="0 0 32.6 34.06"><g id="Capa_2" data-name="Capa 2"><g id="HOME"><g id="Back_Home" data-name="Back Home"><path d="M32.6,11.82a8.4,8.4,0,0,1-.88,1.47c-.6.67-1.57,1.13-1.91,1.9s0,1.77-.13,2.66a1.65,1.65,0,0,0,.71,1.7,12.87,12.87,0,0,1,1.29,1.16,2.14,2.14,0,0,1,.44,2.87q-1.11,2-2.26,3.91a2.14,2.14,0,0,1-2.71,1.06c-.74-.23-1.46-.51-2.21-.69a1.24,1.24,0,0,0-.84.13c-.78.41-1.55.85-2.29,1.33a1.22,1.22,0,0,0-.51.67c-.22.72-.36,1.46-.52,2.2a2.17,2.17,0,0,1-2.3,1.87H14a2.16,2.16,0,0,1-2.23-1.8,7.12,7.12,0,0,0-.62-2.48c-.44-.64-1.44-.86-2.08-1.4a2,2,0,0,0-2.29-.29A10.94,10.94,0,0,1,5,28.62a2,2,0,0,1-2.29-.95Q1.48,25.57.29,23.42a2.06,2.06,0,0,1,.43-2.61c.68-.66,1.65-1.19,2-2s0-1.82.09-2.75a1.42,1.42,0,0,0-.57-1.42c-.51-.39-1-.86-1.43-1.3a2.14,2.14,0,0,1-.45-2.87c.74-1.31,1.5-2.61,2.26-3.91A2.13,2.13,0,0,1,5.34,5.52c.74.22,1.47.5,2.22.68a1.21,1.21,0,0,0,.83-.13c.79-.41,1.55-.85,2.3-1.33a1.32,1.32,0,0,0,.51-.67c.21-.72.35-1.46.52-2.19A2.15,2.15,0,0,1,14,0h4.52A2.13,2.13,0,0,1,20.76,1.8a7.59,7.59,0,0,0,.62,2.48c.45.64,1.45.86,2.08,1.4a2,2,0,0,0,2.29.3,10.54,10.54,0,0,1,1.65-.52,2,2,0,0,1,2.35.92Q31,8.5,32.21,10.64A8.52,8.52,0,0,1,32.6,11.82ZM16.29,10a7.08,7.08,0,1,0,7,7.14A7.05,7.05,0,0,0,16.29,10Z" style="fill:#efb920"/></g></g></g></svg>