<svg xmlns="http://www.w3.org/2000/svg" viewBox="0 0 256.11 256.15"><g id="Capa_2" data-name="Capa 2"><g id="NewIcons"><path d="M117.28,256.15v-6.44q0-43.25,0-86.49c0-10.35-3.47-13.82-13.78-13.83q-23.49,0-47,0c-10.21,0-13.68,3.54-13.68,13.92q0,43.24,0,86.49V256c-8,0-15.5.29-22.94-.1-5.06-.27-8.66-4.55-9-9.75-.19-2.65-.09-5.33-.09-8V128.09c13.08,0,25.81-.2,38.53.06,9.35.2,17.84-1.77,25.43-8.19,8.57,7.77,19,8.39,29.9,8.2q25.25-.42,50.49,0c9.66.16,18.55-1.52,26.33-8.24,8.07,7.25,17.74,8.5,28,8.24,11.77-.31,23.55-.07,35.91-.07v3.73q0,55.25,0,110.49c0,10.41-3.4,13.83-13.72,13.83H117.28Zm58.65-53.31c8.5,0,17,.1,25.49,0,7.75-.11,11.77-4.12,11.85-11.7q.14-15,0-30c-.07-7.39-4-11.62-11.35-11.68q-25.72-.24-51.47,0c-7.65.06-11.54,4.19-11.6,11.94q-.1,14.73,0,29.48c.07,8,4,11.87,12.1,12C159.27,202.93,167.6,202.84,175.93,202.84Z" style="fill:#efb920"/><path d="M256,85.69c0,4.48.33,8.65-.06,12.76a20.78,20.78,0,0,1-20,18.79c-10.31.31-20.65.15-31,.12-12.55,0-19.36-5-23.41-17.39-.59,1.45-1,2.6-1.53,3.74-3.66,8.39-9.91,13.46-19.19,13.55-21.82.21-43.64.26-65.46,0-10.93-.14-17.21-6.8-20.53-17C73.48,103,72.53,105.68,71,108a20,20,0,0,1-17.26,9.33c-10.82.08-21.65.2-32.48,0C8.8,117.06.2,108.08,0,95.53c0-3.16,0-6.31,0-9.84Z" style="fill:#efb920"/><path d="M167.81,74.68h-80c.76-3.94,1.45-7.57,2.18-11.2,4-19.88,8-39.75,11.86-59.66C102.4,1,103.36,0,106.3,0c14.48.14,29,0,43.44.18,1.44,0,3.89,1.48,4.13,2.64,4.86,23.26,9.47,46.57,14.11,69.88A9.53,9.53,0,0,1,167.81,74.68Z" style="fill:#efb920"/><path d="M80.92.06C75.86,25.32,70.94,49.91,66,74.62H2.7c1.43-5,2.75-9.56,4.05-14.14q7.17-25.17,14.33-50.36c2.19-7.66,5.33-10,13.25-10C49.63.05,64.94.06,80.92.06Z" style="fill:#efb920"/><path d="M253.48,74.67H190.14c-4.95-24.65-9.9-49.35-15-74.61h30.73c6,0,12,0,18,0,4.8.07,8.68,2.26,10,6.84C240.53,29.21,246.84,51.57,253.48,74.67Z" style="fill:#efb920"/></g></g></svg>