<svg xmlns="http://www.w3.org/2000/svg" viewBox="0 0 32.47 31.22"><defs><style>.cls-1{fill:#baeb6c;}.cls-2{fill:#dc7f66;}.cls-3{fill:#a1e52e;}.cls-4{fill:#22b17f;}.cls-5{fill:#09a66d;}.cls-6{fill:#0aa66d;}.cls-7{fill:#f6f6f6;}</style></defs><g id="Capa_2" data-name="Capa 2"><g id="START11"><g id="Grasas"><path class="cls-1" d="M2.56,30.28C.29,29.58-.58,27.12.39,24.64A7.82,7.82,0,0,1,5.48,19.8a3.3,3.3,0,0,1,2.31,3.12A7.1,7.1,0,0,1,5,28.86,6.81,6.81,0,0,1,2.56,30.28Z"/><path class="cls-1" d="M27,20.78a7.62,7.62,0,0,1-5.47-7.14,5.44,5.44,0,0,1,.65-2.08,1.9,1.9,0,0,1,.75-.88A1.81,1.81,0,0,1,24,10.31a7.78,7.78,0,0,1,5.25,5.9,4.14,4.14,0,0,1-.75,3.6A2.28,2.28,0,0,1,27,20.78Z"/><path class="cls-1" d="M13.84,30.81c-1.89-1-2.6-2.72-2.92-4.68A2.79,2.79,0,0,0,10.67,25c-.25-.55.1-1,.11-1.58a8.12,8.12,0,0,1,1.39-3.08,3,3,0,0,1,1.68-1.24,3.73,3.73,0,0,1,1.8,1.62,8,8,0,0,1-.13,8.76A2.85,2.85,0,0,1,13.84,30.81Z"/><path class="cls-2" d="M23,10.85l-.75.71A10,10,0,0,1,21,5.09a15.1,15.1,0,0,0-2,1.35,27.37,27.37,0,0,0-3.13,2.75,1.43,1.43,0,0,0-.44.87,20.92,20.92,0,0,0,.41,8.7.9.9,0,0,1-.94.12c-.35-.22-.37-.6-.46-.94a23.3,23.3,0,0,1-.4-6.3,27.94,27.94,0,0,0-4.43,8.08,1.59,1.59,0,0,1-.16.41.89.89,0,0,1-1.06-.42A30.94,30.94,0,0,1,15,8.73c0-.29.23-.37.41-.49.45-.28.89-.55,1.35-.8a.71.71,0,0,0,.41-.7A32.39,32.39,0,0,1,27,1,27.23,27.23,0,0,1,29.91.06c.32-.08.67-.15.79.27s-.2.58-.55.69l-2.34.75c-.27.05-.42.27-.63.4a38.1,38.1,0,0,0-4.3,2,1.11,1.11,0,0,0-.65.92,9.61,9.61,0,0,0,.56,5.09A1.34,1.34,0,0,1,23,10.85Z"/><path class="cls-3" d="M14.86,18.78l1,0a5.13,5.13,0,0,1,3.84,4.12,7.57,7.57,0,0,1-1.06,6.52,3.78,3.78,0,0,1-4.23,1.66,5.79,5.79,0,0,1-.57-.25c3.91-2.38,3.77-9.35,0-11.64C14.06,18.74,14.45,18.73,14.86,18.78Z"/><path class="cls-3" d="M27,20.78a3.75,3.75,0,0,0,2.14-3.05,6.51,6.51,0,0,0-1.44-4.52,8.08,8.08,0,0,0-3.46-2.65c-.11-.05-.25-.06-.32-.18.14-.37.49-.36.78-.4a6.13,6.13,0,0,1,1.42,0,5.42,5.42,0,0,1,.9.24,3.47,3.47,0,0,1,1.6.83,9.24,9.24,0,0,1,2.82,2.85,6.49,6.49,0,0,1,1,3.34A3.72,3.72,0,0,1,28,21C27.68,21,27.35,20.86,27,20.78Z"/><path class="cls-3" d="M8.41,19.71l.93.44a.83.83,0,0,1,.7.36,3.15,3.15,0,0,1,.89,2.8A8.76,8.76,0,0,1,10.67,25,7.68,7.68,0,0,1,4,30.45a4.38,4.38,0,0,1-1.44-.17c0-.25.23-.27.39-.34a7.69,7.69,0,0,0,4.53-5.26,4,4,0,0,0-2-4.88A5,5,0,0,1,8.41,19.71Z"/><path class="cls-4" d="M11.44,9.9a2.27,2.27,0,0,1-.93.11H5.63c-.32,0-.67,0-.77-.37s.22-.54.52-.66a53.17,53.17,0,0,1,6-2.44,8,8,0,0,1,3.94,0c.09.27-.12.39-.27.51a22.55,22.55,0,0,1-3.56,2.42,1.94,1.94,0,0,1-.88.27C10.94,9.8,11.22,9.64,11.44,9.9Z"/><path class="cls-5" d="M28.65,11.05,27,10.36a.66.66,0,0,1-.09-.66A9.24,9.24,0,0,0,26.54,4a3.35,3.35,0,0,1,.71-2c.12-.23.21-.55.56-.23.24.71.45,1.44.74,2.13a9.52,9.52,0,0,1,.32,6.23C28.79,10.44,28.73,10.74,28.65,11.05Z"/><path class="cls-6" d="M11.44,9.9h-.88c.59-.34,1.18-.66,1.74-1a18.42,18.42,0,0,0,3-2.29l1.78.15c.37.21.36.4,0,.63-.73.44-1.45.91-2.17,1.36A8.3,8.3,0,0,1,11.44,9.9Z"/><path class="cls-7" d="M27.25,2l-.61,1.94a7.31,7.31,0,0,1-.4,1.83,8.21,8.21,0,0,0,.05,3.42c.07.32.23.65,0,1a5.37,5.37,0,0,0-2.32.23l-1,.47a6.85,6.85,0,0,1-1-3.4,11.72,11.72,0,0,1,.1-2.71.62.62,0,0,1,.32-.5A28.9,28.9,0,0,1,27.25,2Z"/><path class="cls-7" d="M10.93,23.31a3.79,3.79,0,0,0-1.59-3.16,26.5,26.5,0,0,1,3.8-7.59c.34-.5.72-1,1.17-1.58a21.52,21.52,0,0,0,.55,7.8l-1,.39a5.55,5.55,0,0,0-2.66,3.44C11.1,22.84,11,23.07,10.93,23.31Z"/><path class="cls-4" d="M26.27,10.15c-.07-.37-.13-.74-.21-1.11a8.08,8.08,0,0,1,.58-5.1,8.1,8.1,0,0,1,.57,5.31c-.07.37-.13.74-.19,1.11Z"/></g></g></g></svg>