<svg xmlns="http://www.w3.org/2000/svg" viewBox="0 0 22.63 29.73"><defs><style>.cls-1{fill:#fea95c;}.cls-2{fill:#cb624e;}.cls-3{fill:#fe9838;}.cls-4{fill:#fe811a;}.cls-5{fill:#bc574a;}.cls-6{fill:#fe811b;}.cls-7{fill:#f6f5f5;}</style></defs><g id="Capa_2" data-name="Capa 2"><g id="START11"><g id="Grasas"><path class="cls-1" d="M13.05,29a6,6,0,0,1-2.79-2.74c-.1-.21-.21-.41-.32-.61a2.79,2.79,0,0,1-.57-1.32c.09-.64-.14-1.25,0-1.91a21.59,21.59,0,0,1,.62-2.76,7.38,7.38,0,0,1,1.23-2,5.31,5.31,0,0,0,.29-5.19c-.26-.62-.66-1.18-1-1.79a7.75,7.75,0,0,1-.07-7.58A5.54,5.54,0,0,1,13.05.7c.18.18.13.39.08.6a23.4,23.4,0,0,0-.36,5.48.4.4,0,0,0,0,.11c.05.19,0,.5.28.47s.25-.3.23-.51a20.52,20.52,0,0,1,.38-5.42A6.07,6.07,0,0,1,14,.32,5.18,5.18,0,0,1,15.61,0c.28.31.19.7.19,1.06q0,10.5,0,21c0,2.22,0,4.45,0,6.67,0,.33.06.67-.19.94A5.46,5.46,0,0,1,14,29.4a13.27,13.27,0,0,1-.62-3.3,23.71,23.71,0,0,1,.71-8,15,15,0,0,0-.3-7.69c-.06-.19-.1-.48-.38-.4s-.15.33-.13.51c.06.39.18.76.26,1.14a14.66,14.66,0,0,1,0,6.49,24.66,24.66,0,0,0-.62,3.48,24.24,24.24,0,0,0,.21,6.59C13.13,28.46,13.26,28.75,13.05,29Z"/><path class="cls-2" d="M5.64,29.63A6.09,6.09,0,0,1,.87,28.58a2,2,0,0,1-.58-2.74,5.29,5.29,0,0,1,1.4-1.68,9.69,9.69,0,0,1,4-2.05C4,21.45,3.78,20,3.74,18.5a8.65,8.65,0,0,1,.75-3.95,3.19,3.19,0,0,1,3.83-1.92,5,5,0,0,1,1.29.82,2.7,2.7,0,0,1,.79,1.64,6.32,6.32,0,0,1-1.72,5.1A6.68,6.68,0,0,1,6.4,21.91c0,.23.13.25.24.32a5,5,0,0,1,2.26,3A2.69,2.69,0,0,1,8.2,28a5.54,5.54,0,0,1-2.32,1.48C5.78,29.51,5.69,29.53,5.64,29.63Z"/><path class="cls-1" d="M17.7,29.5a2.51,2.51,0,0,1-1.17.21c-.28-.31-.2-.7-.2-1.06V.94a1.26,1.26,0,0,1,.2-.94A2.51,2.51,0,0,1,17.7.21a2.28,2.28,0,0,1,.85,1.71,22.72,22.72,0,0,1-.15,8.14,23,23,0,0,0-.7,4.52,16.77,16.77,0,0,0,.7,4.92c0,.15.09.39.32.33s.16-.28.14-.45a7.06,7.06,0,0,0-.23-1.2,13.06,13.06,0,0,1,0-6.6,25.11,25.11,0,0,0,.74-7.42,15.31,15.31,0,0,0-.2-1.79,1.8,1.8,0,0,1,0-.8c.27-.23.42,0,.58.15a4.87,4.87,0,0,1,1.13,1.53,7.92,7.92,0,0,1,.05,7.1c-.32.73-.77,1.38-1.11,2.1a5.39,5.39,0,0,0,0,4.81A18.56,18.56,0,0,1,21.46,21a7.47,7.47,0,0,1-1.25,6.43c-.25.34-.47.82-1.05.75-.15-.23-.06-.48,0-.73A17.87,17.87,0,0,0,19.37,25c0-.26.13-.7-.25-.71s-.31.42-.31.69a21.59,21.59,0,0,1-.34,3.11A2,2,0,0,1,17.7,29.5Z"/><path class="cls-3" d="M19.21,28.21a6.23,6.23,0,0,0,2.2-3.95,8.51,8.51,0,0,0-1.34-6.07,5.93,5.93,0,0,1,0-6.66,8.82,8.82,0,0,0,1.45-5.21,6.42,6.42,0,0,0-2.31-4.81A.53.53,0,0,1,19.09.7a6.28,6.28,0,0,1,3.48,5.2,8.66,8.66,0,0,1-1.43,5.68,5.94,5.94,0,0,0-.77,4.93,9,9,0,0,0,1,2,8.22,8.22,0,0,1,.86,7A6,6,0,0,1,19,29.07.69.69,0,0,1,19.21,28.21Z"/><path class="cls-4" d="M16.53,0V29.71h-.92V0Z"/><path class="cls-4" d="M19.09.7a2,2,0,0,0,.12.81A22.31,22.31,0,0,1,19.54,7a25.33,25.33,0,0,1-.8,4.89,13,13,0,0,0,.06,6.24c.11.47.21.94.29,1.42.05.29,0,.58-.35.64s-.43-.21-.49-.47a24.85,24.85,0,0,1-.7-3.85,22.51,22.51,0,0,1,.75-6.28,21.73,21.73,0,0,0,.23-6.39c-.05-.58-.19-1.14-.24-1.71S17.81.67,17.7.21A3.46,3.46,0,0,1,19.09.7Z"/><path class="cls-4" d="M13.05,29a23.43,23.43,0,0,1-.45-6.73,25.93,25.93,0,0,1,.75-4.37,14.47,14.47,0,0,0-.21-7c-.05-.19-.06-.38-.12-.57s0-.56.28-.65.51.13.57.42c.2.87.43,1.72.56,2.6a18.59,18.59,0,0,1-.56,7.15,17.8,17.8,0,0,0-.39,5.5,22.29,22.29,0,0,0,.57,3.82.24.24,0,0,1-.09.25A2.52,2.52,0,0,1,13.05,29Z"/><path class="cls-5" d="M5.64,29.63c-.15-.26.1-.22.21-.27A6.55,6.55,0,0,0,7.9,28.08a2.82,2.82,0,0,0,.51-3.68,4.51,4.51,0,0,0-2.14-2.19c-.11-.05-.25-.09-.22-.23s.19-.18.31-.23a7,7,0,0,0,3.39-3.43,5.67,5.67,0,0,0,.45-3.44,2.62,2.62,0,0,0-1.62-2c-.11-.06-.43,0-.26-.28a2.12,2.12,0,0,1,1.13.27C11.23,14.48,11,17,9.84,19A9.24,9.24,0,0,1,7.13,21.9S7,22,7,22s.06,0,.08.05a3.2,3.2,0,0,1,2.39,2.34,4.8,4.8,0,0,1,.47,1.28,3.54,3.54,0,0,1-2.43,3.44A4.51,4.51,0,0,1,5.64,29.63Z"/><path class="cls-5" d="M7,21.88c.19-.4.61-.51.89-.79a8,8,0,0,0,2.47-3.75,4.14,4.14,0,0,0-.71-4c-.12-.13-.25-.24-.22-.44a2.67,2.67,0,0,1,2,2.73,16,16,0,0,1-.25,2.07,11.79,11.79,0,0,1-1.12,1.91.86.86,0,0,1-.29.61,5.93,5.93,0,0,1-2.13,1.61A.66.66,0,0,1,7,21.88Z"/><path class="cls-4" d="M14,.32c.14.09.12.21.08.35a20.24,20.24,0,0,0-.63,5.42c0,.31.07.61.09.92s-.08.62-.48.64-.43-.27-.44-.58A25.69,25.69,0,0,1,13.05.7,2.35,2.35,0,0,1,14,.32Z"/><path class="cls-6" d="M19.21,28.21l-.23.86a3.41,3.41,0,0,1-1.28.43,4.33,4.33,0,0,0,.69-1.87,19.19,19.19,0,0,0,.24-2.93v-.17a.49.49,0,0,1,.53-.5c.34,0,.39.23.4.51a19.16,19.16,0,0,1-.29,3.21C19.24,27.9,19.23,28.06,19.21,28.21Z"/><path class="cls-7" d="M7,21.88a5.78,5.78,0,0,0,3-2.27.17.17,0,0,1,.08.2,8.42,8.42,0,0,0-.56,4.33.25.25,0,0,1-.1.25,3.75,3.75,0,0,0-2.53-2.25c-.08,0-.19,0-.15-.12S6.94,21.92,7,21.88Z"/></g></g></g></svg>