<svg xmlns="http://www.w3.org/2000/svg" viewBox="0 0 31.46 31.43"><defs><style>.cls-1{fill:#c5644e;}.cls-2{fill:#da7665;}.cls-3{fill:#a24b33;}.cls-4{fill:#893b20;}.cls-5{fill:#893c21;}.cls-6{fill:#c76853;}.cls-7{fill:#da7564;}.cls-8{fill:#f3978b;}</style></defs><g id="Capa_2" data-name="Capa 2"><g id="START11"><g id="Grasas"><path class="cls-1" d="M1.74,29.7A6.23,6.23,0,0,1,.08,24.17C1,17.4,4.86,12.8,10.86,9.86a23.13,23.13,0,0,0,4-2.24A1,1,0,0,1,16,7.45c-.87,2.83-.58,5.74-.61,8.64,0,1.74,0,1.74-1.6,2.33A10,10,0,0,0,10,20.57a5.85,5.85,0,0,0-.75,7.53c.53.81.5,1-.37,1.44a8.64,8.64,0,0,1-5.45.9A4.75,4.75,0,0,1,1.74,29.7Z"/><path class="cls-2" d="M29.87,20.82c.49.34,1.27.29,1.46,1a11.38,11.38,0,0,0-.94,1.84l-.22.4a8.49,8.49,0,0,1-3.31,3.51,17.27,17.27,0,0,1-4.81,1.86c-.68.16-1.37.29-2.06.39a1.55,1.55,0,0,1-1.08-.09c-.07-.41.29-.36.5-.41.78-.2,1.57-.35,2.36-.54a12.41,12.41,0,0,0,5.52-3.11,2.74,2.74,0,0,0,.38-.45c.1-.15.2-.31,0-.46a.37.37,0,0,0-.48,0,1.42,1.42,0,0,0-.29.26,11.57,11.57,0,0,1-6.55,3.42c-.56.11-1.11.26-1.66.35s-.83.25-.68.84a.28.28,0,0,1-.1.29,5.9,5.9,0,0,1-3.5-.38c-2.42-.84-4.13-2.36-4.57-5a7.58,7.58,0,0,1,0-1.43A5,5,0,0,1,12.45,20a15.82,15.82,0,0,1,3.87-1.49,16.42,16.42,0,0,1,8.82.39,35.46,35.46,0,0,1,4.57,1.73Z"/><path class="cls-3" d="M29.87,20.82l-.12,0a1.34,1.34,0,0,0-.6-.48,33.74,33.74,0,0,0-6.27-2,17.25,17.25,0,0,0-5.27-.13c-.87.12-1,0-1-.88A43.83,43.83,0,0,1,16.84,10a10.46,10.46,0,0,0,.35-1.92A15.43,15.43,0,0,1,18.45,5.7a26.09,26.09,0,0,0,2.13-4.54,1.48,1.48,0,0,1,2.89,0,26,26,0,0,0,2.16,4.59A30.35,30.35,0,0,1,29.87,20.82Z"/><path class="cls-3" d="M16.27,18.71a19.54,19.54,0,0,0-3.75,1.49A5.17,5.17,0,0,0,10,23,5.89,5.89,0,0,0,11.13,29c.13.15.32.32.15.57a8.74,8.74,0,0,1-6.76,1.73A4.69,4.69,0,0,1,1.74,29.7c.66.09,1.22.47,1.89.57a8.87,8.87,0,0,0,5.58-1.08c.32-.17.43-.35.14-.71a6.06,6.06,0,0,1,.35-7.86A10.87,10.87,0,0,1,14.57,18a.77.77,0,0,0,.66-.9c0-1.91,0-3.83,0-5.75a18.06,18.06,0,0,1,.53-3.65c0-.16.15-.2.28-.23.69.16.65.82.88,1.3a.81.81,0,0,1,0,.63,14.37,14.37,0,0,0-.42,3.69q0,2.36,0,4.71A1.24,1.24,0,0,1,16.27,18.71Z"/><path class="cls-1" d="M11.28,29.56c-.16-.52-.66-.77-.93-1.22a5.77,5.77,0,0,1-.55-5A.91.91,0,0,1,10,23a5.78,5.78,0,0,0,3.23,5.77,8.59,8.59,0,0,0,4.77,1,.64.64,0,0,1,.9-.12,17.34,17.34,0,0,0,6-1.34A10.69,10.69,0,0,0,29,25.56c.43-.46.62-1.09,1.15-1.46a8.44,8.44,0,0,1-2.06,3.46c-.3.31-.56.66-.84,1a15.48,15.48,0,0,1-4.7,2.22,6.3,6.3,0,0,1-2.23.38c-1.07.1-2.12.27-3.19.29a8.89,8.89,0,0,1-5.52-1.71A1.39,1.39,0,0,0,11.28,29.56Z"/><path class="cls-4" d="M16.27,18.71c0-2.24-.05-4.49,0-6.73a8.23,8.23,0,0,1,.63-3.23l.28-.63a.84.84,0,0,1,.1.82c-.79,2.82-.41,5.71-.5,8.57,0,.48.11.56.61.48a17.38,17.38,0,0,1,8.77,1c1,.35,2,.71,2.94,1.09.34.13.74.23.64.74-1.1-.4-2.21-.78-3.3-1.2a17.2,17.2,0,0,0-10-.89Z"/><path class="cls-5" d="M20.34,31.14a23.19,23.19,0,0,0,5.43-1.84c.5-.26.9-.72,1.5-.76a6.54,6.54,0,0,1-5.47,2.88A3.87,3.87,0,0,1,20.34,31.14Z"/><path class="cls-6" d="M30.39,23.7a2.32,2.32,0,0,1,.94-1.84A1.1,1.1,0,0,1,31,23.28C30.78,23.43,30.58,23.56,30.39,23.7Z"/><path class="cls-7" d="M13.24,11.76c0,.38-.28.45-.47.56a22.64,22.64,0,0,0-5.46,4.43A21.45,21.45,0,0,0,3.5,22.48c-.14.3-.16.86-.78.6-.4-.16-.52-.34-.31-.78a27.33,27.33,0,0,1,4.07-6.2,26.32,26.32,0,0,1,5.9-4.78c.16-.1.35-.28.53-.11A2.5,2.5,0,0,1,13.24,11.76Z"/><path class="cls-8" d="M18.88,29.72l-.9.12c-.36-1-.36-1,.59-1.19a35.86,35.86,0,0,0,4-1,10.53,10.53,0,0,0,4.44-3c.37-.42.62-.2.93,0s.05.49-.1.66A11.89,11.89,0,0,1,22,28.94C21,29.24,19.89,29.33,18.88,29.72Z"/></g></g></g></svg>