<svg xmlns="http://www.w3.org/2000/svg" viewBox="0 0 32.28 32.27"><defs><style>.cls-1{fill:#efbd5a;}.cls-2{fill:#dbe0ea;}.cls-3{fill:#dba946;}.cls-4{fill:#c79532;}.cls-5{fill:#c69431;}.cls-6{fill:#b3821e;}.cls-7{fill:#f9da63;}.cls-8{fill:#f8d963;}.cls-9{fill:#afb4c8;}</style></defs><g id="Capa_2" data-name="Capa 2"><g id="START11"><g id="Carbs"><path class="cls-1" d="M32.21,15.63a19.21,19.21,0,0,1-1.79,6.65A16.49,16.49,0,0,1,26.37,28c-.16.15-.28.34-.51.38a2.07,2.07,0,0,1-1,.19c-2.54,0-5.07.06-7.6,0-7.37-.24-12.46-5-13.56-12.11,0-.34-.11-.7.26-.93a2.11,2.11,0,0,1,.9-.11H31.16C31.52,15.4,31.91,15.33,32.21,15.63Z"/><path class="cls-2" d="M1.88,12.48a3.06,3.06,0,0,1,.77-3.92.66.66,0,0,0,.25-.8A2,2,0,0,1,5.27,5.13c.31,0,.47,0,.64-.23a1.5,1.5,0,0,1,1.86-.5c.29.11.41,0,.55-.2a2,2,0,0,1,1.94-1.06c.28,0,.4-.1.53-.35a3.09,3.09,0,0,1,3-1.86,1.17,1.17,0,0,0,.86-.35A2,2,0,0,1,18,1.42c.13.38.28.57.72.56a3.35,3.35,0,0,1,2,.77c.25.19.42.26.72,0a2,2,0,0,1,3.14.73.8.8,0,0,0,.85.58,2,2,0,0,1,1.75,1.81.68.68,0,0,0,.63.67,1.25,1.25,0,0,1,1,1,1.62,1.62,0,0,0,.69,1,3.07,3.07,0,0,1,.81,4c-.33.34-.77.24-1.17.24H8.74c-1.66,0-3.33,0-5,0C3.12,12.66,2.46,12.9,1.88,12.48Z"/><path class="cls-3" d="M3.83,15.64a13.63,13.63,0,0,0,2.82,7.53A12.92,12.92,0,0,0,16,28.25c2.29.24,4.58.06,6.87.12,1,0,2,0,3,0a10.91,10.91,0,0,1-2.78,1.81,1.13,1.13,0,0,1-.85.22q-6.1,0-12.21,0a1.13,1.13,0,0,1-.85-.22c-3.92-1.91-6.31-5.14-7.82-9.11A17.88,17.88,0,0,1,0,15.63c.09-.06.17-.15.28-.16a12,12,0,0,1,3.43.07Z"/><path class="cls-4" d="M3.7,12.52l.77,0H29.59l.78,0,1.48,0c.22,0,.43,0,.42.32a23.92,23.92,0,0,1-.06,2.81H3.83v0a.76.76,0,0,1-.2-.59c0-.69,0-1.38-.07-2.07A.52.52,0,0,1,3.7,12.52Z"/><path class="cls-5" d="M23.06,31c.07,1.3.07,1.3-1.25,1.3l-11.35,0A1,1,0,0,1,10.94,31a2.36,2.36,0,0,1,1.19-.27H22.21A1.13,1.13,0,0,1,23.06,31Z"/><path class="cls-6" d="M23.06,31H12c-1,0-1.42.37-1.51,1.28-1.3.07-1.3.07-1.3-1.23,0-.27,0-.55,0-.83H23.08Z"/><path class="cls-6" d="M3.7,12.52a17.65,17.65,0,0,1,.13,3.08L0,15.63c0-.9,0-1.8,0-2.7,0-.36.14-.44.46-.43.47,0,1,0,1.42,0Z"/><path class="cls-7" d="M26,25.88a.51.51,0,0,1-.36-.72c.1-.33.38-.52.57-.77A15.53,15.53,0,0,0,28,21.21a6.1,6.1,0,0,1,.29-.57c.16-.27.39-.43.7-.27s.33.4.2.71a16,16,0,0,1-2.43,4.17C26.57,25.51,26.43,25.86,26,25.88Z"/><path class="cls-8" d="M30.1,18.58c-.13.29-.1.73-.61.68-.32,0-.56-.18-.52-.52s.18-.71.61-.73S30.05,18.27,30.1,18.58Z"/><path class="cls-9" d="M16.5,5.47a2.52,2.52,0,0,0-.79.1c-.25.08-.55.1-.66-.22a.59.59,0,0,1,.33-.76A2.66,2.66,0,0,1,19,6.48a.56.56,0,0,1-.42.64c-.36.09-.5-.15-.6-.44C17.75,6,17.35,5.4,16.5,5.47Z"/><path class="cls-9" d="M10.85,7.6c-.09.36-.32.56-.71.43a1.62,1.62,0,0,0-2,.83c-.18.27-.4.52-.73.31s-.35-.54-.15-.9A2.63,2.63,0,0,1,10.33,7C10.62,7.11,10.84,7.25,10.85,7.6Z"/><path class="cls-9" d="M23.08,7.82a2.41,2.41,0,0,1,2.37,1.47.45.45,0,0,1-.11.62.46.46,0,0,1-.69-.07,4.1,4.1,0,0,1-.35-.47,1.46,1.46,0,0,0-1.58-.49c-.42.09-.83.19-.91-.35s.4-.64.82-.71A3.38,3.38,0,0,1,23.08,7.82Z"/><path class="cls-9" d="M15.15,8.72c.37,0,.72-.06.77.38s-.23.6-.57.64a2,2,0,0,0-1.11.49.48.48,0,0,1-.78,0c-.24-.27-.13-.52.1-.74A2.33,2.33,0,0,1,15.15,8.72Z"/></g></g></g></svg>