<svg xmlns="http://www.w3.org/2000/svg" viewBox="0 0 39.65 34.03"><defs><style>.cls-1{fill:#f4ca52;}.cls-2{fill:#bb9331;}.cls-3{fill:#cda645;}.cls-4{fill:#a07a27;}.cls-5{fill:#fedd8c;}</style></defs><g id="Capa_2" data-name="Capa 2"><g id="START11"><g id="Carbs"><path class="cls-1" d="M38.16,10.24A13.65,13.65,0,0,1,39,20.7c-2,6.79-6.83,10.76-13.53,12.64a17,17,0,0,1-5.76.66c-.25,0-.5.06-.72-.12a5.32,5.32,0,0,0,3-3.11.49.49,0,0,1,.36-.31A15.74,15.74,0,0,0,30,27.55a14.53,14.53,0,0,0,6.17-9.47,12.6,12.6,0,0,0,0-4.5,2.41,2.41,0,0,1-.11-.81.66.66,0,0,1,.25-.4A5.17,5.17,0,0,0,38.16,10.24Z"/><path class="cls-1" d="M17.34,24.93a11.18,11.18,0,0,1-5.65-.48,15,15,0,0,1-6.86-4.3A20.72,20.72,0,0,1,2.6,16,20.41,20.41,0,0,1,1.91,4.49a1.33,1.33,0,0,1,.42-.87c.45-.14.66.19.92.44a.87.87,0,0,1,.21.48c-.21,3.12-.23,6.2,1.1,9.13a13.88,13.88,0,0,0,9.74,8.25,3,3,0,0,0,1.7,0c.09,0,.2,0,.22.09C16.53,23,17,24,17.34,24.93Z"/><path class="cls-1" d="M21.94,22.92a13.71,13.71,0,0,0,3-.59A5.76,5.76,0,0,0,28.74,17a15.4,15.4,0,0,0-.34-3.59,9.25,9.25,0,0,0,4.34.29.62.62,0,0,1,.39.1,3.26,3.26,0,0,1,.38,2.76,11.47,11.47,0,0,1-7,9.38,3.81,3.81,0,0,1-3.1.38,1.47,1.47,0,0,1-.24-.93A3.13,3.13,0,0,0,21.94,22.92Z"/><path class="cls-1" d="M10.53,6.79a8.34,8.34,0,0,0-.06,3.41c.61,2.7,2.55,3.93,5.06,4.49a18.19,18.19,0,0,0,2,.23.51.51,0,0,1-.12.46,5.83,5.83,0,0,0-1.14,3.19.81.81,0,0,1-.37.69,5,5,0,0,1-3.08-.67A11.22,11.22,0,0,1,6.55,8.65,2.79,2.79,0,0,1,7.1,6.72a.74.74,0,0,1,.63,0A7.34,7.34,0,0,0,10.53,6.79Z"/><path class="cls-2" d="M21.94,22.92a1.49,1.49,0,0,1,1.3,1.39c.12.64.13,1.3.19,2a6.12,6.12,0,0,1-1.16,4.28,9,9,0,0,1-1.65,2.6,2.13,2.13,0,0,1-1.65.74c-.7-.18-.88-.78-1-1.37a11.3,11.3,0,0,1,1.26-6.82,6.77,6.77,0,0,1,1.55-2.2A1.68,1.68,0,0,1,21.94,22.92Z"/><path class="cls-2" d="M33.16,13.88a20.22,20.22,0,0,1-2.91.19,2.55,2.55,0,0,1-1.85-.67A1.48,1.48,0,0,1,29,11.68a10.39,10.39,0,0,1,5.05-2.25,6.7,6.7,0,0,1,3,0,1.29,1.29,0,0,1,1,.82c.07,1-.7,1.42-1.29,2a7.34,7.34,0,0,1-.73.51A4.57,4.57,0,0,1,33.16,13.88Z"/><path class="cls-2" d="M15.84,19.17c.3-.52.14-1.12.29-1.68a5.42,5.42,0,0,1,1.35-2.57c.73-.28,1.07.23,1.35.74a9.24,9.24,0,0,1,.91,5.57,6.72,6.72,0,0,1-1,3.17c-.33.48-.7,1-1.4.53A6.8,6.8,0,0,1,16,22,2.92,2.92,0,0,1,15.84,19.17Z"/><path class="cls-2" d="M10.53,6.79A3.17,3.17,0,0,1,8,7l-.87-.22A7.59,7.59,0,0,1,3.31,4.47l-.17-.3c-.39-.71-.85-1.43-.23-2.2s1.43-.58,2.2-.43A7.47,7.47,0,0,1,8.46,3c.18.15.33.38.61.37a5.33,5.33,0,0,1,1.48,2.09A1.52,1.52,0,0,1,10.53,6.79Z"/><path class="cls-3" d="M2.5,3.64a5.55,5.55,0,0,0-.65,2.51A19.43,19.43,0,0,0,4.73,19.66c.1.15.31.27.1.49A17.6,17.6,0,0,1,0,8.31,17.14,17.14,0,0,1,1,1.36c.05-.13.12-.25.18-.37A25.4,25.4,0,0,1,2.5,3.64Z"/><path class="cls-4" d="M2.5,3.64C1.94,2.82,1.17,2.09,1.15,1A1.14,1.14,0,0,1,2.36,0,5,5,0,0,1,4.6.42a11.76,11.76,0,0,1,4.47,3c-.53.06-.85-.34-1.25-.57A7.4,7.4,0,0,0,4.29,1.69C3,1.66,2.57,2.25,3,3.5c.08.21.34.39.15.67Z"/><path class="cls-5" d="M33.16,13.88l3-1.17a13.55,13.55,0,0,1-2.82,12c-2.61,3.33-6.16,5.06-10.2,6a.83.83,0,0,1-.85-.13,20.53,20.53,0,0,0,1.16-4.28,8.44,8.44,0,0,0,6-2.49,11.25,11.25,0,0,0,3.78-6.89A8.4,8.4,0,0,0,33.16,13.88Z"/><path class="cls-5" d="M3.31,4.47A30.19,30.19,0,0,0,7.12,6.78c-.93,3.14.1,5.88,1.88,8.39A9.4,9.4,0,0,0,15,19.07a5.39,5.39,0,0,0,.89.1C15.91,20.1,16,21,16,22c-.42.65-1,.34-1.53.22-6-1.37-9.48-5.23-11-11A17.45,17.45,0,0,1,3.31,4.47Z"/></g></g></g></svg>