<svg xmlns="http://www.w3.org/2000/svg" xmlns:xlink="http://www.w3.org/1999/xlink" viewBox="0 0 167.09 167.2"><defs><clipPath id="clip-path" transform="translate(3.51 6.5)"><circle cx="80" cy="80" r="80" style="fill:none"/></clipPath></defs><g id="Capa_2" data-name="Capa 2"><g id="ADOPTAR"><g style="clip-path:url(#clip-path)"><path d="M26.11,160.62c-9.38,0-18.76,0-28.14.06-1.53,0-1.44-.8-1.44-1.82q0-28.49,0-57,0-53.35,0-106.73c0-1.72.78-1.63,2-1.63h132.3c10.3,0,20.6,0,30.89,0,1.46,0,1.93.3,1.93,1.87q-.07,81.6,0,163.19c0,1.58-.28,2.16-2,2.14-9.21-.11-18.42-.08-27.62-.09-.82-.32-.75-1.06-.83-1.73a135.4,135.4,0,0,0-6.84-29,114.09,114.09,0,0,0-6.21-14.48,2.86,2.86,0,0,1-.48-2,2.94,2.94,0,0,1,1-1.36,39.37,39.37,0,0,0,12-21.73,43.61,43.61,0,0,0-5.37-26.91,6.52,6.52,0,0,1-.83-4.09c.87-7.38,1.45-14.78.15-22.19a22.21,22.21,0,0,0-1.93-6.38c-1-2-2.32-2.77-4.59-2.46a17.79,17.79,0,0,0-6.11,2.16,55.36,55.36,0,0,0-12.16,9.14,2.12,2.12,0,0,1-2.49.49,53.18,53.18,0,0,0-13-3,56.46,56.46,0,0,0-22.38,2c-.71.22-1.43.44-2.12.71A3.51,3.51,0,0,1,57.71,39a66.17,66.17,0,0,0-9.61-7.45,25.85,25.85,0,0,0-6.89-3c-3-.81-4.87.13-6.08,2.94a32.31,32.31,0,0,0-2,9c-.76,6.12-.16,12.2.6,18.27a7.41,7.41,0,0,1-.86,4.63,40.62,40.62,0,0,0-4.94,14c-.64,4.53-1.08,9.08-.17,13.64a39.91,39.91,0,0,0,10.77,20.12c.79.81,1.8,1.44,2.16,2.61-.81,2.32-2.07,4.43-3.09,6.65a139.54,139.54,0,0,0-10.67,38.61C26.86,159.69,26.82,160.33,26.11,160.62Z" transform="translate(3.51 6.5)" style="fill:#69819f"/><path d="M40.5,113.65A40.6,40.6,0,0,1,27.72,92.81a12.63,12.63,0,0,1-.23-1.5c-.22-.32-.28-.73,0-.94s.58.14.77.41a5.18,5.18,0,0,1,.46.91c2.23,5.17,6.49,7.21,11.76,7.38,9.51.3,16.65-4,21.83-11.78a9.55,9.55,0,0,1,.67-1c1.56-1.48,3.47-2.56,4.55-4.56a11.2,11.2,0,0,0,.39-10.49c-.21-.46-.54-.89-.4-1.44a22.39,22.39,0,0,0,1-3.8,25.35,25.35,0,0,1,4.54-8.59c3.75-4.65,9.13-4.91,13.36-.69a22.52,22.52,0,0,1,5.34,9.66c.34,1.09.59,2.21.87,3.31A3.82,3.82,0,0,1,92,71.81C89.8,76.5,92,83.07,96.29,85.26a2.62,2.62,0,0,1,1.33,1A4.78,4.78,0,0,0,99,88.84c5.85,7.6,13.42,11.34,23.09,9.94a11.39,11.39,0,0,0,9.66-7.7c.16-.42.27-.94.75-1.08s.72.11.43.62a38.14,38.14,0,0,1-13,22.69c-.57,1.56-2,2.32-3.24,3.15A57,57,0,0,1,100,124.39c-2,.55-2.08.68-1.12,2.56C104,137,106.44,147.84,107.62,159c.06.55.28,1.13-.13,1.65H52.54c-.39-2.5.46-4.87.78-7.28A82.88,82.88,0,0,1,61.2,127c1-2,.89-2-1.24-2.68-6.68-2.16-13-5-18.47-9.54A3.06,3.06,0,0,1,40.5,113.65Z" transform="translate(3.51 6.5)" style="fill:#d6d1cd"/><path d="M40.5,113.65c2.83,1.7,5.25,4,8.22,5.5a70.32,70.32,0,0,0,12.14,5c1.87.55,2,.77,1.08,2.56a76.75,76.75,0,0,0-6.42,17.4c-1.19,5-1.9,10.15-2.61,15.27a3.25,3.25,0,0,1-.37,1.3l-26.43,0c.8-2.62.85-5.36,1.3-8A151.31,151.31,0,0,1,32,133.91a118,118,0,0,1,7-17.58C39.46,115.42,40,114.54,40.5,113.65Z" transform="translate(3.51 6.5)" style="fill:#a4a4b0"/><path d="M107.49,160.65c-.68-3.62-.94-7.3-1.66-10.93-1.59-8-3.8-15.8-7.62-23.07-1-2-1-2,1.12-2.58a53.25,53.25,0,0,0,20.53-10.76,2.39,2.39,0,0,0,.45,1.61,115.65,115.65,0,0,1,9.17,23.52,113,113,0,0,1,4.11,21,4.8,4.8,0,0,0,.34,1.14Z" transform="translate(3.51 6.5)" style="fill:#a4a4b0"/><path d="M63.17,86.53c-5.23,10-17.74,15.42-27.65,12.1a12.19,12.19,0,0,1-7.62-7.57c-.06-.15.09-.51-.3-.41,0,0-.06.09-.07.14s0,.34,0,.52c-1.07-2.75-.74-5.62-.62-8.44A42.9,42.9,0,0,1,28,74.6a29.09,29.09,0,0,1,3.49-9.24c2-3.09,1.93-6.28,1.5-9.68a58.14,58.14,0,0,1-.39-13.45,44,44,0,0,1,1.73-9.88c1.48-4.31,4.11-5.43,8.37-3.87a41.83,41.83,0,0,1,13.6,8.68c.72.65,1.52,1.21,2.2,1.89a2.07,2.07,0,0,0,2.46.56,55.84,55.84,0,0,1,22-3.23,54,54,0,0,1,16.33,3.28,1.94,1.94,0,0,0,2.41-.56c5.11-4.75,10.45-9.23,17.4-11.07,3.16-.84,4.83.07,6.19,3a30.07,30.07,0,0,1,2.43,11.45,82,82,0,0,1-1,17.9,4,4,0,0,0,.83,2.72,44.45,44.45,0,0,1,5.75,19.31,54,54,0,0,1-.07,7c0,.45.07.93-.35,1.27-.1-.49-.45-.64-.56-.12-1.83,8-11.09,10.16-18.4,8.64-7.1-1.48-12.39-5.49-16.28-11.47-.14-.22-1.28-.73-.11-1.2.71-.28,1.35.08,2,.24a11.47,11.47,0,0,0,12.91-5.42c2.57-4.54,1.7-9.77-2-13.68-4.23-4.5-11.68-4-15.54,0-.76.78-1.31,1.88-2.53,2.15-1.08-1.89-1.15-4.12-2.07-6.08a22.79,22.79,0,0,0-4.44-6.82C82.3,53.3,78,53.13,74.4,56.65A22.08,22.08,0,0,0,68.33,69c-.06.37.22,1.07-.65.67-.74-.16-1-.85-1.52-1.32-3.26-3.26-7-4.92-11.65-3.52a11.1,11.1,0,0,0-8.2,9.4C45.5,79,49,84.7,53.68,86.3a11.54,11.54,0,0,0,7.9.17C62.1,86.28,62.66,86,63.17,86.53Z" transform="translate(3.51 6.5)" style="fill:#a4a5b0"/><path d="M63.17,86.53a21.42,21.42,0,0,1-3.45.91c-4.4.45-8.37-.64-11.16-4.25-3-3.9-3.87-8.24-1.51-12.83a11.19,11.19,0,0,1,10.52-6.45,11.52,11.52,0,0,1,10.11,5.74,13.22,13.22,0,0,1,1.75,7,10.92,10.92,0,0,1-4.75,8.78Z" transform="translate(3.51 6.5)" style="fill:#efede4"/><path d="M92.4,69.72A13,13,0,0,1,101,64.07c6.46-1.08,13,4.06,13.34,10.59C114.76,84,106.23,90,97.53,86.47A11.3,11.3,0,0,1,92,70.67,7.17,7.17,0,0,0,92.4,69.72Z" transform="translate(3.51 6.5)" style="fill:#f0eee4"/><path d="M80.21,95.75c-4,3.54-7.5,4.15-11.26,2a6.2,6.2,0,0,1-2.68-3.23c-.26-.68-.54-1.53.4-1.94s1.41.25,1.74,1c1.15,2.43,3.19,3.13,5.67,3a4.84,4.84,0,0,0,4.35-3.34c.47-1.44.44-2.6-1.14-3.44a6.83,6.83,0,0,1-2.52-2.54c-.59-1-.41-1.85.76-2.12a21.5,21.5,0,0,1,9,0c1.33.27,1.55,1.27.73,2.35a10.15,10.15,0,0,1-2.86,2.68,1.92,1.92,0,0,0-.91,2.33,4.8,4.8,0,0,0,4.28,4.07c2.6.4,4.77-.52,5.87-2.57.42-.77.75-1.8,1.82-1.19s.56,1.61.16,2.43C91.24,100,83.49,100.17,80.21,95.75Z" transform="translate(3.51 6.5)" style="fill:#180704"/><path d="M122.92,46.16a44.39,44.39,0,0,1-.59,7.64c-.16,1.15-.5,1.28-1.31.45a56.1,56.1,0,0,0-7-6.46,46.41,46.41,0,0,0-6-3.94c-1.25-.65-1.65-1.12-.36-2.37a34.36,34.36,0,0,1,9.72-6.57c2.31-1.06,3.7-.43,4.43,2A29.64,29.64,0,0,1,122.92,46.16Z" transform="translate(3.51 6.5)" style="fill:#d6d2ca"/><path d="M37.43,45.69a24.85,24.85,0,0,1,.74-8.15c.72-2.43,1.77-4.07,5-2.5a40.31,40.31,0,0,1,9.93,6.89c.4.38,1.15.72,0,1.34A55.67,55.67,0,0,0,40,53.25c-.47.49-.85,1.47-1.7,1.13s-.34-1.23-.49-1.87C37.25,50.26,37.51,48,37.43,45.69Z" transform="translate(3.51 6.5)" style="fill:#d8d3ca"/><path d="M66.89,76a7.83,7.83,0,1,1-7.82-8.08A7.91,7.91,0,0,1,66.89,76Z" transform="translate(3.51 6.5)" style="fill:#260a01"/><path d="M93.29,75.86A8,8,0,0,1,100.92,68a7.77,7.77,0,0,1,8,8,7.86,7.86,0,0,1-7.84,8A8,8,0,0,1,93.29,75.86Z" transform="translate(3.51 6.5)" style="fill:#240902"/><path d="M62.26,70.69a2.32,2.32,0,0,1,2.23,2.51c-.15,1.4-1.2,1.88-2.41,2a2.15,2.15,0,0,1-2.21-2.32A2.27,2.27,0,0,1,62.26,70.69Z" transform="translate(3.51 6.5)" style="fill:#f2eee5"/><path d="M104.05,75.23a2.14,2.14,0,0,1-2.13-2.38,2.07,2.07,0,0,1,2.32-2.15c1.27.12,2.16.74,2.18,2.15A2.31,2.31,0,0,1,104.05,75.23Z" transform="translate(3.51 6.5)" style="fill:#f5f0e9"/></g></g></g></svg>