<svg xmlns="http://www.w3.org/2000/svg" viewBox="0 0 157.44 159.96"><g id="Capa_2" data-name="Capa 2"><g id="ADOPTAR"><circle cx="78.72" cy="78.72" r="78.72" style="fill:#a69f3c"/><path d="M53.21,153.25q-8-20.82-15.91-41.66,3.56-11.41,7.12-22.82l75.16.42q3.14,17.16,6.28,34.33l-20.31,29.31a53,53,0,0,1-52.34.42Z" style="fill:#f2f0eb"/><path d="M51.46,130.45c2.45,4.43,4.64,11.55,3,23.17a81.37,81.37,0,0,1-34.66-23c0-1.16,0-2.85,0-4.88,0-3.79.1-10.59.76-18.17,0,0,1.82-20.91,7.06-34a.78.78,0,0,0,.07-.18c.72-2.32.7-2.29-1.22-3.85a22.52,22.52,0,0,1-7-8.84c-.76-1.87-.29-3.17,1.35-4.36a11.24,11.24,0,0,1,6.14-2.06c2.15-.13,4.31-.16,6.46-.2a2.23,2.23,0,0,0,1.66-.63A44.94,44.94,0,0,1,58.17,40.68s.08-.07.2-.17c-.78-.43-1.52-.86-2.27-1.25a11.66,11.66,0,0,1-4.62-4.54c-.81-1.38-.4-2.21,1.18-2.58a16.51,16.51,0,0,1,6.42.09c3.36.53,6.77.77,10.08,2,0-1.12-.36-2.13-.35-3.18,0-2.24,1.39-3.26,3.57-2.76,4.51,1,10,4.64,10.72,5.12,2.65,1.86,5,3.53,6.82,4.91a51.46,51.46,0,0,1,6.92,1.38c6.72,1.82,11.38,4.53,17.08,7.84,1,.59,7,4.08,8.31,5.54a3.12,3.12,0,0,0,.92.71,3.81,3.81,0,0,0,2.33.22,20,20,0,0,1,9,1.24,8.62,8.62,0,0,1,2.35,1.31A3.05,3.05,0,0,1,138,60.65a16.54,16.54,0,0,1-3.11,4.85A59.8,59.8,0,0,1,130,70.18a1.77,1.77,0,0,0-.58,2.11c1.64,5.5,3.38,11,4.47,16.63a173.33,173.33,0,0,1,3.25,23.47c.14,1.93.29,4.32.31,4.64.35,5.76.51,10.49.59,13.75a76.85,76.85,0,0,1-8.36,8.19,78.47,78.47,0,0,1-26.31,14.47c-1.86-11.45.32-18.82,2.78-23.52s6.05-8.29,7.81-16.1c1.31-5.79.52-9,.26-10a18.08,18.08,0,0,0-8.35-10.65,16.31,16.31,0,0,0-7.58-2c-12.06-.74-24.14-.29-36.22-.36-8.81,0-16.93,7.67-18.41,14.25a19.93,19.93,0,0,0-.47,4.15,22.43,22.43,0,0,0,2.56,9.85C48.72,125.52,51.4,130.35,51.46,130.45Z" style="fill:#260b01"/><path d="M81.78,103.25a32.57,32.57,0,0,0,24.58,0c.56-.22.64-.45.31-1a6.24,6.24,0,0,0-4.51-2.65c-.39-.06-.77-.1-1.41-.18a8.51,8.51,0,0,1,5-1.26,6.12,6.12,0,0,1,5.82,3.76,6.74,6.74,0,0,1-.87,7.33,2,2,0,0,1-.19.22c-.37.33-.72.93-1.26.67s-.12-.82-.09-1.24a17.46,17.46,0,0,0-.1-2.89c-.07-.73-.34-.65-.83-.38a38.49,38.49,0,0,1-11.48,4.08c-6.37,1.11-12.3.29-17.43-4-.24-.2-.4-.35-.72-.08-6.85,5.66-14.47,5.33-22.36,2.85a38.29,38.29,0,0,1-7.27-3.2,10.22,10.22,0,0,0-.26,3.71c0,.4.24,1-.13,1.15s-.86-.28-1.18-.61A6.87,6.87,0,0,1,46.26,102a6.46,6.46,0,0,1,6.42-3.75A8.32,8.32,0,0,1,57,99.4a9.24,9.24,0,0,1-2.22.43,6.13,6.13,0,0,0-3.56,2.47c-.34.49-.32.73.27,1a33,33,0,0,0,14.73,2.32,31.9,31.9,0,0,0,9.08-2l1-.42a11.94,11.94,0,0,1-5.3-2.43,7,7,0,0,1-2-2.15,1.89,1.89,0,0,1,.56-2.82A11.28,11.28,0,0,1,73.67,94a20.82,20.82,0,0,1,12.13.47,8.37,8.37,0,0,1,2.41,1.2c1.33,1,1.48,2.09.42,3.37a12,12,0,0,1-6.17,3.92l-.55.15S81.87,103.12,81.78,103.25Z" style="fill:#260b01"/><path d="M112.3,78.7a13.51,13.51,0,0,1-.79,4.53,4.75,4.75,0,0,1-1,1.63,1.62,1.62,0,0,1-2.54,0,6.25,6.25,0,0,1-1.47-3.2,12.53,12.53,0,0,1,.65-7.74,3.78,3.78,0,0,1,.17-.35c.43-.74.94-1.46,1.87-1.49s1.5.66,1.92,1.41A11.24,11.24,0,0,1,112.3,78.7Z" style="fill:#f2f0eb"/><path d="M53.33,78.77a11.64,11.64,0,0,1-1.1,5.13c-.42.79-.94,1.54-1.93,1.55s-1.59-.76-2-1.59a12.11,12.11,0,0,1-.86-7.53,8.46,8.46,0,0,1,.91-2.76c.42-.75.93-1.47,1.87-1.5s1.49.65,1.92,1.4A11.19,11.19,0,0,1,53.33,78.77Z" style="fill:#f2f0eb"/></g></g></svg>