<svg xmlns="http://www.w3.org/2000/svg" xmlns:xlink="http://www.w3.org/1999/xlink" viewBox="0 0 162.95 162.81"><defs><clipPath id="clip-path" transform="translate(1.61 3.12)"><circle cx="80" cy="80" r="80" style="fill:none"/></clipPath></defs><g id="Capa_2" data-name="Capa 2"><g id="ADOPTAR"><g style="clip-path:url(#clip-path)"><path d="M21.1,159.61c-7.13,0-14.27,0-21.41.08-.92,0-1.11-.43-1.12-1.23,0-3.61-.26-7.23-.14-10.83.16-4.79.09-9.58,0-14.37-.1-5.79.15-11.59.15-17.38,0-6.18-.31-12.35-.13-18.52.22-8,.07-16,.12-24.08.06-8.47.13-16.94,0-25.41-.1-5.4,0-10.79-.07-16.19-.17-11.08.08-22.17.11-33.26,0-1.21.46-1.49,1.57-1.48C4.88-3,9.61-3,14.34-3c9.31,0,18.62.1,27.92,0C49.11-3.19,56-3,62.81-3c11.88,0,23.75,0,35.62,0h59.71c3.2,0,3.2,0,3.2,3.13q0,78,0,156c0,3.65,0,3.66-3.68,3.65l-20.41-.06c1.15-1,.93-2.09.68-3.38A58.74,58.74,0,0,0,134,143c-.91-2-2.09-3.81-3.11-5.72-.55-1-.81-1.82.75-2.2,1.34-.33,1.74-1.49,1.73-2.75a16.77,16.77,0,0,0-2.1-7.5c-1.72-3.38-3.7-6.62-5.48-10a35.75,35.75,0,0,1-4.34-13.6c-.08-.88-.29-1.8.54-2.48,1.22,0,1.58,1.09,2.21,1.79a9.59,9.59,0,0,0,3.56,2.69c2.31,1,3.49.28,3.91-2.17.32-1.8.49-3.62.92-5.42a19.15,19.15,0,0,1,4-7.43c2.84-3.64,6-7,7.91-11.34a22.43,22.43,0,0,0,2.3-11.16c-.34-3.81-2.29-6.8-4.79-9.51s-5.48-5.37-8.24-8c-2.39-2.33-4.48-4.94-6.7-7.43a41.1,41.1,0,0,0-6.73-6.45,16.07,16.07,0,0,0-8-3.06,12.61,12.61,0,0,1-1.8-.4,85.65,85.65,0,0,0-8-4.46,50.75,50.75,0,0,0-15.47-4,58.64,58.64,0,0,0-16.15.22c-7.38,1.22-14.4,3.45-20.59,7.82a3.49,3.49,0,0,1-1.18.61,17.25,17.25,0,0,0-11.7,5,76.12,76.12,0,0,0-7.69,8.36c-3.31,4.1-7.54,7.26-11.12,11.08A27.19,27.19,0,0,0,15,60.17a14.33,14.33,0,0,0-1.27,11.91A36.79,36.79,0,0,0,22,86.43c3.72,4.11,6.09,8.73,6.3,14.38.09,2.33,1.61,3.2,3.81,2.47a8.17,8.17,0,0,0,3.58-2.62c.74-.84,1.1-2.25,2.62-2.18a5.71,5.71,0,0,1,.19,3.44c-.87,6.3-3.46,11.94-6.67,17.34a45.89,45.89,0,0,0-4.87,10.4c-.91,3.05-.56,4,2.11,5.59.84.51.61,1.09.23,1.68-.81,1.27-1.45,2.63-2.15,4a40.2,40.2,0,0,0-4.47,13c-.21,1.43-.57,2.84-.84,4.26C21.71,158.73,21.73,159.33,21.1,159.61Z" transform="translate(1.61 3.12)" style="fill:#cbac81"/><path d="M48.9,30.83c6.54-4.95,14-7.47,22.05-8.75a55.59,55.59,0,0,1,11.45-.61c9.3.46,18.21,2.41,26.17,7.57l2.22,1.45a5.63,5.63,0,0,1,1.87,1.63,40.86,40.86,0,0,1,7.68,24.13,95.32,95.32,0,0,1-1.24,13.3,56.89,56.89,0,0,0,.11,19.78,30.49,30.49,0,0,0,2.63,7.57c.28.58.78,1.13.32,1.85-.72,2.63.07,5.15.72,7.64,1.42,5.48,4.44,10.25,7.17,15.13,1.9,3.38,3.82,6.75,3.81,10.8,0,2.18-.84,3.11-3.1,3.36a13.08,13.08,0,0,0,1.59,3.17,43.54,43.54,0,0,1,5.53,15,20.11,20.11,0,0,0,.71,3.4c.56,1.48,0,2.09-1.35,2.34-10.14,0-20.27.06-30.41.06H23.1c-.66,0-1.33-.05-2-.07,1-5.55,1.78-11.18,4.31-16.32a48.29,48.29,0,0,1,4-7.3c-.5-.72-1.34-.38-1.94-.85-1.74-1.36-1.55-3.12-1.17-4.86a31.56,31.56,0,0,1,3.7-8.7c3.1-5.5,6.34-10.91,7.6-17.23a23.29,23.29,0,0,0,.55-5.94c-.46-.77,0-1.41.33-2,3.17-7,3.64-14.36,3-21.9-.22-2.51-.63-5-1-7.44a56,56,0,0,1-.37-17.28,40.93,40.93,0,0,1,6.87-17.23C47.44,31.8,47.9,31,48.9,30.83Z" transform="translate(1.61 3.12)" style="fill:#ffc145"/><path d="M122.16,98.75a57.78,57.78,0,0,1-2.58-6.12A47.66,47.66,0,0,1,118,75.69c.44-7.36,2.37-14.58,1.83-22a40.21,40.21,0,0,0-5.66-18.24,30.6,30.6,0,0,0-3.39-4.93,19.8,19.8,0,0,1,13.26,6.2c2.34,2.35,4.44,5,6.6,7.5,3.25,3.8,7.13,7,10.61,10.56a31.84,31.84,0,0,1,4,4.92A14.46,14.46,0,0,1,147,70.75a31.86,31.86,0,0,1-7.35,14.39,61.51,61.51,0,0,0-5,6.45c-1.71,2.66-2.16,5.79-2.47,8.89-.34,3.53-1.93,4.46-5.15,2.92C124.92,102.37,123.66,100.44,122.16,98.75Z" transform="translate(1.61 3.12)" style="fill:#260b01"/><path d="M48.9,30.83a39.71,39.71,0,0,0-8.78,24.25C40,60.72,41,66.21,41.7,71.77c1.1,8.89.89,17.74-3.37,26a3.61,3.61,0,0,0-.19.64c-.79.92-1.64,1.8-2.36,2.78a7.57,7.57,0,0,1-4.73,2.86,2.83,2.83,0,0,1-3.23-3c0-6.57-3.47-11.38-7.53-16A30.32,30.32,0,0,1,12.48,67.9c-.39-3.83,1.26-7.26,3.69-10.25a66.43,66.43,0,0,1,8-8,93,93,0,0,0,8.23-8.95,37.33,37.33,0,0,1,9-8.1,20.23,20.23,0,0,1,6.46-2.05A1,1,0,0,1,48.9,30.83Z" transform="translate(1.61 3.12)" style="fill:#260b01"/><path d="M79.84,65.59A32.9,32.9,0,0,1,102.33,73c6,4.8,9.53,11,8.73,19-.48,4.75-3,8.52-6.68,11.57-5.2,4.37-11.42,6-18,6.89a49.34,49.34,0,0,1-16.92-.69c-5.77-1.26-11.3-3.24-15.53-7.54a17.59,17.59,0,0,1-3.39-20.19c3.88-8,10.54-12.5,18.75-15.13A31.36,31.36,0,0,1,79.84,65.59Z" transform="translate(1.61 3.12)" style="fill:#efece3"/><path d="M65.66,58.66a5.14,5.14,0,0,1-5.11,5.27A5.35,5.35,0,0,1,55,58.66,5.43,5.43,0,0,1,60.56,53C63.5,53,65.66,55.41,65.66,58.66Z" transform="translate(1.61 3.12)" style="fill:#220602"/><path d="M94.34,58.31A5.26,5.26,0,0,1,99.48,53,5.41,5.41,0,0,1,105,58.38a5.29,5.29,0,0,1-5.29,5.48C96.47,63.88,94.33,61.65,94.34,58.31Z" transform="translate(1.61 3.12)" style="fill:#1f0602"/><path d="M78.29,91.43c-3.69-1.51-6.92-3.52-8.67-7.36-1.31-2.86-.51-5.43,2.32-6.86A11.75,11.75,0,0,1,76.59,76a33.06,33.06,0,0,1,8.66.28,11,11,0,0,1,3.14,1.07c3.11,1.75,3.48,4.93,1,8.22-1.4-.47-2,.48-2.26,1.52A2,2,0,0,1,85,88.81c-.44,0-1,0-1.19.43C82.59,91.55,80.49,91.61,78.29,91.43Z" transform="translate(1.61 3.12)" style="fill:#260b01"/><path d="M78.29,91.43c1.27-.85,3,.16,4.19-1,.19-.18.65-.31.64-.44-.15-2,1.38-1.47,2.45-1.58.47,0,1.1-.19,1-.66-.35-1.13.6-1.58,1-2.27.59-1,1.29-.86,1.81.15a13.49,13.49,0,0,1-6.5,5.16,1.76,1.76,0,0,0-1.2,2,6.66,6.66,0,0,0,2.45,4.77c4.31,3.58,10.79,4.2,14.93,1.45a10.52,10.52,0,0,0,4.59-7.24c.21-1.17.5-2.16,1.93-1.91s1.42,1.48,1.23,2.63c-1.36,7.87-8.37,12.65-16.6,11.26a15.26,15.26,0,0,1-9.5-5.11c-.64-.75-.87-.4-1.35.11a16.45,16.45,0,0,1-18.57,3.86c-4.54-2-6.82-5.89-7.61-10.69-.15-.94.11-1.85,1.26-2a1.47,1.47,0,0,1,1.81,1.31c1.53,9,9.89,11.35,17,8.11C76.57,97.81,78.71,95.43,78.29,91.43Z" transform="translate(1.61 3.12)" style="fill:#140403"/><path d="M61.45,54.8c1.12.16,1.84.63,1.72,1.73a1.66,1.66,0,0,1-1.76,1.63,1.56,1.56,0,0,1-1.53-1.95A1.42,1.42,0,0,1,61.45,54.8Z" transform="translate(1.61 3.12)" style="fill:#f2decf"/><path d="M100.09,56c0,1.45-.54,2.14-1.54,2.17a1.58,1.58,0,0,1-1.76-1.61,1.54,1.54,0,0,1,1.69-1.65C99.46,54.9,100.06,55.32,100.09,56Z" transform="translate(1.61 3.12)" style="fill:#f4e1d1"/></g></g></g></svg>