<svg xmlns="http://www.w3.org/2000/svg" viewBox="0 0 84.75 74.07"><g id="Capa_2" data-name="Capa 2"><g id="ADOPTAR"><path d="M39.29,30.06c7.06.25,12.89,3.06,16.94,9,3.4,4.94,6.59,10,9.74,15.15A12.91,12.91,0,0,1,64.91,69.3a12.65,12.65,0,0,1-14.64,3.83,27.73,27.73,0,0,0-22,0A13,13,0,0,1,12.47,54.44c3.25-5.31,6.54-10.61,10.1-15.7C26.56,33,32.3,30.33,39.29,30.06Z" style="fill:#260b01"/><path d="M45.44,14.15a14.78,14.78,0,0,1-2.78,9c-4.9,6.88-14.16,6.93-19.18.1A15.68,15.68,0,0,1,23.56,5c5.08-6.8,14.29-6.66,19.17.29A14.79,14.79,0,0,1,45.44,14.15Z" style="fill:#260b01"/><path d="M70.17,18.68c-.33,5.62-2.61,10.09-7.86,12.59a10.26,10.26,0,0,1-13.8-4.68A14.16,14.16,0,0,1,55,7.64c7-3.15,14.6,1.64,15.16,9.55C70.2,17.69,70.17,18.18,70.17,18.68Z" style="fill:#260b01"/><path d="M0,28.1C.05,22.49,2.66,18.45,6.59,17a10.65,10.65,0,0,1,11.67,3.31,12.87,12.87,0,0,1,3.15,11.83c-.88,3.87-3.16,6.71-7.12,7.73s-7.53-.24-10.4-3.13A12.85,12.85,0,0,1,0,28.1Z" style="fill:#260b01"/><path d="M74.64,28.32a9.7,9.7,0,0,1,10,8.82c.83,6.32-4.06,13-10.34,14.14s-11.57-2.94-12-9.52A13.12,13.12,0,0,1,74.64,28.32Z" style="fill:#260b01"/></g></g></svg>