<svg xmlns="http://www.w3.org/2000/svg" viewBox="0 0 313.9 402.78"><g id="Capa_2" data-name="Capa 2"><g id="MASCOTAS"><path d="M0,402.62c1.17-13.68,5.15-26.64,10.23-39.3,8.56-21.38,20.5-41,31.23-61.3a137.9,137.9,0,0,0,15.67-53.1,169,169,0,0,0-.23-29.33A12.8,12.8,0,0,0,52.62,211C39,198,29.94,182.54,26.41,163.88c-2.84-15-.6-29.44,3.88-43.65,3.1-9.81,6.67-19.5,10.41-29.09,3.58-9.18,4.47-18.59,4.4-28.35-.07-11,1.55-21.89,6.35-32C61,10.65,77.74,4,98.41,12.24a9,9,0,0,0,8.34-.3,112.41,112.41,0,0,1,101.34.24c2.86,1.43,4.76,1.05,7.34,0,12.73-5.46,24.89-4.61,36.37,3.56a25.78,25.78,0,0,1,6.81,7.87c6.31,10.24,10.5,21.64,10,33.5-.81,17.57,4.36,33.39,10.49,49.27,5.58,14.46,10.21,29.18,9.8,45-.55,21-8.13,39.12-22.4,54.49a38.92,38.92,0,0,1-4.6,4.57c-3.93,3-4.77,6.84-5.14,11.64-1.59,20.81.41,41.1,7.38,60.81,4.22,12,10.33,23,16.45,34.11,12.92,23.45,26.24,46.77,31.67,73.46.82,4,1.95,8.07,1.62,12.28h-60a3.78,3.78,0,0,1-2.12-3.15c-2-13.22-6.23-25.81-11.19-38.18a9.75,9.75,0,0,1-1-5.32c.87-1.65,2.54-2,4.12-2.51,7.75-2.38,11.82-8.18,14.2-15.46.54-1.66,1.54-4.19-.54-4.88-2.37-.78-2.56,2-3,3.64-2.13,7.43-6.69,12.15-14.55,13.1-5.7.69-10.73-1.82-15.81-3.8-6.65-2.59-8.53-1.92-11.43,4.72-1.05,2.42-1.33,5.19-3.26,7.2-3.71,1.48-7.22-.7-10.85-.6a9.15,9.15,0,0,1-2.72-1c-3.9-3.28-8.49-5.6-12.43-8.85.86-9.94,5.84-17.6,13.55-23.48,6.36-4.85,8.32-4.94,26.78-4.35.8-1,.15-1.91-.08-2.81-4.53-17.78-7.79-35.74-8.1-54.17-.08-4.63-1-9.24-.93-13.92.06-4.49-.48-4.84-4.53-3-16.36,7.6-33.87,9.88-51.53,10.19a134.48,134.48,0,0,1-53.65-9.79c-4.94-2-5.32-1.72-5.37,3.61-.22,22.55-2.72,44.82-8.75,66.59-1.06,3.84.41,3.63,3.35,3.28,16.23-2,26.43,3,33.78,16.24a22.38,22.38,0,0,1,3,11.92c-.59,2.31-2.76,2.63-4.46,3.59-2.74,1.56-5.49,3.14-7.44,5.74-.87,1-1.07,2.82-3,2.72a4,4,0,0,0-4.77-1.58,7.07,7.07,0,0,1-6.57-1.45c-1.7-2.85-2.81-6-4.45-8.88-1.87-3.29-4.36-4.3-7.89-2.76A87.57,87.57,0,0,1,83,349c-10.41,3.19-18.93-1-22.9-11.05-.68-1.74-.48-5.38-3.38-4.28-2.29.87-.73,3.89-.1,5.84,2.68,8.35,9.26,13.39,18,14,1.62.11,3.37-.12,4.57,1.41-6.78,5-8.29,12.82-10.71,20.05A110.59,110.59,0,0,0,63,397.23c-.25,2.16-.83,4.29-3,5.43Z" style="fill:#729960"/><path d="M60,402.66c2.79-9,3.55-18.56,6.88-27.45,2.16-5.75,4.48-11.44,6.43-17.25,1-3.13,4.07-1.61,5.75-3,4.53-3.1,10-3.91,14.87-6.24,1.91-.92,3,.67,3.77,2.23,1.29,2.66,2.11,5.55,3.83,8,2.18,3.09,3.41,6.73,5.57,9.83,1.7,2.43,3.19,2.33,4.92-.07,2-2.71,2-6.24,4-8.87,1.11-.79.46-2.65,2-3.21,3.21-.09,4.33,2.64,6.09,4.51,1,1.07,1.8,2.78,3.53,2.28,1.95-.57,1.86-2.56,2-4.2.26-3.48-.25-7,.35-10.46a33.53,33.53,0,0,0-8.44-19.18c-7.92-9.12-17.73-10.27-28.58-8.24-5.65,1.05-5.54,1.25-3.9-4.44,4.53-15.67,6.73-31.7,8.06-47.93.63-7.64.86-15.26.89-22.9,0-3,.29-4.18,3.92-2.56a131.93,131.93,0,0,0,57.71,11.08c18-.46,35.77-2.8,52.1-11.21,4-2.06,4.24-.44,4.28,3,.33,23.6,2.51,47,8.85,69.85.53,1.9,1.12,3.78,1.92,6.44-4.94-1.77-9.64-1.84-14.37-2-9.49-.42-16.1,4.16-21.53,11.27A36.79,36.79,0,0,0,184,348.72c1.27,1.7.2,3.51.19,5.26a21.82,21.82,0,0,0,.78,7.33c1.22,3.51,2,3.6,4.54.89,2.06-2.22,2.94-5.69,6.57-6.27a1.72,1.72,0,0,1,1.81.8C200,359.8,199,363.82,201,367c.87,1.37,1.3,3.3,3.14,3.51,2.27.26,2.86-1.88,3.7-3.4,1.51-2.73,2.77-5.6,4.43-8.26,2.28-3,2.24-7.73,5.92-9.42,3.87-1.76,7.1,1.78,10.66,2.75,3.74,1,8,.61,11.1,3.58,6.07,15.21,11.33,30.66,13.92,46.91-23.81.05-47.62.16-71.43.15Q121.21,402.78,60,402.66Z" style="fill:#bccc74"/><path d="M79.92,177.75c4.6-1.87,5.35-5.46,5.07-10a84.05,84.05,0,0,1,11.93-49.55c7.81-12.94,18.53-23.12,32.64-29.54,8.35-3.81,17.21-5.26,26-5.62,16.76-.69,31.7,4.72,44.86,15.61,15.92,13.17,24.1,30.5,28.11,50.06,1.48,7.23,2.25,14.85,1.21,22.27A7.7,7.7,0,0,0,233,179c-1.29,5.43-5.81,7.95-10,10.49a92.19,92.19,0,0,1-23.43,9.82c-14.91,4.11-30.09,5.09-45.5,5a155.09,155.09,0,0,1-44.32-6.37C100.28,195,91.46,190.8,84,184.13,82.1,182.44,79.53,181,79.92,177.75Z" style="fill:#88a862"/><path d="M79.92,177.75c6.78,8.77,16,14.09,26.27,17.32,35.69,11.25,71.33,11.5,106.6-1.95,7.82-3,14.93-7.33,20.23-14.1a40.58,40.58,0,0,0,8.83-11.33c1-1.83,2.17-3.49,4.7-2.23s2.34,3.32,1.23,5.45c-7.28,14-19,23-33.13,29-23.6,10-48.4,11.21-73.52,9.41-15.17-1.09-30-4-43.92-10.32-12.42-5.59-22.75-13.73-29.7-25.7a13.72,13.72,0,0,1-1.41-2.64c-.6-1.95-1-4,1.23-5.3,2.49-1.4,3.67.57,4.73,2.24C74.36,171.22,76.29,175.14,79.92,177.75Z" style="fill:#1b0b03"/><path d="M258.9,76.42a27.62,27.62,0,0,1-27.63,27.13A28.65,28.65,0,0,1,203.13,75c0-14.93,12.81-27.56,27.89-27.41C247.29,47.72,259.08,59.93,258.9,76.42Z" style="fill:#efeedc"/><path d="M55,75.39A28,28,0,0,1,83.4,47.54c14.91.06,27.4,12.79,27.38,27.91,0,15.5-13.31,28.32-29,28C67.27,103.21,54.87,90.21,55,75.39Z" style="fill:#efefde"/><path d="M31,365.74c-4.87.35-7.74-2-8.83-6.75-1.42-6.26,2.94-15.41,8.67-18.1,5.2-2.44,9.62-.3,12.09,4.88C46.19,352.61,38.86,367.29,31,365.74Z" style="fill:#836a42"/><path d="M239.9,355.72c-6.4-.78-12.66-2.16-18.4-5.14-2.68-1.4-3.72-.74-4.68,1.85s-1.8,5.31-3.88,7.34a3,3,0,0,1-4-2.07,43.06,43.06,0,0,1,4.26-11.06c2.32-4.06,5-4.72,9.05-2.83a86.08,86.08,0,0,0,11.16,4.2,15.1,15.1,0,0,0,19.32-10.24c.29-.94.35-2,.64-2.91.65-2,1.07-4.62,4.07-3.95,3.24.72,2.78,3.58,2.21,5.71C256.91,346.87,251.05,354.08,239.9,355.72Z" style="fill:#496a37"/><path d="M100.89,359.76c-2.58-2-2.91-5.13-4-7.85-.93-2.38-1.87-3-4.27-1.58a35.63,35.63,0,0,1-13.59,4.59c-14.79-.62-21.77-5.83-24.71-18.15-.64-2.7-.3-4.9,2.31-5.73,2.77-.88,3.13,1.75,3.71,3.59,5,15.86,15.87,16.42,26.79,11.42,10.2-4.68,10.71-6.18,16.78,6.86a22,22,0,0,1,1,3.81C104.9,359.47,103.72,360.73,100.89,359.76Z" style="fill:#496c39"/><path d="M135.53,31.79c-4.87-.1-10.61-5-10.43-8.88s4.43-8.21,8.16-8c5.16.25,10.82,5.68,10.59,10.18C143.66,28.87,140,31.87,135.53,31.79Z" style="fill:#7d663d"/><path d="M244.89,291.24c-.17-4,1.88-5.65,5.78-5.52,5.21.16,10.39,5.24,10.12,10.24-.22,4.05-2.72,5.78-6.54,5.74C249.66,301.65,244.84,296.2,244.89,291.24Z" style="fill:#7e6d43"/><path d="M157.85,50.76A6,6,0,0,1,152,45c-.36-3.72,4.64-8.51,8.61-8,3.27.43,6.8,1.54,7,5.7C167.86,46.61,162.73,50.79,157.85,50.76Z" style="fill:#7d683f"/><path d="M209,357.7l4,2.07c-1.73,3.39-3.35,6.85-5.21,10.17-2.09,3.72-4.32,3.75-6.6.08a21.2,21.2,0,0,1-3.25-13.29C201.75,355.13,205.23,357.85,209,357.7Z" style="fill:#80784f"/><path d="M100.89,359.76c2-.08,3.15-1.44,4.07-3,2.4,0,4.68,1.52,7.21.13,3.19-1.75,4,.07,3.84,2.95.33,4.25-1.67,7.74-3.89,11-1.63,2.4-3.62,2.91-5.3-.18C104.86,367,102.87,363.39,100.89,359.76Z" style="fill:#7d7749"/><path d="M253.5,261.84c-.69,6.23-3.93,10.16-7.54,9.85s-5.61-3.76-5.05-8.73c.47-4.12,4-7.68,7.51-7.12S253,259.46,253.5,261.84Z" style="fill:#7f6e42"/><path d="M196.07,355.93c-2.14,2.73-4.25,5.48-6.41,8.18-2.5,3.12-4,2.93-5.46-.83a20.85,20.85,0,0,1-.21-14.56C189.86,348,192.25,353.18,196.07,355.93Z" style="fill:#81784c"/><path d="M155.65,17.8c-3.88.53-6-1.81-6.54-5.48-.37-2.58,4.79-6.38,7.92-6.58,4.05-.25,6.38,1.54,6.71,5.47C164,14.55,160,17.79,155.65,17.8Z" style="fill:#7e7a4d"/><path d="M129.93,348.72c1.91,4.45,1,9,.52,13.57a3.6,3.6,0,0,1-2.62,3.31c-1.78.45-2.79-.87-3.64-2a34.26,34.26,0,0,0-6.23-7C120.82,352.24,125.2,350.21,129.93,348.72Z" style="fill:#7a7246"/><path d="M60.94,261.68c0-3.89,3.22-8,6.13-7.87,2.69.1,5.84,4.48,5.41,8.45a6.7,6.7,0,0,1-5.94,6.31C63.47,269,60.91,265.58,60.94,261.68Z" style="fill:#7b7145"/><path d="M23.93,388.14c0,4.2-3.28,7.59-7,7.6-3.55,0-5.08-1.84-5-5.27.1-3.75,4.13-8.82,7.07-8.35C22.28,382.64,24.31,384.68,23.93,388.14Z" style="fill:#7a7547"/><path d="M178.7,22.8a4.87,4.87,0,0,1-4.57-4.87c-.24-3.86,3.39-7,7.51-7.16,3.52-.15,5.35,1.87,5.88,4.88S183.28,22.8,178.7,22.8Z" style="fill:#776a3e"/><path d="M50,377.89c-.06,4.17-2.61,6.94-6.26,6.85-3.32-.08-4.77-1.84-4.76-5.06,0-4.4,2.21-7,5.87-7S50,374.42,50,377.89Z" style="fill:#797245"/><path d="M180.86,140.19c1.36-5.29,2.29-11.52,8.63-14.65,3.42-1.7,6.61-1.39,8.47,2.24s-.08,6.3-3.16,7.75c-3.54,1.67-6.72,3.41-8.48,7.15-.66,1.43-1.63,3.36-3.57,2.8C180.59,144.87,180.86,142.68,180.86,140.19Z" style="fill:#1f0c04"/><path d="M133.07,140.94c-.12,2.19.32,4.2-1.8,4.72s-2.82-1.38-3.5-2.83c-1.58-3.35-4.22-5.31-7.5-6.85-4.47-2.1-5.9-6-3.73-9.17,1.92-2.8,6.18-3,9.75-.21C131,130.37,132.56,135.74,133.07,140.94Z" style="fill:#1e0d04"/><path d="M246.14,75.27c0,11.4-8.14,19.82-19.15,19.87a18.68,18.68,0,0,1-18.93-18.89,19.23,19.23,0,0,1,19.41-19.66A18.74,18.74,0,0,1,246.14,75.27Z" style="fill:#260c01"/><path d="M106,76.06c0,11.36-8.27,19.54-19.49,19.34-9.85-.17-18.79-9.21-18.76-19A19.53,19.53,0,0,1,87.16,56.58C97.88,56.53,106,65,106,76.06Z" style="fill:#270c02"/><path d="M234.19,63.4c3.15.78,5.69,2.39,5.44,6-.22,3.14-2.15,5.32-5.57,5.08-3.64-.24-5.27-2.77-5.15-6.11C229,65.28,231.1,63.69,234.19,63.4Z" style="fill:#ebe2d8"/><path d="M99,69.2c-.44,3-1.76,5.46-5.27,5.33s-5.07-2.4-5-5.66c.08-3.07,1.87-5.08,5-5.13C97.12,63.68,98.81,65.74,99,69.2Z" style="fill:#efe5d8"/></g></g></svg>