<svg xmlns="http://www.w3.org/2000/svg" viewBox="0 0 314.01 387.11"><g id="Capa_2" data-name="Capa 2"><g id="MASCOTAS"><path d="M41.92,250.22c-18.56-16.45-31.15-36.57-37.24-60.68A42.19,42.19,0,0,1,4,185.15c-.66-.9-.82-2.12-.05-2.72,1.09-.84,1.69.41,2.22,1.19a16.35,16.35,0,0,1,1.36,2.67c6.47,15,18.88,21,34.24,21.47,27.7.88,48.49-11.56,63.58-34.31a31.11,31.11,0,0,1,2-2.89c4.54-4.3,10.1-7.44,13.25-13.28,5.46-10.09,5.82-20.18,1.14-30.54-.6-1.35-1.57-2.58-1.17-4.2,1.77-3.47,1.82-7.39,2.94-11.05a73.88,73.88,0,0,1,13.22-25c10.94-13.56,26.61-14.32,38.92-2,7.89,7.88,12.32,17.69,15.54,28.13,1,3.17,1.72,6.43,2.56,9.66.27,2.29-.88,4.2-1.79,6.13-6.43,13.67-.14,32.8,12.47,39.18,1.44.73,3.05,1.42,3.85,3,.22,3,2.21,5.19,3.9,7.38,17,22.14,39.06,33,67.25,29,13.48-1.94,23.25-9.31,28.13-22.42.46-1.24.78-2.74,2.18-3.17,1.77-.54,2.09.33,1.24,1.8-4.73,26.57-17.58,48.47-37.9,66.09-1.67,4.56-5.84,6.76-9.44,9.18-15,10.09-30.94,18.26-48.45,23.1-5.79,1.61-6,2-3.25,7.46,15,29.35,22,60.85,25.49,93.33.17,1.6.81,3.3-.4,4.81l-160,0c-1.13-7.27,1.34-14.17,2.27-21.2a241.55,241.55,0,0,1,22.94-76.69c2.86-5.74,2.6-5.78-3.62-7.79-19.45-6.3-37.87-14.64-53.79-27.8A8.68,8.68,0,0,1,41.92,250.22Z" style="fill:#d6d1cd"/><path d="M41.92,250.22c8.23,5,15.29,11.58,23.93,16a204.49,204.49,0,0,0,35.36,14.46c5.44,1.61,5.81,2.24,3.14,7.46a223.85,223.85,0,0,0-18.7,50.67c-3.46,14.66-5.53,29.56-7.58,44.47A9.69,9.69,0,0,1,77,387.08L0,387c2.32-7.62,2.48-15.61,3.8-23.41a437.61,437.61,0,0,1,13.34-54.39,339.4,339.4,0,0,1,20.44-51.18C38.9,255.38,40.47,252.83,41.92,250.22Z" style="fill:#a4a4b0"/><path d="M237,387.11c-2-10.55-2.73-21.26-4.82-31.82-4.62-23.36-11.06-46-22.18-67.21-3-5.8-2.95-5.79,3.25-7.5a155,155,0,0,0,59.8-31.35c-.37,1.78.53,3.23,1.3,4.7a334.86,334.86,0,0,1,26.7,68.5c5.48,20.1,10.37,40.38,12,61.27a15.63,15.63,0,0,0,1,3.29Z" style="fill:#a4a4b0"/><path d="M107.94,171.26c-15.22,29.14-51.68,44.88-80.53,35.22-11.19-3.75-17.94-11.52-22.19-22-.17-.43.26-1.48-.89-1.19-.09,0-.17.26-.19.41,0,.5-.08,1-.11,1.49-3.13-8-2.17-16.37-1.8-24.55a126.22,126.22,0,0,1,3.15-24.11c2.29-9.4,4.91-18.83,10.16-26.92,5.85-9,5.64-18.28,4.39-28.17-1.64-13-2.55-26-1.15-39.18,1-9.76,1.85-19.45,5-28.78C28.15.88,35.79-2.38,48.21,2.17,63.34,7.7,76,16.83,87.81,27.47c2.1,1.88,4.44,3.51,6.42,5.5a6,6,0,0,0,7.17,1.61c20.68-7.71,42.13-10.26,64.08-9.39A156.66,156.66,0,0,1,213,34.72c2.91,1.06,4.44.8,7.05-1.63C234.91,19.26,250.47,6.23,270.73.87c9.19-2.44,14.07.2,18,8.64,4.94,10.59,6.57,22,7.09,33.35.78,17.42.23,34.86-2.79,52.12-.53,3.06,1,5.48,2.4,7.94a129.66,129.66,0,0,1,16.76,56.24,156.11,156.11,0,0,1-.22,20.3c-.08,1.3.23,2.71-1,3.69-.29-1.43-1.29-1.85-1.63-.36C304,206.15,277,212.41,255.74,208c-20.67-4.31-36.06-16-47.41-33.42-.41-.62-3.73-2.11-.31-3.49,2.07-.8,3.92.24,5.81.71A33.4,33.4,0,0,0,251.44,156c7.47-13.23,4.95-28.46-5.75-39.85-12.31-13.12-34-11.67-45.25-.13-2.23,2.29-3.82,5.49-7.38,6.28-3.13-5.51-3.33-12-6-17.7-3.41-7.25-7.13-14.18-12.93-19.87C163.65,74.47,151,74,140.66,84.23c-9.91,9.84-15.37,22.16-17.68,35.89-.18,1.1.63,3.13-1.89,2-2.18-.48-3-2.48-4.43-3.86-9.5-9.48-20.5-14.32-33.95-10.24s-21.45,13.37-23.86,27.38c-2.39,13.83,7.79,30.53,21.46,35.21,7.64,2.61,15.25,3.29,23,.48C104.83,170.5,106.46,169.74,107.94,171.26Z" style="fill:#a4a5b0"/><path d="M107.94,171.26c-3.34.9-6.64,2.29-10,2.63C85.07,175.2,73.5,172,65.39,161.51c-8.75-11.34-11.27-24-4.39-37.35,6.38-12.39,17-18.84,30.63-18.8,12.55,0,22.62,5.9,29.46,16.73,3.36,6.36,5.44,12.86,5.09,20.34-.53,11-5.15,19.26-13.84,25.59C110.87,169.09,109.41,170.18,107.94,171.26Z" style="fill:#efede4"/><path d="M193.06,122.29c6.27-8.62,14.07-14.62,25-16.45,18.8-3.14,37.92,11.82,38.83,30.84,1.31,27.31-23.54,44.79-48.88,34.38-19.33-8.23-24.66-30.86-16-46A18.24,18.24,0,0,0,193.06,122.29Z" style="fill:#f0eee4"/><path d="M157.57,198.1c-11.62,10.31-21.86,12.07-32.79,5.9a17.8,17.8,0,0,1-7.8-9.41c-.78-2-1.6-4.45,1.15-5.64,2.59-1.12,4.1.73,5.07,2.78,3.36,7.07,9.29,9.1,16.52,8.58a14.12,14.12,0,0,0,12.68-9.72c1.34-4.19,1.26-7.58-3.35-10a19.65,19.65,0,0,1-7.31-7.39c-1.74-2.87-1.22-5.39,2.21-6.18a62.16,62.16,0,0,1,26.19-.13c3.9.77,4.53,3.69,2.15,6.82a30.2,30.2,0,0,1-8.34,7.83c-2.76,1.66-3.26,3.86-2.65,6.78,1.41,6.74,5.61,10.8,12.47,11.85,7.56,1.16,13.87-1.52,17.1-7.48,1.22-2.24,2.17-5.25,5.3-3.49s1.63,4.72.47,7.1C189.68,210.53,167.11,211,157.57,198.1Z" style="fill:#180704"/><path d="M282,53.68a130.55,130.55,0,0,1-1.72,22.25c-.49,3.33-1.46,3.7-3.81,1.29-6.48-6.66-13-13.28-20.55-18.82-5.62-4.11-11.21-8.23-17.4-11.45-3.64-1.89-4.82-3.26-1.06-6.9a99.66,99.66,0,0,1,28.31-19.14c6.73-3.09,10.77-1.27,12.91,5.76C281.34,35.45,282.11,44.52,282,53.68Z" style="fill:#d6d2ca"/><path d="M33,52.3c-.3-8-.19-16,2.13-23.73,2.11-7.09,5.18-11.86,14.58-7.28A117.77,117.77,0,0,1,78.6,41.35c1.17,1.09,3.37,2.1.1,3.89A162.23,162.23,0,0,0,40.35,74.32c-1.39,1.43-2.49,4.29-5,3.3-2.16-.86-1-3.58-1.41-5.45C32.45,65.59,33.2,58.92,33,52.3Z" style="fill:#d8d3ca"/><path d="M118.78,140.6c-.26,13.07-10.5,23.19-23.31,23-12.57-.16-22.58-10.94-22.27-24C73.48,127.3,83.9,117,96,117.06A23.23,23.23,0,0,1,118.78,140.6Z" style="fill:#260a01"/><path d="M195.66,140.17c.09-12.36,10.38-23,22.23-23,13.41,0,23.37,9.88,23.35,23.23,0,13.08-10.15,23.44-22.82,23.33A23.2,23.2,0,0,1,195.66,140.17Z" style="fill:#240902"/><path d="M105.3,125.11a6.77,6.77,0,0,1,6.49,7.3c-.43,4.1-3.5,5.49-7,5.76s-6.44-2.84-6.44-6.78C98.32,127.91,101.51,125,105.3,125.11Z" style="fill:#f2eee5"/><path d="M227,138.33c-3.76,0-6.25-2.83-6.2-6.94a6.06,6.06,0,0,1,6.78-6.24c3.7.34,6.27,2.14,6.35,6.26A6.75,6.75,0,0,1,227,138.33Z" style="fill:#f5f0e9"/></g></g></svg>