<svg xmlns="http://www.w3.org/2000/svg" viewBox="0 0 406.03 409.58"><g id="Capa_2" data-name="Capa 2"><g id="TIENDA"><path d="M45.38,298.92a97.26,97.26,0,0,0,4.79-16.77,90.65,90.65,0,0,0,1.2-22.76c-1.48-23.14.27-84.7,9.58-110.2,3.49-9.55,3.62-20.2,7.69-29.51a9.36,9.36,0,0,0,.78-6c-.47-1.88-1.74-3.51-3.81-5.21A71.69,71.69,0,0,1,51.29,93.25C43.11,81,45.69,73.75,59.7,69.89A80.16,80.16,0,0,1,82.22,67.5c2.18,0,4.35.2,6.2-1.48,17.49-15.86,37.12-27.94,61.71-33.5-6.58-3.44-11.42-6.87-15.33-11.45-2.06-2.4-4.89-5-3.42-8.24,1.33-3,4.93-2.9,8-3,10.88-.48,21.47,1.63,32,4,5.1,1.13,7.53,1.27,7-5.34C177.74.57,181-1.22,188.76.72c13.69,3.42,25,11.29,36.12,19.33,5.11,3.69,10.18,6.44,16.6,7.41,20.33,3.08,37.82,13.16,55.16,23.43,7.71,4.56,15.73,8.66,22.35,14.87,2.15,2,4.81,1.72,7.37,1.61A63.94,63.94,0,0,1,351,71c9.72,3.48,12.06,9.52,7.24,18.62-3.54,6.67-8.93,11.76-14.58,16.48-2.9,2.43-4.42,4.17-5,6.9-.94,4.3,1.54,8.16,2.57,9.88,4.47,7.48,4.68,16.8,7.19,25.15,7.11,23.67,8.29,58.65,9.58,97,.14,4.24.09,8.29.09,8.29,0,1,0,2.07-.09,3.69-.51,13.87,2.51,38.25,8.39,58.7,1.05,3.66,2,6.51,3,9.16a305.32,305.32,0,0,0,17.34,37.55c5.59,10.18,12.8,25.46,19.27,47.18q-18-.48-36.47-.66-39.06-.36-76.22.66c-.86-2.16-2.07-5.22-3.46-8.91-5-13.34-5.71-23-12.42-37.38-9.77-20.91-14.08-42.7-12.13-65.71a84,84,0,0,1,13.26-39.28,129.33,129.33,0,0,0,16.28-35.77c8.36-29.82-15.35-56.27-44-56.68-26.92-.38-53.84-.48-80.76-.83a89.92,89.92,0,0,0-19.62,1.89c-30,6.25-46,36.58-34.63,64.94a180.92,180.92,0,0,0,13,25.62c16.3,27.13,17.68,55.74,9.18,85.43a169.47,169.47,0,0,1-9.18,24c-4.91,10.65-5.64,19.44-11.4,35.83-1,2.9-1.89,5.28-2.46,6.83H0a340,340,0,0,1,19-50.77S37.44,321.25,45.38,298.92Z" style="fill:#270c01"/><path d="M114,409.58c.41-1.27,1.27-4,1.68-5.25,6.13-19.18,11.5-37.54,12.89-40.69,12.27-27.72,17.57-56.26,7.9-86-3.95-12.18-11.47-22.64-17.08-34-4.34-8.82-8-17.76-9.09-27.57-1.87-16.9,5.86-29.61,18.14-40a50.23,50.23,0,0,1,32.91-12.15c31.52-.3,63-1,94.54.83,27.27,1.55,46.82,27.62,41.46,54.4a107.22,107.22,0,0,1-16.17,38.18c-15.41,23.38-17.07,48.7-12.27,75.2a110,110,0,0,0,9,27.75c3.31,6.94,4.08,9.33,6.2,14.57a148.47,148.47,0,0,1,9.21,34.83Z" style="fill:#efe8e0"/><path d="M136.54,133.21a27.35,27.35,0,0,1-2.81,13c-1,2-2.45,3.57-5,3.63s-4.09-1.65-4.89-3.67c-3.48-8.72-4.55-17.54-.66-26.5,1.1-2.55,2.64-4.59,5.53-4.64s4.3,2.19,5.47,4.66C136.11,123.78,136.59,128,136.54,133.21Z" style="fill:#f0ece2"/><path d="M292,129.9a38,38,0,0,1-3,15.89c-.81,2.05-1.9,4-4.59,4.05a5.22,5.22,0,0,1-5.22-3.27c-4.05-9.1-4.85-18.42-.45-27.55,2.56-5.27,6.77-5.15,10-.21A25.36,25.36,0,0,1,292,129.9Z" style="fill:#edebdf"/><path d="M124.25,214.52c-6-1.68-7.15-6.84-7.67-11.58-.75-6.91,1.61-13.32,7.75-17,6.84-4.14,14.2-4,22.58.17-5,1.73-9.34,2.29-12.71,5s-3.41,4.91.86,6.31c18.24,6,38.89,8.4,60.26-1.26-5.39-2.52-10.8-4.56-14.92-8.8-4.92-5.07-4.47-9.38,1.75-12.87,5.16-2.89,10.92-3.54,16.71-4.06a54.6,54.6,0,0,1,25.28,3.18c8.74,3.45,9.44,9,2.46,15.18-3.63,3.23-8.16,4.74-13,7.27,20.59,9.22,40.53,8.27,60.55.83,3-1.13,2.84-2.89.69-4.87-3.5-3.23-7.81-4.53-12.53-5.14,6.54-5.95,20.29-4.8,25.23,1.93,6.92,9.43,5.51,20.13-3.54,25.87-1.14-2.5-.18-5.06-.31-7.55-.2-4-1.44-4.68-5.15-2.8-13,6.58-26.61,10.49-41.39,9.85-11-.48-21.26-3-30.21-9.71-1.51-1.14-2.72-2.56-5.09-.78-19.37,14.61-40.26,12.25-61.46,5.09A66.18,66.18,0,0,1,130,204.12c-3.86-2.09-5.29-1-5.44,3.17C124.51,209.59,125.53,212,124.25,214.52Z" style="fill:#1f0b04"/></g></g></svg>