<svg xmlns="http://www.w3.org/2000/svg" viewBox="0 0 403.16 413.12"><g id="Capa_2" data-name="Capa 2"><g id="MASCOTAS"><path d="M109,28.17C128.52,13.38,150.9,5.83,174.84,2A165.56,165.56,0,0,1,209.05.21c27.8,1.37,54.4,7.19,78.19,22.59,2.22,1.44,4.42,2.9,6.64,4.35A16.69,16.69,0,0,1,299.46,32c15,21.69,23.16,45.44,22.93,72.09-.11,13.4-1.73,26.55-3.7,39.73-3,19.71-3.61,39.43.33,59.1a91.6,91.6,0,0,0,7.85,22.59c.86,1.74,2.34,3.4,1,5.54-2.15,7.87.21,15.4,2.14,22.82,4.27,16.39,13.26,30.63,21.44,45.21,5.66,10.09,11.41,20.16,11.38,32.25,0,6.53-2.52,9.31-9.28,10,1,3.52,3,6.47,4.77,9.48a130.5,130.5,0,0,1,16.52,44.89c.61,3.42.91,7,2.13,10.17,1.67,4.4,0,6.24-4.05,7-30.29.07-60.57.19-90.85.2q-125.07,0-250.13,0c-2,0-4-.12-6-.19,3.06-16.58,5.32-33.4,12.86-48.75,3.64-7.43,7-15.06,11.91-21.83-1.5-2.15-4-1.13-5.81-2.54-5.19-4.06-4.63-9.32-3.5-14.52,2-9.32,6.43-17.78,11.06-26,9.26-16.43,19-32.59,22.7-51.46a69.82,69.82,0,0,0,1.66-17.75c-1.38-2.29.13-4.2,1-6.08,9.47-20.94,10.89-42.91,9-65.44-.64-7.48-1.89-14.84-3-22.21C81,119.14,80,101.86,82.58,84.67a122.32,122.32,0,0,1,20.54-51.45C104.62,31.05,106,28.65,109,28.17Z" style="fill:#e7bc79"/><path d="M327.84,231.07c-2.63-6.07-5.77-11.9-7.71-18.27-5.06-16.57-5.7-33.43-4.69-50.63,1.31-22,7.09-43.55,5.46-65.8-1.44-19.53-6.74-37.76-16.9-54.5-3.08-5.08-6.07-10.28-10.13-14.72,15.72.8,28.75,7.65,39.6,18.53,7,7,13.27,14.82,19.73,22.39,9.72,11.37,21.32,20.86,31.71,31.55a95.17,95.17,0,0,1,11.81,14.71c6.69,10.34,7.59,21.64,5.32,33.08-3.24,16.27-11.23,30.37-22,43a184.9,184.9,0,0,0-14.86,19.28c-5.1,7.94-6.45,17.29-7.36,26.54-1,10.55-5.76,13.33-15.39,8.72C336.09,241.9,332.33,236.11,327.84,231.07Z" style="fill:#c28d4f"/><path d="M109,28.17a118.82,118.82,0,0,0-26.24,72.44c-.44,16.85,2.69,33.25,4.74,49.85,3.28,26.57,2.65,53-10.08,77.7a9.85,9.85,0,0,0-.57,1.89c-2.36,2.76-4.9,5.38-7,8.31-3.55,4.88-8.54,7.3-14.14,8.55-4.8,1.06-9.67-3.09-9.64-9,.1-19.62-10.38-34-22.52-47.8C10.61,175.46,2.12,158.4.17,138.91c-1.15-11.44,3.76-21.69,11-30.62A202.22,202.22,0,0,1,35,84.28c9.13-8,16.61-17.62,24.58-26.73s16.28-18,26.9-24.2c6-3.5,12.66-4.78,19.31-6.12A3,3,0,0,1,109,28.17Z" style="fill:#c28c4e"/><path d="M201.41,132c25.58-1,47.9,6.73,67.2,22.17,17.94,14.36,28.46,33,26.06,56.79-1.43,14.19-9.09,25.44-20,34.56-15.52,13-34.11,18-53.63,20.57A146.92,146.92,0,0,1,170.51,264c-17.23-3.76-33.76-9.65-46.38-22.52-16-16.33-20-39.84-10.13-60.32,11.58-24,31.48-37.32,56-45.2A93.65,93.65,0,0,1,201.41,132Z" style="fill:#efece3"/><path d="M159.05,111.32c0,8.78-6.8,15.8-15.26,15.73-9.31-.09-16.49-7-16.46-15.76,0-9.72,7-16.87,16.48-16.84C152.59,94.47,159,101.61,159.05,111.32Z" style="fill:#220602"/><path d="M244.72,110.25c0-8.66,7-15.86,15.35-15.8a16.22,16.22,0,0,1,16.4,16c.08,9.22-6.78,16.33-15.82,16.39C251.09,126.91,244.7,120.25,244.72,110.25Z" style="fill:#1f0602"/><path d="M196.78,209.2c-11-4.52-20.68-10.5-25.92-22-3.89-8.55-1.51-16.22,7-20.49a35,35,0,0,1,13.89-3.51c8.62-.49,17.28-1,25.87.83a32.53,32.53,0,0,1,9.38,3.2c9.3,5.22,10.38,14.71,2.86,24.55-4.18-1.4-5.94,1.44-6.75,4.53-.92,3.48-2.77,5-6.21,5.06-1.31,0-2.86,0-3.56,1.28C209.63,209.55,203.36,209.74,196.78,209.2Z" style="fill:#260b01"/><path d="M196.78,209.2c3.8-2.55,8.95.47,12.52-3.07.56-.55,1.94-.92,1.91-1.3-.44-6.14,4.11-4.41,7.33-4.74,1.38-.14,3.29-.55,2.85-2-1-3.38,1.8-4.73,3-6.8,1.76-3,3.85-2.57,5.41.46a40.33,40.33,0,0,1-19.43,15.42c-2.91,1.14-3.8,3.1-3.56,6.11a19.8,19.8,0,0,0,7.29,14.24c12.88,10.73,32.26,12.55,44.62,4.36,7.84-5.19,12.07-12.64,13.71-21.65.64-3.49,1.5-6.46,5.77-5.69,4.6.83,4.25,4.41,3.66,7.86-4,23.52-25,37.79-49.58,33.64-11.13-1.89-21-6.48-28.39-15.28-1.9-2.25-2.6-1.19-4,.33-14.35,15.12-36.66,20-55.46,11.54-13.57-6.11-20.39-17.61-22.73-31.94-.47-2.82.32-5.54,3.75-6,2.78-.35,4.89.81,5.41,3.9,4.56,27,29.54,33.92,50.72,24.22C191.63,228.27,198,221.17,196.78,209.2Z" style="fill:#140403"/><path d="M146.48,99.76c3.32.48,5.47,1.91,5.12,5.17-.32,2.92-2.27,5.08-5.26,4.87-3.18-.21-5-2.35-4.57-5.8C142.12,101,143.93,99.75,146.48,99.76Z" style="fill:#f2decf"/><path d="M261.92,103.31c.08,4.3-1.63,6.38-4.63,6.46s-5.3-1.69-5.23-4.81c.06-2.85,1.69-5,5.05-4.93C260,100.07,261.82,101.32,261.92,103.31Z" style="fill:#f4e1d1"/></g></g></svg>