<svg xmlns="http://www.w3.org/2000/svg" viewBox="0 0 32.04 32.01"><g id="Capa_2" data-name="Capa 2"><g id="TIENDA"><path d="M16.07,0A16,16,0,0,1,32,16a16.15,16.15,0,0,1-16.1,16,16,16,0,0,1,.13-32Z" style="fill:#afee8e"/><path d="M12.81,24.94l-.33-.3Q8.7,20.86,4.91,17.09c-.21-.22-.31-.36,0-.62.94-.91,1.87-1.83,2.77-2.77.32-.34.46-.11.66.09,1.36,1.36,2.73,2.7,4.07,4.09.35.36.53.34.88,0C16.69,14.41,20.14,11,23.57,7.52c.41-.42.62-.45,1,0,.78.85,1.62,1.66,2.46,2.47.26.25.36.4,0,.72q-7,7-14,14C13,24.76,12.92,24.84,12.81,24.94Z" style="fill:#008f45"/></g></g></svg>