<svg xmlns="http://www.w3.org/2000/svg" viewBox="0 0 900.48 148.97"><g id="Capa_2" data-name="Capa 2"><g id="TIENDA"><rect width="900.48" height="21.66" style="fill:#260b01"/><path d="M402.71,120.3a38.39,38.39,0,0,1-34.81,28.62c-17.61.89-33.92-11-38.68-28.62V21.66h73.49Z" style="fill:#d77430"/><path d="M476.21,120.3a38.42,38.42,0,0,1-34.82,28.62c-17.61.89-33.92-11-38.68-28.62V21.66h73.5Z" style="fill:#fdd29f"/><path d="M549.7,120.3a38.41,38.41,0,0,1-34.81,28.62c-17.61.89-33.93-11-38.68-28.62V21.66H549.7Z" style="fill:#d77430"/><path d="M623.19,120.3a38.4,38.4,0,0,1-34.81,28.62c-17.61.89-33.93-11-38.68-28.62V21.66h73.49Z" style="fill:#fdd29f"/><path d="M108.74,120.3a38.39,38.39,0,0,1-34.81,28.62c-17.61.89-33.92-11-38.68-28.62V21.66h73.49Z" style="fill:#d77430"/><path d="M182.24,120.3a38.42,38.42,0,0,1-34.82,28.62c-17.61.89-33.92-11-38.68-28.62V21.66h73.5Z" style="fill:#fdd29f"/><path d="M255.73,120.3a38.41,38.41,0,0,1-34.81,28.62c-17.61.89-33.93-11-38.68-28.62V21.66h73.49Z" style="fill:#d77430"/><path d="M696.68,120.3a38.39,38.39,0,0,1-34.81,28.62c-17.61.89-33.92-11-38.68-28.62V21.66h73.49Z" style="fill:#d77430"/><path d="M770.18,120.3a38.42,38.42,0,0,1-34.82,28.62c-17.61.89-33.92-11-38.68-28.62V21.66h73.5Z" style="fill:#fdd29f"/><path d="M843.67,120.3a38.41,38.41,0,0,1-34.81,28.62c-17.61.89-33.93-11-38.68-28.62V21.66h73.49Z" style="fill:#d77430"/><path d="M329.22,120.3a38.4,38.4,0,0,1-34.81,28.62c-17.61.89-33.93-11-38.68-28.62V21.66h73.49Z" style="fill:#fdd29f"/></g></g></svg>