<svg xmlns="http://www.w3.org/2000/svg" viewBox="0 0 45.82 119.12"><defs><style>.cls-1{fill:#f9ced1;}.cls-2{fill:#cd3738;}.cls-3{fill:#941a1a;}</style></defs><g id="Capa_2" data-name="Capa 2"><g id="TIENDA"><g id="Accesorios"><path class="cls-1" d="M0,93v1.28A17.83,17.83,0,0,0,.54,96a18.16,18.16,0,0,0,1.33,2.91l7.33,7.74q2,2.08,4.14,4.19c2.86,2.81,5.7,5.44,8.49,7.9L45.74,95.28,44.4,85.71c-.27-1-.72-2.84-1.23-5.06-.6-2.6-.9-4.08-2.5-11.77-.89-4.23-1-4.86-1.28-6-.67-2.79-.9-3.33-1.5-6-.43-1.92-.48-2.39-1.14-5.65-.2-1-.73-3.65-1.29-6.17-1.23-5.54-1.7-6.65-2.61-11-.51-2.46-.85-4.47-1.05-5.75l-.63-2.94,2.09-4.09,3.44-7.64,2.11-5.55Q36,4.31,33.15.45l-5-.44H20.33L7.83,1.8a8.23,8.23,0,0,0-.76,2.07,8.11,8.11,0,0,0,0,3.3c.21.86.41,1.71.62,2.57L15.19,25a109.87,109.87,0,0,1-3.49,16.2,31.91,31.91,0,0,0-1,3.48L8.5,54.23Q6.87,61.66,5.22,69.08,4.11,74,3,78.91,1.46,86,0,93Z"/><path class="cls-2" d="M36.73,51.23c.37,1.62.71,3.09,1,4.55.51,2.27,1,4.54,1.55,6.79a1.4,1.4,0,0,1-.59,1.67q-12.81,9.92-25.6,19.88C9,87.35,4.85,90.62.71,93.87L0,94.32a8.6,8.6,0,0,1,0-1.45c.51-2.67,1-5.34,1.61-8,.51-2.36,1-4.71,1.65-7a3.15,3.15,0,0,1,1-1.5q8.79-6.93,17.64-13.78c4.69-3.64,9.42-7.25,14.13-10.87C36.19,51.55,36.36,51.47,36.73,51.23Z"/><path class="cls-2" d="M43.17,80.65a5.75,5.75,0,0,1-.81.93c-3.67,2.9-7.37,5.76-11,8.65Q22.13,97.42,13,104.63c-.9.7-1.8,1.43-2.75,2.06a1.06,1.06,0,0,1-1,0c-2.4-2.42-4.74-4.89-7.09-7.35-.43-.44-.29-.77.18-1.13L25.86,79.76c4.58-3.58,9.19-7.15,13.78-10.72.75-.58,1-.54,1.16.26q1.14,5.33,2.26,10.64C43.09,80.09,43.11,80.25,43.17,80.65Z"/><path class="cls-2" d="M44.4,85.71c.63,3.35,1.72,6.37,1.34,9.57a5.9,5.9,0,0,1-1.26,3c-3,3.4-6,6.75-9.17,10s-6.58,6.36-9.89,9.53a4.7,4.7,0,0,1-.43.35c-1.72,1.28-2.5,1.34-4.1-.11-2.5-2.26-4.89-4.64-7.34-7-.55-.51-.35-.9.13-1.29,2.12-1.71,4.21-3.46,6.36-5.13q11.54-9,23.11-17.92C43.51,86.46,43.85,86.16,44.4,85.71Z"/><path class="cls-2" d="M5.14,69.84A6.56,6.56,0,0,1,5.25,69c1.11-5,2.24-10,3.33-15.06A3.48,3.48,0,0,1,10,51.78q11-8.52,21.9-17.08a9.66,9.66,0,0,1,1-.64c.32,1.17.65,2.22.89,3.29.6,2.66,1.15,5.33,1.76,8A1.44,1.44,0,0,1,34.89,47Q20.67,58,6.48,69c-.38.3-.75.62-1.12.93Z"/><path class="cls-2" d="M20.34,41.89l-.46-3.29-9.07,6.9-.21-.13a8.08,8.08,0,0,1,.09-.86q1.82-7.87,3.63-15.76c.23-1,.38-2,.52-3a1.69,1.69,0,0,0-.15-1c-1.19-2.24-2.55-4.39-3.6-6.69C9.7,15,8.52,11.9,7.27,8.8A3.64,3.64,0,0,1,7,7.17c1.06.77,2.15,1.5,3.18,2.31q8.19,6.5,16.35,13c.66.52,1.23,1.16,1.92,1.62a4.92,4.92,0,0,0,1.82.75c.61.1.85.32.94.9a21.19,21.19,0,0,0,.56,2.63c.21.75-.34,1-.74,1.35-2.06,1.69-4.12,3.37-6.25,5a6.55,6.55,0,0,0-2.41,3.42,28.23,28.23,0,0,1-1.09,2.76,6.72,6.72,0,0,1-.67,1Z"/><path class="cls-2" d="M7.83,1.8c.15-.21.41-.44,1.54-.74L9.91.93C13.31.56,16.73.26,20.15,0a2.46,2.46,0,0,1,1.48.65c3.66,2.9,7.3,5.83,11,8.75,1.23,1,2.45,2,3.68,3a1.1,1.1,0,0,1,.36,1.52c-1.06,2.31-2,4.64-3.11,7-.54,1.18-.67,1.19-1.73.36L21.23,12.86C15.31,8.18,13.11,6.72,9.07,3.24L7.7,2.06A1.23,1.23,0,0,1,7.83,1.8Z"/><path class="cls-2" d="M28.05,0c.66.05,1.33.08,2,.16a59.31,59.31,0,0,1,6,.72c3.94.86,4.07,4.53,2.8,7.3-.26.58-.66.28-1,0L31.16,2.89l-2.1-1.68c-.38-.3-.75-.62-1.12-.92L27.62,0Z"/><path class="cls-3" d="M14.79,25.49l16.38,0c.22,1.11.45,2.22.67,3.33l-6.3.39c-.51,2.11-1.12,4.48-1.87,7.18a15.61,15.61,0,0,1-2.57,5.71c-.2.27-.38.48-.5.62,0-.12-.11-.31-.18-.54a16.77,16.77,0,0,1-.49-6.37c.12-1.92.26-4.23.43-7l-6-.08C14.48,27.66,14.64,26.58,14.79,25.49Z"/></g></g></g></svg>