<svg xmlns="http://www.w3.org/2000/svg" viewBox="0 0 113.07 59.2"><defs><style>.cls-1{fill:#487dbe;}.cls-2{fill:#497ebf;}.cls-3{fill:#225993;}.cls-4{fill:#235891;}.cls-5{fill:#a1d0f4;}.cls-6{fill:#9acbf2;}.cls-7{fill:#9fcef5;}.cls-8{fill:#98caf3;}.cls-9{fill:#9ecff4;}.cls-10{fill:#a2cef4;}.cls-11{fill:#98ccf3;}.cls-12{fill:#9accf1;}.cls-13{fill:#9dcff7;}.cls-14{fill:#9bcef5;}.cls-15{fill:#99cbf2;}.cls-16{fill:#a1cef2;}.cls-17{fill:#a0d0f4;}.cls-18{fill:#99cdf3;}.cls-19{fill:#9acef4;}.cls-20{fill:#99cff7;}</style></defs><g id="Capa_2" data-name="Capa 2"><g id="TIENDA"><g id="Accesorios"><path class="cls-1" d="M67.89,17.2C76.77,9.19,86.74,3.1,98.51.39c5.06-1.17,7.75.22,9.88,5.06,4.15,9.48,5.24,19.47,4.44,29.71-.5,6.33-1.57,12.55-4.34,18.35-2.38,5-5,6.36-10.48,5.4s-10.4-3.2-15.22-5.81A106.09,106.09,0,0,1,67.41,42.46c.74-2.23,1.86-4.34,2.29-6.69.27-1.45,1.45-1.46,2.64-1.21,2.33.48,4.56,1.31,6.86,1.92a4.66,4.66,0,0,0,3.81,0,42.23,42.23,0,0,0-9.09-3.93c-1.45-.46-3.4-.32-3.62-2.42-.24-2.3,1.9-2.21,3.24-2.77C76.8,26,80.24,25,83.69,23.43c-1-1-1.9-.73-2.77-.59a44.87,44.87,0,0,0-8.19,2.37c-2.13.8-2.75.58-3.25-1.59S67.93,19.46,67.89,17.2Z"/><path class="cls-1" d="M45.61,42.49c-6.93,5.72-14.3,10.74-22.68,14.11a31.31,31.31,0,0,1-10.54,2.59,7,7,0,0,1-6.81-3.86c-3.05-5.24-4.32-11-5-16.92A68.36,68.36,0,0,1,2.79,10.22c3-10,6.88-12,16.74-8.53A75.55,75.55,0,0,1,45.17,17.12c-.29,2.21-1.25,4.24-1.68,6.41-.31,1.54-1.42,1.95-2.89,1.64-1.78-.38-3.48-1.05-5.22-1.55a12.24,12.24,0,0,0-5.48-.68c.37,1.18,1.3,1.44,2.14,1.73,2.61.9,5.19,1.89,7.84,2.7a10.5,10.5,0,0,1,1.79.61,2.17,2.17,0,0,1,1.44,2.22,2,2,0,0,1-1.74,1.7,41.88,41.88,0,0,0-7,2.19A8.75,8.75,0,0,0,30.3,36.7a5.13,5.13,0,0,0,3.41-.2c2.21-.59,4.37-1.38,6.59-1.93,2.06-.5,2.89-.11,3.29,1.91A26.91,26.91,0,0,0,45.61,42.49Z"/><path class="cls-2" d="M46.42,17.61a23.17,23.17,0,0,1,20.14,0c.38,3,1.07,5.87,1.39,8.84a43.15,43.15,0,0,1-1.34,14.49,1.69,1.69,0,0,1-.6,1,8.82,8.82,0,0,1-4.61,1.62,34.1,34.1,0,0,1-11.49-.3C49,43,48,43,47.45,42a5.64,5.64,0,0,1-1.52-3.13,42.91,42.91,0,0,1,0-18.26A20.79,20.79,0,0,0,46.42,17.61Z"/><path class="cls-3" d="M46.42,17.61c1.34.31.63,1.32.48,1.89A42.15,42.15,0,0,0,47.45,42l-1.84.46c-1.93-1.08-2-3.09-2.39-4.91-.62-3.1-.57-3.1-3.62-2.17-2.34.7-4.66,1.44-7,2-1.11.28-2.89.76-3.24-.22-.4-1.16,1.19-2,2.29-2.55a35.42,35.42,0,0,1,8.62-3.17c1-.23,2.25,0,2.36-1.41s-1.2-1.59-2.24-1.94c-3.27-1.1-6.55-2.16-9.77-3.4-.83-.32-2.33-.78-1.83-2,.39-1,1.72-.74,2.79-.63,3.09.31,5.94,1.53,8.86,2.42,1.93.58,2.43-.18,2.69-1.71a11.55,11.55,0,0,1,2.06-5.69C45.56,17.34,45.87,17.78,46.42,17.61Z"/><path class="cls-4" d="M66,41.91c.47-3.41,1.09-6.82,1.36-10.25a35.8,35.8,0,0,0-1.08-11c-.25-1.06-.74-2.13.27-3.07l1.33-.4c1.34,1.94,1.68,4.23,2.19,6.44.34,1.42.72,1.88,2.19,1.17a40,40,0,0,1,8.78-2.7A4.72,4.72,0,0,1,82.23,22c.94,0,2.26.05,2.45.92.24,1.1-1.09,1.31-2,1.64-3.47,1.31-6.93,2.66-10.42,3.91-.86.31-1.69.36-1.57,1.6s.91,1.31,1.81,1.46c3.37.58,6.34,2.29,9.48,3.5.85.32,2.07.77,1.76,1.89s-1.66.87-2.48.68c-3.07-.71-6.12-1.51-9.13-2.44-1.33-.42-1.78-.21-2.05,1.19-.42,2.22-.83,4.51-2.72,6.11A2,2,0,0,1,66,41.91Z"/><path class="cls-5" d="M103,8.42a3.49,3.49,0,0,1-3.48,3.47,3.9,3.9,0,0,1-3.48-3.33A3.73,3.73,0,0,1,99.46,5,3.68,3.68,0,0,1,103,8.42Z"/><path class="cls-6" d="M104,50.71a3.49,3.49,0,0,1-3.32,3.58A3.55,3.55,0,0,1,97,51a3.44,3.44,0,0,1,3.49-3.41A3.4,3.4,0,0,1,104,50.71Z"/><path class="cls-7" d="M94.2,41.76a3.66,3.66,0,0,1-3.39-3.58,3.75,3.75,0,0,1,3.47-3.31,3.83,3.83,0,0,1,3.43,3.35A3.78,3.78,0,0,1,94.2,41.76Z"/><path class="cls-8" d="M80.11,48a3.93,3.93,0,0,1-3.6-3.71c0-1.78,1.51-3,3.61-2.92a3.42,3.42,0,0,1,3.34,3.28A3.51,3.51,0,0,1,80.11,48Z"/><path class="cls-9" d="M96.42,21.54a3.11,3.11,0,0,1-3.23,3.31,3.15,3.15,0,0,1-3.44-3.34A3.4,3.4,0,0,1,93,18.17,3.13,3.13,0,0,1,96.42,21.54Z"/><path class="cls-10" d="M109.76,26.79a3.21,3.21,0,0,1-3.5,3.3,3.11,3.11,0,0,1-3.21-3.3,3.36,3.36,0,1,1,6.71,0Z"/><path class="cls-11" d="M82.7,15.39c0,2.09-1.15,3.27-3.15,3.27a3.54,3.54,0,0,1-3.5-3.39A3.41,3.41,0,0,1,79.37,12,3.1,3.1,0,0,1,82.7,15.39Z"/><path class="cls-12" d="M13.61,11.9A3.55,3.55,0,0,1,10,8.59,3.86,3.86,0,0,1,13.39,5,3.58,3.58,0,0,1,17,8.07,3.6,3.6,0,0,1,13.61,11.9Z"/><path class="cls-13" d="M22.28,38.28a3.55,3.55,0,0,1-3.43,3.52,4,4,0,0,1-3.57-3.49,3.88,3.88,0,0,1,3.78-3.47A3.54,3.54,0,0,1,22.28,38.28Z"/><path class="cls-14" d="M33,41.38a3.15,3.15,0,0,1,3.51,3.29A3.46,3.46,0,0,1,33,48.07a3.53,3.53,0,0,1-3.45-3.5A3.46,3.46,0,0,1,33,41.38Z"/><path class="cls-15" d="M12.53,54.28A3.54,3.54,0,0,1,9,50.85a3.49,3.49,0,1,1,3.49,3.43Z"/><path class="cls-16" d="M6.67,23.41A3.17,3.17,0,0,1,10,26.9a3.17,3.17,0,0,1-3.37,3.19,3.13,3.13,0,0,1-3.33-3.45A3.35,3.35,0,0,1,6.67,23.41Z"/><path class="cls-17" d="M37,15.17a3.45,3.45,0,0,1-3.36,3.53,3,3,0,0,1-3.33-3.16A3.25,3.25,0,0,1,33.83,12,3.41,3.41,0,0,1,37,15.17Z"/><path class="cls-18" d="M19.82,18.2a3.34,3.34,0,0,1,3.39,3.16A3.12,3.12,0,0,1,20,24.84a3.12,3.12,0,0,1-3.43-3.08A3.45,3.45,0,0,1,19.82,18.2Z"/><path class="cls-19" d="M64.51,22.07a3.74,3.74,0,0,1-3.29,3.42,3.66,3.66,0,0,1-3.66-3.28,4,4,0,0,1,3.59-3.45A3.48,3.48,0,0,1,64.51,22.07Z"/><path class="cls-20" d="M52,34.88a3.09,3.09,0,0,1-3.12-3.36,3.56,3.56,0,0,1,3.4-3.28,3.45,3.45,0,0,1,3.21,3.68C55.41,33.87,54.12,35,52,34.88Z"/></g></g></g></svg>