<svg xmlns="http://www.w3.org/2000/svg" viewBox="0 0 109.62 87.8"><defs><style>.cls-1{fill:#a26cc6;}.cls-2{fill:#a36dc7;}.cls-3{fill:#a36cc6;}.cls-4{fill:#77409d;}.cls-5{fill:#76409c;}</style></defs><g id="Capa_2" data-name="Capa 2"><g id="TIENDA"><g id="Accesorios"><path class="cls-1" d="M64,16.59C72,9.6,80.86,4,91.25,1.23c10.85-2.9,13.87-1.09,16.56,9.84a56.53,56.53,0,0,1-1.13,32.26c-1.74,5.1-4,6.37-9.34,6.14A52,52,0,0,1,83,46.35c-.48-.16-.91-.72-1.51-.27A54.43,54.43,0,0,1,66,38.24c-1-.71-.93-1.71-.71-2.78,1-4.9,1.38-5.06,6.13-3.86,2.85.72,5.62,1.94,8.74,2.1-.23-1.3-1.17-1.5-1.88-1.89a35.34,35.34,0,0,0-8.57-3.44c-1-.24-2.11-.58-2.21-1.84s1.13-1.57,2.06-1.9C73,23.38,76.47,21.94,80.07,21a6.6,6.6,0,0,0,1.56-.56c.73-.42,1.85-.76,1.57-1.8S81.79,17.86,81,18a34.65,34.65,0,0,0-10.35,3.34c-3.68,1.79-3.85,1.75-5.34-1.93A27.28,27.28,0,0,1,64,16.59Z"/><path class="cls-2" d="M28.3,46.06c-4.14.85-8.08,2.48-12.29,3-.46.06-.92.2-1.39.25C6.72,50.1,4.31,48.73,2.17,41A57.4,57.4,0,0,1,3,7.14C5,.87,7.85-.69,14.32.38c10.77,1.78,19.93,7,28.32,13.69.79.63,1.52,1.36,2.27,2.05.15,1.88-.68,3.55-1.23,5.26s-1.64,1.39-2.88.81A74.45,74.45,0,0,0,32,18.71a21.54,21.54,0,0,0-4.42-.83c-.56-.06-1.16,0-1.38.66s.29,1,.75,1.33a10.13,10.13,0,0,0,3.25,1.41A97.27,97.27,0,0,1,40,24.72c.93.34,2.21.64,2.2,1.86s-1.35,1.37-2.3,1.65a59.5,59.5,0,0,0-7.14,2.57,6.7,6.7,0,0,0-3.32,2.4c1.82.51,3.3-.16,4.78-.51,2.08-.48,4.1-1.2,6.17-1.7a2.17,2.17,0,0,1,2.9,1.63c1.62,4.47,1.2,5.69-3.06,7.92a103.57,103.57,0,0,1-10.4,5.15C29.35,45.89,28.9,46.29,28.3,46.06Z"/><path class="cls-3" d="M50.2,45.3Q48,52.56,45.86,59.81c-2.37,8-4.71,15.92-7.1,23.87-.47,1.53-.45,3.8-2.27,4.08s-2.46-2-3.38-3.26c-1.84-2.57-3.57-5.23-5.18-8C27,75,26.08,74.39,24.14,74.88c-3.36.85-6.82,1.28-10.24,1.89-.86.16-1.78.41-2.41-.42s-.17-1.53.19-2.23C15.43,66.62,19,59,24,52.22a57.64,57.64,0,0,0,18.8-8.78c2.45-1.65,4.18-1.57,6.52.15C49.88,44,50.52,44.41,50.2,45.3Z"/><path class="cls-3" d="M85.84,52.71c3.65,4.82,6.32,10.21,9,15.58,1,1.91,2,3.8,3,5.7.42.8.77,1.64.13,2.43s-1.43.56-2.22.41c-3.56-.68-7.13-1.33-10.68-2.09a2.52,2.52,0,0,0-3.1,1.37c-1.93,3.18-4,6.27-6.1,9.35-.68,1-1.28,2.5-2.71,2.33s-1.64-1.8-2-3C68.55,76.19,66,67.52,63.45,58.88c-1.33-4.47-2.75-8.9-4.13-13.36.53-2.89,4.15-4.2,6.83-2.32a67.08,67.08,0,0,0,12.38,6.85C80.93,51.05,83.55,51.42,85.84,52.71Z"/><path class="cls-2" d="M56.69,39l-3.66,0c-4.8.23-6.66-1.19-7.6-5.78a28.52,28.52,0,0,1,.94-16C50.45,14.5,59.73,14.46,63,17a31.39,31.39,0,0,1,.57,18.16A5.31,5.31,0,0,1,56.69,39Z"/><path class="cls-4" d="M56.69,39c4.8-.4,6.08-1.71,6.81-6.4a32.07,32.07,0,0,0-.65-13.82c-.17-.62-.49-1.2.19-1.7l1-.44c1.61.47,1.63,2,2,3.2.65,1.94,1.49,2.67,3.48,1.43A32,32,0,0,1,77.85,18,36.3,36.3,0,0,1,82,17.11a1.9,1.9,0,0,1,2.26,1.3c.32.93-.41,1.46-1.08,1.88-2.59,1.6-5.65,1.86-8.4,3-1.89.8-3.85,1.43-5.77,2.15-.49.19-1.19.19-1.19.93s.64,1,1.28,1.16a38.12,38.12,0,0,1,9.67,3.78c1.09.6,2.84,1.24,2.47,2.48-.52,1.8-2.25.42-3.26.22-3.08-.6-6.1-1.54-9.11-2.44-1.21-.36-1.76-.32-2.18,1.12-1.29,4.43-1.38,4.42,2.48,6.94a69.83,69.83,0,0,0,9.47,4.85,15.12,15.12,0,0,1,2.88,1.57l4.32,6.63c-5-.62-9.38-2.75-13.71-5.05a40.71,40.71,0,0,1-6-3.77c-2.3-1.81-5.3-1-6.84,1.63Z"/><path class="cls-5" d="M46.37,17.1c.8,1.85-.44,3.49-.67,5.21a33.73,33.73,0,0,0,.9,12.82,3.41,3.41,0,0,0,2.66,2.66c1.26.36,2.66.26,3.77,1.12q-1.41,3.2-2.83,6.39C47.89,42.51,45.75,42.12,43,44a56,56,0,0,1-17.28,8.36c-.61.16-1.19.53-1.69-.17l4.31-6.16C30.23,44.35,32.85,44,35,42.67c2.4-1.52,5.08-2.53,7.41-4.2a2.6,2.6,0,0,0,1.08-3.34c-1.19-4.18-1.12-4.16-5.3-2.9-2.41.72-4.86,1.36-7.32,1.88-.75.16-1.94.56-2.34-.43s.65-1.45,1.36-1.93c3.12-2.13,6.71-3.12,10.26-4.21.65-.2,1.65-.14,1.67-1s-1-.94-1.61-1.15c-3.5-1.2-6.88-2.76-10.5-3.64a16.86,16.86,0,0,1-3-1.3c-.88-.41-1.87-.94-1.51-2.08s1.51-1.43,2.73-1.25A43.5,43.5,0,0,1,38,20.26c.73.3,1.47.56,2.19.88,2.59,1.16,2.53,1.15,3.42-1.75a9.07,9.07,0,0,1,1.29-3.27Z"/></g></g></g></svg>