<svg xmlns="http://www.w3.org/2000/svg" viewBox="0 0 99.2 98.55"><defs><style>.cls-1{fill:#6ea34e;}.cls-2{fill:#6fa350;}.cls-3{fill:#4b7a33;}.cls-4{fill:#4d7d33;}.cls-5{fill:#649447;}.cls-6{fill:#629145;}.cls-7{fill:#5d8a44;}.cls-8{fill:#619144;}.cls-9{fill:#54873a;}.cls-10{fill:#548937;}.cls-11{fill:#508234;}.cls-12{fill:#558a39;}.cls-13{fill:#558839;}.cls-14{fill:#508334;}.cls-15{fill:#548638;}.cls-16{fill:#538639;}.cls-17{fill:#548838;}.cls-18{fill:#568939;}.cls-19{fill:#518536;}.cls-20{fill:#548837;}.cls-21{fill:#568839;}.cls-22{fill:#578b39;}.cls-23{fill:#568b39;}.cls-24{fill:#588d3b;}.cls-25{fill:#538739;}.cls-26{fill:#568a39;}.cls-27{fill:#578a38;}.cls-28{fill:#548636;}.cls-29{fill:#548938;}.cls-30{fill:#548939;}.cls-31{fill:#528538;}.cls-32{fill:#538738;}.cls-33{fill:#568b38;}.cls-34{fill:#568a3a;}.cls-35{fill:#538536;}.cls-36{fill:#538637;}.cls-37{fill:#528536;}.cls-38{fill:#528537;}.cls-39{fill:#528437;}.cls-40{fill:#558b38;}.cls-41{fill:#518437;}.cls-42{fill:#558938;}.cls-43{fill:#55893a;}</style></defs><g id="Capa_2" data-name="Capa 2"><g id="TIENDA"><g id="Accesorios"><path class="cls-1" d="M46.37,7.71c2.5-3.48,5.81-5.15,10.14-4.46a17,17,0,0,0,8.86-1.09A9.43,9.43,0,0,1,72,1.94c-.82.86-.61,1.87-.44,2.9.09.5.08,1.08-.46,1.35s-.83-.16-1.22-.38c-.6-.33-1-.94-1.77-1-.14.09-.18.22-.08.33,1,1,1.82,2.84,3.43,2.26S72,5,72.18,3.74c.09-.56-.16-1.15.13-1.7,1.66.08,2.54,1.88,4.23,1.89,1.07,2.62,2.59,5,3.69,7.62a73.5,73.5,0,0,1,3.82,12.52c.68,3.08,1.49,6.12,2,9.24a5.53,5.53,0,0,1,.22,1.9c-.59,1.29,0,2.54.19,3.77a125.86,125.86,0,0,1,1.34,31.73c-.34,3.44-.76,7-4.3,9.25.74.72,1.64,1.26,1.85,2.32S84.44,84,84.62,85c-1.16.31-2.33.81-3.5,0-.66-.54-1.34-1.12-1.2-2.07.2-1.45-.55-1.62-1.68-1.38-.32.07-.63.15-.95.19-1.21.19-2.82-.07-1.53,2.11.69,1.17-.81,2.22-.77,3.45-1.18-.4-2.35.06-3.53,0-.75-1.42-1.51-2.84-.73-4.5A8.75,8.75,0,0,0,68,82.67c-1.36-.07-2.59-.17-1.72,1.92.41,1-.24,1.84-1.15,2.4a2.55,2.55,0,0,1-3.24.34c-.68-1.19-1.25-2.42-.69-3.81.27-.66,0-.74-.53-.8a15.45,15.45,0,0,1-1.91-.29c-1-.24-1.6,0-1.4,1.21.24,1.44-1.63,2.19-1.24,3.69a10.61,10.61,0,0,1-3.49-1.54c-.51-1.62-1.08-3.25.69-4.51.39-.27.25-.52,0-.76-2.68-2.8-1.79-6.13-1.23-9.31a193.35,193.35,0,0,0,2.88-27.36C55,41.21,55,41.21,52.23,41c-.11-.66.43-.76.83-.81,1.58-.18,1.79-1.24,1.7-2.5-.5-7-1.07-14-3.14-20.73a53.55,53.55,0,0,0-2.81-7.17,2.72,2.72,0,0,0-2-1.67A1,1,0,0,1,46.37,7.71Z"/><path class="cls-1" d="M51.82,41a99.47,99.47,0,0,1-31.64-3.77A68.87,68.87,0,0,1,4.7,31.34C.4,29-1.3,24.28,1.09,20A26.2,26.2,0,0,0,4.76,6.7C4.75,1.77,8.83-1,13.58.37,18,1.63,22.33,3.37,26.8,4.6A104.44,104.44,0,0,0,46.37,7.71l.15.13c1,.51,1.12,1.52,1.48,2.4a1.26,1.26,0,0,1-.93,1.91,9.53,9.53,0,0,0-2.94,1.42c-1.09.79-1.1,1.52,0,2.26a7.77,7.77,0,0,0,3.34,1.26c-.88-1-2-1.05-2.79-1.66s-.86-1.11.07-1.6c.23-.12.46-.23.7-.33,3-1.37,3.4-1.23,4.25,1.95.52,2,1.48,3.88.79,6a1.11,1.11,0,0,0,.28,1.07c1.26,1.52.89,2.83-.54,4C52.74,28.4,52.6,31,50,32.38c-.69.36-1.48.67-1.53,1.57s.84,1.2,1.5,1.55C52.51,36.87,53,38.16,51.82,41Z"/><path class="cls-2" d="M76.89,3.85C79.2,2.91,81.52,2,83.83,1c6.57-2.72,10.89,0,11.22,7.16q.06,1.35,0,2.7a10.94,10.94,0,0,0,1.66,6c1.13,1.92,2.4,3.86,2.46,6.2.1,4-2,6.67-5.22,8.6A23.87,23.87,0,0,1,88.91,34c-1.34-1.33-1.89-4-1-5.41.82-1.24.87-2.1-.64-2.71A2.31,2.31,0,0,1,86,24.1a59.61,59.61,0,0,0-3.11-9.32,2.37,2.37,0,0,1,.57-3.11,1.89,1.89,0,0,0,.82-2c-.35-1-1.3-1-2.13-1a3.06,3.06,0,0,1-3-1.74C78.59,5.79,77.57,4.94,76.89,3.85Z"/><path class="cls-3" d="M51.82,41a5.11,5.11,0,0,1,0-1c.46-2.23-.37-3.66-2.56-4.31-.83-.24-1.73-.57-1.59-1.6a2.28,2.28,0,0,1,1.8-2,2.35,2.35,0,0,0,2-2.94c-.12-1-.09-1.82-1.42-1.68-.39,0-.81,0-.85-.56s.29-.66.6-.91c1.68-1.32,1.71-1.7.19-3.33-.28-.29-.58-.6-.37-1,1.63-3-.78-5.46-1-8.21-.06-.61-.66-.4-1.09-.22l-3.33,1.34c1.21,1.08,2.77,1.13,3.81,2.1.27.26.75.41.53.87s-.67.28-1,.19a11.62,11.62,0,0,1-4.07-1.66c-1.16-.81-1.15-1.84,0-2.67.62-.45,1.31-.8,2-1.19s2.19-.21,2.31-1-.6-1.89-1-2.85l-.21-.53c1.37-.52,2,.09,2.64,1.33a62.79,62.79,0,0,1,5.46,20.62c.27,2.73.22,5.48.65,8.2.27,1.73-.27,2.94-2.39,2.66-.2,0-.43.22-.65.33Z"/><path class="cls-4" d="M76.89,3.85c1.57.28,2,1.74,2.69,2.81a2.5,2.5,0,0,0,2.57,1.51c1.1-.1,2.34-.07,2.79,1.17s-.4,2.29-1.34,2.93-.73,1.15-.39,1.92a60.82,60.82,0,0,1,3.34,10,1.54,1.54,0,0,0,1.32,1.38c1.33.31,1.95,1.34,1.08,2.44-1.65,2.08-.76,4,0,6a7.49,7.49,0,0,1-2.67,1.2,3.21,3.21,0,0,1-.78-1.92A119.86,119.86,0,0,0,80.67,14a35.14,35.14,0,0,0-4-8.31c-.34-.48-1.11-1.07-.13-1.71A.48.48,0,0,1,76.89,3.85Z"/><path class="cls-5" d="M71.46,87.32c1.18-.73,2.36-1.37,3.53,0a16.9,16.9,0,0,1,2.71,7.92c.06.83.33,2-1,2.16s-1.21-1-1.4-1.91c0-.22,0-.52-.42-.62-.19.9-.36,1.8-.58,2.7a.93.93,0,0,1-.76.78c-.55,0-.77-.37-.93-.81-.52-1.4-.29-2.89-.49-4.69-.34,1.24-.55,2.16-.86,3-.21.57-.41,1.38-1.22,1.25s-.84-.91-.79-1.56A19.35,19.35,0,0,1,71.46,87.32Z"/><path class="cls-6" d="M61.85,87.33,65.09,87a21.42,21.42,0,0,1,2.42,8.27,9,9,0,0,1,0,1.72,1,1,0,0,1-1,1,1,1,0,0,1-1-.74c-.19-.53-.35-1.08-.66-2.06a15.31,15.31,0,0,1-.18,2c-.18.66-.32,1.52-1.26,1.42s-1.06-.87-1.09-1.61a20,20,0,0,0-.3-3.87c-.3.88-.56,1.77-.93,2.61-.27.61-.49,1.57-1.37,1.35s-.77-1.23-.64-2A23.23,23.23,0,0,1,61.85,87.33Z"/><path class="cls-7" d="M52.59,85.79c1.31.18,2.66.27,3.49,1.54a19.26,19.26,0,0,1,.77,8c-.06.71-.27,1.54-1.16,1.52s-.89-.91-.92-1.61,0-1.39,0-2.48a9.67,9.67,0,0,0-1.1,2.87c-.28.68-.44,1.65-1.48,1.42s-.82-1.07-.77-1.76a19,19,0,0,0,.18-3.33c-.47.84-.92,1.7-1.42,2.53-.28.46-.7.82-1.28.58s-.56-.81-.43-1.32A19.38,19.38,0,0,1,52.59,85.79Z"/><path class="cls-8" d="M81.12,85c1.17.3,2.33-.8,3.5,0,1.53,2.53,3,5.09,3.32,8.11.11,1.16,0,2.4-1.74,1.55A4.74,4.74,0,0,1,85.13,92c.1,1.31.47,2.64-.44,3.82-1.4.59-1.66-.41-1.91-1.38s0-2-.69-3.07c-.22,1-.39,1.86-.64,2.71-.16.54-.37,1.22-1.11,1.1s-.78-.75-.8-1.35A22.33,22.33,0,0,1,81.12,85Z"/><path class="cls-9" d="M72.31,2c.73,1.67.36,3.43.31,5.14,0,1.06-1,1.11-1.77.9C69.21,7.62,68.23,6.3,67.28,5a.57.57,0,0,1,0-.86.8.8,0,0,1,1.06,0c.82.6,1.62,1.24,2.5,1.92.56-.81.06-1.49-.05-2.2-.14-.9-.3-1.88,1.13-1.88Z"/><path class="cls-10" d="M71.05,68.28c.67-1.2,1.26-2.3,1.91-3.37.23-.37.57-.8,1.09-.58s.6.75.4,1.31a12.65,12.65,0,0,1-2.21,4.22c-1.12,1.28-2.09.91-2.72-.3a22.87,22.87,0,0,1-1.41-4,.93.93,0,0,1,.56-1.27c.65-.17.83.45,1.07.89C70.24,66.16,70.21,67.33,71.05,68.28Z"/><path class="cls-11" d="M74.65,58.17a10.12,10.12,0,0,1-2,4.54A1.52,1.52,0,0,1,70,62.6a10.77,10.77,0,0,1-1.5-3.91c-.12-.53-.07-1.11.52-1.3s.85.4,1.08.85c.09.17.15.36.23.53.3.68.21,1.88.92,2,.93.09.9-1.2,1.35-1.83a3.57,3.57,0,0,0,.45-1.06c.16-.54.42-1,1-.93S74.53,57.71,74.65,58.17Z"/><path class="cls-12" d="M70.16,33.68c.36-1.5.65-2.73,1-4,.13-.52.33-1,1-1s.58.71.62,1.19A9.88,9.88,0,0,1,72,34c-.6,1.71-2,2.11-3.21.79a7.07,7.07,0,0,1-1.82-3.51c-.08-.43-.31-1.15.35-1.33s.84.47,1.11.89C68.93,31.71,69.13,32.76,70.16,33.68Z"/><path class="cls-13" d="M69.05,26.92a15.53,15.53,0,0,1,.82-4.21c.19-.47.42-1.05,1.08-.86A.91.91,0,0,1,71.51,23a27.81,27.81,0,0,1-.85,4.49c-.42,1.25-1.4,1.58-2.57.63a8.35,8.35,0,0,1-2.37-3.63c-.14-.35-.56-.86.1-1.15a1,1,0,0,1,1.21.33C67.65,24.57,68.21,25.54,69.05,26.92Z"/><path class="cls-12" d="M58.76,52.07c.07-.52-.14-1.08.39-1.28.71-.28.79.42,1.08.79.58.73.48,2.28,1.39,2.27s.88-1.52,1.36-2.32c.36-.61.74-1.46,1.53-1.13s.3,1.21.09,1.82a21.33,21.33,0,0,1-1.2,3c-.91,1.78-2.37,1.85-3.48.15A9.54,9.54,0,0,1,58.76,52.07Z"/><path class="cls-14" d="M70.5,75.2c1-1.19,1.17-2.73,2.32-3.65.32-.25.55-.83,1.09-.46.35.23.33.66.19,1a11.06,11.06,0,0,1-2.47,4.5,1.53,1.53,0,0,1-2.49,0c-1.22-1.32-1.24-3.06-1.37-4.67-.06-.9.65-.64,1.17-.17C69.92,72.67,69.5,74.14,70.5,75.2Z"/><path class="cls-15" d="M63.78,30.82a41.39,41.39,0,0,1-1.21,4,1.53,1.53,0,0,1-2.52.74,6.86,6.86,0,0,1-2.37-4,.79.79,0,0,1,.55-.91c.53-.23.78.11,1.07.51.57.78.83,2.36,1.81,2.14s.63-1.74.84-2.71c.14-.63.29-1.54,1.24-1.42C63.77,29.28,63.81,29.93,63.78,30.82Z"/><path class="cls-16" d="M81.7,59.71A13,13,0,0,0,83,56.64c.16-.5.48-1,1.09-.9s.59.8.51,1.26a13,13,0,0,1-1.58,4.26c-.63,1.06-1.5,1.26-2.48.2-1.15-1.22-1.48-2.79-2-4.28a.77.77,0,0,1,.46-1c.45-.21.71.14,1,.4C80.86,57.45,80.68,58.82,81.7,59.71Z"/><path class="cls-17" d="M81.58,30.37a6.47,6.47,0,0,1-.35,2.16c-.73,2.07-2,2.4-3.53.91a9.46,9.46,0,0,1-1.81-3.13c-.18-.4-.27-.92.25-1.18s.84.15,1.16.46a3.5,3.5,0,0,1,.24.3c.53.66.59,2.08,1.6,1.87s.31-1.62.81-2.38c.13-.2.06-.51.14-.75.17-.5.52-1.05,1-1,.69.1.39.81.44,1.28S81.58,29.57,81.58,30.37Z"/><path class="cls-18" d="M75.84,18.8c.56-1.51.07-2.59.62-3.52.27-.46.51-1,1.12-.86s.51.66.51,1.1c0,1.09,0,2.18,0,3.27a2,2,0,0,1-1.27,2c-.86.35-1.44-.08-2-.65a12.11,12.11,0,0,1-2.19-2.89c-.27-.47-.46-1,.06-1.38s.79.22,1.07.51C74.37,17,75,17.79,75.84,18.8Z"/><path class="cls-19" d="M70.82,40.41a19.18,19.18,0,0,1,1.48-4.06c.19-.34.39-.71.85-.62a.7.7,0,0,1,.62.83c-.49,1.76-.4,3.67-1.62,5.23a1.25,1.25,0,0,1-2.08.26c-1.41-1.09-1.73-2.77-2.35-4.29A.68.68,0,0,1,68,36.9c.42-.24.72,0,.94.38C69.46,38.2,70,39.11,70.82,40.41Z"/><path class="cls-20" d="M71.36,54.05a10.34,10.34,0,0,0,1.73-3.29c.17-.46.42-.86.94-.8.76.08.62.74.57,1.2a9.61,9.61,0,0,1-2,4.72,1.27,1.27,0,0,1-2.15,0,10.76,10.76,0,0,1-2-4.33.81.81,0,0,1,.37-1c.46-.22.73.18.9.48C70.3,52,70.78,53,71.36,54.05Z"/><path class="cls-21" d="M84.29,70.86c-.62,1.56-.8,3.32-2.18,4.6-1,.91-1.67.74-2.34-.26-.88-1.31-1-2.88-1.53-4.33a.88.88,0,0,1,.56-1.1c.55-.16.71.4.94.77.52.84.28,2.48,1.29,2.53s1-1.57,1.62-2.37c.31-.43.63-1.1,1.32-.9C84.42,69.93,84.2,70.46,84.29,70.86Z"/><path class="cls-22" d="M71.3,47.57c.53-1.49,1-2.68,1.38-3.9.16-.51.24-1.09.92-1,.51.09.64.59.62,1.07A8.21,8.21,0,0,1,73,48.15c-1.16,1.69-2,1.67-3.29.09a5.9,5.9,0,0,1-1.38-3.52c0-.35-.37-.76.2-.94a.79.79,0,0,1,1,.48C70.07,45.29,70.62,46.33,71.3,47.57Z"/><path class="cls-23" d="M64.56,58.5a10.88,10.88,0,0,1-2.5,4.86c-.54.61-1.12.41-1.68-.1-1.43-1.33-1.57-3.18-1.92-4.92-.14-.69.46-.85,1-.53a1.88,1.88,0,0,1,.65.69c.47.75,0,2.31,1.15,2.28.88,0,.93-1.55,1.52-2.3.34-.43.63-1.07,1.29-1C64.54,57.55,64.57,58,64.56,58.5Z"/><path class="cls-24" d="M61,17.36a6.86,6.86,0,0,1-.25,3.18c-.36,1.95-1.53,2.44-3.09,1.26a8,8,0,0,1-2.15-2.92c-.21-.4-.35-.95.08-1.22s.75.29,1.11.53c.73.48,1.08,1.89,1.89,1.66,1.14-.33.4-1.68.64-2.56.17-.67.31-1.69,1.08-1.6C61.61,15.84,60.89,17.11,61,17.36Z"/><path class="cls-25" d="M67.42,19.53a6,6,0,0,0,.68-3c0-.56.21-1.28.91-1.28s.83.88.82,1.32a15.9,15.9,0,0,1-.48,4c-.47,1.66-1.56,1.91-2.92.87a6.58,6.58,0,0,1-2.1-2.94c-.18-.44-.28-.94.15-1.24s.87,0,1.18.36C66.22,18.15,66.76,18.78,67.42,19.53Z"/><path class="cls-26" d="M82.75,36.62a25.29,25.29,0,0,1-.89,3.59c-.48,1.24-1.46,1.62-2.58.59A7.69,7.69,0,0,1,77,36.93c-.09-.37-.23-1,.34-1.16s.67.28.94.53a3.85,3.85,0,0,1,1,1.82c.1.38.26.77.72.75s.58-.48.68-.82c.2-.67.27-1.38.47-2s.18-1.51,1-1.35S82.69,35.68,82.75,36.62Z"/><path class="cls-27" d="M78.48,50.66c0-.65,0-1.19.53-1.3s.67.32.87.65.43.94.71,1.37.07,1.37.87,1.27.52-.94.76-1.44c.36-.74.57-1.56.93-2.3a.72.72,0,0,1,1-.4.77.77,0,0,1,.46,1,30.46,30.46,0,0,1-1.43,4.36c-.69,1.45-1.93,1.45-3,.25A8.79,8.79,0,0,1,78.48,50.66Z"/><path class="cls-28" d="M61.57,47.5a12.56,12.56,0,0,0,1.55-3.12c.17-.46.5-1,1.1-.86s.38.76.34,1.16a6.55,6.55,0,0,1-1.64,4.38c-.85.83-1.46.95-2.41.08-1.14-1-1.35-2.42-1.69-3.77a.79.79,0,0,1,.38-1c.5-.23.88.1,1.1.5C60.72,45.65,61.07,46.46,61.57,47.5Z"/><path class="cls-10" d="M62.7,24.37a28.26,28.26,0,0,1-.5,3,2,2,0,0,1-3.6.88A6.67,6.67,0,0,1,57,25.42c-.13-.49-.37-1.08.3-1.32s.9.31,1.14.78a4.87,4.87,0,0,0,.36.68c.35.49.39,1.48,1.18,1.26.6-.16.59-1.05.71-1.67.06-.31,0-.65.07-.95.2-.73.33-1.75,1.3-1.64S62.44,23.73,62.7,24.37Z"/><path class="cls-29" d="M58,66c0-.75-.08-1.43.53-1.53s.81.5,1,1c.34.8.29,2.2,1.08,2.27s1.17-1.28,1.68-2c.36-.54.72-1.51,1.49-1.13s.15,1.27,0,1.87-.77,1.32-1,2c-.37,1-1.07,2.11-2,2.07-1.13,0-1.85-1.24-2.22-2.36A20.52,20.52,0,0,1,58,66Z"/><path class="cls-30" d="M75.77,11.22c0,.51,0,1,0,1.54a1.54,1.54,0,0,1-1.24,1.51c-1.18.3-4.61-2.71-4.47-3.93.09-.8.59-.67,1.11-.39.91.49,1.36,2.19,2.44,1.67.72-.34.11-1.9.28-2.9.09-.48.33-.85.86-.88s.56.39.72.74A5.8,5.8,0,0,1,75.77,11.22Z"/><path class="cls-12" d="M81,45.78c.77-1,.4-2.45,1.35-3.36.33-.31.57-.75,1.09-.55s.45.73.32,1.15a17.56,17.56,0,0,1-1,3.67c-.43.77-.93,1.38-2,1.2-1.23-.22-3.38-3.5-3.09-4.68.08-.34.21-.61.6-.61a1,1,0,0,1,.88.64C79.69,44.11,79.76,45.25,81,45.78Z"/><path class="cls-31" d="M59.2,12.43a12.15,12.15,0,0,1-.5,2.27,1.65,1.65,0,0,1-2.65.86,8.27,8.27,0,0,1-2.49-2.88.93.93,0,0,1,.06-1.24c.43-.37.85-.07,1.16.27.48.51.92,1.06,1.37,1.59.2.24.38.56.76.42s.3-.52.31-.83c0-.89,0-1.79.07-2.68a.84.84,0,0,1,.89-.83c.49,0,.54.43.6.83C58.9,11,59.06,11.71,59.2,12.43Z"/><path class="cls-32" d="M56.28,7.89c0,1.69-1.21,2.48-2.92,1.36a20.12,20.12,0,0,1-2.68-2.47.63.63,0,0,1-.18-.86.72.72,0,0,1,1-.25A6.06,6.06,0,0,1,53.17,7c.31.27.57.84,1.09.54s.25-.81.25-1.24a5,5,0,0,0-.15-1.14c-.13-.6-.56-1.35.43-1.54s.86.73,1,1.29A7.23,7.23,0,0,1,56.28,7.89Z"/><path class="cls-13" d="M18.86,28.78c.5,1.29,1.79,1.65,2.59,2.51.35.37.83.76.45,1.31s-.8.1-1.22,0a8.52,8.52,0,0,1-4-3.1c-.81-1-.26-1.84.74-2.31,1.57-.73,3.26-.48,4.92-.43a.75.75,0,0,1,.79.68c0,.46-.34.63-.67.84C21.34,29,20.05,28.36,18.86,28.78Z"/><path class="cls-33" d="M42,33.44c.76,1.25,2,1.34,3,1.72.71.25,1.2.66,1,1.39-.34,1-1,.31-1.56.15-.92-.28-1.84-.54-2.74-.85-1.09-.38-2.08-1.08-2-2.29s.85-1.71,2-1.93,2.42-.86,3.74-.69c.31,0,.7,0,.78.38a.65.65,0,0,1-.5.72C44.52,32.51,43.32,32.94,42,33.44Z"/><path class="cls-10" d="M25,8.51c1.05.06,2-.1,2,.85s-.94,1-1.68,1.11-2-.46-2.2.44,1,1.38,1.7,1.89a5.19,5.19,0,0,1,.89.72c.31.3.73.63.38,1.14a.86.86,0,0,1-1.19.27,10.1,10.1,0,0,1-4.1-3.38c-.72-1,0-1.89,1-2.25A26.38,26.38,0,0,1,25,8.51Z"/><path class="cls-34" d="M13.89,4.86c-.14.72-.74.52-1.22.58-1,.15-2.56-.53-3,.38s1.16,1.44,1.7,2.26A10.59,10.59,0,0,0,12,9a.79.79,0,0,1,0,1.05c-.32.46-.7.23-1,0C9.35,9,7.86,7.66,7.34,5.63c-.4-1.57.95-1.9,1.94-2a18.27,18.27,0,0,1,4,.36A.79.79,0,0,1,13.89,4.86Z"/><path class="cls-35" d="M26,31.05a9.48,9.48,0,0,0,3,2.2c.47.27,1,.58.68,1.18s-1,.48-1.36.29c-1.3-.63-2.72-1.12-3.61-2.39-1.05-1.5-.83-2.46.85-3.09a9.05,9.05,0,0,1,3.93-.62c.52,0,1.19,0,1.27.59.1.77-.67.8-1.2.94C28.45,30.45,27.34,30.72,26,31.05Z"/><path class="cls-36" d="M11.29,19.34a8.45,8.45,0,0,1-2.94-.4c-.4-.07-.77-.26-.78-.71s.43-.75.9-.78c.71,0,1.42,0,2.12,0,.54,0,1.32.32,1.58-.3s-.46-1-.94-1.24-.74-.87-1.1-1.31-.6-.79-.16-1.18a1,1,0,0,1,1.39.13,12.4,12.4,0,0,1,2.81,3.14c.71,1.42.17,2.47-1.44,2.68A13.58,13.58,0,0,1,11.29,19.34Z"/><path class="cls-37" d="M41.46,27c-.23,0-.66,0-.75-.47a1,1,0,0,1,.63-1.09,22.69,22.69,0,0,1,2.56-.74c.33-.08.72-.19.71-.52a1.12,1.12,0,0,0-.52-.74c-.7-.43-1.47-.77-2.17-1.2-.37-.22-.87-.51-.71-1s.78-.42,1.17-.32a8.17,8.17,0,0,1,3.91,1.94c1.34,1.36,1.08,2.8-.74,3.35A39.47,39.47,0,0,1,41.46,27Z"/><path class="cls-38" d="M33.7,32.81c1.12.59,2.07,1.07,3,1.59.54.31,1.34.61,1,1.38s-1,.14-1.52.07a7.81,7.81,0,0,1-3.55-1.75c-1.28-1-1.26-2.2.09-3.06s3.05-.81,4.59-1.18a.68.68,0,0,1,.83.61c.07.61-.41.93-.88,1.12C36.18,32,34.92,31.91,33.7,32.81Z"/><path class="cls-39" d="M5.42,20.86c.66.12,1.41.29,2.16.4.58.09,1.3.1,1.19.9s-.84.61-1.4.69c-1,.14-2.39-.57-2.79.42-.29.74,1.1,1.41,1.73,2.12.44.5,1,1.09.57,1.66s-1.16,0-1.59-.4a11.75,11.75,0,0,1-2.45-2.12c-1.33-2-1-3,1.34-3.52A12.06,12.06,0,0,1,5.42,20.86Z"/><path class="cls-29" d="M20.45,19.67c-.91-.74-1.84-1.47-2.74-2.23-.53-.44-.94-1-.45-1.66s1.11-.09,1.52.22c1.21.93,2.57,1.7,3.31,3.15.65,1.29.23,2.36-1.19,2.48s-2.83,0-4.24,0c-.46,0-1-.15-1-.71s.55-.79,1.08-.8c1.15,0,2.29,0,3.44,0Z"/><path class="cls-40" d="M29.77,12.66a11.41,11.41,0,0,0,3,2.23c.42.22,1,.58.7,1.2s-.81.34-1.31.23a8.83,8.83,0,0,1-4.31-2.78c-1-1,0-2,.9-2.45a8.46,8.46,0,0,1,4.52-.61c.25,0,.55,0,.59.36a.93.93,0,0,1-.74,1C32.1,12.15,31.05,12.35,29.77,12.66Z"/><path class="cls-38" d="M36.68,23.21c-1.24-.77-2.34-1.43-3.39-2.14-.28-.19-.7-.47-.47-.93a.77.77,0,0,1,1-.3,9,9,0,0,1,4.47,2.82A1.4,1.4,0,0,1,37.66,25a9.83,9.83,0,0,1-4.1.9c-.52,0-1.33.25-1.33-.65A1.26,1.26,0,0,1,33.49,24C34.55,23.92,35.66,24.05,36.68,23.21Z"/><path class="cls-33" d="M10.83,25.91a19.36,19.36,0,0,0,2.89,2.87c.42.34.88.93.44,1.5s-.88,0-1.32-.23a8.42,8.42,0,0,1-3.38-2.78c-1-1.54-.4-2.8,1.44-2.89a34.19,34.19,0,0,1,3.65,0c.48,0,1.15.17,1.13.81s-.66.67-1.17.68C13.42,25.92,12.34,25.91,10.83,25.91Z"/><path class="cls-40" d="M41.14,11.88a1.44,1.44,0,0,1-1,.87c-.66.22-1.34.42-2,.68-.33.12-.86.06-.87.58s.42.59.76.77c.8.41,1.6.81,2.39,1.25a.79.79,0,0,1,.44,1c-.15.47-.6.49-1,.41a10.12,10.12,0,0,1-4.8-2.64,1.19,1.19,0,0,1,.19-1.87,7.75,7.75,0,0,1,5-1.63C40.72,11.26,41.1,11.37,41.14,11.88Z"/><path class="cls-41" d="M17.6,6.61c.79.29,2.62-.62,2.63.68,0,1.58-1.83.57-2.82.86-.41.12-1-.19-1.24.26-.33.61.34.87.65,1.22.6.67,1.25,1.28,1.87,1.93a.73.73,0,0,1,.17.88c-.25.43-.66.32-1,.15a9.32,9.32,0,0,1-3.68-3c-.93-1.39-.17-2.79,1.53-3C16.27,6.56,16.85,6.61,17.6,6.61Z"/><path class="cls-42" d="M28.28,21.64c-1-.79-1.9-1.43-2.72-2.13-.42-.35-1-.8-.57-1.43s.94-.06,1.37.14a15,15,0,0,1,3.41,2.44c1.23,1,.8,1.91-.27,2.61-1.61,1-3.46.71-5.24.65a.69.69,0,0,1-.51-.44c-.09-.5.36-.57.71-.73C25.6,22.22,27,22.66,28.28,21.64Z"/><path class="cls-43" d="M92,6.65c0,1.2-2.69,4.5-3.88,4.8a.73.73,0,0,1-.85-.23.63.63,0,0,1,.06-.86c.6-.75,1.22-1.49,1.78-2.27s.44-1.17-.6-1.11c-.7,0-1.41,0-2.12,0-.53,0-1.09-.08-1.17-.73a1,1,0,0,1,.77-1,12.15,12.15,0,0,1,5.13,0A1.29,1.29,0,0,1,92,6.65Z"/><path class="cls-17" d="M87.66,17.08c1.55,0,2.74,0,3.92,0,.4,0,1,.18,1,.72s-.47.79-.88.86a22.71,22.71,0,0,1-4.32.55,1.59,1.59,0,0,1-1.51-2.18c.51-2,2.11-3.12,3.73-4.16a1,1,0,0,1,.9,0c.46.29.15.74-.06,1C89.63,14.91,88.77,15.84,87.66,17.08Z"/><path class="cls-12" d="M93.53,22A2.4,2.4,0,0,1,96,23.2c.59.91-.18,1.53-.58,2.23a12.34,12.34,0,0,1-2.54,2.85.86.86,0,0,1-1.35,0c-.41-.47,0-.83.27-1.15.8-.82,2.15-1.78,1.84-2.7s-1.93-.25-3-.41c-.52-.08-1.12-.06-1.2-.7s.51-.77,1-.84Z"/></g></g></g></svg>