<svg xmlns="http://www.w3.org/2000/svg" viewBox="0 0 99.02 80.97"><g id="Capa_2" data-name="Capa 2"><g id="NUEVADIETA"><path d="M38.46,5.4c.92.08,1.2,1.37,1.63,2.43,1.82,4.51,3.62,9,5.36,13.58A23.46,23.46,0,0,0,59.59,35.57c4.66,1.77,9.29,3.61,13.92,5.44,1.1.44,2.42.85,2.3,2.33-.1,1.22-1.25,1.57-2.28,2-4.64,1.82-9.24,3.74-13.9,5.5A23.44,23.44,0,0,0,45.45,65q-2.62,6.81-5.36,13.57c-.42,1-.64,2.43-2.21,2.45s-1.82-1.3-2.26-2.38c-1.85-4.63-3.74-9.24-5.51-13.9a23.2,23.2,0,0,0-14-13.87C11.51,49,6.9,47.12,2.27,45.3,1.14,44.85-.1,44.55,0,43c.08-1.36,1.3-1.56,2.26-2Q9.38,38.2,16.49,35.4A22.75,22.75,0,0,0,30,22c1.88-4.87,3.87-9.7,5.8-14.55C36.17,6.41,36.51,5.37,38.46,5.4Z" style="fill:#260b01"/><path d="M83.88,47.79c.37,0,.49.55.66,1,.74,1.82,1.47,3.66,2.17,5.5A9.47,9.47,0,0,0,92.45,60c1.88.72,3.76,1.47,5.63,2.21.45.18,1,.34.93.94s-.5.64-.92.8c-1.88.74-3.74,1.52-5.63,2.23a9.47,9.47,0,0,0-5.74,5.73q-1.06,2.76-2.18,5.5c-.17.42-.25,1-.89,1s-.74-.53-.92-1c-.75-1.87-1.51-3.74-2.23-5.63a9.37,9.37,0,0,0-5.66-5.62C73,65.47,71.1,64.69,69.22,64c-.46-.18-1-.31-.92-.94s.53-.63.92-.78L75,59.94a9.21,9.21,0,0,0,5.46-5.43c.76-2,1.57-3.93,2.35-5.89C83,48.2,83.09,47.78,83.88,47.79Z" style="fill:#260b01"/><path d="M64.06,0c.19,0,.24.27.33.48l1,2.66a4.62,4.62,0,0,0,2.77,2.78c.91.34,1.82.71,2.73,1.06.21.09.47.17.45.46s-.25.31-.45.39c-.91.35-1.81.73-2.72,1.07a4.58,4.58,0,0,0-2.78,2.78l-1,2.66c-.09.2-.13.47-.44.48s-.36-.26-.44-.47c-.36-.91-.73-1.81-1.08-2.72a4.58,4.58,0,0,0-2.74-2.72L57,7.82c-.22-.08-.46-.14-.44-.45s.25-.3.44-.38l2.79-1.11A4.45,4.45,0,0,0,62.4,3.25c.37-1,.76-1.9,1.14-2.85C63.62.2,63.68,0,64.06,0Z" style="fill:#260b01"/></g></g></svg>