<svg xmlns="http://www.w3.org/2000/svg" viewBox="0 0 108.97 108.98"><defs><style>.cls-1{fill:#260b01;}</style></defs><g id="Capa_2" data-name="Capa 2"><g id="START14"><g id="Capa_80" data-name="Capa 80"><path class="cls-1" d="M66.77,16.3c-3.19,2.45-3.53,5.72-3.24,9.46C52.23,21.31,41.31,21.49,30.69,27A37.06,37.06,0,0,0,13.93,44.26a38.06,38.06,0,0,0,54,49.05,37.42,37.42,0,0,0,16.59-21c2.91-9,2.32-17.8-1.33-26.87,3.73.25,7.11,0,9.42-3.18,7.41,15.88,5.16,41.09-14.83,56.6a48.2,48.2,0,1,1-11-82.56Z" transform="translate(0)"/><path class="cls-1" d="M94.68,11.11c.88-1,1.6-2.35,2.71-2.95a3.53,3.53,0,0,1,3.27.11,3.45,3.45,0,0,1,.17,3.26c-.65,1.14-2,1.86-3.1,2.77l.44.71c2.58,0,5.17-.16,7.73.07a4.14,4.14,0,0,1,3,1.67c.35.7-.26,2.33-1,3.05q-9.56,9.78-19.34,19.34a5.13,5.13,0,0,1-3.15,1.18c-3.72.15-7.46-.06-11.18.13a5.73,5.73,0,0,0-3.47,1.42c-6.53,6.37-12.93,12.85-19.38,19.3-.51.5-1,1.32-1.55,1.41-1.12.17-2.61.31-3.34-.28-.56-.46-.36-2.1-.15-3.14.11-.59.9-1,1.41-1.56,6.44-6.45,12.93-12.85,19.29-19.38a5.74,5.74,0,0,0,1.46-3.46c.19-3.64-.06-7.3.14-10.93a6.19,6.19,0,0,1,1.48-3.73Q79.43,10.53,89,1.25C89.75.5,91.45-.27,92.16.09a4.45,4.45,0,0,1,1.72,3.17c.25,2.48.08,5,.08,7.51Z" transform="translate(0)"/><path class="cls-1" d="M69.21,53.54c3.91,8.25.35,19.6-7.84,25.48a22.53,22.53,0,0,1-32-30.58C35,39.75,46.19,35.89,55.57,39.72l-3.37,3.4C48.79,46.54,45.35,49.93,42,53.37c-4.32,4.39-4.49,10.25-.46,14.21s9.71,3.7,14-.5C59.37,63.27,63.18,59.4,67,55.57,67.72,54.88,68.45,54.24,69.21,53.54Z" transform="translate(0)"/></g></g></g></svg>