<svg xmlns="http://www.w3.org/2000/svg" viewBox="0 0 65.93 54.84"><defs><style>.cls-1{fill:#260b01;}</style></defs><g id="Capa_2" data-name="Capa 2"><g id="START3"><g id="Start3-2" data-name="Start3"><path class="cls-1" d="M18.32,22.26H60.91c4,0,5,1.08,5,5.09,0,.51,0,1,0,1.55a3.71,3.71,0,0,1-3.51,3.66c-.56,0-1.14,0-1.7,0H18.6l-.51.73a6.1,6.1,0,0,1,1.52.8q6,5.88,11.86,11.81c2.24,2.23,2.24,4,0,6.25-.44.44-.87.89-1.32,1.31-1.87,1.76-3.79,1.8-5.6,0Q12.94,41.92,1.34,30.27a3.71,3.71,0,0,1,0-5.73Q12.91,13,24.49,1.42c1.93-1.92,3.83-1.88,5.82,0,3.81,3.68,3.83,4.86.11,8.59L19.7,20.8C19.34,21.16,19,21.53,18.32,22.26Z"/></g></g></g></svg>