<svg xmlns="http://www.w3.org/2000/svg" viewBox="0 0 129.47 105.33"><defs><style>.cls-1{fill:#260b01;}</style></defs><g id="Capa_2" data-name="Capa 2"><g id="START11"><g id="Proteina"><path class="cls-1" d="M6.56,39.22l-1.38-.08C1.94,39-.12,37.09,0,34.43s2.14-4.31,5.25-4.33c6.2,0,12.41-.07,18.61,0a3.33,3.33,0,0,0,3.33-1.88c5-8.5,10.1-16.95,15.2-25.39,1.84-3,5.1-3.76,7.3-1.64,2,2,1.79,4.11.41,6.38Q43.84,18,37.64,28.38c-.23.39-.43.81-.79,1.48H92.72L86.43,19.37c-2.41-4-4.86-8-7.22-12.09-1.57-2.7-1-5.25,1.28-6.62s4.87-.6,6.46,2C92,11,97,19.24,101.87,27.58c1.06,1.81,2.13,2.65,4.37,2.58,5.73-.21,11.47-.08,17.2-.07,3.79,0,5.95,1.61,6,4.42s-2,4.44-5.82,4.65a7,7,0,0,0-.89.21c-.88,5.29-1.79,10.72-2.68,16.16-1.94,11.86-3.79,23.74-5.8,35.59-1.47,8.63-7.94,14.13-16.71,14.16q-32.73.1-65.44,0c-9.18,0-15.58-5.74-17-14.81q-4-24.75-8-49.5A17.76,17.76,0,0,0,6.56,39.22ZM60.23,67.57c0,3.85,0,7.7,0,11.55,0,3.09,1.79,5.08,4.42,5.13s4.54-1.93,4.56-5q.07-11.55,0-23.09c0-3-2-5.06-4.55-5s-4.39,2.08-4.43,5.14C60.2,60.06,60.23,63.82,60.23,67.57Zm-15.13.27c0-3.94.06-7.88,0-11.82-.05-2.9-1.87-4.83-4.39-4.85a4.53,4.53,0,0,0-4.55,4.74q-.13,11.84,0,23.65a4.53,4.53,0,0,0,4.59,4.7c2.53-.05,4.3-2,4.35-4.88C45.15,75.54,45.1,71.69,45.1,67.84Zm39.27-.22c0,3.94-.05,7.88,0,11.82,0,2.89,1.87,4.8,4.4,4.81a4.51,4.51,0,0,0,4.53-4.75q.14-11.82,0-23.65a4.52,4.52,0,0,0-4.61-4.68c-2.53.07-4.27,2-4.32,4.91C84.32,59.93,84.37,63.77,84.37,67.62Z" transform="translate(0 0)"/></g></g></g></svg>