<svg xmlns="http://www.w3.org/2000/svg" viewBox="0 0 75.19 98.82"><defs><style>.cls-1{fill:#260b01;}</style></defs><g id="Capa_2" data-name="Capa 2"><g id="START12"><g id="Start_12" data-name="Start 12"><path class="cls-1" d="M12.6,5.79c0,1.27,0,2.33,0,3.4,0,4.91,3.21,8.16,8.12,8.17q15.51,0,31,0c1.24,0,2.49,0,3.73,0a7.58,7.58,0,0,0,7.19-7.1c.1-1.4,0-2.82,0-4.19C68.75,5,73.56,6.94,75,12.61a8.76,8.76,0,0,1,.18,2.17q0,37.44,0,74.88c0,5.53-3.68,9.16-9.24,9.16H9.18C3.62,98.82,0,95.2,0,89.64Q0,52.33.05,15c0-5.56,3.62-9.19,9.15-9.24ZM49,79.12c3.26,0,6.52,0,9.78,0,2.08,0,3.32-1.15,3.29-2.94s-1.27-2.83-3.28-2.83H39.09c-2.08,0-3.37,1.12-3.37,2.88s1.27,2.88,3.36,2.89Zm-.19-44.37H39c-2,0-3.27,1.12-3.3,2.82s1.24,2.94,3.29,3H58.69c2,0,3.34-1.21,3.31-2.94s-1.33-2.82-3.31-2.83Zm0,19.3H39c-2,0-3.27,1.11-3.3,2.82s1.23,2.94,3.29,3H58.69c2,0,3.34-1.21,3.31-2.94s-1.34-2.82-3.31-2.83ZM19.5,36.61c-.59-.69-1-1.26-1.48-1.73a2.85,2.85,0,0,0-4,0,2.88,2.88,0,0,0-.05,4.06q1.75,1.88,3.63,3.63a2.64,2.64,0,0,0,3.83.2c3.11-3,6.16-6.06,9.16-9.17a2.75,2.75,0,0,0-.16-3.75,2.86,2.86,0,0,0-3.85-.27,8.93,8.93,0,0,0-.84.79Zm0,20.77A20.82,20.82,0,0,0,18,55.65a2.85,2.85,0,0,0-4,0,2.88,2.88,0,0,0,0,4c.72.8,1.5,1.53,2.25,2.29,3,3,3.81,3,6.81,0,2.42-2.42,4.85-4.84,7.24-7.28a2.9,2.9,0,0,0,.65-3.42,2.51,2.51,0,0,0-2.71-1.54A4.38,4.38,0,0,0,26,50.88C23.84,52.9,21.8,55,19.46,57.38Zm.06,19.31A20.86,20.86,0,0,0,18.07,75,2.87,2.87,0,1,0,14,79c1.14,1.21,2.32,2.4,3.54,3.54a2.87,2.87,0,0,0,4.24,0c.66-.61,1.28-1.27,1.91-1.9,2.24-2.25,4.5-4.46,6.69-6.74a2.87,2.87,0,0,0-4.05-4.06c-.29.26-.56.54-.83.81Z"/><path class="cls-1" d="M37.6,11.59H21c-2,0-2.64-.64-2.65-2.6,0-2.18,0-4.37,0-6.56C18.37.7,19.06,0,20.78,0h33.7c1.75,0,2.42.68,2.43,2.4,0,2.19,0,4.38,0,6.56,0,2-.63,2.63-2.6,2.63Z"/></g></g></g></svg>