<svg xmlns="http://www.w3.org/2000/svg" viewBox="0 0 34.86 36.86"><g id="Capa_2" data-name="Capa 2"><g id="HOME"><g id="Home-2" data-name="Home"><path d="M7,4.57A3.71,3.71,0,0,1,8,1.35,3.1,3.1,0,0,1,10,.5a3,3,0,0,1,2.54,1.22,4.08,4.08,0,0,1,.61,2.81h8.54a3.5,3.5,0,0,1,1.16-3.37,3,3,0,0,1,2-.66,3.09,3.09,0,0,1,2.41,1.28,4.33,4.33,0,0,1,.58,2.79c.64,0,1.25,0,1.87,0A4.43,4.43,0,0,1,34.05,7.5a5.54,5.54,0,0,1,.3,1.71q0,11.26,0,22.52a4.46,4.46,0,0,1-4.64,4.62H5.21a4.47,4.47,0,0,1-4.7-4.68q0-11.21,0-22.41A4.49,4.49,0,0,1,5.16,4.57C5.75,4.56,6.35,4.57,7,4.57ZM2.33,14.64v.57c0,5.46,0,10.91,0,16.37a2.72,2.72,0,0,0,2.94,3c.73,0,1.46,0,2.2,0h22a2.76,2.76,0,0,0,3.06-3.08V14.64ZM13.17,6.42c0,.34,0,.66,0,1A3.07,3.07,0,0,1,7,7.38c0-.31,0-.62,0-1-.88,0-1.67-.06-2.45,0a2.4,2.4,0,0,0-2.14,2c-.12,1.43,0,2.88,0,4.35H32.59c-.05-1.5,0-3-.2-4.45a2.13,2.13,0,0,0-1.77-1.78,22.49,22.49,0,0,0-2.73-.19,14.44,14.44,0,0,1-.14,1.75,3.06,3.06,0,0,1-6-.52c0-.38,0-.77,0-1.15ZM26,5.52c0-.64,0-1.28,0-1.91a1.25,1.25,0,1,0-2.5,0c0,1.24,0,2.48,0,3.71a1.26,1.26,0,1,0,2.52,0C26,6.72,26,6.12,26,5.52Zm-14.67,0h0v-.9c0-.3,0-.6,0-.9a1.26,1.26,0,1,0-2.52,0q0,1.83,0,3.66a1.26,1.26,0,1,0,2.52,0C11.37,6.71,11.36,6.09,11.36,5.47Z" style="fill:#260b01;stroke:#260b01;stroke-miterlimit:10"/><path d="M14.26,20.42a1.6,1.6,0,1,1,1.63-1.58A1.58,1.58,0,0,1,14.26,20.42Z" style="fill:#260b01;stroke:#260b01;stroke-miterlimit:10"/><path d="M20.58,23A1.6,1.6,0,1,1,19,24.59,1.59,1.59,0,0,1,20.58,23Z" style="fill:#260b01;stroke:#260b01;stroke-miterlimit:10"/><path d="M19,18.82a1.57,1.57,0,0,1,1.6-1.6,1.61,1.61,0,1,1-1.6,1.6Z" style="fill:#260b01;stroke:#260b01;stroke-miterlimit:10"/><path d="M28.46,24.55A1.61,1.61,0,1,1,26.81,23,1.61,1.61,0,0,1,28.46,24.55Z" style="fill:#260b01;stroke:#260b01;stroke-miterlimit:10"/><path d="M19,30.33a1.6,1.6,0,1,1,1.6,1.61A1.59,1.59,0,0,1,19,30.33Z" style="fill:#260b01;stroke:#260b01;stroke-miterlimit:10"/><path d="M26.9,17.22a1.59,1.59,0,0,1,1.55,1.6,1.62,1.62,0,0,1-1.62,1.61,1.61,1.61,0,1,1,.07-3.21Z" style="fill:#260b01;stroke:#260b01;stroke-miterlimit:10"/><path d="M9.62,24.57A1.6,1.6,0,1,1,8,23,1.6,1.6,0,0,1,9.62,24.57Z" style="fill:#260b01;stroke:#260b01;stroke-miterlimit:10"/><path d="M9.62,30.38a1.6,1.6,0,0,1-3.2-.07,1.6,1.6,0,1,1,3.2.07Z" style="fill:#260b01;stroke:#260b01;stroke-miterlimit:10"/><path d="M14.31,26.18a1.61,1.61,0,1,1,0-3.21,1.61,1.61,0,0,1,0,3.21Z" style="fill:#260b01;stroke:#260b01;stroke-miterlimit:10"/><path d="M15.89,30.33a1.59,1.59,0,0,1-1.6,1.61,1.61,1.61,0,1,1,1.6-1.61Z" style="fill:#260b01;stroke:#260b01;stroke-miterlimit:10"/></g></g></g></svg>