<svg xmlns="http://www.w3.org/2000/svg" viewBox="0 0 34.4 36.64"><g id="Capa_2" data-name="Capa 2"><g id="CREADO"><path d="M.15,34.5C-.07,34.25,0,34,0,33.67.23,26.12.14,18.57.16,11a1.88,1.88,0,0,1,1.31-.23H31.38a3.14,3.14,0,0,1,1.14.11.51.51,0,0,1,.22.17,2.09,2.09,0,0,1,.15,1q0,9.41,0,18.81v.14A3.13,3.13,0,0,1,31,34.33a3.09,3.09,0,0,1-1.13.12H3.21A3.35,3.35,0,0,1,.42,33.39C.35,33.8.48,34.21.15,34.5Z" style="fill:#ecf4fe"/><path d="M9.91,2.43H24.48a2.11,2.11,0,0,1,.15,1.75c-.18.33-.51.28-.81.32s-.73,0-.7.39.46.32.75.34a2.79,2.79,0,0,1,.7.08,1.27,1.27,0,0,1,.41.27,1,1,0,0,0,1.42,0A1.44,1.44,0,0,1,27,5.27c.32-.06.66,0,1-.06s.35,0,.38-.26-.15-.32-.33-.39l-.14,0c-.35-.08-.84,0-.95-.44a2,2,0,0,1,.13-1.63h3.86a2.44,2.44,0,0,1,1.91,2.38,15.74,15.74,0,0,1,0,2.57.77.77,0,0,1-.85.83l-.72,0H1.44A1.81,1.81,0,0,1,.14,8c0-1.09-.05-2.18,0-3.27A2.34,2.34,0,0,1,2.48,2.45c1.61,0,3.22,0,4.83,0A2.12,2.12,0,0,1,7.46,4c0,.27-.25.39-.5.43a4.49,4.49,0,0,0-.64.1c-.16.06-.31.15-.3.35s.19.26.35.28c.33.06.67,0,1,.07a.46.46,0,0,1,.26.1,1.41,1.41,0,0,0,2.17,0,6.35,6.35,0,0,1,1.06-.11c.21,0,.45-.08.43-.37s-.23-.27-.42-.32c-.37-.08-.82.09-1.1-.33A2.09,2.09,0,0,1,9.91,2.43Z" style="fill:#fe435a"/><path d="M.15,34.5V32.78c.24,0,.29.2.37.33A2.36,2.36,0,0,0,2.64,34.2H30.93a3.11,3.11,0,0,1,1.65-.2c.3.18.2.45.15.7a2.31,2.31,0,0,1-1.92,1.93H2.49A2.35,2.35,0,0,1,.15,34.5Z" style="fill:#b4dafe"/><path d="M32.66,11H.16a8.79,8.79,0,0,1,0-1.85,1.43,1.43,0,0,1,1-.25H31.47C32.84,8.92,33.3,9.73,32.66,11Z" style="fill:#fe435b"/><path d="M32.66,11c0-1.83,0-1.83-1.87-1.83H.14A3.7,3.7,0,0,1,.14,8Q16,8,31.83,8c.64,0,.9-.16.83-.83-.07-.85.08-1.72-.07-2.57A2.33,2.33,0,0,0,31.2,2.7c-.11-.05-.17-.16-.26-.24a3.79,3.79,0,0,1,1.89.18,2.19,2.19,0,0,1,1.42,1.9,58.37,58.37,0,0,1,0,6.48,1.44,1.44,0,0,1-1.58,0Z" style="fill:#e3374e"/><path d="M32.65,11l1.58,0v19.6c0,1.12.24,2.22.14,3.35,0,.23.07.48-.13.68-.42-.57-.17-1.2-.14-1.8a1.38,1.38,0,0,1-1.44,1.22,4.39,4.39,0,0,1-1.73.13c.06-.07.11-.18.19-.21a2.65,2.65,0,0,0,1.53-2.74Q32.66,21.14,32.65,11Z" style="fill:#d4e7fd"/><path d="M9.76,5.44c-.79.91-1.42.9-2.25,0a.63.63,0,0,1-.25-.69,13.69,13.69,0,0,0,.16-2.3c0-.4,0-.8,0-1.21A1.2,1.2,0,0,1,8.58,0,1.24,1.24,0,0,1,9.87,1.16c0,.42,0,.85,0,1.27V4.29A.81.81,0,0,1,9.76,5.44Z" style="fill:#596c76"/><path d="M24.48,4.29V2.43l0-1.13A1.26,1.26,0,0,1,25.74,0,1.21,1.21,0,0,1,27,1.3c0,.37,0,.75,0,1.13a13.69,13.69,0,0,0,.16,2.3.63.63,0,0,1-.25.69c-.83.92-1.46.93-2.25,0A.82.82,0,0,1,24.48,4.29Z" style="fill:#596c76"/><path d="M32.66,34.07c.74-.33.88-.45,1.58-1.39v2a2.36,2.36,0,0,1-2.44,2h-1A2.88,2.88,0,0,0,32.66,34.07Z" style="fill:#97cffe"/><path d="M7.42,2.43l.09,3c-.38,0-.76,0-1.13,0s-.69-.15-.71-.52.3-.56.65-.62a2.09,2.09,0,0,1,.5,0c.35,0,.52-.12.5-.49s0-.9,0-1.35A.2.2,0,0,1,7.42,2.43Z" style="fill:#e13950"/><path d="M26.88,5.42l.09-3a.2.2,0,0,1,.11,0c0,.26,0,.52,0,.78-.07.69,0,1.22.93,1.07a.61.61,0,0,1,.72.61c0,.42-.36.55-.78.52S27.24,5.42,26.88,5.42Z" style="fill:#e13950"/><path d="M17.79,25.94a4.53,4.53,0,0,1-4.36,4.57A4.58,4.58,0,0,1,8.64,26.2a1.26,1.26,0,0,1,1.08-1.44c.75-.08,1.24.35,1.36,1.21a2.17,2.17,0,0,0,1.74,2.08,2.13,2.13,0,0,0,.92-4.16l-.42-.08c-.9-.13-1.29-.49-1.3-1.21s.45-1.14,1.37-1.25a2.12,2.12,0,1,0-2.19-2.76,4.23,4.23,0,0,0-.13.71,1.22,1.22,0,0,1-1.28,1.16,1.27,1.27,0,0,1-1.15-1.39,4.65,4.65,0,0,1,3.71-4.33A4.57,4.57,0,0,1,17.21,17a4.48,4.48,0,0,1-.56,5.25c-.24.29-.22.42,0,.7A4.22,4.22,0,0,1,17.79,25.94Z" style="fill:#596c76"/><path d="M22,19.11c-.12,0-.15-.05-.16,0-.9.57-1.51.58-2,0s-.38-1.21.39-2,1.32-1.31,2-2a1.28,1.28,0,0,1,1.48-.39A1.25,1.25,0,0,1,24.44,16c0,4.38,0,8.77,0,13.15a1.2,1.2,0,0,1-1.26,1.33c-.74,0-1.2-.51-1.2-1.39,0-3.1,0-6.2,0-9.29Z" style="fill:#596c76"/><path d="M9.76,5.44l.15-1.15c.37,0,.75,0,1.13,0a.57.57,0,0,1,0,1.13C10.61,5.46,10.19,5.44,9.76,5.44Z" style="fill:#e3374e"/><path d="M24.48,4.29a4.43,4.43,0,0,0,.15,1.15c-.43,0-.85,0-1.27,0a.54.54,0,0,1-.56-.6.54.54,0,0,1,.55-.53C23.73,4.28,24.11,4.29,24.48,4.29Z" style="fill:#e3374e"/></g></g></svg>