<svg xmlns="http://www.w3.org/2000/svg" viewBox="0 0 39.56 36.79"><g id="Capa_2" data-name="Capa 2"><g id="CREADO"><path d="M38,23.2c1.69.5,1.66.51,1.4,2.59a9.36,9.36,0,0,1-2.93,5.76,9.17,9.17,0,0,1-5.12,2.6,2.36,2.36,0,0,1-1.45.43H12.38c-.26,0-.52,0-.77,0a2.27,2.27,0,0,1-.69,0c-.74-.23-1.51-.35-2.22-.65a10,10,0,0,1-6.36-7.75,6.31,6.31,0,0,1,0-1.84,1.16,1.16,0,0,1,.83-1.1c1.65-.09,3.3-.11,5,0,2.87,0,5.74,0,8.61,0,1.86,0,3.72-.1,5.57,0,2.06,0,4.12-.05,6.18,0,2.87,0,5.75-.05,8.62,0A1.73,1.73,0,0,1,38,23.2Z" style="fill:#e3e9f7"/><path d="M28.43,23.27h-6.2c-.32-.1-.35-.41-.47-.65A7.45,7.45,0,0,0,18.18,19a4.7,4.7,0,0,0-.93-.35,1.32,1.32,0,0,0-1.58.39.43.43,0,0,1-.4.19c-.47-.27-.89-.61-1.36-.87a1.22,1.22,0,0,1-.66-1.14c-.05-2.65,1.58-6.18,4.87-7l.12-.09a6.09,6.09,0,0,1,1.72.46c.21.19.16.47.25.7s.15.34.36.34.29-.17.36-.34,0-.58.29-.75a6.59,6.59,0,0,1,3.49-.32c.4-.23.76,0,1.1.12a6.75,6.75,0,0,1,3.6,3.64,10.15,10.15,0,0,1-.61,9A1,1,0,0,1,28.43,23.27Z" style="fill:#f15c5c"/><path d="M28.43,23.27l.16-.25A1.59,1.59,0,0,1,29.2,23c1,.2,1.55-.33,1.89-1.25a10.28,10.28,0,0,0,.35-7,6.57,6.57,0,0,0-2.77-3.49c-1.67-1.09-2-2.31-.87-4a4.12,4.12,0,0,1,1.81-1.72c.16,0,.24.18.35.28.4.31.63.23.73-.28.06-.3,0-.63.22-.87a5.57,5.57,0,0,1,4.95,5.67A4.2,4.2,0,0,0,36.77,13c2.62,3.16,2.84,6.58,1.26,10.24a1.2,1.2,0,0,1-.29.09Z" style="fill:#5fbe32"/><path d="M8,23.29l-5,0c-.29.16-.58.28-.82-.08.65-.56,1.38-.21,2-.23a7.93,7.93,0,0,1-.51-6.55,7.32,7.32,0,0,1,3.17-4c.32-.2.66-.46,1-.06.58.48.82.4,1-.32.05-.26,0-.57.24-.77a8,8,0,0,1,3.7,1.1.67.67,0,0,1-.14.58,9.47,9.47,0,0,0-1.37,4.36.84.84,0,0,1-.17.5c-.32.21-.66.08-1,0s-.92,0-1.39,0c-.9.06-1.21.39-1.28,1.3a8.58,8.58,0,0,0,.74,3.91A.25.25,0,0,1,8,23.29Z" style="fill:#fec750"/><path d="M11.44,34.31H29.16a8.72,8.72,0,0,0,2.22-.16A6.38,6.38,0,0,1,26,36.76c-4.32.05-8.64,0-13,0-.23,0-.47,0-.66-.15a2.55,2.55,0,0,1,1.76-.15,4.86,4.86,0,0,1-2.43-1.56C11.54,34.75,11.36,34.58,11.44,34.31Z" style="fill:#d7dbe4"/><path d="M29.67,5.56a6.46,6.46,0,0,0-2.14,2.66,2,2,0,0,0,.91,2.58c2.85,1.45,4.07,5,3.6,7.94a15.12,15.12,0,0,1-1,3.61c-.27.63-.64,1-1.34.83-.37-.07-.77.13-1.11-.16A11.55,11.55,0,0,0,30,17.39c-.16-3-1.21-5.41-4-6.8a8.64,8.64,0,0,0-1.24-.43c.15-2.84,1.87-4.75,4.94-5.53A.61.61,0,0,1,29.67,5.56Z" style="fill:#54ae25"/><path d="M7.71,12.52c-.16-.27-.35-.22-.58-.08a7.47,7.47,0,0,0-3.71,6.27,7.08,7.08,0,0,0,1,4.46H2.19c-.06.07-.11.06-.15,0A7.88,7.88,0,0,1,7,11.52c.25-.06.51-.08.76-.13A.77.77,0,0,1,7.71,12.52Z" style="fill:#fdb544"/><path d="M2,23.15l.15,0c.21.25.51.08.76.16a2.83,2.83,0,0,0-.37,2.77,9.81,9.81,0,0,0,7.83,8c.15,0,.31,0,.42.16a2.76,2.76,0,0,1-2.49,0,15.78,15.78,0,0,1-3.82-1.6A9.72,9.72,0,0,1,.16,26,6.36,6.36,0,0,1,0,24.6c0-.93.33-1.24,1.25-1.27C1.53,23.32,1.83,23.42,2,23.15Z" style="fill:#d7dbe4"/><path d="M11,17.79a8.9,8.9,0,0,1,1.72-5.41,6.28,6.28,0,0,1,5.55-2.31c.05.12.1.23-.1.28-3,.84-4.62,4-4.7,6.68a1.2,1.2,0,0,0,.77,1.27,2.34,2.34,0,0,1,1.13.88,1,1,0,0,1-.48,1.11A.78.78,0,0,1,14.2,20a7.69,7.69,0,0,0-2.76-1.75C11.24,18.13,11,18.1,11,17.79Z" style="fill:#d73f3f"/><path d="M21.22,10.48c0,.23,0,.46,0,.68,0,.41-.18.7-.61.72s-.54-.34-.6-.67a3.85,3.85,0,0,1,0-.68,11.18,11.18,0,0,1,1.21-3.6c.28-.43.58-.84.88-1.25s.55-.52.92-.23.25.68,0,1A7.53,7.53,0,0,0,21.55,9C21.41,9.48,21.33,10,21.22,10.48Z" style="fill:#ad7b64"/><path d="M29.67,5.56c0-.31,0-.62,0-.93a6.91,6.91,0,0,0-1.51-3.4c-.28-.34-.53-.72-.09-1.07s.78,0,1.06.37a9.33,9.33,0,0,1,1.8,4.11c0,.25,0,.51,0,.76,0,.41-.05.79-.53.86S29.76,6,29.67,5.56Z" style="fill:#ac7b64"/><path d="M7.71,12.52V11.39A11.66,11.66,0,0,1,8.83,7.66c.21-.39.46-.76.94-.52s.32.69.13,1.07A8.65,8.65,0,0,0,9,11.28a9.43,9.43,0,0,1-.07,1.06c-.05.3-.16.6-.54.64A.55.55,0,0,1,7.71,12.52Z" style="fill:#ad7b64"/><path d="M8.34,34.31h3.1a7.68,7.68,0,0,0,3.08,2.32H12.36A5.79,5.79,0,0,1,8.34,34.31Z" style="fill:#c3c8d1"/><path d="M18.26,18.84a7.36,7.36,0,0,1,4,4.43c-1.85.07-3.7.07-5.55,0a.17.17,0,0,1,.09-.2A3.89,3.89,0,0,1,18.22,23c.33,0,.41-.15.26-.45-.27-.49-.65-.92-.95-1.4A1.63,1.63,0,0,1,18.26,18.84Z" style="fill:#fec750"/><path d="M16.7,23.18a.31.31,0,0,0,0,.1H8a.28.28,0,0,0,0-.09c.65-.48,1.4-.21,2.11-.25a7.39,7.39,0,0,1,1.28.1c-.62-.63-1.2-1.21-1.79-1.79a5.45,5.45,0,0,1-.46-.5c-.45-.61-.38-.94.29-1.4.45-.11.73.17,1,.44.86.85,1.73,1.69,2.56,2.56a1.82,1.82,0,0,0,1.5.61c.67,0,1.34,0,2,0C16.63,23,16.73,23,16.7,23.18Z" style="fill:#6ed743"/><path d="M16.7,23.18,16.55,23a25,25,0,0,1-1.76-2.46.26.26,0,0,1,0-.29l.51-1.1c.78-1.12,1.45-1.2,2.91-.34A1.73,1.73,0,0,0,18,21.45c.19.27.38.54.55.83s.53.49.33.79-.58.09-.88.1S17.14,23.18,16.7,23.18Z" style="fill:#fdb544"/><path d="M14.83,20.28A17.82,17.82,0,0,1,16.55,23c-1.45.17-2.91.59-4.06-.86a29,29,0,0,0-2.27-2.3c-.22-.22-.43-.45-.78-.4a1.48,1.48,0,0,1,.61-1.83l.92.15A9.5,9.5,0,0,1,14.83,20.28Z" style="fill:#5fbe32"/><path d="M10.05,17.64a4.32,4.32,0,0,0-.61,1.83c-.95.76,0,1.17.3,1.7a5.18,5.18,0,0,1,.61,2L8,23.2a7,7,0,0,1-.85-4.52,1.08,1.08,0,0,1,1.12-1C8.87,17.6,9.46,17.64,10.05,17.64Z" style="fill:#54ae25"/><path d="M10.35,23.16a3.7,3.7,0,0,1-.61-2l2,1.9A4,4,0,0,1,10.35,23.16Z" style="fill:#5fbe32"/></g></g></svg>