<svg xmlns="http://www.w3.org/2000/svg" viewBox="0 0 104.95 104.95"><defs><style>.cls-1{fill:#260b01;}.cls-2{fill:#f2f0eb;}</style></defs><g id="Capa_2" data-name="Capa 2"><g id="LOGIN"><g id="Login-2" data-name="Login"><path class="cls-1" d="M105,52.1q0,18.42,0,36.83c0,9.83-6.21,16-16.08,16q-36.4,0-72.82,0c-9.86,0-16-6.19-16-16V16.07C0,6.2,6.17,0,16,0H89.47C99.08,0,105,5.9,105,15.47Q104.94,33.78,105,52.1ZM36.37,66.76c5.57,0,11.13,0,16.7,0,4.21,0,6.28-2.68,5.15-6.76-1.87-6.79-6.34-11.35-12.66-14.15a4.69,4.69,0,0,0-2.85-.14,24.08,24.08,0,0,1-12.47,0,4.73,4.73,0,0,0-2.84.15,21.59,21.59,0,0,0-12.65,14c-1.29,4.13.81,6.91,5.14,6.93C25.38,66.77,30.88,66.76,36.37,66.76Zm.17-29a12.25,12.25,0,1,0-.12-24.49A12.52,12.52,0,0,0,24.18,25.58,12.24,12.24,0,0,0,36.54,37.72Zm43.31-4.34c2.85,0,5.7,0,8.55,0S93,31.55,93,29.07a4.25,4.25,0,0,0-4.46-4.43q-8.55-.12-17.1,0a4.47,4.47,0,0,0-4.65,4.54c0,2.44,1.93,4.15,4.71,4.19S77.07,33.38,79.85,33.38Zm.06,8.77c-2.7,0-5.41,0-8.12,0-3.1.05-5,1.74-5,4.35s2.12,4.41,5,4.43c5.41,0,10.83,0,16.25,0,2.86,0,4.93-1.93,5-4.49s-1.67-4.22-4.76-4.28C85.47,42.11,82.69,42.15,79.91,42.15ZM42.73,88.21v0c.57,0,1.14,0,1.7,0a4.77,4.77,0,0,0,4.32-4.52,4.39,4.39,0,0,0-4.3-4.2,19,19,0,0,0-3.62.06A4.63,4.63,0,0,0,36.9,84,4.77,4.77,0,0,0,41,88.2,13.93,13.93,0,0,0,42.73,88.21Zm19.78.29.07-.27c.57,0,1.14,0,1.7,0a4.47,4.47,0,0,0,4.2-4.1,4.52,4.52,0,0,0-3.76-4.51,15.79,15.79,0,0,0-4.45,0,4.19,4.19,0,0,0-3.52,3.57,3.82,3.82,0,0,0,2.16,4.26A16.25,16.25,0,0,0,62.51,88.5Zm20.33-.15v-.11h1.07c2.7-.07,4.65-1.81,4.74-4.2a4.64,4.64,0,0,0-4.47-4.54,18.38,18.38,0,0,0-3.4.07,4.67,4.67,0,0,0-3.93,3.94,4.48,4.48,0,0,0,3.06,4.41A15.58,15.58,0,0,0,82.84,88.35ZM22.5,88.23c.43,0,.86,0,1.28,0a4.76,4.76,0,0,0,4.77-4.3c.06-2.24-2.05-4.31-4.61-4.45a18.77,18.77,0,0,0-3,0,4.67,4.67,0,0,0-4.22,4.37,4.74,4.74,0,0,0,4.49,4.35C21.64,88.25,22.07,88.23,22.5,88.23Z"/><path class="cls-2" d="M36.37,66.76c-5.49,0-11,0-16.48,0-4.33,0-6.43-2.8-5.14-6.93a21.59,21.59,0,0,1,12.65-14,4.73,4.73,0,0,1,2.84-.15,24.08,24.08,0,0,0,12.47,0,4.69,4.69,0,0,1,2.85.14C51.88,48.64,56.35,53.2,58.22,60c1.13,4.08-.94,6.74-5.15,6.76C47.5,66.78,41.94,66.76,36.37,66.76Z"/><path class="cls-2" d="M36.54,37.72A12.24,12.24,0,0,1,24.18,25.58,12.52,12.52,0,0,1,36.42,13.23a12.25,12.25,0,1,1,.12,24.49Z"/><path class="cls-2" d="M79.85,33.38c-2.78,0-5.56,0-8.34,0s-4.66-1.75-4.71-4.19a4.47,4.47,0,0,1,4.65-4.54q8.55-.12,17.1,0A4.25,4.25,0,0,1,93,29.07c0,2.48-1.88,4.25-4.61,4.3S82.7,33.38,79.85,33.38Z"/><path class="cls-2" d="M79.91,42.15c2.78,0,5.56,0,8.34,0,3.09.06,4.78,1.63,4.76,4.28s-2.09,4.48-5,4.49c-5.42,0-10.84,0-16.25,0-2.9,0-5-1.91-5-4.43s1.9-4.3,5-4.35C74.5,42.12,77.21,42.15,79.91,42.15Z"/><path class="cls-2" d="M42.73,88.21a13.93,13.93,0,0,1-1.71,0A4.77,4.77,0,0,1,36.9,84a4.63,4.63,0,0,1,3.93-4.39,19,19,0,0,1,3.62-.06,4.39,4.39,0,0,1,4.3,4.2,4.77,4.77,0,0,1-4.32,4.52c-.56,0-1.13,0-1.7,0Z"/><path class="cls-2" d="M62.51,88.5a16.25,16.25,0,0,1-3.6-1,3.82,3.82,0,0,1-2.16-4.26,4.19,4.19,0,0,1,3.52-3.57,15.79,15.79,0,0,1,4.45,0,4.52,4.52,0,0,1,3.76,4.51,4.47,4.47,0,0,1-4.2,4.1c-.56,0-1.13,0-1.7,0Z"/><path class="cls-2" d="M82.84,88.35a15.58,15.58,0,0,1-2.92-.44,4.48,4.48,0,0,1-3.06-4.41,4.67,4.67,0,0,1,3.93-3.94,18.38,18.38,0,0,1,3.4-.07A4.64,4.64,0,0,1,88.66,84c-.09,2.39-2,4.13-4.74,4.2H82.85Z"/><path class="cls-2" d="M22.5,88.23c-.43,0-.86,0-1.29,0a4.74,4.74,0,0,1-4.49-4.35,4.67,4.67,0,0,1,4.22-4.37,18.77,18.77,0,0,1,3,0c2.56.14,4.67,2.21,4.61,4.45a4.76,4.76,0,0,1-4.77,4.3C23.36,88.25,22.93,88.23,22.5,88.23Z"/></g></g></g></svg>