<svg xmlns="http://www.w3.org/2000/svg" viewBox="0 0 67.17 73.34"><g id="Capa_2" data-name="Capa 2"><g id="PESO"><path d="M24.2,22.57c-6.33-7.51-3.62-15.45.53-19.15a13.18,13.18,0,0,1,17.41-.26C47.79,8,48.17,15,43,22.57H55c2.93,0,4.05.9,4.57,3.81q3.38,18.72,6.71,37.44c.3,1.69.66,3.37.87,5.08.34,2.72-1.18,4.43-3.91,4.43q-29.64,0-59.28,0c-2.91,0-4.36-1.93-3.82-5,1-5.44,2-10.88,2.93-16.32,1.5-8.35,3-16.7,4.48-25.06.62-3.49,1.58-4.34,5.14-4.34Zm22,28.63c-.36,1-.4,2-.91,2.43a5.2,5.2,0,0,1-5.78.47c-2.35-1.52-2.52-3.9-2.31-6.35.19-2.12,1.13-3.73,3.33-4.34a4.62,4.62,0,0,1,4.75,1.43,1.68,1.68,0,1,0,2.57-2.14,6.45,6.45,0,0,0-2.13-1.64c-4.65-1.78-11.18-.62-12,6.84-.5,4.36,1.74,8.21,5.49,9.29a10.64,10.64,0,0,0,9.15-1.48,2.4,2.4,0,0,0,.93-1.6c.13-1.42,0-2.86,0-4.29,0-.91-.42-1.43-1.39-1.42h-4.3c-.9,0-1.63.49-1.49,1.33a2.36,2.36,0,0,0,1.41,1.41A8.93,8.93,0,0,0,46.18,51.2ZM26.79,46.76c1.3-1.13,2.66-2.2,3.86-3.42a1.49,1.49,0,0,0,.34-.46,1.69,1.69,0,0,0-.54-2,1.79,1.79,0,0,0-1.25-.19c-.41,0-.9.48-1.24.84-1.92,2-3.8,4.1-5.72,6.18-.14-.19-.24-.26-.24-.33,0-1.33,0-2.67-.05-4,0-2-.51-2.77-1.71-2.74s-1.62.79-1.62,2.66v9.16c0,1.1,0,2.2.05,3.29a1.48,1.48,0,0,0,1.58,1.51,1.52,1.52,0,0,0,1.64-1.45,3.08,3.08,0,0,0,.05-1C21.41,52.35,23,51,24.7,49.62c.2.28.38.49.52.73,1.18,2,2.35,4,3.54,6a3,3,0,0,0,3.42.76c1.2-.88.24-1.69-.23-2.44C30.34,52.19,28.69,49.68,26.79,46.76ZM39.37,13.22A5.79,5.79,0,1,0,33.5,19,5.74,5.74,0,0,0,39.37,13.22Z" style="fill:#260b01"/></g></g></svg>