<svg xmlns="http://www.w3.org/2000/svg" viewBox="0 0 22.97 22.92"><defs><style>.cls-1{fill:#333;}</style></defs><g id="Capa_2" data-name="Capa 2"><g id="DIETA3"><g id="Dieta3-2" data-name="Dieta3"><path class="cls-1" d="M9.55,22.92H2.87A2.79,2.79,0,0,1,0,20.07V6.75A2.88,2.88,0,0,1,2.93,3.83c2.47,0,4.93,0,7.4,0,.71,0,1.15.38,1.15,1s-.43,1-1.16,1H3.19c-1,0-1.28.31-1.28,1.3V19.78c0,.95.31,1.26,1.26,1.26H16c.92,0,1.23-.31,1.23-1.24,0-2.41,0-4.81,0-7.22a1,1,0,0,1,.71-1.06.94.94,0,0,1,1.19.92c0,.79,0,1.59,0,2.38,0,1.76,0,3.53,0,5.29A2.8,2.8,0,0,1,17,22.85a2.11,2.11,0,0,1-.62.07Z"/><path class="cls-1" d="M16.51,3.11l3.36,3.35c-.07.08-.15.18-.24.27-2.36,2.35-4.71,4.71-7.07,7a1.4,1.4,0,0,1-.68.38c-1,.23-2,.41-2.93.6-.66.12-.87-.1-.74-.74.19-1,.38-2,.59-2.94a1.22,1.22,0,0,1,.26-.55l7.38-7.38Z"/><path class="cls-1" d="M21,5.39,17.57,2A19.77,19.77,0,0,1,19.28.41a2.32,2.32,0,0,1,3,.35,2.31,2.31,0,0,1,.22,3A21.79,21.79,0,0,1,21,5.39Z"/></g></g></g></svg>