<svg xmlns="http://www.w3.org/2000/svg" viewBox="0 0 23.41 23.43"><g id="Capa_2" data-name="Capa 2"><g id="DIETA3"><g id="Capa_110" data-name="Capa 110"><path d="M9.93,11.63c-.26-.27-.48-.52-.72-.75L.63,2.28C.41,2.07.07,1.84.05,1.6A2,2,0,0,1,.27.22C.5,0,1.14,0,1.57.05s.52.4.76.64l8.59,8.59c.21.21.44.41.7.66.27-.26.52-.48.75-.72L21,.64c.24-.24.5-.59.77-.62A1.83,1.83,0,0,1,23,.28a1.58,1.58,0,0,1,.21,1.22c0,.29-.38.54-.62.78L14,10.87c-.24.23-.46.48-.73.76l.72.76,8.52,8.52a8,8,0,0,1,.57.6A1.07,1.07,0,0,1,23,23.08a1,1,0,0,1-1.49.06,5.39,5.39,0,0,1-.6-.57l-8.53-8.52c-.23-.24-.47-.46-.76-.73-.28.26-.52.48-.75.72L2.34,22.56c-.24.24-.48.61-.75.64A2,2,0,0,1,.21,23C0,22.75,0,22.11,0,21.67c0-.25.36-.47.58-.68l8.58-8.6C9.44,12.16,9.66,11.92,9.93,11.63Z" transform="translate(0)" style="fill:#333"/></g></g></g></svg>