<svg xmlns="http://www.w3.org/2000/svg" viewBox="0 0 175.76 123.72"><g id="Capa_2" data-name="Capa 2"><g id="Capa_131" data-name="Capa 131"><path d="M0,69.26a171.84,171.84,0,0,1,46.72-41C39.5,21.57,32.81,15.38,25.91,9l9.28-9q2.54,2.57,5.05,5.15l5,5.15c2.44,2.48,6.35,6.3,12.74,12.06.93-.41,2.31-1,4-1.61A80.44,80.44,0,0,1,86.6,16.62c17.66,0,35.25,8,39.51,10,24.83,11.91,40.78,29.87,49.65,42-12.81,11.93-27.19,21-43.35,28.63l17.72,16.86-9.45,9.59c-6.14-6.3-12.29-12.79-18.69-19-1.17-1.14-3.6-2.13-5-1.71-33.9,9.94-64.55,1.59-93.33-16.63C15.54,81.21,8,75.11,0,69.26ZM65.85,31.83c2,1.87,3.69,3.42,5.05,4.61,2.46,2.15,3.2,2.66,4.32,2.83a7.33,7.33,0,0,0,4.74-.9A17.52,17.52,0,0,1,94.37,38c-4,5.09-5.54,9.42-4.67,13.2a11.09,11.09,0,0,0,3,5.11A13.06,13.06,0,0,0,99.44,60c6.58,1.48,12.07-2.38,13.07-3.11,1.66,4.51.5,9.76-1.39,15a5.6,5.6,0,0,0,.2,4.34,105.42,105.42,0,0,0,6.55,8.28A37.35,37.35,0,0,0,115,35.29C101.79,22,80.36,20.12,65.85,31.83ZM58,39.44c-12.1,16.44-9.39,38.2,5.2,51,13.37,11.72,35.26,12.67,47,1.23a78.33,78.33,0,0,0-7.28-6,5.91,5.91,0,0,0-4.64-.73c-10.36,4-19.81,2.65-27.7-5.14-8-7.95-9.52-17.54-5.37-28.07a4.85,4.85,0,0,0-.13-3.91C63,45,60.59,42.47,58,39.44Z" style="fill:#260b01"/></g></g></svg>