<svg xmlns="http://www.w3.org/2000/svg" viewBox="0 0 175.7 90.51"><g id="Capa_2" data-name="Capa 2"><g id="Capa_131" data-name="Capa 131"><path d="M0,52.21c21.18-24.16,43.75-44.76,75.85-51,18.7-3.62,36,1.14,52.42,10,16.59,9,35.49,25.25,47.43,41.09C152.55,72.52,127,87.82,95.63,90.21,58.12,93.06,28.22,75.8,0,52.21Zm125.92-6.87a37.87,37.87,0,1,0-37.71,38A37.94,37.94,0,0,0,125.92,45.34Z" style="fill:#260b01"/><path d="M94.18,21.62C88.46,29.47,88.1,35.28,93,40.3s11.08,4.65,18.66-1c3.7,8.63-.32,20.4-9.06,26.53A25.15,25.15,0,0,1,66.94,31.71C71.57,24.37,83.36,17.25,94.18,21.62Z" style="fill:#260b01"/></g></g></svg>