<svg xmlns="http://www.w3.org/2000/svg" viewBox="0 0 31.99 31.99"><g id="Capa_2" data-name="Capa 2"><g id="HOME"><g id="Back_Home" data-name="Back Home"><path d="M0,16a1,1,0,0,1,.35-.76L15.25.35A.94.94,0,0,1,16,0a.61.61,0,0,1,.14.47c0,2.61,0,5.21,0,7.82,0,.05,0,.09,0,.14a1,1,0,0,1-.34.52Q12.38,12.37,9,15.77a1,1,0,0,1-.52.34c-1.06.07-2.12,0-3.17,0H.69A.94.94,0,0,1,0,16Z" style="fill:#b266fe"/><path d="M16,8.63V0a1,1,0,0,1,.76.36L31.64,15.24A1,1,0,0,1,32,16a.53.53,0,0,1-.42.13c-2.66,0-5.33,0-8,0a.84.84,0,0,1-.46-.27l-7-7A.8.8,0,0,1,16,8.69Z" style="fill:#9833fe"/><path d="M0,16H8.63a.49.49,0,0,1,.3.19c2.36,2.37,4.74,4.72,7.09,7.1a.85.85,0,0,1,.09.22,11,11,0,0,1,0,1.4q0,3.18,0,6.34A1,1,0,0,1,16,32a1,1,0,0,1-.76-.35L.36,16.75A1,1,0,0,1,0,16Z" style="fill:#9833fe"/><path d="M16,32V23.37c0-.2.19-.3.32-.43q3.3-3.32,6.62-6.62c.13-.13.23-.29.43-.32H32a1,1,0,0,1-.35.75L16.75,31.64A1,1,0,0,1,16,32Z" style="fill:#7a29cb"/><path d="M15.9,23.28,10,17.36c-.45-.45-.89-.91-1.33-1.36a.78.78,0,0,1,.1-.15l7.12-7.12a.78.78,0,0,1,.15-.1h0a1.07,1.07,0,0,1,.15.61q0,6.74,0,13.47C16.14,22.92,16.2,23.18,15.9,23.28Z" style="fill:#ba98fe"/><path d="M15.9,23.28c.16-.15.09-.34.09-.51q0-7.08,0-14.14a1.5,1.5,0,0,1,.24.2l6.93,6.93c.07.07.13.16.2.24-.76.77-1.52,1.55-2.29,2.32L16,23.37Z" style="fill:#b266fe"/></g></g></g></svg>