<svg xmlns="http://www.w3.org/2000/svg" viewBox="0 0 107 99.45"><defs><style>.cls-1{fill:#260b01;}</style></defs><g id="Capa_2" data-name="Capa 2"><g id="START5"><g id="Start5-2" data-name="Start5"><path class="cls-1" d="M10.43,56.09c3.84,0,7.66-.13,11.47.06a3.5,3.5,0,0,0,3.69-2.21c2.59-4.76,5.35-9.43,8.06-14.13.33-.58.71-1.15,1.27-2l10.9,32.75L59.84,46c1.81,3.05,3.49,5.78,5.06,8.59a2.69,2.69,0,0,0,2.76,1.63c3.75-.12,7.51,0,11.27,0,2.77,0,4.22-1.22,4.25-3.48s-1.5-3.6-4.36-3.62c-2.43,0-4.87-.07-7.3,0a2.39,2.39,0,0,1-2.45-1.42c-3-5.24-6.07-10.43-9.34-16L47.6,53.09C43.94,42,40.44,31.41,36.79,20.4c-.73,1.26-1.25,2.13-1.76,3-4.58,7.94-9.2,15.87-13.72,23.85A3,3,0,0,1,18.2,49c-4.1-.11-8.21-.09-12.31,0a2.18,2.18,0,0,1-2.24-1.38C-7.12,27.6,7.21,1.69,29.9.1A32.71,32.71,0,0,1,52.27,6.36a1.78,1.78,0,0,0,2.52,0,32.7,32.7,0,0,1,51.44,20c2.33,11.19-.65,21.2-8.65,29.35-14.32,14.59-28.88,29-43.34,43.42a4.72,4.72,0,0,1-.46.37Z"/></g></g></g></svg>