<svg xmlns="http://www.w3.org/2000/svg" viewBox="0 0 39.21 54.31"><defs><style>.cls-1{fill:#260b01;}</style></defs><g id="Capa_2" data-name="Capa 2"><g id="DIETA2"><g id="Dieta2-2" data-name="Dieta2"><path class="cls-1" d="M19.61,0A19.74,19.74,0,0,1,38.36,25.42a55.7,55.7,0,0,1-8,16c-2.87,4.1-6,8-9.1,11.93-1,1.3-2.13,1.29-3.19.06C12.18,46.53,6.83,39.33,3,31.11A30.22,30.22,0,0,1,.09,21.34,19.57,19.57,0,0,1,12.31,1.53a21.58,21.58,0,0,1,3.44-1C17,.25,18.32.16,19.61,0Zm0,29.55a9.86,9.86,0,1,0-9.85-9.81A9.87,9.87,0,0,0,19.59,29.55Z"/></g></g></g></svg>