<svg xmlns="http://www.w3.org/2000/svg" viewBox="0 0 28.94 41.75"><defs><style>.cls-1{fill:#260b01;}</style></defs><g id="Capa_2" data-name="Capa 2"><g id="START6-NEW"><path class="cls-1" d="M6.46,14.46c0-2.22,0-4.45,0-6.68a8,8,0,0,1,15.7-2,7.38,7.38,0,0,1,.29,1.92c0,4.48.05,9,0,13.44A7.49,7.49,0,0,1,18.16,28a7.54,7.54,0,0,1-8-.34A7.63,7.63,0,0,1,6.46,21c0-2.17,0-4.35,0-6.52Z"/><path class="cls-1" d="M12.82,38.52V35.38a28.75,28.75,0,0,1-4-1.24A14.2,14.2,0,0,1,0,20.71c0-.89,0-1.79,0-2.69,0-1.2.63-1.94,1.61-1.94s1.57.74,1.62,1.93a33.78,33.78,0,0,0,.33,5.43,11.19,11.19,0,0,0,22-1,44.31,44.31,0,0,0,.14-4.47c0-1.13.65-1.86,1.6-1.86a1.65,1.65,0,0,1,1.62,1.85c0,2.55.17,5.13-.76,7.57A14.2,14.2,0,0,1,16.9,35.09l-.77.16v3.27H17c1.74,0,3.48,0,5.22,0a1.69,1.69,0,0,1,1.88,1.6c0,1-.73,1.63-1.92,1.63H6.77c-1.19,0-1.93-.63-1.92-1.62s.75-1.6,2-1.61C8.78,38.51,10.76,38.52,12.82,38.52Z"/></g></g></svg>