<svg xmlns="http://www.w3.org/2000/svg" viewBox="0 0 96.39 96.33"><defs><style>.cls-1{fill:#260b01;}</style></defs><g id="Capa_2" data-name="Capa 2"><g id="START9"><g id="Start9-2" data-name="Start9"><path class="cls-1" d="M45.41,0V17c-9.88,1.25-17.71,5.84-23.19,14.14a29.81,29.81,0,0,0-4.79,20.49A31,31,0,0,0,47.54,79.1C61.77,79.61,77,69.41,79.36,51h17c-.31,20.45-17.87,44.29-46.09,45.3A48,48,0,0,1,.06,45.69C1.41,17.25,25.49.22,45.41,0Z"/><path class="cls-1" d="M73.78,48A25.45,25.45,0,1,1,48.29,22.57,25.46,25.46,0,0,1,73.78,48Zm-17-9.14A10.17,10.17,0,0,0,55.38,38c-1.28-.52-3-.63-3.75-1.55s-.52-2.68-.74-4.14H45.74a2.57,2.57,0,0,0-.19.41,1.8,1.8,0,0,0,0,.56c.3,2.12-.31,3.46-2.45,4.51-2.59,1.27-3.39,3.86-3.18,6.72.19,2.63,1.85,4,4.07,4.91,1.57.63,3.22,1,4.8,1.64,1.3.48,3.26.7,2.83,2.61S49.18,55.34,47.78,55c-2.27-.52-4.46-1.41-6.82-2.18l-2.18,4.34a12.85,12.85,0,0,0,3,1.39c2.88.52,4.48,1.83,3.8,5,0,.15.13.33.22.54h5.37c0-1,.08-1.86,0-2.72-.13-1.15.37-1.62,1.44-2,3.28-1,4.87-3.18,4.91-6.32,0-3.34-1.43-5.3-4.91-6.5C50.72,46,48.81,45.5,47,44.73c-.72-.32-1.14-1.29-1.7-2a10,10,0,0,1,2.18-1.67,3.59,3.59,0,0,1,2.21.11c1.61.49,3.17,1.13,4.85,1.74Z"/><path class="cls-1" d="M96.39,45.13H79.47c-2.76-16-12-25.34-28.14-28.23V0C73.6.28,95.59,20.28,96.39,45.13Z"/></g></g></g></svg>