<svg xmlns="http://www.w3.org/2000/svg" viewBox="0 0 95.62 95.64"><defs><style>.cls-1{fill:#260b01;}</style></defs><g id="Capa_2" data-name="Capa 2"><g id="START10"><g id="Start10-2" data-name="Start10"><path class="cls-1" d="M70.1,56c.15-1.22.19-2.47.46-3.66a9.54,9.54,0,0,1,7.5-7.68,2.89,2.89,0,0,1,3.69,2,3,3,0,0,1-2,3.68c-3.17,1.17-3.86,2.3-3.39,5.72.78-.14,1.54-.31,2.31-.41,4.9-.63,8.77,1.28,11.87,4.92,6.64,7.81,6.85,21.29.53,29.36-4.37,5.57-11.1,7.47-17,3.9a2,2,0,0,0-1.64,0c-6.11,3.07-11.75,2-16.29-3.12-7.14-8.08-7-22.7.24-30.64C59.93,56.11,63.48,55.06,70.1,56Z"/><path class="cls-1" d="M45.15,79.54A79.18,79.18,0,0,0,47.83,88a75.29,75.29,0,0,0,4.35,7.58c-.41,0-1,.08-1.59.08H6c-5.17,0-7.34-3.43-5.11-8.06,1.14-2.35,2.24-4.72,3.48-7A2.28,2.28,0,0,1,6,79.49c12.88-.06,25.76,0,38.64,0A2.33,2.33,0,0,1,45.15,79.54Z"/><path class="cls-1" d="M16.55,55.46c2.09-4.27,4-8.3,6.06-12.25.23-.44,1.23-.68,1.88-.68,9.21-.05,18.42,0,27.64,0h17.1c-1.3,2.32-2.53,4.61-3.88,6.83-.22.37-.93.55-1.44.61a19.18,19.18,0,0,0-10,4.62,3.94,3.94,0,0,1-2.25,1c-11.27.06-22.54,0-33.8,0C17.53,55.56,17.23,55.51,16.55,55.46Z"/><path class="cls-1" d="M67.73,36.55H25.84l1.3-2.7C28.53,31,30,28.18,31.3,25.31a2,2,0,0,1,2.1-1.38c9,.05,17.92,0,26.88.06a2.13,2.13,0,0,1,1.63.78C63.87,28.57,65.72,32.43,67.73,36.55Z"/><path class="cls-1" d="M7.7,73.49c1.94-3.94,3.74-7.68,5.62-11.37a1.76,1.76,0,0,1,1.33-.7c11.19,0,22.37,0,33.48,0l-3.27,12.1Z"/><path class="cls-1" d="M58.55,18H34.94c.85-1.78,1.61-3.37,2.39-5,1.6-3.29,3.23-6.56,4.82-9.86a4.94,4.94,0,0,1,9.24,0c2.22,4.58,4.47,9.14,6.7,13.71C58.25,17.19,58.35,17.53,58.55,18Z"/></g></g></g></svg>