<svg xmlns="http://www.w3.org/2000/svg" viewBox="0 0 26.08 29.42"><defs><style>.cls-1{fill:#f4f4f4;}</style></defs><g id="Capa_2" data-name="Capa 2"><g id="DIETA3"><g id="Dieta3-2" data-name="Dieta3"><path class="cls-1" d="M16.43,2.12c-.16-.3-.3-.51-.39-.73A1,1,0,0,1,16.48.13a.88.88,0,0,1,1.24.31c.62,1,1.21,2,1.77,3.06a.92.92,0,0,1-.43,1.3c-1,.53-2.08,1-3.14,1.51a1,1,0,0,1-1.24-.47,1,1,0,0,1,.41-1.28c.27-.16.58-.29.95-.48a8.57,8.57,0,0,0-3-.45A11.08,11.08,0,0,0,3.43,20.2c.28.49.41,1,0,1.4a.93.93,0,0,1-1.18.19,1.3,1.3,0,0,1-.47-.54A13.08,13.08,0,0,1,10.25,2,13.35,13.35,0,0,1,16.43,2.12Z"/><path class="cls-1" d="M10,25.37A11.08,11.08,0,0,0,22.71,9.26a1.45,1.45,0,0,1-.3-.78,1,1,0,0,1,1.87-.41,12.48,12.48,0,0,1,1.63,4.39A13.05,13.05,0,0,1,15.56,27.52a14.12,14.12,0,0,1-5.84-.18l.3.59a1,1,0,0,1-.34,1.34.93.93,0,0,1-1.33-.34c-.59-1-1.16-2-1.7-3a.92.92,0,0,1,.41-1.35c1-.52,2-1,3.08-1.48a1,1,0,0,1,1.29.45A1,1,0,0,1,11,24.87C10.74,25,10.44,25.16,10,25.37Z"/><path class="cls-1" d="M13.05,8.39a1.13,1.13,0,0,1,1.06.75c.15.39.29.8.43,1.2a4.5,4.5,0,0,0,2.87,2.88l1.15.41a1.09,1.09,0,0,1,.81,1.09,1.11,1.11,0,0,1-.84,1.09l-1.14.4a4.49,4.49,0,0,0-2.84,2.84c-.15.42-.29.84-.45,1.26a1.11,1.11,0,0,1-2.08,0c-.17-.44-.32-.88-.48-1.32a4.46,4.46,0,0,0-2.75-2.76c-.42-.16-.85-.29-1.27-.45a1.13,1.13,0,0,1,0-2.16l1.15-.41a4.51,4.51,0,0,0,2.87-2.87c.14-.41.28-.81.43-1.21A1.11,1.11,0,0,1,13.05,8.39Zm0,3.47a6.62,6.62,0,0,1-2.83,2.86,6.69,6.69,0,0,1,2.84,2.83,6.65,6.65,0,0,1,2.84-2.84A6.65,6.65,0,0,1,13.05,11.86Z"/></g></g></g></svg>