<svg xmlns="http://www.w3.org/2000/svg" viewBox="0 0 73.91 99.11"><defs><style>.cls-1{fill:#260b01;}</style></defs><g id="Capa_2" data-name="Capa 2"><g id="START7"><g id="Start7-2" data-name="Start7"><path class="cls-1" d="M45,67.59,34.22,58.87c-1.58,5-3.13,9.69-4.54,14.42a21.6,21.6,0,0,1-5.86,9.58c-2.95,2.86-5.42,6.22-8.24,9.23a51.56,51.56,0,0,1-6,5.48c-2.85,2.2-5.85,2-8-.31a5.93,5.93,0,0,1,0-8.08c2.07-2.46,4.37-4.74,6.58-7.09.57-.61,1.15-1.22,1.76-1.79A35.2,35.2,0,0,0,20.45,62.92c2.71-10.26,5.95-20.38,9-30.57.1-.36.14-.75.27-1.41-.92.08-1.72.19-2.52.2-1.1,0-1.56.48-1.71,1.59q-.73,5.35-1.66,10.69a16.21,16.21,0,0,1-1.08,3.68,4.84,4.84,0,0,1-5.58,3.11c-2.74-.6-4.37-2.33-4.13-5.22.36-4.35,1.08-8.67,1.69-13,.3-2.11.64-4.21,1.05-6.29a5.06,5.06,0,0,1,4.5-4.42c6.12-.83,12.24-1.84,18.39-2.27s10.07,2.56,12.31,8.21c1.37,3.47,2.85,6.9,4.29,10.34,0,.1.19.16.39.33,3.56-1.65,7.16-3.34,10.78-5,2.69-1.24,5.17-.66,6.65,1.52a5.25,5.25,0,0,1-1.11,7,30.44,30.44,0,0,1-4.84,3.15C63.77,46.33,60.36,48,57,49.77c-4.6,2.41-7.44,1.5-9.75-3.16-.26-.51-.49-1-1-2.08-.7,2.49-1.35,4.51-1.78,6.58-.08.37.65,1,1.11,1.4,3.81,3.18,7.73,6.23,11.45,9.51,5.46,4.81,5.3,8-.61,12.11S44.73,82.12,38.82,86a11.37,11.37,0,0,1-3.49,1.54,5.39,5.39,0,0,1-6.07-2.71,5.54,5.54,0,0,1,.91-6.77,48.94,48.94,0,0,1,5.06-3.86C38.39,72,41.61,69.91,45,67.59Z"/><path class="cls-1" d="M37,9.34a9.47,9.47,0,0,1,18.93.2A9.47,9.47,0,1,1,37,9.34Z"/></g></g></g></svg>