<svg xmlns="http://www.w3.org/2000/svg" viewBox="0 0 98.9 105.52"><defs><style>.cls-1{fill:#260b01;}</style></defs><g id="Capa_2" data-name="Capa 2"><g id="START6"><g id="Metabolicas"><path class="cls-1" d="M98.57,36.55c0,7.27.48,14.58-.1,21.8-1.35,16.75-10,29.11-24.11,37.87a69.86,69.86,0,0,1-23.67,9.2,8.83,8.83,0,0,1-3.46-.21c-13.39-3-25.39-8.7-34.8-19A46.63,46.63,0,0,1,.12,54.71C-.11,42,.07,29.29,0,16.58c0-1.67.52-2.54,2.3-2.8A170.11,170.11,0,0,0,48.19.24a3.6,3.6,0,0,1,2.66,0A168.24,168.24,0,0,0,96.29,13.71c2.09.31,2.63,1.28,2.61,3.22-.08,6.54,0,13.08,0,19.62ZM49.5,84.45A31.75,31.75,0,1,0,17.72,52.62,31.8,31.8,0,0,0,49.5,84.45Z"/><path class="cls-1" d="M42.4,45.64c0-2.86.05-5.42,0-8C42.33,35.78,43.13,35,45,35c3,.07,6,.06,9,0,1.78,0,2.54.75,2.51,2.52,0,2.62,0,5.25,0,8.08,2.77,0,5.32.06,7.87,0,2-.07,2.8.74,2.74,2.73-.08,3,0,6,0,9,0,1.67-.76,2.41-2.41,2.39-2.63,0-5.26,0-8.19,0,0,2.67-.07,5.21,0,7.75.08,2.09-.77,2.93-2.86,2.86-2.93-.1-5.87-.06-8.81,0-1.77,0-2.53-.76-2.5-2.53.06-2.62,0-5.24,0-8.07-2.77,0-5.32-.06-7.87,0-2,.06-2.8-.76-2.74-2.74.08-3,0-6,0-9,0-1.68.76-2.41,2.41-2.39C36.84,45.66,39.47,45.64,42.4,45.64Z"/></g></g></g></svg>