<svg xmlns="http://www.w3.org/2000/svg" viewBox="0 0 102.89 103.61"><defs><style>.cls-1{fill:#260b01;}</style></defs><g id="Capa_2" data-name="Capa 2"><g id="START8"><g id="Start8-2" data-name="Start8"><path class="cls-1" d="M0,103.51V18.7H12v14H60.61v-14h12V54.48c-8.75-2-15.61,1-21.28,8.35V57.32H33.26V63.2H50.91c-.85,2.06-1.51,3.87-2.38,5.58-.2.4-1.08.63-1.66.64-3.77.06-7.55,0-11.33,0h-2.3v6H47.7l.6,6.07H33.24v6.13c3.19,0,6.33,0,9.47,0,2.23,0,4.87-.72,6.56.24s2.11,3.65,3.34,5.42c2.4,3.47,5,6.82,7.47,10.2ZM51.28,45.15h-18v5.77h18ZM26.89,51V45.15H21.11V51ZM21.08,63.32h5.85V57.55H21.08Zm0,12h5.87V69.62H21Zm5.88,6.37H21.11v5.84h5.81Z"/><path class="cls-1" d="M87.68,48.88v5.77c-4.69,1.42-6.23,3.2-6.14,7.19,1.33-.49,2.58-1.09,3.9-1.43,8.4-2.21,16.48,3.68,17.3,12.66A27.67,27.67,0,0,1,97,93.38a77,77,0,0,1-6.62,7.36,9.44,9.44,0,0,1-9.5,2.48,12.52,12.52,0,0,0-5.71.07c-2.87.67-5.38.35-7.58-1.56-7.66-6.61-13-14.44-13.74-25-.54-7.94,4.23-15.18,11.36-16.67,2.77-.57,5.46-.11,10,1.77.21-4.31,1.62-8,5.18-10.64A11.29,11.29,0,0,1,87.68,48.88Z"/><path class="cls-1" d="M46.11,12.53h8.32v14.1H18.25V12.57h8.24c-.19-4.07.28-7.77,3.6-10.38A9.67,9.67,0,0,1,36.86,0C42.55.35,45.47,4.22,46.11,12.53Zm-6.25-.07c0-2.38.41-4.63-2-5.92A3.33,3.33,0,0,0,34,6.91c-1.86,1.52-1.39,3.54-1.21,5.55Z"/></g></g></g></svg>