<svg xmlns="http://www.w3.org/2000/svg" viewBox="0 0 35.32 31.95"><defs><style>.cls-1{fill:#e8a776;}.cls-2{fill:#eee6d8;}.cls-3{fill:#eab791;}.cls-4{fill:#e19964;}.cls-5{fill:#eab892;}.cls-6{fill:#d37e49;}.cls-7{fill:#d0763c;}.cls-8{fill:#eaba96;}.cls-9{fill:#dfd3c2;}</style></defs><g id="Capa_2" data-name="Capa 2"><g id="START11"><g id="Verduras"><path class="cls-1" d="M6.35,29c-.81-.29-1.37-1-2.14-1.33-.31,0-.36-.31-.5-.5s-.14-.27-.31-.3A.55.55,0,0,1,3,26.56c0-.33-.19-.51-.36-.74A12.75,12.75,0,0,1,0,18,11.6,11.6,0,0,1,9.44,6.72a18.3,18.3,0,0,1,3.63-.18,28.14,28.14,0,0,0,3.18-.08c2.53-.24,4.08-1.9,5.48-3.78.25-.32.41-.66.92-.73s.27-.63.28-1c0-.86.22-1,1.06-1,.36,0,.5.17.5.53a5.8,5.8,0,0,1-.58,3.37c-.51.81-.84,1.72-1.33,2.54a4.8,4.8,0,0,0-.41,4.31c.2.58.34,1.19.5,1.79,0,.35-.3.33-.5.29-1.33-.24-2.68-.1-4-.25a4.34,4.34,0,0,0-4.2.76c-.07.08-.16.16-.16.26,0,1-.74,1.6-1.24,2.32a8.1,8.1,0,0,0-1.38,3.63,5.34,5.34,0,0,1-.2.9c-.71,1-1.59,1.9-2.26,2.95a15.59,15.59,0,0,0-2,4.78C6.67,28.49,6.66,28.82,6.35,29Z"/><path class="cls-2" d="M12.37,15.83a3.25,3.25,0,0,1,.81-1,.69.69,0,0,0,.29-.66,1.17,1.17,0,0,1,.76-1.29,8.57,8.57,0,0,1,2.92-.91.72.72,0,0,1,.86.47c.64.74,1.56.6,2.38.7a25.41,25.41,0,0,1,10,3.1,8.26,8.26,0,0,1,3.76,4,2.39,2.39,0,0,1-.07,2.37,3.93,3.93,0,0,0-.4,2c-.27.45,0,.87.1,1.3s.43.78.07,1.2a9.28,9.28,0,0,1-3.42.5,24.28,24.28,0,0,1-7.92-.69,13.61,13.61,0,0,1-10-9.48A2.13,2.13,0,0,1,12.37,15.83Z"/><path class="cls-3" d="M12.37,15.83A13.07,13.07,0,0,0,20.51,25.9a21.87,21.87,0,0,0,10.63,1.29c.89-.09,1.79-.12,2.69-.18-.43.73-1.22.58-1.86.73a2.85,2.85,0,0,0-1.34.68,13.27,13.27,0,0,1-8.46,3.52,10.59,10.59,0,0,1-5.76-1.54,1.43,1.43,0,0,0-.77-.32,11,11,0,0,1-4.84-7.24,3.36,3.36,0,0,1,0-2.34A8.75,8.75,0,0,1,12.37,15.83Z"/><path class="cls-4" d="M10.84,20.5a11.09,11.09,0,0,0,3.42,8.29c.44.46,1.08.69,1.38,1.29A11.43,11.43,0,0,1,6.35,29a15.17,15.17,0,0,1,3-6.79A7,7,0,0,1,10.84,20.5Z"/><path class="cls-5" d="M33.66,24.51a1.68,1.68,0,0,1,0-1.63c1.16-1.79.18-3.14-.89-4.42A12.28,12.28,0,0,0,27.44,15,27.79,27.79,0,0,0,18.8,13.2c-.57,0-.61-.44-.79-.79a21.67,21.67,0,0,1,4.48.26c.05,0,.12-.08.18-.12a.94.94,0,0,0,.65.35A22.32,22.32,0,0,1,32,16.56a9.25,9.25,0,0,1,3,3.55,2.31,2.31,0,0,1-.25,2.47C34.4,23.2,34.05,23.86,33.66,24.51Z"/><path class="cls-6" d="M3,26.56a.42.42,0,0,1,.44.31,2.54,2.54,0,0,0,0,2.35c.07.25.41.65-.06.78s-.33-.36-.42-.59A2.73,2.73,0,0,1,3,26.56Z"/><path class="cls-7" d="M3.71,27.17a1.15,1.15,0,0,1,.5.5c-.11.36.21,1-.25,1S3.8,28,3.69,27.63A1.81,1.81,0,0,1,3.71,27.17Z"/><path class="cls-8" d="M8,12.89c-.78,0-1.44-.16-1.74-.93a1.78,1.78,0,0,1,.48-1.91A3.18,3.18,0,0,1,9,8.85a1.79,1.79,0,0,1,2,.92A2,2,0,0,1,10.18,12,3.16,3.16,0,0,1,8,12.89Z"/><path class="cls-9" d="M30.1,26.37A23.2,23.2,0,0,1,19.39,23.2a10.93,10.93,0,0,1-4.94-6.11c-.07-.23-.36-.6.08-.72s.35.32.42.54a10.85,10.85,0,0,0,5.65,6.36,21.85,21.85,0,0,0,9.47,2.5c.25,0,.59,0,.57.34S30.32,26.38,30.1,26.37Z"/><path class="cls-9" d="M32.92,21.86c-.06.53-.13,1.07-.18,1.6,0,.17-.08.35-.25.36s-.2-.24-.21-.41a2.69,2.69,0,0,1,0-.85c.43-1.41-.34-2.38-1.19-3.31a11.69,11.69,0,0,0-4.59-2.78A58.46,58.46,0,0,0,20,14.61a1.57,1.57,0,0,1-.23,0c-.21-.07-.54-.1-.47-.4s.36-.17.57-.12c1,.23,2,.45,2.93.7a27.15,27.15,0,0,1,6.09,2.19,7.85,7.85,0,0,1,3.73,3.58A2.5,2.5,0,0,1,32.92,21.86Z"/><path class="cls-9" d="M28.79,24.83a23.58,23.58,0,0,1-4-1.39,21.26,21.26,0,0,1-6-4,12.37,12.37,0,0,1-2.45-3.07c-.12-.23-.4-.55,0-.73s.34.26.44.43c2.23,3.65,5.64,5.78,9.48,7.33.86.34,1.76.58,2.63.89.16.05.4.1.34.34S28.93,24.83,28.79,24.83Z"/><path class="cls-9" d="M18.24,14.76c.48.15,1,.29,1.51.49a34.42,34.42,0,0,1,8.52,4.66,11.59,11.59,0,0,1,2.56,2.67c.11.18.34.44.09.62s-.38-.15-.5-.31a18.66,18.66,0,0,0-5.68-4.7,35.72,35.72,0,0,0-6.42-2.84c-.2-.07-.5-.11-.43-.44C17.92,14.75,18.07,14.76,18.24,14.76Z"/></g></g></g></svg>