<svg xmlns="http://www.w3.org/2000/svg" viewBox="0 0 29.04 29.04"><defs><style>.cls-1{fill:#8bd86b;}.cls-2{fill:#5ab167;}.cls-3{fill:#3d985b;}.cls-4{fill:#c5f143;}</style></defs><g id="Capa_2" data-name="Capa 2"><g id="START11"><g id="Verduras"><path class="cls-1" d="M4.88,27.91a2.93,2.93,0,0,0-.67.5,2.44,2.44,0,0,1-3.43-.15c-.07-.27.14-.41.29-.57,3.53-3.53,7-7.1,10.6-10.57C14.86,14,18,10.85,21.13,7.75c.05-.06,0,0,0,0s.47-.34.22-.6-.44,0-.6.19c-.41.39-.8.8-1.21,1.19-.13.13-.27.31-.48.24s-.18-.31-.18-.49c0-.51,0-1,0-1.53s-.33-.54-.71-.54-.71,0-.7.54c0,1.08,0,2.15,0,3.23A1.32,1.32,0,0,1,17.07,11c-.37.35-.72.72-1.08,1.08-.15.14-.3.36-.52.28s-.19-.38-.19-.6c0-.49,0-1,0-1.47s-.35-.49-.69-.49-.71-.06-.7.48c0,1.08,0,2.16,0,3.23a1.44,1.44,0,0,1-.47,1.16,48.29,48.29,0,0,1-3.94,3.06c-.69.52-1.39,1-2.1,1.55-.17.12-.33.33-.59.23s0-.44,0-.66c.76-2.9,1.52-5.8,2.33-8.68A7.19,7.19,0,0,1,11,7c1.23-1.27,2.48-2.53,3.76-3.76A7.35,7.35,0,0,1,19.8,1.09c.25,0,.48.08.73.06.67.18,1.37.2,2,.43a7.39,7.39,0,0,1,3.07,1.93c0,.27-.25.42-.42.59L22.53,6.79c-.24.24-.43.46-.19.82s0,.5-.2.7c-.45.48-.94.92-1.43,1.46a11.45,11.45,0,0,0,1.64.05c.72,0,.82.1.83.82,0,1.16,0,1.2-1.19,1.2-.9,0-1.81,0-2.71,0a1.35,1.35,0,0,0-1.15.48c-.32.35-.68.66-1,1.06a6.64,6.64,0,0,0,1.53.06c.83,0,.92.1.92.91v.17c0,.87-.07,1-.92,1H15.57a1.27,1.27,0,0,0-1,.41,11.41,11.41,0,0,0-.83,1c-1.32,1.76-2.65,3.53-4,5.31-.38.47-.76.94-1.09,1.43A26.28,26.28,0,0,1,4.88,27.91Z"/><path class="cls-2" d="M9.63,22.22A34.5,34.5,0,0,1,11.94,19a34.37,34.37,0,0,1,2.63-3.38,1.06,1.06,0,0,1,.85-.35c1.17,0,2.34,0,3.51,0,.33,0,.46-.09.47-.45,0-1.26.05-1.26-1.23-1.26H16.64l1.79-1.81c.16-.15.35-.11.54-.11,1.19,0,2.38,0,3.57,0,.37,0,.48-.11.49-.48,0-1.23,0-1.23-1.21-1.23H20.25c.66-.67,1.22-1.24,1.8-1.79.23-.23.38-.42,0-.68s-.21-.31,0-.51l3.56-3.49a7.14,7.14,0,0,1,2.13,4.43,6.08,6.08,0,0,0,.25.79,7.54,7.54,0,0,1-2.08,5.41c-1.32,1.4-2.7,2.74-4.08,4.08a7.45,7.45,0,0,1-3.27,1.84c-2.77.75-5.55,1.48-8.32,2.22C10.05,22.33,9.82,22.43,9.63,22.22Z"/><path class="cls-2" d="M20.53,1.15a10.14,10.14,0,0,1-1.83.19,7.78,7.78,0,0,0-3.84,2c-1,1-2,2.06-3.06,3a9.64,9.64,0,0,0-2.9,5.05c-.62,2.59-1.36,5.16-2,7.74,0,.11,0,.22-.06.33s-.21.35-.37.47a30.8,30.8,0,0,0-4.82,4.08c-.13.14-.27.33-.52.23q1.29-4.35,2.59-8.72c.62-2.09,1.26-4.18,1.88-6.28a7.89,7.89,0,0,1,2-3.43c1.26-1.26,2.5-2.53,3.77-3.76A7.55,7.55,0,0,1,20.53,1.15Z"/><path class="cls-3" d="M9.63,22.22a23.89,23.89,0,0,0,2.89-.71c2-.51,4-1,6-1.59a7.56,7.56,0,0,0,3.38-2c1.24-1.25,2.49-2.48,3.72-3.73a7.08,7.08,0,0,0,2.17-4.64A1.65,1.65,0,0,1,28,8.73a7.5,7.5,0,0,1-1,8.91c-1.33,1.4-2.7,2.75-4.09,4.09A7.11,7.11,0,0,1,20,23.4L5.1,27.87l-.22,0c-.11-.18.07-.24.15-.31a31,31,0,0,0,4.32-5.11A1.44,1.44,0,0,1,9.63,22.22Z"/><path class="cls-4" d="M1.09,24.28c.06,0,.14-.06.18-.12A36.69,36.69,0,0,1,6.8,19.5c2-1.46,3.94-2.91,5.89-4.37a2.15,2.15,0,0,0,1.06-2.08,29,29,0,0,1,0-3c0-.33.08-.46.44-.47,1.26,0,1.26-.05,1.26,1.24v1.51c.68-.66,1.27-1.24,1.84-1.82.15-.15.09-.36.09-.55,0-1.17,0-2.34,0-3.51,0-.36.1-.49.48-.49,1.23,0,1.23,0,1.23,1.21V8.79c.65-.65,1.21-1.2,1.76-1.76.21-.22.37-.44.72-.1s.11.51-.1.73c-3,3-5.95,6-9,9C8.6,20.33,4.88,24.17,1.07,27.92c-.1.1-.19.23-.29.34a2.48,2.48,0,0,1-.17-3.43Z"/></g></g></g></svg>