<svg xmlns="http://www.w3.org/2000/svg" viewBox="0 0 33.15 32.79"><defs><style>.cls-1{fill:#6dc311;}.cls-2{fill:#bee625;}.cls-3{fill:#12a810;}.cls-4{fill:#1e810c;}.cls-5{fill:#6ec414;}</style></defs><g id="Capa_2" data-name="Capa 2"><g id="START11"><g id="Verduras"><path class="cls-1" d="M27.57,3.6a2.82,2.82,0,0,0,.95.93A13.24,13.24,0,0,1,31.16,7a9.53,9.53,0,0,1,1.92,5,16.43,16.43,0,0,1-3.27,11.43A23.08,23.08,0,0,1,17.2,32.18a15,15,0,0,1-6,.5,12.2,12.2,0,0,1-5.87-2.51A10.41,10.41,0,0,1,1.89,25.8a.76.76,0,0,1,0-.76c.08,0,.14,0,.19.07A10.22,10.22,0,0,0,4.52,27a16.16,16.16,0,0,0,4,1.7,12.34,12.34,0,0,0,4.4.39,16.1,16.1,0,0,0,5.69-1.66,18.79,18.79,0,0,0,4.89-3.46,19.54,19.54,0,0,0,3.75-5.1,18.41,18.41,0,0,0,2-6.6,11.6,11.6,0,0,0-1.81-7.77.92.92,0,0,1-.14-.28C27.25,3.94,27.47,3.8,27.57,3.6Z"/><path class="cls-2" d="M27.25,4.15a11.27,11.27,0,0,1,1.89,4.48A12.92,12.92,0,0,1,29.3,12a16.35,16.35,0,0,1-.64,3.39A20.73,20.73,0,0,1,27.24,19a18.62,18.62,0,0,1-2.59,3.82,19,19,0,0,1-5.71,4.51,18,18,0,0,1-4.49,1.62,12.58,12.58,0,0,1-3.57.26,13.46,13.46,0,0,1-4.4-1.12,18.22,18.22,0,0,1-3.77-2.2A6,6,0,0,1,1.85,25a.94.94,0,0,1,1.21-.48,17.11,17.11,0,0,0,6.36.68c.11,0,.24,0,.33-.07a1.63,1.63,0,0,1,.76-.13A15.56,15.56,0,0,0,15,23.73a20.43,20.43,0,0,0,4.83-3,22.34,22.34,0,0,0,3.05-3.1A20.59,20.59,0,0,0,26,12.14,11,11,0,0,0,26.85,8a8.2,8.2,0,0,0-.55-2.94c-.14-.37-.13-.42.23-.58S27,4.17,27.25,4.15Z"/><path class="cls-1" d="M.09,16a.83.83,0,0,1,1.17-.49c.72.27,1.41.59,2.13.85a16.14,16.14,0,0,0,6.22,1.1A16,16,0,0,0,16,15.81a17.17,17.17,0,0,0,8-7.89A9.76,9.76,0,0,0,25.05,4.6a1.42,1.42,0,0,0,.71.12c.32,0,.31.27.36.48a17.33,17.33,0,0,1,.07,2.88,12.54,12.54,0,0,1-1,3.8,16.86,16.86,0,0,1-3,4.59,16,16,0,0,1-4.64,3.61,14.73,14.73,0,0,1-5.31,1.6,11.88,11.88,0,0,1-6.08-1,17.25,17.25,0,0,1-6.1-4.61A.08.08,0,0,1,.09,16Z"/><path class="cls-3" d="M.09,16c.22.05.29.25.42.4a18.08,18.08,0,0,0,4.64,3.66,12.64,12.64,0,0,0,5,1.54,13,13,0,0,0,5.46-.75,15.27,15.27,0,0,0,4.3-2.31A16.63,16.63,0,0,0,23,15.47a15.53,15.53,0,0,0,2.54-4.68,11.15,11.15,0,0,0,.61-3.39c0-.73-.09-1.45-.08-2.18.21,0,.23.15.26.29A10,10,0,0,1,26.39,9a14.25,14.25,0,0,1-1,3.4A18.52,18.52,0,0,1,24,15.09a22.11,22.11,0,0,1-3.9,4.67,23.27,23.27,0,0,1-3.55,2.68,19.65,19.65,0,0,1-4.37,2.07,13.5,13.5,0,0,1-2.88.58,8.28,8.28,0,0,1-2.7-.86A11.78,11.78,0,0,1,.72,18.46a10.8,10.8,0,0,1-.66-1.83A.7.7,0,0,1,.09,16Z"/><path class="cls-4" d="M9.31,25.09c.13-.14.31-.09.47-.12a15.64,15.64,0,0,0,2.78-.67,19,19,0,0,0,2.69-1.2c.78-.43,1.53-.89,2.26-1.37a21.12,21.12,0,0,0,2.12-1.65,20.72,20.72,0,0,0,2.29-2.3,20.14,20.14,0,0,0,2.66-3.87,16.74,16.74,0,0,0,1.56-4,10.59,10.59,0,0,0,.28-3,14.13,14.13,0,0,0-.18-1.42.33.33,0,0,0-.19-.27.56.56,0,0,1,0-.12c0-.3-.14-.36-.41-.29a.43.43,0,0,1-.55-.21A9.65,9.65,0,0,0,23.6,1.9c0-.18.17-.14.28-.16A5.78,5.78,0,0,0,26.31.81c.14-.09.25-.22.39-.31s.2-.09.2.1a1.18,1.18,0,0,0,0,.46,8.86,8.86,0,0,0,.64,2.54c0,.27-.21.37-.32.55a2.92,2.92,0,0,1-.78.46c-.21.07-.21.17-.13.35a8.44,8.44,0,0,1,.58,3.62,12.57,12.57,0,0,1-1.1,4.34,20.91,20.91,0,0,1-4.4,6.47A20.29,20.29,0,0,1,12,24.84a9.23,9.23,0,0,1-2.28.33A1.32,1.32,0,0,1,9.31,25.09Z"/><path class="cls-5" d="M26.93,1.06c-.12-.16,0-.36-.1-.58a4,4,0,0,1-1.14.78,5.45,5.45,0,0,1-1.93.57.24.24,0,0,0-.16.07c-.27-.22-.19-.46,0-.68a3.33,3.33,0,0,1,1-.75A3.77,3.77,0,0,1,26.4,0c.41,0,.5.1.51.5C26.92.69,26.92.88,26.93,1.06Z"/></g></g></g></svg>