<svg xmlns="http://www.w3.org/2000/svg" viewBox="0 0 28.51 28.48"><defs><style>.cls-1{fill:#fe3a2f;}.cls-2{fill:#acca74;}.cls-3{fill:#da2116;}.cls-4{fill:#fe64ac;}.cls-5{fill:#5cc463;}.cls-6{fill:#fe84b1;}.cls-7{fill:#db2217;}.cls-8{fill:#a51910;}.cls-9{fill:#db2116;}.cls-10{fill:#0abe52;}</style></defs><g id="Capa_2" data-name="Capa 2"><g id="START11"><g id="Verduras"><path class="cls-1" d="M.68,26.58a3.58,3.58,0,0,0,.06-3.34,8.2,8.2,0,0,1,1.31-8.85,8.36,8.36,0,0,1,8.49-2.89l.38.06a3.49,3.49,0,0,1,1.84.64,8.54,8.54,0,0,1,1.44,1c.39.38.78.76,1.16,1.16a3.53,3.53,0,0,1,.78,1.3,18.89,18.89,0,0,1,.41,2.12,9.33,9.33,0,0,1-2.39,6.51,7.06,7.06,0,0,1-4.29,2.55,1.44,1.44,0,0,1-.77,0c-.27-.23-.55-.35-.86-.06A3.26,3.26,0,0,1,6,26.37a8.55,8.55,0,0,0-1.74-.53,4.62,4.62,0,0,0-2.87.56C1.13,26.5,1,26.71.68,26.58Z"/><path class="cls-2" d="M15.49,2.1a4.93,4.93,0,0,1,4-2.1,3.88,3.88,0,0,1,1.8.49.86.86,0,0,0,.95,0,4.22,4.22,0,0,1,5.37,1.25,2.4,2.4,0,0,1,.06,2.09,5,5,0,0,1-.94,1.69,39.16,39.16,0,0,1-3.08,3.1l-.17,0A2.92,2.92,0,0,1,21.81,8c-.07-.32.19-.46.36-.64.8-.82,1.62-1.62,2.42-2.43a.71.71,0,0,0,.26-.79c-.17-.52-.75-.63-1.2-.19-.82.79-1.62,1.62-2.43,2.42-.18.17-.33.42-.64.39A2.11,2.11,0,0,1,20,5.56a4.43,4.43,0,0,1,.18-3c-.89.91-1.88,1.84-2.77,2.86a7.76,7.76,0,0,0-1.16,1.06c-.17.14-.31.39-.6.21a4,4,0,0,1-.32-4.09A1.67,1.67,0,0,0,15.49,2.1Z"/><path class="cls-3" d="M9.05,26.69a6.44,6.44,0,0,0,4.76-2.28,9.73,9.73,0,0,0,2.32-4.17A7.53,7.53,0,0,0,16.06,16c0-.13-.18-.26,0-.41a.41.41,0,0,1,.27.19A3.65,3.65,0,0,1,17,17.59a9.52,9.52,0,0,1-.1,4.77A8.57,8.57,0,0,1,5.19,27.75a3.16,3.16,0,0,0-3.69.47.82.82,0,0,1-1.2,0A.85.85,0,0,1,.31,27c.11-.14.24-.27.37-.41a6.57,6.57,0,0,1,2.19-.89A5.52,5.52,0,0,1,6,26.2a3.06,3.06,0,0,0,2.29.38C8.47,27,8.73,27.08,9.05,26.69Z"/><path class="cls-2" d="M27.75,6.77A4.25,4.25,0,0,1,27.43,12c-.32.35-.68.67-1,1a5.6,5.6,0,0,1-1.59.57,4.12,4.12,0,0,1-2.94-.67c-.2-.29.06-.44.21-.61a8,8,0,0,0,1-1.14c1.16-1,2.21-2.14,3.31-3.22C26.89,7.57,27.19,7,27.75,6.77Z"/><path class="cls-4" d="M23.2,11.22c-.14.48-.61.69-.89,1-.15.19-.32.35-.48.53a.41.41,0,0,1-.15.29,29.32,29.32,0,0,1-2.74,2.6l-2,1.91a12.75,12.75,0,0,0-.77-1.78,23.82,23.82,0,0,1,1.92-2,20.65,20.65,0,0,1,1.77-1.73,4.89,4.89,0,0,1,1.19-.22,6.62,6.62,0,0,0,1.62-.56C22.84,11.25,23,11.12,23.2,11.22Z"/><path class="cls-4" d="M15.72,6.68c.41-.4.81-.8,1.23-1.18.09-.09.14-.29.34-.17a.34.34,0,0,1,0,.31,6.65,6.65,0,0,0-.73,2.58.9.9,0,0,1-.13.42c-1.18,1.28-2.4,2.51-3.69,3.69a11.67,11.67,0,0,0-1.78-.77l1.91-2a29.2,29.2,0,0,1,2.6-2.73A.41.41,0,0,1,15.72,6.68Z"/><path class="cls-5" d="M27.75,6.77,26.55,8a3.52,3.52,0,0,1-2.38.73c-.21,0-.42,0-.57-.18.9-.91,1.82-1.8,2.69-2.74a4.55,4.55,0,0,0,1.43-3.37c0-.24-.07-.47-.1-.71A4.18,4.18,0,0,1,28,6.28Z"/><path class="cls-5" d="M18.94,15.68l2.89-2.89a5.19,5.19,0,0,0,2.31.67A4.23,4.23,0,0,0,26,13.07c.14-.06.27-.24.44-.06a5.32,5.32,0,0,1-3.29,1.53A9.49,9.49,0,0,0,18.94,15.68Z"/><path class="cls-5" d="M15.72,6.68,12.83,9.56A10.88,10.88,0,0,0,14,5,5.18,5.18,0,0,1,15.49,2.1c.07,0,.11.12.07.19A4.36,4.36,0,0,0,15.72,6.68Z"/><path class="cls-6" d="M20.6,6.67l3-2.95a.78.78,0,0,1,1-.19.86.86,0,0,1,.5.85.89.89,0,0,1-.35.6l-2.5,2.51c-.13.13-.25.28-.37.41a1.21,1.21,0,0,1-.43.56l-4.25,4.25a3,3,0,0,0-.44.5c-.42.46-.77,1-1.44,1.15a8.62,8.62,0,0,1-1.13-1.13c0-.47.42-.74.71-1.05a5.3,5.3,0,0,1,.59-.57A2.61,2.61,0,0,0,16,11.1l4-4C20.21,6.93,20.35,6.72,20.6,6.67Z"/><path class="cls-7" d="M10.76,25c-.06.22-.08.47-.38.46a.42.42,0,0,1-.44-.4.39.39,0,0,1,.37-.45C10.55,24.6,10.69,24.79,10.76,25Z"/><path class="cls-8" d="M9.05,26.69c0,.31-.12.48-.45.45s-.33-.31-.34-.56C8.57,26.25,8.85,26.22,9.05,26.69Z"/><path class="cls-9" d="M3.77,14.58a.45.45,0,0,1,.37.48.37.37,0,0,1-.39.38A.39.39,0,0,1,3.38,15,.45.45,0,0,1,3.77,14.58Z"/><path class="cls-5" d="M15.49,11.71c-.16-.18.06-.25.11-.36a6.32,6.32,0,0,0,.66-2.7,16.48,16.48,0,0,1,.43-2.09,5.61,5.61,0,0,1,.6-1.23,29.51,29.51,0,0,1,3.16-3.27,4.63,4.63,0,0,0,.15,4.61l-4.88,4.9A.88.88,0,0,1,15.49,11.71Z"/><path class="cls-10" d="M19.86,12.24A6,6,0,0,0,17,13c-.11-.26.12-.32.24-.43a7.69,7.69,0,0,1,2.15-1.15,9.61,9.61,0,0,0,3.34-2.25,1.5,1.5,0,0,1,.74-.57l.09,0A5.65,5.65,0,0,0,26.55,8a37.6,37.6,0,0,1-3.35,3.21A7.61,7.61,0,0,1,19.86,12.24Z"/><path class="cls-5" d="M23.51,8.58a11.15,11.15,0,0,1-4.63,3.23A3.76,3.76,0,0,0,17,13a.45.45,0,0,1-.42.15L21.84,7.9A7.15,7.15,0,0,0,23.51,8.58Z"/></g></g></g></svg>