<svg xmlns="http://www.w3.org/2000/svg" viewBox="0 0 28.68 29.96"><defs><style>.cls-1{fill:#de4118;}.cls-2{fill:#bd3714;}.cls-3{fill:#619200;}.cls-4{fill:#567e01;}.cls-5{fill:#89ad40;}.cls-6{fill:#e67152;}</style></defs><g id="Capa_2" data-name="Capa 2"><g id="START11"><g id="Verduras"><path class="cls-1" d="M3,24.5A12.85,12.85,0,0,1,.52,12.65,7.62,7.62,0,0,1,5.07,7.78l.73-.34c.31-.22.61,0,.91,0A11.85,11.85,0,0,0,10,8c.32,0,.76-.09.9.29s-.14.73-.47,1A7.58,7.58,0,0,0,4.62,12a5.41,5.41,0,0,0-1.08,1.73,1.48,1.48,0,0,0,1.63,2.16,7.54,7.54,0,0,0,4.12-1.92,6.23,6.23,0,0,0,2.19-3.63c.32-.35.8-.33,1.2-.46A5.43,5.43,0,0,0,15,8.51a1.14,1.14,0,0,1,.85-.38,12.64,12.64,0,0,0,5.53-1,.29.29,0,0,1,.28.05,13.26,13.26,0,0,1,3.13,1.44,4.41,4.41,0,0,1,.85,2.24,13.37,13.37,0,0,1-3.47,11.51A14.05,14.05,0,0,1,13.48,27a14.8,14.8,0,0,1-9.67-1.86C3.5,24.94,3.32,24.63,3,24.5Z"/><path class="cls-2" d="M3,24.5a22.11,22.11,0,0,1,2.34,1.16,16.61,16.61,0,0,0,5,1.2,13.81,13.81,0,0,0,9.88-3,13.64,13.64,0,0,0,5.32-9.41,13.55,13.55,0,0,0-.76-5.87,7.43,7.43,0,0,1,3.79,5.86,13.94,13.94,0,0,1-11.9,15.34A14.37,14.37,0,0,1,3.44,25.08,5.9,5.9,0,0,1,3,24.5Z"/><path class="cls-3" d="M10.25,9.19c.22-.27.63-.58.48-.9s-.62-.1-.94-.1a13.88,13.88,0,0,1-4-.75L4.16,6.67a22.16,22.16,0,0,0,5.31-.28,3.58,3.58,0,0,1-.66-2.68,14.55,14.55,0,0,0,3.77,1.65,6.23,6.23,0,0,1,2.3-4.07c.64-.53.9-.55,1.48.05.31.31.78.53.77,1.08a12.18,12.18,0,0,0-2.44,2.43A10.44,10.44,0,0,1,20,5c-.55.16-1,.28-1.51.46s-.93.42-1.5.68a3.74,3.74,0,0,0,1.71.28c.54,0,1.08,0,1.62,0L22,6.3c0,.4-.29.52-.55.68a6.89,6.89,0,0,1-3,.93,14.46,14.46,0,0,1-2.55.19.89.89,0,0,0-.72.27A6.85,6.85,0,0,1,11,10.14a2.3,2.3,0,0,1-1.22,0C9.48,9.63,9.85,9.4,10.25,9.19Z"/><path class="cls-4" d="M9.62,10.08c2.05-.18,4.08-.44,5.64-2a1,1,0,0,1,.82-.19,16.24,16.24,0,0,0,3.75-.46A4.19,4.19,0,0,0,22,6.3c.13,0,.54-.22.28.23a4,4,0,0,1-.61.62A10.63,10.63,0,0,1,16.3,8.31a1.74,1.74,0,0,0-1.41.55A5.82,5.82,0,0,1,12,10.24a2.7,2.7,0,0,0-.4.14,3.44,3.44,0,0,1-1.89.35c-.23,0-.56,0-.57-.3S9.35,10.06,9.62,10.08Z"/><path class="cls-5" d="M17.13,2.42c-.25-.27-.49-.55-.74-.8-.78-.77-.76-.75-1.56,0A6.31,6.31,0,0,0,12.7,5.38s0,0-.06,0,0,0-.06,0A6.54,6.54,0,0,1,15.21.21c.32-.25.55-.32.86,0s.75.69,1.13,1C17.88,1.89,17.88,1.9,17.13,2.42Z"/><path class="cls-6" d="M9.62,10.08l-.49.39a12.84,12.84,0,0,0,2.42-.09A3.92,3.92,0,0,1,10.49,13a8.11,8.11,0,0,1-5.17,3,1.89,1.89,0,0,1-1.85-.59,1.73,1.73,0,0,1-.1-1.88A8,8,0,0,1,9.12,9.1a1.37,1.37,0,0,1,1.13.09Z"/></g></g></g></svg>